<?xml version="1.0" encoding="utf-8" standalone="no"?>
<!DOCTYPE svg PUBLIC "-//W3C//DTD SVG 1.1//EN"
  "http://www.w3.org/Graphics/SVG/1.1/DTD/svg11.dtd">
<!-- Created with matplotlib (http://matplotlib.org/) -->
<svg height="266pt" version="1.1" viewBox="0 0 252 266" width="252pt" xmlns="http://www.w3.org/2000/svg" xmlns:xlink="http://www.w3.org/1999/xlink">
 <defs>
  <style type="text/css">
*{stroke-linecap:butt;stroke-linejoin:round;}
  </style>
 </defs>
 <g id="figure_1">
  <g id="patch_1">
   <path d="M 0 266.4 
L 252 266.4 
L 252 0 
L 0 0 
z
" style="fill:#ffffff;"/>
  </g>
  <g id="axes_1">
   <g id="patch_2">
    <path d="M 51.01625 223 
L 238.68 223 
L 238.68 25.44 
L 51.01625 25.44 
z
" style="fill:#ffffff;"/>
   </g>
   <g id="PathCollection_1">
    <path clip-path="url(#pfeeb2d35b7)" d="M 37.980745 224.514306 
L 40.268313 224.514306 
L 42.55588 224.514306 
L 44.843448 224.514306 
L 47.131015 224.514306 
L 49.418583 224.514306 
L 51.70615 224.514306 
L 53.993718 224.514306 
L 56.281286 224.514306 
L 58.568853 224.514306 
L 60.856421 224.514306 
L 63.143988 224.514306 
L 65.431556 224.514306 
L 67.719123 224.514306 
L 70.006691 224.514306 
L 72.294259 224.514306 
L 74.581826 224.514306 
L 76.869394 224.514306 
L 79.156961 224.514306 
L 81.444529 224.514306 
L 83.732096 224.514306 
L 86.019664 224.514306 
L 88.307231 224.514306 
L 90.594799 224.514306 
L 92.882367 224.514306 
L 95.169934 224.514306 
L 97.457502 224.514306 
L 99.745069 224.514306 
L 102.032637 224.514306 
L 104.320204 224.514306 
L 106.607772 224.514306 
L 108.895339 224.514306 
L 111.182907 224.514306 
L 113.470475 224.514306 
L 115.758042 224.514306 
L 118.04561 224.514306 
L 120.333177 224.514306 
L 122.620745 224.514306 
L 124.908312 224.514306 
L 127.19588 224.514306 
L 129.483447 224.514306 
L 131.771015 224.514306 
L 134.058583 224.514306 
L 136.34615 224.514306 
L 138.633718 224.514306 
L 140.921285 224.514306 
L 143.208853 224.514306 
L 145.49642 224.514306 
L 147.783988 224.514306 
L 150.071556 224.514306 
L 152.359123 224.514306 
L 154.646691 224.514306 
L 156.934258 224.514306 
L 159.221826 224.514306 
L 161.509393 224.514306 
L 163.796961 224.514306 
L 166.084528 224.514306 
L 168.372096 224.514306 
L 170.659664 224.514306 
L 172.947231 224.514306 
L 175.234799 224.514306 
L 177.522366 224.514306 
L 179.809934 224.514306 
L 182.097501 224.514306 
L 184.385069 224.514306 
L 186.672636 224.514306 
L 188.960204 224.514306 
L 191.247772 224.514306 
L 193.535339 224.514306 
L 195.822907 224.514306 
L 198.110474 224.514306 
L 200.398042 224.514306 
L 202.685609 224.514306 
L 204.973177 224.514306 
L 207.260745 224.514306 
L 209.548312 224.514306 
L 211.83588 224.514306 
L 214.123447 224.514306 
L 216.411015 224.514306 
L 218.698582 224.514306 
L 220.98615 224.514306 
L 223.273717 224.514306 
L 225.561285 224.514306 
L 227.848853 224.514306 
L 230.13642 224.514306 
L 232.423988 224.514306 
L 234.711555 224.514306 
L 236.999123 224.514306 
L 239.28669 224.514306 
L 241.574258 224.514306 
L 243.861825 224.514306 
L 246.149393 224.514306 
L 248.436961 224.514306 
L 250.724528 224.514306 
L 253.012096 224.514306 
L 255.299663 224.514306 
L 257.587231 224.514306 
L 259.874798 224.514306 
L 262.162366 224.514306 
L 262.162366 222.709886 
L 262.162366 220.905467 
L 262.162366 219.101048 
L 262.162366 217.296629 
L 262.162366 215.49221 
L 262.162366 213.687791 
L 262.162366 211.883371 
L 262.162366 210.078952 
L 262.162366 208.274533 
L 262.162366 206.470114 
L 262.162366 204.665695 
L 262.162366 202.861275 
L 262.162366 201.056856 
L 262.162366 199.252437 
L 262.162366 197.448018 
L 262.162366 195.643599 
L 262.162366 193.839179 
L 262.162366 192.03476 
L 262.162366 190.230341 
L 262.162366 188.425922 
L 262.162366 186.621503 
L 262.162366 184.817083 
L 262.162366 183.012664 
L 262.162366 181.208245 
L 262.162366 179.403826 
L 262.162366 177.599407 
L 262.162366 175.794987 
L 262.162366 173.990568 
L 262.162366 172.186149 
L 262.162366 170.38173 
L 262.162366 168.577311 
L 262.162366 166.772891 
L 262.162366 164.968472 
L 262.162366 163.164053 
L 262.162366 161.359634 
L 262.162366 159.555215 
L 262.162366 157.750795 
L 262.162366 155.946376 
L 262.162366 154.141957 
L 262.162366 152.337538 
L 262.162366 150.533119 
L 262.162366 148.7287 
L 262.162366 146.92428 
L 262.162366 145.119861 
L 262.162366 143.315442 
L 262.162366 141.511023 
L 262.162366 139.706604 
L 262.162366 137.902184 
L 262.162366 136.097765 
L 262.162366 134.293346 
L 262.162366 132.488927 
L 262.162366 130.684508 
L 262.162366 128.880088 
L 262.162366 127.075669 
L 262.162366 125.27125 
L 262.162366 123.466831 
L 262.162366 121.662412 
L 262.162366 119.857992 
L 262.162366 118.053573 
L 262.162366 116.249154 
L 262.162366 114.444735 
L 262.162366 112.640316 
L 262.162366 110.835896 
L 262.162366 109.031477 
L 262.162366 107.227058 
L 262.162366 105.422639 
L 262.162366 103.61822 
L 262.162366 101.8138 
L 262.162366 100.009381 
L 262.162366 98.204962 
L 262.162366 96.400543 
L 262.162366 94.596124 
L 262.162366 92.791704 
L 262.162366 90.987285 
L 262.162366 89.182866 
L 262.162366 87.378447 
L 262.162366 85.574028 
L 262.162366 83.769609 
L 262.162366 81.965189 
L 262.162366 80.16077 
L 262.162366 78.356351 
L 262.162366 76.551932 
L 262.162366 74.747513 
L 262.162366 72.943093 
L 262.162366 71.138674 
L 262.162366 69.334255 
L 262.162366 67.529836 
L 262.162366 65.725417 
L 262.162366 63.920997 
L 262.162366 62.116578 
L 262.162366 60.312159 
L 262.162366 58.50774 
L 262.162366 56.703321 
L 262.162366 54.898901 
L 262.162366 53.094482 
L 262.162366 51.290063 
L 262.162366 49.485644 
L 262.162366 47.681225 
L 262.162366 45.876805 
L 259.874798 45.876805 
L 257.587231 45.876805 
L 255.299663 45.876805 
L 253.012096 45.876805 
L 250.724528 45.876805 
L 248.436961 45.876805 
L 246.149393 45.876805 
L 243.861825 45.876805 
L 241.574258 45.876805 
L 239.28669 45.876805 
L 236.999123 45.876805 
L 234.711555 45.876805 
L 232.423988 45.876805 
L 230.13642 45.876805 
L 227.848853 45.876805 
L 225.561285 45.876805 
L 223.273717 45.876805 
L 220.98615 45.876805 
L 218.698582 45.876805 
L 216.411015 45.876805 
L 214.123447 45.876805 
L 211.83588 45.876805 
L 209.548312 45.876805 
L 207.260745 45.876805 
L 204.973177 45.876805 
L 202.685609 45.876805 
L 200.398042 45.876805 
L 198.110474 45.876805 
L 195.822907 45.876805 
L 193.535339 45.876805 
L 191.247772 45.876805 
L 188.960204 45.876805 
L 186.672636 45.876805 
L 184.385069 45.876805 
L 182.097501 45.876805 
L 179.809934 45.876805 
L 177.522366 45.876805 
L 175.234799 45.876805 
L 172.947231 45.876805 
L 170.659664 45.876805 
L 168.372096 45.876805 
L 166.084528 45.876805 
L 163.796961 45.876805 
L 161.509393 45.876805 
L 159.221826 45.876805 
L 156.934258 45.876805 
L 154.646691 45.876805 
L 152.359123 45.876805 
L 150.071556 45.876805 
L 147.783988 45.876805 
L 145.49642 45.876805 
L 143.208853 45.876805 
L 140.921285 45.876805 
L 138.633718 45.876805 
L 136.34615 45.876805 
L 134.058583 45.876805 
L 131.771015 45.876805 
L 129.483447 45.876805 
L 127.19588 45.876805 
L 124.908312 45.876805 
L 122.620745 45.876805 
L 120.333177 45.876805 
L 118.04561 45.876805 
L 115.758042 45.876805 
L 113.470475 45.876805 
L 111.182907 45.876805 
L 108.895339 45.876805 
L 106.607772 45.876805 
L 104.320204 45.876805 
L 102.032637 45.876805 
L 99.745069 45.876805 
L 97.457502 45.876805 
L 95.169934 45.876805 
L 92.882367 45.876805 
L 90.594799 45.876805 
L 88.307231 45.876805 
L 86.019664 45.876805 
L 83.732096 45.876805 
L 81.444529 45.876805 
L 79.156961 45.876805 
L 76.869394 45.876805 
L 74.581826 45.876805 
L 72.294259 45.876805 
L 70.006691 45.876805 
L 67.719123 45.876805 
L 65.431556 45.876805 
L 63.143988 45.876805 
L 60.856421 45.876805 
L 58.568853 45.876805 
L 56.281286 45.876805 
L 53.993718 45.876805 
L 51.70615 45.876805 
L 49.418583 45.876805 
L 47.131015 45.876805 
L 44.843448 45.876805 
L 42.55588 45.876805 
L 40.268313 45.876805 
L 37.980745 45.876805 
L 35.693178 45.876805 
L 35.693178 47.681225 
L 35.693178 49.485644 
L 35.693178 51.290063 
L 35.693178 53.094482 
L 35.693178 54.898901 
L 35.693178 56.703321 
L 35.693178 58.50774 
L 35.693178 60.312159 
L 35.693178 62.116578 
L 35.693178 63.920997 
L 35.693178 65.725417 
L 35.693178 67.529836 
L 35.693178 69.334255 
L 35.693178 71.138674 
L 35.693178 72.943093 
L 35.693178 74.747513 
L 35.693178 76.551932 
L 35.693178 78.356351 
L 35.693178 80.16077 
L 35.693178 81.965189 
L 35.693178 83.769609 
L 35.693178 85.574028 
L 35.693178 87.378447 
L 35.693178 89.182866 
L 35.693178 90.987285 
L 35.693178 92.791704 
L 35.693178 94.596124 
L 35.693178 96.400543 
L 35.693178 98.204962 
L 35.693178 100.009381 
L 35.693178 101.8138 
L 35.693178 103.61822 
L 35.693178 105.422639 
L 35.693178 107.227058 
L 35.693178 109.031477 
L 35.693178 110.835896 
L 35.693178 112.640316 
L 35.693178 114.444735 
L 35.693178 116.249154 
L 35.693178 118.053573 
L 35.693178 119.857992 
L 35.693178 121.662412 
L 35.693178 123.466831 
L 35.693178 125.27125 
L 35.693178 127.075669 
L 35.693178 128.880088 
L 35.693178 130.684508 
L 35.693178 132.488927 
L 35.693178 134.293346 
L 35.693178 136.097765 
L 35.693178 137.902184 
L 35.693178 139.706604 
L 35.693178 141.511023 
L 35.693178 143.315442 
L 35.693178 145.119861 
L 35.693178 146.92428 
L 35.693178 148.7287 
L 35.693178 150.533119 
L 35.693178 152.337538 
L 35.693178 154.141957 
L 35.693178 155.946376 
L 35.693178 157.750795 
L 35.693178 159.555215 
L 35.693178 161.359634 
L 35.693178 163.164053 
L 35.693178 164.968472 
L 35.693178 166.772891 
L 35.693178 168.577311 
L 35.693178 170.38173 
L 35.693178 172.186149 
L 35.693178 173.990568 
L 35.693178 175.794987 
L 35.693178 177.599407 
L 35.693178 179.403826 
L 35.693178 181.208245 
L 35.693178 183.012664 
L 35.693178 184.817083 
L 35.693178 186.621503 
L 35.693178 188.425922 
L 35.693178 190.230341 
L 35.693178 192.03476 
L 35.693178 193.839179 
L 35.693178 195.643599 
L 35.693178 197.448018 
L 35.693178 199.252437 
L 35.693178 201.056856 
L 35.693178 202.861275 
L 35.693178 204.665695 
L 35.693178 206.470114 
L 35.693178 208.274533 
L 35.693178 210.078952 
L 35.693178 211.883371 
L 35.693178 213.687791 
L 35.693178 215.49221 
L 35.693178 217.296629 
L 35.693178 219.101048 
L 35.693178 220.905467 
L 35.693178 222.709886 
L 35.693178 224.514306 
z
M 61.670867 219.101048 
L 60.856421 218.990602 
L 58.568853 218.557174 
L 56.281286 217.901894 
L 54.757879 217.296629 
L 53.993718 217.018217 
L 51.70615 215.921128 
L 50.984013 215.49221 
L 49.418583 214.39565 
L 48.53743 213.687791 
L 47.131015 211.990166 
L 47.039609 211.883371 
L 46.079231 210.078952 
L 45.791803 208.274533 
L 46.06424 206.470114 
L 46.963561 204.665695 
L 47.131015 204.452974 
L 48.313087 202.861275 
L 49.418583 201.846865 
L 50.349835 201.056856 
L 51.70615 200.06017 
L 53.034457 199.252437 
L 53.993718 198.637777 
L 56.281286 197.493565 
L 56.393267 197.448018 
L 58.568853 196.30719 
L 60.361066 195.643599 
L 60.856421 195.38077 
L 63.143988 194.431957 
L 65.235263 193.839179 
L 65.431556 193.753848 
L 67.719123 193.03322 
L 70.006691 192.579787 
L 72.294259 192.323275 
L 74.581826 192.211132 
L 76.869394 192.199819 
L 79.156961 192.249875 
L 81.444529 192.324518 
L 83.732096 192.391499 
L 86.019664 192.426902 
L 88.307231 192.418409 
L 90.594799 192.365735 
L 92.882367 192.277813 
L 95.169934 192.168335 
L 97.457502 192.051832 
L 97.814187 192.03476 
L 99.745069 191.909293 
L 102.032637 191.785465 
L 104.320204 191.699199 
L 106.607772 191.662832 
L 108.895339 191.689222 
L 111.182907 191.792305 
L 113.470475 191.987186 
L 113.840785 192.03476 
L 115.758042 192.229257 
L 118.04561 192.55715 
L 120.333177 192.997285 
L 122.620745 193.565916 
L 123.525191 193.839179 
L 124.908312 194.140767 
L 127.19588 194.747682 
L 129.483447 195.49488 
L 129.880904 195.643599 
L 131.771015 196.1255 
L 134.058583 196.830047 
L 135.741999 197.448018 
L 136.34615 197.602282 
L 138.633718 198.270523 
L 140.921285 199.09241 
L 141.320789 199.252437 
L 143.208853 199.840089 
L 145.49642 200.703551 
L 146.322079 201.056856 
L 147.783988 201.627947 
L 150.071556 202.688 
L 150.414067 202.861275 
L 152.359123 203.97854 
L 153.428532 204.665695 
L 154.646691 205.890215 
L 155.210737 206.470114 
L 155.722574 208.274533 
L 154.826529 210.078952 
L 154.646691 210.220212 
L 152.400869 211.883371 
L 152.359123 211.903391 
L 150.071556 212.941286 
L 148.08295 213.687791 
L 147.783988 213.78477 
L 145.49642 214.471627 
L 143.208853 215.035638 
L 140.969853 215.49221 
L 140.921285 215.502862 
L 138.633718 215.96887 
L 136.34615 216.356993 
L 134.058583 216.681718 
L 131.771015 216.954556 
L 129.483447 217.184656 
L 128.206637 217.296629 
L 127.19588 217.413908 
L 124.908312 217.647951 
L 122.620745 217.846488 
L 120.333177 218.014825 
L 118.04561 218.157291 
L 115.758042 218.277474 
L 113.470475 218.378406 
L 111.182907 218.462713 
L 108.895339 218.532752 
L 106.607772 218.590745 
L 104.320204 218.638936 
L 102.032637 218.67978 
L 99.745069 218.716165 
L 97.457502 218.751617 
L 95.169934 218.7904 
L 92.882367 218.837336 
L 90.594799 218.897151 
L 88.307231 218.973267 
L 86.019664 219.066301 
L 85.299415 219.101048 
L 83.732096 219.21891 
L 81.444529 219.404191 
L 79.156961 219.583855 
L 76.869394 219.740826 
L 74.581826 219.859529 
L 72.294259 219.926587 
L 70.006691 219.929648 
L 67.719123 219.854887 
L 65.431556 219.6835 
L 63.143988 219.386951 
z
" style="fill:none;"/>
   </g>
   <g id="PathCollection_2">
    <path clip-path="url(#pfeeb2d35b7)" d="M 63.143988 219.386951 
L 65.431556 219.6835 
L 67.719123 219.854887 
L 70.006691 219.929648 
L 72.294259 219.926587 
L 74.581826 219.859529 
L 76.869394 219.740826 
L 79.156961 219.583855 
L 81.444529 219.404191 
L 83.732096 219.21891 
L 85.299415 219.101048 
L 86.019664 219.066301 
L 88.307231 218.973267 
L 90.594799 218.897151 
L 92.882367 218.837336 
L 95.169934 218.7904 
L 97.457502 218.751617 
L 99.745069 218.716165 
L 102.032637 218.67978 
L 104.320204 218.638936 
L 106.607772 218.590745 
L 108.895339 218.532752 
L 111.182907 218.462713 
L 113.470475 218.378406 
L 115.758042 218.277474 
L 118.04561 218.157291 
L 120.333177 218.014825 
L 122.620745 217.846488 
L 124.908312 217.647951 
L 127.19588 217.413908 
L 128.206637 217.296629 
L 129.483447 217.184656 
L 131.771015 216.954556 
L 134.058583 216.681718 
L 136.34615 216.356993 
L 138.633718 215.96887 
L 140.921285 215.502862 
L 140.969853 215.49221 
L 143.208853 215.035638 
L 145.49642 214.471627 
L 147.783988 213.78477 
L 148.08295 213.687791 
L 150.071556 212.941286 
L 152.359123 211.903391 
L 152.400869 211.883371 
L 154.646691 210.220212 
L 154.826529 210.078952 
L 155.722574 208.274533 
L 155.210737 206.470114 
L 154.646691 205.890215 
L 153.428532 204.665695 
L 152.359123 203.97854 
L 150.414067 202.861275 
L 150.071556 202.688 
L 147.783988 201.627947 
L 146.322079 201.056856 
L 145.49642 200.703551 
L 143.208853 199.840089 
L 141.320789 199.252437 
L 140.921285 199.09241 
L 138.633718 198.270523 
L 136.34615 197.602282 
L 135.741999 197.448018 
L 134.058583 196.830047 
L 131.771015 196.1255 
L 129.880904 195.643599 
L 129.483447 195.49488 
L 127.19588 194.747682 
L 124.908312 194.140767 
L 123.525191 193.839179 
L 122.620745 193.565916 
L 120.333177 192.997285 
L 118.04561 192.55715 
L 115.758042 192.229257 
L 113.840785 192.03476 
L 113.470475 191.987186 
L 111.182907 191.792305 
L 108.895339 191.689222 
L 106.607772 191.662832 
L 104.320204 191.699199 
L 102.032637 191.785465 
L 99.745069 191.909293 
L 97.814187 192.03476 
L 97.457502 192.051832 
L 95.169934 192.168335 
L 92.882367 192.277813 
L 90.594799 192.365735 
L 88.307231 192.418409 
L 86.019664 192.426902 
L 83.732096 192.391499 
L 81.444529 192.324518 
L 79.156961 192.249875 
L 76.869394 192.199819 
L 74.581826 192.211132 
L 72.294259 192.323275 
L 70.006691 192.579787 
L 67.719123 193.03322 
L 65.431556 193.753848 
L 65.235263 193.839179 
L 63.143988 194.431957 
L 60.856421 195.38077 
L 60.361066 195.643599 
L 58.568853 196.30719 
L 56.393267 197.448018 
L 56.281286 197.493565 
L 53.993718 198.637777 
L 53.034457 199.252437 
L 51.70615 200.06017 
L 50.349835 201.056856 
L 49.418583 201.846865 
L 48.313087 202.861275 
L 47.131015 204.452974 
L 46.963561 204.665695 
L 46.06424 206.470114 
L 45.791803 208.274533 
L 46.079231 210.078952 
L 47.039609 211.883371 
L 47.131015 211.990166 
L 48.53743 213.687791 
L 49.418583 214.39565 
L 50.984013 215.49221 
L 51.70615 215.921128 
L 53.993718 217.018217 
L 54.757879 217.296629 
L 56.281286 217.901894 
L 58.568853 218.557174 
L 60.856421 218.990602 
L 61.670867 219.101048 
z
M 63.060875 217.296629 
L 60.856421 216.907514 
L 58.568853 216.295988 
L 56.527684 215.49221 
L 56.281286 215.39201 
L 53.993718 214.221403 
L 53.169369 213.687791 
L 51.70615 212.387722 
L 51.185051 211.883371 
L 50.088287 210.078952 
L 49.759946 208.274533 
L 50.070747 206.470114 
L 51.096775 204.665695 
L 51.70615 204.023811 
L 52.877061 202.861275 
L 53.993718 202.034056 
L 55.605846 201.056856 
L 56.281286 200.66894 
L 58.568853 199.621785 
L 59.678001 199.252437 
L 60.856421 198.78115 
L 63.143988 198.112839 
L 65.431556 197.673768 
L 67.298077 197.448018 
L 67.719123 197.371077 
L 70.006691 197.131889 
L 72.294259 197.048177 
L 74.581826 197.087896 
L 76.869394 197.223822 
L 79.156961 197.428663 
L 79.349487 197.448018 
L 81.444529 197.588889 
L 83.732096 197.747077 
L 86.019664 197.89238 
L 88.307231 198.011709 
L 90.594799 198.099413 
L 92.882367 198.157357 
L 95.169934 198.192865 
L 97.457502 198.215891 
L 99.745069 198.236723 
L 102.032637 198.264699 
L 104.320204 198.307819 
L 106.607772 198.372884 
L 108.895339 198.465851 
L 111.182907 198.592262 
L 113.470475 198.757662 
L 115.758042 198.968006 
L 118.04561 199.230069 
L 118.212199 199.252437 
L 120.333177 199.459369 
L 122.620745 199.729348 
L 124.908312 200.055103 
L 127.19588 200.446837 
L 129.483447 200.917316 
L 130.083263 201.056856 
L 131.771015 201.396488 
L 134.058583 201.93877 
L 136.34615 202.592679 
L 137.176566 202.861275 
L 138.633718 203.370444 
L 140.921285 204.306437 
L 141.701987 204.665695 
L 143.208853 205.70215 
L 144.229428 206.470114 
L 144.934319 208.274533 
L 143.783882 210.078952 
L 143.208853 210.420328 
L 140.921285 211.652985 
L 140.447601 211.883371 
L 138.633718 212.483539 
L 136.34615 213.128954 
L 134.058583 213.669142 
L 133.971879 213.687791 
L 131.771015 214.120951 
L 129.483447 214.501937 
L 127.19588 214.824234 
L 124.908312 215.097434 
L 122.620745 215.32921 
L 120.740318 215.49221 
L 120.333177 215.532701 
L 118.04561 215.733515 
L 115.758042 215.90292 
L 113.470475 216.045186 
L 111.182907 216.164017 
L 108.895339 216.262733 
L 106.607772 216.344465 
L 104.320204 216.412376 
L 102.032637 216.469927 
L 99.745069 216.521189 
L 97.457502 216.571135 
L 95.169934 216.625778 
L 92.882367 216.691917 
L 90.594799 216.776219 
L 88.307231 216.883514 
L 86.019664 217.014677 
L 83.732096 217.165045 
L 81.86245 217.296629 
L 81.444529 217.33605 
L 79.156961 217.555208 
L 76.869394 217.746688 
L 74.581826 217.891489 
L 72.294259 217.973284 
L 70.006691 217.977001 
L 67.719123 217.885767 
L 65.431556 217.676635 
L 63.143988 217.314787 
z
" style="fill:#fed9c9;"/>
   </g>
   <g id="PathCollection_3">
    <path clip-path="url(#pfeeb2d35b7)" d="M 63.143988 217.314787 
L 65.431556 217.676635 
L 67.719123 217.885767 
L 70.006691 217.977001 
L 72.294259 217.973284 
L 74.581826 217.891489 
L 76.869394 217.746688 
L 79.156961 217.555208 
L 81.444529 217.33605 
L 81.86245 217.296629 
L 83.732096 217.165045 
L 86.019664 217.014677 
L 88.307231 216.883514 
L 90.594799 216.776219 
L 92.882367 216.691917 
L 95.169934 216.625778 
L 97.457502 216.571135 
L 99.745069 216.521189 
L 102.032637 216.469927 
L 104.320204 216.412376 
L 106.607772 216.344465 
L 108.895339 216.262733 
L 111.182907 216.164017 
L 113.470475 216.045186 
L 115.758042 215.90292 
L 118.04561 215.733515 
L 120.333177 215.532701 
L 120.740318 215.49221 
L 122.620745 215.32921 
L 124.908312 215.097434 
L 127.19588 214.824234 
L 129.483447 214.501937 
L 131.771015 214.120951 
L 133.971879 213.687791 
L 134.058583 213.669142 
L 136.34615 213.128954 
L 138.633718 212.483539 
L 140.447601 211.883371 
L 140.921285 211.652985 
L 143.208853 210.420328 
L 143.783882 210.078952 
L 144.934319 208.274533 
L 144.229428 206.470114 
L 143.208853 205.70215 
L 141.701987 204.665695 
L 140.921285 204.306437 
L 138.633718 203.370444 
L 137.176566 202.861275 
L 136.34615 202.592679 
L 134.058583 201.93877 
L 131.771015 201.396488 
L 130.083263 201.056856 
L 129.483447 200.917316 
L 127.19588 200.446837 
L 124.908312 200.055103 
L 122.620745 199.729348 
L 120.333177 199.459369 
L 118.212199 199.252437 
L 118.04561 199.230069 
L 115.758042 198.968006 
L 113.470475 198.757662 
L 111.182907 198.592262 
L 108.895339 198.465851 
L 106.607772 198.372884 
L 104.320204 198.307819 
L 102.032637 198.264699 
L 99.745069 198.236723 
L 97.457502 198.215891 
L 95.169934 198.192865 
L 92.882367 198.157357 
L 90.594799 198.099413 
L 88.307231 198.011709 
L 86.019664 197.89238 
L 83.732096 197.747077 
L 81.444529 197.588889 
L 79.349487 197.448018 
L 79.156961 197.428663 
L 76.869394 197.223822 
L 74.581826 197.087896 
L 72.294259 197.048177 
L 70.006691 197.131889 
L 67.719123 197.371077 
L 67.298077 197.448018 
L 65.431556 197.673768 
L 63.143988 198.112839 
L 60.856421 198.78115 
L 59.678001 199.252437 
L 58.568853 199.621785 
L 56.281286 200.66894 
L 55.605846 201.056856 
L 53.993718 202.034056 
L 52.877061 202.861275 
L 51.70615 204.023811 
L 51.096775 204.665695 
L 50.070747 206.470114 
L 49.759946 208.274533 
L 50.088287 210.078952 
L 51.185051 211.883371 
L 51.70615 212.387722 
L 53.169369 213.687791 
L 53.993718 214.221403 
L 56.281286 215.39201 
L 56.527684 215.49221 
L 58.568853 216.295988 
L 60.856421 216.907514 
L 63.060875 217.296629 
z
M 61.436238 215.49221 
L 60.856421 215.352152 
L 58.568853 214.591039 
L 56.693978 213.687791 
L 56.281286 213.437837 
L 54.217612 211.883371 
L 53.993718 211.588865 
L 52.888796 210.078952 
L 52.481758 208.274533 
L 52.866516 206.470114 
L 53.993718 204.842594 
L 54.119697 204.665695 
L 56.281286 202.890509 
L 56.324335 202.861275 
L 58.568853 201.619181 
L 59.998347 201.056856 
L 60.856421 200.708189 
L 63.143988 200.017011 
L 65.431556 199.568883 
L 67.719123 199.297475 
L 68.459909 199.252437 
L 70.006691 199.121059 
L 72.294259 199.078109 
L 74.581826 199.159292 
L 75.789244 199.252437 
L 76.869394 199.313445 
L 79.156961 199.49076 
L 81.444529 199.698867 
L 83.732096 199.915354 
L 86.019664 200.118928 
L 88.307231 200.293634 
L 90.594799 200.431971 
L 92.882367 200.535215 
L 95.169934 200.611147 
L 97.457502 200.670776 
L 99.745069 200.725596 
L 102.032637 200.786026 
L 104.320204 200.860909 
L 106.607772 200.957657 
L 108.432385 201.056856 
L 108.895339 201.077595 
L 111.182907 201.205353 
L 113.470475 201.365045 
L 115.758042 201.561637 
L 118.04561 201.800765 
L 120.333177 202.089083 
L 122.620745 202.434639 
L 124.908312 202.847303 
L 124.97762 202.861275 
L 127.19588 203.327735 
L 129.483447 203.899773 
L 131.771015 204.58239 
L 132.023309 204.665695 
L 134.058583 205.636731 
L 135.575928 206.470114 
L 136.34615 207.882209 
L 136.553354 208.274533 
L 136.34615 208.531538 
L 135.037551 210.078952 
L 134.058583 210.513075 
L 131.771015 211.412714 
L 130.394879 211.883371 
L 129.483447 212.101663 
L 127.19588 212.587388 
L 124.908312 212.999196 
L 122.620745 213.348629 
L 120.333177 213.64499 
L 119.957289 213.687791 
L 118.04561 213.894654 
L 115.758042 214.105065 
L 113.470475 214.28177 
L 111.182907 214.429363 
L 108.895339 214.551968 
L 106.607772 214.653471 
L 104.320204 214.7378 
L 102.032637 214.809255 
L 99.745069 214.872895 
L 97.457502 214.9349 
L 95.169934 215.002746 
L 92.882367 215.084888 
L 90.594799 215.18962 
L 88.307231 215.322957 
L 86.019664 215.485999 
L 85.947276 215.49221 
L 83.732096 215.710189 
L 81.444529 215.949187 
L 79.156961 216.180972 
L 76.869394 216.3835 
L 74.581826 216.536661 
L 72.294259 216.623172 
L 70.006691 216.627079 
L 67.719123 216.530522 
L 65.431556 216.309214 
L 63.143988 215.92631 
z
" style="fill:#fcbba1;"/>
   </g>
   <g id="PathCollection_4">
    <path clip-path="url(#pfeeb2d35b7)" d="M 63.143988 215.92631 
L 65.431556 216.309214 
L 67.719123 216.530522 
L 70.006691 216.627079 
L 72.294259 216.623172 
L 74.581826 216.536661 
L 76.869394 216.3835 
L 79.156961 216.180972 
L 81.444529 215.949187 
L 83.732096 215.710189 
L 85.947276 215.49221 
L 86.019664 215.485999 
L 88.307231 215.322957 
L 90.594799 215.18962 
L 92.882367 215.084888 
L 95.169934 215.002746 
L 97.457502 214.9349 
L 99.745069 214.872895 
L 102.032637 214.809255 
L 104.320204 214.7378 
L 106.607772 214.653471 
L 108.895339 214.551968 
L 111.182907 214.429363 
L 113.470475 214.28177 
L 115.758042 214.105065 
L 118.04561 213.894654 
L 119.957289 213.687791 
L 120.333177 213.64499 
L 122.620745 213.348629 
L 124.908312 212.999196 
L 127.19588 212.587388 
L 129.483447 212.101663 
L 130.394879 211.883371 
L 131.771015 211.412714 
L 134.058583 210.513075 
L 135.037551 210.078952 
L 136.34615 208.531538 
L 136.553354 208.274533 
L 136.34615 207.882209 
L 135.575928 206.470114 
L 134.058583 205.636731 
L 132.023309 204.665695 
L 131.771015 204.58239 
L 129.483447 203.899773 
L 127.19588 203.327735 
L 124.97762 202.861275 
L 124.908312 202.847303 
L 122.620745 202.434639 
L 120.333177 202.089083 
L 118.04561 201.800765 
L 115.758042 201.561637 
L 113.470475 201.365045 
L 111.182907 201.205353 
L 108.895339 201.077595 
L 108.432385 201.056856 
L 106.607772 200.957657 
L 104.320204 200.860909 
L 102.032637 200.786026 
L 99.745069 200.725596 
L 97.457502 200.670776 
L 95.169934 200.611147 
L 92.882367 200.535215 
L 90.594799 200.431971 
L 88.307231 200.293634 
L 86.019664 200.118928 
L 83.732096 199.915354 
L 81.444529 199.698867 
L 79.156961 199.49076 
L 76.869394 199.313445 
L 75.789244 199.252437 
L 74.581826 199.159292 
L 72.294259 199.078109 
L 70.006691 199.121059 
L 68.459909 199.252437 
L 67.719123 199.297475 
L 65.431556 199.568883 
L 63.143988 200.017011 
L 60.856421 200.708189 
L 59.998347 201.056856 
L 58.568853 201.619181 
L 56.324335 202.861275 
L 56.281286 202.890509 
L 54.119697 204.665695 
L 53.993718 204.842594 
L 52.866516 206.470114 
L 52.481758 208.274533 
L 52.888796 210.078952 
L 53.993718 211.588865 
L 54.217612 211.883371 
L 56.281286 213.437837 
L 56.693978 213.687791 
L 58.568853 214.591039 
L 60.856421 215.352152 
L 61.436238 215.49221 
z
M 59.97392 213.687791 
L 58.568853 213.016266 
L 56.803291 211.883371 
L 56.281286 211.323371 
L 55.238928 210.078952 
L 54.76087 208.274533 
L 55.212061 206.470114 
L 56.281286 205.12024 
L 56.67765 204.665695 
L 58.568853 203.340757 
L 59.461014 202.861275 
L 60.856421 202.22353 
L 63.143988 201.479882 
L 65.141715 201.056856 
L 65.431556 200.988134 
L 67.719123 200.636419 
L 70.006691 200.466997 
L 72.294259 200.443348 
L 74.581826 200.539073 
L 76.869394 200.7313 
L 79.156961 200.995861 
L 79.632632 201.056856 
L 81.444529 201.257395 
L 83.732096 201.517581 
L 86.019664 201.763832 
L 88.307231 201.977862 
L 90.594799 202.150888 
L 92.882367 202.28404 
L 95.169934 202.38581 
L 97.457502 202.468337 
L 99.745069 202.544301 
L 102.032637 202.625156 
L 104.320204 202.72057 
L 106.607772 202.838599 
L 106.966764 202.861275 
L 108.895339 202.983556 
L 111.182907 203.163099 
L 113.470475 203.383865 
L 115.758042 203.652457 
L 118.04561 203.976346 
L 120.333177 204.364301 
L 121.851417 204.665695 
L 122.620745 204.878908 
L 124.908312 205.606683 
L 127.192516 206.470114 
L 127.19588 206.474172 
L 128.574588 208.274533 
L 127.19588 209.505456 
L 126.491939 210.078952 
L 124.908312 210.57179 
L 122.620745 211.188246 
L 120.333177 211.711379 
L 119.469428 211.883371 
L 118.04561 212.087842 
L 115.758042 212.369828 
L 113.470475 212.606658 
L 111.182907 212.804479 
L 108.895339 212.968807 
L 106.607772 213.104846 
L 104.320204 213.217858 
L 102.032637 213.313609 
L 99.745069 213.398884 
L 97.457502 213.481979 
L 95.169934 213.572933 
L 92.882367 213.683113 
L 92.808052 213.687791 
L 90.594799 213.822643 
L 88.307231 214.000265 
L 86.019664 214.217483 
L 83.732096 214.466586 
L 81.444529 214.730699 
L 79.156961 214.986896 
L 76.869394 215.210793 
L 74.581826 215.380135 
L 72.294259 215.475788 
L 70.006691 215.480085 
L 67.719123 215.373255 
L 65.431556 215.128418 
L 63.143988 214.704804 
L 60.856421 214.037797 
z
" style="fill:#fc9b7c;"/>
   </g>
   <g id="PathCollection_5">
    <path clip-path="url(#pfeeb2d35b7)" d="M 60.856421 214.037797 
L 63.143988 214.704804 
L 65.431556 215.128418 
L 67.719123 215.373255 
L 70.006691 215.480085 
L 72.294259 215.475788 
L 74.581826 215.380135 
L 76.869394 215.210793 
L 79.156961 214.986896 
L 81.444529 214.730699 
L 83.732096 214.466586 
L 86.019664 214.217483 
L 88.307231 214.000265 
L 90.594799 213.822643 
L 92.808052 213.687791 
L 92.882367 213.683113 
L 95.169934 213.572933 
L 97.457502 213.481979 
L 99.745069 213.398884 
L 102.032637 213.313609 
L 104.320204 213.217858 
L 106.607772 213.104846 
L 108.895339 212.968807 
L 111.182907 212.804479 
L 113.470475 212.606658 
L 115.758042 212.369828 
L 118.04561 212.087842 
L 119.469428 211.883371 
L 120.333177 211.711379 
L 122.620745 211.188246 
L 124.908312 210.57179 
L 126.491939 210.078952 
L 127.19588 209.505456 
L 128.574588 208.274533 
L 127.19588 206.474172 
L 127.192516 206.470114 
L 124.908312 205.606683 
L 122.620745 204.878908 
L 121.851417 204.665695 
L 120.333177 204.364301 
L 118.04561 203.976346 
L 115.758042 203.652457 
L 113.470475 203.383865 
L 111.182907 203.163099 
L 108.895339 202.983556 
L 106.966764 202.861275 
L 106.607772 202.838599 
L 104.320204 202.72057 
L 102.032637 202.625156 
L 99.745069 202.544301 
L 97.457502 202.468337 
L 95.169934 202.38581 
L 92.882367 202.28404 
L 90.594799 202.150888 
L 88.307231 201.977862 
L 86.019664 201.763832 
L 83.732096 201.517581 
L 81.444529 201.257395 
L 79.632632 201.056856 
L 79.156961 200.995861 
L 76.869394 200.7313 
L 74.581826 200.539073 
L 72.294259 200.443348 
L 70.006691 200.466997 
L 67.719123 200.636419 
L 65.431556 200.988134 
L 65.141715 201.056856 
L 63.143988 201.479882 
L 60.856421 202.22353 
L 59.461014 202.861275 
L 58.568853 203.340757 
L 56.67765 204.665695 
L 56.281286 205.12024 
L 55.212061 206.470114 
L 54.76087 208.274533 
L 55.238928 210.078952 
L 56.281286 211.323371 
L 56.803291 211.883371 
L 58.568853 213.016266 
L 59.97392 213.687791 
z
M 63.667854 213.687791 
L 63.143988 213.555927 
L 60.856421 212.713783 
L 59.28439 211.883371 
L 58.568853 211.277679 
L 57.390095 210.078952 
L 56.826235 208.274533 
L 57.357429 206.470114 
L 58.568853 205.165854 
L 59.120512 204.665695 
L 60.856421 203.662477 
L 62.827774 202.861275 
L 63.143988 202.747391 
L 65.431556 202.153445 
L 67.719123 201.80247 
L 70.006691 201.638258 
L 72.294259 201.623958 
L 74.581826 201.732911 
L 76.869394 201.941874 
L 79.156961 202.226052 
L 81.444529 202.556494 
L 83.483028 202.861275 
L 83.732096 202.900265 
L 86.019664 203.221874 
L 88.307231 203.503033 
L 90.594799 203.732491 
L 92.882367 203.911494 
L 95.169934 204.050561 
L 97.457502 204.164796 
L 99.745069 204.269963 
L 102.032637 204.380267 
L 104.320204 204.507656 
L 106.607772 204.662062 
L 106.65258 204.665695 
L 108.895339 204.912071 
L 111.182907 205.220729 
L 113.470475 205.597245 
L 115.758042 206.052748 
L 117.520699 206.470114 
L 118.04561 206.852651 
L 119.750134 208.274533 
L 118.04561 209.281258 
L 116.487216 210.078952 
L 115.758042 210.22371 
L 113.470475 210.615669 
L 111.182907 210.943156 
L 108.895339 211.215256 
L 106.607772 211.440555 
L 104.320204 211.627748 
L 102.032637 211.786381 
L 100.469461 211.883371 
L 99.745069 211.916708 
L 97.457502 212.020254 
L 95.169934 212.133595 
L 92.882367 212.270936 
L 90.594799 212.44622 
L 88.307231 212.669585 
L 86.019664 212.942934 
L 83.732096 213.256606 
L 81.444529 213.589373 
L 80.774948 213.687791 
L 79.156961 213.910342 
L 76.869394 214.190099 
L 74.581826 214.401677 
L 72.294259 214.521159 
L 70.006691 214.526461 
L 67.719123 214.392869 
L 65.431556 214.08678 
z
" style="fill:#fb7a5a;"/>
   </g>
   <g id="PathCollection_6">
    <path clip-path="url(#pfeeb2d35b7)" d="M 65.431556 214.08678 
L 67.719123 214.392869 
L 70.006691 214.526461 
L 72.294259 214.521159 
L 74.581826 214.401677 
L 76.869394 214.190099 
L 79.156961 213.910342 
L 80.774948 213.687791 
L 81.444529 213.589373 
L 83.732096 213.256606 
L 86.019664 212.942934 
L 88.307231 212.669585 
L 90.594799 212.44622 
L 92.882367 212.270936 
L 95.169934 212.133595 
L 97.457502 212.020254 
L 99.745069 211.916708 
L 100.469461 211.883371 
L 102.032637 211.786381 
L 104.320204 211.627748 
L 106.607772 211.440555 
L 108.895339 211.215256 
L 111.182907 210.943156 
L 113.470475 210.615669 
L 115.758042 210.22371 
L 116.487216 210.078952 
L 118.04561 209.281258 
L 119.750134 208.274533 
L 118.04561 206.852651 
L 117.520699 206.470114 
L 115.758042 206.052748 
L 113.470475 205.597245 
L 111.182907 205.220729 
L 108.895339 204.912071 
L 106.65258 204.665695 
L 106.607772 204.662062 
L 104.320204 204.507656 
L 102.032637 204.380267 
L 99.745069 204.269963 
L 97.457502 204.164796 
L 95.169934 204.050561 
L 92.882367 203.911494 
L 90.594799 203.732491 
L 88.307231 203.503033 
L 86.019664 203.221874 
L 83.732096 202.900265 
L 83.483028 202.861275 
L 81.444529 202.556494 
L 79.156961 202.226052 
L 76.869394 201.941874 
L 74.581826 201.732911 
L 72.294259 201.623958 
L 70.006691 201.638258 
L 67.719123 201.80247 
L 65.431556 202.153445 
L 63.143988 202.747391 
L 62.827774 202.861275 
L 60.856421 203.662477 
L 59.120512 204.665695 
L 58.568853 205.165854 
L 57.357429 206.470114 
L 56.826235 208.274533 
L 57.390095 210.078952 
L 58.568853 211.277679 
L 59.28439 211.883371 
L 60.856421 212.713783 
L 63.143988 213.555927 
L 63.667854 213.687791 
z
M 61.904193 211.883371 
L 60.856421 211.215786 
L 59.498429 210.078952 
L 58.809179 208.274533 
L 59.457021 206.470114 
L 60.856421 205.227908 
L 61.677851 204.665695 
L 63.143988 203.99926 
L 65.431556 203.299749 
L 67.719123 202.888992 
L 68.048546 202.861275 
L 70.006691 202.698334 
L 72.294259 202.688718 
L 74.581826 202.828756 
L 74.8778 202.861275 
L 76.869394 203.087197 
L 79.156961 203.435514 
L 81.444529 203.839508 
L 83.732096 204.260431 
L 86.019664 204.660892 
L 86.052423 204.665695 
L 88.307231 205.123136 
L 90.594799 205.504215 
L 92.882367 205.804224 
L 95.169934 206.039756 
L 97.457502 206.23484 
L 99.745069 206.414614 
L 100.432225 206.470114 
L 102.032637 206.850069 
L 104.320204 207.469995 
L 106.607772 208.216729 
L 106.75625 208.274533 
L 106.607772 208.3172 
L 104.320204 208.874097 
L 102.032637 209.347044 
L 99.745069 209.769712 
L 98.041178 210.078952 
L 97.457502 210.120381 
L 95.169934 210.300099 
L 92.882367 210.518281 
L 90.594799 210.797328 
L 88.307231 211.153646 
L 86.019664 211.590532 
L 84.713267 211.883371 
L 83.732096 212.040058 
L 81.444529 212.438972 
L 79.156961 212.826141 
L 76.869394 213.164643 
L 74.581826 213.420735 
L 72.294259 213.565371 
L 70.006691 213.571723 
L 67.719123 213.409783 
L 65.431556 213.038782 
L 63.143988 212.396917 
z
" style="fill:#f6583e;"/>
   </g>
   <g id="PathCollection_7">
    <path clip-path="url(#pfeeb2d35b7)" d="M 63.143988 212.396917 
L 65.431556 213.038782 
L 67.719123 213.409783 
L 70.006691 213.571723 
L 72.294259 213.565371 
L 74.581826 213.420735 
L 76.869394 213.164643 
L 79.156961 212.826141 
L 81.444529 212.438972 
L 83.732096 212.040058 
L 84.713267 211.883371 
L 86.019664 211.590532 
L 88.307231 211.153646 
L 90.594799 210.797328 
L 92.882367 210.518281 
L 95.169934 210.300099 
L 97.457502 210.120381 
L 98.041178 210.078952 
L 99.745069 209.769712 
L 102.032637 209.347044 
L 104.320204 208.874097 
L 106.607772 208.3172 
L 106.75625 208.274533 
L 106.607772 208.216729 
L 104.320204 207.469995 
L 102.032637 206.850069 
L 100.432225 206.470114 
L 99.745069 206.414614 
L 97.457502 206.23484 
L 95.169934 206.039756 
L 92.882367 205.804224 
L 90.594799 205.504215 
L 88.307231 205.123136 
L 86.052423 204.665695 
L 86.019664 204.660892 
L 83.732096 204.260431 
L 81.444529 203.839508 
L 79.156961 203.435514 
L 76.869394 203.087197 
L 74.8778 202.861275 
L 74.581826 202.828756 
L 72.294259 202.688718 
L 70.006691 202.698334 
L 68.048546 202.861275 
L 67.719123 202.888992 
L 65.431556 203.299749 
L 63.143988 203.99926 
L 61.677851 204.665695 
L 60.856421 205.227908 
L 59.457021 206.470114 
L 58.809179 208.274533 
L 59.498429 210.078952 
L 60.856421 211.215786 
L 61.904193 211.883371 
z
M 65.088186 211.883371 
L 63.143988 211.016696 
L 61.715413 210.078952 
L 60.856421 208.3529 
L 60.823288 208.274533 
L 60.856421 208.191301 
L 61.659027 206.470114 
L 63.143988 205.43426 
L 64.741385 204.665695 
L 65.431556 204.436362 
L 67.719123 203.960837 
L 70.006691 203.745777 
L 72.294259 203.740665 
L 74.581826 203.908958 
L 76.869394 204.218605 
L 79.156961 204.63505 
L 79.311109 204.665695 
L 81.444529 205.261347 
L 83.732096 205.92475 
L 85.719376 206.470114 
L 86.019664 206.713628 
L 88.299883 208.274533 
L 86.019664 209.57286 
L 85.276698 210.078952 
L 83.732096 210.467004 
L 81.444529 211.087841 
L 79.156961 211.691393 
L 78.353427 211.883371 
L 76.869394 212.134573 
L 74.581826 212.433092 
L 72.294259 212.60162 
L 70.006691 212.608855 
L 67.719123 212.419783 
L 65.431556 211.986838 
z
" style="fill:#e83429;"/>
   </g>
   <g id="PathCollection_8">
    <path clip-path="url(#pfeeb2d35b7)" d="M 65.431556 211.986838 
L 67.719123 212.419783 
L 70.006691 212.608855 
L 72.294259 212.60162 
L 74.581826 212.433092 
L 76.869394 212.134573 
L 78.353427 211.883371 
L 79.156961 211.691393 
L 81.444529 211.087841 
L 83.732096 210.467004 
L 85.276698 210.078952 
L 86.019664 209.57286 
L 88.299883 208.274533 
L 86.019664 206.713628 
L 85.719376 206.470114 
L 83.732096 205.92475 
L 81.444529 205.261347 
L 79.311109 204.665695 
L 79.156961 204.63505 
L 76.869394 204.218605 
L 74.581826 203.908958 
L 72.294259 203.740665 
L 70.006691 203.745777 
L 67.719123 203.960837 
L 65.431556 204.436362 
L 64.741385 204.665695 
L 63.143988 205.43426 
L 61.659027 206.470114 
L 60.856421 208.191301 
L 60.823288 208.274533 
L 60.856421 208.3529 
L 61.715413 210.078952 
L 63.143988 211.016696 
L 65.088186 211.883371 
z
M 64.31926 210.078952 
L 63.143988 208.427983 
L 63.061185 208.274533 
L 63.143988 208.110984 
L 64.233179 206.470114 
L 65.431556 205.860026 
L 67.719123 205.148839 
L 70.006691 204.830582 
L 72.294259 204.829564 
L 74.581826 205.091108 
L 76.869394 205.567223 
L 79.156961 206.205994 
L 80.007166 206.470114 
L 81.444529 207.783634 
L 81.994626 208.274533 
L 81.444529 208.697988 
L 79.707208 210.078952 
L 79.156961 210.237493 
L 76.869394 210.840091 
L 74.581826 211.296417 
L 72.294259 211.554147 
L 70.006691 211.564895 
L 67.719123 211.274628 
L 65.431556 210.610105 
z
" style="fill:#ca181d;"/>
   </g>
   <g id="PathCollection_9">
    <path clip-path="url(#pfeeb2d35b7)" d="M 65.431556 210.610105 
L 67.719123 211.274628 
L 70.006691 211.564895 
L 72.294259 211.554147 
L 74.581826 211.296417 
L 76.869394 210.840091 
L 79.156961 210.237493 
L 79.707208 210.078952 
L 81.444529 208.697988 
L 81.994626 208.274533 
L 81.444529 207.783634 
L 80.007166 206.470114 
L 79.156961 206.205994 
L 76.869394 205.567223 
L 74.581826 205.091108 
L 72.294259 204.829564 
L 70.006691 204.830582 
L 67.719123 205.148839 
L 65.431556 205.860026 
L 64.233179 206.470114 
L 63.143988 208.110984 
L 63.061185 208.274533 
L 63.143988 208.427983 
L 64.31926 210.078952 
z
M 68.633466 210.078952 
L 67.719123 209.725069 
L 66.027682 208.274533 
L 67.719123 206.71251 
L 68.290014 206.470114 
L 70.006691 206.206703 
L 72.294259 206.211584 
L 74.26275 206.470114 
L 74.581826 206.587456 
L 76.869394 208.075746 
L 77.109044 208.274533 
L 76.869394 208.451686 
L 74.581826 209.798301 
L 73.753405 210.078952 
L 72.294259 210.261735 
L 70.006691 210.273111 
z
" style="fill:#ac1117;"/>
   </g>
   <g id="PathCollection_10">
    <path clip-path="url(#pfeeb2d35b7)" d="M 70.006691 210.273111 
L 72.294259 210.261735 
L 73.753405 210.078952 
L 74.581826 209.798301 
L 76.869394 208.451686 
L 77.109044 208.274533 
L 76.869394 208.075746 
L 74.581826 206.587456 
L 74.26275 206.470114 
L 72.294259 206.211584 
L 70.006691 206.206703 
L 68.290014 206.470114 
L 67.719123 206.71251 
L 66.027682 208.274533 
L 67.719123 209.725069 
L 68.633466 210.078952 
z
" style="fill:#7e0610;"/>
   </g>
   <g id="matplotlib.axis_1">
    <g id="xtick_1">
     <g id="line2d_1">
      <defs>
       <path d="M 0 0 
L 0 3.5 
" id="m991a3f6119" style="stroke:#262626;stroke-width:0.8;"/>
      </defs>
      <g>
       <use style="fill:#262626;stroke:#262626;stroke-width:0.8;" x="67.334837" xlink:href="#m991a3f6119" y="223"/>
      </g>
     </g>
     <g id="line2d_2">
      <defs>
       <path d="M 0 0 
L 0 -3.5 
" id="m2635c4e29a" style="stroke:#262626;stroke-width:0.8;"/>
      </defs>
      <g>
       <use style="fill:#262626;stroke:#262626;stroke-width:0.8;" x="67.334837" xlink:href="#m2635c4e29a" y="25.44"/>
      </g>
     </g>
     <g id="text_1">
      <!-- 0.0 -->
      <defs>
       <path d="M 31.78125 66.40625 
Q 24.171875 66.40625 20.328125 58.90625 
Q 16.5 51.421875 16.5 36.375 
Q 16.5 21.390625 20.328125 13.890625 
Q 24.171875 6.390625 31.78125 6.390625 
Q 39.453125 6.390625 43.28125 13.890625 
Q 47.125 21.390625 47.125 36.375 
Q 47.125 51.421875 43.28125 58.90625 
Q 39.453125 66.40625 31.78125 66.40625 
z
M 31.78125 74.21875 
Q 44.046875 74.21875 50.515625 64.515625 
Q 56.984375 54.828125 56.984375 36.375 
Q 56.984375 17.96875 50.515625 8.265625 
Q 44.046875 -1.421875 31.78125 -1.421875 
Q 19.53125 -1.421875 13.0625 8.265625 
Q 6.59375 17.96875 6.59375 36.375 
Q 6.59375 54.828125 13.0625 64.515625 
Q 19.53125 74.21875 31.78125 74.21875 
z
" id="DejaVuSans-30"/>
       <path d="M 10.6875 12.40625 
L 21 12.40625 
L 21 0 
L 10.6875 0 
z
" id="DejaVuSans-2e"/>
      </defs>
      <g style="fill:#262626;" transform="translate(58.588118 238.358281)scale(0.11 -0.11)">
       <use xlink:href="#DejaVuSans-30"/>
       <use x="63.623047" xlink:href="#DejaVuSans-2e"/>
       <use x="95.410156" xlink:href="#DejaVuSans-30"/>
      </g>
     </g>
    </g>
    <g id="xtick_2">
     <g id="line2d_3">
      <g>
       <use style="fill:#262626;stroke:#262626;stroke-width:0.8;" x="137.649636" xlink:href="#m991a3f6119" y="223"/>
      </g>
     </g>
     <g id="line2d_4">
      <g>
       <use style="fill:#262626;stroke:#262626;stroke-width:0.8;" x="137.649636" xlink:href="#m2635c4e29a" y="25.44"/>
      </g>
     </g>
     <g id="text_2">
      <!-- 1.0 -->
      <defs>
       <path d="M 12.40625 8.296875 
L 28.515625 8.296875 
L 28.515625 63.921875 
L 10.984375 60.40625 
L 10.984375 69.390625 
L 28.421875 72.90625 
L 38.28125 72.90625 
L 38.28125 8.296875 
L 54.390625 8.296875 
L 54.390625 0 
L 12.40625 0 
z
" id="DejaVuSans-31"/>
      </defs>
      <g style="fill:#262626;" transform="translate(128.902917 238.358281)scale(0.11 -0.11)">
       <use xlink:href="#DejaVuSans-31"/>
       <use x="63.623047" xlink:href="#DejaVuSans-2e"/>
       <use x="95.410156" xlink:href="#DejaVuSans-30"/>
      </g>
     </g>
    </g>
    <g id="xtick_3">
     <g id="line2d_5">
      <g>
       <use style="fill:#262626;stroke:#262626;stroke-width:0.8;" x="207.964434" xlink:href="#m991a3f6119" y="223"/>
      </g>
     </g>
     <g id="line2d_6">
      <g>
       <use style="fill:#262626;stroke:#262626;stroke-width:0.8;" x="207.964434" xlink:href="#m2635c4e29a" y="25.44"/>
      </g>
     </g>
     <g id="text_3">
      <!-- 2.0 -->
      <defs>
       <path d="M 19.1875 8.296875 
L 53.609375 8.296875 
L 53.609375 0 
L 7.328125 0 
L 7.328125 8.296875 
Q 12.9375 14.109375 22.625 23.890625 
Q 32.328125 33.6875 34.8125 36.53125 
Q 39.546875 41.84375 41.421875 45.53125 
Q 43.3125 49.21875 43.3125 52.78125 
Q 43.3125 58.59375 39.234375 62.25 
Q 35.15625 65.921875 28.609375 65.921875 
Q 23.96875 65.921875 18.8125 64.3125 
Q 13.671875 62.703125 7.8125 59.421875 
L 7.8125 69.390625 
Q 13.765625 71.78125 18.9375 73 
Q 24.125 74.21875 28.421875 74.21875 
Q 39.75 74.21875 46.484375 68.546875 
Q 53.21875 62.890625 53.21875 53.421875 
Q 53.21875 48.921875 51.53125 44.890625 
Q 49.859375 40.875 45.40625 35.40625 
Q 44.1875 33.984375 37.640625 27.21875 
Q 31.109375 20.453125 19.1875 8.296875 
z
" id="DejaVuSans-32"/>
      </defs>
      <g style="fill:#262626;" transform="translate(199.217716 238.358281)scale(0.11 -0.11)">
       <use xlink:href="#DejaVuSans-32"/>
       <use x="63.623047" xlink:href="#DejaVuSans-2e"/>
       <use x="95.410156" xlink:href="#DejaVuSans-30"/>
      </g>
     </g>
    </g>
    <g id="text_4">
     <!-- log10 counts (Control) -->
     <defs>
      <path d="M 9.421875 75.984375 
L 18.40625 75.984375 
L 18.40625 0 
L 9.421875 0 
z
" id="DejaVuSans-6c"/>
      <path d="M 30.609375 48.390625 
Q 23.390625 48.390625 19.1875 42.75 
Q 14.984375 37.109375 14.984375 27.296875 
Q 14.984375 17.484375 19.15625 11.84375 
Q 23.34375 6.203125 30.609375 6.203125 
Q 37.796875 6.203125 41.984375 11.859375 
Q 46.1875 17.53125 46.1875 27.296875 
Q 46.1875 37.015625 41.984375 42.703125 
Q 37.796875 48.390625 30.609375 48.390625 
z
M 30.609375 56 
Q 42.328125 56 49.015625 48.375 
Q 55.71875 40.765625 55.71875 27.296875 
Q 55.71875 13.875 49.015625 6.21875 
Q 42.328125 -1.421875 30.609375 -1.421875 
Q 18.84375 -1.421875 12.171875 6.21875 
Q 5.515625 13.875 5.515625 27.296875 
Q 5.515625 40.765625 12.171875 48.375 
Q 18.84375 56 30.609375 56 
z
" id="DejaVuSans-6f"/>
      <path d="M 45.40625 27.984375 
Q 45.40625 37.75 41.375 43.109375 
Q 37.359375 48.484375 30.078125 48.484375 
Q 22.859375 48.484375 18.828125 43.109375 
Q 14.796875 37.75 14.796875 27.984375 
Q 14.796875 18.265625 18.828125 12.890625 
Q 22.859375 7.515625 30.078125 7.515625 
Q 37.359375 7.515625 41.375 12.890625 
Q 45.40625 18.265625 45.40625 27.984375 
z
M 54.390625 6.78125 
Q 54.390625 -7.171875 48.1875 -13.984375 
Q 42 -20.796875 29.203125 -20.796875 
Q 24.46875 -20.796875 20.265625 -20.09375 
Q 16.0625 -19.390625 12.109375 -17.921875 
L 12.109375 -9.1875 
Q 16.0625 -11.328125 19.921875 -12.34375 
Q 23.78125 -13.375 27.78125 -13.375 
Q 36.625 -13.375 41.015625 -8.765625 
Q 45.40625 -4.15625 45.40625 5.171875 
L 45.40625 9.625 
Q 42.625 4.78125 38.28125 2.390625 
Q 33.9375 0 27.875 0 
Q 17.828125 0 11.671875 7.65625 
Q 5.515625 15.328125 5.515625 27.984375 
Q 5.515625 40.671875 11.671875 48.328125 
Q 17.828125 56 27.875 56 
Q 33.9375 56 38.28125 53.609375 
Q 42.625 51.21875 45.40625 46.390625 
L 45.40625 54.6875 
L 54.390625 54.6875 
z
" id="DejaVuSans-67"/>
      <path id="DejaVuSans-20"/>
      <path d="M 48.78125 52.59375 
L 48.78125 44.1875 
Q 44.96875 46.296875 41.140625 47.34375 
Q 37.3125 48.390625 33.40625 48.390625 
Q 24.65625 48.390625 19.8125 42.84375 
Q 14.984375 37.3125 14.984375 27.296875 
Q 14.984375 17.28125 19.8125 11.734375 
Q 24.65625 6.203125 33.40625 6.203125 
Q 37.3125 6.203125 41.140625 7.25 
Q 44.96875 8.296875 48.78125 10.40625 
L 48.78125 2.09375 
Q 45.015625 0.34375 40.984375 -0.53125 
Q 36.96875 -1.421875 32.421875 -1.421875 
Q 20.0625 -1.421875 12.78125 6.34375 
Q 5.515625 14.109375 5.515625 27.296875 
Q 5.515625 40.671875 12.859375 48.328125 
Q 20.21875 56 33.015625 56 
Q 37.15625 56 41.109375 55.140625 
Q 45.0625 54.296875 48.78125 52.59375 
z
" id="DejaVuSans-63"/>
      <path d="M 8.5 21.578125 
L 8.5 54.6875 
L 17.484375 54.6875 
L 17.484375 21.921875 
Q 17.484375 14.15625 20.5 10.265625 
Q 23.53125 6.390625 29.59375 6.390625 
Q 36.859375 6.390625 41.078125 11.03125 
Q 45.3125 15.671875 45.3125 23.6875 
L 45.3125 54.6875 
L 54.296875 54.6875 
L 54.296875 0 
L 45.3125 0 
L 45.3125 8.40625 
Q 42.046875 3.421875 37.71875 1 
Q 33.40625 -1.421875 27.6875 -1.421875 
Q 18.265625 -1.421875 13.375 4.4375 
Q 8.5 10.296875 8.5 21.578125 
z
M 31.109375 56 
z
" id="DejaVuSans-75"/>
      <path d="M 54.890625 33.015625 
L 54.890625 0 
L 45.90625 0 
L 45.90625 32.71875 
Q 45.90625 40.484375 42.875 44.328125 
Q 39.84375 48.1875 33.796875 48.1875 
Q 26.515625 48.1875 22.3125 43.546875 
Q 18.109375 38.921875 18.109375 30.90625 
L 18.109375 0 
L 9.078125 0 
L 9.078125 54.6875 
L 18.109375 54.6875 
L 18.109375 46.1875 
Q 21.34375 51.125 25.703125 53.5625 
Q 30.078125 56 35.796875 56 
Q 45.21875 56 50.046875 50.171875 
Q 54.890625 44.34375 54.890625 33.015625 
z
" id="DejaVuSans-6e"/>
      <path d="M 18.3125 70.21875 
L 18.3125 54.6875 
L 36.8125 54.6875 
L 36.8125 47.703125 
L 18.3125 47.703125 
L 18.3125 18.015625 
Q 18.3125 11.328125 20.140625 9.421875 
Q 21.96875 7.515625 27.59375 7.515625 
L 36.8125 7.515625 
L 36.8125 0 
L 27.59375 0 
Q 17.1875 0 13.234375 3.875 
Q 9.28125 7.765625 9.28125 18.015625 
L 9.28125 47.703125 
L 2.6875 47.703125 
L 2.6875 54.6875 
L 9.28125 54.6875 
L 9.28125 70.21875 
z
" id="DejaVuSans-74"/>
      <path d="M 44.28125 53.078125 
L 44.28125 44.578125 
Q 40.484375 46.53125 36.375 47.5 
Q 32.28125 48.484375 27.875 48.484375 
Q 21.1875 48.484375 17.84375 46.4375 
Q 14.5 44.390625 14.5 40.28125 
Q 14.5 37.15625 16.890625 35.375 
Q 19.28125 33.59375 26.515625 31.984375 
L 29.59375 31.296875 
Q 39.15625 29.25 43.1875 25.515625 
Q 47.21875 21.78125 47.21875 15.09375 
Q 47.21875 7.46875 41.1875 3.015625 
Q 35.15625 -1.421875 24.609375 -1.421875 
Q 20.21875 -1.421875 15.453125 -0.5625 
Q 10.6875 0.296875 5.421875 2 
L 5.421875 11.28125 
Q 10.40625 8.6875 15.234375 7.390625 
Q 20.0625 6.109375 24.8125 6.109375 
Q 31.15625 6.109375 34.5625 8.28125 
Q 37.984375 10.453125 37.984375 14.40625 
Q 37.984375 18.0625 35.515625 20.015625 
Q 33.0625 21.96875 24.703125 23.78125 
L 21.578125 24.515625 
Q 13.234375 26.265625 9.515625 29.90625 
Q 5.8125 33.546875 5.8125 39.890625 
Q 5.8125 47.609375 11.28125 51.796875 
Q 16.75 56 26.8125 56 
Q 31.78125 56 36.171875 55.265625 
Q 40.578125 54.546875 44.28125 53.078125 
z
" id="DejaVuSans-73"/>
      <path d="M 31 75.875 
Q 24.46875 64.65625 21.28125 53.65625 
Q 18.109375 42.671875 18.109375 31.390625 
Q 18.109375 20.125 21.3125 9.0625 
Q 24.515625 -2 31 -13.1875 
L 23.1875 -13.1875 
Q 15.875 -1.703125 12.234375 9.375 
Q 8.59375 20.453125 8.59375 31.390625 
Q 8.59375 42.28125 12.203125 53.3125 
Q 15.828125 64.359375 23.1875 75.875 
z
" id="DejaVuSans-28"/>
      <path d="M 64.40625 67.28125 
L 64.40625 56.890625 
Q 59.421875 61.53125 53.78125 63.8125 
Q 48.140625 66.109375 41.796875 66.109375 
Q 29.296875 66.109375 22.65625 58.46875 
Q 16.015625 50.828125 16.015625 36.375 
Q 16.015625 21.96875 22.65625 14.328125 
Q 29.296875 6.6875 41.796875 6.6875 
Q 48.140625 6.6875 53.78125 8.984375 
Q 59.421875 11.28125 64.40625 15.921875 
L 64.40625 5.609375 
Q 59.234375 2.09375 53.4375 0.328125 
Q 47.65625 -1.421875 41.21875 -1.421875 
Q 24.65625 -1.421875 15.125 8.703125 
Q 5.609375 18.84375 5.609375 36.375 
Q 5.609375 53.953125 15.125 64.078125 
Q 24.65625 74.21875 41.21875 74.21875 
Q 47.75 74.21875 53.53125 72.484375 
Q 59.328125 70.75 64.40625 67.28125 
z
" id="DejaVuSans-43"/>
      <path d="M 41.109375 46.296875 
Q 39.59375 47.171875 37.8125 47.578125 
Q 36.03125 48 33.890625 48 
Q 26.265625 48 22.1875 43.046875 
Q 18.109375 38.09375 18.109375 28.8125 
L 18.109375 0 
L 9.078125 0 
L 9.078125 54.6875 
L 18.109375 54.6875 
L 18.109375 46.1875 
Q 20.953125 51.171875 25.484375 53.578125 
Q 30.03125 56 36.53125 56 
Q 37.453125 56 38.578125 55.875 
Q 39.703125 55.765625 41.0625 55.515625 
z
" id="DejaVuSans-72"/>
      <path d="M 8.015625 75.875 
L 15.828125 75.875 
Q 23.140625 64.359375 26.78125 53.3125 
Q 30.421875 42.28125 30.421875 31.390625 
Q 30.421875 20.453125 26.78125 9.375 
Q 23.140625 -1.703125 15.828125 -13.1875 
L 8.015625 -13.1875 
Q 14.5 -2 17.703125 9.0625 
Q 20.90625 20.125 20.90625 31.390625 
Q 20.90625 42.671875 17.703125 53.65625 
Q 14.5 64.65625 8.015625 75.875 
z
" id="DejaVuSans-29"/>
     </defs>
     <g transform="translate(83.294531 253.004219)scale(0.11 -0.11)">
      <use xlink:href="#DejaVuSans-6c"/>
      <use x="27.783203" xlink:href="#DejaVuSans-6f"/>
      <use x="88.964844" xlink:href="#DejaVuSans-67"/>
      <use x="152.441406" xlink:href="#DejaVuSans-31"/>
      <use x="216.064453" xlink:href="#DejaVuSans-30"/>
      <use x="279.6875" xlink:href="#DejaVuSans-20"/>
      <use x="311.474609" xlink:href="#DejaVuSans-63"/>
      <use x="366.455078" xlink:href="#DejaVuSans-6f"/>
      <use x="427.636719" xlink:href="#DejaVuSans-75"/>
      <use x="491.015625" xlink:href="#DejaVuSans-6e"/>
      <use x="554.394531" xlink:href="#DejaVuSans-74"/>
      <use x="593.603516" xlink:href="#DejaVuSans-73"/>
      <use x="645.703125" xlink:href="#DejaVuSans-20"/>
      <use x="677.490234" xlink:href="#DejaVuSans-28"/>
      <use x="716.503906" xlink:href="#DejaVuSans-43"/>
      <use x="786.328125" xlink:href="#DejaVuSans-6f"/>
      <use x="847.509766" xlink:href="#DejaVuSans-6e"/>
      <use x="910.888672" xlink:href="#DejaVuSans-74"/>
      <use x="950.097656" xlink:href="#DejaVuSans-72"/>
      <use x="991.179688" xlink:href="#DejaVuSans-6f"/>
      <use x="1052.361328" xlink:href="#DejaVuSans-6c"/>
      <use x="1080.144531" xlink:href="#DejaVuSans-29"/>
     </g>
    </g>
   </g>
   <g id="matplotlib.axis_2">
    <g id="ytick_1">
     <g id="line2d_7">
      <defs>
       <path d="M 0 0 
L -3.5 0 
" id="mc80904032f" style="stroke:#262626;stroke-width:0.8;"/>
      </defs>
      <g>
       <use style="fill:#262626;stroke:#262626;stroke-width:0.8;" x="51.01625" xlink:href="#mc80904032f" y="208.365926"/>
      </g>
     </g>
     <g id="line2d_8">
      <defs>
       <path d="M 0 0 
L 3.5 0 
" id="m4f94deaa67" style="stroke:#262626;stroke-width:0.8;"/>
      </defs>
      <g>
       <use style="fill:#262626;stroke:#262626;stroke-width:0.8;" x="238.68" xlink:href="#m4f94deaa67" y="208.365926"/>
      </g>
     </g>
     <g id="text_5">
      <!-- 0.0 -->
      <g style="fill:#262626;" transform="translate(26.522813 212.545067)scale(0.11 -0.11)">
       <use xlink:href="#DejaVuSans-30"/>
       <use x="63.623047" xlink:href="#DejaVuSans-2e"/>
       <use x="95.410156" xlink:href="#DejaVuSans-30"/>
      </g>
     </g>
    </g>
    <g id="ytick_2">
     <g id="line2d_9">
      <g>
       <use style="fill:#262626;stroke:#262626;stroke-width:0.8;" x="51.01625" xlink:href="#mc80904032f" y="172.480638"/>
      </g>
     </g>
     <g id="line2d_10">
      <g>
       <use style="fill:#262626;stroke:#262626;stroke-width:0.8;" x="238.68" xlink:href="#m4f94deaa67" y="172.480638"/>
      </g>
     </g>
     <g id="text_6">
      <!-- 1.0 -->
      <g style="fill:#262626;" transform="translate(26.522813 176.659778)scale(0.11 -0.11)">
       <use xlink:href="#DejaVuSans-31"/>
       <use x="63.623047" xlink:href="#DejaVuSans-2e"/>
       <use x="95.410156" xlink:href="#DejaVuSans-30"/>
      </g>
     </g>
    </g>
    <g id="ytick_3">
     <g id="line2d_11">
      <g>
       <use style="fill:#262626;stroke:#262626;stroke-width:0.8;" x="51.01625" xlink:href="#mc80904032f" y="136.595349"/>
      </g>
     </g>
     <g id="line2d_12">
      <g>
       <use style="fill:#262626;stroke:#262626;stroke-width:0.8;" x="238.68" xlink:href="#m4f94deaa67" y="136.595349"/>
      </g>
     </g>
     <g id="text_7">
      <!-- 2.0 -->
      <g style="fill:#262626;" transform="translate(26.522813 140.77449)scale(0.11 -0.11)">
       <use xlink:href="#DejaVuSans-32"/>
       <use x="63.623047" xlink:href="#DejaVuSans-2e"/>
       <use x="95.410156" xlink:href="#DejaVuSans-30"/>
      </g>
     </g>
    </g>
    <g id="ytick_4">
     <g id="line2d_13">
      <g>
       <use style="fill:#262626;stroke:#262626;stroke-width:0.8;" x="51.01625" xlink:href="#mc80904032f" y="100.710061"/>
      </g>
     </g>
     <g id="line2d_14">
      <g>
       <use style="fill:#262626;stroke:#262626;stroke-width:0.8;" x="238.68" xlink:href="#m4f94deaa67" y="100.710061"/>
      </g>
     </g>
     <g id="text_8">
      <!-- 3.0 -->
      <defs>
       <path d="M 40.578125 39.3125 
Q 47.65625 37.796875 51.625 33 
Q 55.609375 28.21875 55.609375 21.1875 
Q 55.609375 10.40625 48.1875 4.484375 
Q 40.765625 -1.421875 27.09375 -1.421875 
Q 22.515625 -1.421875 17.65625 -0.515625 
Q 12.796875 0.390625 7.625 2.203125 
L 7.625 11.71875 
Q 11.71875 9.328125 16.59375 8.109375 
Q 21.484375 6.890625 26.8125 6.890625 
Q 36.078125 6.890625 40.9375 10.546875 
Q 45.796875 14.203125 45.796875 21.1875 
Q 45.796875 27.640625 41.28125 31.265625 
Q 36.765625 34.90625 28.71875 34.90625 
L 20.21875 34.90625 
L 20.21875 43.015625 
L 29.109375 43.015625 
Q 36.375 43.015625 40.234375 45.921875 
Q 44.09375 48.828125 44.09375 54.296875 
Q 44.09375 59.90625 40.109375 62.90625 
Q 36.140625 65.921875 28.71875 65.921875 
Q 24.65625 65.921875 20.015625 65.03125 
Q 15.375 64.15625 9.8125 62.3125 
L 9.8125 71.09375 
Q 15.4375 72.65625 20.34375 73.4375 
Q 25.25 74.21875 29.59375 74.21875 
Q 40.828125 74.21875 47.359375 69.109375 
Q 53.90625 64.015625 53.90625 55.328125 
Q 53.90625 49.265625 50.4375 45.09375 
Q 46.96875 40.921875 40.578125 39.3125 
z
" id="DejaVuSans-33"/>
      </defs>
      <g style="fill:#262626;" transform="translate(26.522813 104.889201)scale(0.11 -0.11)">
       <use xlink:href="#DejaVuSans-33"/>
       <use x="63.623047" xlink:href="#DejaVuSans-2e"/>
       <use x="95.410156" xlink:href="#DejaVuSans-30"/>
      </g>
     </g>
    </g>
    <g id="ytick_5">
     <g id="line2d_15">
      <g>
       <use style="fill:#262626;stroke:#262626;stroke-width:0.8;" x="51.01625" xlink:href="#mc80904032f" y="64.824773"/>
      </g>
     </g>
     <g id="line2d_16">
      <g>
       <use style="fill:#262626;stroke:#262626;stroke-width:0.8;" x="238.68" xlink:href="#m4f94deaa67" y="64.824773"/>
      </g>
     </g>
     <g id="text_9">
      <!-- 4.0 -->
      <defs>
       <path d="M 37.796875 64.3125 
L 12.890625 25.390625 
L 37.796875 25.390625 
z
M 35.203125 72.90625 
L 47.609375 72.90625 
L 47.609375 25.390625 
L 58.015625 25.390625 
L 58.015625 17.1875 
L 47.609375 17.1875 
L 47.609375 0 
L 37.796875 0 
L 37.796875 17.1875 
L 4.890625 17.1875 
L 4.890625 26.703125 
z
" id="DejaVuSans-34"/>
      </defs>
      <g style="fill:#262626;" transform="translate(26.522813 69.003913)scale(0.11 -0.11)">
       <use xlink:href="#DejaVuSans-34"/>
       <use x="63.623047" xlink:href="#DejaVuSans-2e"/>
       <use x="95.410156" xlink:href="#DejaVuSans-30"/>
      </g>
     </g>
    </g>
    <g id="ytick_6">
     <g id="line2d_17">
      <g>
       <use style="fill:#262626;stroke:#262626;stroke-width:0.8;" x="51.01625" xlink:href="#mc80904032f" y="28.939484"/>
      </g>
     </g>
     <g id="line2d_18">
      <g>
       <use style="fill:#262626;stroke:#262626;stroke-width:0.8;" x="238.68" xlink:href="#m4f94deaa67" y="28.939484"/>
      </g>
     </g>
     <g id="text_10">
      <!-- 5.0 -->
      <defs>
       <path d="M 10.796875 72.90625 
L 49.515625 72.90625 
L 49.515625 64.59375 
L 19.828125 64.59375 
L 19.828125 46.734375 
Q 21.96875 47.46875 24.109375 47.828125 
Q 26.265625 48.1875 28.421875 48.1875 
Q 40.625 48.1875 47.75 41.5 
Q 54.890625 34.8125 54.890625 23.390625 
Q 54.890625 11.625 47.5625 5.09375 
Q 40.234375 -1.421875 26.90625 -1.421875 
Q 22.3125 -1.421875 17.546875 -0.640625 
Q 12.796875 0.140625 7.71875 1.703125 
L 7.71875 11.625 
Q 12.109375 9.234375 16.796875 8.0625 
Q 21.484375 6.890625 26.703125 6.890625 
Q 35.15625 6.890625 40.078125 11.328125 
Q 45.015625 15.765625 45.015625 23.390625 
Q 45.015625 31 40.078125 35.4375 
Q 35.15625 39.890625 26.703125 39.890625 
Q 22.75 39.890625 18.8125 39.015625 
Q 14.890625 38.140625 10.796875 36.28125 
z
" id="DejaVuSans-35"/>
      </defs>
      <g style="fill:#262626;" transform="translate(26.522813 33.118625)scale(0.11 -0.11)">
       <use xlink:href="#DejaVuSans-35"/>
       <use x="63.623047" xlink:href="#DejaVuSans-2e"/>
       <use x="95.410156" xlink:href="#DejaVuSans-30"/>
      </g>
     </g>
    </g>
    <g id="text_11">
     <!-- log10 counts (ToxB_1) -->
     <defs>
      <path d="M -0.296875 72.90625 
L 61.375 72.90625 
L 61.375 64.59375 
L 35.5 64.59375 
L 35.5 0 
L 25.59375 0 
L 25.59375 64.59375 
L -0.296875 64.59375 
z
" id="DejaVuSans-54"/>
      <path d="M 54.890625 54.6875 
L 35.109375 28.078125 
L 55.90625 0 
L 45.3125 0 
L 29.390625 21.484375 
L 13.484375 0 
L 2.875 0 
L 24.125 28.609375 
L 4.6875 54.6875 
L 15.28125 54.6875 
L 29.78125 35.203125 
L 44.28125 54.6875 
z
" id="DejaVuSans-78"/>
      <path d="M 19.671875 34.8125 
L 19.671875 8.109375 
L 35.5 8.109375 
Q 43.453125 8.109375 47.28125 11.40625 
Q 51.125 14.703125 51.125 21.484375 
Q 51.125 28.328125 47.28125 31.5625 
Q 43.453125 34.8125 35.5 34.8125 
z
M 19.671875 64.796875 
L 19.671875 42.828125 
L 34.28125 42.828125 
Q 41.5 42.828125 45.03125 45.53125 
Q 48.578125 48.25 48.578125 53.8125 
Q 48.578125 59.328125 45.03125 62.0625 
Q 41.5 64.796875 34.28125 64.796875 
z
M 9.8125 72.90625 
L 35.015625 72.90625 
Q 46.296875 72.90625 52.390625 68.21875 
Q 58.5 63.53125 58.5 54.890625 
Q 58.5 48.1875 55.375 44.234375 
Q 52.25 40.28125 46.1875 39.3125 
Q 53.46875 37.75 57.5 32.78125 
Q 61.53125 27.828125 61.53125 20.40625 
Q 61.53125 10.640625 54.890625 5.3125 
Q 48.25 0 35.984375 0 
L 9.8125 0 
z
" id="DejaVuSans-42"/>
      <path d="M 50.984375 -16.609375 
L 50.984375 -23.578125 
L -0.984375 -23.578125 
L -0.984375 -16.609375 
z
" id="DejaVuSans-5f"/>
     </defs>
     <g transform="translate(19.929219 185.758984)rotate(-90)scale(0.11 -0.11)">
      <use xlink:href="#DejaVuSans-6c"/>
      <use x="27.783203" xlink:href="#DejaVuSans-6f"/>
      <use x="88.964844" xlink:href="#DejaVuSans-67"/>
      <use x="152.441406" xlink:href="#DejaVuSans-31"/>
      <use x="216.064453" xlink:href="#DejaVuSans-30"/>
      <use x="279.6875" xlink:href="#DejaVuSans-20"/>
      <use x="311.474609" xlink:href="#DejaVuSans-63"/>
      <use x="366.455078" xlink:href="#DejaVuSans-6f"/>
      <use x="427.636719" xlink:href="#DejaVuSans-75"/>
      <use x="491.015625" xlink:href="#DejaVuSans-6e"/>
      <use x="554.394531" xlink:href="#DejaVuSans-74"/>
      <use x="593.603516" xlink:href="#DejaVuSans-73"/>
      <use x="645.703125" xlink:href="#DejaVuSans-20"/>
      <use x="677.490234" xlink:href="#DejaVuSans-28"/>
      <use x="716.503906" xlink:href="#DejaVuSans-54"/>
      <use x="777.322266" xlink:href="#DejaVuSans-6f"/>
      <use x="838.457031" xlink:href="#DejaVuSans-78"/>
      <use x="897.636719" xlink:href="#DejaVuSans-42"/>
      <use x="966.240234" xlink:href="#DejaVuSans-5f"/>
      <use x="1016.240234" xlink:href="#DejaVuSans-31"/>
      <use x="1079.863281" xlink:href="#DejaVuSans-29"/>
     </g>
    </g>
   </g>
   <g id="line2d_19">
    <path clip-path="url(#pfeeb2d35b7)" d="M 51.01625 216.694147 
L 238.68 120.919603 
" style="fill:none;opacity:0.75;stroke:#3399ff;stroke-dasharray:5.55,2.4;stroke-dashoffset:0;stroke-width:1.5;"/>
   </g>
   <g id="patch_3">
    <path d="M 51.01625 223 
L 51.01625 25.44 
" style="fill:none;stroke:#000000;stroke-linecap:square;stroke-linejoin:miter;stroke-width:0.8;"/>
   </g>
   <g id="patch_4">
    <path d="M 238.68 223 
L 238.68 25.44 
" style="fill:none;stroke:#000000;stroke-linecap:square;stroke-linejoin:miter;stroke-width:0.8;"/>
   </g>
   <g id="patch_5">
    <path d="M 51.01625 223 
L 238.68 223 
" style="fill:none;stroke:#000000;stroke-linecap:square;stroke-linejoin:miter;stroke-width:0.8;"/>
   </g>
   <g id="patch_6">
    <path d="M 51.01625 25.44 
L 238.68 25.44 
" style="fill:none;stroke:#000000;stroke-linecap:square;stroke-linejoin:miter;stroke-width:0.8;"/>
   </g>
   <g id="text_12">
    <!-- sgRNA Density -->
    <defs>
     <path d="M 44.390625 34.1875 
Q 47.5625 33.109375 50.5625 29.59375 
Q 53.5625 26.078125 56.59375 19.921875 
L 66.609375 0 
L 56 0 
L 46.6875 18.703125 
Q 43.0625 26.03125 39.671875 28.421875 
Q 36.28125 30.8125 30.421875 30.8125 
L 19.671875 30.8125 
L 19.671875 0 
L 9.8125 0 
L 9.8125 72.90625 
L 32.078125 72.90625 
Q 44.578125 72.90625 50.734375 67.671875 
Q 56.890625 62.453125 56.890625 51.90625 
Q 56.890625 45.015625 53.6875 40.46875 
Q 50.484375 35.9375 44.390625 34.1875 
z
M 19.671875 64.796875 
L 19.671875 38.921875 
L 32.078125 38.921875 
Q 39.203125 38.921875 42.84375 42.21875 
Q 46.484375 45.515625 46.484375 51.90625 
Q 46.484375 58.296875 42.84375 61.546875 
Q 39.203125 64.796875 32.078125 64.796875 
z
" id="DejaVuSans-52"/>
     <path d="M 9.8125 72.90625 
L 23.09375 72.90625 
L 55.421875 11.921875 
L 55.421875 72.90625 
L 64.984375 72.90625 
L 64.984375 0 
L 51.703125 0 
L 19.390625 60.984375 
L 19.390625 0 
L 9.8125 0 
z
" id="DejaVuSans-4e"/>
     <path d="M 34.1875 63.1875 
L 20.796875 26.90625 
L 47.609375 26.90625 
z
M 28.609375 72.90625 
L 39.796875 72.90625 
L 67.578125 0 
L 57.328125 0 
L 50.6875 18.703125 
L 17.828125 18.703125 
L 11.1875 0 
L 0.78125 0 
z
" id="DejaVuSans-41"/>
     <path d="M 19.671875 64.796875 
L 19.671875 8.109375 
L 31.59375 8.109375 
Q 46.6875 8.109375 53.6875 14.9375 
Q 60.6875 21.78125 60.6875 36.53125 
Q 60.6875 51.171875 53.6875 57.984375 
Q 46.6875 64.796875 31.59375 64.796875 
z
M 9.8125 72.90625 
L 30.078125 72.90625 
Q 51.265625 72.90625 61.171875 64.09375 
Q 71.09375 55.28125 71.09375 36.53125 
Q 71.09375 17.671875 61.125 8.828125 
Q 51.171875 0 30.078125 0 
L 9.8125 0 
z
" id="DejaVuSans-44"/>
     <path d="M 56.203125 29.59375 
L 56.203125 25.203125 
L 14.890625 25.203125 
Q 15.484375 15.921875 20.484375 11.0625 
Q 25.484375 6.203125 34.421875 6.203125 
Q 39.59375 6.203125 44.453125 7.46875 
Q 49.3125 8.734375 54.109375 11.28125 
L 54.109375 2.78125 
Q 49.265625 0.734375 44.1875 -0.34375 
Q 39.109375 -1.421875 33.890625 -1.421875 
Q 20.796875 -1.421875 13.15625 6.1875 
Q 5.515625 13.8125 5.515625 26.8125 
Q 5.515625 40.234375 12.765625 48.109375 
Q 20.015625 56 32.328125 56 
Q 43.359375 56 49.78125 48.890625 
Q 56.203125 41.796875 56.203125 29.59375 
z
M 47.21875 32.234375 
Q 47.125 39.59375 43.09375 43.984375 
Q 39.0625 48.390625 32.421875 48.390625 
Q 24.90625 48.390625 20.390625 44.140625 
Q 15.875 39.890625 15.1875 32.171875 
z
" id="DejaVuSans-65"/>
     <path d="M 9.421875 54.6875 
L 18.40625 54.6875 
L 18.40625 0 
L 9.421875 0 
z
M 9.421875 75.984375 
L 18.40625 75.984375 
L 18.40625 64.59375 
L 9.421875 64.59375 
z
" id="DejaVuSans-69"/>
     <path d="M 32.171875 -5.078125 
Q 28.375 -14.84375 24.75 -17.8125 
Q 21.140625 -20.796875 15.09375 -20.796875 
L 7.90625 -20.796875 
L 7.90625 -13.28125 
L 13.1875 -13.28125 
Q 16.890625 -13.28125 18.9375 -11.515625 
Q 21 -9.765625 23.484375 -3.21875 
L 25.09375 0.875 
L 2.984375 54.6875 
L 12.5 54.6875 
L 29.59375 11.921875 
L 46.6875 54.6875 
L 56.203125 54.6875 
z
" id="DejaVuSans-79"/>
    </defs>
    <g transform="translate(100.434063 19.44)scale(0.12 -0.12)">
     <use xlink:href="#DejaVuSans-73"/>
     <use x="52.099609" xlink:href="#DejaVuSans-67"/>
     <use x="115.576172" xlink:href="#DejaVuSans-52"/>
     <use x="185.058594" xlink:href="#DejaVuSans-4e"/>
     <use x="259.863281" xlink:href="#DejaVuSans-41"/>
     <use x="328.271484" xlink:href="#DejaVuSans-20"/>
     <use x="360.058594" xlink:href="#DejaVuSans-44"/>
     <use x="437.060547" xlink:href="#DejaVuSans-65"/>
     <use x="498.583984" xlink:href="#DejaVuSans-6e"/>
     <use x="561.962891" xlink:href="#DejaVuSans-73"/>
     <use x="614.0625" xlink:href="#DejaVuSans-69"/>
     <use x="641.845703" xlink:href="#DejaVuSans-74"/>
     <use x="681.054688" xlink:href="#DejaVuSans-79"/>
    </g>
   </g>
  </g>
 </g>
 <defs>
  <clipPath id="pfeeb2d35b7">
   <rect height="197.56" width="187.66375" x="51.01625" y="25.44"/>
  </clipPath>
 </defs>
</svg>
