<?xml version="1.0" encoding="utf-8" standalone="no"?>
<!DOCTYPE svg PUBLIC "-//W3C//DTD SVG 1.1//EN"
  "http://www.w3.org/Graphics/SVG/1.1/DTD/svg11.dtd">
<!-- Created with matplotlib (http://matplotlib.org/) -->
<svg height="266pt" version="1.1" viewBox="0 0 252 266" width="252pt" xmlns="http://www.w3.org/2000/svg" xmlns:xlink="http://www.w3.org/1999/xlink">
 <defs>
  <style type="text/css">
*{stroke-linecap:butt;stroke-linejoin:round;}
  </style>
 </defs>
 <g id="figure_1">
  <g id="patch_1">
   <path d="M 0 266.4 
L 252 266.4 
L 252 0 
L 0 0 
z
" style="fill:#ffffff;"/>
  </g>
  <g id="axes_1">
   <g id="patch_2">
    <path d="M 51.01625 223 
L 238.68 223 
L 238.68 25.44 
L 51.01625 25.44 
z
" style="fill:#ffffff;"/>
   </g>
   <g id="PathCollection_1">
    <path clip-path="url(#p024e384a0f)" d="M 37.980745 227.546102 
L 40.268313 227.546102 
L 42.55588 227.546102 
L 44.843448 227.546102 
L 47.131015 227.546102 
L 49.418583 227.546102 
L 51.70615 227.546102 
L 53.993718 227.546102 
L 56.281286 227.546102 
L 58.568853 227.546102 
L 60.856421 227.546102 
L 63.143988 227.546102 
L 65.431556 227.546102 
L 67.719123 227.546102 
L 70.006691 227.546102 
L 72.294259 227.546102 
L 74.581826 227.546102 
L 76.869394 227.546102 
L 79.156961 227.546102 
L 81.444529 227.546102 
L 83.732096 227.546102 
L 86.019664 227.546102 
L 88.307231 227.546102 
L 90.594799 227.546102 
L 92.882367 227.546102 
L 95.169934 227.546102 
L 97.457502 227.546102 
L 99.745069 227.546102 
L 102.032637 227.546102 
L 104.320204 227.546102 
L 106.607772 227.546102 
L 108.895339 227.546102 
L 111.182907 227.546102 
L 113.470475 227.546102 
L 115.758042 227.546102 
L 118.04561 227.546102 
L 120.333177 227.546102 
L 122.620745 227.546102 
L 124.908312 227.546102 
L 127.19588 227.546102 
L 129.483447 227.546102 
L 131.771015 227.546102 
L 134.058583 227.546102 
L 136.34615 227.546102 
L 138.633718 227.546102 
L 140.921285 227.546102 
L 143.208853 227.546102 
L 145.49642 227.546102 
L 147.783988 227.546102 
L 150.071556 227.546102 
L 152.359123 227.546102 
L 154.646691 227.546102 
L 156.934258 227.546102 
L 159.221826 227.546102 
L 161.509393 227.546102 
L 163.796961 227.546102 
L 166.084528 227.546102 
L 168.372096 227.546102 
L 170.659664 227.546102 
L 172.947231 227.546102 
L 175.234799 227.546102 
L 177.522366 227.546102 
L 179.809934 227.546102 
L 182.097501 227.546102 
L 184.385069 227.546102 
L 186.672636 227.546102 
L 188.960204 227.546102 
L 191.247772 227.546102 
L 193.535339 227.546102 
L 195.822907 227.546102 
L 198.110474 227.546102 
L 200.398042 227.546102 
L 202.685609 227.546102 
L 204.973177 227.546102 
L 207.260745 227.546102 
L 209.548312 227.546102 
L 211.83588 227.546102 
L 214.123447 227.546102 
L 216.411015 227.546102 
L 218.698582 227.546102 
L 220.98615 227.546102 
L 223.273717 227.546102 
L 225.561285 227.546102 
L 227.848853 227.546102 
L 230.13642 227.546102 
L 232.423988 227.546102 
L 234.711555 227.546102 
L 236.999123 227.546102 
L 239.28669 227.546102 
L 241.574258 227.546102 
L 243.861825 227.546102 
L 246.149393 227.546102 
L 248.436961 227.546102 
L 250.724528 227.546102 
L 253.012096 227.546102 
L 255.299663 227.546102 
L 257.587231 227.546102 
L 259.874798 227.546102 
L 262.162366 227.546102 
L 262.162366 225.680435 
L 262.162366 223.814767 
L 262.162366 221.949099 
L 262.162366 220.083432 
L 262.162366 218.217764 
L 262.162366 216.352096 
L 262.162366 214.486429 
L 262.162366 212.620761 
L 262.162366 210.755094 
L 262.162366 208.889426 
L 262.162366 207.023758 
L 262.162366 205.158091 
L 262.162366 203.292423 
L 262.162366 201.426756 
L 262.162366 199.561088 
L 262.162366 197.69542 
L 262.162366 195.829753 
L 262.162366 193.964085 
L 262.162366 192.098418 
L 262.162366 190.23275 
L 262.162366 188.367082 
L 262.162366 186.501415 
L 262.162366 184.635747 
L 262.162366 182.77008 
L 262.162366 180.904412 
L 262.162366 179.038744 
L 262.162366 177.173077 
L 262.162366 175.307409 
L 262.162366 173.441742 
L 262.162366 171.576074 
L 262.162366 169.710406 
L 262.162366 167.844739 
L 262.162366 165.979071 
L 262.162366 164.113403 
L 262.162366 162.247736 
L 262.162366 160.382068 
L 262.162366 158.516401 
L 262.162366 156.650733 
L 262.162366 154.785065 
L 262.162366 152.919398 
L 262.162366 151.05373 
L 262.162366 149.188063 
L 262.162366 147.322395 
L 262.162366 145.456727 
L 262.162366 143.59106 
L 262.162366 141.725392 
L 262.162366 139.859725 
L 262.162366 137.994057 
L 262.162366 136.128389 
L 262.162366 134.262722 
L 262.162366 132.397054 
L 262.162366 130.531387 
L 262.162366 128.665719 
L 262.162366 126.800051 
L 262.162366 124.934384 
L 262.162366 123.068716 
L 262.162366 121.203048 
L 262.162366 119.337381 
L 262.162366 117.471713 
L 262.162366 115.606046 
L 262.162366 113.740378 
L 262.162366 111.87471 
L 262.162366 110.009043 
L 262.162366 108.143375 
L 262.162366 106.277708 
L 262.162366 104.41204 
L 262.162366 102.546372 
L 262.162366 100.680705 
L 262.162366 98.815037 
L 262.162366 96.94937 
L 262.162366 95.083702 
L 262.162366 93.218034 
L 262.162366 91.352367 
L 262.162366 89.486699 
L 262.162366 87.621032 
L 262.162366 85.755364 
L 262.162366 83.889696 
L 262.162366 82.024029 
L 262.162366 80.158361 
L 262.162366 78.292694 
L 262.162366 76.427026 
L 262.162366 74.561358 
L 262.162366 72.695691 
L 262.162366 70.830023 
L 262.162366 68.964355 
L 262.162366 67.098688 
L 262.162366 65.23302 
L 262.162366 63.367353 
L 262.162366 61.501685 
L 262.162366 59.636017 
L 262.162366 57.77035 
L 262.162366 55.904682 
L 262.162366 54.039015 
L 262.162366 52.173347 
L 262.162366 50.307679 
L 262.162366 48.442012 
L 262.162366 46.576344 
L 262.162366 44.710677 
L 262.162366 42.845009 
L 259.874798 42.845009 
L 257.587231 42.845009 
L 255.299663 42.845009 
L 253.012096 42.845009 
L 250.724528 42.845009 
L 248.436961 42.845009 
L 246.149393 42.845009 
L 243.861825 42.845009 
L 241.574258 42.845009 
L 239.28669 42.845009 
L 236.999123 42.845009 
L 234.711555 42.845009 
L 232.423988 42.845009 
L 230.13642 42.845009 
L 227.848853 42.845009 
L 225.561285 42.845009 
L 223.273717 42.845009 
L 220.98615 42.845009 
L 218.698582 42.845009 
L 216.411015 42.845009 
L 214.123447 42.845009 
L 211.83588 42.845009 
L 209.548312 42.845009 
L 207.260745 42.845009 
L 204.973177 42.845009 
L 202.685609 42.845009 
L 200.398042 42.845009 
L 198.110474 42.845009 
L 195.822907 42.845009 
L 193.535339 42.845009 
L 191.247772 42.845009 
L 188.960204 42.845009 
L 186.672636 42.845009 
L 184.385069 42.845009 
L 182.097501 42.845009 
L 179.809934 42.845009 
L 177.522366 42.845009 
L 175.234799 42.845009 
L 172.947231 42.845009 
L 170.659664 42.845009 
L 168.372096 42.845009 
L 166.084528 42.845009 
L 163.796961 42.845009 
L 161.509393 42.845009 
L 159.221826 42.845009 
L 156.934258 42.845009 
L 154.646691 42.845009 
L 152.359123 42.845009 
L 150.071556 42.845009 
L 147.783988 42.845009 
L 145.49642 42.845009 
L 143.208853 42.845009 
L 140.921285 42.845009 
L 138.633718 42.845009 
L 136.34615 42.845009 
L 134.058583 42.845009 
L 131.771015 42.845009 
L 129.483447 42.845009 
L 127.19588 42.845009 
L 124.908312 42.845009 
L 122.620745 42.845009 
L 120.333177 42.845009 
L 118.04561 42.845009 
L 115.758042 42.845009 
L 113.470475 42.845009 
L 111.182907 42.845009 
L 108.895339 42.845009 
L 106.607772 42.845009 
L 104.320204 42.845009 
L 102.032637 42.845009 
L 99.745069 42.845009 
L 97.457502 42.845009 
L 95.169934 42.845009 
L 92.882367 42.845009 
L 90.594799 42.845009 
L 88.307231 42.845009 
L 86.019664 42.845009 
L 83.732096 42.845009 
L 81.444529 42.845009 
L 79.156961 42.845009 
L 76.869394 42.845009 
L 74.581826 42.845009 
L 72.294259 42.845009 
L 70.006691 42.845009 
L 67.719123 42.845009 
L 65.431556 42.845009 
L 63.143988 42.845009 
L 60.856421 42.845009 
L 58.568853 42.845009 
L 56.281286 42.845009 
L 53.993718 42.845009 
L 51.70615 42.845009 
L 49.418583 42.845009 
L 47.131015 42.845009 
L 44.843448 42.845009 
L 42.55588 42.845009 
L 40.268313 42.845009 
L 37.980745 42.845009 
L 35.693178 42.845009 
L 35.693178 44.710677 
L 35.693178 46.576344 
L 35.693178 48.442012 
L 35.693178 50.307679 
L 35.693178 52.173347 
L 35.693178 54.039015 
L 35.693178 55.904682 
L 35.693178 57.77035 
L 35.693178 59.636017 
L 35.693178 61.501685 
L 35.693178 63.367353 
L 35.693178 65.23302 
L 35.693178 67.098688 
L 35.693178 68.964355 
L 35.693178 70.830023 
L 35.693178 72.695691 
L 35.693178 74.561358 
L 35.693178 76.427026 
L 35.693178 78.292694 
L 35.693178 80.158361 
L 35.693178 82.024029 
L 35.693178 83.889696 
L 35.693178 85.755364 
L 35.693178 87.621032 
L 35.693178 89.486699 
L 35.693178 91.352367 
L 35.693178 93.218034 
L 35.693178 95.083702 
L 35.693178 96.94937 
L 35.693178 98.815037 
L 35.693178 100.680705 
L 35.693178 102.546372 
L 35.693178 104.41204 
L 35.693178 106.277708 
L 35.693178 108.143375 
L 35.693178 110.009043 
L 35.693178 111.87471 
L 35.693178 113.740378 
L 35.693178 115.606046 
L 35.693178 117.471713 
L 35.693178 119.337381 
L 35.693178 121.203048 
L 35.693178 123.068716 
L 35.693178 124.934384 
L 35.693178 126.800051 
L 35.693178 128.665719 
L 35.693178 130.531387 
L 35.693178 132.397054 
L 35.693178 134.262722 
L 35.693178 136.128389 
L 35.693178 137.994057 
L 35.693178 139.859725 
L 35.693178 141.725392 
L 35.693178 143.59106 
L 35.693178 145.456727 
L 35.693178 147.322395 
L 35.693178 149.188063 
L 35.693178 151.05373 
L 35.693178 152.919398 
L 35.693178 154.785065 
L 35.693178 156.650733 
L 35.693178 158.516401 
L 35.693178 160.382068 
L 35.693178 162.247736 
L 35.693178 164.113403 
L 35.693178 165.979071 
L 35.693178 167.844739 
L 35.693178 169.710406 
L 35.693178 171.576074 
L 35.693178 173.441742 
L 35.693178 175.307409 
L 35.693178 177.173077 
L 35.693178 179.038744 
L 35.693178 180.904412 
L 35.693178 182.77008 
L 35.693178 184.635747 
L 35.693178 186.501415 
L 35.693178 188.367082 
L 35.693178 190.23275 
L 35.693178 192.098418 
L 35.693178 193.964085 
L 35.693178 195.829753 
L 35.693178 197.69542 
L 35.693178 199.561088 
L 35.693178 201.426756 
L 35.693178 203.292423 
L 35.693178 205.158091 
L 35.693178 207.023758 
L 35.693178 208.889426 
L 35.693178 210.755094 
L 35.693178 212.620761 
L 35.693178 214.486429 
L 35.693178 216.352096 
L 35.693178 218.217764 
L 35.693178 220.083432 
L 35.693178 221.949099 
L 35.693178 223.814767 
L 35.693178 225.680435 
L 35.693178 227.546102 
z
M 68.513562 221.949099 
L 67.719123 221.925356 
L 65.431556 221.773603 
L 63.143988 221.512009 
L 60.856421 221.100701 
L 58.568853 220.475296 
L 57.497114 220.083432 
L 56.281286 219.701839 
L 53.993718 218.707342 
L 53.110081 218.217764 
L 51.70615 217.400239 
L 50.256004 216.352096 
L 49.418583 215.595208 
L 48.275753 214.486429 
L 47.131015 212.787803 
L 47.010062 212.620761 
L 46.121609 210.755094 
L 45.765085 208.889426 
L 45.840849 207.023758 
L 46.361042 205.158091 
L 47.131015 203.770865 
L 47.363576 203.292423 
L 48.773796 201.426756 
L 49.418583 200.7955 
L 50.766333 199.561088 
L 51.70615 198.828848 
L 53.445102 197.69542 
L 53.993718 197.337566 
L 56.281286 196.112495 
L 56.972015 195.829753 
L 58.568853 195.042041 
L 60.856421 194.230781 
L 61.896985 193.964085 
L 63.143988 193.513222 
L 65.431556 192.927233 
L 67.719123 192.55282 
L 70.006691 192.335558 
L 72.294259 192.238698 
L 74.581826 192.235223 
L 76.869394 192.302415 
L 79.156961 192.418287 
L 81.444529 192.560064 
L 83.732096 192.705014 
L 86.019664 192.833335 
L 88.307231 192.93159 
L 90.594799 192.994695 
L 92.882367 193.025385 
L 95.169934 193.031718 
L 97.457502 193.024108 
L 99.745069 193.01306 
L 102.032637 193.007995 
L 104.320204 193.01697 
L 106.607772 193.046921 
L 108.895339 193.104136 
L 111.182907 193.194768 
L 113.470475 193.325309 
L 115.758042 193.502974 
L 118.04561 193.736025 
L 119.815182 193.964085 
L 120.333177 194.009199 
L 122.620745 194.250891 
L 124.908312 194.55103 
L 127.19588 194.919979 
L 129.483447 195.370188 
L 131.429964 195.829753 
L 131.771015 195.888656 
L 134.058583 196.33646 
L 136.34615 196.878563 
L 138.633718 197.535424 
L 139.133494 197.69542 
L 140.921285 198.162889 
L 143.208853 198.875309 
L 145.054862 199.561088 
L 145.49642 199.713284 
L 147.783988 200.590374 
L 149.60584 201.426756 
L 150.071556 201.659583 
L 152.359123 202.928641 
L 152.952543 203.292423 
L 154.646691 204.693436 
L 155.178521 205.158091 
L 156.340705 207.023758 
L 156.439746 208.889426 
L 155.448621 210.755094 
L 154.646691 211.452483 
L 153.233583 212.620761 
L 152.359123 213.108841 
L 150.071556 214.249758 
L 149.546675 214.486429 
L 147.783988 215.161863 
L 145.49642 215.903901 
L 143.873939 216.352096 
L 143.208853 216.53735 
L 140.921285 217.113125 
L 138.633718 217.592355 
L 136.34615 217.993293 
L 134.868936 218.217764 
L 134.058583 218.363427 
L 131.771015 218.731602 
L 129.483447 219.043555 
L 127.19588 219.30857 
L 124.908312 219.534044 
L 122.620745 219.725906 
L 120.333177 219.888952 
L 118.04561 220.027113 
L 116.962936 220.083432 
L 115.758042 220.1708 
L 113.470475 220.312559 
L 111.182907 220.430559 
L 108.895339 220.528014 
L 106.607772 220.607994 
L 104.320204 220.673641 
L 102.032637 220.728423 
L 99.745069 220.776437 
L 97.457502 220.822695 
L 95.169934 220.873265 
L 92.882367 220.935035 
L 90.594799 221.014811 
L 88.307231 221.117635 
L 86.019664 221.244654 
L 83.732096 221.391474 
L 81.444529 221.548079 
L 79.156961 221.70064 
L 76.869394 221.834274 
L 74.581826 221.935252 
L 74.030369 221.949099 
L 72.294259 222.017768 
L 70.006691 222.019079 
z
" style="fill:none;"/>
   </g>
   <g id="PathCollection_2">
    <path clip-path="url(#p024e384a0f)" d="M 70.006691 222.019079 
L 72.294259 222.017768 
L 74.030369 221.949099 
L 74.581826 221.935252 
L 76.869394 221.834274 
L 79.156961 221.70064 
L 81.444529 221.548079 
L 83.732096 221.391474 
L 86.019664 221.244654 
L 88.307231 221.117635 
L 90.594799 221.014811 
L 92.882367 220.935035 
L 95.169934 220.873265 
L 97.457502 220.822695 
L 99.745069 220.776437 
L 102.032637 220.728423 
L 104.320204 220.673641 
L 106.607772 220.607994 
L 108.895339 220.528014 
L 111.182907 220.430559 
L 113.470475 220.312559 
L 115.758042 220.1708 
L 116.962936 220.083432 
L 118.04561 220.027113 
L 120.333177 219.888952 
L 122.620745 219.725906 
L 124.908312 219.534044 
L 127.19588 219.30857 
L 129.483447 219.043555 
L 131.771015 218.731602 
L 134.058583 218.363427 
L 134.868936 218.217764 
L 136.34615 217.993293 
L 138.633718 217.592355 
L 140.921285 217.113125 
L 143.208853 216.53735 
L 143.873939 216.352096 
L 145.49642 215.903901 
L 147.783988 215.161863 
L 149.546675 214.486429 
L 150.071556 214.249758 
L 152.359123 213.108841 
L 153.233583 212.620761 
L 154.646691 211.452483 
L 155.448621 210.755094 
L 156.439746 208.889426 
L 156.340705 207.023758 
L 155.178521 205.158091 
L 154.646691 204.693436 
L 152.952543 203.292423 
L 152.359123 202.928641 
L 150.071556 201.659583 
L 149.60584 201.426756 
L 147.783988 200.590374 
L 145.49642 199.713284 
L 145.054862 199.561088 
L 143.208853 198.875309 
L 140.921285 198.162889 
L 139.133494 197.69542 
L 138.633718 197.535424 
L 136.34615 196.878563 
L 134.058583 196.33646 
L 131.771015 195.888656 
L 131.429964 195.829753 
L 129.483447 195.370188 
L 127.19588 194.919979 
L 124.908312 194.55103 
L 122.620745 194.250891 
L 120.333177 194.009199 
L 119.815182 193.964085 
L 118.04561 193.736025 
L 115.758042 193.502974 
L 113.470475 193.325309 
L 111.182907 193.194768 
L 108.895339 193.104136 
L 106.607772 193.046921 
L 104.320204 193.01697 
L 102.032637 193.007995 
L 99.745069 193.01306 
L 97.457502 193.024108 
L 95.169934 193.031718 
L 92.882367 193.025385 
L 90.594799 192.994695 
L 88.307231 192.93159 
L 86.019664 192.833335 
L 83.732096 192.705014 
L 81.444529 192.560064 
L 79.156961 192.418287 
L 76.869394 192.302415 
L 74.581826 192.235223 
L 72.294259 192.238698 
L 70.006691 192.335558 
L 67.719123 192.55282 
L 65.431556 192.927233 
L 63.143988 193.513222 
L 61.896985 193.964085 
L 60.856421 194.230781 
L 58.568853 195.042041 
L 56.972015 195.829753 
L 56.281286 196.112495 
L 53.993718 197.337566 
L 53.445102 197.69542 
L 51.70615 198.828848 
L 50.766333 199.561088 
L 49.418583 200.7955 
L 48.773796 201.426756 
L 47.363576 203.292423 
L 47.131015 203.770865 
L 46.361042 205.158091 
L 45.840849 207.023758 
L 45.765085 208.889426 
L 46.121609 210.755094 
L 47.010062 212.620761 
L 47.131015 212.787803 
L 48.275753 214.486429 
L 49.418583 215.595208 
L 50.256004 216.352096 
L 51.70615 217.400239 
L 53.110081 218.217764 
L 53.993718 218.707342 
L 56.281286 219.701839 
L 57.497114 220.083432 
L 58.568853 220.475296 
L 60.856421 221.100701 
L 63.143988 221.512009 
L 65.431556 221.773603 
L 67.719123 221.925356 
L 68.513562 221.949099 
z
M 59.867689 218.217764 
L 58.568853 217.810501 
L 56.281286 216.802279 
L 55.481205 216.352096 
L 53.993718 215.394855 
L 52.831903 214.486429 
L 51.70615 213.256572 
L 51.150456 212.620761 
L 50.136092 210.755094 
L 49.729 208.889426 
L 49.815374 207.023758 
L 50.408937 205.158091 
L 51.648847 203.292423 
L 51.70615 203.23015 
L 53.467941 201.426756 
L 53.993718 201.011314 
L 56.211148 199.561088 
L 56.281286 199.518416 
L 58.568853 198.33778 
L 60.375709 197.69542 
L 60.856421 197.500579 
L 63.143988 196.790259 
L 65.431556 196.32828 
L 67.719123 196.046447 
L 70.006691 195.901324 
L 72.294259 195.864049 
L 74.581826 195.913543 
L 76.869394 196.031619 
L 79.156961 196.199559 
L 81.444529 196.39647 
L 83.732096 196.600028 
L 86.019664 196.789548 
L 88.307231 196.950001 
L 90.594799 197.074737 
L 92.882367 197.165468 
L 95.169934 197.229888 
L 97.457502 197.278495 
L 99.745069 197.32204 
L 102.032637 197.370138 
L 104.320204 197.430882 
L 106.607772 197.511052 
L 108.895339 197.616588 
L 110.232063 197.69542 
L 111.182907 197.737813 
L 113.470475 197.865094 
L 115.758042 198.023893 
L 118.04561 198.219406 
L 120.333177 198.457647 
L 122.620745 198.745675 
L 124.908312 199.091865 
L 127.19588 199.506285 
L 127.465869 199.561088 
L 129.483447 199.922388 
L 131.771015 200.406948 
L 134.058583 200.985282 
L 135.566727 201.426756 
L 136.34615 201.663537 
L 138.633718 202.448594 
L 140.698361 203.292423 
L 140.921285 203.409066 
L 143.208853 204.723796 
L 143.888171 205.158091 
L 145.480723 207.023758 
L 145.49642 207.217532 
L 145.638312 208.889426 
L 145.49642 209.091864 
L 144.313516 210.755094 
L 143.208853 211.473109 
L 141.240126 212.620761 
L 140.921285 212.751687 
L 138.633718 213.614099 
L 136.34615 214.335778 
L 135.81557 214.486429 
L 134.058583 214.931512 
L 131.771015 215.431424 
L 129.483447 215.855029 
L 127.19588 216.214924 
L 126.206503 216.352096 
L 124.908312 216.544486 
L 122.620745 216.84104 
L 120.333177 217.093056 
L 118.04561 217.306608 
L 115.758042 217.486758 
L 113.470475 217.63782 
L 111.182907 217.763564 
L 108.895339 217.867416 
L 106.607772 217.952646 
L 104.320204 218.022601 
L 102.032637 218.080978 
L 99.745069 218.132142 
L 97.457502 218.181435 
L 95.922717 218.217764 
L 95.169934 218.24048 
L 92.882367 218.325628 
L 90.594799 218.435604 
L 88.307231 218.577362 
L 86.019664 218.752485 
L 83.732096 218.954914 
L 81.444529 219.170845 
L 79.156961 219.381205 
L 76.869394 219.56547 
L 74.581826 219.704708 
L 72.294259 219.782498 
L 70.006691 219.783607 
L 67.719123 219.691023 
L 65.431556 219.48173 
L 63.143988 219.120951 
L 60.856421 218.553697 
z
" style="fill:#fed9c9;"/>
   </g>
   <g id="PathCollection_3">
    <path clip-path="url(#p024e384a0f)" d="M 60.856421 218.553697 
L 63.143988 219.120951 
L 65.431556 219.48173 
L 67.719123 219.691023 
L 70.006691 219.783607 
L 72.294259 219.782498 
L 74.581826 219.704708 
L 76.869394 219.56547 
L 79.156961 219.381205 
L 81.444529 219.170845 
L 83.732096 218.954914 
L 86.019664 218.752485 
L 88.307231 218.577362 
L 90.594799 218.435604 
L 92.882367 218.325628 
L 95.169934 218.24048 
L 95.922717 218.217764 
L 97.457502 218.181435 
L 99.745069 218.132142 
L 102.032637 218.080978 
L 104.320204 218.022601 
L 106.607772 217.952646 
L 108.895339 217.867416 
L 111.182907 217.763564 
L 113.470475 217.63782 
L 115.758042 217.486758 
L 118.04561 217.306608 
L 120.333177 217.093056 
L 122.620745 216.84104 
L 124.908312 216.544486 
L 126.206503 216.352096 
L 127.19588 216.214924 
L 129.483447 215.855029 
L 131.771015 215.431424 
L 134.058583 214.931512 
L 135.81557 214.486429 
L 136.34615 214.335778 
L 138.633718 213.614099 
L 140.921285 212.751687 
L 141.240126 212.620761 
L 143.208853 211.473109 
L 144.313516 210.755094 
L 145.49642 209.091864 
L 145.638312 208.889426 
L 145.49642 207.217532 
L 145.480723 207.023758 
L 143.888171 205.158091 
L 143.208853 204.723796 
L 140.921285 203.409066 
L 140.698361 203.292423 
L 138.633718 202.448594 
L 136.34615 201.663537 
L 135.566727 201.426756 
L 134.058583 200.985282 
L 131.771015 200.406948 
L 129.483447 199.922388 
L 127.465869 199.561088 
L 127.19588 199.506285 
L 124.908312 199.091865 
L 122.620745 198.745675 
L 120.333177 198.457647 
L 118.04561 198.219406 
L 115.758042 198.023893 
L 113.470475 197.865094 
L 111.182907 197.737813 
L 110.232063 197.69542 
L 108.895339 197.616588 
L 106.607772 197.511052 
L 104.320204 197.430882 
L 102.032637 197.370138 
L 99.745069 197.32204 
L 97.457502 197.278495 
L 95.169934 197.229888 
L 92.882367 197.165468 
L 90.594799 197.074737 
L 88.307231 196.950001 
L 86.019664 196.789548 
L 83.732096 196.600028 
L 81.444529 196.39647 
L 79.156961 196.199559 
L 76.869394 196.031619 
L 74.581826 195.913543 
L 72.294259 195.864049 
L 70.006691 195.901324 
L 67.719123 196.046447 
L 65.431556 196.32828 
L 63.143988 196.790259 
L 60.856421 197.500579 
L 60.375709 197.69542 
L 58.568853 198.33778 
L 56.281286 199.518416 
L 56.211148 199.561088 
L 53.993718 201.011314 
L 53.467941 201.426756 
L 51.70615 203.23015 
L 51.648847 203.292423 
L 50.408937 205.158091 
L 49.815374 207.023758 
L 49.729 208.889426 
L 50.136092 210.755094 
L 51.150456 212.620761 
L 51.70615 213.256572 
L 52.831903 214.486429 
L 53.993718 215.394855 
L 55.481205 216.352096 
L 56.281286 216.802279 
L 58.568853 217.810501 
L 59.867689 218.217764 
z
M 59.843748 216.352096 
L 58.568853 215.82362 
L 56.281286 214.493174 
L 56.271413 214.486429 
L 54.178895 212.620761 
L 53.993718 212.346218 
L 52.947276 210.755094 
L 52.442827 208.889426 
L 52.549678 207.023758 
L 53.284681 205.158091 
L 53.993718 204.214262 
L 54.720597 203.292423 
L 56.281286 201.970298 
L 57.057834 201.426756 
L 58.568853 200.53527 
L 60.856421 199.564869 
L 60.868189 199.561088 
L 63.143988 198.788782 
L 65.431556 198.287843 
L 67.719123 197.988073 
L 70.006691 197.842059 
L 72.294259 197.81845 
L 74.581826 197.894352 
L 76.869394 198.049786 
L 79.156961 198.263741 
L 81.444529 198.512263 
L 83.732096 198.769338 
L 86.019664 199.010566 
L 88.307231 199.217996 
L 90.594799 199.383479 
L 92.882367 199.50875 
L 94.169078 199.561088 
L 95.169934 199.595365 
L 97.457502 199.656979 
L 99.745069 199.713098 
L 102.032637 199.772938 
L 104.320204 199.844215 
L 106.607772 199.933344 
L 108.895339 200.045881 
L 111.182907 200.186994 
L 113.470475 200.361891 
L 115.758042 200.576165 
L 118.04561 200.836092 
L 120.333177 201.148898 
L 122.055035 201.426756 
L 122.620745 201.518042 
L 124.908312 201.940297 
L 127.19588 202.441603 
L 129.483447 203.036105 
L 130.356509 203.292423 
L 131.771015 203.808791 
L 134.058583 204.772636 
L 134.8739 205.158091 
L 136.34615 206.391428 
L 137.044615 207.023758 
L 137.263231 208.889426 
L 136.34615 209.887132 
L 135.500781 210.755094 
L 134.058583 211.458598 
L 131.771015 212.433797 
L 131.283234 212.620761 
L 129.483447 213.124563 
L 127.19588 213.677751 
L 124.908312 214.148491 
L 122.996204 214.486429 
L 122.620745 214.547585 
L 120.333177 214.879662 
L 118.04561 215.161062 
L 115.758042 215.398455 
L 113.470475 215.59752 
L 111.182907 215.763226 
L 108.895339 215.900083 
L 106.607772 216.0124 
L 104.320204 216.104586 
L 102.032637 216.181511 
L 99.745069 216.248931 
L 97.457502 216.313887 
L 96.235029 216.352096 
L 95.169934 216.389422 
L 92.882367 216.488121 
L 90.594799 216.615613 
L 88.307231 216.779965 
L 86.019664 216.983018 
L 83.732096 217.217751 
L 81.444529 217.468157 
L 79.156961 217.712118 
L 76.869394 217.925826 
L 74.581826 218.087316 
L 72.294259 218.177535 
L 70.006691 218.178808 
L 67.719123 218.071396 
L 65.431556 217.828591 
L 63.143988 217.410051 
L 60.856421 216.751978 
z
" style="fill:#fcbba1;"/>
   </g>
   <g id="PathCollection_4">
    <path clip-path="url(#p024e384a0f)" d="M 60.856421 216.751978 
L 63.143988 217.410051 
L 65.431556 217.828591 
L 67.719123 218.071396 
L 70.006691 218.178808 
L 72.294259 218.177535 
L 74.581826 218.087316 
L 76.869394 217.925826 
L 79.156961 217.712118 
L 81.444529 217.468157 
L 83.732096 217.217751 
L 86.019664 216.983018 
L 88.307231 216.779965 
L 90.594799 216.615613 
L 92.882367 216.488121 
L 95.169934 216.389422 
L 96.235029 216.352096 
L 97.457502 216.313887 
L 99.745069 216.248931 
L 102.032637 216.181511 
L 104.320204 216.104586 
L 106.607772 216.0124 
L 108.895339 215.900083 
L 111.182907 215.763226 
L 113.470475 215.59752 
L 115.758042 215.398455 
L 118.04561 215.161062 
L 120.333177 214.879662 
L 122.620745 214.547585 
L 122.996204 214.486429 
L 124.908312 214.148491 
L 127.19588 213.677751 
L 129.483447 213.124563 
L 131.283234 212.620761 
L 131.771015 212.433797 
L 134.058583 211.458598 
L 135.500781 210.755094 
L 136.34615 209.887132 
L 137.263231 208.889426 
L 137.044615 207.023758 
L 136.34615 206.391428 
L 134.8739 205.158091 
L 134.058583 204.772636 
L 131.771015 203.808791 
L 130.356509 203.292423 
L 129.483447 203.036105 
L 127.19588 202.441603 
L 124.908312 201.940297 
L 122.620745 201.518042 
L 122.055035 201.426756 
L 120.333177 201.148898 
L 118.04561 200.836092 
L 115.758042 200.576165 
L 113.470475 200.361891 
L 111.182907 200.186994 
L 108.895339 200.045881 
L 106.607772 199.933344 
L 104.320204 199.844215 
L 102.032637 199.772938 
L 99.745069 199.713098 
L 97.457502 199.656979 
L 95.169934 199.595365 
L 94.169078 199.561088 
L 92.882367 199.50875 
L 90.594799 199.383479 
L 88.307231 199.217996 
L 86.019664 199.010566 
L 83.732096 198.769338 
L 81.444529 198.512263 
L 79.156961 198.263741 
L 76.869394 198.049786 
L 74.581826 197.894352 
L 72.294259 197.81845 
L 70.006691 197.842059 
L 67.719123 197.988073 
L 65.431556 198.287843 
L 63.143988 198.788782 
L 60.868189 199.561088 
L 60.856421 199.564869 
L 58.568853 200.53527 
L 57.057834 201.426756 
L 56.281286 201.970298 
L 54.720597 203.292423 
L 53.993718 204.214262 
L 53.284681 205.158091 
L 52.549678 207.023758 
L 52.442827 208.889426 
L 52.947276 210.755094 
L 53.993718 212.346218 
L 54.178895 212.620761 
L 56.271413 214.486429 
L 56.281286 214.493174 
L 58.568853 215.82362 
L 59.843748 216.352096 
z
M 64.945298 216.352096 
L 63.143988 215.957758 
L 60.856421 215.185863 
L 59.397722 214.486429 
L 58.568853 213.998842 
L 56.753084 212.620761 
L 56.281286 212.05009 
L 55.306582 210.755094 
L 54.71443 208.889426 
L 54.83963 207.023758 
L 55.701726 205.158091 
L 56.281286 204.483562 
L 57.431319 203.292423 
L 58.568853 202.470392 
L 60.453081 201.426756 
L 60.856421 201.230281 
L 63.143988 200.377275 
L 65.431556 199.829709 
L 67.306322 199.561088 
L 67.719123 199.493704 
L 70.006691 199.308464 
L 72.294259 199.288708 
L 74.581826 199.404149 
L 76.205316 199.561088 
L 76.869394 199.616545 
L 79.156961 199.868006 
L 81.444529 200.158808 
L 83.732096 200.45951 
L 86.019664 200.742388 
L 88.307231 200.986977 
L 90.594799 201.183923 
L 92.882367 201.335097 
L 94.707664 201.426756 
L 95.169934 201.449281 
L 97.457502 201.537951 
L 99.745069 201.619058 
L 102.032637 201.70457 
L 104.320204 201.804486 
L 106.607772 201.927092 
L 108.895339 202.079525 
L 111.182907 202.268386 
L 113.470475 202.500266 
L 115.758042 202.782192 
L 118.04561 203.121999 
L 119.030833 203.292423 
L 120.333177 203.564257 
L 122.620745 204.121212 
L 124.908312 204.781675 
L 126.047276 205.158091 
L 127.19588 205.811575 
L 129.07897 207.023758 
L 129.392193 208.889426 
L 127.19588 210.619604 
L 127.005766 210.755094 
L 124.908312 211.481684 
L 122.620745 212.159978 
L 120.811978 212.620761 
L 120.333177 212.711984 
L 118.04561 213.096524 
L 115.758042 213.420955 
L 113.470475 213.693028 
L 111.182907 213.919525 
L 108.895339 214.1066 
L 106.607772 214.260139 
L 104.320204 214.386162 
L 102.140684 214.486429 
L 102.032637 214.491201 
L 99.745069 214.581011 
L 97.457502 214.667533 
L 95.169934 214.762139 
L 92.882367 214.877736 
L 90.594799 215.027086 
L 88.307231 215.219652 
L 86.019664 215.457602 
L 83.732096 215.732719 
L 81.444529 216.026246 
L 79.156961 216.312254 
L 78.808825 216.352096 
L 76.869394 216.59169 
L 74.581826 216.806969 
L 72.294259 216.927226 
L 70.006691 216.928894 
L 67.719123 216.785654 
L 65.431556 216.461896 
z
" style="fill:#fc9b7c;"/>
   </g>
   <g id="PathCollection_5">
    <path clip-path="url(#p024e384a0f)" d="M 65.431556 216.461896 
L 67.719123 216.785654 
L 70.006691 216.928894 
L 72.294259 216.927226 
L 74.581826 216.806969 
L 76.869394 216.59169 
L 78.808825 216.352096 
L 79.156961 216.312254 
L 81.444529 216.026246 
L 83.732096 215.732719 
L 86.019664 215.457602 
L 88.307231 215.219652 
L 90.594799 215.027086 
L 92.882367 214.877736 
L 95.169934 214.762139 
L 97.457502 214.667533 
L 99.745069 214.581011 
L 102.032637 214.491201 
L 102.140684 214.486429 
L 104.320204 214.386162 
L 106.607772 214.260139 
L 108.895339 214.1066 
L 111.182907 213.919525 
L 113.470475 213.693028 
L 115.758042 213.420955 
L 118.04561 213.096524 
L 120.333177 212.711984 
L 120.811978 212.620761 
L 122.620745 212.159978 
L 124.908312 211.481684 
L 127.005766 210.755094 
L 127.19588 210.619604 
L 129.392193 208.889426 
L 129.07897 207.023758 
L 127.19588 205.811575 
L 126.047276 205.158091 
L 124.908312 204.781675 
L 122.620745 204.121212 
L 120.333177 203.564257 
L 119.030833 203.292423 
L 118.04561 203.121999 
L 115.758042 202.782192 
L 113.470475 202.500266 
L 111.182907 202.268386 
L 108.895339 202.079525 
L 106.607772 201.927092 
L 104.320204 201.804486 
L 102.032637 201.70457 
L 99.745069 201.619058 
L 97.457502 201.537951 
L 95.169934 201.449281 
L 94.707664 201.426756 
L 92.882367 201.335097 
L 90.594799 201.183923 
L 88.307231 200.986977 
L 86.019664 200.742388 
L 83.732096 200.45951 
L 81.444529 200.158808 
L 79.156961 199.868006 
L 76.869394 199.616545 
L 76.205316 199.561088 
L 74.581826 199.404149 
L 72.294259 199.288708 
L 70.006691 199.308464 
L 67.719123 199.493704 
L 67.306322 199.561088 
L 65.431556 199.829709 
L 63.143988 200.377275 
L 60.856421 201.230281 
L 60.453081 201.426756 
L 58.568853 202.470392 
L 57.431319 203.292423 
L 56.281286 204.483562 
L 55.701726 205.158091 
L 54.83963 207.023758 
L 54.71443 208.889426 
L 55.306582 210.755094 
L 56.281286 212.05009 
L 56.753084 212.620761 
L 58.568853 213.998842 
L 59.397722 214.486429 
L 60.856421 215.185863 
L 63.143988 215.957758 
L 64.945298 216.352096 
z
M 62.755162 214.486429 
L 60.856421 213.644878 
L 59.218054 212.620761 
L 58.568853 212.000815 
L 57.468442 210.755094 
L 56.770499 208.889426 
L 56.917757 207.023758 
L 57.932865 205.158091 
L 58.568853 204.526858 
L 60.07621 203.292423 
L 60.856421 202.827311 
L 63.143988 201.8133 
L 64.452686 201.426756 
L 65.431556 201.15129 
L 67.719123 200.750385 
L 70.006691 200.564648 
L 72.294259 200.551346 
L 74.581826 200.679253 
L 76.869394 200.920846 
L 79.156961 201.246693 
L 80.28659 201.426756 
L 81.444529 201.613342 
L 83.732096 201.983417 
L 86.019664 202.331922 
L 88.307231 202.634045 
L 90.594799 202.878418 
L 92.882367 203.067266 
L 95.169934 203.212597 
L 96.720299 203.292423 
L 97.457502 203.336858 
L 99.745069 203.461816 
L 102.032637 203.592856 
L 104.320204 203.744554 
L 106.607772 203.928972 
L 108.895339 204.156482 
L 111.182907 204.436638 
L 113.470475 204.778944 
L 115.569213 205.158091 
L 115.758042 205.215036 
L 118.04561 206.016672 
L 120.333177 206.974207 
L 120.43803 207.023758 
L 120.912215 208.889426 
L 120.333177 209.229152 
L 118.04561 210.412122 
L 117.280961 210.755094 
L 115.758042 211.093431 
L 113.470475 211.525469 
L 111.182907 211.88523 
L 108.895339 212.18245 
L 106.607772 212.426443 
L 104.389763 212.620761 
L 104.320204 212.625464 
L 102.032637 212.756715 
L 99.745069 212.871723 
L 97.457502 212.982525 
L 95.169934 213.103706 
L 92.882367 213.251826 
L 90.594799 213.443273 
L 88.307231 213.69021 
L 86.019664 213.995451 
L 83.732096 214.348485 
L 82.92323 214.486429 
L 81.444529 214.718921 
L 79.156961 215.076322 
L 76.869394 215.389431 
L 74.581826 215.626043 
L 72.294259 215.75821 
L 70.006691 215.760004 
L 67.719123 215.602468 
L 65.431556 215.246436 
L 63.143988 214.632746 
z
" style="fill:#fb7a5a;"/>
   </g>
   <g id="PathCollection_6">
    <path clip-path="url(#p024e384a0f)" d="M 63.143988 214.632746 
L 65.431556 215.246436 
L 67.719123 215.602468 
L 70.006691 215.760004 
L 72.294259 215.75821 
L 74.581826 215.626043 
L 76.869394 215.389431 
L 79.156961 215.076322 
L 81.444529 214.718921 
L 82.92323 214.486429 
L 83.732096 214.348485 
L 86.019664 213.995451 
L 88.307231 213.69021 
L 90.594799 213.443273 
L 92.882367 213.251826 
L 95.169934 213.103706 
L 97.457502 212.982525 
L 99.745069 212.871723 
L 102.032637 212.756715 
L 104.320204 212.625464 
L 104.389763 212.620761 
L 106.607772 212.426443 
L 108.895339 212.18245 
L 111.182907 211.88523 
L 113.470475 211.525469 
L 115.758042 211.093431 
L 117.280961 210.755094 
L 118.04561 210.412122 
L 120.333177 209.229152 
L 120.912215 208.889426 
L 120.43803 207.023758 
L 120.333177 206.974207 
L 118.04561 206.016672 
L 115.758042 205.215036 
L 115.569213 205.158091 
L 113.470475 204.778944 
L 111.182907 204.436638 
L 108.895339 204.156482 
L 106.607772 203.928972 
L 104.320204 203.744554 
L 102.032637 203.592856 
L 99.745069 203.461816 
L 97.457502 203.336858 
L 96.720299 203.292423 
L 95.169934 203.212597 
L 92.882367 203.067266 
L 90.594799 202.878418 
L 88.307231 202.634045 
L 86.019664 202.331922 
L 83.732096 201.983417 
L 81.444529 201.613342 
L 80.28659 201.426756 
L 79.156961 201.246693 
L 76.869394 200.920846 
L 74.581826 200.679253 
L 72.294259 200.551346 
L 70.006691 200.564648 
L 67.719123 200.750385 
L 65.431556 201.15129 
L 64.452686 201.426756 
L 63.143988 201.8133 
L 60.856421 202.827311 
L 60.07621 203.292423 
L 58.568853 204.526858 
L 57.932865 205.158091 
L 56.917757 207.023758 
L 56.770499 208.889426 
L 57.468442 210.755094 
L 58.568853 212.000815 
L 59.218054 212.620761 
L 60.856421 213.644878 
L 62.755162 214.486429 
z
M 67.895574 214.486429 
L 67.719123 214.47104 
L 65.431556 214.03181 
L 63.143988 213.274692 
L 61.810977 212.620761 
L 60.856421 211.933992 
L 59.591981 210.755094 
L 58.739669 208.889426 
L 58.919045 207.023758 
L 60.157084 205.158091 
L 60.856421 204.585757 
L 62.947785 203.292423 
L 63.143988 203.200408 
L 65.431556 202.424031 
L 67.719123 201.968801 
L 70.006691 201.760648 
L 72.294259 201.750775 
L 74.581826 201.903496 
L 76.869394 202.187259 
L 79.156961 202.568204 
L 81.444529 203.00705 
L 82.914524 203.292423 
L 83.732096 203.486147 
L 86.019664 203.978502 
L 88.307231 204.406118 
L 90.594799 204.75303 
L 92.882367 205.022277 
L 94.38446 205.158091 
L 95.169934 205.274231 
L 97.457502 205.54762 
L 99.745069 205.798726 
L 102.032637 206.061432 
L 104.320204 206.364072 
L 106.607772 206.73014 
L 108.113527 207.023758 
L 108.895339 208.227649 
L 109.257644 208.889426 
L 108.895339 208.996722 
L 106.607772 209.564789 
L 104.320204 210.031607 
L 102.032637 210.421618 
L 99.804799 210.755094 
L 99.745069 210.75961 
L 97.457502 210.928397 
L 95.169934 211.113099 
L 92.882367 211.33906 
L 90.594799 211.631392 
L 88.307231 212.008797 
L 86.019664 212.475717 
L 85.427084 212.620761 
L 83.732096 212.930465 
L 81.444529 213.382294 
L 79.156961 213.822681 
L 76.869394 214.20859 
L 74.694735 214.486429 
L 74.581826 214.499902 
L 72.294259 214.658441 
L 70.006691 214.660543 
z
" style="fill:#f6583e;"/>
   </g>
   <g id="PathCollection_7">
    <path clip-path="url(#p024e384a0f)" d="M 70.006691 214.660543 
L 72.294259 214.658441 
L 74.581826 214.499902 
L 74.694735 214.486429 
L 76.869394 214.20859 
L 79.156961 213.822681 
L 81.444529 213.382294 
L 83.732096 212.930465 
L 85.427084 212.620761 
L 86.019664 212.475717 
L 88.307231 212.008797 
L 90.594799 211.631392 
L 92.882367 211.33906 
L 95.169934 211.113099 
L 97.457502 210.928397 
L 99.745069 210.75961 
L 99.804799 210.755094 
L 102.032637 210.421618 
L 104.320204 210.031607 
L 106.607772 209.564789 
L 108.895339 208.996722 
L 109.257644 208.889426 
L 108.895339 208.227649 
L 108.113527 207.023758 
L 106.607772 206.73014 
L 104.320204 206.364072 
L 102.032637 206.061432 
L 99.745069 205.798726 
L 97.457502 205.54762 
L 95.169934 205.274231 
L 94.38446 205.158091 
L 92.882367 205.022277 
L 90.594799 204.75303 
L 88.307231 204.406118 
L 86.019664 203.978502 
L 83.732096 203.486147 
L 82.914524 203.292423 
L 81.444529 203.00705 
L 79.156961 202.568204 
L 76.869394 202.187259 
L 74.581826 201.903496 
L 72.294259 201.750775 
L 70.006691 201.760648 
L 67.719123 201.968801 
L 65.431556 202.424031 
L 63.143988 203.200408 
L 62.947785 203.292423 
L 60.856421 204.585757 
L 60.157084 205.158091 
L 58.919045 207.023758 
L 58.739669 208.889426 
L 59.591981 210.755094 
L 60.856421 211.933992 
L 61.810977 212.620761 
L 63.143988 213.274692 
L 65.431556 214.03181 
L 67.719123 214.47104 
L 67.895574 214.486429 
z
M 64.941577 212.620761 
L 63.143988 211.714252 
L 61.833114 210.755094 
L 60.856421 209.121411 
L 60.739994 208.889426 
L 60.856421 207.841991 
L 60.959011 207.023758 
L 62.562886 205.158091 
L 63.143988 204.784241 
L 65.431556 203.743374 
L 67.099982 203.292423 
L 67.719123 203.155574 
L 70.006691 202.916212 
L 72.294259 202.909014 
L 74.581826 203.092429 
L 75.962628 203.292423 
L 76.869394 203.450488 
L 79.156961 203.970413 
L 81.444529 204.568792 
L 83.630053 205.158091 
L 83.732096 205.204667 
L 86.019664 206.137074 
L 88.307231 206.949199 
L 88.573293 207.023758 
L 89.502919 208.889426 
L 88.307231 209.333253 
L 86.019664 210.402459 
L 85.39144 210.755094 
L 83.732096 211.205633 
L 81.444529 211.878068 
L 79.156961 212.534006 
L 78.826743 212.620761 
L 76.869394 213.002872 
L 74.581826 213.342972 
L 72.294259 213.532903 
L 70.006691 213.535299 
L 67.719123 213.308439 
L 65.431556 212.795913 
z
" style="fill:#e83429;"/>
   </g>
   <g id="PathCollection_8">
    <path clip-path="url(#p024e384a0f)" d="M 65.431556 212.795913 
L 67.719123 213.308439 
L 70.006691 213.535299 
L 72.294259 213.532903 
L 74.581826 213.342972 
L 76.869394 213.002872 
L 78.826743 212.620761 
L 79.156961 212.534006 
L 81.444529 211.878068 
L 83.732096 211.205633 
L 85.39144 210.755094 
L 86.019664 210.402459 
L 88.307231 209.333253 
L 89.502919 208.889426 
L 88.573293 207.023758 
L 88.307231 206.949199 
L 86.019664 206.137074 
L 83.732096 205.204667 
L 83.630053 205.158091 
L 81.444529 204.568792 
L 79.156961 203.970413 
L 76.869394 203.450488 
L 75.962628 203.292423 
L 74.581826 203.092429 
L 72.294259 202.909014 
L 70.006691 202.916212 
L 67.719123 203.155574 
L 67.099982 203.292423 
L 65.431556 203.743374 
L 63.143988 204.784241 
L 62.562886 205.158091 
L 60.959011 207.023758 
L 60.856421 207.841991 
L 60.739994 208.889426 
L 60.856421 209.121411 
L 61.833114 210.755094 
L 63.143988 211.714252 
L 64.941577 212.620761 
z
M 64.478594 210.755094 
L 63.143988 209.190784 
L 62.951219 208.889426 
L 63.143988 207.522663 
L 63.232799 207.023758 
L 65.431556 205.216168 
L 65.545488 205.158091 
L 67.719123 204.501794 
L 70.006691 204.190112 
L 72.294259 204.184876 
L 74.581826 204.431451 
L 76.869394 204.881393 
L 77.953863 205.158091 
L 79.156961 205.675383 
L 81.444529 206.779087 
L 81.957485 207.023758 
L 82.523981 208.889426 
L 81.444529 209.583704 
L 79.655769 210.755094 
L 79.156961 210.911368 
L 76.869394 211.567921 
L 74.581826 212.064388 
L 72.294259 212.341693 
L 70.006691 212.344979 
L 67.719123 212.013033 
L 65.431556 211.263191 
z
" style="fill:#ca181d;"/>
   </g>
   <g id="PathCollection_9">
    <path clip-path="url(#p024e384a0f)" d="M 65.431556 211.263191 
L 67.719123 212.013033 
L 70.006691 212.344979 
L 72.294259 212.341693 
L 74.581826 212.064388 
L 76.869394 211.567921 
L 79.156961 210.911368 
L 79.655769 210.755094 
L 81.444529 209.583704 
L 82.523981 208.889426 
L 81.957485 207.023758 
L 81.444529 206.779087 
L 79.156961 205.675383 
L 77.953863 205.158091 
L 76.869394 204.881393 
L 74.581826 204.431451 
L 72.294259 204.184876 
L 70.006691 204.190112 
L 67.719123 204.501794 
L 65.545488 205.158091 
L 65.431556 205.216168 
L 63.232799 207.023758 
L 63.143988 207.522663 
L 62.951219 208.889426 
L 63.143988 209.190784 
L 64.478594 210.755094 
z
M 69.109681 210.755094 
L 67.719123 210.297372 
L 65.785831 208.889426 
L 66.32529 207.023758 
L 67.719123 206.288616 
L 70.006691 205.735785 
L 72.294259 205.732535 
L 74.581826 206.181785 
L 76.869394 206.997514 
L 76.927598 207.023758 
L 77.552628 208.889426 
L 76.869394 209.310137 
L 74.581826 210.416233 
L 73.341848 210.755094 
L 72.294259 210.895904 
L 70.006691 210.899139 
z
" style="fill:#ac1117;"/>
   </g>
   <g id="PathCollection_10">
    <path clip-path="url(#p024e384a0f)" d="M 70.006691 210.899139 
L 72.294259 210.895904 
L 73.341848 210.755094 
L 74.581826 210.416233 
L 76.869394 209.310137 
L 77.552628 208.889426 
L 76.927598 207.023758 
L 76.869394 206.997514 
L 74.581826 206.181785 
L 72.294259 205.732535 
L 70.006691 205.735785 
L 67.719123 206.288616 
L 66.32529 207.023758 
L 65.785831 208.889426 
L 67.719123 210.297372 
L 69.109681 210.755094 
z
" style="fill:#7e0610;"/>
   </g>
   <g id="matplotlib.axis_1">
    <g id="xtick_1">
     <g id="line2d_1">
      <defs>
       <path d="M 0 0 
L 0 3.5 
" id="ma0f6897a26" style="stroke:#262626;stroke-width:0.8;"/>
      </defs>
      <g>
       <use style="fill:#262626;stroke:#262626;stroke-width:0.8;" x="67.334837" xlink:href="#ma0f6897a26" y="223"/>
      </g>
     </g>
     <g id="line2d_2">
      <defs>
       <path d="M 0 0 
L 0 -3.5 
" id="m778c05d110" style="stroke:#262626;stroke-width:0.8;"/>
      </defs>
      <g>
       <use style="fill:#262626;stroke:#262626;stroke-width:0.8;" x="67.334837" xlink:href="#m778c05d110" y="25.44"/>
      </g>
     </g>
     <g id="text_1">
      <!-- 0.0 -->
      <defs>
       <path d="M 31.78125 66.40625 
Q 24.171875 66.40625 20.328125 58.90625 
Q 16.5 51.421875 16.5 36.375 
Q 16.5 21.390625 20.328125 13.890625 
Q 24.171875 6.390625 31.78125 6.390625 
Q 39.453125 6.390625 43.28125 13.890625 
Q 47.125 21.390625 47.125 36.375 
Q 47.125 51.421875 43.28125 58.90625 
Q 39.453125 66.40625 31.78125 66.40625 
z
M 31.78125 74.21875 
Q 44.046875 74.21875 50.515625 64.515625 
Q 56.984375 54.828125 56.984375 36.375 
Q 56.984375 17.96875 50.515625 8.265625 
Q 44.046875 -1.421875 31.78125 -1.421875 
Q 19.53125 -1.421875 13.0625 8.265625 
Q 6.59375 17.96875 6.59375 36.375 
Q 6.59375 54.828125 13.0625 64.515625 
Q 19.53125 74.21875 31.78125 74.21875 
z
" id="DejaVuSans-30"/>
       <path d="M 10.6875 12.40625 
L 21 12.40625 
L 21 0 
L 10.6875 0 
z
" id="DejaVuSans-2e"/>
      </defs>
      <g style="fill:#262626;" transform="translate(58.588118 238.358281)scale(0.11 -0.11)">
       <use xlink:href="#DejaVuSans-30"/>
       <use x="63.623047" xlink:href="#DejaVuSans-2e"/>
       <use x="95.410156" xlink:href="#DejaVuSans-30"/>
      </g>
     </g>
    </g>
    <g id="xtick_2">
     <g id="line2d_3">
      <g>
       <use style="fill:#262626;stroke:#262626;stroke-width:0.8;" x="137.649636" xlink:href="#ma0f6897a26" y="223"/>
      </g>
     </g>
     <g id="line2d_4">
      <g>
       <use style="fill:#262626;stroke:#262626;stroke-width:0.8;" x="137.649636" xlink:href="#m778c05d110" y="25.44"/>
      </g>
     </g>
     <g id="text_2">
      <!-- 1.0 -->
      <defs>
       <path d="M 12.40625 8.296875 
L 28.515625 8.296875 
L 28.515625 63.921875 
L 10.984375 60.40625 
L 10.984375 69.390625 
L 28.421875 72.90625 
L 38.28125 72.90625 
L 38.28125 8.296875 
L 54.390625 8.296875 
L 54.390625 0 
L 12.40625 0 
z
" id="DejaVuSans-31"/>
      </defs>
      <g style="fill:#262626;" transform="translate(128.902917 238.358281)scale(0.11 -0.11)">
       <use xlink:href="#DejaVuSans-31"/>
       <use x="63.623047" xlink:href="#DejaVuSans-2e"/>
       <use x="95.410156" xlink:href="#DejaVuSans-30"/>
      </g>
     </g>
    </g>
    <g id="xtick_3">
     <g id="line2d_5">
      <g>
       <use style="fill:#262626;stroke:#262626;stroke-width:0.8;" x="207.964434" xlink:href="#ma0f6897a26" y="223"/>
      </g>
     </g>
     <g id="line2d_6">
      <g>
       <use style="fill:#262626;stroke:#262626;stroke-width:0.8;" x="207.964434" xlink:href="#m778c05d110" y="25.44"/>
      </g>
     </g>
     <g id="text_3">
      <!-- 2.0 -->
      <defs>
       <path d="M 19.1875 8.296875 
L 53.609375 8.296875 
L 53.609375 0 
L 7.328125 0 
L 7.328125 8.296875 
Q 12.9375 14.109375 22.625 23.890625 
Q 32.328125 33.6875 34.8125 36.53125 
Q 39.546875 41.84375 41.421875 45.53125 
Q 43.3125 49.21875 43.3125 52.78125 
Q 43.3125 58.59375 39.234375 62.25 
Q 35.15625 65.921875 28.609375 65.921875 
Q 23.96875 65.921875 18.8125 64.3125 
Q 13.671875 62.703125 7.8125 59.421875 
L 7.8125 69.390625 
Q 13.765625 71.78125 18.9375 73 
Q 24.125 74.21875 28.421875 74.21875 
Q 39.75 74.21875 46.484375 68.546875 
Q 53.21875 62.890625 53.21875 53.421875 
Q 53.21875 48.921875 51.53125 44.890625 
Q 49.859375 40.875 45.40625 35.40625 
Q 44.1875 33.984375 37.640625 27.21875 
Q 31.109375 20.453125 19.1875 8.296875 
z
" id="DejaVuSans-32"/>
      </defs>
      <g style="fill:#262626;" transform="translate(199.217716 238.358281)scale(0.11 -0.11)">
       <use xlink:href="#DejaVuSans-32"/>
       <use x="63.623047" xlink:href="#DejaVuSans-2e"/>
       <use x="95.410156" xlink:href="#DejaVuSans-30"/>
      </g>
     </g>
    </g>
    <g id="text_4">
     <!-- log10 counts (Control) -->
     <defs>
      <path d="M 9.421875 75.984375 
L 18.40625 75.984375 
L 18.40625 0 
L 9.421875 0 
z
" id="DejaVuSans-6c"/>
      <path d="M 30.609375 48.390625 
Q 23.390625 48.390625 19.1875 42.75 
Q 14.984375 37.109375 14.984375 27.296875 
Q 14.984375 17.484375 19.15625 11.84375 
Q 23.34375 6.203125 30.609375 6.203125 
Q 37.796875 6.203125 41.984375 11.859375 
Q 46.1875 17.53125 46.1875 27.296875 
Q 46.1875 37.015625 41.984375 42.703125 
Q 37.796875 48.390625 30.609375 48.390625 
z
M 30.609375 56 
Q 42.328125 56 49.015625 48.375 
Q 55.71875 40.765625 55.71875 27.296875 
Q 55.71875 13.875 49.015625 6.21875 
Q 42.328125 -1.421875 30.609375 -1.421875 
Q 18.84375 -1.421875 12.171875 6.21875 
Q 5.515625 13.875 5.515625 27.296875 
Q 5.515625 40.765625 12.171875 48.375 
Q 18.84375 56 30.609375 56 
z
" id="DejaVuSans-6f"/>
      <path d="M 45.40625 27.984375 
Q 45.40625 37.75 41.375 43.109375 
Q 37.359375 48.484375 30.078125 48.484375 
Q 22.859375 48.484375 18.828125 43.109375 
Q 14.796875 37.75 14.796875 27.984375 
Q 14.796875 18.265625 18.828125 12.890625 
Q 22.859375 7.515625 30.078125 7.515625 
Q 37.359375 7.515625 41.375 12.890625 
Q 45.40625 18.265625 45.40625 27.984375 
z
M 54.390625 6.78125 
Q 54.390625 -7.171875 48.1875 -13.984375 
Q 42 -20.796875 29.203125 -20.796875 
Q 24.46875 -20.796875 20.265625 -20.09375 
Q 16.0625 -19.390625 12.109375 -17.921875 
L 12.109375 -9.1875 
Q 16.0625 -11.328125 19.921875 -12.34375 
Q 23.78125 -13.375 27.78125 -13.375 
Q 36.625 -13.375 41.015625 -8.765625 
Q 45.40625 -4.15625 45.40625 5.171875 
L 45.40625 9.625 
Q 42.625 4.78125 38.28125 2.390625 
Q 33.9375 0 27.875 0 
Q 17.828125 0 11.671875 7.65625 
Q 5.515625 15.328125 5.515625 27.984375 
Q 5.515625 40.671875 11.671875 48.328125 
Q 17.828125 56 27.875 56 
Q 33.9375 56 38.28125 53.609375 
Q 42.625 51.21875 45.40625 46.390625 
L 45.40625 54.6875 
L 54.390625 54.6875 
z
" id="DejaVuSans-67"/>
      <path id="DejaVuSans-20"/>
      <path d="M 48.78125 52.59375 
L 48.78125 44.1875 
Q 44.96875 46.296875 41.140625 47.34375 
Q 37.3125 48.390625 33.40625 48.390625 
Q 24.65625 48.390625 19.8125 42.84375 
Q 14.984375 37.3125 14.984375 27.296875 
Q 14.984375 17.28125 19.8125 11.734375 
Q 24.65625 6.203125 33.40625 6.203125 
Q 37.3125 6.203125 41.140625 7.25 
Q 44.96875 8.296875 48.78125 10.40625 
L 48.78125 2.09375 
Q 45.015625 0.34375 40.984375 -0.53125 
Q 36.96875 -1.421875 32.421875 -1.421875 
Q 20.0625 -1.421875 12.78125 6.34375 
Q 5.515625 14.109375 5.515625 27.296875 
Q 5.515625 40.671875 12.859375 48.328125 
Q 20.21875 56 33.015625 56 
Q 37.15625 56 41.109375 55.140625 
Q 45.0625 54.296875 48.78125 52.59375 
z
" id="DejaVuSans-63"/>
      <path d="M 8.5 21.578125 
L 8.5 54.6875 
L 17.484375 54.6875 
L 17.484375 21.921875 
Q 17.484375 14.15625 20.5 10.265625 
Q 23.53125 6.390625 29.59375 6.390625 
Q 36.859375 6.390625 41.078125 11.03125 
Q 45.3125 15.671875 45.3125 23.6875 
L 45.3125 54.6875 
L 54.296875 54.6875 
L 54.296875 0 
L 45.3125 0 
L 45.3125 8.40625 
Q 42.046875 3.421875 37.71875 1 
Q 33.40625 -1.421875 27.6875 -1.421875 
Q 18.265625 -1.421875 13.375 4.4375 
Q 8.5 10.296875 8.5 21.578125 
z
M 31.109375 56 
z
" id="DejaVuSans-75"/>
      <path d="M 54.890625 33.015625 
L 54.890625 0 
L 45.90625 0 
L 45.90625 32.71875 
Q 45.90625 40.484375 42.875 44.328125 
Q 39.84375 48.1875 33.796875 48.1875 
Q 26.515625 48.1875 22.3125 43.546875 
Q 18.109375 38.921875 18.109375 30.90625 
L 18.109375 0 
L 9.078125 0 
L 9.078125 54.6875 
L 18.109375 54.6875 
L 18.109375 46.1875 
Q 21.34375 51.125 25.703125 53.5625 
Q 30.078125 56 35.796875 56 
Q 45.21875 56 50.046875 50.171875 
Q 54.890625 44.34375 54.890625 33.015625 
z
" id="DejaVuSans-6e"/>
      <path d="M 18.3125 70.21875 
L 18.3125 54.6875 
L 36.8125 54.6875 
L 36.8125 47.703125 
L 18.3125 47.703125 
L 18.3125 18.015625 
Q 18.3125 11.328125 20.140625 9.421875 
Q 21.96875 7.515625 27.59375 7.515625 
L 36.8125 7.515625 
L 36.8125 0 
L 27.59375 0 
Q 17.1875 0 13.234375 3.875 
Q 9.28125 7.765625 9.28125 18.015625 
L 9.28125 47.703125 
L 2.6875 47.703125 
L 2.6875 54.6875 
L 9.28125 54.6875 
L 9.28125 70.21875 
z
" id="DejaVuSans-74"/>
      <path d="M 44.28125 53.078125 
L 44.28125 44.578125 
Q 40.484375 46.53125 36.375 47.5 
Q 32.28125 48.484375 27.875 48.484375 
Q 21.1875 48.484375 17.84375 46.4375 
Q 14.5 44.390625 14.5 40.28125 
Q 14.5 37.15625 16.890625 35.375 
Q 19.28125 33.59375 26.515625 31.984375 
L 29.59375 31.296875 
Q 39.15625 29.25 43.1875 25.515625 
Q 47.21875 21.78125 47.21875 15.09375 
Q 47.21875 7.46875 41.1875 3.015625 
Q 35.15625 -1.421875 24.609375 -1.421875 
Q 20.21875 -1.421875 15.453125 -0.5625 
Q 10.6875 0.296875 5.421875 2 
L 5.421875 11.28125 
Q 10.40625 8.6875 15.234375 7.390625 
Q 20.0625 6.109375 24.8125 6.109375 
Q 31.15625 6.109375 34.5625 8.28125 
Q 37.984375 10.453125 37.984375 14.40625 
Q 37.984375 18.0625 35.515625 20.015625 
Q 33.0625 21.96875 24.703125 23.78125 
L 21.578125 24.515625 
Q 13.234375 26.265625 9.515625 29.90625 
Q 5.8125 33.546875 5.8125 39.890625 
Q 5.8125 47.609375 11.28125 51.796875 
Q 16.75 56 26.8125 56 
Q 31.78125 56 36.171875 55.265625 
Q 40.578125 54.546875 44.28125 53.078125 
z
" id="DejaVuSans-73"/>
      <path d="M 31 75.875 
Q 24.46875 64.65625 21.28125 53.65625 
Q 18.109375 42.671875 18.109375 31.390625 
Q 18.109375 20.125 21.3125 9.0625 
Q 24.515625 -2 31 -13.1875 
L 23.1875 -13.1875 
Q 15.875 -1.703125 12.234375 9.375 
Q 8.59375 20.453125 8.59375 31.390625 
Q 8.59375 42.28125 12.203125 53.3125 
Q 15.828125 64.359375 23.1875 75.875 
z
" id="DejaVuSans-28"/>
      <path d="M 64.40625 67.28125 
L 64.40625 56.890625 
Q 59.421875 61.53125 53.78125 63.8125 
Q 48.140625 66.109375 41.796875 66.109375 
Q 29.296875 66.109375 22.65625 58.46875 
Q 16.015625 50.828125 16.015625 36.375 
Q 16.015625 21.96875 22.65625 14.328125 
Q 29.296875 6.6875 41.796875 6.6875 
Q 48.140625 6.6875 53.78125 8.984375 
Q 59.421875 11.28125 64.40625 15.921875 
L 64.40625 5.609375 
Q 59.234375 2.09375 53.4375 0.328125 
Q 47.65625 -1.421875 41.21875 -1.421875 
Q 24.65625 -1.421875 15.125 8.703125 
Q 5.609375 18.84375 5.609375 36.375 
Q 5.609375 53.953125 15.125 64.078125 
Q 24.65625 74.21875 41.21875 74.21875 
Q 47.75 74.21875 53.53125 72.484375 
Q 59.328125 70.75 64.40625 67.28125 
z
" id="DejaVuSans-43"/>
      <path d="M 41.109375 46.296875 
Q 39.59375 47.171875 37.8125 47.578125 
Q 36.03125 48 33.890625 48 
Q 26.265625 48 22.1875 43.046875 
Q 18.109375 38.09375 18.109375 28.8125 
L 18.109375 0 
L 9.078125 0 
L 9.078125 54.6875 
L 18.109375 54.6875 
L 18.109375 46.1875 
Q 20.953125 51.171875 25.484375 53.578125 
Q 30.03125 56 36.53125 56 
Q 37.453125 56 38.578125 55.875 
Q 39.703125 55.765625 41.0625 55.515625 
z
" id="DejaVuSans-72"/>
      <path d="M 8.015625 75.875 
L 15.828125 75.875 
Q 23.140625 64.359375 26.78125 53.3125 
Q 30.421875 42.28125 30.421875 31.390625 
Q 30.421875 20.453125 26.78125 9.375 
Q 23.140625 -1.703125 15.828125 -13.1875 
L 8.015625 -13.1875 
Q 14.5 -2 17.703125 9.0625 
Q 20.90625 20.125 20.90625 31.390625 
Q 20.90625 42.671875 17.703125 53.65625 
Q 14.5 64.65625 8.015625 75.875 
z
" id="DejaVuSans-29"/>
     </defs>
     <g transform="translate(83.294531 253.004219)scale(0.11 -0.11)">
      <use xlink:href="#DejaVuSans-6c"/>
      <use x="27.783203" xlink:href="#DejaVuSans-6f"/>
      <use x="88.964844" xlink:href="#DejaVuSans-67"/>
      <use x="152.441406" xlink:href="#DejaVuSans-31"/>
      <use x="216.064453" xlink:href="#DejaVuSans-30"/>
      <use x="279.6875" xlink:href="#DejaVuSans-20"/>
      <use x="311.474609" xlink:href="#DejaVuSans-63"/>
      <use x="366.455078" xlink:href="#DejaVuSans-6f"/>
      <use x="427.636719" xlink:href="#DejaVuSans-75"/>
      <use x="491.015625" xlink:href="#DejaVuSans-6e"/>
      <use x="554.394531" xlink:href="#DejaVuSans-74"/>
      <use x="593.603516" xlink:href="#DejaVuSans-73"/>
      <use x="645.703125" xlink:href="#DejaVuSans-20"/>
      <use x="677.490234" xlink:href="#DejaVuSans-28"/>
      <use x="716.503906" xlink:href="#DejaVuSans-43"/>
      <use x="786.328125" xlink:href="#DejaVuSans-6f"/>
      <use x="847.509766" xlink:href="#DejaVuSans-6e"/>
      <use x="910.888672" xlink:href="#DejaVuSans-74"/>
      <use x="950.097656" xlink:href="#DejaVuSans-72"/>
      <use x="991.179688" xlink:href="#DejaVuSans-6f"/>
      <use x="1052.361328" xlink:href="#DejaVuSans-6c"/>
      <use x="1080.144531" xlink:href="#DejaVuSans-29"/>
     </g>
    </g>
   </g>
   <g id="matplotlib.axis_2">
    <g id="ytick_1">
     <g id="line2d_7">
      <defs>
       <path d="M 0 0 
L -3.5 0 
" id="m78132154da" style="stroke:#262626;stroke-width:0.8;"/>
      </defs>
      <g>
       <use style="fill:#262626;stroke:#262626;stroke-width:0.8;" x="51.01625" xlink:href="#m78132154da" y="208.365926"/>
      </g>
     </g>
     <g id="line2d_8">
      <defs>
       <path d="M 0 0 
L 3.5 0 
" id="mcda1f91b8f" style="stroke:#262626;stroke-width:0.8;"/>
      </defs>
      <g>
       <use style="fill:#262626;stroke:#262626;stroke-width:0.8;" x="238.68" xlink:href="#mcda1f91b8f" y="208.365926"/>
      </g>
     </g>
     <g id="text_5">
      <!-- 0.0 -->
      <g style="fill:#262626;" transform="translate(26.522813 212.545067)scale(0.11 -0.11)">
       <use xlink:href="#DejaVuSans-30"/>
       <use x="63.623047" xlink:href="#DejaVuSans-2e"/>
       <use x="95.410156" xlink:href="#DejaVuSans-30"/>
      </g>
     </g>
    </g>
    <g id="ytick_2">
     <g id="line2d_9">
      <g>
       <use style="fill:#262626;stroke:#262626;stroke-width:0.8;" x="51.01625" xlink:href="#m78132154da" y="165.743312"/>
      </g>
     </g>
     <g id="line2d_10">
      <g>
       <use style="fill:#262626;stroke:#262626;stroke-width:0.8;" x="238.68" xlink:href="#mcda1f91b8f" y="165.743312"/>
      </g>
     </g>
     <g id="text_6">
      <!-- 1.0 -->
      <g style="fill:#262626;" transform="translate(26.522813 169.922453)scale(0.11 -0.11)">
       <use xlink:href="#DejaVuSans-31"/>
       <use x="63.623047" xlink:href="#DejaVuSans-2e"/>
       <use x="95.410156" xlink:href="#DejaVuSans-30"/>
      </g>
     </g>
    </g>
    <g id="ytick_3">
     <g id="line2d_11">
      <g>
       <use style="fill:#262626;stroke:#262626;stroke-width:0.8;" x="51.01625" xlink:href="#m78132154da" y="123.120698"/>
      </g>
     </g>
     <g id="line2d_12">
      <g>
       <use style="fill:#262626;stroke:#262626;stroke-width:0.8;" x="238.68" xlink:href="#mcda1f91b8f" y="123.120698"/>
      </g>
     </g>
     <g id="text_7">
      <!-- 2.0 -->
      <g style="fill:#262626;" transform="translate(26.522813 127.299839)scale(0.11 -0.11)">
       <use xlink:href="#DejaVuSans-32"/>
       <use x="63.623047" xlink:href="#DejaVuSans-2e"/>
       <use x="95.410156" xlink:href="#DejaVuSans-30"/>
      </g>
     </g>
    </g>
    <g id="ytick_4">
     <g id="line2d_13">
      <g>
       <use style="fill:#262626;stroke:#262626;stroke-width:0.8;" x="51.01625" xlink:href="#m78132154da" y="80.498085"/>
      </g>
     </g>
     <g id="line2d_14">
      <g>
       <use style="fill:#262626;stroke:#262626;stroke-width:0.8;" x="238.68" xlink:href="#mcda1f91b8f" y="80.498085"/>
      </g>
     </g>
     <g id="text_8">
      <!-- 3.0 -->
      <defs>
       <path d="M 40.578125 39.3125 
Q 47.65625 37.796875 51.625 33 
Q 55.609375 28.21875 55.609375 21.1875 
Q 55.609375 10.40625 48.1875 4.484375 
Q 40.765625 -1.421875 27.09375 -1.421875 
Q 22.515625 -1.421875 17.65625 -0.515625 
Q 12.796875 0.390625 7.625 2.203125 
L 7.625 11.71875 
Q 11.71875 9.328125 16.59375 8.109375 
Q 21.484375 6.890625 26.8125 6.890625 
Q 36.078125 6.890625 40.9375 10.546875 
Q 45.796875 14.203125 45.796875 21.1875 
Q 45.796875 27.640625 41.28125 31.265625 
Q 36.765625 34.90625 28.71875 34.90625 
L 20.21875 34.90625 
L 20.21875 43.015625 
L 29.109375 43.015625 
Q 36.375 43.015625 40.234375 45.921875 
Q 44.09375 48.828125 44.09375 54.296875 
Q 44.09375 59.90625 40.109375 62.90625 
Q 36.140625 65.921875 28.71875 65.921875 
Q 24.65625 65.921875 20.015625 65.03125 
Q 15.375 64.15625 9.8125 62.3125 
L 9.8125 71.09375 
Q 15.4375 72.65625 20.34375 73.4375 
Q 25.25 74.21875 29.59375 74.21875 
Q 40.828125 74.21875 47.359375 69.109375 
Q 53.90625 64.015625 53.90625 55.328125 
Q 53.90625 49.265625 50.4375 45.09375 
Q 46.96875 40.921875 40.578125 39.3125 
z
" id="DejaVuSans-33"/>
      </defs>
      <g style="fill:#262626;" transform="translate(26.522813 84.677225)scale(0.11 -0.11)">
       <use xlink:href="#DejaVuSans-33"/>
       <use x="63.623047" xlink:href="#DejaVuSans-2e"/>
       <use x="95.410156" xlink:href="#DejaVuSans-30"/>
      </g>
     </g>
    </g>
    <g id="ytick_5">
     <g id="line2d_15">
      <g>
       <use style="fill:#262626;stroke:#262626;stroke-width:0.8;" x="51.01625" xlink:href="#m78132154da" y="37.875471"/>
      </g>
     </g>
     <g id="line2d_16">
      <g>
       <use style="fill:#262626;stroke:#262626;stroke-width:0.8;" x="238.68" xlink:href="#mcda1f91b8f" y="37.875471"/>
      </g>
     </g>
     <g id="text_9">
      <!-- 4.0 -->
      <defs>
       <path d="M 37.796875 64.3125 
L 12.890625 25.390625 
L 37.796875 25.390625 
z
M 35.203125 72.90625 
L 47.609375 72.90625 
L 47.609375 25.390625 
L 58.015625 25.390625 
L 58.015625 17.1875 
L 47.609375 17.1875 
L 47.609375 0 
L 37.796875 0 
L 37.796875 17.1875 
L 4.890625 17.1875 
L 4.890625 26.703125 
z
" id="DejaVuSans-34"/>
      </defs>
      <g style="fill:#262626;" transform="translate(26.522813 42.054611)scale(0.11 -0.11)">
       <use xlink:href="#DejaVuSans-34"/>
       <use x="63.623047" xlink:href="#DejaVuSans-2e"/>
       <use x="95.410156" xlink:href="#DejaVuSans-30"/>
      </g>
     </g>
    </g>
    <g id="text_10">
     <!-- log10 counts (ToxA_1) -->
     <defs>
      <path d="M -0.296875 72.90625 
L 61.375 72.90625 
L 61.375 64.59375 
L 35.5 64.59375 
L 35.5 0 
L 25.59375 0 
L 25.59375 64.59375 
L -0.296875 64.59375 
z
" id="DejaVuSans-54"/>
      <path d="M 54.890625 54.6875 
L 35.109375 28.078125 
L 55.90625 0 
L 45.3125 0 
L 29.390625 21.484375 
L 13.484375 0 
L 2.875 0 
L 24.125 28.609375 
L 4.6875 54.6875 
L 15.28125 54.6875 
L 29.78125 35.203125 
L 44.28125 54.6875 
z
" id="DejaVuSans-78"/>
      <path d="M 34.1875 63.1875 
L 20.796875 26.90625 
L 47.609375 26.90625 
z
M 28.609375 72.90625 
L 39.796875 72.90625 
L 67.578125 0 
L 57.328125 0 
L 50.6875 18.703125 
L 17.828125 18.703125 
L 11.1875 0 
L 0.78125 0 
z
" id="DejaVuSans-41"/>
      <path d="M 50.984375 -16.609375 
L 50.984375 -23.578125 
L -0.984375 -23.578125 
L -0.984375 -16.609375 
z
" id="DejaVuSans-5f"/>
     </defs>
     <g transform="translate(19.929219 185.747813)rotate(-90)scale(0.11 -0.11)">
      <use xlink:href="#DejaVuSans-6c"/>
      <use x="27.783203" xlink:href="#DejaVuSans-6f"/>
      <use x="88.964844" xlink:href="#DejaVuSans-67"/>
      <use x="152.441406" xlink:href="#DejaVuSans-31"/>
      <use x="216.064453" xlink:href="#DejaVuSans-30"/>
      <use x="279.6875" xlink:href="#DejaVuSans-20"/>
      <use x="311.474609" xlink:href="#DejaVuSans-63"/>
      <use x="366.455078" xlink:href="#DejaVuSans-6f"/>
      <use x="427.636719" xlink:href="#DejaVuSans-75"/>
      <use x="491.015625" xlink:href="#DejaVuSans-6e"/>
      <use x="554.394531" xlink:href="#DejaVuSans-74"/>
      <use x="593.603516" xlink:href="#DejaVuSans-73"/>
      <use x="645.703125" xlink:href="#DejaVuSans-20"/>
      <use x="677.490234" xlink:href="#DejaVuSans-28"/>
      <use x="716.503906" xlink:href="#DejaVuSans-54"/>
      <use x="777.322266" xlink:href="#DejaVuSans-6f"/>
      <use x="838.457031" xlink:href="#DejaVuSans-78"/>
      <use x="897.636719" xlink:href="#DejaVuSans-41"/>
      <use x="966.044922" xlink:href="#DejaVuSans-5f"/>
      <use x="1016.044922" xlink:href="#DejaVuSans-31"/>
      <use x="1079.667969" xlink:href="#DejaVuSans-29"/>
     </g>
    </g>
   </g>
   <g id="line2d_17">
    <path clip-path="url(#p024e384a0f)" d="M 51.01625 218.257739 
L 238.68 104.501891 
" style="fill:none;opacity:0.75;stroke:#3399ff;stroke-dasharray:5.55,2.4;stroke-dashoffset:0;stroke-width:1.5;"/>
   </g>
   <g id="patch_3">
    <path d="M 51.01625 223 
L 51.01625 25.44 
" style="fill:none;stroke:#000000;stroke-linecap:square;stroke-linejoin:miter;stroke-width:0.8;"/>
   </g>
   <g id="patch_4">
    <path d="M 238.68 223 
L 238.68 25.44 
" style="fill:none;stroke:#000000;stroke-linecap:square;stroke-linejoin:miter;stroke-width:0.8;"/>
   </g>
   <g id="patch_5">
    <path d="M 51.01625 223 
L 238.68 223 
" style="fill:none;stroke:#000000;stroke-linecap:square;stroke-linejoin:miter;stroke-width:0.8;"/>
   </g>
   <g id="patch_6">
    <path d="M 51.01625 25.44 
L 238.68 25.44 
" style="fill:none;stroke:#000000;stroke-linecap:square;stroke-linejoin:miter;stroke-width:0.8;"/>
   </g>
   <g id="text_11">
    <!-- sgRNA Density -->
    <defs>
     <path d="M 44.390625 34.1875 
Q 47.5625 33.109375 50.5625 29.59375 
Q 53.5625 26.078125 56.59375 19.921875 
L 66.609375 0 
L 56 0 
L 46.6875 18.703125 
Q 43.0625 26.03125 39.671875 28.421875 
Q 36.28125 30.8125 30.421875 30.8125 
L 19.671875 30.8125 
L 19.671875 0 
L 9.8125 0 
L 9.8125 72.90625 
L 32.078125 72.90625 
Q 44.578125 72.90625 50.734375 67.671875 
Q 56.890625 62.453125 56.890625 51.90625 
Q 56.890625 45.015625 53.6875 40.46875 
Q 50.484375 35.9375 44.390625 34.1875 
z
M 19.671875 64.796875 
L 19.671875 38.921875 
L 32.078125 38.921875 
Q 39.203125 38.921875 42.84375 42.21875 
Q 46.484375 45.515625 46.484375 51.90625 
Q 46.484375 58.296875 42.84375 61.546875 
Q 39.203125 64.796875 32.078125 64.796875 
z
" id="DejaVuSans-52"/>
     <path d="M 9.8125 72.90625 
L 23.09375 72.90625 
L 55.421875 11.921875 
L 55.421875 72.90625 
L 64.984375 72.90625 
L 64.984375 0 
L 51.703125 0 
L 19.390625 60.984375 
L 19.390625 0 
L 9.8125 0 
z
" id="DejaVuSans-4e"/>
     <path d="M 19.671875 64.796875 
L 19.671875 8.109375 
L 31.59375 8.109375 
Q 46.6875 8.109375 53.6875 14.9375 
Q 60.6875 21.78125 60.6875 36.53125 
Q 60.6875 51.171875 53.6875 57.984375 
Q 46.6875 64.796875 31.59375 64.796875 
z
M 9.8125 72.90625 
L 30.078125 72.90625 
Q 51.265625 72.90625 61.171875 64.09375 
Q 71.09375 55.28125 71.09375 36.53125 
Q 71.09375 17.671875 61.125 8.828125 
Q 51.171875 0 30.078125 0 
L 9.8125 0 
z
" id="DejaVuSans-44"/>
     <path d="M 56.203125 29.59375 
L 56.203125 25.203125 
L 14.890625 25.203125 
Q 15.484375 15.921875 20.484375 11.0625 
Q 25.484375 6.203125 34.421875 6.203125 
Q 39.59375 6.203125 44.453125 7.46875 
Q 49.3125 8.734375 54.109375 11.28125 
L 54.109375 2.78125 
Q 49.265625 0.734375 44.1875 -0.34375 
Q 39.109375 -1.421875 33.890625 -1.421875 
Q 20.796875 -1.421875 13.15625 6.1875 
Q 5.515625 13.8125 5.515625 26.8125 
Q 5.515625 40.234375 12.765625 48.109375 
Q 20.015625 56 32.328125 56 
Q 43.359375 56 49.78125 48.890625 
Q 56.203125 41.796875 56.203125 29.59375 
z
M 47.21875 32.234375 
Q 47.125 39.59375 43.09375 43.984375 
Q 39.0625 48.390625 32.421875 48.390625 
Q 24.90625 48.390625 20.390625 44.140625 
Q 15.875 39.890625 15.1875 32.171875 
z
" id="DejaVuSans-65"/>
     <path d="M 9.421875 54.6875 
L 18.40625 54.6875 
L 18.40625 0 
L 9.421875 0 
z
M 9.421875 75.984375 
L 18.40625 75.984375 
L 18.40625 64.59375 
L 9.421875 64.59375 
z
" id="DejaVuSans-69"/>
     <path d="M 32.171875 -5.078125 
Q 28.375 -14.84375 24.75 -17.8125 
Q 21.140625 -20.796875 15.09375 -20.796875 
L 7.90625 -20.796875 
L 7.90625 -13.28125 
L 13.1875 -13.28125 
Q 16.890625 -13.28125 18.9375 -11.515625 
Q 21 -9.765625 23.484375 -3.21875 
L 25.09375 0.875 
L 2.984375 54.6875 
L 12.5 54.6875 
L 29.59375 11.921875 
L 46.6875 54.6875 
L 56.203125 54.6875 
z
" id="DejaVuSans-79"/>
    </defs>
    <g transform="translate(100.434063 19.44)scale(0.12 -0.12)">
     <use xlink:href="#DejaVuSans-73"/>
     <use x="52.099609" xlink:href="#DejaVuSans-67"/>
     <use x="115.576172" xlink:href="#DejaVuSans-52"/>
     <use x="185.058594" xlink:href="#DejaVuSans-4e"/>
     <use x="259.863281" xlink:href="#DejaVuSans-41"/>
     <use x="328.271484" xlink:href="#DejaVuSans-20"/>
     <use x="360.058594" xlink:href="#DejaVuSans-44"/>
     <use x="437.060547" xlink:href="#DejaVuSans-65"/>
     <use x="498.583984" xlink:href="#DejaVuSans-6e"/>
     <use x="561.962891" xlink:href="#DejaVuSans-73"/>
     <use x="614.0625" xlink:href="#DejaVuSans-69"/>
     <use x="641.845703" xlink:href="#DejaVuSans-74"/>
     <use x="681.054688" xlink:href="#DejaVuSans-79"/>
    </g>
   </g>
  </g>
 </g>
 <defs>
  <clipPath id="p024e384a0f">
   <rect height="197.56" width="187.66375" x="51.01625" y="25.44"/>
  </clipPath>
 </defs>
</svg>
