<?xml version="1.0" encoding="utf-8" standalone="no"?>
<!DOCTYPE svg PUBLIC "-//W3C//DTD SVG 1.1//EN"
  "http://www.w3.org/Graphics/SVG/1.1/DTD/svg11.dtd">
<!-- Created with matplotlib (http://matplotlib.org/) -->
<svg height="266pt" version="1.1" viewBox="0 0 252 266" width="252pt" xmlns="http://www.w3.org/2000/svg" xmlns:xlink="http://www.w3.org/1999/xlink">
 <defs>
  <style type="text/css">
*{stroke-linecap:butt;stroke-linejoin:round;}
  </style>
 </defs>
 <g id="figure_1">
  <g id="patch_1">
   <path d="M 0 266.4 
L 252 266.4 
L 252 0 
L 0 0 
z
" style="fill:#ffffff;"/>
  </g>
  <g id="axes_1">
   <g id="patch_2">
    <path d="M 51.01625 223 
L 238.68 223 
L 238.68 25.44 
L 51.01625 25.44 
z
" style="fill:#ffffff;"/>
   </g>
   <g id="PathCollection_1">
    <path clip-path="url(#pd5cc0320df)" d="M 37.884482 227.98876 
L 40.174034 227.98876 
L 42.463586 227.98876 
L 44.753139 227.98876 
L 47.042691 227.98876 
L 49.332243 227.98876 
L 51.621796 227.98876 
L 53.911348 227.98876 
L 56.200901 227.98876 
L 58.490453 227.98876 
L 60.780005 227.98876 
L 63.069558 227.98876 
L 65.35911 227.98876 
L 67.648662 227.98876 
L 69.938215 227.98876 
L 72.227767 227.98876 
L 74.51732 227.98876 
L 76.806872 227.98876 
L 79.096424 227.98876 
L 81.385977 227.98876 
L 83.675529 227.98876 
L 85.965081 227.98876 
L 88.254634 227.98876 
L 90.544186 227.98876 
L 92.833739 227.98876 
L 95.123291 227.98876 
L 97.412843 227.98876 
L 99.702396 227.98876 
L 101.991948 227.98876 
L 104.2815 227.98876 
L 106.571053 227.98876 
L 108.860605 227.98876 
L 111.150158 227.98876 
L 113.43971 227.98876 
L 115.729262 227.98876 
L 118.018815 227.98876 
L 120.308367 227.98876 
L 122.597919 227.98876 
L 124.887472 227.98876 
L 127.177024 227.98876 
L 129.466577 227.98876 
L 131.756129 227.98876 
L 134.045681 227.98876 
L 136.335234 227.98876 
L 138.624786 227.98876 
L 140.914338 227.98876 
L 143.203891 227.98876 
L 145.493443 227.98876 
L 147.782996 227.98876 
L 150.072548 227.98876 
L 152.3621 227.98876 
L 154.651653 227.98876 
L 156.941205 227.98876 
L 159.230757 227.98876 
L 161.52031 227.98876 
L 163.809862 227.98876 
L 166.099415 227.98876 
L 168.388967 227.98876 
L 170.678519 227.98876 
L 172.968072 227.98876 
L 175.257624 227.98876 
L 177.547176 227.98876 
L 179.836729 227.98876 
L 182.126281 227.98876 
L 184.415834 227.98876 
L 186.705386 227.98876 
L 188.994938 227.98876 
L 191.284491 227.98876 
L 193.574043 227.98876 
L 195.863595 227.98876 
L 198.153148 227.98876 
L 200.4427 227.98876 
L 202.732253 227.98876 
L 205.021805 227.98876 
L 207.311357 227.98876 
L 209.60091 227.98876 
L 211.890462 227.98876 
L 214.180014 227.98876 
L 216.469567 227.98876 
L 218.759119 227.98876 
L 221.048672 227.98876 
L 223.338224 227.98876 
L 225.627776 227.98876 
L 227.917329 227.98876 
L 230.206881 227.98876 
L 232.496433 227.98876 
L 234.785986 227.98876 
L 237.075538 227.98876 
L 239.365091 227.98876 
L 241.654643 227.98876 
L 243.944195 227.98876 
L 246.233748 227.98876 
L 248.5233 227.98876 
L 250.812852 227.98876 
L 253.102405 227.98876 
L 255.391957 227.98876 
L 257.68151 227.98876 
L 259.971062 227.98876 
L 262.260614 227.98876 
L 262.260614 226.114149 
L 262.260614 224.239539 
L 262.260614 222.364929 
L 262.260614 220.490319 
L 262.260614 218.615709 
L 262.260614 216.741099 
L 262.260614 214.866488 
L 262.260614 212.991878 
L 262.260614 211.117268 
L 262.260614 209.242658 
L 262.260614 207.368048 
L 262.260614 205.493437 
L 262.260614 203.618827 
L 262.260614 201.744217 
L 262.260614 199.869607 
L 262.260614 197.994997 
L 262.260614 196.120387 
L 262.260614 194.245776 
L 262.260614 192.371166 
L 262.260614 190.496556 
L 262.260614 188.621946 
L 262.260614 186.747336 
L 262.260614 184.872725 
L 262.260614 182.998115 
L 262.260614 181.123505 
L 262.260614 179.248895 
L 262.260614 177.374285 
L 262.260614 175.499674 
L 262.260614 173.625064 
L 262.260614 171.750454 
L 262.260614 169.875844 
L 262.260614 168.001234 
L 262.260614 166.126624 
L 262.260614 164.252013 
L 262.260614 162.377403 
L 262.260614 160.502793 
L 262.260614 158.628183 
L 262.260614 156.753573 
L 262.260614 154.878962 
L 262.260614 153.004352 
L 262.260614 151.129742 
L 262.260614 149.255132 
L 262.260614 147.380522 
L 262.260614 145.505912 
L 262.260614 143.631301 
L 262.260614 141.756691 
L 262.260614 139.882081 
L 262.260614 138.007471 
L 262.260614 136.132861 
L 262.260614 134.25825 
L 262.260614 132.38364 
L 262.260614 130.50903 
L 262.260614 128.63442 
L 262.260614 126.75981 
L 262.260614 124.8852 
L 262.260614 123.010589 
L 262.260614 121.135979 
L 262.260614 119.261369 
L 262.260614 117.386759 
L 262.260614 115.512149 
L 262.260614 113.637538 
L 262.260614 111.762928 
L 262.260614 109.888318 
L 262.260614 108.013708 
L 262.260614 106.139098 
L 262.260614 104.264488 
L 262.260614 102.389877 
L 262.260614 100.515267 
L 262.260614 98.640657 
L 262.260614 96.766047 
L 262.260614 94.891437 
L 262.260614 93.016826 
L 262.260614 91.142216 
L 262.260614 89.267606 
L 262.260614 87.392996 
L 262.260614 85.518386 
L 262.260614 83.643776 
L 262.260614 81.769165 
L 262.260614 79.894555 
L 262.260614 78.019945 
L 262.260614 76.145335 
L 262.260614 74.270725 
L 262.260614 72.396114 
L 262.260614 70.521504 
L 262.260614 68.646894 
L 262.260614 66.772284 
L 262.260614 64.897674 
L 262.260614 63.023064 
L 262.260614 61.148453 
L 262.260614 59.273843 
L 262.260614 57.399233 
L 262.260614 55.524623 
L 262.260614 53.650013 
L 262.260614 51.775402 
L 262.260614 49.900792 
L 262.260614 48.026182 
L 262.260614 46.151572 
L 262.260614 44.276962 
L 262.260614 42.402351 
L 259.971062 42.402351 
L 257.68151 42.402351 
L 255.391957 42.402351 
L 253.102405 42.402351 
L 250.812852 42.402351 
L 248.5233 42.402351 
L 246.233748 42.402351 
L 243.944195 42.402351 
L 241.654643 42.402351 
L 239.365091 42.402351 
L 237.075538 42.402351 
L 234.785986 42.402351 
L 232.496433 42.402351 
L 230.206881 42.402351 
L 227.917329 42.402351 
L 225.627776 42.402351 
L 223.338224 42.402351 
L 221.048672 42.402351 
L 218.759119 42.402351 
L 216.469567 42.402351 
L 214.180014 42.402351 
L 211.890462 42.402351 
L 209.60091 42.402351 
L 207.311357 42.402351 
L 205.021805 42.402351 
L 202.732253 42.402351 
L 200.4427 42.402351 
L 198.153148 42.402351 
L 195.863595 42.402351 
L 193.574043 42.402351 
L 191.284491 42.402351 
L 188.994938 42.402351 
L 186.705386 42.402351 
L 184.415834 42.402351 
L 182.126281 42.402351 
L 179.836729 42.402351 
L 177.547176 42.402351 
L 175.257624 42.402351 
L 172.968072 42.402351 
L 170.678519 42.402351 
L 168.388967 42.402351 
L 166.099415 42.402351 
L 163.809862 42.402351 
L 161.52031 42.402351 
L 159.230757 42.402351 
L 156.941205 42.402351 
L 154.651653 42.402351 
L 152.3621 42.402351 
L 150.072548 42.402351 
L 147.782996 42.402351 
L 145.493443 42.402351 
L 143.203891 42.402351 
L 140.914338 42.402351 
L 138.624786 42.402351 
L 136.335234 42.402351 
L 134.045681 42.402351 
L 131.756129 42.402351 
L 129.466577 42.402351 
L 127.177024 42.402351 
L 124.887472 42.402351 
L 122.597919 42.402351 
L 120.308367 42.402351 
L 118.018815 42.402351 
L 115.729262 42.402351 
L 113.43971 42.402351 
L 111.150158 42.402351 
L 108.860605 42.402351 
L 106.571053 42.402351 
L 104.2815 42.402351 
L 101.991948 42.402351 
L 99.702396 42.402351 
L 97.412843 42.402351 
L 95.123291 42.402351 
L 92.833739 42.402351 
L 90.544186 42.402351 
L 88.254634 42.402351 
L 85.965081 42.402351 
L 83.675529 42.402351 
L 81.385977 42.402351 
L 79.096424 42.402351 
L 76.806872 42.402351 
L 74.51732 42.402351 
L 72.227767 42.402351 
L 69.938215 42.402351 
L 67.648662 42.402351 
L 65.35911 42.402351 
L 63.069558 42.402351 
L 60.780005 42.402351 
L 58.490453 42.402351 
L 56.200901 42.402351 
L 53.911348 42.402351 
L 51.621796 42.402351 
L 49.332243 42.402351 
L 47.042691 42.402351 
L 44.753139 42.402351 
L 42.463586 42.402351 
L 40.174034 42.402351 
L 37.884482 42.402351 
L 35.594929 42.402351 
L 35.594929 44.276962 
L 35.594929 46.151572 
L 35.594929 48.026182 
L 35.594929 49.900792 
L 35.594929 51.775402 
L 35.594929 53.650013 
L 35.594929 55.524623 
L 35.594929 57.399233 
L 35.594929 59.273843 
L 35.594929 61.148453 
L 35.594929 63.023064 
L 35.594929 64.897674 
L 35.594929 66.772284 
L 35.594929 68.646894 
L 35.594929 70.521504 
L 35.594929 72.396114 
L 35.594929 74.270725 
L 35.594929 76.145335 
L 35.594929 78.019945 
L 35.594929 79.894555 
L 35.594929 81.769165 
L 35.594929 83.643776 
L 35.594929 85.518386 
L 35.594929 87.392996 
L 35.594929 89.267606 
L 35.594929 91.142216 
L 35.594929 93.016826 
L 35.594929 94.891437 
L 35.594929 96.766047 
L 35.594929 98.640657 
L 35.594929 100.515267 
L 35.594929 102.389877 
L 35.594929 104.264488 
L 35.594929 106.139098 
L 35.594929 108.013708 
L 35.594929 109.888318 
L 35.594929 111.762928 
L 35.594929 113.637538 
L 35.594929 115.512149 
L 35.594929 117.386759 
L 35.594929 119.261369 
L 35.594929 121.135979 
L 35.594929 123.010589 
L 35.594929 124.8852 
L 35.594929 126.75981 
L 35.594929 128.63442 
L 35.594929 130.50903 
L 35.594929 132.38364 
L 35.594929 134.25825 
L 35.594929 136.132861 
L 35.594929 138.007471 
L 35.594929 139.882081 
L 35.594929 141.756691 
L 35.594929 143.631301 
L 35.594929 145.505912 
L 35.594929 147.380522 
L 35.594929 149.255132 
L 35.594929 151.129742 
L 35.594929 153.004352 
L 35.594929 154.878962 
L 35.594929 156.753573 
L 35.594929 158.628183 
L 35.594929 160.502793 
L 35.594929 162.377403 
L 35.594929 164.252013 
L 35.594929 166.126624 
L 35.594929 168.001234 
L 35.594929 169.875844 
L 35.594929 171.750454 
L 35.594929 173.625064 
L 35.594929 175.499674 
L 35.594929 177.374285 
L 35.594929 179.248895 
L 35.594929 181.123505 
L 35.594929 182.998115 
L 35.594929 184.872725 
L 35.594929 186.747336 
L 35.594929 188.621946 
L 35.594929 190.496556 
L 35.594929 192.371166 
L 35.594929 194.245776 
L 35.594929 196.120387 
L 35.594929 197.994997 
L 35.594929 199.869607 
L 35.594929 201.744217 
L 35.594929 203.618827 
L 35.594929 205.493437 
L 35.594929 207.368048 
L 35.594929 209.242658 
L 35.594929 211.117268 
L 35.594929 212.991878 
L 35.594929 214.866488 
L 35.594929 216.741099 
L 35.594929 218.615709 
L 35.594929 220.490319 
L 35.594929 222.364929 
L 35.594929 224.239539 
L 35.594929 226.114149 
L 35.594929 227.98876 
z
M 58.473251 220.490319 
L 56.200901 219.769183 
L 53.911348 218.66274 
L 53.827086 218.615709 
L 51.621796 217.329894 
L 50.808585 216.741099 
L 49.332243 215.421311 
L 48.756243 214.866488 
L 47.36492 212.991878 
L 47.042691 212.265965 
L 46.452509 211.117268 
L 45.99504 209.242658 
L 45.985392 207.368048 
L 46.41196 205.493437 
L 47.042691 204.187709 
L 47.277568 203.618827 
L 48.510161 201.744217 
L 49.332243 200.853448 
L 50.269528 199.869607 
L 51.621796 198.701949 
L 52.559937 197.994997 
L 53.911348 197.00691 
L 55.418677 196.120387 
L 56.200901 195.604314 
L 58.490453 194.408597 
L 58.892334 194.245776 
L 60.780005 193.23369 
L 63.069558 192.374029 
L 63.079828 192.371166 
L 65.35911 191.415783 
L 67.648662 190.787567 
L 69.367673 190.496556 
L 69.938215 190.340666 
L 72.227767 190.007924 
L 74.51732 189.907247 
L 76.806872 189.974766 
L 79.096424 190.15119 
L 81.385977 190.378957 
L 82.606615 190.496556 
L 83.675529 190.564539 
L 85.965081 190.679893 
L 88.254634 190.752117 
L 90.544186 190.776085 
L 92.833739 190.757639 
L 95.123291 190.709825 
L 97.412843 190.648604 
L 99.702396 190.589731 
L 101.991948 190.547323 
L 104.2815 190.533745 
L 106.571053 190.560207 
L 108.860605 190.637584 
L 111.150158 190.777179 
L 113.43971 190.991323 
L 115.729262 191.293859 
L 118.018815 191.700557 
L 120.308367 192.229557 
L 120.813688 192.371166 
L 122.597919 192.71317 
L 124.887472 193.254244 
L 127.177024 193.92158 
L 128.129752 194.245776 
L 129.466577 194.563355 
L 131.756129 195.203307 
L 134.045681 195.978342 
L 134.421835 196.120387 
L 136.335234 196.662334 
L 138.624786 197.436798 
L 140.042005 197.994997 
L 140.914338 198.281402 
L 143.203891 199.139549 
L 144.851091 199.869607 
L 145.493443 200.14145 
L 147.782996 201.232464 
L 148.729622 201.744217 
L 150.072548 202.565431 
L 151.61903 203.618827 
L 152.3621 204.33561 
L 153.51861 205.493437 
L 154.391758 207.368048 
L 154.25571 209.242658 
L 153.020491 211.117268 
L 152.3621 211.637394 
L 150.526631 212.991878 
L 150.072548 213.229945 
L 147.782996 214.333481 
L 146.505997 214.866488 
L 145.493443 215.236227 
L 143.203891 215.978573 
L 140.914338 216.592637 
L 140.298331 216.741099 
L 138.624786 217.158641 
L 136.335234 217.650573 
L 134.045681 218.063564 
L 131.756129 218.411768 
L 130.210168 218.615709 
L 129.466577 218.733816 
L 127.177024 219.059361 
L 124.887472 219.336133 
L 122.597919 219.571611 
L 120.308367 219.771863 
L 118.018815 219.941875 
L 115.729262 220.085804 
L 113.43971 220.207184 
L 111.150158 220.309086 
L 108.860605 220.394276 
L 106.571053 220.46537 
L 105.624618 220.490319 
L 104.2815 220.540715 
L 101.991948 220.614953 
L 99.702396 220.681763 
L 97.412843 220.747173 
L 95.123291 220.818377 
L 92.833739 220.903343 
L 90.544186 221.009631 
L 88.254634 221.142341 
L 85.965081 221.301718 
L 83.675529 221.481558 
L 81.385977 221.669564 
L 79.096424 221.849734 
L 76.806872 222.00555 
L 74.51732 222.122257 
L 72.227767 222.187313 
L 69.938215 222.189094 
L 67.648662 222.114382 
L 65.35911 221.944946 
L 63.069558 221.652924 
L 60.780005 221.19404 
L 58.490453 220.496684 
z
" style="fill:none;"/>
   </g>
   <g id="PathCollection_2">
    <path clip-path="url(#pd5cc0320df)" d="M 58.490453 220.496684 
L 60.780005 221.19404 
L 63.069558 221.652924 
L 65.35911 221.944946 
L 67.648662 222.114382 
L 69.938215 222.189094 
L 72.227767 222.187313 
L 74.51732 222.122257 
L 76.806872 222.00555 
L 79.096424 221.849734 
L 81.385977 221.669564 
L 83.675529 221.481558 
L 85.965081 221.301718 
L 88.254634 221.142341 
L 90.544186 221.009631 
L 92.833739 220.903343 
L 95.123291 220.818377 
L 97.412843 220.747173 
L 99.702396 220.681763 
L 101.991948 220.614953 
L 104.2815 220.540715 
L 105.624618 220.490319 
L 106.571053 220.46537 
L 108.860605 220.394276 
L 111.150158 220.309086 
L 113.43971 220.207184 
L 115.729262 220.085804 
L 118.018815 219.941875 
L 120.308367 219.771863 
L 122.597919 219.571611 
L 124.887472 219.336133 
L 127.177024 219.059361 
L 129.466577 218.733816 
L 130.210168 218.615709 
L 131.756129 218.411768 
L 134.045681 218.063564 
L 136.335234 217.650573 
L 138.624786 217.158641 
L 140.298331 216.741099 
L 140.914338 216.592637 
L 143.203891 215.978573 
L 145.493443 215.236227 
L 146.505997 214.866488 
L 147.782996 214.333481 
L 150.072548 213.229945 
L 150.526631 212.991878 
L 152.3621 211.637394 
L 153.020491 211.117268 
L 154.25571 209.242658 
L 154.391758 207.368048 
L 153.51861 205.493437 
L 152.3621 204.33561 
L 151.61903 203.618827 
L 150.072548 202.565431 
L 148.729622 201.744217 
L 147.782996 201.232464 
L 145.493443 200.14145 
L 144.851091 199.869607 
L 143.203891 199.139549 
L 140.914338 198.281402 
L 140.042005 197.994997 
L 138.624786 197.436798 
L 136.335234 196.662334 
L 134.421835 196.120387 
L 134.045681 195.978342 
L 131.756129 195.203307 
L 129.466577 194.563355 
L 128.129752 194.245776 
L 127.177024 193.92158 
L 124.887472 193.254244 
L 122.597919 192.71317 
L 120.813688 192.371166 
L 120.308367 192.229557 
L 118.018815 191.700557 
L 115.729262 191.293859 
L 113.43971 190.991323 
L 111.150158 190.777179 
L 108.860605 190.637584 
L 106.571053 190.560207 
L 104.2815 190.533745 
L 101.991948 190.547323 
L 99.702396 190.589731 
L 97.412843 190.648604 
L 95.123291 190.709825 
L 92.833739 190.757639 
L 90.544186 190.776085 
L 88.254634 190.752117 
L 85.965081 190.679893 
L 83.675529 190.564539 
L 82.606615 190.496556 
L 81.385977 190.378957 
L 79.096424 190.15119 
L 76.806872 189.974766 
L 74.51732 189.907247 
L 72.227767 190.007924 
L 69.938215 190.340666 
L 69.367673 190.496556 
L 67.648662 190.787567 
L 65.35911 191.415783 
L 63.079828 192.371166 
L 63.069558 192.374029 
L 60.780005 193.23369 
L 58.892334 194.245776 
L 58.490453 194.408597 
L 56.200901 195.604314 
L 55.418677 196.120387 
L 53.911348 197.00691 
L 52.559937 197.994997 
L 51.621796 198.701949 
L 50.269528 199.869607 
L 49.332243 200.853448 
L 48.510161 201.744217 
L 47.277568 203.618827 
L 47.042691 204.187709 
L 46.41196 205.493437 
L 45.985392 207.368048 
L 45.99504 209.242658 
L 46.452509 211.117268 
L 47.042691 212.265965 
L 47.36492 212.991878 
L 48.756243 214.866488 
L 49.332243 215.421311 
L 50.808585 216.741099 
L 51.621796 217.329894 
L 53.827086 218.615709 
L 53.911348 218.66274 
L 56.200901 219.769183 
L 58.473251 220.490319 
z
M 61.163286 218.615709 
L 60.780005 218.524716 
L 58.490453 217.786421 
L 56.31773 216.741099 
L 56.200901 216.680295 
L 53.911348 215.202746 
L 53.478538 214.866488 
L 51.692515 212.991878 
L 51.621796 212.874449 
L 50.532751 211.117268 
L 50.010542 209.242658 
L 49.999376 207.368048 
L 50.48586 205.493437 
L 51.57002 203.618827 
L 51.621796 203.555912 
L 53.158612 201.744217 
L 53.911348 201.085205 
L 55.530282 199.869607 
L 56.200901 199.416727 
L 58.490453 198.18327 
L 58.94672 197.994997 
L 60.780005 197.158905 
L 63.069558 196.435137 
L 64.53998 196.120387 
L 65.35911 195.888256 
L 67.648662 195.460839 
L 69.938215 195.232739 
L 72.227767 195.16156 
L 74.51732 195.216806 
L 76.806872 195.372833 
L 79.096424 195.603786 
L 81.385977 195.880863 
L 83.286237 196.120387 
L 83.675529 196.156398 
L 85.965081 196.346726 
L 88.254634 196.510951 
L 90.544186 196.641212 
L 92.833739 196.738123 
L 95.123291 196.808794 
L 97.412843 196.863747 
L 99.702396 196.914245 
L 101.991948 196.970735 
L 104.2815 197.042334 
L 106.571053 197.13697 
L 108.860605 197.261807 
L 111.150158 197.423719 
L 113.43971 197.629723 
L 115.729262 197.887351 
L 116.529059 197.994997 
L 118.018815 198.152561 
L 120.308367 198.442728 
L 122.597919 198.792851 
L 124.887472 199.212679 
L 127.177024 199.714055 
L 127.806643 199.869607 
L 129.466577 200.24201 
L 131.756129 200.841433 
L 134.045681 201.556279 
L 134.587419 201.744217 
L 136.335234 202.397921 
L 138.624786 203.403859 
L 139.068821 203.618827 
L 140.914338 204.830441 
L 141.829296 205.493437 
L 143.082564 207.368048 
L 142.915416 209.242658 
L 141.217052 211.117268 
L 140.914338 211.295339 
L 138.624786 212.535039 
L 137.671641 212.991878 
L 136.335234 213.469548 
L 134.045681 214.186767 
L 131.756129 214.79161 
L 131.442951 214.866488 
L 129.466577 215.302785 
L 127.177024 215.736496 
L 124.887472 216.105251 
L 122.597919 216.419007 
L 120.308367 216.685842 
L 119.769645 216.741099 
L 118.018815 216.938542 
L 115.729262 217.159615 
L 113.43971 217.346047 
L 111.150158 217.50256 
L 108.860605 217.633398 
L 106.571053 217.742581 
L 104.2815 217.834182 
L 101.991948 217.912673 
L 99.702396 217.98331 
L 97.412843 218.052467 
L 95.123291 218.127755 
L 92.833739 218.217606 
L 90.544186 218.330022 
L 88.254634 218.470403 
L 86.293912 218.615709 
L 85.965081 218.646039 
L 83.675529 218.893664 
L 81.385977 219.152544 
L 79.096424 219.400644 
L 76.806872 219.615212 
L 74.51732 219.775927 
L 72.227767 219.865508 
L 69.938215 219.867943 
L 67.648662 219.765023 
L 65.35911 219.531634 
L 63.069558 219.129396 
z
" style="fill:#fed9c9;"/>
   </g>
   <g id="PathCollection_3">
    <path clip-path="url(#pd5cc0320df)" d="M 63.069558 219.129396 
L 65.35911 219.531634 
L 67.648662 219.765023 
L 69.938215 219.867943 
L 72.227767 219.865508 
L 74.51732 219.775927 
L 76.806872 219.615212 
L 79.096424 219.400644 
L 81.385977 219.152544 
L 83.675529 218.893664 
L 85.965081 218.646039 
L 86.293912 218.615709 
L 88.254634 218.470403 
L 90.544186 218.330022 
L 92.833739 218.217606 
L 95.123291 218.127755 
L 97.412843 218.052467 
L 99.702396 217.98331 
L 101.991948 217.912673 
L 104.2815 217.834182 
L 106.571053 217.742581 
L 108.860605 217.633398 
L 111.150158 217.50256 
L 113.43971 217.346047 
L 115.729262 217.159615 
L 118.018815 216.938542 
L 119.769645 216.741099 
L 120.308367 216.685842 
L 122.597919 216.419007 
L 124.887472 216.105251 
L 127.177024 215.736496 
L 129.466577 215.302785 
L 131.442951 214.866488 
L 131.756129 214.79161 
L 134.045681 214.186767 
L 136.335234 213.469548 
L 137.671641 212.991878 
L 138.624786 212.535039 
L 140.914338 211.295339 
L 141.217052 211.117268 
L 142.915416 209.242658 
L 143.082564 207.368048 
L 141.829296 205.493437 
L 140.914338 204.830441 
L 139.068821 203.618827 
L 138.624786 203.403859 
L 136.335234 202.397921 
L 134.587419 201.744217 
L 134.045681 201.556279 
L 131.756129 200.841433 
L 129.466577 200.24201 
L 127.806643 199.869607 
L 127.177024 199.714055 
L 124.887472 199.212679 
L 122.597919 198.792851 
L 120.308367 198.442728 
L 118.018815 198.152561 
L 116.529059 197.994997 
L 115.729262 197.887351 
L 113.43971 197.629723 
L 111.150158 197.423719 
L 108.860605 197.261807 
L 106.571053 197.13697 
L 104.2815 197.042334 
L 101.991948 196.970735 
L 99.702396 196.914245 
L 97.412843 196.863747 
L 95.123291 196.808794 
L 92.833739 196.738123 
L 90.544186 196.641212 
L 88.254634 196.510951 
L 85.965081 196.346726 
L 83.675529 196.156398 
L 83.286237 196.120387 
L 81.385977 195.880863 
L 79.096424 195.603786 
L 76.806872 195.372833 
L 74.51732 195.216806 
L 72.227767 195.16156 
L 69.938215 195.232739 
L 67.648662 195.460839 
L 65.35911 195.888256 
L 64.53998 196.120387 
L 63.069558 196.435137 
L 60.780005 197.158905 
L 58.94672 197.994997 
L 58.490453 198.18327 
L 56.200901 199.416727 
L 55.530282 199.869607 
L 53.911348 201.085205 
L 53.158612 201.744217 
L 51.621796 203.555912 
L 51.57002 203.618827 
L 50.48586 205.493437 
L 49.999376 207.368048 
L 50.010542 209.242658 
L 50.532751 211.117268 
L 51.621796 212.874449 
L 51.692515 212.991878 
L 53.478538 214.866488 
L 53.911348 215.202746 
L 56.200901 216.680295 
L 56.31773 216.741099 
L 58.490453 217.786421 
L 60.780005 218.524716 
L 61.163286 218.615709 
z
M 61.118107 216.741099 
L 60.780005 216.636214 
L 58.490453 215.674196 
L 57.095954 214.866488 
L 56.200901 214.217644 
L 54.794951 212.991878 
L 53.911348 211.764495 
L 53.461284 211.117268 
L 52.81454 209.242658 
L 52.800516 207.368048 
L 53.402462 205.493437 
L 53.911348 204.713989 
L 54.643172 203.618827 
L 56.200901 202.141281 
L 56.69248 201.744217 
L 58.490453 200.566722 
L 59.91912 199.869607 
L 60.780005 199.457883 
L 63.069558 198.643662 
L 65.35911 198.116407 
L 66.200915 197.994997 
L 67.648662 197.735537 
L 69.938215 197.526657 
L 72.227767 197.48595 
L 74.51732 197.583067 
L 76.806872 197.792239 
L 78.412683 197.994997 
L 79.096424 198.064451 
L 81.385977 198.328497 
L 83.675529 198.607162 
L 85.965081 198.874634 
L 88.254634 199.110682 
L 90.544186 199.304745 
L 92.833739 199.456838 
L 95.123291 199.575217 
L 97.412843 199.672529 
L 99.702396 199.762423 
L 101.991948 199.857518 
L 102.245664 199.869607 
L 104.2815 199.953626 
L 106.571053 200.069331 
L 108.860605 200.213394 
L 111.150158 200.392306 
L 113.43971 200.61258 
L 115.729262 200.881145 
L 118.018815 201.205695 
L 120.308367 201.59504 
L 121.071846 201.744217 
L 122.597919 202.053814 
L 124.887472 202.595475 
L 127.177024 203.237362 
L 128.368002 203.618827 
L 129.466577 204.078582 
L 131.756129 205.17267 
L 132.358949 205.493437 
L 134.045681 207.291575 
L 134.113082 207.368048 
L 134.045681 207.968417 
L 133.90267 209.242658 
L 131.756129 210.991227 
L 131.587125 211.117268 
L 129.466577 211.975273 
L 127.177024 212.766534 
L 126.443143 212.991878 
L 124.887472 213.360322 
L 122.597919 213.831663 
L 120.308367 214.232543 
L 118.018815 214.572926 
L 115.729262 214.861123 
L 115.680499 214.866488 
L 113.43971 215.103658 
L 111.150158 215.307255 
L 108.860605 215.477449 
L 106.571053 215.619465 
L 104.2815 215.738604 
L 101.991948 215.840685 
L 99.702396 215.932547 
L 97.412843 216.022486 
L 95.123291 216.120409 
L 92.833739 216.237295 
L 90.544186 216.383565 
L 88.254634 216.566259 
L 86.447467 216.741099 
L 85.965081 216.792515 
L 83.675529 217.077842 
L 81.385977 217.376164 
L 79.096424 217.662086 
L 76.806872 217.90938 
L 74.51732 218.094611 
L 72.227767 218.197853 
L 69.938215 218.200635 
L 67.648662 218.08196 
L 65.35911 217.812867 
L 63.069558 217.349104 
z
" style="fill:#fcbba1;"/>
   </g>
   <g id="PathCollection_4">
    <path clip-path="url(#pd5cc0320df)" d="M 63.069558 217.349104 
L 65.35911 217.812867 
L 67.648662 218.08196 
L 69.938215 218.200635 
L 72.227767 218.197853 
L 74.51732 218.094611 
L 76.806872 217.90938 
L 79.096424 217.662086 
L 81.385977 217.376164 
L 83.675529 217.077842 
L 85.965081 216.792515 
L 86.447467 216.741099 
L 88.254634 216.566259 
L 90.544186 216.383565 
L 92.833739 216.237295 
L 95.123291 216.120409 
L 97.412843 216.022486 
L 99.702396 215.932547 
L 101.991948 215.840685 
L 104.2815 215.738604 
L 106.571053 215.619465 
L 108.860605 215.477449 
L 111.150158 215.307255 
L 113.43971 215.103658 
L 115.680499 214.866488 
L 115.729262 214.861123 
L 118.018815 214.572926 
L 120.308367 214.232543 
L 122.597919 213.831663 
L 124.887472 213.360322 
L 126.443143 212.991878 
L 127.177024 212.766534 
L 129.466577 211.975273 
L 131.587125 211.117268 
L 131.756129 210.991227 
L 133.90267 209.242658 
L 134.045681 207.968417 
L 134.113082 207.368048 
L 134.045681 207.291575 
L 132.358949 205.493437 
L 131.756129 205.17267 
L 129.466577 204.078582 
L 128.368002 203.618827 
L 127.177024 203.237362 
L 124.887472 202.595475 
L 122.597919 202.053814 
L 121.071846 201.744217 
L 120.308367 201.59504 
L 118.018815 201.205695 
L 115.729262 200.881145 
L 113.43971 200.61258 
L 111.150158 200.392306 
L 108.860605 200.213394 
L 106.571053 200.069331 
L 104.2815 199.953626 
L 102.245664 199.869607 
L 101.991948 199.857518 
L 99.702396 199.762423 
L 97.412843 199.672529 
L 95.123291 199.575217 
L 92.833739 199.456838 
L 90.544186 199.304745 
L 88.254634 199.110682 
L 85.965081 198.874634 
L 83.675529 198.607162 
L 81.385977 198.328497 
L 79.096424 198.064451 
L 78.412683 197.994997 
L 76.806872 197.792239 
L 74.51732 197.583067 
L 72.227767 197.48595 
L 69.938215 197.526657 
L 67.648662 197.735537 
L 66.200915 197.994997 
L 65.35911 198.116407 
L 63.069558 198.643662 
L 60.780005 199.457883 
L 59.91912 199.869607 
L 58.490453 200.566722 
L 56.69248 201.744217 
L 56.200901 202.141281 
L 54.643172 203.618827 
L 53.911348 204.713989 
L 53.402462 205.493437 
L 52.800516 207.368048 
L 52.81454 209.242658 
L 53.461284 211.117268 
L 53.911348 211.764495 
L 54.794951 212.991878 
L 56.200901 214.217644 
L 57.095954 214.866488 
L 58.490453 215.674196 
L 60.780005 216.636214 
L 61.118107 216.741099 
z
M 68.735478 216.741099 
L 67.648662 216.674874 
L 65.35911 216.363197 
L 63.069558 215.826046 
L 60.780005 214.981973 
L 60.538134 214.866488 
L 58.490453 213.693402 
L 57.546797 212.991878 
L 56.200901 211.465346 
L 55.924054 211.117268 
L 55.165486 209.242658 
L 55.148782 207.368048 
L 55.85405 205.493437 
L 56.200901 205.028593 
L 57.353177 203.618827 
L 58.490453 202.697748 
L 59.980283 201.744217 
L 60.780005 201.311231 
L 63.069558 200.387856 
L 65.040153 199.869607 
L 65.35911 199.780511 
L 67.648662 199.366463 
L 69.938215 199.168278 
L 72.227767 199.143484 
L 74.51732 199.261783 
L 76.806872 199.497268 
L 79.096424 199.82262 
L 79.393732 199.869607 
L 81.385977 200.156308 
L 83.675529 200.500982 
L 85.965081 200.832837 
L 88.254634 201.127663 
L 90.544186 201.372671 
L 92.833739 201.567625 
L 95.123291 201.722085 
L 95.523965 201.744217 
L 97.412843 201.849307 
L 99.702396 201.966527 
L 101.991948 202.088553 
L 104.2815 202.227791 
L 106.571053 202.394708 
L 108.860605 202.598432 
L 111.150158 202.847444 
L 113.43971 203.15021 
L 115.729262 203.515721 
L 116.286433 203.618827 
L 118.018815 204.025655 
L 120.308367 204.6598 
L 122.597919 205.412442 
L 122.817987 205.493437 
L 124.887472 206.974394 
L 125.380775 207.368048 
L 125.107221 209.242658 
L 124.887472 209.381179 
L 122.597919 210.6846 
L 121.733808 211.117268 
L 120.308367 211.51328 
L 118.018815 212.064496 
L 115.729262 212.531296 
L 113.43971 212.925093 
L 112.988898 212.991878 
L 111.150158 213.208822 
L 108.860605 213.436062 
L 106.571053 213.62567 
L 104.2815 213.784723 
L 101.991948 213.920995 
L 99.702396 214.04362 
L 97.412843 214.163689 
L 95.123291 214.294447 
L 92.833739 214.450585 
L 90.544186 214.646054 
L 88.485066 214.866488 
L 88.254634 214.890215 
L 85.965081 215.182669 
L 83.675529 215.512793 
L 81.385977 215.858013 
L 79.096424 216.188938 
L 76.806872 216.475192 
L 74.51732 216.689625 
L 73.545041 216.741099 
L 72.227767 216.819443 
L 69.938215 216.823117 
z
" style="fill:#fc9b7c;"/>
   </g>
   <g id="PathCollection_5">
    <path clip-path="url(#pd5cc0320df)" d="M 69.938215 216.823117 
L 72.227767 216.819443 
L 73.545041 216.741099 
L 74.51732 216.689625 
L 76.806872 216.475192 
L 79.096424 216.188938 
L 81.385977 215.858013 
L 83.675529 215.512793 
L 85.965081 215.182669 
L 88.254634 214.890215 
L 88.485066 214.866488 
L 90.544186 214.646054 
L 92.833739 214.450585 
L 95.123291 214.294447 
L 97.412843 214.163689 
L 99.702396 214.04362 
L 101.991948 213.920995 
L 104.2815 213.784723 
L 106.571053 213.62567 
L 108.860605 213.436062 
L 111.150158 213.208822 
L 112.988898 212.991878 
L 113.43971 212.925093 
L 115.729262 212.531296 
L 118.018815 212.064496 
L 120.308367 211.51328 
L 121.733808 211.117268 
L 122.597919 210.6846 
L 124.887472 209.381179 
L 125.107221 209.242658 
L 125.380775 207.368048 
L 124.887472 206.974394 
L 122.817987 205.493437 
L 122.597919 205.412442 
L 120.308367 204.6598 
L 118.018815 204.025655 
L 116.286433 203.618827 
L 115.729262 203.515721 
L 113.43971 203.15021 
L 111.150158 202.847444 
L 108.860605 202.598432 
L 106.571053 202.394708 
L 104.2815 202.227791 
L 101.991948 202.088553 
L 99.702396 201.966527 
L 97.412843 201.849307 
L 95.523965 201.744217 
L 95.123291 201.722085 
L 92.833739 201.567625 
L 90.544186 201.372671 
L 88.254634 201.127663 
L 85.965081 200.832837 
L 83.675529 200.500982 
L 81.385977 200.156308 
L 79.393732 199.869607 
L 79.096424 199.82262 
L 76.806872 199.497268 
L 74.51732 199.261783 
L 72.227767 199.143484 
L 69.938215 199.168278 
L 67.648662 199.366463 
L 65.35911 199.780511 
L 65.040153 199.869607 
L 63.069558 200.387856 
L 60.780005 201.311231 
L 59.980283 201.744217 
L 58.490453 202.697748 
L 57.353177 203.618827 
L 56.200901 205.028593 
L 55.85405 205.493437 
L 55.148782 207.368048 
L 55.165486 209.242658 
L 55.924054 211.117268 
L 56.200901 211.465346 
L 57.546797 212.991878 
L 58.490453 213.693402 
L 60.538134 214.866488 
L 60.780005 214.981973 
L 63.069558 215.826046 
L 65.35911 216.363197 
L 67.648662 216.674874 
L 68.735478 216.741099 
z
M 64.6726 214.866488 
L 63.069558 214.380462 
L 60.780005 213.320065 
L 60.24447 212.991878 
L 58.490453 211.419741 
L 58.208309 211.117268 
L 57.315181 209.242658 
L 57.295163 207.368048 
L 58.124423 205.493437 
L 58.490453 205.074717 
L 59.993555 203.618827 
L 60.780005 203.092749 
L 63.069558 201.952685 
L 63.678165 201.744217 
L 65.35911 201.216448 
L 67.648662 200.780238 
L 69.938215 200.576579 
L 72.227767 200.560305 
L 74.51732 200.699182 
L 76.806872 200.965506 
L 79.096424 201.329802 
L 81.320411 201.744217 
L 81.385977 201.757108 
L 83.675529 202.202785 
L 85.965081 202.632398 
L 88.254634 203.015195 
L 90.544186 203.334863 
L 92.833739 203.590976 
L 93.152439 203.618827 
L 95.123291 203.833332 
L 97.412843 204.041568 
L 99.702396 204.234037 
L 101.991948 204.433083 
L 104.2815 204.657766 
L 106.571053 204.924103 
L 108.860605 205.245991 
L 110.328159 205.493437 
L 111.150158 205.753405 
L 113.43971 206.612499 
L 115.131524 207.368048 
L 114.696742 209.242658 
L 113.43971 209.696946 
L 111.150158 210.403823 
L 108.860605 210.995552 
L 108.306498 211.117268 
L 106.571053 211.334147 
L 104.2815 211.575509 
L 101.991948 211.782289 
L 99.702396 211.968372 
L 97.412843 212.15063 
L 95.123291 212.349239 
L 92.833739 212.5866 
L 90.544186 212.884039 
L 89.896887 212.991878 
L 88.254634 213.208375 
L 85.965081 213.574862 
L 83.675529 213.988731 
L 81.385977 214.4217 
L 79.096424 214.83689 
L 78.916955 214.866488 
L 76.806872 215.194708 
L 74.51732 215.46264 
L 72.227767 215.611946 
L 69.938215 215.615863 
L 67.648662 215.443973 
L 65.35911 215.05433 
z
" style="fill:#fb7a5a;"/>
   </g>
   <g id="PathCollection_6">
    <path clip-path="url(#pd5cc0320df)" d="M 65.35911 215.05433 
L 67.648662 215.443973 
L 69.938215 215.615863 
L 72.227767 215.611946 
L 74.51732 215.46264 
L 76.806872 215.194708 
L 78.916955 214.866488 
L 79.096424 214.83689 
L 81.385977 214.4217 
L 83.675529 213.988731 
L 85.965081 213.574862 
L 88.254634 213.208375 
L 89.896887 212.991878 
L 90.544186 212.884039 
L 92.833739 212.5866 
L 95.123291 212.349239 
L 97.412843 212.15063 
L 99.702396 211.968372 
L 101.991948 211.782289 
L 104.2815 211.575509 
L 106.571053 211.334147 
L 108.306498 211.117268 
L 108.860605 210.995552 
L 111.150158 210.403823 
L 113.43971 209.696946 
L 114.696742 209.242658 
L 115.131524 207.368048 
L 113.43971 206.612499 
L 111.150158 205.753405 
L 110.328159 205.493437 
L 108.860605 205.245991 
L 106.571053 204.924103 
L 104.2815 204.657766 
L 101.991948 204.433083 
L 99.702396 204.234037 
L 97.412843 204.041568 
L 95.123291 203.833332 
L 93.152439 203.618827 
L 92.833739 203.590976 
L 90.544186 203.334863 
L 88.254634 203.015195 
L 85.965081 202.632398 
L 83.675529 202.202785 
L 81.385977 201.757108 
L 81.320411 201.744217 
L 79.096424 201.329802 
L 76.806872 200.965506 
L 74.51732 200.699182 
L 72.227767 200.560305 
L 69.938215 200.576579 
L 67.648662 200.780238 
L 65.35911 201.216448 
L 63.678165 201.744217 
L 63.069558 201.952685 
L 60.780005 203.092749 
L 59.993555 203.618827 
L 58.490453 205.074717 
L 58.124423 205.493437 
L 57.295163 207.368048 
L 57.315181 209.242658 
L 58.208309 211.117268 
L 58.490453 211.419741 
L 60.24447 212.991878 
L 60.780005 213.320065 
L 63.069558 214.380462 
L 64.6726 214.866488 
z
M 63.229 212.991878 
L 63.069558 212.916249 
L 60.780005 211.357416 
L 60.508254 211.117268 
L 59.419019 209.242658 
L 59.394075 207.368048 
L 60.403638 205.493437 
L 60.780005 205.138009 
L 62.853903 203.618827 
L 63.069558 203.505168 
L 65.35911 202.631232 
L 67.648662 202.117521 
L 69.938215 201.881705 
L 72.227767 201.870243 
L 74.51732 202.044906 
L 76.806872 202.372716 
L 79.096424 202.81839 
L 81.385977 203.340075 
L 82.582971 203.618827 
L 83.675529 203.948073 
L 85.965081 204.592517 
L 88.254634 205.168088 
L 89.81921 205.493437 
L 90.544186 205.776245 
L 92.833739 206.477086 
L 95.123291 207.041383 
L 96.704099 207.368048 
L 95.974089 209.242658 
L 95.123291 209.392639 
L 92.833739 209.881401 
L 90.544186 210.495919 
L 88.711711 211.117268 
L 88.254634 211.203673 
L 85.965081 211.739329 
L 83.675529 212.344885 
L 81.385977 212.979033 
L 81.340356 212.991878 
L 79.096424 213.479244 
L 76.806872 213.910038 
L 74.51732 214.232793 
L 72.227767 214.412646 
L 69.938215 214.417263 
L 67.648662 214.209914 
L 65.35911 213.739973 
z
" style="fill:#f6583e;"/>
   </g>
   <g id="PathCollection_7">
    <path clip-path="url(#pd5cc0320df)" d="M 65.35911 213.739973 
L 67.648662 214.209914 
L 69.938215 214.417263 
L 72.227767 214.412646 
L 74.51732 214.232793 
L 76.806872 213.910038 
L 79.096424 213.479244 
L 81.340356 212.991878 
L 81.385977 212.979033 
L 83.675529 212.344885 
L 85.965081 211.739329 
L 88.254634 211.203673 
L 88.711711 211.117268 
L 90.544186 210.495919 
L 92.833739 209.881401 
L 95.123291 209.392639 
L 95.974089 209.242658 
L 96.704099 207.368048 
L 95.123291 207.041383 
L 92.833739 206.477086 
L 90.544186 205.776245 
L 89.81921 205.493437 
L 88.254634 205.168088 
L 85.965081 204.592517 
L 83.675529 203.948073 
L 82.582971 203.618827 
L 81.385977 203.340075 
L 79.096424 202.81839 
L 76.806872 202.372716 
L 74.51732 202.044906 
L 72.227767 201.870243 
L 69.938215 201.881705 
L 67.648662 202.117521 
L 65.35911 202.631232 
L 63.069558 203.505168 
L 62.853903 203.618827 
L 60.780005 205.138009 
L 60.403638 205.493437 
L 59.394075 207.368048 
L 59.419019 209.242658 
L 60.508254 211.117268 
L 60.780005 211.357416 
L 63.069558 212.916249 
L 63.229 212.991878 
z
M 67.822027 212.991878 
L 67.648662 212.96884 
L 65.35911 212.297261 
L 63.069558 211.139829 
L 63.03706 211.117268 
L 61.625514 209.242658 
L 61.592277 207.368048 
L 62.897291 205.493437 
L 63.069558 205.365366 
L 65.35911 204.131481 
L 66.95472 203.618827 
L 67.648662 203.445791 
L 69.938215 203.175704 
L 72.227767 203.168632 
L 74.51732 203.380143 
L 75.937803 203.618827 
L 76.806872 203.80459 
L 79.096424 204.448837 
L 81.385977 205.202211 
L 82.259648 205.493437 
L 83.675529 206.395118 
L 85.318626 207.368048 
L 85.135748 209.242658 
L 83.675529 210.008628 
L 81.717136 211.117268 
L 81.385977 211.218939 
L 79.096424 211.9279 
L 76.806872 212.54184 
L 74.570362 212.991878 
L 74.51732 213.000241 
L 72.227767 213.209873 
L 69.938215 213.2151 
z
" style="fill:#e83429;"/>
   </g>
   <g id="PathCollection_8">
    <path clip-path="url(#pd5cc0320df)" d="M 69.938215 213.2151 
L 72.227767 213.209873 
L 74.51732 213.000241 
L 74.570362 212.991878 
L 76.806872 212.54184 
L 79.096424 211.9279 
L 81.385977 211.218939 
L 81.717136 211.117268 
L 83.675529 210.008628 
L 85.135748 209.242658 
L 85.318626 207.368048 
L 83.675529 206.395118 
L 82.259648 205.493437 
L 81.385977 205.202211 
L 79.096424 204.448837 
L 76.806872 203.80459 
L 75.937803 203.618827 
L 74.51732 203.380143 
L 72.227767 203.168632 
L 69.938215 203.175704 
L 67.648662 203.445791 
L 66.95472 203.618827 
L 65.35911 204.131481 
L 63.069558 205.365366 
L 62.897291 205.493437 
L 61.592277 207.368048 
L 61.625514 209.242658 
L 63.03706 211.117268 
L 63.069558 211.139829 
L 65.35911 212.297261 
L 67.648662 212.96884 
L 67.822027 212.991878 
z
M 66.608751 211.117268 
L 65.35911 210.360055 
L 64.203408 209.242658 
L 64.154198 207.368048 
L 65.35911 206.113988 
L 66.299663 205.493437 
L 67.648662 205.02116 
L 69.938215 204.65172 
L 72.227767 204.648484 
L 74.51732 204.950005 
L 76.768562 205.493437 
L 76.806872 205.510721 
L 79.096424 206.845901 
L 79.894356 207.368048 
L 79.759209 209.242658 
L 79.096424 209.634092 
L 76.806872 210.857577 
L 76.179121 211.117268 
L 74.51732 211.494036 
L 72.227767 211.786591 
L 69.938215 211.793427 
L 67.648662 211.454337 
z
" style="fill:#ca181d;"/>
   </g>
   <g id="PathCollection_9">
    <path clip-path="url(#pd5cc0320df)" d="M 67.648662 211.454337 
L 69.938215 211.793427 
L 72.227767 211.786591 
L 74.51732 211.494036 
L 76.179121 211.117268 
L 76.806872 210.857577 
L 79.096424 209.634092 
L 79.759209 209.242658 
L 79.894356 207.368048 
L 79.096424 206.845901 
L 76.806872 205.510721 
L 76.768562 205.493437 
L 74.51732 204.950005 
L 72.227767 204.648484 
L 69.938215 204.65172 
L 67.648662 205.02116 
L 66.299663 205.493437 
L 65.35911 206.113988 
L 64.154198 207.368048 
L 64.203408 209.242658 
L 65.35911 210.360055 
L 66.608751 211.117268 
z
M 68.295037 209.242658 
L 68.112379 207.368048 
L 69.938215 206.789536 
L 72.227767 206.794466 
L 74.356365 207.368048 
L 74.098175 209.242658 
L 72.227767 209.70948 
L 69.938215 209.720807 
z
" style="fill:#ac1117;"/>
   </g>
   <g id="PathCollection_10">
    <path clip-path="url(#pd5cc0320df)" d="M 69.938215 209.720807 
L 72.227767 209.70948 
L 74.098175 209.242658 
L 74.356365 207.368048 
L 72.227767 206.794466 
L 69.938215 206.789536 
L 68.112379 207.368048 
L 68.295037 209.242658 
z
" style="fill:#7e0610;"/>
   </g>
   <g id="matplotlib.axis_1">
    <g id="xtick_1">
     <g id="line2d_1">
      <defs>
       <path d="M 0 0 
L 0 3.5 
" id="mfb798ae3ac" style="stroke:#262626;stroke-width:0.8;"/>
      </defs>
      <g>
       <use style="fill:#262626;stroke:#262626;stroke-width:0.8;" x="67.334837" xlink:href="#mfb798ae3ac" y="223"/>
      </g>
     </g>
     <g id="line2d_2">
      <defs>
       <path d="M 0 0 
L 0 -3.5 
" id="mb3537d3363" style="stroke:#262626;stroke-width:0.8;"/>
      </defs>
      <g>
       <use style="fill:#262626;stroke:#262626;stroke-width:0.8;" x="67.334837" xlink:href="#mb3537d3363" y="25.44"/>
      </g>
     </g>
     <g id="text_1">
      <!-- 0.0 -->
      <defs>
       <path d="M 31.78125 66.40625 
Q 24.171875 66.40625 20.328125 58.90625 
Q 16.5 51.421875 16.5 36.375 
Q 16.5 21.390625 20.328125 13.890625 
Q 24.171875 6.390625 31.78125 6.390625 
Q 39.453125 6.390625 43.28125 13.890625 
Q 47.125 21.390625 47.125 36.375 
Q 47.125 51.421875 43.28125 58.90625 
Q 39.453125 66.40625 31.78125 66.40625 
z
M 31.78125 74.21875 
Q 44.046875 74.21875 50.515625 64.515625 
Q 56.984375 54.828125 56.984375 36.375 
Q 56.984375 17.96875 50.515625 8.265625 
Q 44.046875 -1.421875 31.78125 -1.421875 
Q 19.53125 -1.421875 13.0625 8.265625 
Q 6.59375 17.96875 6.59375 36.375 
Q 6.59375 54.828125 13.0625 64.515625 
Q 19.53125 74.21875 31.78125 74.21875 
z
" id="DejaVuSans-30"/>
       <path d="M 10.6875 12.40625 
L 21 12.40625 
L 21 0 
L 10.6875 0 
z
" id="DejaVuSans-2e"/>
      </defs>
      <g style="fill:#262626;" transform="translate(58.588118 238.358281)scale(0.11 -0.11)">
       <use xlink:href="#DejaVuSans-30"/>
       <use x="63.623047" xlink:href="#DejaVuSans-2e"/>
       <use x="95.410156" xlink:href="#DejaVuSans-30"/>
      </g>
     </g>
    </g>
    <g id="xtick_2">
     <g id="line2d_3">
      <g>
       <use style="fill:#262626;stroke:#262626;stroke-width:0.8;" x="137.867965" xlink:href="#mfb798ae3ac" y="223"/>
      </g>
     </g>
     <g id="line2d_4">
      <g>
       <use style="fill:#262626;stroke:#262626;stroke-width:0.8;" x="137.867965" xlink:href="#mb3537d3363" y="25.44"/>
      </g>
     </g>
     <g id="text_2">
      <!-- 1.0 -->
      <defs>
       <path d="M 12.40625 8.296875 
L 28.515625 8.296875 
L 28.515625 63.921875 
L 10.984375 60.40625 
L 10.984375 69.390625 
L 28.421875 72.90625 
L 38.28125 72.90625 
L 38.28125 8.296875 
L 54.390625 8.296875 
L 54.390625 0 
L 12.40625 0 
z
" id="DejaVuSans-31"/>
      </defs>
      <g style="fill:#262626;" transform="translate(129.121247 238.358281)scale(0.11 -0.11)">
       <use xlink:href="#DejaVuSans-31"/>
       <use x="63.623047" xlink:href="#DejaVuSans-2e"/>
       <use x="95.410156" xlink:href="#DejaVuSans-30"/>
      </g>
     </g>
    </g>
    <g id="xtick_3">
     <g id="line2d_5">
      <g>
       <use style="fill:#262626;stroke:#262626;stroke-width:0.8;" x="208.401094" xlink:href="#mfb798ae3ac" y="223"/>
      </g>
     </g>
     <g id="line2d_6">
      <g>
       <use style="fill:#262626;stroke:#262626;stroke-width:0.8;" x="208.401094" xlink:href="#mb3537d3363" y="25.44"/>
      </g>
     </g>
     <g id="text_3">
      <!-- 2.0 -->
      <defs>
       <path d="M 19.1875 8.296875 
L 53.609375 8.296875 
L 53.609375 0 
L 7.328125 0 
L 7.328125 8.296875 
Q 12.9375 14.109375 22.625 23.890625 
Q 32.328125 33.6875 34.8125 36.53125 
Q 39.546875 41.84375 41.421875 45.53125 
Q 43.3125 49.21875 43.3125 52.78125 
Q 43.3125 58.59375 39.234375 62.25 
Q 35.15625 65.921875 28.609375 65.921875 
Q 23.96875 65.921875 18.8125 64.3125 
Q 13.671875 62.703125 7.8125 59.421875 
L 7.8125 69.390625 
Q 13.765625 71.78125 18.9375 73 
Q 24.125 74.21875 28.421875 74.21875 
Q 39.75 74.21875 46.484375 68.546875 
Q 53.21875 62.890625 53.21875 53.421875 
Q 53.21875 48.921875 51.53125 44.890625 
Q 49.859375 40.875 45.40625 35.40625 
Q 44.1875 33.984375 37.640625 27.21875 
Q 31.109375 20.453125 19.1875 8.296875 
z
" id="DejaVuSans-32"/>
      </defs>
      <g style="fill:#262626;" transform="translate(199.654375 238.358281)scale(0.11 -0.11)">
       <use xlink:href="#DejaVuSans-32"/>
       <use x="63.623047" xlink:href="#DejaVuSans-2e"/>
       <use x="95.410156" xlink:href="#DejaVuSans-30"/>
      </g>
     </g>
    </g>
    <g id="text_4">
     <!-- log10 counts (Control) -->
     <defs>
      <path d="M 9.421875 75.984375 
L 18.40625 75.984375 
L 18.40625 0 
L 9.421875 0 
z
" id="DejaVuSans-6c"/>
      <path d="M 30.609375 48.390625 
Q 23.390625 48.390625 19.1875 42.75 
Q 14.984375 37.109375 14.984375 27.296875 
Q 14.984375 17.484375 19.15625 11.84375 
Q 23.34375 6.203125 30.609375 6.203125 
Q 37.796875 6.203125 41.984375 11.859375 
Q 46.1875 17.53125 46.1875 27.296875 
Q 46.1875 37.015625 41.984375 42.703125 
Q 37.796875 48.390625 30.609375 48.390625 
z
M 30.609375 56 
Q 42.328125 56 49.015625 48.375 
Q 55.71875 40.765625 55.71875 27.296875 
Q 55.71875 13.875 49.015625 6.21875 
Q 42.328125 -1.421875 30.609375 -1.421875 
Q 18.84375 -1.421875 12.171875 6.21875 
Q 5.515625 13.875 5.515625 27.296875 
Q 5.515625 40.765625 12.171875 48.375 
Q 18.84375 56 30.609375 56 
z
" id="DejaVuSans-6f"/>
      <path d="M 45.40625 27.984375 
Q 45.40625 37.75 41.375 43.109375 
Q 37.359375 48.484375 30.078125 48.484375 
Q 22.859375 48.484375 18.828125 43.109375 
Q 14.796875 37.75 14.796875 27.984375 
Q 14.796875 18.265625 18.828125 12.890625 
Q 22.859375 7.515625 30.078125 7.515625 
Q 37.359375 7.515625 41.375 12.890625 
Q 45.40625 18.265625 45.40625 27.984375 
z
M 54.390625 6.78125 
Q 54.390625 -7.171875 48.1875 -13.984375 
Q 42 -20.796875 29.203125 -20.796875 
Q 24.46875 -20.796875 20.265625 -20.09375 
Q 16.0625 -19.390625 12.109375 -17.921875 
L 12.109375 -9.1875 
Q 16.0625 -11.328125 19.921875 -12.34375 
Q 23.78125 -13.375 27.78125 -13.375 
Q 36.625 -13.375 41.015625 -8.765625 
Q 45.40625 -4.15625 45.40625 5.171875 
L 45.40625 9.625 
Q 42.625 4.78125 38.28125 2.390625 
Q 33.9375 0 27.875 0 
Q 17.828125 0 11.671875 7.65625 
Q 5.515625 15.328125 5.515625 27.984375 
Q 5.515625 40.671875 11.671875 48.328125 
Q 17.828125 56 27.875 56 
Q 33.9375 56 38.28125 53.609375 
Q 42.625 51.21875 45.40625 46.390625 
L 45.40625 54.6875 
L 54.390625 54.6875 
z
" id="DejaVuSans-67"/>
      <path id="DejaVuSans-20"/>
      <path d="M 48.78125 52.59375 
L 48.78125 44.1875 
Q 44.96875 46.296875 41.140625 47.34375 
Q 37.3125 48.390625 33.40625 48.390625 
Q 24.65625 48.390625 19.8125 42.84375 
Q 14.984375 37.3125 14.984375 27.296875 
Q 14.984375 17.28125 19.8125 11.734375 
Q 24.65625 6.203125 33.40625 6.203125 
Q 37.3125 6.203125 41.140625 7.25 
Q 44.96875 8.296875 48.78125 10.40625 
L 48.78125 2.09375 
Q 45.015625 0.34375 40.984375 -0.53125 
Q 36.96875 -1.421875 32.421875 -1.421875 
Q 20.0625 -1.421875 12.78125 6.34375 
Q 5.515625 14.109375 5.515625 27.296875 
Q 5.515625 40.671875 12.859375 48.328125 
Q 20.21875 56 33.015625 56 
Q 37.15625 56 41.109375 55.140625 
Q 45.0625 54.296875 48.78125 52.59375 
z
" id="DejaVuSans-63"/>
      <path d="M 8.5 21.578125 
L 8.5 54.6875 
L 17.484375 54.6875 
L 17.484375 21.921875 
Q 17.484375 14.15625 20.5 10.265625 
Q 23.53125 6.390625 29.59375 6.390625 
Q 36.859375 6.390625 41.078125 11.03125 
Q 45.3125 15.671875 45.3125 23.6875 
L 45.3125 54.6875 
L 54.296875 54.6875 
L 54.296875 0 
L 45.3125 0 
L 45.3125 8.40625 
Q 42.046875 3.421875 37.71875 1 
Q 33.40625 -1.421875 27.6875 -1.421875 
Q 18.265625 -1.421875 13.375 4.4375 
Q 8.5 10.296875 8.5 21.578125 
z
M 31.109375 56 
z
" id="DejaVuSans-75"/>
      <path d="M 54.890625 33.015625 
L 54.890625 0 
L 45.90625 0 
L 45.90625 32.71875 
Q 45.90625 40.484375 42.875 44.328125 
Q 39.84375 48.1875 33.796875 48.1875 
Q 26.515625 48.1875 22.3125 43.546875 
Q 18.109375 38.921875 18.109375 30.90625 
L 18.109375 0 
L 9.078125 0 
L 9.078125 54.6875 
L 18.109375 54.6875 
L 18.109375 46.1875 
Q 21.34375 51.125 25.703125 53.5625 
Q 30.078125 56 35.796875 56 
Q 45.21875 56 50.046875 50.171875 
Q 54.890625 44.34375 54.890625 33.015625 
z
" id="DejaVuSans-6e"/>
      <path d="M 18.3125 70.21875 
L 18.3125 54.6875 
L 36.8125 54.6875 
L 36.8125 47.703125 
L 18.3125 47.703125 
L 18.3125 18.015625 
Q 18.3125 11.328125 20.140625 9.421875 
Q 21.96875 7.515625 27.59375 7.515625 
L 36.8125 7.515625 
L 36.8125 0 
L 27.59375 0 
Q 17.1875 0 13.234375 3.875 
Q 9.28125 7.765625 9.28125 18.015625 
L 9.28125 47.703125 
L 2.6875 47.703125 
L 2.6875 54.6875 
L 9.28125 54.6875 
L 9.28125 70.21875 
z
" id="DejaVuSans-74"/>
      <path d="M 44.28125 53.078125 
L 44.28125 44.578125 
Q 40.484375 46.53125 36.375 47.5 
Q 32.28125 48.484375 27.875 48.484375 
Q 21.1875 48.484375 17.84375 46.4375 
Q 14.5 44.390625 14.5 40.28125 
Q 14.5 37.15625 16.890625 35.375 
Q 19.28125 33.59375 26.515625 31.984375 
L 29.59375 31.296875 
Q 39.15625 29.25 43.1875 25.515625 
Q 47.21875 21.78125 47.21875 15.09375 
Q 47.21875 7.46875 41.1875 3.015625 
Q 35.15625 -1.421875 24.609375 -1.421875 
Q 20.21875 -1.421875 15.453125 -0.5625 
Q 10.6875 0.296875 5.421875 2 
L 5.421875 11.28125 
Q 10.40625 8.6875 15.234375 7.390625 
Q 20.0625 6.109375 24.8125 6.109375 
Q 31.15625 6.109375 34.5625 8.28125 
Q 37.984375 10.453125 37.984375 14.40625 
Q 37.984375 18.0625 35.515625 20.015625 
Q 33.0625 21.96875 24.703125 23.78125 
L 21.578125 24.515625 
Q 13.234375 26.265625 9.515625 29.90625 
Q 5.8125 33.546875 5.8125 39.890625 
Q 5.8125 47.609375 11.28125 51.796875 
Q 16.75 56 26.8125 56 
Q 31.78125 56 36.171875 55.265625 
Q 40.578125 54.546875 44.28125 53.078125 
z
" id="DejaVuSans-73"/>
      <path d="M 31 75.875 
Q 24.46875 64.65625 21.28125 53.65625 
Q 18.109375 42.671875 18.109375 31.390625 
Q 18.109375 20.125 21.3125 9.0625 
Q 24.515625 -2 31 -13.1875 
L 23.1875 -13.1875 
Q 15.875 -1.703125 12.234375 9.375 
Q 8.59375 20.453125 8.59375 31.390625 
Q 8.59375 42.28125 12.203125 53.3125 
Q 15.828125 64.359375 23.1875 75.875 
z
" id="DejaVuSans-28"/>
      <path d="M 64.40625 67.28125 
L 64.40625 56.890625 
Q 59.421875 61.53125 53.78125 63.8125 
Q 48.140625 66.109375 41.796875 66.109375 
Q 29.296875 66.109375 22.65625 58.46875 
Q 16.015625 50.828125 16.015625 36.375 
Q 16.015625 21.96875 22.65625 14.328125 
Q 29.296875 6.6875 41.796875 6.6875 
Q 48.140625 6.6875 53.78125 8.984375 
Q 59.421875 11.28125 64.40625 15.921875 
L 64.40625 5.609375 
Q 59.234375 2.09375 53.4375 0.328125 
Q 47.65625 -1.421875 41.21875 -1.421875 
Q 24.65625 -1.421875 15.125 8.703125 
Q 5.609375 18.84375 5.609375 36.375 
Q 5.609375 53.953125 15.125 64.078125 
Q 24.65625 74.21875 41.21875 74.21875 
Q 47.75 74.21875 53.53125 72.484375 
Q 59.328125 70.75 64.40625 67.28125 
z
" id="DejaVuSans-43"/>
      <path d="M 41.109375 46.296875 
Q 39.59375 47.171875 37.8125 47.578125 
Q 36.03125 48 33.890625 48 
Q 26.265625 48 22.1875 43.046875 
Q 18.109375 38.09375 18.109375 28.8125 
L 18.109375 0 
L 9.078125 0 
L 9.078125 54.6875 
L 18.109375 54.6875 
L 18.109375 46.1875 
Q 20.953125 51.171875 25.484375 53.578125 
Q 30.03125 56 36.53125 56 
Q 37.453125 56 38.578125 55.875 
Q 39.703125 55.765625 41.0625 55.515625 
z
" id="DejaVuSans-72"/>
      <path d="M 8.015625 75.875 
L 15.828125 75.875 
Q 23.140625 64.359375 26.78125 53.3125 
Q 30.421875 42.28125 30.421875 31.390625 
Q 30.421875 20.453125 26.78125 9.375 
Q 23.140625 -1.703125 15.828125 -13.1875 
L 8.015625 -13.1875 
Q 14.5 -2 17.703125 9.0625 
Q 20.90625 20.125 20.90625 31.390625 
Q 20.90625 42.671875 17.703125 53.65625 
Q 14.5 64.65625 8.015625 75.875 
z
" id="DejaVuSans-29"/>
     </defs>
     <g transform="translate(83.294531 253.004219)scale(0.11 -0.11)">
      <use xlink:href="#DejaVuSans-6c"/>
      <use x="27.783203" xlink:href="#DejaVuSans-6f"/>
      <use x="88.964844" xlink:href="#DejaVuSans-67"/>
      <use x="152.441406" xlink:href="#DejaVuSans-31"/>
      <use x="216.064453" xlink:href="#DejaVuSans-30"/>
      <use x="279.6875" xlink:href="#DejaVuSans-20"/>
      <use x="311.474609" xlink:href="#DejaVuSans-63"/>
      <use x="366.455078" xlink:href="#DejaVuSans-6f"/>
      <use x="427.636719" xlink:href="#DejaVuSans-75"/>
      <use x="491.015625" xlink:href="#DejaVuSans-6e"/>
      <use x="554.394531" xlink:href="#DejaVuSans-74"/>
      <use x="593.603516" xlink:href="#DejaVuSans-73"/>
      <use x="645.703125" xlink:href="#DejaVuSans-20"/>
      <use x="677.490234" xlink:href="#DejaVuSans-28"/>
      <use x="716.503906" xlink:href="#DejaVuSans-43"/>
      <use x="786.328125" xlink:href="#DejaVuSans-6f"/>
      <use x="847.509766" xlink:href="#DejaVuSans-6e"/>
      <use x="910.888672" xlink:href="#DejaVuSans-74"/>
      <use x="950.097656" xlink:href="#DejaVuSans-72"/>
      <use x="991.179688" xlink:href="#DejaVuSans-6f"/>
      <use x="1052.361328" xlink:href="#DejaVuSans-6c"/>
      <use x="1080.144531" xlink:href="#DejaVuSans-29"/>
     </g>
    </g>
   </g>
   <g id="matplotlib.axis_2">
    <g id="ytick_1">
     <g id="line2d_7">
      <defs>
       <path d="M 0 0 
L -3.5 0 
" id="mbcbc0866c2" style="stroke:#262626;stroke-width:0.8;"/>
      </defs>
      <g>
       <use style="fill:#262626;stroke:#262626;stroke-width:0.8;" x="51.01625" xlink:href="#mbcbc0866c2" y="208.365926"/>
      </g>
     </g>
     <g id="line2d_8">
      <defs>
       <path d="M 0 0 
L 3.5 0 
" id="mfd004e1bcb" style="stroke:#262626;stroke-width:0.8;"/>
      </defs>
      <g>
       <use style="fill:#262626;stroke:#262626;stroke-width:0.8;" x="238.68" xlink:href="#mfd004e1bcb" y="208.365926"/>
      </g>
     </g>
     <g id="text_5">
      <!-- 0.0 -->
      <g style="fill:#262626;" transform="translate(26.522813 212.545067)scale(0.11 -0.11)">
       <use xlink:href="#DejaVuSans-30"/>
       <use x="63.623047" xlink:href="#DejaVuSans-2e"/>
       <use x="95.410156" xlink:href="#DejaVuSans-30"/>
      </g>
     </g>
    </g>
    <g id="ytick_2">
     <g id="line2d_9">
      <g>
       <use style="fill:#262626;stroke:#262626;stroke-width:0.8;" x="51.01625" xlink:href="#mbcbc0866c2" y="164.759629"/>
      </g>
     </g>
     <g id="line2d_10">
      <g>
       <use style="fill:#262626;stroke:#262626;stroke-width:0.8;" x="238.68" xlink:href="#mfd004e1bcb" y="164.759629"/>
      </g>
     </g>
     <g id="text_6">
      <!-- 1.0 -->
      <g style="fill:#262626;" transform="translate(26.522813 168.938769)scale(0.11 -0.11)">
       <use xlink:href="#DejaVuSans-31"/>
       <use x="63.623047" xlink:href="#DejaVuSans-2e"/>
       <use x="95.410156" xlink:href="#DejaVuSans-30"/>
      </g>
     </g>
    </g>
    <g id="ytick_3">
     <g id="line2d_11">
      <g>
       <use style="fill:#262626;stroke:#262626;stroke-width:0.8;" x="51.01625" xlink:href="#mbcbc0866c2" y="121.153332"/>
      </g>
     </g>
     <g id="line2d_12">
      <g>
       <use style="fill:#262626;stroke:#262626;stroke-width:0.8;" x="238.68" xlink:href="#mfd004e1bcb" y="121.153332"/>
      </g>
     </g>
     <g id="text_7">
      <!-- 2.0 -->
      <g style="fill:#262626;" transform="translate(26.522813 125.332472)scale(0.11 -0.11)">
       <use xlink:href="#DejaVuSans-32"/>
       <use x="63.623047" xlink:href="#DejaVuSans-2e"/>
       <use x="95.410156" xlink:href="#DejaVuSans-30"/>
      </g>
     </g>
    </g>
    <g id="ytick_4">
     <g id="line2d_13">
      <g>
       <use style="fill:#262626;stroke:#262626;stroke-width:0.8;" x="51.01625" xlink:href="#mbcbc0866c2" y="77.547035"/>
      </g>
     </g>
     <g id="line2d_14">
      <g>
       <use style="fill:#262626;stroke:#262626;stroke-width:0.8;" x="238.68" xlink:href="#mfd004e1bcb" y="77.547035"/>
      </g>
     </g>
     <g id="text_8">
      <!-- 3.0 -->
      <defs>
       <path d="M 40.578125 39.3125 
Q 47.65625 37.796875 51.625 33 
Q 55.609375 28.21875 55.609375 21.1875 
Q 55.609375 10.40625 48.1875 4.484375 
Q 40.765625 -1.421875 27.09375 -1.421875 
Q 22.515625 -1.421875 17.65625 -0.515625 
Q 12.796875 0.390625 7.625 2.203125 
L 7.625 11.71875 
Q 11.71875 9.328125 16.59375 8.109375 
Q 21.484375 6.890625 26.8125 6.890625 
Q 36.078125 6.890625 40.9375 10.546875 
Q 45.796875 14.203125 45.796875 21.1875 
Q 45.796875 27.640625 41.28125 31.265625 
Q 36.765625 34.90625 28.71875 34.90625 
L 20.21875 34.90625 
L 20.21875 43.015625 
L 29.109375 43.015625 
Q 36.375 43.015625 40.234375 45.921875 
Q 44.09375 48.828125 44.09375 54.296875 
Q 44.09375 59.90625 40.109375 62.90625 
Q 36.140625 65.921875 28.71875 65.921875 
Q 24.65625 65.921875 20.015625 65.03125 
Q 15.375 64.15625 9.8125 62.3125 
L 9.8125 71.09375 
Q 15.4375 72.65625 20.34375 73.4375 
Q 25.25 74.21875 29.59375 74.21875 
Q 40.828125 74.21875 47.359375 69.109375 
Q 53.90625 64.015625 53.90625 55.328125 
Q 53.90625 49.265625 50.4375 45.09375 
Q 46.96875 40.921875 40.578125 39.3125 
z
" id="DejaVuSans-33"/>
      </defs>
      <g style="fill:#262626;" transform="translate(26.522813 81.726175)scale(0.11 -0.11)">
       <use xlink:href="#DejaVuSans-33"/>
       <use x="63.623047" xlink:href="#DejaVuSans-2e"/>
       <use x="95.410156" xlink:href="#DejaVuSans-30"/>
      </g>
     </g>
    </g>
    <g id="ytick_5">
     <g id="line2d_15">
      <g>
       <use style="fill:#262626;stroke:#262626;stroke-width:0.8;" x="51.01625" xlink:href="#mbcbc0866c2" y="33.940738"/>
      </g>
     </g>
     <g id="line2d_16">
      <g>
       <use style="fill:#262626;stroke:#262626;stroke-width:0.8;" x="238.68" xlink:href="#mfd004e1bcb" y="33.940738"/>
      </g>
     </g>
     <g id="text_9">
      <!-- 4.0 -->
      <defs>
       <path d="M 37.796875 64.3125 
L 12.890625 25.390625 
L 37.796875 25.390625 
z
M 35.203125 72.90625 
L 47.609375 72.90625 
L 47.609375 25.390625 
L 58.015625 25.390625 
L 58.015625 17.1875 
L 47.609375 17.1875 
L 47.609375 0 
L 37.796875 0 
L 37.796875 17.1875 
L 4.890625 17.1875 
L 4.890625 26.703125 
z
" id="DejaVuSans-34"/>
      </defs>
      <g style="fill:#262626;" transform="translate(26.522813 38.119878)scale(0.11 -0.11)">
       <use xlink:href="#DejaVuSans-34"/>
       <use x="63.623047" xlink:href="#DejaVuSans-2e"/>
       <use x="95.410156" xlink:href="#DejaVuSans-30"/>
      </g>
     </g>
    </g>
    <g id="text_10">
     <!-- log10 counts (ToxA_2) -->
     <defs>
      <path d="M -0.296875 72.90625 
L 61.375 72.90625 
L 61.375 64.59375 
L 35.5 64.59375 
L 35.5 0 
L 25.59375 0 
L 25.59375 64.59375 
L -0.296875 64.59375 
z
" id="DejaVuSans-54"/>
      <path d="M 54.890625 54.6875 
L 35.109375 28.078125 
L 55.90625 0 
L 45.3125 0 
L 29.390625 21.484375 
L 13.484375 0 
L 2.875 0 
L 24.125 28.609375 
L 4.6875 54.6875 
L 15.28125 54.6875 
L 29.78125 35.203125 
L 44.28125 54.6875 
z
" id="DejaVuSans-78"/>
      <path d="M 34.1875 63.1875 
L 20.796875 26.90625 
L 47.609375 26.90625 
z
M 28.609375 72.90625 
L 39.796875 72.90625 
L 67.578125 0 
L 57.328125 0 
L 50.6875 18.703125 
L 17.828125 18.703125 
L 11.1875 0 
L 0.78125 0 
z
" id="DejaVuSans-41"/>
      <path d="M 50.984375 -16.609375 
L 50.984375 -23.578125 
L -0.984375 -23.578125 
L -0.984375 -16.609375 
z
" id="DejaVuSans-5f"/>
     </defs>
     <g transform="translate(19.929219 185.747813)rotate(-90)scale(0.11 -0.11)">
      <use xlink:href="#DejaVuSans-6c"/>
      <use x="27.783203" xlink:href="#DejaVuSans-6f"/>
      <use x="88.964844" xlink:href="#DejaVuSans-67"/>
      <use x="152.441406" xlink:href="#DejaVuSans-31"/>
      <use x="216.064453" xlink:href="#DejaVuSans-30"/>
      <use x="279.6875" xlink:href="#DejaVuSans-20"/>
      <use x="311.474609" xlink:href="#DejaVuSans-63"/>
      <use x="366.455078" xlink:href="#DejaVuSans-6f"/>
      <use x="427.636719" xlink:href="#DejaVuSans-75"/>
      <use x="491.015625" xlink:href="#DejaVuSans-6e"/>
      <use x="554.394531" xlink:href="#DejaVuSans-74"/>
      <use x="593.603516" xlink:href="#DejaVuSans-73"/>
      <use x="645.703125" xlink:href="#DejaVuSans-20"/>
      <use x="677.490234" xlink:href="#DejaVuSans-28"/>
      <use x="716.503906" xlink:href="#DejaVuSans-54"/>
      <use x="777.322266" xlink:href="#DejaVuSans-6f"/>
      <use x="838.457031" xlink:href="#DejaVuSans-78"/>
      <use x="897.636719" xlink:href="#DejaVuSans-41"/>
      <use x="966.044922" xlink:href="#DejaVuSans-5f"/>
      <use x="1016.044922" xlink:href="#DejaVuSans-32"/>
      <use x="1079.667969" xlink:href="#DejaVuSans-29"/>
     </g>
    </g>
   </g>
   <g id="line2d_17">
    <path clip-path="url(#pd5cc0320df)" d="M 51.01625 218.454705 
L 238.68 102.433746 
" style="fill:none;opacity:0.75;stroke:#808080;stroke-dasharray:5.55,2.4;stroke-dashoffset:0;stroke-width:1.5;"/>
   </g>
   <g id="patch_3">
    <path d="M 51.01625 223 
L 51.01625 25.44 
" style="fill:none;stroke:#000000;stroke-linecap:square;stroke-linejoin:miter;stroke-width:0.8;"/>
   </g>
   <g id="patch_4">
    <path d="M 238.68 223 
L 238.68 25.44 
" style="fill:none;stroke:#000000;stroke-linecap:square;stroke-linejoin:miter;stroke-width:0.8;"/>
   </g>
   <g id="patch_5">
    <path d="M 51.01625 223 
L 238.68 223 
" style="fill:none;stroke:#000000;stroke-linecap:square;stroke-linejoin:miter;stroke-width:0.8;"/>
   </g>
   <g id="patch_6">
    <path d="M 51.01625 25.44 
L 238.68 25.44 
" style="fill:none;stroke:#000000;stroke-linecap:square;stroke-linejoin:miter;stroke-width:0.8;"/>
   </g>
   <g id="text_11">
    <!-- sgRNA Density -->
    <defs>
     <path d="M 44.390625 34.1875 
Q 47.5625 33.109375 50.5625 29.59375 
Q 53.5625 26.078125 56.59375 19.921875 
L 66.609375 0 
L 56 0 
L 46.6875 18.703125 
Q 43.0625 26.03125 39.671875 28.421875 
Q 36.28125 30.8125 30.421875 30.8125 
L 19.671875 30.8125 
L 19.671875 0 
L 9.8125 0 
L 9.8125 72.90625 
L 32.078125 72.90625 
Q 44.578125 72.90625 50.734375 67.671875 
Q 56.890625 62.453125 56.890625 51.90625 
Q 56.890625 45.015625 53.6875 40.46875 
Q 50.484375 35.9375 44.390625 34.1875 
z
M 19.671875 64.796875 
L 19.671875 38.921875 
L 32.078125 38.921875 
Q 39.203125 38.921875 42.84375 42.21875 
Q 46.484375 45.515625 46.484375 51.90625 
Q 46.484375 58.296875 42.84375 61.546875 
Q 39.203125 64.796875 32.078125 64.796875 
z
" id="DejaVuSans-52"/>
     <path d="M 9.8125 72.90625 
L 23.09375 72.90625 
L 55.421875 11.921875 
L 55.421875 72.90625 
L 64.984375 72.90625 
L 64.984375 0 
L 51.703125 0 
L 19.390625 60.984375 
L 19.390625 0 
L 9.8125 0 
z
" id="DejaVuSans-4e"/>
     <path d="M 19.671875 64.796875 
L 19.671875 8.109375 
L 31.59375 8.109375 
Q 46.6875 8.109375 53.6875 14.9375 
Q 60.6875 21.78125 60.6875 36.53125 
Q 60.6875 51.171875 53.6875 57.984375 
Q 46.6875 64.796875 31.59375 64.796875 
z
M 9.8125 72.90625 
L 30.078125 72.90625 
Q 51.265625 72.90625 61.171875 64.09375 
Q 71.09375 55.28125 71.09375 36.53125 
Q 71.09375 17.671875 61.125 8.828125 
Q 51.171875 0 30.078125 0 
L 9.8125 0 
z
" id="DejaVuSans-44"/>
     <path d="M 56.203125 29.59375 
L 56.203125 25.203125 
L 14.890625 25.203125 
Q 15.484375 15.921875 20.484375 11.0625 
Q 25.484375 6.203125 34.421875 6.203125 
Q 39.59375 6.203125 44.453125 7.46875 
Q 49.3125 8.734375 54.109375 11.28125 
L 54.109375 2.78125 
Q 49.265625 0.734375 44.1875 -0.34375 
Q 39.109375 -1.421875 33.890625 -1.421875 
Q 20.796875 -1.421875 13.15625 6.1875 
Q 5.515625 13.8125 5.515625 26.8125 
Q 5.515625 40.234375 12.765625 48.109375 
Q 20.015625 56 32.328125 56 
Q 43.359375 56 49.78125 48.890625 
Q 56.203125 41.796875 56.203125 29.59375 
z
M 47.21875 32.234375 
Q 47.125 39.59375 43.09375 43.984375 
Q 39.0625 48.390625 32.421875 48.390625 
Q 24.90625 48.390625 20.390625 44.140625 
Q 15.875 39.890625 15.1875 32.171875 
z
" id="DejaVuSans-65"/>
     <path d="M 9.421875 54.6875 
L 18.40625 54.6875 
L 18.40625 0 
L 9.421875 0 
z
M 9.421875 75.984375 
L 18.40625 75.984375 
L 18.40625 64.59375 
L 9.421875 64.59375 
z
" id="DejaVuSans-69"/>
     <path d="M 32.171875 -5.078125 
Q 28.375 -14.84375 24.75 -17.8125 
Q 21.140625 -20.796875 15.09375 -20.796875 
L 7.90625 -20.796875 
L 7.90625 -13.28125 
L 13.1875 -13.28125 
Q 16.890625 -13.28125 18.9375 -11.515625 
Q 21 -9.765625 23.484375 -3.21875 
L 25.09375 0.875 
L 2.984375 54.6875 
L 12.5 54.6875 
L 29.59375 11.921875 
L 46.6875 54.6875 
L 56.203125 54.6875 
z
" id="DejaVuSans-79"/>
    </defs>
    <g transform="translate(100.434063 19.44)scale(0.12 -0.12)">
     <use xlink:href="#DejaVuSans-73"/>
     <use x="52.099609" xlink:href="#DejaVuSans-67"/>
     <use x="115.576172" xlink:href="#DejaVuSans-52"/>
     <use x="185.058594" xlink:href="#DejaVuSans-4e"/>
     <use x="259.863281" xlink:href="#DejaVuSans-41"/>
     <use x="328.271484" xlink:href="#DejaVuSans-20"/>
     <use x="360.058594" xlink:href="#DejaVuSans-44"/>
     <use x="437.060547" xlink:href="#DejaVuSans-65"/>
     <use x="498.583984" xlink:href="#DejaVuSans-6e"/>
     <use x="561.962891" xlink:href="#DejaVuSans-73"/>
     <use x="614.0625" xlink:href="#DejaVuSans-69"/>
     <use x="641.845703" xlink:href="#DejaVuSans-74"/>
     <use x="681.054688" xlink:href="#DejaVuSans-79"/>
    </g>
   </g>
  </g>
 </g>
 <defs>
  <clipPath id="pd5cc0320df">
   <rect height="197.56" width="187.66375" x="51.01625" y="25.44"/>
  </clipPath>
 </defs>
</svg>
