<?xml version="1.0" encoding="utf-8" standalone="no"?>
<!DOCTYPE svg PUBLIC "-//W3C//DTD SVG 1.1//EN"
  "http://www.w3.org/Graphics/SVG/1.1/DTD/svg11.dtd">
<!-- Created with matplotlib (http://matplotlib.org/) -->
<svg height="266pt" version="1.1" viewBox="0 0 252 266" width="252pt" xmlns="http://www.w3.org/2000/svg" xmlns:xlink="http://www.w3.org/1999/xlink">
 <defs>
  <style type="text/css">
*{stroke-linecap:butt;stroke-linejoin:round;}
  </style>
 </defs>
 <g id="figure_1">
  <g id="patch_1">
   <path d="M 0 266.4 
L 252 266.4 
L 252 0 
L 0 0 
z
" style="fill:#ffffff;"/>
  </g>
  <g id="axes_1">
   <g id="patch_2">
    <path d="M 51.01625 223 
L 238.68 223 
L 238.68 25.44 
L 51.01625 25.44 
z
" style="fill:#ffffff;"/>
   </g>
   <g id="PathCollection_1">
    <path clip-path="url(#p4ed270645f)" d="M 37.884482 227.586498 
L 40.174034 227.586498 
L 42.463586 227.586498 
L 44.753139 227.586498 
L 47.042691 227.586498 
L 49.332243 227.586498 
L 51.621796 227.586498 
L 53.911348 227.586498 
L 56.200901 227.586498 
L 58.490453 227.586498 
L 60.780005 227.586498 
L 63.069558 227.586498 
L 65.35911 227.586498 
L 67.648662 227.586498 
L 69.938215 227.586498 
L 72.227767 227.586498 
L 74.51732 227.586498 
L 76.806872 227.586498 
L 79.096424 227.586498 
L 81.385977 227.586498 
L 83.675529 227.586498 
L 85.965081 227.586498 
L 88.254634 227.586498 
L 90.544186 227.586498 
L 92.833739 227.586498 
L 95.123291 227.586498 
L 97.412843 227.586498 
L 99.702396 227.586498 
L 101.991948 227.586498 
L 104.2815 227.586498 
L 106.571053 227.586498 
L 108.860605 227.586498 
L 111.150158 227.586498 
L 113.43971 227.586498 
L 115.729262 227.586498 
L 118.018815 227.586498 
L 120.308367 227.586498 
L 122.597919 227.586498 
L 124.887472 227.586498 
L 127.177024 227.586498 
L 129.466577 227.586498 
L 131.756129 227.586498 
L 134.045681 227.586498 
L 136.335234 227.586498 
L 138.624786 227.586498 
L 140.914338 227.586498 
L 143.203891 227.586498 
L 145.493443 227.586498 
L 147.782996 227.586498 
L 150.072548 227.586498 
L 152.3621 227.586498 
L 154.651653 227.586498 
L 156.941205 227.586498 
L 159.230757 227.586498 
L 161.52031 227.586498 
L 163.809862 227.586498 
L 166.099415 227.586498 
L 168.388967 227.586498 
L 170.678519 227.586498 
L 172.968072 227.586498 
L 175.257624 227.586498 
L 177.547176 227.586498 
L 179.836729 227.586498 
L 182.126281 227.586498 
L 184.415834 227.586498 
L 186.705386 227.586498 
L 188.994938 227.586498 
L 191.284491 227.586498 
L 193.574043 227.586498 
L 195.863595 227.586498 
L 198.153148 227.586498 
L 200.4427 227.586498 
L 202.732253 227.586498 
L 205.021805 227.586498 
L 207.311357 227.586498 
L 209.60091 227.586498 
L 211.890462 227.586498 
L 214.180014 227.586498 
L 216.469567 227.586498 
L 218.759119 227.586498 
L 221.048672 227.586498 
L 223.338224 227.586498 
L 225.627776 227.586498 
L 227.917329 227.586498 
L 230.206881 227.586498 
L 232.496433 227.586498 
L 234.785986 227.586498 
L 237.075538 227.586498 
L 239.365091 227.586498 
L 241.654643 227.586498 
L 243.944195 227.586498 
L 246.233748 227.586498 
L 248.5233 227.586498 
L 250.812852 227.586498 
L 253.102405 227.586498 
L 255.391957 227.586498 
L 257.68151 227.586498 
L 259.971062 227.586498 
L 262.260614 227.586498 
L 262.260614 225.720014 
L 262.260614 223.85353 
L 262.260614 221.987047 
L 262.260614 220.120563 
L 262.260614 218.254079 
L 262.260614 216.387596 
L 262.260614 214.521112 
L 262.260614 212.654628 
L 262.260614 210.788144 
L 262.260614 208.921661 
L 262.260614 207.055177 
L 262.260614 205.188693 
L 262.260614 203.32221 
L 262.260614 201.455726 
L 262.260614 199.589242 
L 262.260614 197.722759 
L 262.260614 195.856275 
L 262.260614 193.989791 
L 262.260614 192.123308 
L 262.260614 190.256824 
L 262.260614 188.39034 
L 262.260614 186.523857 
L 262.260614 184.657373 
L 262.260614 182.790889 
L 262.260614 180.924406 
L 262.260614 179.057922 
L 262.260614 177.191438 
L 262.260614 175.324955 
L 262.260614 173.458471 
L 262.260614 171.591987 
L 262.260614 169.725504 
L 262.260614 167.85902 
L 262.260614 165.992536 
L 262.260614 164.126053 
L 262.260614 162.259569 
L 262.260614 160.393085 
L 262.260614 158.526602 
L 262.260614 156.660118 
L 262.260614 154.793634 
L 262.260614 152.92715 
L 262.260614 151.060667 
L 262.260614 149.194183 
L 262.260614 147.327699 
L 262.260614 145.461216 
L 262.260614 143.594732 
L 262.260614 141.728248 
L 262.260614 139.861765 
L 262.260614 137.995281 
L 262.260614 136.128797 
L 262.260614 134.262314 
L 262.260614 132.39583 
L 262.260614 130.529346 
L 262.260614 128.662863 
L 262.260614 126.796379 
L 262.260614 124.929895 
L 262.260614 123.063412 
L 262.260614 121.196928 
L 262.260614 119.330444 
L 262.260614 117.463961 
L 262.260614 115.597477 
L 262.260614 113.730993 
L 262.260614 111.86451 
L 262.260614 109.998026 
L 262.260614 108.131542 
L 262.260614 106.265059 
L 262.260614 104.398575 
L 262.260614 102.532091 
L 262.260614 100.665608 
L 262.260614 98.799124 
L 262.260614 96.93264 
L 262.260614 95.066156 
L 262.260614 93.199673 
L 262.260614 91.333189 
L 262.260614 89.466705 
L 262.260614 87.600222 
L 262.260614 85.733738 
L 262.260614 83.867254 
L 262.260614 82.000771 
L 262.260614 80.134287 
L 262.260614 78.267803 
L 262.260614 76.40132 
L 262.260614 74.534836 
L 262.260614 72.668352 
L 262.260614 70.801869 
L 262.260614 68.935385 
L 262.260614 67.068901 
L 262.260614 65.202418 
L 262.260614 63.335934 
L 262.260614 61.46945 
L 262.260614 59.602967 
L 262.260614 57.736483 
L 262.260614 55.869999 
L 262.260614 54.003516 
L 262.260614 52.137032 
L 262.260614 50.270548 
L 262.260614 48.404065 
L 262.260614 46.537581 
L 262.260614 44.671097 
L 262.260614 42.804614 
L 259.971062 42.804614 
L 257.68151 42.804614 
L 255.391957 42.804614 
L 253.102405 42.804614 
L 250.812852 42.804614 
L 248.5233 42.804614 
L 246.233748 42.804614 
L 243.944195 42.804614 
L 241.654643 42.804614 
L 239.365091 42.804614 
L 237.075538 42.804614 
L 234.785986 42.804614 
L 232.496433 42.804614 
L 230.206881 42.804614 
L 227.917329 42.804614 
L 225.627776 42.804614 
L 223.338224 42.804614 
L 221.048672 42.804614 
L 218.759119 42.804614 
L 216.469567 42.804614 
L 214.180014 42.804614 
L 211.890462 42.804614 
L 209.60091 42.804614 
L 207.311357 42.804614 
L 205.021805 42.804614 
L 202.732253 42.804614 
L 200.4427 42.804614 
L 198.153148 42.804614 
L 195.863595 42.804614 
L 193.574043 42.804614 
L 191.284491 42.804614 
L 188.994938 42.804614 
L 186.705386 42.804614 
L 184.415834 42.804614 
L 182.126281 42.804614 
L 179.836729 42.804614 
L 177.547176 42.804614 
L 175.257624 42.804614 
L 172.968072 42.804614 
L 170.678519 42.804614 
L 168.388967 42.804614 
L 166.099415 42.804614 
L 163.809862 42.804614 
L 161.52031 42.804614 
L 159.230757 42.804614 
L 156.941205 42.804614 
L 154.651653 42.804614 
L 152.3621 42.804614 
L 150.072548 42.804614 
L 147.782996 42.804614 
L 145.493443 42.804614 
L 143.203891 42.804614 
L 140.914338 42.804614 
L 138.624786 42.804614 
L 136.335234 42.804614 
L 134.045681 42.804614 
L 131.756129 42.804614 
L 129.466577 42.804614 
L 127.177024 42.804614 
L 124.887472 42.804614 
L 122.597919 42.804614 
L 120.308367 42.804614 
L 118.018815 42.804614 
L 115.729262 42.804614 
L 113.43971 42.804614 
L 111.150158 42.804614 
L 108.860605 42.804614 
L 106.571053 42.804614 
L 104.2815 42.804614 
L 101.991948 42.804614 
L 99.702396 42.804614 
L 97.412843 42.804614 
L 95.123291 42.804614 
L 92.833739 42.804614 
L 90.544186 42.804614 
L 88.254634 42.804614 
L 85.965081 42.804614 
L 83.675529 42.804614 
L 81.385977 42.804614 
L 79.096424 42.804614 
L 76.806872 42.804614 
L 74.51732 42.804614 
L 72.227767 42.804614 
L 69.938215 42.804614 
L 67.648662 42.804614 
L 65.35911 42.804614 
L 63.069558 42.804614 
L 60.780005 42.804614 
L 58.490453 42.804614 
L 56.200901 42.804614 
L 53.911348 42.804614 
L 51.621796 42.804614 
L 49.332243 42.804614 
L 47.042691 42.804614 
L 44.753139 42.804614 
L 42.463586 42.804614 
L 40.174034 42.804614 
L 37.884482 42.804614 
L 35.594929 42.804614 
L 35.594929 44.671097 
L 35.594929 46.537581 
L 35.594929 48.404065 
L 35.594929 50.270548 
L 35.594929 52.137032 
L 35.594929 54.003516 
L 35.594929 55.869999 
L 35.594929 57.736483 
L 35.594929 59.602967 
L 35.594929 61.46945 
L 35.594929 63.335934 
L 35.594929 65.202418 
L 35.594929 67.068901 
L 35.594929 68.935385 
L 35.594929 70.801869 
L 35.594929 72.668352 
L 35.594929 74.534836 
L 35.594929 76.40132 
L 35.594929 78.267803 
L 35.594929 80.134287 
L 35.594929 82.000771 
L 35.594929 83.867254 
L 35.594929 85.733738 
L 35.594929 87.600222 
L 35.594929 89.466705 
L 35.594929 91.333189 
L 35.594929 93.199673 
L 35.594929 95.066156 
L 35.594929 96.93264 
L 35.594929 98.799124 
L 35.594929 100.665608 
L 35.594929 102.532091 
L 35.594929 104.398575 
L 35.594929 106.265059 
L 35.594929 108.131542 
L 35.594929 109.998026 
L 35.594929 111.86451 
L 35.594929 113.730993 
L 35.594929 115.597477 
L 35.594929 117.463961 
L 35.594929 119.330444 
L 35.594929 121.196928 
L 35.594929 123.063412 
L 35.594929 124.929895 
L 35.594929 126.796379 
L 35.594929 128.662863 
L 35.594929 130.529346 
L 35.594929 132.39583 
L 35.594929 134.262314 
L 35.594929 136.128797 
L 35.594929 137.995281 
L 35.594929 139.861765 
L 35.594929 141.728248 
L 35.594929 143.594732 
L 35.594929 145.461216 
L 35.594929 147.327699 
L 35.594929 149.194183 
L 35.594929 151.060667 
L 35.594929 152.92715 
L 35.594929 154.793634 
L 35.594929 156.660118 
L 35.594929 158.526602 
L 35.594929 160.393085 
L 35.594929 162.259569 
L 35.594929 164.126053 
L 35.594929 165.992536 
L 35.594929 167.85902 
L 35.594929 169.725504 
L 35.594929 171.591987 
L 35.594929 173.458471 
L 35.594929 175.324955 
L 35.594929 177.191438 
L 35.594929 179.057922 
L 35.594929 180.924406 
L 35.594929 182.790889 
L 35.594929 184.657373 
L 35.594929 186.523857 
L 35.594929 188.39034 
L 35.594929 190.256824 
L 35.594929 192.123308 
L 35.594929 193.989791 
L 35.594929 195.856275 
L 35.594929 197.722759 
L 35.594929 199.589242 
L 35.594929 201.455726 
L 35.594929 203.32221 
L 35.594929 205.188693 
L 35.594929 207.055177 
L 35.594929 208.921661 
L 35.594929 210.788144 
L 35.594929 212.654628 
L 35.594929 214.521112 
L 35.594929 216.387596 
L 35.594929 218.254079 
L 35.594929 220.120563 
L 35.594929 221.987047 
L 35.594929 223.85353 
L 35.594929 225.720014 
L 35.594929 227.586498 
z
M 68.403882 221.987047 
L 67.648662 221.963162 
L 65.35911 221.807256 
L 63.069558 221.540912 
L 60.780005 221.123806 
L 58.490453 220.490893 
L 57.481062 220.120563 
L 56.200901 219.717139 
L 53.911348 218.712836 
L 53.083989 218.254079 
L 51.621796 217.402197 
L 50.217477 216.387596 
L 49.332243 215.588733 
L 48.229895 214.521112 
L 47.042691 212.766735 
L 46.961216 212.654628 
L 46.060386 210.788144 
L 45.694846 208.921661 
L 45.762785 207.055177 
L 46.274226 205.188693 
L 47.042691 203.789764 
L 47.267064 203.32221 
L 48.661359 201.455726 
L 49.332243 200.795025 
L 50.63691 199.589242 
L 51.621796 198.818264 
L 53.289227 197.722759 
L 53.911348 197.315637 
L 56.200901 196.095422 
L 56.780635 195.856275 
L 58.490453 195.010798 
L 60.780005 194.204729 
L 61.611981 193.989791 
L 63.069558 193.461457 
L 65.35911 192.878571 
L 67.648662 192.503768 
L 69.938215 192.283276 
L 72.227767 192.180844 
L 74.51732 192.169966 
L 76.806872 192.228571 
L 79.096424 192.335526 
L 81.385977 192.469064 
L 83.675529 192.607432 
L 85.965081 192.731515 
L 88.254634 192.828076 
L 90.544186 192.891758 
L 92.833739 192.924725 
L 95.123291 192.934406 
L 97.412843 192.930674 
L 99.702396 192.923641 
L 101.991948 192.922477 
L 104.2815 192.935087 
L 106.571053 192.968328 
L 108.860605 193.028448 
L 111.150158 193.12158 
L 113.43971 193.254191 
L 115.729262 193.433456 
L 118.018815 193.667571 
L 120.308367 193.966019 
L 120.461348 193.989791 
L 122.597919 194.216865 
L 124.887472 194.517475 
L 127.177024 194.886536 
L 129.466577 195.336456 
L 131.654562 195.856275 
L 131.756129 195.874041 
L 134.045681 196.323648 
L 136.335234 196.867829 
L 138.624786 197.527158 
L 139.231369 197.722759 
L 140.914338 198.168976 
L 143.203891 198.888456 
L 145.07125 199.589242 
L 145.493443 199.737176 
L 147.782996 200.628274 
L 149.563391 201.455726 
L 150.072548 201.715013 
L 152.3621 203.012104 
L 152.86076 203.32221 
L 154.651653 204.835398 
L 155.048814 205.188693 
L 156.190021 207.055177 
L 156.266227 208.921661 
L 155.244425 210.788144 
L 154.651653 211.302002 
L 153.010374 212.654628 
L 152.3621 213.016785 
L 150.072548 214.177422 
L 149.311694 214.521112 
L 147.782996 215.108913 
L 145.493443 215.865225 
L 143.611591 216.387596 
L 143.203891 216.50177 
L 140.914338 217.089128 
L 138.624786 217.577895 
L 136.335234 217.986735 
L 134.590693 218.254079 
L 134.045681 218.352864 
L 131.756129 218.728451 
L 129.466577 219.046685 
L 127.177024 219.317072 
L 124.887472 219.547187 
L 122.597919 219.743099 
L 120.308367 219.909717 
L 118.018815 220.051059 
L 116.70886 220.120563 
L 115.729262 220.19297 
L 113.43971 220.338526 
L 111.150158 220.460012 
L 108.860605 220.560705 
L 106.571053 220.643738 
L 104.2815 220.71231 
L 101.991948 220.769953 
L 99.702396 220.820821 
L 97.412843 220.869969 
L 95.123291 220.923468 
L 92.833739 220.988126 
L 90.544186 221.070561 
L 88.254634 221.175504 
L 85.965081 221.303745 
L 83.675529 221.450605 
L 81.385977 221.605996 
L 79.096424 221.756254 
L 76.806872 221.886821 
L 74.51732 221.984312 
L 74.401118 221.987047 
L 72.227767 222.067714 
L 69.938215 222.063 
z
" style="fill:none;"/>
   </g>
   <g id="PathCollection_2">
    <path clip-path="url(#p4ed270645f)" d="M 69.938215 222.063 
L 72.227767 222.067714 
L 74.401118 221.987047 
L 74.51732 221.984312 
L 76.806872 221.886821 
L 79.096424 221.756254 
L 81.385977 221.605996 
L 83.675529 221.450605 
L 85.965081 221.303745 
L 88.254634 221.175504 
L 90.544186 221.070561 
L 92.833739 220.988126 
L 95.123291 220.923468 
L 97.412843 220.869969 
L 99.702396 220.820821 
L 101.991948 220.769953 
L 104.2815 220.71231 
L 106.571053 220.643738 
L 108.860605 220.560705 
L 111.150158 220.460012 
L 113.43971 220.338526 
L 115.729262 220.19297 
L 116.70886 220.120563 
L 118.018815 220.051059 
L 120.308367 219.909717 
L 122.597919 219.743099 
L 124.887472 219.547187 
L 127.177024 219.317072 
L 129.466577 219.046685 
L 131.756129 218.728451 
L 134.045681 218.352864 
L 134.590693 218.254079 
L 136.335234 217.986735 
L 138.624786 217.577895 
L 140.914338 217.089128 
L 143.203891 216.50177 
L 143.611591 216.387596 
L 145.493443 215.865225 
L 147.782996 215.108913 
L 149.311694 214.521112 
L 150.072548 214.177422 
L 152.3621 213.016785 
L 153.010374 212.654628 
L 154.651653 211.302002 
L 155.244425 210.788144 
L 156.266227 208.921661 
L 156.190021 207.055177 
L 155.048814 205.188693 
L 154.651653 204.835398 
L 152.86076 203.32221 
L 152.3621 203.012104 
L 150.072548 201.715013 
L 149.563391 201.455726 
L 147.782996 200.628274 
L 145.493443 199.737176 
L 145.07125 199.589242 
L 143.203891 198.888456 
L 140.914338 198.168976 
L 139.231369 197.722759 
L 138.624786 197.527158 
L 136.335234 196.867829 
L 134.045681 196.323648 
L 131.756129 195.874041 
L 131.654562 195.856275 
L 129.466577 195.336456 
L 127.177024 194.886536 
L 124.887472 194.517475 
L 122.597919 194.216865 
L 120.461348 193.989791 
L 120.308367 193.966019 
L 118.018815 193.667571 
L 115.729262 193.433456 
L 113.43971 193.254191 
L 111.150158 193.12158 
L 108.860605 193.028448 
L 106.571053 192.968328 
L 104.2815 192.935087 
L 101.991948 192.922477 
L 99.702396 192.923641 
L 97.412843 192.930674 
L 95.123291 192.934406 
L 92.833739 192.924725 
L 90.544186 192.891758 
L 88.254634 192.828076 
L 85.965081 192.731515 
L 83.675529 192.607432 
L 81.385977 192.469064 
L 79.096424 192.335526 
L 76.806872 192.228571 
L 74.51732 192.169966 
L 72.227767 192.180844 
L 69.938215 192.283276 
L 67.648662 192.503768 
L 65.35911 192.878571 
L 63.069558 193.461457 
L 61.611981 193.989791 
L 60.780005 194.204729 
L 58.490453 195.010798 
L 56.780635 195.856275 
L 56.200901 196.095422 
L 53.911348 197.315637 
L 53.289227 197.722759 
L 51.621796 198.818264 
L 50.63691 199.589242 
L 49.332243 200.795025 
L 48.661359 201.455726 
L 47.267064 203.32221 
L 47.042691 203.789764 
L 46.274226 205.188693 
L 45.762785 207.055177 
L 45.694846 208.921661 
L 46.060386 210.788144 
L 46.961216 212.654628 
L 47.042691 212.766735 
L 48.229895 214.521112 
L 49.332243 215.588733 
L 50.217477 216.387596 
L 51.621796 217.402197 
L 53.083989 218.254079 
L 53.911348 218.712836 
L 56.200901 219.717139 
L 57.481062 220.120563 
L 58.490453 220.490893 
L 60.780005 221.123806 
L 63.069558 221.540912 
L 65.35911 221.807256 
L 67.648662 221.963162 
L 68.403882 221.987047 
z
M 59.858734 218.254079 
L 58.490453 217.822678 
L 56.200901 216.804337 
L 55.461171 216.387596 
L 53.911348 215.389668 
L 52.79991 214.521112 
L 51.621796 213.237206 
L 51.111205 212.654628 
L 50.083601 210.788144 
L 49.666573 208.921661 
L 49.743939 207.055177 
L 50.326987 205.188693 
L 51.551431 203.32221 
L 51.621796 203.245104 
L 53.349399 201.455726 
L 53.911348 201.008511 
L 56.057271 199.589242 
L 56.200901 199.501295 
L 58.490453 198.319257 
L 60.146648 197.722759 
L 60.780005 197.464099 
L 63.069558 196.753685 
L 65.35911 196.289857 
L 67.648662 196.004622 
L 69.912676 195.856275 
L 69.938215 195.85385 
L 72.227767 195.7891 
L 74.51732 195.85186 
L 74.581736 195.856275 
L 76.806872 195.963247 
L 79.096424 196.122884 
L 81.385977 196.312142 
L 83.675529 196.509539 
L 85.965081 196.695005 
L 88.254634 196.853687 
L 90.544186 196.978669 
L 92.833739 197.071126 
L 95.123291 197.138173 
L 97.412843 197.189837 
L 99.702396 197.236558 
L 101.991948 197.287777 
L 104.2815 197.351504 
L 106.571053 197.434493 
L 108.860605 197.542686 
L 111.150158 197.68171 
L 111.699157 197.722759 
L 113.43971 197.822175 
L 115.729262 197.983549 
L 118.018815 198.181796 
L 120.308367 198.422984 
L 122.597919 198.714237 
L 124.887472 199.06401 
L 127.177024 199.482477 
L 127.694916 199.589242 
L 129.466577 199.913404 
L 131.756129 200.405042 
L 134.045681 200.991824 
L 135.605994 201.455726 
L 136.335234 201.682093 
L 138.624786 202.483046 
L 140.643386 203.32221 
L 140.914338 203.467432 
L 143.203891 204.817947 
L 143.772418 205.188693 
L 145.328152 207.055177 
L 145.447149 208.921661 
L 144.097691 210.788144 
L 143.203891 211.368637 
L 140.996726 212.654628 
L 140.914338 212.688575 
L 138.624786 213.564875 
L 136.335234 214.298044 
L 135.553774 214.521112 
L 134.045681 214.905791 
L 131.756129 215.414758 
L 129.466577 215.846039 
L 127.177024 216.212507 
L 125.927716 216.387596 
L 124.887472 216.543511 
L 122.597919 216.846126 
L 120.308367 217.103493 
L 118.018815 217.321818 
L 115.729262 217.506272 
L 113.43971 217.661254 
L 111.150158 217.790608 
L 108.860605 217.897823 
L 106.571053 217.986234 
L 104.2815 218.059248 
L 101.991948 218.120624 
L 99.702396 218.174786 
L 97.412843 218.227118 
L 96.338013 218.254079 
L 95.123291 218.292915 
L 92.833739 218.38203 
L 90.544186 218.495652 
L 88.254634 218.640309 
L 85.965081 218.817087 
L 83.675529 219.019541 
L 81.385977 219.233763 
L 79.096424 219.440915 
L 76.806872 219.620923 
L 74.51732 219.755332 
L 72.227767 219.828061 
L 69.938215 219.824017 
L 67.648662 219.726129 
L 65.35911 219.511137 
L 63.069558 219.143859 
L 60.780005 218.568689 
z
" style="fill:#fed9c9;"/>
   </g>
   <g id="PathCollection_3">
    <path clip-path="url(#p4ed270645f)" d="M 60.780005 218.568689 
L 63.069558 219.143859 
L 65.35911 219.511137 
L 67.648662 219.726129 
L 69.938215 219.824017 
L 72.227767 219.828061 
L 74.51732 219.755332 
L 76.806872 219.620923 
L 79.096424 219.440915 
L 81.385977 219.233763 
L 83.675529 219.019541 
L 85.965081 218.817087 
L 88.254634 218.640309 
L 90.544186 218.495652 
L 92.833739 218.38203 
L 95.123291 218.292915 
L 96.338013 218.254079 
L 97.412843 218.227118 
L 99.702396 218.174786 
L 101.991948 218.120624 
L 104.2815 218.059248 
L 106.571053 217.986234 
L 108.860605 217.897823 
L 111.150158 217.790608 
L 113.43971 217.661254 
L 115.729262 217.506272 
L 118.018815 217.321818 
L 120.308367 217.103493 
L 122.597919 216.846126 
L 124.887472 216.543511 
L 125.927716 216.387596 
L 127.177024 216.212507 
L 129.466577 215.846039 
L 131.756129 215.414758 
L 134.045681 214.905791 
L 135.553774 214.521112 
L 136.335234 214.298044 
L 138.624786 213.564875 
L 140.914338 212.688575 
L 140.996726 212.654628 
L 143.203891 211.368637 
L 144.097691 210.788144 
L 145.447149 208.921661 
L 145.328152 207.055177 
L 143.772418 205.188693 
L 143.203891 204.817947 
L 140.914338 203.467432 
L 140.643386 203.32221 
L 138.624786 202.483046 
L 136.335234 201.682093 
L 135.605994 201.455726 
L 134.045681 200.991824 
L 131.756129 200.405042 
L 129.466577 199.913404 
L 127.694916 199.589242 
L 127.177024 199.482477 
L 124.887472 199.06401 
L 122.597919 198.714237 
L 120.308367 198.422984 
L 118.018815 198.181796 
L 115.729262 197.983549 
L 113.43971 197.822175 
L 111.699157 197.722759 
L 111.150158 197.68171 
L 108.860605 197.542686 
L 106.571053 197.434493 
L 104.2815 197.351504 
L 101.991948 197.287777 
L 99.702396 197.236558 
L 97.412843 197.189837 
L 95.123291 197.138173 
L 92.833739 197.071126 
L 90.544186 196.978669 
L 88.254634 196.853687 
L 85.965081 196.695005 
L 83.675529 196.509539 
L 81.385977 196.312142 
L 79.096424 196.122884 
L 76.806872 195.963247 
L 74.581736 195.856275 
L 74.51732 195.85186 
L 72.227767 195.7891 
L 69.938215 195.85385 
L 69.912676 195.856275 
L 67.648662 196.004622 
L 65.35911 196.289857 
L 63.069558 196.753685 
L 60.780005 197.464099 
L 60.146648 197.722759 
L 58.490453 198.319257 
L 56.200901 199.501295 
L 56.057271 199.589242 
L 53.911348 201.008511 
L 53.349399 201.455726 
L 51.621796 203.245104 
L 51.551431 203.32221 
L 50.326987 205.188693 
L 49.743939 207.055177 
L 49.666573 208.921661 
L 50.083601 210.788144 
L 51.111205 212.654628 
L 51.621796 213.237206 
L 52.79991 214.521112 
L 53.911348 215.389668 
L 55.461171 216.387596 
L 56.200901 216.804337 
L 58.490453 217.822678 
L 59.858734 218.254079 
z
M 59.833287 216.387596 
L 58.490453 215.828521 
L 56.24869 214.521112 
L 56.200901 214.485493 
L 54.143038 212.654628 
L 53.911348 212.312832 
L 52.903057 210.788144 
L 52.386827 208.921661 
L 52.48241 207.055177 
L 53.203624 205.188693 
L 53.911348 204.235235 
L 54.620022 203.32221 
L 56.200901 201.969497 
L 56.924255 201.455726 
L 58.490453 200.522836 
L 60.660013 199.589242 
L 60.780005 199.537166 
L 63.069558 198.756772 
L 65.35911 198.251549 
L 67.648662 197.946614 
L 69.938215 197.794448 
L 72.227767 197.763664 
L 74.51732 197.831477 
L 76.806872 197.978253 
L 79.096424 198.183602 
L 81.385977 198.424419 
L 83.675529 198.675564 
L 85.965081 198.913244 
L 88.254634 199.119633 
L 90.544186 199.286223 
L 92.833739 199.414118 
L 95.123291 199.511524 
L 97.386636 199.589242 
L 97.412843 199.590001 
L 99.702396 199.649707 
L 101.991948 199.713116 
L 104.2815 199.787949 
L 106.571053 199.880667 
L 108.860605 199.996886 
L 111.150158 200.141848 
L 113.43971 200.320836 
L 115.729262 200.53953 
L 118.018815 200.804298 
L 120.308367 201.122477 
L 122.328351 201.455726 
L 122.597919 201.500457 
L 124.887472 201.931415 
L 127.177024 202.442838 
L 129.466577 203.049201 
L 130.378439 203.32221 
L 131.756129 203.838637 
L 134.045681 204.827743 
L 134.792639 205.188693 
L 136.335234 206.526042 
L 136.90199 207.055177 
L 137.078558 208.921661 
L 136.335234 209.721159 
L 135.284152 210.788144 
L 134.045681 211.393261 
L 131.756129 212.379104 
L 131.039372 212.654628 
L 129.466577 213.097885 
L 127.177024 213.659833 
L 124.887472 214.138176 
L 122.742627 214.521112 
L 122.597919 214.54496 
L 120.308367 214.883641 
L 118.018815 215.170954 
L 115.729262 215.413699 
L 113.43971 215.617663 
L 111.150158 215.787902 
L 108.860605 215.929007 
L 106.571053 216.045364 
L 104.2815 216.141456 
L 101.991948 216.222229 
L 99.702396 216.293508 
L 97.412843 216.36238 
L 96.650684 216.387596 
L 95.123291 216.444276 
L 92.833739 216.547507 
L 90.544186 216.679141 
L 88.254634 216.846746 
L 85.965081 217.051587 
L 83.675529 217.2862 
L 81.385977 217.534467 
L 79.096424 217.774555 
L 76.806872 217.983193 
L 74.51732 218.138984 
L 72.227767 218.22328 
L 69.938215 218.218578 
L 67.648662 218.10508 
L 65.35911 217.855819 
L 63.069558 217.43 
L 60.780005 216.763153 
z
" style="fill:#fcbba1;"/>
   </g>
   <g id="PathCollection_4">
    <path clip-path="url(#p4ed270645f)" d="M 60.780005 216.763153 
L 63.069558 217.43 
L 65.35911 217.855819 
L 67.648662 218.10508 
L 69.938215 218.218578 
L 72.227767 218.22328 
L 74.51732 218.138984 
L 76.806872 217.983193 
L 79.096424 217.774555 
L 81.385977 217.534467 
L 83.675529 217.2862 
L 85.965081 217.051587 
L 88.254634 216.846746 
L 90.544186 216.679141 
L 92.833739 216.547507 
L 95.123291 216.444276 
L 96.650684 216.387596 
L 97.412843 216.36238 
L 99.702396 216.293508 
L 101.991948 216.222229 
L 104.2815 216.141456 
L 106.571053 216.045364 
L 108.860605 215.929007 
L 111.150158 215.787902 
L 113.43971 215.617663 
L 115.729262 215.413699 
L 118.018815 215.170954 
L 120.308367 214.883641 
L 122.597919 214.54496 
L 122.742627 214.521112 
L 124.887472 214.138176 
L 127.177024 213.659833 
L 129.466577 213.097885 
L 131.039372 212.654628 
L 131.756129 212.379104 
L 134.045681 211.393261 
L 135.284152 210.788144 
L 136.335234 209.721159 
L 137.078558 208.921661 
L 136.90199 207.055177 
L 136.335234 206.526042 
L 134.792639 205.188693 
L 134.045681 204.827743 
L 131.756129 203.838637 
L 130.378439 203.32221 
L 129.466577 203.049201 
L 127.177024 202.442838 
L 124.887472 201.931415 
L 122.597919 201.500457 
L 122.328351 201.455726 
L 120.308367 201.122477 
L 118.018815 200.804298 
L 115.729262 200.53953 
L 113.43971 200.320836 
L 111.150158 200.141848 
L 108.860605 199.996886 
L 106.571053 199.880667 
L 104.2815 199.787949 
L 101.991948 199.713116 
L 99.702396 199.649707 
L 97.412843 199.590001 
L 97.386636 199.589242 
L 95.123291 199.511524 
L 92.833739 199.414118 
L 90.544186 199.286223 
L 88.254634 199.119633 
L 85.965081 198.913244 
L 83.675529 198.675564 
L 81.385977 198.424419 
L 79.096424 198.183602 
L 76.806872 197.978253 
L 74.51732 197.831477 
L 72.227767 197.763664 
L 69.938215 197.794448 
L 67.648662 197.946614 
L 65.35911 198.251549 
L 63.069558 198.756772 
L 60.780005 199.537166 
L 60.660013 199.589242 
L 58.490453 200.522836 
L 56.924255 201.455726 
L 56.200901 201.969497 
L 54.620022 203.32221 
L 53.911348 204.235235 
L 53.203624 205.188693 
L 52.48241 207.055177 
L 52.386827 208.921661 
L 52.903057 210.788144 
L 53.911348 212.312832 
L 54.143038 212.654628 
L 56.200901 214.485493 
L 56.24869 214.521112 
L 58.490453 215.828521 
L 59.833287 216.387596 
z
M 64.928998 216.387596 
L 63.069558 215.975187 
L 60.780005 215.193971 
L 59.381987 214.521112 
L 58.490453 213.995332 
L 56.724325 212.654628 
L 56.200901 212.023659 
L 55.266723 210.788144 
L 54.661664 208.921661 
L 54.773458 207.055177 
L 55.618059 205.188693 
L 56.200901 204.501477 
L 57.319862 203.32221 
L 58.490453 202.46659 
L 60.28498 201.455726 
L 60.780005 201.211789 
L 63.069558 200.351312 
L 65.35911 199.796708 
L 66.759274 199.589242 
L 67.648662 199.439976 
L 69.938215 199.246534 
L 72.227767 199.217183 
L 74.51732 199.32178 
L 76.806872 199.534198 
L 77.256693 199.589242 
L 79.096424 199.786559 
L 81.385977 200.07012 
L 83.675529 200.36566 
L 85.965081 200.646015 
L 88.254634 200.890754 
L 90.544186 201.090055 
L 92.833739 201.245071 
L 95.123291 201.365069 
L 97.238568 201.455726 
L 97.412843 201.462987 
L 99.702396 201.549281 
L 101.991948 201.639966 
L 104.2815 201.745105 
L 106.571053 201.873086 
L 108.860605 202.031166 
L 111.150158 202.226069 
L 113.43971 202.46452 
L 115.729262 202.753687 
L 118.018815 203.101566 
L 119.261387 203.32221 
L 120.308367 203.548058 
L 122.597919 204.120314 
L 124.887472 204.798499 
L 126.038833 205.188693 
L 127.177024 205.86083 
L 128.971592 207.055177 
L 129.226839 208.921661 
L 127.177024 210.523112 
L 126.80223 210.788144 
L 124.887472 211.454894 
L 122.597919 212.14128 
L 120.598436 212.654628 
L 120.308367 212.710541 
L 118.018815 213.10223 
L 115.729262 213.433191 
L 113.43971 213.7113 
L 111.150158 213.943445 
L 108.860605 214.135875 
L 106.571053 214.294564 
L 104.2815 214.42562 
L 102.301115 214.521112 
L 101.991948 214.535446 
L 99.702396 214.630396 
L 97.412843 214.722135 
L 95.123291 214.822011 
L 92.833739 214.942762 
L 90.544186 215.096766 
L 88.254634 215.292891 
L 85.965081 215.53263 
L 83.675529 215.807256 
L 81.385977 216.097907 
L 79.096424 216.379019 
L 79.019915 216.387596 
L 76.806872 216.655967 
L 74.51732 216.863644 
L 72.227767 216.976001 
L 69.938215 216.969701 
L 67.648662 216.818345 
L 65.35911 216.485977 
z
" style="fill:#fc9b7c;"/>
   </g>
   <g id="PathCollection_5">
    <path clip-path="url(#p4ed270645f)" d="M 65.35911 216.485977 
L 67.648662 216.818345 
L 69.938215 216.969701 
L 72.227767 216.976001 
L 74.51732 216.863644 
L 76.806872 216.655967 
L 79.019915 216.387596 
L 79.096424 216.379019 
L 81.385977 216.097907 
L 83.675529 215.807256 
L 85.965081 215.53263 
L 88.254634 215.292891 
L 90.544186 215.096766 
L 92.833739 214.942762 
L 95.123291 214.822011 
L 97.412843 214.722135 
L 99.702396 214.630396 
L 101.991948 214.535446 
L 102.301115 214.521112 
L 104.2815 214.42562 
L 106.571053 214.294564 
L 108.860605 214.135875 
L 111.150158 213.943445 
L 113.43971 213.7113 
L 115.729262 213.433191 
L 118.018815 213.10223 
L 120.308367 212.710541 
L 120.598436 212.654628 
L 122.597919 212.14128 
L 124.887472 211.454894 
L 126.80223 210.788144 
L 127.177024 210.523112 
L 129.226839 208.921661 
L 128.971592 207.055177 
L 127.177024 205.86083 
L 126.038833 205.188693 
L 124.887472 204.798499 
L 122.597919 204.120314 
L 120.308367 203.548058 
L 119.261387 203.32221 
L 118.018815 203.101566 
L 115.729262 202.753687 
L 113.43971 202.46452 
L 111.150158 202.226069 
L 108.860605 202.031166 
L 106.571053 201.873086 
L 104.2815 201.745105 
L 101.991948 201.639966 
L 99.702396 201.549281 
L 97.412843 201.462987 
L 97.238568 201.455726 
L 95.123291 201.365069 
L 92.833739 201.245071 
L 90.544186 201.090055 
L 88.254634 200.890754 
L 85.965081 200.646015 
L 83.675529 200.36566 
L 81.385977 200.07012 
L 79.096424 199.786559 
L 77.256693 199.589242 
L 76.806872 199.534198 
L 74.51732 199.32178 
L 72.227767 199.217183 
L 69.938215 199.246534 
L 67.648662 199.439976 
L 66.759274 199.589242 
L 65.35911 199.796708 
L 63.069558 200.351312 
L 60.780005 201.211789 
L 60.28498 201.455726 
L 58.490453 202.46659 
L 57.319862 203.32221 
L 56.200901 204.501477 
L 55.618059 205.188693 
L 54.773458 207.055177 
L 54.661664 208.921661 
L 55.266723 210.788144 
L 56.200901 212.023659 
L 56.724325 212.654628 
L 58.490453 213.995332 
L 59.381987 214.521112 
L 60.780005 215.193971 
L 63.069558 215.975187 
L 64.928998 216.387596 
z
M 62.737499 214.521112 
L 60.780005 213.64846 
L 59.193603 212.654628 
L 58.490453 211.983963 
L 57.43074 210.788144 
L 56.719118 208.921661 
L 56.850284 207.055177 
L 57.84261 205.188693 
L 58.490453 204.536386 
L 59.944269 203.32221 
L 60.780005 202.817263 
L 63.069558 201.789981 
L 64.17267 201.455726 
L 65.35911 201.115158 
L 67.648662 200.705456 
L 69.938215 200.51044 
L 72.227767 200.487144 
L 74.51732 200.604372 
L 76.806872 200.834977 
L 79.096424 201.150301 
L 81.020131 201.455726 
L 81.385977 201.514678 
L 83.675529 201.88042 
L 85.965081 202.227715 
L 88.254634 202.531661 
L 90.544186 202.780256 
L 92.833739 202.974851 
L 95.123291 203.126667 
L 97.412843 203.251806 
L 98.820049 203.32221 
L 99.702396 203.374145 
L 101.991948 203.513681 
L 104.2815 203.674064 
L 106.571053 203.867584 
L 108.860605 204.10485 
L 111.150158 204.395658 
L 113.43971 204.74976 
L 115.729262 205.17751 
L 115.781324 205.188693 
L 118.018815 206.005279 
L 120.308367 207.001198 
L 120.418455 207.055177 
L 120.807871 208.921661 
L 120.308367 209.213462 
L 118.018815 210.396398 
L 117.144777 210.788144 
L 115.729262 211.106486 
L 113.43971 211.546058 
L 111.150158 211.913085 
L 108.860605 212.217402 
L 106.571053 212.468419 
L 104.51882 212.654628 
L 104.2815 212.671309 
L 101.991948 212.808805 
L 99.702396 212.930117 
L 97.412843 213.047331 
L 95.123291 213.17497 
L 92.833739 213.32934 
L 90.544186 213.5263 
L 88.254634 213.777224 
L 85.965081 214.084056 
L 83.675529 214.435657 
L 83.171566 214.521112 
L 81.385977 214.800918 
L 79.096424 215.152193 
L 76.806872 215.457483 
L 74.51732 215.68545 
L 72.227767 215.808775 
L 69.938215 215.801815 
L 67.648662 215.635561 
L 65.35911 215.270514 
L 63.069558 214.646924 
z
" style="fill:#fb7a5a;"/>
   </g>
   <g id="PathCollection_6">
    <path clip-path="url(#p4ed270645f)" d="M 63.069558 214.646924 
L 65.35911 215.270514 
L 67.648662 215.635561 
L 69.938215 215.801815 
L 72.227767 215.808775 
L 74.51732 215.68545 
L 76.806872 215.457483 
L 79.096424 215.152193 
L 81.385977 214.800918 
L 83.171566 214.521112 
L 83.675529 214.435657 
L 85.965081 214.084056 
L 88.254634 213.777224 
L 90.544186 213.5263 
L 92.833739 213.32934 
L 95.123291 213.17497 
L 97.412843 213.047331 
L 99.702396 212.930117 
L 101.991948 212.808805 
L 104.2815 212.671309 
L 104.51882 212.654628 
L 106.571053 212.468419 
L 108.860605 212.217402 
L 111.150158 211.913085 
L 113.43971 211.546058 
L 115.729262 211.106486 
L 117.144777 210.788144 
L 118.018815 210.396398 
L 120.308367 209.213462 
L 120.807871 208.921661 
L 120.418455 207.055177 
L 120.308367 207.001198 
L 118.018815 206.005279 
L 115.781324 205.188693 
L 115.729262 205.17751 
L 113.43971 204.74976 
L 111.150158 204.395658 
L 108.860605 204.10485 
L 106.571053 203.867584 
L 104.2815 203.674064 
L 101.991948 203.513681 
L 99.702396 203.374145 
L 98.820049 203.32221 
L 97.412843 203.251806 
L 95.123291 203.126667 
L 92.833739 202.974851 
L 90.544186 202.780256 
L 88.254634 202.531661 
L 85.965081 202.227715 
L 83.675529 201.88042 
L 81.385977 201.514678 
L 81.020131 201.455726 
L 79.096424 201.150301 
L 76.806872 200.834977 
L 74.51732 200.604372 
L 72.227767 200.487144 
L 69.938215 200.51044 
L 67.648662 200.705456 
L 65.35911 201.115158 
L 64.17267 201.455726 
L 63.069558 201.789981 
L 60.780005 202.817263 
L 59.944269 203.32221 
L 58.490453 204.536386 
L 57.84261 205.188693 
L 56.850284 207.055177 
L 56.719118 208.921661 
L 57.43074 210.788144 
L 58.490453 211.983963 
L 59.193603 212.654628 
L 60.780005 213.64846 
L 62.737499 214.521112 
z
M 67.827527 214.521112 
L 67.648662 214.504677 
L 65.35911 214.055334 
L 63.069558 213.287725 
L 61.785834 212.654628 
L 60.780005 211.929453 
L 59.554402 210.788144 
L 58.687992 208.921661 
L 58.847229 207.055177 
L 60.053797 205.188693 
L 60.780005 204.584541 
L 62.774941 203.32221 
L 63.069558 203.181736 
L 65.35911 202.392006 
L 67.648662 201.924746 
L 69.938215 201.705082 
L 72.227767 201.683746 
L 74.51732 201.82494 
L 76.806872 202.097426 
L 79.096424 202.468104 
L 81.385977 202.898771 
L 83.554081 203.32221 
L 83.675529 203.351317 
L 85.965081 203.844954 
L 88.254634 204.27777 
L 90.544186 204.632803 
L 92.833739 204.911863 
L 95.123291 205.13065 
L 95.865983 205.188693 
L 97.412843 205.388022 
L 99.702396 205.658713 
L 101.991948 205.941167 
L 104.2815 206.264389 
L 106.571053 206.652586 
L 108.522395 207.055177 
L 108.860605 207.693261 
L 109.413951 208.921661 
L 108.860605 209.087264 
L 106.571053 209.663807 
L 104.2815 210.140568 
L 101.991948 210.541861 
L 100.408408 210.788144 
L 99.702396 210.844324 
L 97.412843 211.022088 
L 95.123291 211.215772 
L 92.833739 211.450217 
L 90.544186 211.74962 
L 88.254634 212.131405 
L 85.965081 212.598664 
L 85.73612 212.654628 
L 83.675529 213.032196 
L 81.385977 213.478568 
L 79.096424 213.910422 
L 76.806872 214.285841 
L 74.898181 214.521112 
L 74.51732 214.565115 
L 72.227767 214.713041 
L 69.938215 214.704635 
z
" style="fill:#f6583e;"/>
   </g>
   <g id="PathCollection_7">
    <path clip-path="url(#p4ed270645f)" d="M 69.938215 214.704635 
L 72.227767 214.713041 
L 74.51732 214.565115 
L 74.898181 214.521112 
L 76.806872 214.285841 
L 79.096424 213.910422 
L 81.385977 213.478568 
L 83.675529 213.032196 
L 85.73612 212.654628 
L 85.965081 212.598664 
L 88.254634 212.131405 
L 90.544186 211.74962 
L 92.833739 211.450217 
L 95.123291 211.215772 
L 97.412843 211.022088 
L 99.702396 210.844324 
L 100.408408 210.788144 
L 101.991948 210.541861 
L 104.2815 210.140568 
L 106.571053 209.663807 
L 108.860605 209.087264 
L 109.413951 208.921661 
L 108.860605 207.693261 
L 108.522395 207.055177 
L 106.571053 206.652586 
L 104.2815 206.264389 
L 101.991948 205.941167 
L 99.702396 205.658713 
L 97.412843 205.388022 
L 95.865983 205.188693 
L 95.123291 205.13065 
L 92.833739 204.911863 
L 90.544186 204.632803 
L 88.254634 204.27777 
L 85.965081 203.844954 
L 83.675529 203.351317 
L 83.554081 203.32221 
L 81.385977 202.898771 
L 79.096424 202.468104 
L 76.806872 202.097426 
L 74.51732 201.82494 
L 72.227767 201.683746 
L 69.938215 201.705082 
L 67.648662 201.924746 
L 65.35911 202.392006 
L 63.069558 203.181736 
L 62.774941 203.32221 
L 60.780005 204.584541 
L 60.053797 205.188693 
L 58.847229 207.055177 
L 58.687992 208.921661 
L 59.554402 210.788144 
L 60.780005 211.929453 
L 61.785834 212.654628 
L 63.069558 213.287725 
L 65.35911 214.055334 
L 67.648662 214.504677 
L 67.827527 214.521112 
z
M 64.898815 212.654628 
L 63.069558 211.725217 
L 61.791265 210.788144 
L 60.780005 209.114092 
L 60.68213 208.921661 
L 60.780005 207.92924 
L 60.876665 207.055177 
L 62.432984 205.188693 
L 63.069558 204.771083 
L 65.35911 203.706816 
L 66.727898 203.32221 
L 67.648662 203.112057 
L 69.938215 202.859335 
L 72.227767 202.838838 
L 74.51732 203.008889 
L 76.733333 203.32221 
L 76.806872 203.334775 
L 79.096424 203.843763 
L 81.385977 204.434518 
L 83.675529 205.049806 
L 84.241013 205.188693 
L 85.965081 205.909226 
L 88.254634 206.739892 
L 89.330632 207.055177 
L 90.104844 208.921661 
L 88.254634 209.612397 
L 85.965081 210.668291 
L 85.748561 210.788144 
L 83.675529 211.350609 
L 81.385977 212.01196 
L 79.096424 212.652328 
L 79.087435 212.654628 
L 76.806872 213.090575 
L 74.51732 213.41749 
L 72.227767 213.594294 
L 69.938215 213.58411 
L 67.648662 213.345236 
L 65.35911 212.820908 
z
" style="fill:#e83429;"/>
   </g>
   <g id="PathCollection_8">
    <path clip-path="url(#p4ed270645f)" d="M 65.35911 212.820908 
L 67.648662 213.345236 
L 69.938215 213.58411 
L 72.227767 213.594294 
L 74.51732 213.41749 
L 76.806872 213.090575 
L 79.087435 212.654628 
L 79.096424 212.652328 
L 81.385977 212.01196 
L 83.675529 211.350609 
L 85.748561 210.788144 
L 85.965081 210.668291 
L 88.254634 209.612397 
L 90.104844 208.921661 
L 89.330632 207.055177 
L 88.254634 206.739892 
L 85.965081 205.909226 
L 84.241013 205.188693 
L 83.675529 205.049806 
L 81.385977 204.434518 
L 79.096424 203.843763 
L 76.806872 203.334775 
L 76.733333 203.32221 
L 74.51732 203.008889 
L 72.227767 202.838838 
L 69.938215 202.859335 
L 67.648662 203.112057 
L 66.727898 203.32221 
L 65.35911 203.706816 
L 63.069558 204.771083 
L 62.432984 205.188693 
L 60.876665 207.055177 
L 60.780005 207.92924 
L 60.68213 208.921661 
L 60.780005 209.114092 
L 61.791265 210.788144 
L 63.069558 211.725217 
L 64.898815 212.654628 
z
M 64.417742 210.788144 
L 63.069558 209.215771 
L 62.87948 208.921661 
L 63.069558 207.397063 
L 63.122913 207.055177 
L 65.317226 205.188693 
L 65.35911 205.168514 
L 67.648662 204.453667 
L 69.938215 204.122758 
L 72.227767 204.099994 
L 74.51732 204.330303 
L 76.806872 204.765498 
L 78.477375 205.188693 
L 79.096424 205.455353 
L 81.385977 206.556232 
L 82.413937 207.055177 
L 82.903946 208.921661 
L 81.385977 209.87796 
L 79.953685 210.788144 
L 79.096424 211.05246 
L 76.806872 211.688291 
L 74.51732 212.163382 
L 72.227767 212.420359 
L 69.938215 212.405319 
L 67.648662 212.05735 
L 65.35911 211.293633 
z
" style="fill:#ca181d;"/>
   </g>
   <g id="PathCollection_9">
    <path clip-path="url(#p4ed270645f)" d="M 65.35911 211.293633 
L 67.648662 212.05735 
L 69.938215 212.405319 
L 72.227767 212.420359 
L 74.51732 212.163382 
L 76.806872 211.688291 
L 79.096424 211.05246 
L 79.953685 210.788144 
L 81.385977 209.87796 
L 82.903946 208.921661 
L 82.413937 207.055177 
L 81.385977 206.556232 
L 79.096424 205.455353 
L 78.477375 205.188693 
L 76.806872 204.765498 
L 74.51732 204.330303 
L 72.227767 204.099994 
L 69.938215 204.122758 
L 67.648662 204.453667 
L 65.35911 205.168514 
L 65.317226 205.188693 
L 63.122913 207.055177 
L 63.069558 207.397063 
L 62.87948 208.921661 
L 63.069558 209.215771 
L 64.417742 210.788144 
z
M 68.84613 210.788144 
L 67.648662 210.379555 
L 65.6574 208.921661 
L 66.124609 207.055177 
L 67.648662 206.216169 
L 69.938215 205.623407 
L 72.227767 205.588573 
L 74.51732 206.012922 
L 76.806872 206.810142 
L 77.349782 207.055177 
L 77.904169 208.921661 
L 76.806872 209.572899 
L 74.51732 210.617303 
L 73.836014 210.788144 
L 72.227767 210.989496 
L 69.938215 210.972105 
z
" style="fill:#ac1117;"/>
   </g>
   <g id="PathCollection_10">
    <path clip-path="url(#p4ed270645f)" d="M 69.938215 210.972105 
L 72.227767 210.989496 
L 73.836014 210.788144 
L 74.51732 210.617303 
L 76.806872 209.572899 
L 77.904169 208.921661 
L 77.349782 207.055177 
L 76.806872 206.810142 
L 74.51732 206.012922 
L 72.227767 205.588573 
L 69.938215 205.623407 
L 67.648662 206.216169 
L 66.124609 207.055177 
L 65.6574 208.921661 
L 67.648662 210.379555 
L 68.84613 210.788144 
z
" style="fill:#7e0610;"/>
   </g>
   <g id="matplotlib.axis_1">
    <g id="xtick_1">
     <g id="line2d_1">
      <defs>
       <path d="M 0 0 
L 0 3.5 
" id="m235c621a5a" style="stroke:#262626;stroke-width:0.8;"/>
      </defs>
      <g>
       <use style="fill:#262626;stroke:#262626;stroke-width:0.8;" x="67.334837" xlink:href="#m235c621a5a" y="223"/>
      </g>
     </g>
     <g id="line2d_2">
      <defs>
       <path d="M 0 0 
L 0 -3.5 
" id="m239d44acf4" style="stroke:#262626;stroke-width:0.8;"/>
      </defs>
      <g>
       <use style="fill:#262626;stroke:#262626;stroke-width:0.8;" x="67.334837" xlink:href="#m239d44acf4" y="25.44"/>
      </g>
     </g>
     <g id="text_1">
      <!-- 0.0 -->
      <defs>
       <path d="M 31.78125 66.40625 
Q 24.171875 66.40625 20.328125 58.90625 
Q 16.5 51.421875 16.5 36.375 
Q 16.5 21.390625 20.328125 13.890625 
Q 24.171875 6.390625 31.78125 6.390625 
Q 39.453125 6.390625 43.28125 13.890625 
Q 47.125 21.390625 47.125 36.375 
Q 47.125 51.421875 43.28125 58.90625 
Q 39.453125 66.40625 31.78125 66.40625 
z
M 31.78125 74.21875 
Q 44.046875 74.21875 50.515625 64.515625 
Q 56.984375 54.828125 56.984375 36.375 
Q 56.984375 17.96875 50.515625 8.265625 
Q 44.046875 -1.421875 31.78125 -1.421875 
Q 19.53125 -1.421875 13.0625 8.265625 
Q 6.59375 17.96875 6.59375 36.375 
Q 6.59375 54.828125 13.0625 64.515625 
Q 19.53125 74.21875 31.78125 74.21875 
z
" id="DejaVuSans-30"/>
       <path d="M 10.6875 12.40625 
L 21 12.40625 
L 21 0 
L 10.6875 0 
z
" id="DejaVuSans-2e"/>
      </defs>
      <g style="fill:#262626;" transform="translate(58.588118 238.358281)scale(0.11 -0.11)">
       <use xlink:href="#DejaVuSans-30"/>
       <use x="63.623047" xlink:href="#DejaVuSans-2e"/>
       <use x="95.410156" xlink:href="#DejaVuSans-30"/>
      </g>
     </g>
    </g>
    <g id="xtick_2">
     <g id="line2d_3">
      <g>
       <use style="fill:#262626;stroke:#262626;stroke-width:0.8;" x="137.867965" xlink:href="#m235c621a5a" y="223"/>
      </g>
     </g>
     <g id="line2d_4">
      <g>
       <use style="fill:#262626;stroke:#262626;stroke-width:0.8;" x="137.867965" xlink:href="#m239d44acf4" y="25.44"/>
      </g>
     </g>
     <g id="text_2">
      <!-- 1.0 -->
      <defs>
       <path d="M 12.40625 8.296875 
L 28.515625 8.296875 
L 28.515625 63.921875 
L 10.984375 60.40625 
L 10.984375 69.390625 
L 28.421875 72.90625 
L 38.28125 72.90625 
L 38.28125 8.296875 
L 54.390625 8.296875 
L 54.390625 0 
L 12.40625 0 
z
" id="DejaVuSans-31"/>
      </defs>
      <g style="fill:#262626;" transform="translate(129.121247 238.358281)scale(0.11 -0.11)">
       <use xlink:href="#DejaVuSans-31"/>
       <use x="63.623047" xlink:href="#DejaVuSans-2e"/>
       <use x="95.410156" xlink:href="#DejaVuSans-30"/>
      </g>
     </g>
    </g>
    <g id="xtick_3">
     <g id="line2d_5">
      <g>
       <use style="fill:#262626;stroke:#262626;stroke-width:0.8;" x="208.401094" xlink:href="#m235c621a5a" y="223"/>
      </g>
     </g>
     <g id="line2d_6">
      <g>
       <use style="fill:#262626;stroke:#262626;stroke-width:0.8;" x="208.401094" xlink:href="#m239d44acf4" y="25.44"/>
      </g>
     </g>
     <g id="text_3">
      <!-- 2.0 -->
      <defs>
       <path d="M 19.1875 8.296875 
L 53.609375 8.296875 
L 53.609375 0 
L 7.328125 0 
L 7.328125 8.296875 
Q 12.9375 14.109375 22.625 23.890625 
Q 32.328125 33.6875 34.8125 36.53125 
Q 39.546875 41.84375 41.421875 45.53125 
Q 43.3125 49.21875 43.3125 52.78125 
Q 43.3125 58.59375 39.234375 62.25 
Q 35.15625 65.921875 28.609375 65.921875 
Q 23.96875 65.921875 18.8125 64.3125 
Q 13.671875 62.703125 7.8125 59.421875 
L 7.8125 69.390625 
Q 13.765625 71.78125 18.9375 73 
Q 24.125 74.21875 28.421875 74.21875 
Q 39.75 74.21875 46.484375 68.546875 
Q 53.21875 62.890625 53.21875 53.421875 
Q 53.21875 48.921875 51.53125 44.890625 
Q 49.859375 40.875 45.40625 35.40625 
Q 44.1875 33.984375 37.640625 27.21875 
Q 31.109375 20.453125 19.1875 8.296875 
z
" id="DejaVuSans-32"/>
      </defs>
      <g style="fill:#262626;" transform="translate(199.654375 238.358281)scale(0.11 -0.11)">
       <use xlink:href="#DejaVuSans-32"/>
       <use x="63.623047" xlink:href="#DejaVuSans-2e"/>
       <use x="95.410156" xlink:href="#DejaVuSans-30"/>
      </g>
     </g>
    </g>
    <g id="text_4">
     <!-- log10 counts (Control) -->
     <defs>
      <path d="M 9.421875 75.984375 
L 18.40625 75.984375 
L 18.40625 0 
L 9.421875 0 
z
" id="DejaVuSans-6c"/>
      <path d="M 30.609375 48.390625 
Q 23.390625 48.390625 19.1875 42.75 
Q 14.984375 37.109375 14.984375 27.296875 
Q 14.984375 17.484375 19.15625 11.84375 
Q 23.34375 6.203125 30.609375 6.203125 
Q 37.796875 6.203125 41.984375 11.859375 
Q 46.1875 17.53125 46.1875 27.296875 
Q 46.1875 37.015625 41.984375 42.703125 
Q 37.796875 48.390625 30.609375 48.390625 
z
M 30.609375 56 
Q 42.328125 56 49.015625 48.375 
Q 55.71875 40.765625 55.71875 27.296875 
Q 55.71875 13.875 49.015625 6.21875 
Q 42.328125 -1.421875 30.609375 -1.421875 
Q 18.84375 -1.421875 12.171875 6.21875 
Q 5.515625 13.875 5.515625 27.296875 
Q 5.515625 40.765625 12.171875 48.375 
Q 18.84375 56 30.609375 56 
z
" id="DejaVuSans-6f"/>
      <path d="M 45.40625 27.984375 
Q 45.40625 37.75 41.375 43.109375 
Q 37.359375 48.484375 30.078125 48.484375 
Q 22.859375 48.484375 18.828125 43.109375 
Q 14.796875 37.75 14.796875 27.984375 
Q 14.796875 18.265625 18.828125 12.890625 
Q 22.859375 7.515625 30.078125 7.515625 
Q 37.359375 7.515625 41.375 12.890625 
Q 45.40625 18.265625 45.40625 27.984375 
z
M 54.390625 6.78125 
Q 54.390625 -7.171875 48.1875 -13.984375 
Q 42 -20.796875 29.203125 -20.796875 
Q 24.46875 -20.796875 20.265625 -20.09375 
Q 16.0625 -19.390625 12.109375 -17.921875 
L 12.109375 -9.1875 
Q 16.0625 -11.328125 19.921875 -12.34375 
Q 23.78125 -13.375 27.78125 -13.375 
Q 36.625 -13.375 41.015625 -8.765625 
Q 45.40625 -4.15625 45.40625 5.171875 
L 45.40625 9.625 
Q 42.625 4.78125 38.28125 2.390625 
Q 33.9375 0 27.875 0 
Q 17.828125 0 11.671875 7.65625 
Q 5.515625 15.328125 5.515625 27.984375 
Q 5.515625 40.671875 11.671875 48.328125 
Q 17.828125 56 27.875 56 
Q 33.9375 56 38.28125 53.609375 
Q 42.625 51.21875 45.40625 46.390625 
L 45.40625 54.6875 
L 54.390625 54.6875 
z
" id="DejaVuSans-67"/>
      <path id="DejaVuSans-20"/>
      <path d="M 48.78125 52.59375 
L 48.78125 44.1875 
Q 44.96875 46.296875 41.140625 47.34375 
Q 37.3125 48.390625 33.40625 48.390625 
Q 24.65625 48.390625 19.8125 42.84375 
Q 14.984375 37.3125 14.984375 27.296875 
Q 14.984375 17.28125 19.8125 11.734375 
Q 24.65625 6.203125 33.40625 6.203125 
Q 37.3125 6.203125 41.140625 7.25 
Q 44.96875 8.296875 48.78125 10.40625 
L 48.78125 2.09375 
Q 45.015625 0.34375 40.984375 -0.53125 
Q 36.96875 -1.421875 32.421875 -1.421875 
Q 20.0625 -1.421875 12.78125 6.34375 
Q 5.515625 14.109375 5.515625 27.296875 
Q 5.515625 40.671875 12.859375 48.328125 
Q 20.21875 56 33.015625 56 
Q 37.15625 56 41.109375 55.140625 
Q 45.0625 54.296875 48.78125 52.59375 
z
" id="DejaVuSans-63"/>
      <path d="M 8.5 21.578125 
L 8.5 54.6875 
L 17.484375 54.6875 
L 17.484375 21.921875 
Q 17.484375 14.15625 20.5 10.265625 
Q 23.53125 6.390625 29.59375 6.390625 
Q 36.859375 6.390625 41.078125 11.03125 
Q 45.3125 15.671875 45.3125 23.6875 
L 45.3125 54.6875 
L 54.296875 54.6875 
L 54.296875 0 
L 45.3125 0 
L 45.3125 8.40625 
Q 42.046875 3.421875 37.71875 1 
Q 33.40625 -1.421875 27.6875 -1.421875 
Q 18.265625 -1.421875 13.375 4.4375 
Q 8.5 10.296875 8.5 21.578125 
z
M 31.109375 56 
z
" id="DejaVuSans-75"/>
      <path d="M 54.890625 33.015625 
L 54.890625 0 
L 45.90625 0 
L 45.90625 32.71875 
Q 45.90625 40.484375 42.875 44.328125 
Q 39.84375 48.1875 33.796875 48.1875 
Q 26.515625 48.1875 22.3125 43.546875 
Q 18.109375 38.921875 18.109375 30.90625 
L 18.109375 0 
L 9.078125 0 
L 9.078125 54.6875 
L 18.109375 54.6875 
L 18.109375 46.1875 
Q 21.34375 51.125 25.703125 53.5625 
Q 30.078125 56 35.796875 56 
Q 45.21875 56 50.046875 50.171875 
Q 54.890625 44.34375 54.890625 33.015625 
z
" id="DejaVuSans-6e"/>
      <path d="M 18.3125 70.21875 
L 18.3125 54.6875 
L 36.8125 54.6875 
L 36.8125 47.703125 
L 18.3125 47.703125 
L 18.3125 18.015625 
Q 18.3125 11.328125 20.140625 9.421875 
Q 21.96875 7.515625 27.59375 7.515625 
L 36.8125 7.515625 
L 36.8125 0 
L 27.59375 0 
Q 17.1875 0 13.234375 3.875 
Q 9.28125 7.765625 9.28125 18.015625 
L 9.28125 47.703125 
L 2.6875 47.703125 
L 2.6875 54.6875 
L 9.28125 54.6875 
L 9.28125 70.21875 
z
" id="DejaVuSans-74"/>
      <path d="M 44.28125 53.078125 
L 44.28125 44.578125 
Q 40.484375 46.53125 36.375 47.5 
Q 32.28125 48.484375 27.875 48.484375 
Q 21.1875 48.484375 17.84375 46.4375 
Q 14.5 44.390625 14.5 40.28125 
Q 14.5 37.15625 16.890625 35.375 
Q 19.28125 33.59375 26.515625 31.984375 
L 29.59375 31.296875 
Q 39.15625 29.25 43.1875 25.515625 
Q 47.21875 21.78125 47.21875 15.09375 
Q 47.21875 7.46875 41.1875 3.015625 
Q 35.15625 -1.421875 24.609375 -1.421875 
Q 20.21875 -1.421875 15.453125 -0.5625 
Q 10.6875 0.296875 5.421875 2 
L 5.421875 11.28125 
Q 10.40625 8.6875 15.234375 7.390625 
Q 20.0625 6.109375 24.8125 6.109375 
Q 31.15625 6.109375 34.5625 8.28125 
Q 37.984375 10.453125 37.984375 14.40625 
Q 37.984375 18.0625 35.515625 20.015625 
Q 33.0625 21.96875 24.703125 23.78125 
L 21.578125 24.515625 
Q 13.234375 26.265625 9.515625 29.90625 
Q 5.8125 33.546875 5.8125 39.890625 
Q 5.8125 47.609375 11.28125 51.796875 
Q 16.75 56 26.8125 56 
Q 31.78125 56 36.171875 55.265625 
Q 40.578125 54.546875 44.28125 53.078125 
z
" id="DejaVuSans-73"/>
      <path d="M 31 75.875 
Q 24.46875 64.65625 21.28125 53.65625 
Q 18.109375 42.671875 18.109375 31.390625 
Q 18.109375 20.125 21.3125 9.0625 
Q 24.515625 -2 31 -13.1875 
L 23.1875 -13.1875 
Q 15.875 -1.703125 12.234375 9.375 
Q 8.59375 20.453125 8.59375 31.390625 
Q 8.59375 42.28125 12.203125 53.3125 
Q 15.828125 64.359375 23.1875 75.875 
z
" id="DejaVuSans-28"/>
      <path d="M 64.40625 67.28125 
L 64.40625 56.890625 
Q 59.421875 61.53125 53.78125 63.8125 
Q 48.140625 66.109375 41.796875 66.109375 
Q 29.296875 66.109375 22.65625 58.46875 
Q 16.015625 50.828125 16.015625 36.375 
Q 16.015625 21.96875 22.65625 14.328125 
Q 29.296875 6.6875 41.796875 6.6875 
Q 48.140625 6.6875 53.78125 8.984375 
Q 59.421875 11.28125 64.40625 15.921875 
L 64.40625 5.609375 
Q 59.234375 2.09375 53.4375 0.328125 
Q 47.65625 -1.421875 41.21875 -1.421875 
Q 24.65625 -1.421875 15.125 8.703125 
Q 5.609375 18.84375 5.609375 36.375 
Q 5.609375 53.953125 15.125 64.078125 
Q 24.65625 74.21875 41.21875 74.21875 
Q 47.75 74.21875 53.53125 72.484375 
Q 59.328125 70.75 64.40625 67.28125 
z
" id="DejaVuSans-43"/>
      <path d="M 41.109375 46.296875 
Q 39.59375 47.171875 37.8125 47.578125 
Q 36.03125 48 33.890625 48 
Q 26.265625 48 22.1875 43.046875 
Q 18.109375 38.09375 18.109375 28.8125 
L 18.109375 0 
L 9.078125 0 
L 9.078125 54.6875 
L 18.109375 54.6875 
L 18.109375 46.1875 
Q 20.953125 51.171875 25.484375 53.578125 
Q 30.03125 56 36.53125 56 
Q 37.453125 56 38.578125 55.875 
Q 39.703125 55.765625 41.0625 55.515625 
z
" id="DejaVuSans-72"/>
      <path d="M 8.015625 75.875 
L 15.828125 75.875 
Q 23.140625 64.359375 26.78125 53.3125 
Q 30.421875 42.28125 30.421875 31.390625 
Q 30.421875 20.453125 26.78125 9.375 
Q 23.140625 -1.703125 15.828125 -13.1875 
L 8.015625 -13.1875 
Q 14.5 -2 17.703125 9.0625 
Q 20.90625 20.125 20.90625 31.390625 
Q 20.90625 42.671875 17.703125 53.65625 
Q 14.5 64.65625 8.015625 75.875 
z
" id="DejaVuSans-29"/>
     </defs>
     <g transform="translate(83.294531 253.004219)scale(0.11 -0.11)">
      <use xlink:href="#DejaVuSans-6c"/>
      <use x="27.783203" xlink:href="#DejaVuSans-6f"/>
      <use x="88.964844" xlink:href="#DejaVuSans-67"/>
      <use x="152.441406" xlink:href="#DejaVuSans-31"/>
      <use x="216.064453" xlink:href="#DejaVuSans-30"/>
      <use x="279.6875" xlink:href="#DejaVuSans-20"/>
      <use x="311.474609" xlink:href="#DejaVuSans-63"/>
      <use x="366.455078" xlink:href="#DejaVuSans-6f"/>
      <use x="427.636719" xlink:href="#DejaVuSans-75"/>
      <use x="491.015625" xlink:href="#DejaVuSans-6e"/>
      <use x="554.394531" xlink:href="#DejaVuSans-74"/>
      <use x="593.603516" xlink:href="#DejaVuSans-73"/>
      <use x="645.703125" xlink:href="#DejaVuSans-20"/>
      <use x="677.490234" xlink:href="#DejaVuSans-28"/>
      <use x="716.503906" xlink:href="#DejaVuSans-43"/>
      <use x="786.328125" xlink:href="#DejaVuSans-6f"/>
      <use x="847.509766" xlink:href="#DejaVuSans-6e"/>
      <use x="910.888672" xlink:href="#DejaVuSans-74"/>
      <use x="950.097656" xlink:href="#DejaVuSans-72"/>
      <use x="991.179688" xlink:href="#DejaVuSans-6f"/>
      <use x="1052.361328" xlink:href="#DejaVuSans-6c"/>
      <use x="1080.144531" xlink:href="#DejaVuSans-29"/>
     </g>
    </g>
   </g>
   <g id="matplotlib.axis_2">
    <g id="ytick_1">
     <g id="line2d_7">
      <defs>
       <path d="M 0 0 
L -3.5 0 
" id="m6c327560fd" style="stroke:#262626;stroke-width:0.8;"/>
      </defs>
      <g>
       <use style="fill:#262626;stroke:#262626;stroke-width:0.8;" x="51.01625" xlink:href="#m6c327560fd" y="208.365926"/>
      </g>
     </g>
     <g id="line2d_8">
      <defs>
       <path d="M 0 0 
L 3.5 0 
" id="ma5905b280d" style="stroke:#262626;stroke-width:0.8;"/>
      </defs>
      <g>
       <use style="fill:#262626;stroke:#262626;stroke-width:0.8;" x="238.68" xlink:href="#ma5905b280d" y="208.365926"/>
      </g>
     </g>
     <g id="text_5">
      <!-- 0.0 -->
      <g style="fill:#262626;" transform="translate(26.522813 212.545067)scale(0.11 -0.11)">
       <use xlink:href="#DejaVuSans-30"/>
       <use x="63.623047" xlink:href="#DejaVuSans-2e"/>
       <use x="95.410156" xlink:href="#DejaVuSans-30"/>
      </g>
     </g>
    </g>
    <g id="ytick_2">
     <g id="line2d_9">
      <g>
       <use style="fill:#262626;stroke:#262626;stroke-width:0.8;" x="51.01625" xlink:href="#m6c327560fd" y="165.653544"/>
      </g>
     </g>
     <g id="line2d_10">
      <g>
       <use style="fill:#262626;stroke:#262626;stroke-width:0.8;" x="238.68" xlink:href="#ma5905b280d" y="165.653544"/>
      </g>
     </g>
     <g id="text_6">
      <!-- 1.0 -->
      <g style="fill:#262626;" transform="translate(26.522813 169.832685)scale(0.11 -0.11)">
       <use xlink:href="#DejaVuSans-31"/>
       <use x="63.623047" xlink:href="#DejaVuSans-2e"/>
       <use x="95.410156" xlink:href="#DejaVuSans-30"/>
      </g>
     </g>
    </g>
    <g id="ytick_3">
     <g id="line2d_11">
      <g>
       <use style="fill:#262626;stroke:#262626;stroke-width:0.8;" x="51.01625" xlink:href="#m6c327560fd" y="122.941163"/>
      </g>
     </g>
     <g id="line2d_12">
      <g>
       <use style="fill:#262626;stroke:#262626;stroke-width:0.8;" x="238.68" xlink:href="#ma5905b280d" y="122.941163"/>
      </g>
     </g>
     <g id="text_7">
      <!-- 2.0 -->
      <g style="fill:#262626;" transform="translate(26.522813 127.120304)scale(0.11 -0.11)">
       <use xlink:href="#DejaVuSans-32"/>
       <use x="63.623047" xlink:href="#DejaVuSans-2e"/>
       <use x="95.410156" xlink:href="#DejaVuSans-30"/>
      </g>
     </g>
    </g>
    <g id="ytick_4">
     <g id="line2d_13">
      <g>
       <use style="fill:#262626;stroke:#262626;stroke-width:0.8;" x="51.01625" xlink:href="#m6c327560fd" y="80.228781"/>
      </g>
     </g>
     <g id="line2d_14">
      <g>
       <use style="fill:#262626;stroke:#262626;stroke-width:0.8;" x="238.68" xlink:href="#ma5905b280d" y="80.228781"/>
      </g>
     </g>
     <g id="text_8">
      <!-- 3.0 -->
      <defs>
       <path d="M 40.578125 39.3125 
Q 47.65625 37.796875 51.625 33 
Q 55.609375 28.21875 55.609375 21.1875 
Q 55.609375 10.40625 48.1875 4.484375 
Q 40.765625 -1.421875 27.09375 -1.421875 
Q 22.515625 -1.421875 17.65625 -0.515625 
Q 12.796875 0.390625 7.625 2.203125 
L 7.625 11.71875 
Q 11.71875 9.328125 16.59375 8.109375 
Q 21.484375 6.890625 26.8125 6.890625 
Q 36.078125 6.890625 40.9375 10.546875 
Q 45.796875 14.203125 45.796875 21.1875 
Q 45.796875 27.640625 41.28125 31.265625 
Q 36.765625 34.90625 28.71875 34.90625 
L 20.21875 34.90625 
L 20.21875 43.015625 
L 29.109375 43.015625 
Q 36.375 43.015625 40.234375 45.921875 
Q 44.09375 48.828125 44.09375 54.296875 
Q 44.09375 59.90625 40.109375 62.90625 
Q 36.140625 65.921875 28.71875 65.921875 
Q 24.65625 65.921875 20.015625 65.03125 
Q 15.375 64.15625 9.8125 62.3125 
L 9.8125 71.09375 
Q 15.4375 72.65625 20.34375 73.4375 
Q 25.25 74.21875 29.59375 74.21875 
Q 40.828125 74.21875 47.359375 69.109375 
Q 53.90625 64.015625 53.90625 55.328125 
Q 53.90625 49.265625 50.4375 45.09375 
Q 46.96875 40.921875 40.578125 39.3125 
z
" id="DejaVuSans-33"/>
      </defs>
      <g style="fill:#262626;" transform="translate(26.522813 84.407922)scale(0.11 -0.11)">
       <use xlink:href="#DejaVuSans-33"/>
       <use x="63.623047" xlink:href="#DejaVuSans-2e"/>
       <use x="95.410156" xlink:href="#DejaVuSans-30"/>
      </g>
     </g>
    </g>
    <g id="ytick_5">
     <g id="line2d_15">
      <g>
       <use style="fill:#262626;stroke:#262626;stroke-width:0.8;" x="51.01625" xlink:href="#m6c327560fd" y="37.5164"/>
      </g>
     </g>
     <g id="line2d_16">
      <g>
       <use style="fill:#262626;stroke:#262626;stroke-width:0.8;" x="238.68" xlink:href="#ma5905b280d" y="37.5164"/>
      </g>
     </g>
     <g id="text_9">
      <!-- 4.0 -->
      <defs>
       <path d="M 37.796875 64.3125 
L 12.890625 25.390625 
L 37.796875 25.390625 
z
M 35.203125 72.90625 
L 47.609375 72.90625 
L 47.609375 25.390625 
L 58.015625 25.390625 
L 58.015625 17.1875 
L 47.609375 17.1875 
L 47.609375 0 
L 37.796875 0 
L 37.796875 17.1875 
L 4.890625 17.1875 
L 4.890625 26.703125 
z
" id="DejaVuSans-34"/>
      </defs>
      <g style="fill:#262626;" transform="translate(26.522813 41.695541)scale(0.11 -0.11)">
       <use xlink:href="#DejaVuSans-34"/>
       <use x="63.623047" xlink:href="#DejaVuSans-2e"/>
       <use x="95.410156" xlink:href="#DejaVuSans-30"/>
      </g>
     </g>
    </g>
    <g id="text_10">
     <!-- log10 counts (ToxA_1) -->
     <defs>
      <path d="M -0.296875 72.90625 
L 61.375 72.90625 
L 61.375 64.59375 
L 35.5 64.59375 
L 35.5 0 
L 25.59375 0 
L 25.59375 64.59375 
L -0.296875 64.59375 
z
" id="DejaVuSans-54"/>
      <path d="M 54.890625 54.6875 
L 35.109375 28.078125 
L 55.90625 0 
L 45.3125 0 
L 29.390625 21.484375 
L 13.484375 0 
L 2.875 0 
L 24.125 28.609375 
L 4.6875 54.6875 
L 15.28125 54.6875 
L 29.78125 35.203125 
L 44.28125 54.6875 
z
" id="DejaVuSans-78"/>
      <path d="M 34.1875 63.1875 
L 20.796875 26.90625 
L 47.609375 26.90625 
z
M 28.609375 72.90625 
L 39.796875 72.90625 
L 67.578125 0 
L 57.328125 0 
L 50.6875 18.703125 
L 17.828125 18.703125 
L 11.1875 0 
L 0.78125 0 
z
" id="DejaVuSans-41"/>
      <path d="M 50.984375 -16.609375 
L 50.984375 -23.578125 
L -0.984375 -23.578125 
L -0.984375 -16.609375 
z
" id="DejaVuSans-5f"/>
     </defs>
     <g transform="translate(19.929219 185.747813)rotate(-90)scale(0.11 -0.11)">
      <use xlink:href="#DejaVuSans-6c"/>
      <use x="27.783203" xlink:href="#DejaVuSans-6f"/>
      <use x="88.964844" xlink:href="#DejaVuSans-67"/>
      <use x="152.441406" xlink:href="#DejaVuSans-31"/>
      <use x="216.064453" xlink:href="#DejaVuSans-30"/>
      <use x="279.6875" xlink:href="#DejaVuSans-20"/>
      <use x="311.474609" xlink:href="#DejaVuSans-63"/>
      <use x="366.455078" xlink:href="#DejaVuSans-6f"/>
      <use x="427.636719" xlink:href="#DejaVuSans-75"/>
      <use x="491.015625" xlink:href="#DejaVuSans-6e"/>
      <use x="554.394531" xlink:href="#DejaVuSans-74"/>
      <use x="593.603516" xlink:href="#DejaVuSans-73"/>
      <use x="645.703125" xlink:href="#DejaVuSans-20"/>
      <use x="677.490234" xlink:href="#DejaVuSans-28"/>
      <use x="716.503906" xlink:href="#DejaVuSans-54"/>
      <use x="777.322266" xlink:href="#DejaVuSans-6f"/>
      <use x="838.457031" xlink:href="#DejaVuSans-78"/>
      <use x="897.636719" xlink:href="#DejaVuSans-41"/>
      <use x="966.044922" xlink:href="#DejaVuSans-5f"/>
      <use x="1016.044922" xlink:href="#DejaVuSans-31"/>
      <use x="1079.667969" xlink:href="#DejaVuSans-29"/>
     </g>
    </g>
   </g>
   <g id="line2d_17">
    <path clip-path="url(#p4ed270645f)" d="M 51.01625 218.247888 
L 238.68 104.605323 
" style="fill:none;opacity:0.75;stroke:#808080;stroke-dasharray:5.55,2.4;stroke-dashoffset:0;stroke-width:1.5;"/>
   </g>
   <g id="patch_3">
    <path d="M 51.01625 223 
L 51.01625 25.44 
" style="fill:none;stroke:#000000;stroke-linecap:square;stroke-linejoin:miter;stroke-width:0.8;"/>
   </g>
   <g id="patch_4">
    <path d="M 238.68 223 
L 238.68 25.44 
" style="fill:none;stroke:#000000;stroke-linecap:square;stroke-linejoin:miter;stroke-width:0.8;"/>
   </g>
   <g id="patch_5">
    <path d="M 51.01625 223 
L 238.68 223 
" style="fill:none;stroke:#000000;stroke-linecap:square;stroke-linejoin:miter;stroke-width:0.8;"/>
   </g>
   <g id="patch_6">
    <path d="M 51.01625 25.44 
L 238.68 25.44 
" style="fill:none;stroke:#000000;stroke-linecap:square;stroke-linejoin:miter;stroke-width:0.8;"/>
   </g>
   <g id="text_11">
    <!-- sgRNA Density -->
    <defs>
     <path d="M 44.390625 34.1875 
Q 47.5625 33.109375 50.5625 29.59375 
Q 53.5625 26.078125 56.59375 19.921875 
L 66.609375 0 
L 56 0 
L 46.6875 18.703125 
Q 43.0625 26.03125 39.671875 28.421875 
Q 36.28125 30.8125 30.421875 30.8125 
L 19.671875 30.8125 
L 19.671875 0 
L 9.8125 0 
L 9.8125 72.90625 
L 32.078125 72.90625 
Q 44.578125 72.90625 50.734375 67.671875 
Q 56.890625 62.453125 56.890625 51.90625 
Q 56.890625 45.015625 53.6875 40.46875 
Q 50.484375 35.9375 44.390625 34.1875 
z
M 19.671875 64.796875 
L 19.671875 38.921875 
L 32.078125 38.921875 
Q 39.203125 38.921875 42.84375 42.21875 
Q 46.484375 45.515625 46.484375 51.90625 
Q 46.484375 58.296875 42.84375 61.546875 
Q 39.203125 64.796875 32.078125 64.796875 
z
" id="DejaVuSans-52"/>
     <path d="M 9.8125 72.90625 
L 23.09375 72.90625 
L 55.421875 11.921875 
L 55.421875 72.90625 
L 64.984375 72.90625 
L 64.984375 0 
L 51.703125 0 
L 19.390625 60.984375 
L 19.390625 0 
L 9.8125 0 
z
" id="DejaVuSans-4e"/>
     <path d="M 19.671875 64.796875 
L 19.671875 8.109375 
L 31.59375 8.109375 
Q 46.6875 8.109375 53.6875 14.9375 
Q 60.6875 21.78125 60.6875 36.53125 
Q 60.6875 51.171875 53.6875 57.984375 
Q 46.6875 64.796875 31.59375 64.796875 
z
M 9.8125 72.90625 
L 30.078125 72.90625 
Q 51.265625 72.90625 61.171875 64.09375 
Q 71.09375 55.28125 71.09375 36.53125 
Q 71.09375 17.671875 61.125 8.828125 
Q 51.171875 0 30.078125 0 
L 9.8125 0 
z
" id="DejaVuSans-44"/>
     <path d="M 56.203125 29.59375 
L 56.203125 25.203125 
L 14.890625 25.203125 
Q 15.484375 15.921875 20.484375 11.0625 
Q 25.484375 6.203125 34.421875 6.203125 
Q 39.59375 6.203125 44.453125 7.46875 
Q 49.3125 8.734375 54.109375 11.28125 
L 54.109375 2.78125 
Q 49.265625 0.734375 44.1875 -0.34375 
Q 39.109375 -1.421875 33.890625 -1.421875 
Q 20.796875 -1.421875 13.15625 6.1875 
Q 5.515625 13.8125 5.515625 26.8125 
Q 5.515625 40.234375 12.765625 48.109375 
Q 20.015625 56 32.328125 56 
Q 43.359375 56 49.78125 48.890625 
Q 56.203125 41.796875 56.203125 29.59375 
z
M 47.21875 32.234375 
Q 47.125 39.59375 43.09375 43.984375 
Q 39.0625 48.390625 32.421875 48.390625 
Q 24.90625 48.390625 20.390625 44.140625 
Q 15.875 39.890625 15.1875 32.171875 
z
" id="DejaVuSans-65"/>
     <path d="M 9.421875 54.6875 
L 18.40625 54.6875 
L 18.40625 0 
L 9.421875 0 
z
M 9.421875 75.984375 
L 18.40625 75.984375 
L 18.40625 64.59375 
L 9.421875 64.59375 
z
" id="DejaVuSans-69"/>
     <path d="M 32.171875 -5.078125 
Q 28.375 -14.84375 24.75 -17.8125 
Q 21.140625 -20.796875 15.09375 -20.796875 
L 7.90625 -20.796875 
L 7.90625 -13.28125 
L 13.1875 -13.28125 
Q 16.890625 -13.28125 18.9375 -11.515625 
Q 21 -9.765625 23.484375 -3.21875 
L 25.09375 0.875 
L 2.984375 54.6875 
L 12.5 54.6875 
L 29.59375 11.921875 
L 46.6875 54.6875 
L 56.203125 54.6875 
z
" id="DejaVuSans-79"/>
    </defs>
    <g transform="translate(100.434063 19.44)scale(0.12 -0.12)">
     <use xlink:href="#DejaVuSans-73"/>
     <use x="52.099609" xlink:href="#DejaVuSans-67"/>
     <use x="115.576172" xlink:href="#DejaVuSans-52"/>
     <use x="185.058594" xlink:href="#DejaVuSans-4e"/>
     <use x="259.863281" xlink:href="#DejaVuSans-41"/>
     <use x="328.271484" xlink:href="#DejaVuSans-20"/>
     <use x="360.058594" xlink:href="#DejaVuSans-44"/>
     <use x="437.060547" xlink:href="#DejaVuSans-65"/>
     <use x="498.583984" xlink:href="#DejaVuSans-6e"/>
     <use x="561.962891" xlink:href="#DejaVuSans-73"/>
     <use x="614.0625" xlink:href="#DejaVuSans-69"/>
     <use x="641.845703" xlink:href="#DejaVuSans-74"/>
     <use x="681.054688" xlink:href="#DejaVuSans-79"/>
    </g>
   </g>
  </g>
 </g>
 <defs>
  <clipPath id="p4ed270645f">
   <rect height="197.56" width="187.66375" x="51.01625" y="25.44"/>
  </clipPath>
 </defs>
</svg>
