<?xml version="1.0" encoding="utf-8" standalone="no"?>
<!DOCTYPE svg PUBLIC "-//W3C//DTD SVG 1.1//EN"
  "http://www.w3.org/Graphics/SVG/1.1/DTD/svg11.dtd">
<!-- Created with matplotlib (http://matplotlib.org/) -->
<svg height="266pt" version="1.1" viewBox="0 0 252 266" width="252pt" xmlns="http://www.w3.org/2000/svg" xmlns:xlink="http://www.w3.org/1999/xlink">
 <defs>
  <style type="text/css">
*{stroke-linecap:butt;stroke-linejoin:round;}
  </style>
 </defs>
 <g id="figure_1">
  <g id="patch_1">
   <path d="M 0 266.4 
L 252 266.4 
L 252 0 
L 0 0 
z
" style="fill:#ffffff;"/>
  </g>
  <g id="axes_1">
   <g id="patch_2">
    <path d="M 51.01625 223 
L 238.68 223 
L 238.68 25.44 
L 51.01625 25.44 
z
" style="fill:#ffffff;"/>
   </g>
   <g id="PathCollection_1">
    <path clip-path="url(#p54b76684f4)" d="M 37.884482 227.775095 
L 40.174034 227.775095 
L 42.463586 227.775095 
L 44.753139 227.775095 
L 47.042691 227.775095 
L 49.332243 227.775095 
L 51.621796 227.775095 
L 53.911348 227.775095 
L 56.200901 227.775095 
L 58.490453 227.775095 
L 60.780005 227.775095 
L 63.069558 227.775095 
L 65.35911 227.775095 
L 67.648662 227.775095 
L 69.938215 227.775095 
L 72.227767 227.775095 
L 74.51732 227.775095 
L 76.806872 227.775095 
L 79.096424 227.775095 
L 81.385977 227.775095 
L 83.675529 227.775095 
L 85.965081 227.775095 
L 88.254634 227.775095 
L 90.544186 227.775095 
L 92.833739 227.775095 
L 95.123291 227.775095 
L 97.412843 227.775095 
L 99.702396 227.775095 
L 101.991948 227.775095 
L 104.2815 227.775095 
L 106.571053 227.775095 
L 108.860605 227.775095 
L 111.150158 227.775095 
L 113.43971 227.775095 
L 115.729262 227.775095 
L 118.018815 227.775095 
L 120.308367 227.775095 
L 122.597919 227.775095 
L 124.887472 227.775095 
L 127.177024 227.775095 
L 129.466577 227.775095 
L 131.756129 227.775095 
L 134.045681 227.775095 
L 136.335234 227.775095 
L 138.624786 227.775095 
L 140.914338 227.775095 
L 143.203891 227.775095 
L 145.493443 227.775095 
L 147.782996 227.775095 
L 150.072548 227.775095 
L 152.3621 227.775095 
L 154.651653 227.775095 
L 156.941205 227.775095 
L 159.230757 227.775095 
L 161.52031 227.775095 
L 163.809862 227.775095 
L 166.099415 227.775095 
L 168.388967 227.775095 
L 170.678519 227.775095 
L 172.968072 227.775095 
L 175.257624 227.775095 
L 177.547176 227.775095 
L 179.836729 227.775095 
L 182.126281 227.775095 
L 184.415834 227.775095 
L 186.705386 227.775095 
L 188.994938 227.775095 
L 191.284491 227.775095 
L 193.574043 227.775095 
L 195.863595 227.775095 
L 198.153148 227.775095 
L 200.4427 227.775095 
L 202.732253 227.775095 
L 205.021805 227.775095 
L 207.311357 227.775095 
L 209.60091 227.775095 
L 211.890462 227.775095 
L 214.180014 227.775095 
L 216.469567 227.775095 
L 218.759119 227.775095 
L 221.048672 227.775095 
L 223.338224 227.775095 
L 225.627776 227.775095 
L 227.917329 227.775095 
L 230.206881 227.775095 
L 232.496433 227.775095 
L 234.785986 227.775095 
L 237.075538 227.775095 
L 239.365091 227.775095 
L 241.654643 227.775095 
L 243.944195 227.775095 
L 246.233748 227.775095 
L 248.5233 227.775095 
L 250.812852 227.775095 
L 253.102405 227.775095 
L 255.391957 227.775095 
L 257.68151 227.775095 
L 259.971062 227.775095 
L 262.260614 227.775095 
L 262.260614 225.904802 
L 262.260614 224.034508 
L 262.260614 222.164214 
L 262.260614 220.29392 
L 262.260614 218.423627 
L 262.260614 216.553333 
L 262.260614 214.683039 
L 262.260614 212.812746 
L 262.260614 210.942452 
L 262.260614 209.072158 
L 262.260614 207.201864 
L 262.260614 205.331571 
L 262.260614 203.461277 
L 262.260614 201.590983 
L 262.260614 199.720689 
L 262.260614 197.850396 
L 262.260614 195.980102 
L 262.260614 194.109808 
L 262.260614 192.239514 
L 262.260614 190.369221 
L 262.260614 188.498927 
L 262.260614 186.628633 
L 262.260614 184.758339 
L 262.260614 182.888046 
L 262.260614 181.017752 
L 262.260614 179.147458 
L 262.260614 177.277165 
L 262.260614 175.406871 
L 262.260614 173.536577 
L 262.260614 171.666283 
L 262.260614 169.79599 
L 262.260614 167.925696 
L 262.260614 166.055402 
L 262.260614 164.185108 
L 262.260614 162.314815 
L 262.260614 160.444521 
L 262.260614 158.574227 
L 262.260614 156.703933 
L 262.260614 154.83364 
L 262.260614 152.963346 
L 262.260614 151.093052 
L 262.260614 149.222759 
L 262.260614 147.352465 
L 262.260614 145.482171 
L 262.260614 143.611877 
L 262.260614 141.741584 
L 262.260614 139.87129 
L 262.260614 138.000996 
L 262.260614 136.130702 
L 262.260614 134.260409 
L 262.260614 132.390115 
L 262.260614 130.519821 
L 262.260614 128.649527 
L 262.260614 126.779234 
L 262.260614 124.90894 
L 262.260614 123.038646 
L 262.260614 121.168353 
L 262.260614 119.298059 
L 262.260614 117.427765 
L 262.260614 115.557471 
L 262.260614 113.687178 
L 262.260614 111.816884 
L 262.260614 109.94659 
L 262.260614 108.076296 
L 262.260614 106.206003 
L 262.260614 104.335709 
L 262.260614 102.465415 
L 262.260614 100.595121 
L 262.260614 98.724828 
L 262.260614 96.854534 
L 262.260614 94.98424 
L 262.260614 93.113947 
L 262.260614 91.243653 
L 262.260614 89.373359 
L 262.260614 87.503065 
L 262.260614 85.632772 
L 262.260614 83.762478 
L 262.260614 81.892184 
L 262.260614 80.02189 
L 262.260614 78.151597 
L 262.260614 76.281303 
L 262.260614 74.411009 
L 262.260614 72.540715 
L 262.260614 70.670422 
L 262.260614 68.800128 
L 262.260614 66.929834 
L 262.260614 65.059541 
L 262.260614 63.189247 
L 262.260614 61.318953 
L 262.260614 59.448659 
L 262.260614 57.578366 
L 262.260614 55.708072 
L 262.260614 53.837778 
L 262.260614 51.967484 
L 262.260614 50.097191 
L 262.260614 48.226897 
L 262.260614 46.356603 
L 262.260614 44.486309 
L 262.260614 42.616016 
L 259.971062 42.616016 
L 257.68151 42.616016 
L 255.391957 42.616016 
L 253.102405 42.616016 
L 250.812852 42.616016 
L 248.5233 42.616016 
L 246.233748 42.616016 
L 243.944195 42.616016 
L 241.654643 42.616016 
L 239.365091 42.616016 
L 237.075538 42.616016 
L 234.785986 42.616016 
L 232.496433 42.616016 
L 230.206881 42.616016 
L 227.917329 42.616016 
L 225.627776 42.616016 
L 223.338224 42.616016 
L 221.048672 42.616016 
L 218.759119 42.616016 
L 216.469567 42.616016 
L 214.180014 42.616016 
L 211.890462 42.616016 
L 209.60091 42.616016 
L 207.311357 42.616016 
L 205.021805 42.616016 
L 202.732253 42.616016 
L 200.4427 42.616016 
L 198.153148 42.616016 
L 195.863595 42.616016 
L 193.574043 42.616016 
L 191.284491 42.616016 
L 188.994938 42.616016 
L 186.705386 42.616016 
L 184.415834 42.616016 
L 182.126281 42.616016 
L 179.836729 42.616016 
L 177.547176 42.616016 
L 175.257624 42.616016 
L 172.968072 42.616016 
L 170.678519 42.616016 
L 168.388967 42.616016 
L 166.099415 42.616016 
L 163.809862 42.616016 
L 161.52031 42.616016 
L 159.230757 42.616016 
L 156.941205 42.616016 
L 154.651653 42.616016 
L 152.3621 42.616016 
L 150.072548 42.616016 
L 147.782996 42.616016 
L 145.493443 42.616016 
L 143.203891 42.616016 
L 140.914338 42.616016 
L 138.624786 42.616016 
L 136.335234 42.616016 
L 134.045681 42.616016 
L 131.756129 42.616016 
L 129.466577 42.616016 
L 127.177024 42.616016 
L 124.887472 42.616016 
L 122.597919 42.616016 
L 120.308367 42.616016 
L 118.018815 42.616016 
L 115.729262 42.616016 
L 113.43971 42.616016 
L 111.150158 42.616016 
L 108.860605 42.616016 
L 106.571053 42.616016 
L 104.2815 42.616016 
L 101.991948 42.616016 
L 99.702396 42.616016 
L 97.412843 42.616016 
L 95.123291 42.616016 
L 92.833739 42.616016 
L 90.544186 42.616016 
L 88.254634 42.616016 
L 85.965081 42.616016 
L 83.675529 42.616016 
L 81.385977 42.616016 
L 79.096424 42.616016 
L 76.806872 42.616016 
L 74.51732 42.616016 
L 72.227767 42.616016 
L 69.938215 42.616016 
L 67.648662 42.616016 
L 65.35911 42.616016 
L 63.069558 42.616016 
L 60.780005 42.616016 
L 58.490453 42.616016 
L 56.200901 42.616016 
L 53.911348 42.616016 
L 51.621796 42.616016 
L 49.332243 42.616016 
L 47.042691 42.616016 
L 44.753139 42.616016 
L 42.463586 42.616016 
L 40.174034 42.616016 
L 37.884482 42.616016 
L 35.594929 42.616016 
L 35.594929 44.486309 
L 35.594929 46.356603 
L 35.594929 48.226897 
L 35.594929 50.097191 
L 35.594929 51.967484 
L 35.594929 53.837778 
L 35.594929 55.708072 
L 35.594929 57.578366 
L 35.594929 59.448659 
L 35.594929 61.318953 
L 35.594929 63.189247 
L 35.594929 65.059541 
L 35.594929 66.929834 
L 35.594929 68.800128 
L 35.594929 70.670422 
L 35.594929 72.540715 
L 35.594929 74.411009 
L 35.594929 76.281303 
L 35.594929 78.151597 
L 35.594929 80.02189 
L 35.594929 81.892184 
L 35.594929 83.762478 
L 35.594929 85.632772 
L 35.594929 87.503065 
L 35.594929 89.373359 
L 35.594929 91.243653 
L 35.594929 93.113947 
L 35.594929 94.98424 
L 35.594929 96.854534 
L 35.594929 98.724828 
L 35.594929 100.595121 
L 35.594929 102.465415 
L 35.594929 104.335709 
L 35.594929 106.206003 
L 35.594929 108.076296 
L 35.594929 109.94659 
L 35.594929 111.816884 
L 35.594929 113.687178 
L 35.594929 115.557471 
L 35.594929 117.427765 
L 35.594929 119.298059 
L 35.594929 121.168353 
L 35.594929 123.038646 
L 35.594929 124.90894 
L 35.594929 126.779234 
L 35.594929 128.649527 
L 35.594929 130.519821 
L 35.594929 132.390115 
L 35.594929 134.260409 
L 35.594929 136.130702 
L 35.594929 138.000996 
L 35.594929 139.87129 
L 35.594929 141.741584 
L 35.594929 143.611877 
L 35.594929 145.482171 
L 35.594929 147.352465 
L 35.594929 149.222759 
L 35.594929 151.093052 
L 35.594929 152.963346 
L 35.594929 154.83364 
L 35.594929 156.703933 
L 35.594929 158.574227 
L 35.594929 160.444521 
L 35.594929 162.314815 
L 35.594929 164.185108 
L 35.594929 166.055402 
L 35.594929 167.925696 
L 35.594929 169.79599 
L 35.594929 171.666283 
L 35.594929 173.536577 
L 35.594929 175.406871 
L 35.594929 177.277165 
L 35.594929 179.147458 
L 35.594929 181.017752 
L 35.594929 182.888046 
L 35.594929 184.758339 
L 35.594929 186.628633 
L 35.594929 188.498927 
L 35.594929 190.369221 
L 35.594929 192.239514 
L 35.594929 194.109808 
L 35.594929 195.980102 
L 35.594929 197.850396 
L 35.594929 199.720689 
L 35.594929 201.590983 
L 35.594929 203.461277 
L 35.594929 205.331571 
L 35.594929 207.201864 
L 35.594929 209.072158 
L 35.594929 210.942452 
L 35.594929 212.812746 
L 35.594929 214.683039 
L 35.594929 216.553333 
L 35.594929 218.423627 
L 35.594929 220.29392 
L 35.594929 222.164214 
L 35.594929 224.034508 
L 35.594929 225.904802 
L 35.594929 227.775095 
z
M 58.588217 220.29392 
L 58.490453 220.269661 
L 56.200901 219.544288 
L 53.911348 218.437835 
L 53.885725 218.423627 
L 51.621796 217.113596 
L 50.843568 216.553333 
L 49.332243 215.210307 
L 48.78219 214.683039 
L 47.382341 212.812746 
L 47.042691 212.052018 
L 46.469643 210.942452 
L 46.005797 209.072158 
L 45.985791 207.201864 
L 46.391711 205.331571 
L 47.042691 203.936829 
L 47.231249 203.461277 
L 48.399087 201.590983 
L 49.332243 200.5457 
L 50.083553 199.720689 
L 51.621796 198.350361 
L 52.256274 197.850396 
L 53.911348 196.610749 
L 54.945868 195.980102 
L 56.200901 195.145468 
L 58.226144 194.109808 
L 58.490453 193.944012 
L 60.780005 192.767952 
L 62.224514 192.239514 
L 63.069558 191.807715 
L 65.35911 190.945139 
L 67.648662 190.377657 
L 67.701724 190.369221 
L 69.938215 189.814563 
L 72.227767 189.508817 
L 74.51732 189.397976 
L 76.806872 189.425849 
L 79.096424 189.541232 
L 81.385977 189.696087 
L 83.675529 189.847908 
L 85.965081 189.964515 
L 88.254634 190.028138 
L 90.544186 190.036096 
L 92.833739 189.997613 
L 95.123291 189.928622 
L 97.412843 189.846972 
L 99.702396 189.769418 
L 101.991948 189.710501 
L 104.2815 189.682676 
L 106.571053 189.69703 
L 108.860605 189.764106 
L 111.150158 189.894638 
L 113.43971 190.100144 
L 115.546005 190.369221 
L 115.729262 190.38535 
L 118.018815 190.649602 
L 120.308367 190.995622 
L 122.597919 191.438108 
L 124.887472 191.994518 
L 125.733546 192.239514 
L 127.177024 192.541048 
L 129.466577 193.118152 
L 131.756129 193.826622 
L 132.549555 194.109808 
L 134.045681 194.517767 
L 136.335234 195.258078 
L 138.203023 195.980102 
L 138.624786 196.11446 
L 140.914338 196.93555 
L 143.017588 197.850396 
L 143.203891 197.924304 
L 145.493443 198.928177 
L 147.024311 199.720689 
L 147.782996 200.128329 
L 150.072548 201.530723 
L 150.163809 201.590983 
L 152.3621 203.376235 
L 152.460008 203.461277 
L 153.910095 205.331571 
L 154.43258 207.201864 
L 154.040591 209.072158 
L 152.584603 210.942452 
L 152.3621 211.109544 
L 150.072548 212.719795 
L 149.93053 212.812746 
L 147.782996 213.856256 
L 145.753599 214.683039 
L 145.493443 214.777312 
L 143.203891 215.54611 
L 140.914338 216.181805 
L 139.357632 216.553333 
L 138.624786 216.735939 
L 136.335234 217.24962 
L 134.045681 217.680764 
L 131.756129 218.044302 
L 129.466577 218.352062 
L 128.872113 218.423627 
L 127.177024 218.672188 
L 124.887472 218.963425 
L 122.597919 219.211463 
L 120.308367 219.422663 
L 118.018815 219.602242 
L 115.729262 219.754562 
L 113.43971 219.883334 
L 111.150158 219.991799 
L 108.860605 220.08288 
L 106.571053 220.159342 
L 104.2815 220.223979 
L 101.991948 220.279841 
L 101.36333 220.29392 
L 99.702396 220.347243 
L 97.412843 220.419747 
L 95.123291 220.498342 
L 92.833739 220.591231 
L 90.544186 220.706116 
L 88.254634 220.848072 
L 85.965081 221.017081 
L 83.675529 221.206469 
L 81.385977 221.403384 
L 79.096424 221.591363 
L 76.806872 221.753633 
L 74.51732 221.875405 
L 72.227767 221.944261 
L 69.938215 221.948764 
L 67.648662 221.875885 
L 65.35911 221.707541 
L 63.069558 221.415957 
L 60.780005 220.956878 
z
" style="fill:none;"/>
   </g>
   <g id="PathCollection_2">
    <path clip-path="url(#p54b76684f4)" d="M 60.780005 220.956878 
L 63.069558 221.415957 
L 65.35911 221.707541 
L 67.648662 221.875885 
L 69.938215 221.948764 
L 72.227767 221.944261 
L 74.51732 221.875405 
L 76.806872 221.753633 
L 79.096424 221.591363 
L 81.385977 221.403384 
L 83.675529 221.206469 
L 85.965081 221.017081 
L 88.254634 220.848072 
L 90.544186 220.706116 
L 92.833739 220.591231 
L 95.123291 220.498342 
L 97.412843 220.419747 
L 99.702396 220.347243 
L 101.36333 220.29392 
L 101.991948 220.279841 
L 104.2815 220.223979 
L 106.571053 220.159342 
L 108.860605 220.08288 
L 111.150158 219.991799 
L 113.43971 219.883334 
L 115.729262 219.754562 
L 118.018815 219.602242 
L 120.308367 219.422663 
L 122.597919 219.211463 
L 124.887472 218.963425 
L 127.177024 218.672188 
L 128.872113 218.423627 
L 129.466577 218.352062 
L 131.756129 218.044302 
L 134.045681 217.680764 
L 136.335234 217.24962 
L 138.624786 216.735939 
L 139.357632 216.553333 
L 140.914338 216.181805 
L 143.203891 215.54611 
L 145.493443 214.777312 
L 145.753599 214.683039 
L 147.782996 213.856256 
L 149.93053 212.812746 
L 150.072548 212.719795 
L 152.3621 211.109544 
L 152.584603 210.942452 
L 154.040591 209.072158 
L 154.43258 207.201864 
L 153.910095 205.331571 
L 152.460008 203.461277 
L 152.3621 203.376235 
L 150.163809 201.590983 
L 150.072548 201.530723 
L 147.782996 200.128329 
L 147.024311 199.720689 
L 145.493443 198.928177 
L 143.203891 197.924304 
L 143.017588 197.850396 
L 140.914338 196.93555 
L 138.624786 196.11446 
L 138.203023 195.980102 
L 136.335234 195.258078 
L 134.045681 194.517767 
L 132.549555 194.109808 
L 131.756129 193.826622 
L 129.466577 193.118152 
L 127.177024 192.541048 
L 125.733546 192.239514 
L 124.887472 191.994518 
L 122.597919 191.438108 
L 120.308367 190.995622 
L 118.018815 190.649602 
L 115.729262 190.38535 
L 115.546005 190.369221 
L 113.43971 190.100144 
L 111.150158 189.894638 
L 108.860605 189.764106 
L 106.571053 189.69703 
L 104.2815 189.682676 
L 101.991948 189.710501 
L 99.702396 189.769418 
L 97.412843 189.846972 
L 95.123291 189.928622 
L 92.833739 189.997613 
L 90.544186 190.036096 
L 88.254634 190.028138 
L 85.965081 189.964515 
L 83.675529 189.847908 
L 81.385977 189.696087 
L 79.096424 189.541232 
L 76.806872 189.425849 
L 74.51732 189.397976 
L 72.227767 189.508817 
L 69.938215 189.814563 
L 67.701724 190.369221 
L 67.648662 190.377657 
L 65.35911 190.945139 
L 63.069558 191.807715 
L 62.224514 192.239514 
L 60.780005 192.767952 
L 58.490453 193.944012 
L 58.226144 194.109808 
L 56.200901 195.145468 
L 54.945868 195.980102 
L 53.911348 196.610749 
L 52.256274 197.850396 
L 51.621796 198.350361 
L 50.083553 199.720689 
L 49.332243 200.5457 
L 48.399087 201.590983 
L 47.231249 203.461277 
L 47.042691 203.936829 
L 46.391711 205.331571 
L 45.985791 207.201864 
L 46.005797 209.072158 
L 46.469643 210.942452 
L 47.042691 212.052018 
L 47.382341 212.812746 
L 48.78219 214.683039 
L 49.332243 215.210307 
L 50.843568 216.553333 
L 51.621796 217.113596 
L 53.885725 218.423627 
L 53.911348 218.437835 
L 56.200901 219.544288 
L 58.490453 220.269661 
L 58.588217 220.29392 
z
M 61.285439 218.423627 
L 60.780005 218.30485 
L 58.490453 217.567641 
L 56.368665 216.553333 
L 56.200901 216.466616 
L 53.911348 214.990637 
L 53.513411 214.683039 
L 51.715632 212.812746 
L 51.621796 212.657898 
L 50.552796 210.942452 
L 50.023004 209.072158 
L 49.999722 207.201864 
L 50.462185 205.331571 
L 51.496578 203.461277 
L 51.621796 203.30387 
L 53.013206 201.590983 
L 53.911348 200.777364 
L 55.254334 199.720689 
L 56.200901 199.060333 
L 58.426303 197.850396 
L 58.490453 197.814224 
L 60.780005 196.746375 
L 63.069558 196.03099 
L 63.295828 195.980102 
L 65.35911 195.384265 
L 67.648662 194.965229 
L 69.938215 194.73281 
L 72.227767 194.645308 
L 74.51732 194.672257 
L 76.806872 194.787914 
L 79.096424 194.966857 
L 81.385977 195.18191 
L 83.675529 195.405007 
L 85.965081 195.610791 
L 88.254634 195.781263 
L 90.544186 195.908858 
L 92.419641 195.980102 
L 92.833739 195.991861 
L 95.123291 196.033575 
L 97.412843 196.063077 
L 99.702396 196.090212 
L 101.991948 196.123879 
L 104.2815 196.1717 
L 106.571053 196.240227 
L 108.860605 196.335378 
L 111.150158 196.462895 
L 113.43971 196.62877 
L 115.729262 196.839606 
L 118.018815 197.102937 
L 120.308367 197.427552 
L 122.597919 197.823842 
L 122.732229 197.850396 
L 124.887472 198.215142 
L 127.177024 198.681176 
L 129.466577 199.242003 
L 131.131037 199.720689 
L 131.756129 199.89585 
L 134.045681 200.62296 
L 136.335234 201.499467 
L 136.552849 201.590983 
L 138.624786 202.598011 
L 140.157998 203.461277 
L 140.914338 204.085341 
L 142.31145 205.331571 
L 143.135273 207.201864 
L 142.659151 209.072158 
L 140.914338 210.753953 
L 140.707917 210.942452 
L 138.624786 212.04008 
L 136.935169 212.812746 
L 136.335234 213.023754 
L 134.045681 213.753042 
L 131.756129 214.368645 
L 130.41966 214.683039 
L 129.466577 214.892899 
L 127.177024 215.341618 
L 124.887472 215.723544 
L 122.597919 216.048927 
L 120.308367 216.326071 
L 118.104884 216.553333 
L 118.018815 216.563158 
L 115.729262 216.795351 
L 113.43971 216.991599 
L 111.150158 217.156843 
L 108.860605 217.295538 
L 106.571053 217.4119 
L 104.2815 217.510192 
L 101.991948 217.59507 
L 99.702396 217.671975 
L 97.412843 217.747476 
L 95.123291 217.829386 
L 92.833739 217.926322 
L 90.544186 218.0464 
L 88.254634 218.194995 
L 85.965081 218.372154 
L 85.395705 218.423627 
L 83.675529 218.615806 
L 81.385977 218.885611 
L 79.096424 219.143277 
L 76.806872 219.365761 
L 74.51732 219.532725 
L 72.227767 219.627065 
L 69.938215 219.63303 
L 67.648662 219.532678 
L 65.35911 219.301122 
L 63.069558 218.900163 
z
" style="fill:#fed9c9;"/>
   </g>
   <g id="PathCollection_3">
    <path clip-path="url(#p54b76684f4)" d="M 63.069558 218.900163 
L 65.35911 219.301122 
L 67.648662 219.532678 
L 69.938215 219.63303 
L 72.227767 219.627065 
L 74.51732 219.532725 
L 76.806872 219.365761 
L 79.096424 219.143277 
L 81.385977 218.885611 
L 83.675529 218.615806 
L 85.395705 218.423627 
L 85.965081 218.372154 
L 88.254634 218.194995 
L 90.544186 218.0464 
L 92.833739 217.926322 
L 95.123291 217.829386 
L 97.412843 217.747476 
L 99.702396 217.671975 
L 101.991948 217.59507 
L 104.2815 217.510192 
L 106.571053 217.4119 
L 108.860605 217.295538 
L 111.150158 217.156843 
L 113.43971 216.991599 
L 115.729262 216.795351 
L 118.018815 216.563158 
L 118.104884 216.553333 
L 120.308367 216.326071 
L 122.597919 216.048927 
L 124.887472 215.723544 
L 127.177024 215.341618 
L 129.466577 214.892899 
L 130.41966 214.683039 
L 131.756129 214.368645 
L 134.045681 213.753042 
L 136.335234 213.023754 
L 136.935169 212.812746 
L 138.624786 212.04008 
L 140.707917 210.942452 
L 140.914338 210.753953 
L 142.659151 209.072158 
L 143.135273 207.201864 
L 142.31145 205.331571 
L 140.914338 204.085341 
L 140.157998 203.461277 
L 138.624786 202.598011 
L 136.552849 201.590983 
L 136.335234 201.499467 
L 134.045681 200.62296 
L 131.756129 199.89585 
L 131.131037 199.720689 
L 129.466577 199.242003 
L 127.177024 198.681176 
L 124.887472 198.215142 
L 122.732229 197.850396 
L 122.597919 197.823842 
L 120.308367 197.427552 
L 118.018815 197.102937 
L 115.729262 196.839606 
L 113.43971 196.62877 
L 111.150158 196.462895 
L 108.860605 196.335378 
L 106.571053 196.240227 
L 104.2815 196.1717 
L 101.991948 196.123879 
L 99.702396 196.090212 
L 97.412843 196.063077 
L 95.123291 196.033575 
L 92.833739 195.991861 
L 92.419641 195.980102 
L 90.544186 195.908858 
L 88.254634 195.781263 
L 85.965081 195.610791 
L 83.675529 195.405007 
L 81.385977 195.18191 
L 79.096424 194.966857 
L 76.806872 194.787914 
L 74.51732 194.672257 
L 72.227767 194.645308 
L 69.938215 194.73281 
L 67.648662 194.965229 
L 65.35911 195.384265 
L 63.295828 195.980102 
L 63.069558 196.03099 
L 60.780005 196.746375 
L 58.490453 197.814224 
L 58.426303 197.850396 
L 56.200901 199.060333 
L 55.254334 199.720689 
L 53.911348 200.777364 
L 53.013206 201.590983 
L 51.621796 203.30387 
L 51.496578 203.461277 
L 50.462185 205.331571 
L 49.999722 207.201864 
L 50.023004 209.072158 
L 50.552796 210.942452 
L 51.621796 212.657898 
L 51.715632 212.812746 
L 53.513411 214.683039 
L 53.911348 214.990637 
L 56.200901 216.466616 
L 56.368665 216.553333 
L 58.490453 217.567641 
L 60.780005 218.30485 
L 61.285439 218.423627 
z
M 61.212775 216.553333 
L 60.780005 216.420241 
L 58.490453 215.459837 
L 57.141749 214.683039 
L 56.200901 214.00508 
L 54.82663 212.812746 
L 53.911348 211.549667 
L 53.486708 210.942452 
L 52.830205 209.072158 
L 52.800803 207.201864 
L 53.372443 205.331571 
L 53.911348 204.476191 
L 54.56143 203.461277 
L 56.200901 201.85054 
L 56.507953 201.590983 
L 58.490453 200.245042 
L 59.512247 199.720689 
L 60.780005 199.092417 
L 63.069558 198.271542 
L 64.832438 197.850396 
L 65.35911 197.703128 
L 67.648662 197.280278 
L 69.938215 197.060432 
L 72.227767 197.000854 
L 74.51732 197.070603 
L 76.806872 197.243336 
L 79.096424 197.492175 
L 81.385977 197.787071 
L 81.879218 197.850396 
L 83.675529 198.043 
L 85.965081 198.272883 
L 88.254634 198.472078 
L 90.544186 198.631567 
L 92.833739 198.752204 
L 95.123291 198.842316 
L 97.412843 198.914069 
L 99.702396 198.980336 
L 101.991948 199.052901 
L 104.2815 199.141878 
L 106.571053 199.255903 
L 108.860605 199.402655 
L 111.150158 199.589447 
L 112.452411 199.720689 
L 113.43971 199.81277 
L 115.729262 200.072037 
L 118.018815 200.38955 
L 120.308367 200.774834 
L 122.597919 201.239132 
L 124.078439 201.590983 
L 124.887472 201.80312 
L 127.177024 202.492721 
L 129.466577 203.316967 
L 129.826657 203.461277 
L 131.756129 204.551737 
L 132.972909 205.331571 
L 134.045681 206.975513 
L 134.186606 207.201864 
L 134.045681 207.648315 
L 133.591735 209.072158 
L 131.756129 210.412469 
L 130.958313 210.942452 
L 129.466577 211.525092 
L 127.177024 212.307486 
L 125.470774 212.812746 
L 124.887472 212.949676 
L 122.597919 213.430788 
L 120.308367 213.840671 
L 118.018815 214.189363 
L 115.729262 214.485258 
L 113.933917 214.683039 
L 113.43971 214.736008 
L 111.150158 214.948746 
L 108.860605 215.127236 
L 106.571053 215.276906 
L 104.2815 215.40325 
L 101.991948 215.512275 
L 99.702396 215.611006 
L 97.412843 215.707937 
L 95.123291 215.813179 
L 92.833739 215.937904 
L 90.544186 216.092658 
L 88.254634 216.284469 
L 85.965081 216.513482 
L 85.626253 216.553333 
L 83.675529 216.804504 
L 81.385977 217.113946 
L 79.096424 217.409653 
L 76.806872 217.665105 
L 74.51732 217.856846 
L 72.227767 217.965128 
L 69.938215 217.971751 
L 67.648662 217.856 
L 65.35911 217.589171 
L 63.069558 217.127231 
z
" style="fill:#fcbba1;"/>
   </g>
   <g id="PathCollection_4">
    <path clip-path="url(#p54b76684f4)" d="M 63.069558 217.127231 
L 65.35911 217.589171 
L 67.648662 217.856 
L 69.938215 217.971751 
L 72.227767 217.965128 
L 74.51732 217.856846 
L 76.806872 217.665105 
L 79.096424 217.409653 
L 81.385977 217.113946 
L 83.675529 216.804504 
L 85.626253 216.553333 
L 85.965081 216.513482 
L 88.254634 216.284469 
L 90.544186 216.092658 
L 92.833739 215.937904 
L 95.123291 215.813179 
L 97.412843 215.707937 
L 99.702396 215.611006 
L 101.991948 215.512275 
L 104.2815 215.40325 
L 106.571053 215.276906 
L 108.860605 215.127236 
L 111.150158 214.948746 
L 113.43971 214.736008 
L 113.933917 214.683039 
L 115.729262 214.485258 
L 118.018815 214.189363 
L 120.308367 213.840671 
L 122.597919 213.430788 
L 124.887472 212.949676 
L 125.470774 212.812746 
L 127.177024 212.307486 
L 129.466577 211.525092 
L 130.958313 210.942452 
L 131.756129 210.412469 
L 133.591735 209.072158 
L 134.045681 207.648315 
L 134.186606 207.201864 
L 134.045681 206.975513 
L 132.972909 205.331571 
L 131.756129 204.551737 
L 129.826657 203.461277 
L 129.466577 203.316967 
L 127.177024 202.492721 
L 124.887472 201.80312 
L 124.078439 201.590983 
L 122.597919 201.239132 
L 120.308367 200.774834 
L 118.018815 200.38955 
L 115.729262 200.072037 
L 113.43971 199.81277 
L 112.452411 199.720689 
L 111.150158 199.589447 
L 108.860605 199.402655 
L 106.571053 199.255903 
L 104.2815 199.141878 
L 101.991948 199.052901 
L 99.702396 198.980336 
L 97.412843 198.914069 
L 95.123291 198.842316 
L 92.833739 198.752204 
L 90.544186 198.631567 
L 88.254634 198.472078 
L 85.965081 198.272883 
L 83.675529 198.043 
L 81.879218 197.850396 
L 81.385977 197.787071 
L 79.096424 197.492175 
L 76.806872 197.243336 
L 74.51732 197.070603 
L 72.227767 197.000854 
L 69.938215 197.060432 
L 67.648662 197.280278 
L 65.35911 197.703128 
L 64.832438 197.850396 
L 63.069558 198.271542 
L 60.780005 199.092417 
L 59.512247 199.720689 
L 58.490453 200.245042 
L 56.507953 201.590983 
L 56.200901 201.85054 
L 54.56143 203.461277 
L 53.911348 204.476191 
L 53.372443 205.331571 
L 52.800803 207.201864 
L 52.830205 209.072158 
L 53.486708 210.942452 
L 53.911348 211.549667 
L 54.82663 212.812746 
L 56.200901 214.00508 
L 57.141749 214.683039 
L 58.490453 215.459837 
L 60.780005 216.420241 
L 61.212775 216.553333 
z
M 69.359967 216.553333 
L 67.648662 216.452349 
L 65.35911 216.143311 
L 63.069558 215.608365 
L 60.780005 214.766274 
L 60.604598 214.683039 
L 58.490453 213.479937 
L 57.588296 212.812746 
L 56.200901 211.250184 
L 55.954682 210.942452 
L 55.184159 209.072158 
L 55.148933 207.201864 
L 55.817897 205.331571 
L 56.200901 204.799252 
L 57.247941 203.461277 
L 58.490453 202.41789 
L 59.722642 201.590983 
L 60.780005 200.996514 
L 63.069558 200.053137 
L 64.259848 199.720689 
L 65.35911 199.399692 
L 67.648662 198.974794 
L 69.938215 198.762893 
L 72.227767 198.720747 
L 74.51732 198.817297 
L 76.806872 199.026035 
L 79.096424 199.319422 
L 81.385977 199.665835 
L 81.749697 199.720689 
L 83.675529 199.992292 
L 85.965081 200.298936 
L 88.254634 200.569203 
L 90.544186 200.79094 
L 92.833739 200.964268 
L 95.123291 201.098849 
L 97.412843 201.209417 
L 99.702396 201.311824 
L 101.991948 201.420689 
L 104.2815 201.548596 
L 104.907804 201.590983 
L 106.571053 201.709523 
L 108.860605 201.912361 
L 111.150158 202.165281 
L 113.43971 202.47776 
L 115.729262 202.860013 
L 118.018815 203.323523 
L 118.606683 203.461277 
L 120.308367 204.002301 
L 122.597919 204.864515 
L 123.672397 205.331571 
L 124.887472 206.531441 
L 125.503507 207.201864 
L 124.887472 208.714705 
L 124.734246 209.072158 
L 122.597919 210.182263 
L 120.917917 210.942452 
L 120.308367 211.107284 
L 118.018815 211.655181 
L 115.729262 212.120412 
L 113.43971 212.514111 
L 111.386158 212.812746 
L 111.150158 212.840733 
L 108.860605 213.075121 
L 106.571053 213.271559 
L 104.2815 213.437268 
L 101.991948 213.580158 
L 99.702396 213.709497 
L 97.412843 213.836516 
L 95.123291 213.974613 
L 92.833739 214.138635 
L 90.544186 214.342657 
L 88.254634 214.596153 
L 87.619517 214.683039 
L 85.965081 214.899929 
L 83.675529 215.241604 
L 81.385977 215.597752 
L 79.096424 215.938447 
L 76.806872 216.233007 
L 74.51732 216.454217 
L 72.709878 216.553333 
L 72.227767 216.583049 
L 69.938215 216.59157 
z
" style="fill:#fc9b7c;"/>
   </g>
   <g id="PathCollection_5">
    <path clip-path="url(#p54b76684f4)" d="M 69.938215 216.59157 
L 72.227767 216.583049 
L 72.709878 216.553333 
L 74.51732 216.454217 
L 76.806872 216.233007 
L 79.096424 215.938447 
L 81.385977 215.597752 
L 83.675529 215.241604 
L 85.965081 214.899929 
L 87.619517 214.683039 
L 88.254634 214.596153 
L 90.544186 214.342657 
L 92.833739 214.138635 
L 95.123291 213.974613 
L 97.412843 213.836516 
L 99.702396 213.709497 
L 101.991948 213.580158 
L 104.2815 213.437268 
L 106.571053 213.271559 
L 108.860605 213.075121 
L 111.150158 212.840733 
L 111.386158 212.812746 
L 113.43971 212.514111 
L 115.729262 212.120412 
L 118.018815 211.655181 
L 120.308367 211.107284 
L 120.917917 210.942452 
L 122.597919 210.182263 
L 124.734246 209.072158 
L 124.887472 208.714705 
L 125.503507 207.201864 
L 124.887472 206.531441 
L 123.672397 205.331571 
L 122.597919 204.864515 
L 120.308367 204.002301 
L 118.606683 203.461277 
L 118.018815 203.323523 
L 115.729262 202.860013 
L 113.43971 202.47776 
L 111.150158 202.165281 
L 108.860605 201.912361 
L 106.571053 201.709523 
L 104.907804 201.590983 
L 104.2815 201.548596 
L 101.991948 201.420689 
L 99.702396 201.311824 
L 97.412843 201.209417 
L 95.123291 201.098849 
L 92.833739 200.964268 
L 90.544186 200.79094 
L 88.254634 200.569203 
L 85.965081 200.298936 
L 83.675529 199.992292 
L 81.749697 199.720689 
L 81.385977 199.665835 
L 79.096424 199.319422 
L 76.806872 199.026035 
L 74.51732 198.817297 
L 72.227767 198.720747 
L 69.938215 198.762893 
L 67.648662 198.974794 
L 65.35911 199.399692 
L 64.259848 199.720689 
L 63.069558 200.053137 
L 60.780005 200.996514 
L 59.722642 201.590983 
L 58.490453 202.41789 
L 57.247941 203.461277 
L 56.200901 204.799252 
L 55.817897 205.331571 
L 55.148933 207.201864 
L 55.184159 209.072158 
L 55.954682 210.942452 
L 56.200901 211.250184 
L 57.588296 212.812746 
L 58.490453 213.479937 
L 60.604598 214.683039 
L 60.780005 214.766274 
L 63.069558 215.608365 
L 65.35911 216.143311 
L 67.648662 216.452349 
L 69.359967 216.553333 
z
M 64.802184 214.683039 
L 63.069558 214.162872 
L 60.780005 213.105197 
L 60.300034 212.812746 
L 58.490453 211.203345 
L 58.245542 210.942452 
L 57.33758 209.072158 
L 57.295077 207.201864 
L 58.080496 205.331571 
L 58.490453 204.844725 
L 59.855676 203.461277 
L 60.780005 202.819237 
L 63.069558 201.644347 
L 63.216934 201.590983 
L 65.35911 200.887324 
L 67.648662 200.434669 
L 69.938215 200.215475 
L 72.227767 200.183531 
L 74.51732 200.305869 
L 76.806872 200.554359 
L 79.096424 200.899428 
L 81.385977 201.306484 
L 82.934307 201.590983 
L 83.675529 201.738116 
L 85.965081 202.158197 
L 88.254634 202.532643 
L 90.544186 202.844555 
L 92.833739 203.093133 
L 95.123291 203.290362 
L 97.412843 203.455212 
L 97.50539 203.461277 
L 99.702396 203.647696 
L 101.991948 203.852145 
L 104.2815 204.08808 
L 106.571053 204.37368 
L 108.860605 204.725136 
L 111.150158 205.157814 
L 111.921024 205.331571 
L 113.43971 206.067512 
L 115.3891 207.201864 
L 114.196486 209.072158 
L 113.43971 209.32322 
L 111.150158 209.979567 
L 108.860605 210.532251 
L 106.846545 210.942452 
L 106.571053 210.976505 
L 104.2815 211.219855 
L 101.991948 211.429527 
L 99.702396 211.619257 
L 97.412843 211.805762 
L 95.123291 212.009082 
L 92.833739 212.251544 
L 90.544186 212.55451 
L 88.997511 212.812746 
L 88.254634 212.91236 
L 85.965081 213.289052 
L 83.675529 213.713385 
L 81.385977 214.156623 
L 79.096424 214.581421 
L 78.488503 214.683039 
L 76.806872 214.948835 
L 74.51732 215.224591 
L 72.227767 215.380076 
L 69.938215 215.388809 
L 67.648662 215.220687 
L 65.35911 214.83406 
z
" style="fill:#fb7a5a;"/>
   </g>
   <g id="PathCollection_6">
    <path clip-path="url(#p54b76684f4)" d="M 65.35911 214.83406 
L 67.648662 215.220687 
L 69.938215 215.388809 
L 72.227767 215.380076 
L 74.51732 215.224591 
L 76.806872 214.948835 
L 78.488503 214.683039 
L 79.096424 214.581421 
L 81.385977 214.156623 
L 83.675529 213.713385 
L 85.965081 213.289052 
L 88.254634 212.91236 
L 88.997511 212.812746 
L 90.544186 212.55451 
L 92.833739 212.251544 
L 95.123291 212.009082 
L 97.412843 211.805762 
L 99.702396 211.619257 
L 101.991948 211.429527 
L 104.2815 211.219855 
L 106.571053 210.976505 
L 106.846545 210.942452 
L 108.860605 210.532251 
L 111.150158 209.979567 
L 113.43971 209.32322 
L 114.196486 209.072158 
L 115.3891 207.201864 
L 113.43971 206.067512 
L 111.921024 205.331571 
L 111.150158 205.157814 
L 108.860605 204.725136 
L 106.571053 204.37368 
L 104.2815 204.08808 
L 101.991948 203.852145 
L 99.702396 203.647696 
L 97.50539 203.461277 
L 97.412843 203.455212 
L 95.123291 203.290362 
L 92.833739 203.093133 
L 90.544186 202.844555 
L 88.254634 202.532643 
L 85.965081 202.158197 
L 83.675529 201.738116 
L 82.934307 201.590983 
L 81.385977 201.306484 
L 79.096424 200.899428 
L 76.806872 200.554359 
L 74.51732 200.305869 
L 72.227767 200.183531 
L 69.938215 200.215475 
L 67.648662 200.434669 
L 65.35911 200.887324 
L 63.216934 201.590983 
L 63.069558 201.644347 
L 60.780005 202.819237 
L 59.855676 203.461277 
L 58.490453 204.844725 
L 58.080496 205.331571 
L 57.295077 207.201864 
L 57.33758 209.072158 
L 58.245542 210.942452 
L 58.490453 211.203345 
L 60.300034 212.812746 
L 60.780005 213.105197 
L 63.069558 214.162872 
L 64.802184 214.683039 
z
M 63.328343 212.812746 
L 63.069558 212.691321 
L 60.780005 211.13946 
L 60.555517 210.942452 
L 59.446953 209.072158 
L 59.39357 207.201864 
L 60.347919 205.331571 
L 60.780005 204.907378 
L 62.662211 203.461277 
L 63.069558 203.237843 
L 65.35911 202.334333 
L 67.648662 201.797704 
L 69.501866 201.590983 
L 69.938215 201.543655 
L 72.227767 201.517243 
L 73.289731 201.590983 
L 74.51732 201.679191 
L 76.806872 201.997224 
L 79.096424 202.436004 
L 81.385977 202.953933 
L 83.511485 203.461277 
L 83.675529 203.513383 
L 85.965081 204.177981 
L 88.254634 204.77699 
L 90.544186 205.282895 
L 90.825179 205.331571 
L 92.833739 206.037668 
L 95.123291 206.694895 
L 97.180157 207.201864 
L 95.23007 209.072158 
L 95.123291 209.089899 
L 92.833739 209.55394 
L 90.544186 210.140661 
L 88.254634 210.881706 
L 88.105575 210.942452 
L 85.965081 211.445038 
L 83.675529 212.055107 
L 81.385977 212.695052 
L 80.968293 212.812746 
L 79.096424 213.22333 
L 76.806872 213.662981 
L 74.51732 213.993349 
L 72.227767 214.179566 
L 69.938215 214.189425 
L 67.648662 213.986388 
L 65.35911 213.520058 
z
" style="fill:#f6583e;"/>
   </g>
   <g id="PathCollection_7">
    <path clip-path="url(#p54b76684f4)" d="M 65.35911 213.520058 
L 67.648662 213.986388 
L 69.938215 214.189425 
L 72.227767 214.179566 
L 74.51732 213.993349 
L 76.806872 213.662981 
L 79.096424 213.22333 
L 80.968293 212.812746 
L 81.385977 212.695052 
L 83.675529 212.055107 
L 85.965081 211.445038 
L 88.105575 210.942452 
L 88.254634 210.881706 
L 90.544186 210.140661 
L 92.833739 209.55394 
L 95.123291 209.089899 
L 95.23007 209.072158 
L 97.180157 207.201864 
L 95.123291 206.694895 
L 92.833739 206.037668 
L 90.825179 205.331571 
L 90.544186 205.282895 
L 88.254634 204.77699 
L 85.965081 204.177981 
L 83.675529 203.513383 
L 83.511485 203.461277 
L 81.385977 202.953933 
L 79.096424 202.436004 
L 76.806872 201.997224 
L 74.51732 201.679191 
L 73.289731 201.590983 
L 72.227767 201.517243 
L 69.938215 201.543655 
L 69.501866 201.590983 
L 67.648662 201.797704 
L 65.35911 202.334333 
L 63.069558 203.237843 
L 62.662211 203.461277 
L 60.780005 204.907378 
L 60.347919 205.331571 
L 59.39357 207.201864 
L 59.446953 209.072158 
L 60.555517 210.942452 
L 60.780005 211.13946 
L 63.069558 212.691321 
L 63.328343 212.812746 
z
M 68.240361 212.812746 
L 67.648662 212.736228 
L 65.35911 212.071111 
L 63.109538 210.942452 
L 63.069558 210.904003 
L 61.662768 209.072158 
L 61.590923 207.201864 
L 62.821197 205.331571 
L 63.069558 205.139239 
L 65.35911 203.855203 
L 66.514373 203.461277 
L 67.648662 203.163646 
L 69.938215 202.875997 
L 72.227767 202.856211 
L 74.51732 203.059336 
L 76.806872 203.447013 
L 76.872149 203.461277 
L 79.096424 204.100963 
L 81.385977 204.879236 
L 82.673056 205.331571 
L 83.675529 206.045455 
L 85.412004 207.201864 
L 84.944133 209.072158 
L 83.675529 209.709563 
L 81.411965 210.942452 
L 81.385977 210.950408 
L 79.096424 211.663534 
L 76.806872 212.282974 
L 74.51732 212.749587 
L 73.977746 212.812746 
L 72.227767 212.977011 
L 69.938215 212.98763 
z
" style="fill:#e83429;"/>
   </g>
   <g id="PathCollection_8">
    <path clip-path="url(#p54b76684f4)" d="M 69.938215 212.98763 
L 72.227767 212.977011 
L 73.977746 212.812746 
L 74.51732 212.749587 
L 76.806872 212.282974 
L 79.096424 211.663534 
L 81.385977 210.950408 
L 81.411965 210.942452 
L 83.675529 209.709563 
L 84.944133 209.072158 
L 85.412004 207.201864 
L 83.675529 206.045455 
L 82.673056 205.331571 
L 81.385977 204.879236 
L 79.096424 204.100963 
L 76.872149 203.461277 
L 76.806872 203.447013 
L 74.51732 203.059336 
L 72.227767 202.856211 
L 69.938215 202.875997 
L 67.648662 203.163646 
L 66.514373 203.461277 
L 65.35911 203.855203 
L 63.069558 205.139239 
L 62.821197 205.331571 
L 61.590923 207.201864 
L 61.662768 209.072158 
L 63.069558 210.904003 
L 63.109538 210.942452 
L 65.35911 212.071111 
L 67.648662 212.736228 
L 68.240361 212.812746 
z
M 66.758621 210.942452 
L 65.35911 210.115368 
L 64.258617 209.072158 
L 64.150726 207.201864 
L 65.35911 205.871835 
L 66.125893 205.331571 
L 67.648662 204.771675 
L 69.938215 204.37882 
L 72.227767 204.364091 
L 74.51732 204.666165 
L 76.806872 205.233098 
L 77.114085 205.331571 
L 79.096424 206.590708 
L 79.947466 207.201864 
L 79.614117 209.072158 
L 79.096424 209.367928 
L 76.806872 210.562793 
L 75.869416 210.942452 
L 74.51732 211.25 
L 72.227767 211.547915 
L 69.938215 211.560519 
L 67.648662 211.227399 
z
" style="fill:#ca181d;"/>
   </g>
   <g id="PathCollection_9">
    <path clip-path="url(#p54b76684f4)" d="M 67.648662 211.227399 
L 69.938215 211.560519 
L 72.227767 211.547915 
L 74.51732 211.25 
L 75.869416 210.942452 
L 76.806872 210.562793 
L 79.096424 209.367928 
L 79.614117 209.072158 
L 79.947466 207.201864 
L 79.096424 206.590708 
L 77.114085 205.331571 
L 76.806872 205.233098 
L 74.51732 204.666165 
L 72.227767 204.364091 
L 69.938215 204.37882 
L 67.648662 204.771675 
L 66.125893 205.331571 
L 65.35911 205.871835 
L 64.150726 207.201864 
L 64.258617 209.072158 
L 65.35911 210.115368 
L 66.758621 210.942452 
z
M 68.501343 209.072158 
L 68.088868 207.201864 
L 69.938215 206.574646 
L 72.227767 206.571929 
L 74.423969 207.201864 
L 73.817486 209.072158 
L 72.227767 209.462264 
L 69.938215 209.478636 
z
" style="fill:#ac1117;"/>
   </g>
   <g id="PathCollection_10">
    <path clip-path="url(#p54b76684f4)" d="M 69.938215 209.478636 
L 72.227767 209.462264 
L 73.817486 209.072158 
L 74.423969 207.201864 
L 72.227767 206.571929 
L 69.938215 206.574646 
L 68.088868 207.201864 
L 68.501343 209.072158 
z
" style="fill:#7e0610;"/>
   </g>
   <g id="matplotlib.axis_1">
    <g id="xtick_1">
     <g id="line2d_1">
      <defs>
       <path d="M 0 0 
L 0 3.5 
" id="me53486265a" style="stroke:#262626;stroke-width:0.8;"/>
      </defs>
      <g>
       <use style="fill:#262626;stroke:#262626;stroke-width:0.8;" x="67.334837" xlink:href="#me53486265a" y="223"/>
      </g>
     </g>
     <g id="line2d_2">
      <defs>
       <path d="M 0 0 
L 0 -3.5 
" id="mbdeac22764" style="stroke:#262626;stroke-width:0.8;"/>
      </defs>
      <g>
       <use style="fill:#262626;stroke:#262626;stroke-width:0.8;" x="67.334837" xlink:href="#mbdeac22764" y="25.44"/>
      </g>
     </g>
     <g id="text_1">
      <!-- 0.0 -->
      <defs>
       <path d="M 31.78125 66.40625 
Q 24.171875 66.40625 20.328125 58.90625 
Q 16.5 51.421875 16.5 36.375 
Q 16.5 21.390625 20.328125 13.890625 
Q 24.171875 6.390625 31.78125 6.390625 
Q 39.453125 6.390625 43.28125 13.890625 
Q 47.125 21.390625 47.125 36.375 
Q 47.125 51.421875 43.28125 58.90625 
Q 39.453125 66.40625 31.78125 66.40625 
z
M 31.78125 74.21875 
Q 44.046875 74.21875 50.515625 64.515625 
Q 56.984375 54.828125 56.984375 36.375 
Q 56.984375 17.96875 50.515625 8.265625 
Q 44.046875 -1.421875 31.78125 -1.421875 
Q 19.53125 -1.421875 13.0625 8.265625 
Q 6.59375 17.96875 6.59375 36.375 
Q 6.59375 54.828125 13.0625 64.515625 
Q 19.53125 74.21875 31.78125 74.21875 
z
" id="DejaVuSans-30"/>
       <path d="M 10.6875 12.40625 
L 21 12.40625 
L 21 0 
L 10.6875 0 
z
" id="DejaVuSans-2e"/>
      </defs>
      <g style="fill:#262626;" transform="translate(58.588118 238.358281)scale(0.11 -0.11)">
       <use xlink:href="#DejaVuSans-30"/>
       <use x="63.623047" xlink:href="#DejaVuSans-2e"/>
       <use x="95.410156" xlink:href="#DejaVuSans-30"/>
      </g>
     </g>
    </g>
    <g id="xtick_2">
     <g id="line2d_3">
      <g>
       <use style="fill:#262626;stroke:#262626;stroke-width:0.8;" x="137.867965" xlink:href="#me53486265a" y="223"/>
      </g>
     </g>
     <g id="line2d_4">
      <g>
       <use style="fill:#262626;stroke:#262626;stroke-width:0.8;" x="137.867965" xlink:href="#mbdeac22764" y="25.44"/>
      </g>
     </g>
     <g id="text_2">
      <!-- 1.0 -->
      <defs>
       <path d="M 12.40625 8.296875 
L 28.515625 8.296875 
L 28.515625 63.921875 
L 10.984375 60.40625 
L 10.984375 69.390625 
L 28.421875 72.90625 
L 38.28125 72.90625 
L 38.28125 8.296875 
L 54.390625 8.296875 
L 54.390625 0 
L 12.40625 0 
z
" id="DejaVuSans-31"/>
      </defs>
      <g style="fill:#262626;" transform="translate(129.121247 238.358281)scale(0.11 -0.11)">
       <use xlink:href="#DejaVuSans-31"/>
       <use x="63.623047" xlink:href="#DejaVuSans-2e"/>
       <use x="95.410156" xlink:href="#DejaVuSans-30"/>
      </g>
     </g>
    </g>
    <g id="xtick_3">
     <g id="line2d_5">
      <g>
       <use style="fill:#262626;stroke:#262626;stroke-width:0.8;" x="208.401094" xlink:href="#me53486265a" y="223"/>
      </g>
     </g>
     <g id="line2d_6">
      <g>
       <use style="fill:#262626;stroke:#262626;stroke-width:0.8;" x="208.401094" xlink:href="#mbdeac22764" y="25.44"/>
      </g>
     </g>
     <g id="text_3">
      <!-- 2.0 -->
      <defs>
       <path d="M 19.1875 8.296875 
L 53.609375 8.296875 
L 53.609375 0 
L 7.328125 0 
L 7.328125 8.296875 
Q 12.9375 14.109375 22.625 23.890625 
Q 32.328125 33.6875 34.8125 36.53125 
Q 39.546875 41.84375 41.421875 45.53125 
Q 43.3125 49.21875 43.3125 52.78125 
Q 43.3125 58.59375 39.234375 62.25 
Q 35.15625 65.921875 28.609375 65.921875 
Q 23.96875 65.921875 18.8125 64.3125 
Q 13.671875 62.703125 7.8125 59.421875 
L 7.8125 69.390625 
Q 13.765625 71.78125 18.9375 73 
Q 24.125 74.21875 28.421875 74.21875 
Q 39.75 74.21875 46.484375 68.546875 
Q 53.21875 62.890625 53.21875 53.421875 
Q 53.21875 48.921875 51.53125 44.890625 
Q 49.859375 40.875 45.40625 35.40625 
Q 44.1875 33.984375 37.640625 27.21875 
Q 31.109375 20.453125 19.1875 8.296875 
z
" id="DejaVuSans-32"/>
      </defs>
      <g style="fill:#262626;" transform="translate(199.654375 238.358281)scale(0.11 -0.11)">
       <use xlink:href="#DejaVuSans-32"/>
       <use x="63.623047" xlink:href="#DejaVuSans-2e"/>
       <use x="95.410156" xlink:href="#DejaVuSans-30"/>
      </g>
     </g>
    </g>
    <g id="text_4">
     <!-- log10 counts (Control) -->
     <defs>
      <path d="M 9.421875 75.984375 
L 18.40625 75.984375 
L 18.40625 0 
L 9.421875 0 
z
" id="DejaVuSans-6c"/>
      <path d="M 30.609375 48.390625 
Q 23.390625 48.390625 19.1875 42.75 
Q 14.984375 37.109375 14.984375 27.296875 
Q 14.984375 17.484375 19.15625 11.84375 
Q 23.34375 6.203125 30.609375 6.203125 
Q 37.796875 6.203125 41.984375 11.859375 
Q 46.1875 17.53125 46.1875 27.296875 
Q 46.1875 37.015625 41.984375 42.703125 
Q 37.796875 48.390625 30.609375 48.390625 
z
M 30.609375 56 
Q 42.328125 56 49.015625 48.375 
Q 55.71875 40.765625 55.71875 27.296875 
Q 55.71875 13.875 49.015625 6.21875 
Q 42.328125 -1.421875 30.609375 -1.421875 
Q 18.84375 -1.421875 12.171875 6.21875 
Q 5.515625 13.875 5.515625 27.296875 
Q 5.515625 40.765625 12.171875 48.375 
Q 18.84375 56 30.609375 56 
z
" id="DejaVuSans-6f"/>
      <path d="M 45.40625 27.984375 
Q 45.40625 37.75 41.375 43.109375 
Q 37.359375 48.484375 30.078125 48.484375 
Q 22.859375 48.484375 18.828125 43.109375 
Q 14.796875 37.75 14.796875 27.984375 
Q 14.796875 18.265625 18.828125 12.890625 
Q 22.859375 7.515625 30.078125 7.515625 
Q 37.359375 7.515625 41.375 12.890625 
Q 45.40625 18.265625 45.40625 27.984375 
z
M 54.390625 6.78125 
Q 54.390625 -7.171875 48.1875 -13.984375 
Q 42 -20.796875 29.203125 -20.796875 
Q 24.46875 -20.796875 20.265625 -20.09375 
Q 16.0625 -19.390625 12.109375 -17.921875 
L 12.109375 -9.1875 
Q 16.0625 -11.328125 19.921875 -12.34375 
Q 23.78125 -13.375 27.78125 -13.375 
Q 36.625 -13.375 41.015625 -8.765625 
Q 45.40625 -4.15625 45.40625 5.171875 
L 45.40625 9.625 
Q 42.625 4.78125 38.28125 2.390625 
Q 33.9375 0 27.875 0 
Q 17.828125 0 11.671875 7.65625 
Q 5.515625 15.328125 5.515625 27.984375 
Q 5.515625 40.671875 11.671875 48.328125 
Q 17.828125 56 27.875 56 
Q 33.9375 56 38.28125 53.609375 
Q 42.625 51.21875 45.40625 46.390625 
L 45.40625 54.6875 
L 54.390625 54.6875 
z
" id="DejaVuSans-67"/>
      <path id="DejaVuSans-20"/>
      <path d="M 48.78125 52.59375 
L 48.78125 44.1875 
Q 44.96875 46.296875 41.140625 47.34375 
Q 37.3125 48.390625 33.40625 48.390625 
Q 24.65625 48.390625 19.8125 42.84375 
Q 14.984375 37.3125 14.984375 27.296875 
Q 14.984375 17.28125 19.8125 11.734375 
Q 24.65625 6.203125 33.40625 6.203125 
Q 37.3125 6.203125 41.140625 7.25 
Q 44.96875 8.296875 48.78125 10.40625 
L 48.78125 2.09375 
Q 45.015625 0.34375 40.984375 -0.53125 
Q 36.96875 -1.421875 32.421875 -1.421875 
Q 20.0625 -1.421875 12.78125 6.34375 
Q 5.515625 14.109375 5.515625 27.296875 
Q 5.515625 40.671875 12.859375 48.328125 
Q 20.21875 56 33.015625 56 
Q 37.15625 56 41.109375 55.140625 
Q 45.0625 54.296875 48.78125 52.59375 
z
" id="DejaVuSans-63"/>
      <path d="M 8.5 21.578125 
L 8.5 54.6875 
L 17.484375 54.6875 
L 17.484375 21.921875 
Q 17.484375 14.15625 20.5 10.265625 
Q 23.53125 6.390625 29.59375 6.390625 
Q 36.859375 6.390625 41.078125 11.03125 
Q 45.3125 15.671875 45.3125 23.6875 
L 45.3125 54.6875 
L 54.296875 54.6875 
L 54.296875 0 
L 45.3125 0 
L 45.3125 8.40625 
Q 42.046875 3.421875 37.71875 1 
Q 33.40625 -1.421875 27.6875 -1.421875 
Q 18.265625 -1.421875 13.375 4.4375 
Q 8.5 10.296875 8.5 21.578125 
z
M 31.109375 56 
z
" id="DejaVuSans-75"/>
      <path d="M 54.890625 33.015625 
L 54.890625 0 
L 45.90625 0 
L 45.90625 32.71875 
Q 45.90625 40.484375 42.875 44.328125 
Q 39.84375 48.1875 33.796875 48.1875 
Q 26.515625 48.1875 22.3125 43.546875 
Q 18.109375 38.921875 18.109375 30.90625 
L 18.109375 0 
L 9.078125 0 
L 9.078125 54.6875 
L 18.109375 54.6875 
L 18.109375 46.1875 
Q 21.34375 51.125 25.703125 53.5625 
Q 30.078125 56 35.796875 56 
Q 45.21875 56 50.046875 50.171875 
Q 54.890625 44.34375 54.890625 33.015625 
z
" id="DejaVuSans-6e"/>
      <path d="M 18.3125 70.21875 
L 18.3125 54.6875 
L 36.8125 54.6875 
L 36.8125 47.703125 
L 18.3125 47.703125 
L 18.3125 18.015625 
Q 18.3125 11.328125 20.140625 9.421875 
Q 21.96875 7.515625 27.59375 7.515625 
L 36.8125 7.515625 
L 36.8125 0 
L 27.59375 0 
Q 17.1875 0 13.234375 3.875 
Q 9.28125 7.765625 9.28125 18.015625 
L 9.28125 47.703125 
L 2.6875 47.703125 
L 2.6875 54.6875 
L 9.28125 54.6875 
L 9.28125 70.21875 
z
" id="DejaVuSans-74"/>
      <path d="M 44.28125 53.078125 
L 44.28125 44.578125 
Q 40.484375 46.53125 36.375 47.5 
Q 32.28125 48.484375 27.875 48.484375 
Q 21.1875 48.484375 17.84375 46.4375 
Q 14.5 44.390625 14.5 40.28125 
Q 14.5 37.15625 16.890625 35.375 
Q 19.28125 33.59375 26.515625 31.984375 
L 29.59375 31.296875 
Q 39.15625 29.25 43.1875 25.515625 
Q 47.21875 21.78125 47.21875 15.09375 
Q 47.21875 7.46875 41.1875 3.015625 
Q 35.15625 -1.421875 24.609375 -1.421875 
Q 20.21875 -1.421875 15.453125 -0.5625 
Q 10.6875 0.296875 5.421875 2 
L 5.421875 11.28125 
Q 10.40625 8.6875 15.234375 7.390625 
Q 20.0625 6.109375 24.8125 6.109375 
Q 31.15625 6.109375 34.5625 8.28125 
Q 37.984375 10.453125 37.984375 14.40625 
Q 37.984375 18.0625 35.515625 20.015625 
Q 33.0625 21.96875 24.703125 23.78125 
L 21.578125 24.515625 
Q 13.234375 26.265625 9.515625 29.90625 
Q 5.8125 33.546875 5.8125 39.890625 
Q 5.8125 47.609375 11.28125 51.796875 
Q 16.75 56 26.8125 56 
Q 31.78125 56 36.171875 55.265625 
Q 40.578125 54.546875 44.28125 53.078125 
z
" id="DejaVuSans-73"/>
      <path d="M 31 75.875 
Q 24.46875 64.65625 21.28125 53.65625 
Q 18.109375 42.671875 18.109375 31.390625 
Q 18.109375 20.125 21.3125 9.0625 
Q 24.515625 -2 31 -13.1875 
L 23.1875 -13.1875 
Q 15.875 -1.703125 12.234375 9.375 
Q 8.59375 20.453125 8.59375 31.390625 
Q 8.59375 42.28125 12.203125 53.3125 
Q 15.828125 64.359375 23.1875 75.875 
z
" id="DejaVuSans-28"/>
      <path d="M 64.40625 67.28125 
L 64.40625 56.890625 
Q 59.421875 61.53125 53.78125 63.8125 
Q 48.140625 66.109375 41.796875 66.109375 
Q 29.296875 66.109375 22.65625 58.46875 
Q 16.015625 50.828125 16.015625 36.375 
Q 16.015625 21.96875 22.65625 14.328125 
Q 29.296875 6.6875 41.796875 6.6875 
Q 48.140625 6.6875 53.78125 8.984375 
Q 59.421875 11.28125 64.40625 15.921875 
L 64.40625 5.609375 
Q 59.234375 2.09375 53.4375 0.328125 
Q 47.65625 -1.421875 41.21875 -1.421875 
Q 24.65625 -1.421875 15.125 8.703125 
Q 5.609375 18.84375 5.609375 36.375 
Q 5.609375 53.953125 15.125 64.078125 
Q 24.65625 74.21875 41.21875 74.21875 
Q 47.75 74.21875 53.53125 72.484375 
Q 59.328125 70.75 64.40625 67.28125 
z
" id="DejaVuSans-43"/>
      <path d="M 41.109375 46.296875 
Q 39.59375 47.171875 37.8125 47.578125 
Q 36.03125 48 33.890625 48 
Q 26.265625 48 22.1875 43.046875 
Q 18.109375 38.09375 18.109375 28.8125 
L 18.109375 0 
L 9.078125 0 
L 9.078125 54.6875 
L 18.109375 54.6875 
L 18.109375 46.1875 
Q 20.953125 51.171875 25.484375 53.578125 
Q 30.03125 56 36.53125 56 
Q 37.453125 56 38.578125 55.875 
Q 39.703125 55.765625 41.0625 55.515625 
z
" id="DejaVuSans-72"/>
      <path d="M 8.015625 75.875 
L 15.828125 75.875 
Q 23.140625 64.359375 26.78125 53.3125 
Q 30.421875 42.28125 30.421875 31.390625 
Q 30.421875 20.453125 26.78125 9.375 
Q 23.140625 -1.703125 15.828125 -13.1875 
L 8.015625 -13.1875 
Q 14.5 -2 17.703125 9.0625 
Q 20.90625 20.125 20.90625 31.390625 
Q 20.90625 42.671875 17.703125 53.65625 
Q 14.5 64.65625 8.015625 75.875 
z
" id="DejaVuSans-29"/>
     </defs>
     <g transform="translate(83.294531 253.004219)scale(0.11 -0.11)">
      <use xlink:href="#DejaVuSans-6c"/>
      <use x="27.783203" xlink:href="#DejaVuSans-6f"/>
      <use x="88.964844" xlink:href="#DejaVuSans-67"/>
      <use x="152.441406" xlink:href="#DejaVuSans-31"/>
      <use x="216.064453" xlink:href="#DejaVuSans-30"/>
      <use x="279.6875" xlink:href="#DejaVuSans-20"/>
      <use x="311.474609" xlink:href="#DejaVuSans-63"/>
      <use x="366.455078" xlink:href="#DejaVuSans-6f"/>
      <use x="427.636719" xlink:href="#DejaVuSans-75"/>
      <use x="491.015625" xlink:href="#DejaVuSans-6e"/>
      <use x="554.394531" xlink:href="#DejaVuSans-74"/>
      <use x="593.603516" xlink:href="#DejaVuSans-73"/>
      <use x="645.703125" xlink:href="#DejaVuSans-20"/>
      <use x="677.490234" xlink:href="#DejaVuSans-28"/>
      <use x="716.503906" xlink:href="#DejaVuSans-43"/>
      <use x="786.328125" xlink:href="#DejaVuSans-6f"/>
      <use x="847.509766" xlink:href="#DejaVuSans-6e"/>
      <use x="910.888672" xlink:href="#DejaVuSans-74"/>
      <use x="950.097656" xlink:href="#DejaVuSans-72"/>
      <use x="991.179688" xlink:href="#DejaVuSans-6f"/>
      <use x="1052.361328" xlink:href="#DejaVuSans-6c"/>
      <use x="1080.144531" xlink:href="#DejaVuSans-29"/>
     </g>
    </g>
   </g>
   <g id="matplotlib.axis_2">
    <g id="ytick_1">
     <g id="line2d_7">
      <defs>
       <path d="M 0 0 
L -3.5 0 
" id="m4647c9263c" style="stroke:#262626;stroke-width:0.8;"/>
      </defs>
      <g>
       <use style="fill:#262626;stroke:#262626;stroke-width:0.8;" x="51.01625" xlink:href="#m4647c9263c" y="208.365926"/>
      </g>
     </g>
     <g id="line2d_8">
      <defs>
       <path d="M 0 0 
L 3.5 0 
" id="m370b474d11" style="stroke:#262626;stroke-width:0.8;"/>
      </defs>
      <g>
       <use style="fill:#262626;stroke:#262626;stroke-width:0.8;" x="238.68" xlink:href="#m370b474d11" y="208.365926"/>
      </g>
     </g>
     <g id="text_5">
      <!-- 0.0 -->
      <g style="fill:#262626;" transform="translate(26.522813 212.545067)scale(0.11 -0.11)">
       <use xlink:href="#DejaVuSans-30"/>
       <use x="63.623047" xlink:href="#DejaVuSans-2e"/>
       <use x="95.410156" xlink:href="#DejaVuSans-30"/>
      </g>
     </g>
    </g>
    <g id="ytick_2">
     <g id="line2d_9">
      <g>
       <use style="fill:#262626;stroke:#262626;stroke-width:0.8;" x="51.01625" xlink:href="#m4647c9263c" y="165.234438"/>
      </g>
     </g>
     <g id="line2d_10">
      <g>
       <use style="fill:#262626;stroke:#262626;stroke-width:0.8;" x="238.68" xlink:href="#m370b474d11" y="165.234438"/>
      </g>
     </g>
     <g id="text_6">
      <!-- 1.0 -->
      <g style="fill:#262626;" transform="translate(26.522813 169.413579)scale(0.11 -0.11)">
       <use xlink:href="#DejaVuSans-31"/>
       <use x="63.623047" xlink:href="#DejaVuSans-2e"/>
       <use x="95.410156" xlink:href="#DejaVuSans-30"/>
      </g>
     </g>
    </g>
    <g id="ytick_3">
     <g id="line2d_11">
      <g>
       <use style="fill:#262626;stroke:#262626;stroke-width:0.8;" x="51.01625" xlink:href="#m4647c9263c" y="122.102951"/>
      </g>
     </g>
     <g id="line2d_12">
      <g>
       <use style="fill:#262626;stroke:#262626;stroke-width:0.8;" x="238.68" xlink:href="#m370b474d11" y="122.102951"/>
      </g>
     </g>
     <g id="text_7">
      <!-- 2.0 -->
      <g style="fill:#262626;" transform="translate(26.522813 126.282091)scale(0.11 -0.11)">
       <use xlink:href="#DejaVuSans-32"/>
       <use x="63.623047" xlink:href="#DejaVuSans-2e"/>
       <use x="95.410156" xlink:href="#DejaVuSans-30"/>
      </g>
     </g>
    </g>
    <g id="ytick_4">
     <g id="line2d_13">
      <g>
       <use style="fill:#262626;stroke:#262626;stroke-width:0.8;" x="51.01625" xlink:href="#m4647c9263c" y="78.971463"/>
      </g>
     </g>
     <g id="line2d_14">
      <g>
       <use style="fill:#262626;stroke:#262626;stroke-width:0.8;" x="238.68" xlink:href="#m370b474d11" y="78.971463"/>
      </g>
     </g>
     <g id="text_8">
      <!-- 3.0 -->
      <defs>
       <path d="M 40.578125 39.3125 
Q 47.65625 37.796875 51.625 33 
Q 55.609375 28.21875 55.609375 21.1875 
Q 55.609375 10.40625 48.1875 4.484375 
Q 40.765625 -1.421875 27.09375 -1.421875 
Q 22.515625 -1.421875 17.65625 -0.515625 
Q 12.796875 0.390625 7.625 2.203125 
L 7.625 11.71875 
Q 11.71875 9.328125 16.59375 8.109375 
Q 21.484375 6.890625 26.8125 6.890625 
Q 36.078125 6.890625 40.9375 10.546875 
Q 45.796875 14.203125 45.796875 21.1875 
Q 45.796875 27.640625 41.28125 31.265625 
Q 36.765625 34.90625 28.71875 34.90625 
L 20.21875 34.90625 
L 20.21875 43.015625 
L 29.109375 43.015625 
Q 36.375 43.015625 40.234375 45.921875 
Q 44.09375 48.828125 44.09375 54.296875 
Q 44.09375 59.90625 40.109375 62.90625 
Q 36.140625 65.921875 28.71875 65.921875 
Q 24.65625 65.921875 20.015625 65.03125 
Q 15.375 64.15625 9.8125 62.3125 
L 9.8125 71.09375 
Q 15.4375 72.65625 20.34375 73.4375 
Q 25.25 74.21875 29.59375 74.21875 
Q 40.828125 74.21875 47.359375 69.109375 
Q 53.90625 64.015625 53.90625 55.328125 
Q 53.90625 49.265625 50.4375 45.09375 
Q 46.96875 40.921875 40.578125 39.3125 
z
" id="DejaVuSans-33"/>
      </defs>
      <g style="fill:#262626;" transform="translate(26.522813 83.150604)scale(0.11 -0.11)">
       <use xlink:href="#DejaVuSans-33"/>
       <use x="63.623047" xlink:href="#DejaVuSans-2e"/>
       <use x="95.410156" xlink:href="#DejaVuSans-30"/>
      </g>
     </g>
    </g>
    <g id="ytick_5">
     <g id="line2d_15">
      <g>
       <use style="fill:#262626;stroke:#262626;stroke-width:0.8;" x="51.01625" xlink:href="#m4647c9263c" y="35.839975"/>
      </g>
     </g>
     <g id="line2d_16">
      <g>
       <use style="fill:#262626;stroke:#262626;stroke-width:0.8;" x="238.68" xlink:href="#m370b474d11" y="35.839975"/>
      </g>
     </g>
     <g id="text_9">
      <!-- 4.0 -->
      <defs>
       <path d="M 37.796875 64.3125 
L 12.890625 25.390625 
L 37.796875 25.390625 
z
M 35.203125 72.90625 
L 47.609375 72.90625 
L 47.609375 25.390625 
L 58.015625 25.390625 
L 58.015625 17.1875 
L 47.609375 17.1875 
L 47.609375 0 
L 37.796875 0 
L 37.796875 17.1875 
L 4.890625 17.1875 
L 4.890625 26.703125 
z
" id="DejaVuSans-34"/>
      </defs>
      <g style="fill:#262626;" transform="translate(26.522813 40.019116)scale(0.11 -0.11)">
       <use xlink:href="#DejaVuSans-34"/>
       <use x="63.623047" xlink:href="#DejaVuSans-2e"/>
       <use x="95.410156" xlink:href="#DejaVuSans-30"/>
      </g>
     </g>
    </g>
    <g id="text_10">
     <!-- log10 counts (ToxA_avg) -->
     <defs>
      <path d="M -0.296875 72.90625 
L 61.375 72.90625 
L 61.375 64.59375 
L 35.5 64.59375 
L 35.5 0 
L 25.59375 0 
L 25.59375 64.59375 
L -0.296875 64.59375 
z
" id="DejaVuSans-54"/>
      <path d="M 54.890625 54.6875 
L 35.109375 28.078125 
L 55.90625 0 
L 45.3125 0 
L 29.390625 21.484375 
L 13.484375 0 
L 2.875 0 
L 24.125 28.609375 
L 4.6875 54.6875 
L 15.28125 54.6875 
L 29.78125 35.203125 
L 44.28125 54.6875 
z
" id="DejaVuSans-78"/>
      <path d="M 34.1875 63.1875 
L 20.796875 26.90625 
L 47.609375 26.90625 
z
M 28.609375 72.90625 
L 39.796875 72.90625 
L 67.578125 0 
L 57.328125 0 
L 50.6875 18.703125 
L 17.828125 18.703125 
L 11.1875 0 
L 0.78125 0 
z
" id="DejaVuSans-41"/>
      <path d="M 50.984375 -16.609375 
L 50.984375 -23.578125 
L -0.984375 -23.578125 
L -0.984375 -16.609375 
z
" id="DejaVuSans-5f"/>
      <path d="M 34.28125 27.484375 
Q 23.390625 27.484375 19.1875 25 
Q 14.984375 22.515625 14.984375 16.5 
Q 14.984375 11.71875 18.140625 8.90625 
Q 21.296875 6.109375 26.703125 6.109375 
Q 34.1875 6.109375 38.703125 11.40625 
Q 43.21875 16.703125 43.21875 25.484375 
L 43.21875 27.484375 
z
M 52.203125 31.203125 
L 52.203125 0 
L 43.21875 0 
L 43.21875 8.296875 
Q 40.140625 3.328125 35.546875 0.953125 
Q 30.953125 -1.421875 24.3125 -1.421875 
Q 15.921875 -1.421875 10.953125 3.296875 
Q 6 8.015625 6 15.921875 
Q 6 25.140625 12.171875 29.828125 
Q 18.359375 34.515625 30.609375 34.515625 
L 43.21875 34.515625 
L 43.21875 35.40625 
Q 43.21875 41.609375 39.140625 45 
Q 35.0625 48.390625 27.6875 48.390625 
Q 23 48.390625 18.546875 47.265625 
Q 14.109375 46.140625 10.015625 43.890625 
L 10.015625 52.203125 
Q 14.9375 54.109375 19.578125 55.046875 
Q 24.21875 56 28.609375 56 
Q 40.484375 56 46.34375 49.84375 
Q 52.203125 43.703125 52.203125 31.203125 
z
" id="DejaVuSans-61"/>
      <path d="M 2.984375 54.6875 
L 12.5 54.6875 
L 29.59375 8.796875 
L 46.6875 54.6875 
L 56.203125 54.6875 
L 35.6875 0 
L 23.484375 0 
z
" id="DejaVuSans-76"/>
     </defs>
     <g transform="translate(19.929219 192.365859)rotate(-90)scale(0.11 -0.11)">
      <use xlink:href="#DejaVuSans-6c"/>
      <use x="27.783203" xlink:href="#DejaVuSans-6f"/>
      <use x="88.964844" xlink:href="#DejaVuSans-67"/>
      <use x="152.441406" xlink:href="#DejaVuSans-31"/>
      <use x="216.064453" xlink:href="#DejaVuSans-30"/>
      <use x="279.6875" xlink:href="#DejaVuSans-20"/>
      <use x="311.474609" xlink:href="#DejaVuSans-63"/>
      <use x="366.455078" xlink:href="#DejaVuSans-6f"/>
      <use x="427.636719" xlink:href="#DejaVuSans-75"/>
      <use x="491.015625" xlink:href="#DejaVuSans-6e"/>
      <use x="554.394531" xlink:href="#DejaVuSans-74"/>
      <use x="593.603516" xlink:href="#DejaVuSans-73"/>
      <use x="645.703125" xlink:href="#DejaVuSans-20"/>
      <use x="677.490234" xlink:href="#DejaVuSans-28"/>
      <use x="716.503906" xlink:href="#DejaVuSans-54"/>
      <use x="777.322266" xlink:href="#DejaVuSans-6f"/>
      <use x="838.457031" xlink:href="#DejaVuSans-78"/>
      <use x="897.636719" xlink:href="#DejaVuSans-41"/>
      <use x="966.044922" xlink:href="#DejaVuSans-5f"/>
      <use x="1016.044922" xlink:href="#DejaVuSans-61"/>
      <use x="1077.324219" xlink:href="#DejaVuSans-76"/>
      <use x="1136.503906" xlink:href="#DejaVuSans-67"/>
      <use x="1199.980469" xlink:href="#DejaVuSans-29"/>
     </g>
    </g>
   </g>
   <g id="line2d_17">
    <path clip-path="url(#p54b76684f4)" d="M 51.01625 218.344853 
L 238.68 103.587194 
" style="fill:none;opacity:0.75;stroke:#808080;stroke-dasharray:5.55,2.4;stroke-dashoffset:0;stroke-width:1.5;"/>
   </g>
   <g id="patch_3">
    <path d="M 51.01625 223 
L 51.01625 25.44 
" style="fill:none;stroke:#000000;stroke-linecap:square;stroke-linejoin:miter;stroke-width:0.8;"/>
   </g>
   <g id="patch_4">
    <path d="M 238.68 223 
L 238.68 25.44 
" style="fill:none;stroke:#000000;stroke-linecap:square;stroke-linejoin:miter;stroke-width:0.8;"/>
   </g>
   <g id="patch_5">
    <path d="M 51.01625 223 
L 238.68 223 
" style="fill:none;stroke:#000000;stroke-linecap:square;stroke-linejoin:miter;stroke-width:0.8;"/>
   </g>
   <g id="patch_6">
    <path d="M 51.01625 25.44 
L 238.68 25.44 
" style="fill:none;stroke:#000000;stroke-linecap:square;stroke-linejoin:miter;stroke-width:0.8;"/>
   </g>
   <g id="text_11">
    <!-- sgRNA Density -->
    <defs>
     <path d="M 44.390625 34.1875 
Q 47.5625 33.109375 50.5625 29.59375 
Q 53.5625 26.078125 56.59375 19.921875 
L 66.609375 0 
L 56 0 
L 46.6875 18.703125 
Q 43.0625 26.03125 39.671875 28.421875 
Q 36.28125 30.8125 30.421875 30.8125 
L 19.671875 30.8125 
L 19.671875 0 
L 9.8125 0 
L 9.8125 72.90625 
L 32.078125 72.90625 
Q 44.578125 72.90625 50.734375 67.671875 
Q 56.890625 62.453125 56.890625 51.90625 
Q 56.890625 45.015625 53.6875 40.46875 
Q 50.484375 35.9375 44.390625 34.1875 
z
M 19.671875 64.796875 
L 19.671875 38.921875 
L 32.078125 38.921875 
Q 39.203125 38.921875 42.84375 42.21875 
Q 46.484375 45.515625 46.484375 51.90625 
Q 46.484375 58.296875 42.84375 61.546875 
Q 39.203125 64.796875 32.078125 64.796875 
z
" id="DejaVuSans-52"/>
     <path d="M 9.8125 72.90625 
L 23.09375 72.90625 
L 55.421875 11.921875 
L 55.421875 72.90625 
L 64.984375 72.90625 
L 64.984375 0 
L 51.703125 0 
L 19.390625 60.984375 
L 19.390625 0 
L 9.8125 0 
z
" id="DejaVuSans-4e"/>
     <path d="M 19.671875 64.796875 
L 19.671875 8.109375 
L 31.59375 8.109375 
Q 46.6875 8.109375 53.6875 14.9375 
Q 60.6875 21.78125 60.6875 36.53125 
Q 60.6875 51.171875 53.6875 57.984375 
Q 46.6875 64.796875 31.59375 64.796875 
z
M 9.8125 72.90625 
L 30.078125 72.90625 
Q 51.265625 72.90625 61.171875 64.09375 
Q 71.09375 55.28125 71.09375 36.53125 
Q 71.09375 17.671875 61.125 8.828125 
Q 51.171875 0 30.078125 0 
L 9.8125 0 
z
" id="DejaVuSans-44"/>
     <path d="M 56.203125 29.59375 
L 56.203125 25.203125 
L 14.890625 25.203125 
Q 15.484375 15.921875 20.484375 11.0625 
Q 25.484375 6.203125 34.421875 6.203125 
Q 39.59375 6.203125 44.453125 7.46875 
Q 49.3125 8.734375 54.109375 11.28125 
L 54.109375 2.78125 
Q 49.265625 0.734375 44.1875 -0.34375 
Q 39.109375 -1.421875 33.890625 -1.421875 
Q 20.796875 -1.421875 13.15625 6.1875 
Q 5.515625 13.8125 5.515625 26.8125 
Q 5.515625 40.234375 12.765625 48.109375 
Q 20.015625 56 32.328125 56 
Q 43.359375 56 49.78125 48.890625 
Q 56.203125 41.796875 56.203125 29.59375 
z
M 47.21875 32.234375 
Q 47.125 39.59375 43.09375 43.984375 
Q 39.0625 48.390625 32.421875 48.390625 
Q 24.90625 48.390625 20.390625 44.140625 
Q 15.875 39.890625 15.1875 32.171875 
z
" id="DejaVuSans-65"/>
     <path d="M 9.421875 54.6875 
L 18.40625 54.6875 
L 18.40625 0 
L 9.421875 0 
z
M 9.421875 75.984375 
L 18.40625 75.984375 
L 18.40625 64.59375 
L 9.421875 64.59375 
z
" id="DejaVuSans-69"/>
     <path d="M 32.171875 -5.078125 
Q 28.375 -14.84375 24.75 -17.8125 
Q 21.140625 -20.796875 15.09375 -20.796875 
L 7.90625 -20.796875 
L 7.90625 -13.28125 
L 13.1875 -13.28125 
Q 16.890625 -13.28125 18.9375 -11.515625 
Q 21 -9.765625 23.484375 -3.21875 
L 25.09375 0.875 
L 2.984375 54.6875 
L 12.5 54.6875 
L 29.59375 11.921875 
L 46.6875 54.6875 
L 56.203125 54.6875 
z
" id="DejaVuSans-79"/>
    </defs>
    <g transform="translate(100.434063 19.44)scale(0.12 -0.12)">
     <use xlink:href="#DejaVuSans-73"/>
     <use x="52.099609" xlink:href="#DejaVuSans-67"/>
     <use x="115.576172" xlink:href="#DejaVuSans-52"/>
     <use x="185.058594" xlink:href="#DejaVuSans-4e"/>
     <use x="259.863281" xlink:href="#DejaVuSans-41"/>
     <use x="328.271484" xlink:href="#DejaVuSans-20"/>
     <use x="360.058594" xlink:href="#DejaVuSans-44"/>
     <use x="437.060547" xlink:href="#DejaVuSans-65"/>
     <use x="498.583984" xlink:href="#DejaVuSans-6e"/>
     <use x="561.962891" xlink:href="#DejaVuSans-73"/>
     <use x="614.0625" xlink:href="#DejaVuSans-69"/>
     <use x="641.845703" xlink:href="#DejaVuSans-74"/>
     <use x="681.054688" xlink:href="#DejaVuSans-79"/>
    </g>
   </g>
  </g>
 </g>
 <defs>
  <clipPath id="p54b76684f4">
   <rect height="197.56" width="187.66375" x="51.01625" y="25.44"/>
  </clipPath>
 </defs>
</svg>
