<?xml version="1.0" encoding="utf-8" standalone="no"?>
<!DOCTYPE svg PUBLIC "-//W3C//DTD SVG 1.1//EN"
  "http://www.w3.org/Graphics/SVG/1.1/DTD/svg11.dtd">
<!-- Created with matplotlib (http://matplotlib.org/) -->
<svg height="266pt" version="1.1" viewBox="0 0 252 266" width="252pt" xmlns="http://www.w3.org/2000/svg" xmlns:xlink="http://www.w3.org/1999/xlink">
 <defs>
  <style type="text/css">
*{stroke-linecap:butt;stroke-linejoin:round;}
  </style>
 </defs>
 <g id="figure_1">
  <g id="patch_1">
   <path d="M 0 266.4 
L 252 266.4 
L 252 0 
L 0 0 
z
" style="fill:#ffffff;"/>
  </g>
  <g id="axes_1">
   <g id="patch_2">
    <path d="M 51.01625 223 
L 238.68 223 
L 238.68 25.44 
L 51.01625 25.44 
z
" style="fill:#ffffff;"/>
   </g>
   <g id="PathCollection_1">
    <path clip-path="url(#pe8251af7b0)" d="M 37.980745 224.500716 
L 40.268313 224.500716 
L 42.55588 224.500716 
L 44.843448 224.500716 
L 47.131015 224.500716 
L 49.418583 224.500716 
L 51.70615 224.500716 
L 53.993718 224.500716 
L 56.281286 224.500716 
L 58.568853 224.500716 
L 60.856421 224.500716 
L 63.143988 224.500716 
L 65.431556 224.500716 
L 67.719123 224.500716 
L 70.006691 224.500716 
L 72.294259 224.500716 
L 74.581826 224.500716 
L 76.869394 224.500716 
L 79.156961 224.500716 
L 81.444529 224.500716 
L 83.732096 224.500716 
L 86.019664 224.500716 
L 88.307231 224.500716 
L 90.594799 224.500716 
L 92.882367 224.500716 
L 95.169934 224.500716 
L 97.457502 224.500716 
L 99.745069 224.500716 
L 102.032637 224.500716 
L 104.320204 224.500716 
L 106.607772 224.500716 
L 108.895339 224.500716 
L 111.182907 224.500716 
L 113.470475 224.500716 
L 115.758042 224.500716 
L 118.04561 224.500716 
L 120.333177 224.500716 
L 122.620745 224.500716 
L 124.908312 224.500716 
L 127.19588 224.500716 
L 129.483447 224.500716 
L 131.771015 224.500716 
L 134.058583 224.500716 
L 136.34615 224.500716 
L 138.633718 224.500716 
L 140.921285 224.500716 
L 143.208853 224.500716 
L 145.49642 224.500716 
L 147.783988 224.500716 
L 150.071556 224.500716 
L 152.359123 224.500716 
L 154.646691 224.500716 
L 156.934258 224.500716 
L 159.221826 224.500716 
L 161.509393 224.500716 
L 163.796961 224.500716 
L 166.084528 224.500716 
L 168.372096 224.500716 
L 170.659664 224.500716 
L 172.947231 224.500716 
L 175.234799 224.500716 
L 177.522366 224.500716 
L 179.809934 224.500716 
L 182.097501 224.500716 
L 184.385069 224.500716 
L 186.672636 224.500716 
L 188.960204 224.500716 
L 191.247772 224.500716 
L 193.535339 224.500716 
L 195.822907 224.500716 
L 198.110474 224.500716 
L 200.398042 224.500716 
L 202.685609 224.500716 
L 204.973177 224.500716 
L 207.260745 224.500716 
L 209.548312 224.500716 
L 211.83588 224.500716 
L 214.123447 224.500716 
L 216.411015 224.500716 
L 218.698582 224.500716 
L 220.98615 224.500716 
L 223.273717 224.500716 
L 225.561285 224.500716 
L 227.848853 224.500716 
L 230.13642 224.500716 
L 232.423988 224.500716 
L 234.711555 224.500716 
L 236.999123 224.500716 
L 239.28669 224.500716 
L 241.574258 224.500716 
L 243.861825 224.500716 
L 246.149393 224.500716 
L 248.436961 224.500716 
L 250.724528 224.500716 
L 253.012096 224.500716 
L 255.299663 224.500716 
L 257.587231 224.500716 
L 259.874798 224.500716 
L 262.162366 224.500716 
L 262.162366 222.696571 
L 262.162366 220.892427 
L 262.162366 219.088282 
L 262.162366 217.284137 
L 262.162366 215.479993 
L 262.162366 213.675848 
L 262.162366 211.871703 
L 262.162366 210.067559 
L 262.162366 208.263414 
L 262.162366 206.459269 
L 262.162366 204.655125 
L 262.162366 202.85098 
L 262.162366 201.046835 
L 262.162366 199.242691 
L 262.162366 197.438546 
L 262.162366 195.634401 
L 262.162366 193.830257 
L 262.162366 192.026112 
L 262.162366 190.221967 
L 262.162366 188.417823 
L 262.162366 186.613678 
L 262.162366 184.809533 
L 262.162366 183.005389 
L 262.162366 181.201244 
L 262.162366 179.3971 
L 262.162366 177.592955 
L 262.162366 175.78881 
L 262.162366 173.984666 
L 262.162366 172.180521 
L 262.162366 170.376376 
L 262.162366 168.572232 
L 262.162366 166.768087 
L 262.162366 164.963942 
L 262.162366 163.159798 
L 262.162366 161.355653 
L 262.162366 159.551508 
L 262.162366 157.747364 
L 262.162366 155.943219 
L 262.162366 154.139074 
L 262.162366 152.33493 
L 262.162366 150.530785 
L 262.162366 148.72664 
L 262.162366 146.922496 
L 262.162366 145.118351 
L 262.162366 143.314206 
L 262.162366 141.510062 
L 262.162366 139.705917 
L 262.162366 137.901773 
L 262.162366 136.097628 
L 262.162366 134.293483 
L 262.162366 132.489339 
L 262.162366 130.685194 
L 262.162366 128.881049 
L 262.162366 127.076905 
L 262.162366 125.27276 
L 262.162366 123.468615 
L 262.162366 121.664471 
L 262.162366 119.860326 
L 262.162366 118.056181 
L 262.162366 116.252037 
L 262.162366 114.447892 
L 262.162366 112.643747 
L 262.162366 110.839603 
L 262.162366 109.035458 
L 262.162366 107.231313 
L 262.162366 105.427169 
L 262.162366 103.623024 
L 262.162366 101.818879 
L 262.162366 100.014735 
L 262.162366 98.21059 
L 262.162366 96.406446 
L 262.162366 94.602301 
L 262.162366 92.798156 
L 262.162366 90.994012 
L 262.162366 89.189867 
L 262.162366 87.385722 
L 262.162366 85.581578 
L 262.162366 83.777433 
L 262.162366 81.973288 
L 262.162366 80.169144 
L 262.162366 78.364999 
L 262.162366 76.560854 
L 262.162366 74.75671 
L 262.162366 72.952565 
L 262.162366 71.14842 
L 262.162366 69.344276 
L 262.162366 67.540131 
L 262.162366 65.735986 
L 262.162366 63.931842 
L 262.162366 62.127697 
L 262.162366 60.323553 
L 262.162366 58.519408 
L 262.162366 56.715263 
L 262.162366 54.911119 
L 262.162366 53.106974 
L 262.162366 51.302829 
L 262.162366 49.498685 
L 262.162366 47.69454 
L 262.162366 45.890395 
L 259.874798 45.890395 
L 257.587231 45.890395 
L 255.299663 45.890395 
L 253.012096 45.890395 
L 250.724528 45.890395 
L 248.436961 45.890395 
L 246.149393 45.890395 
L 243.861825 45.890395 
L 241.574258 45.890395 
L 239.28669 45.890395 
L 236.999123 45.890395 
L 234.711555 45.890395 
L 232.423988 45.890395 
L 230.13642 45.890395 
L 227.848853 45.890395 
L 225.561285 45.890395 
L 223.273717 45.890395 
L 220.98615 45.890395 
L 218.698582 45.890395 
L 216.411015 45.890395 
L 214.123447 45.890395 
L 211.83588 45.890395 
L 209.548312 45.890395 
L 207.260745 45.890395 
L 204.973177 45.890395 
L 202.685609 45.890395 
L 200.398042 45.890395 
L 198.110474 45.890395 
L 195.822907 45.890395 
L 193.535339 45.890395 
L 191.247772 45.890395 
L 188.960204 45.890395 
L 186.672636 45.890395 
L 184.385069 45.890395 
L 182.097501 45.890395 
L 179.809934 45.890395 
L 177.522366 45.890395 
L 175.234799 45.890395 
L 172.947231 45.890395 
L 170.659664 45.890395 
L 168.372096 45.890395 
L 166.084528 45.890395 
L 163.796961 45.890395 
L 161.509393 45.890395 
L 159.221826 45.890395 
L 156.934258 45.890395 
L 154.646691 45.890395 
L 152.359123 45.890395 
L 150.071556 45.890395 
L 147.783988 45.890395 
L 145.49642 45.890395 
L 143.208853 45.890395 
L 140.921285 45.890395 
L 138.633718 45.890395 
L 136.34615 45.890395 
L 134.058583 45.890395 
L 131.771015 45.890395 
L 129.483447 45.890395 
L 127.19588 45.890395 
L 124.908312 45.890395 
L 122.620745 45.890395 
L 120.333177 45.890395 
L 118.04561 45.890395 
L 115.758042 45.890395 
L 113.470475 45.890395 
L 111.182907 45.890395 
L 108.895339 45.890395 
L 106.607772 45.890395 
L 104.320204 45.890395 
L 102.032637 45.890395 
L 99.745069 45.890395 
L 97.457502 45.890395 
L 95.169934 45.890395 
L 92.882367 45.890395 
L 90.594799 45.890395 
L 88.307231 45.890395 
L 86.019664 45.890395 
L 83.732096 45.890395 
L 81.444529 45.890395 
L 79.156961 45.890395 
L 76.869394 45.890395 
L 74.581826 45.890395 
L 72.294259 45.890395 
L 70.006691 45.890395 
L 67.719123 45.890395 
L 65.431556 45.890395 
L 63.143988 45.890395 
L 60.856421 45.890395 
L 58.568853 45.890395 
L 56.281286 45.890395 
L 53.993718 45.890395 
L 51.70615 45.890395 
L 49.418583 45.890395 
L 47.131015 45.890395 
L 44.843448 45.890395 
L 42.55588 45.890395 
L 40.268313 45.890395 
L 37.980745 45.890395 
L 35.693178 45.890395 
L 35.693178 47.69454 
L 35.693178 49.498685 
L 35.693178 51.302829 
L 35.693178 53.106974 
L 35.693178 54.911119 
L 35.693178 56.715263 
L 35.693178 58.519408 
L 35.693178 60.323553 
L 35.693178 62.127697 
L 35.693178 63.931842 
L 35.693178 65.735986 
L 35.693178 67.540131 
L 35.693178 69.344276 
L 35.693178 71.14842 
L 35.693178 72.952565 
L 35.693178 74.75671 
L 35.693178 76.560854 
L 35.693178 78.364999 
L 35.693178 80.169144 
L 35.693178 81.973288 
L 35.693178 83.777433 
L 35.693178 85.581578 
L 35.693178 87.385722 
L 35.693178 89.189867 
L 35.693178 90.994012 
L 35.693178 92.798156 
L 35.693178 94.602301 
L 35.693178 96.406446 
L 35.693178 98.21059 
L 35.693178 100.014735 
L 35.693178 101.818879 
L 35.693178 103.623024 
L 35.693178 105.427169 
L 35.693178 107.231313 
L 35.693178 109.035458 
L 35.693178 110.839603 
L 35.693178 112.643747 
L 35.693178 114.447892 
L 35.693178 116.252037 
L 35.693178 118.056181 
L 35.693178 119.860326 
L 35.693178 121.664471 
L 35.693178 123.468615 
L 35.693178 125.27276 
L 35.693178 127.076905 
L 35.693178 128.881049 
L 35.693178 130.685194 
L 35.693178 132.489339 
L 35.693178 134.293483 
L 35.693178 136.097628 
L 35.693178 137.901773 
L 35.693178 139.705917 
L 35.693178 141.510062 
L 35.693178 143.314206 
L 35.693178 145.118351 
L 35.693178 146.922496 
L 35.693178 148.72664 
L 35.693178 150.530785 
L 35.693178 152.33493 
L 35.693178 154.139074 
L 35.693178 155.943219 
L 35.693178 157.747364 
L 35.693178 159.551508 
L 35.693178 161.355653 
L 35.693178 163.159798 
L 35.693178 164.963942 
L 35.693178 166.768087 
L 35.693178 168.572232 
L 35.693178 170.376376 
L 35.693178 172.180521 
L 35.693178 173.984666 
L 35.693178 175.78881 
L 35.693178 177.592955 
L 35.693178 179.3971 
L 35.693178 181.201244 
L 35.693178 183.005389 
L 35.693178 184.809533 
L 35.693178 186.613678 
L 35.693178 188.417823 
L 35.693178 190.221967 
L 35.693178 192.026112 
L 35.693178 193.830257 
L 35.693178 195.634401 
L 35.693178 197.438546 
L 35.693178 199.242691 
L 35.693178 201.046835 
L 35.693178 202.85098 
L 35.693178 204.655125 
L 35.693178 206.459269 
L 35.693178 208.263414 
L 35.693178 210.067559 
L 35.693178 211.871703 
L 35.693178 213.675848 
L 35.693178 215.479993 
L 35.693178 217.284137 
L 35.693178 219.088282 
L 35.693178 220.892427 
L 35.693178 222.696571 
L 35.693178 224.500716 
z
M 62.539019 219.088282 
L 60.856421 218.862467 
L 58.568853 218.410239 
L 56.281286 217.726028 
L 55.165015 217.284137 
L 53.993718 216.861017 
L 51.70615 215.720122 
L 51.299917 215.479993 
L 49.418583 214.178544 
L 48.787555 213.675848 
L 47.227524 211.871703 
L 47.131015 211.675196 
L 46.22644 210.067559 
L 45.876476 208.263414 
L 46.075282 206.459269 
L 46.856458 204.655125 
L 47.131015 204.273067 
L 48.07143 202.85098 
L 49.418583 201.516433 
L 49.916652 201.046835 
L 51.70615 199.647175 
L 52.313482 199.242691 
L 53.993718 198.122902 
L 55.299863 197.438546 
L 56.281286 196.840215 
L 58.568853 195.758526 
L 58.904089 195.634401 
L 60.856421 194.657283 
L 63.143988 193.856169 
L 63.242852 193.830257 
L 65.431556 192.985524 
L 67.719123 192.395363 
L 69.960996 192.026112 
L 70.006691 192.014967 
L 72.294259 191.678118 
L 74.581826 191.516316 
L 76.869394 191.472227 
L 79.156961 191.495439 
L 81.444529 191.541848 
L 83.732096 191.57621 
L 86.019664 191.575478 
L 88.307231 191.530243 
L 90.594799 191.44294 
L 92.882367 191.323669 
L 95.169934 191.185696 
L 97.457502 191.042271 
L 99.745069 190.905222 
L 102.032637 190.784896 
L 104.320204 190.690745 
L 106.607772 190.632017 
L 108.895339 190.618273 
L 111.182907 190.659632 
L 113.470475 190.766771 
L 115.758042 190.950759 
L 118.04561 191.222863 
L 120.333177 191.59446 
L 122.387559 192.026112 
L 122.620745 192.06462 
L 124.908312 192.522884 
L 127.19588 193.08862 
L 129.483447 193.776939 
L 129.63977 193.830257 
L 131.771015 194.388477 
L 134.058583 195.112473 
L 135.463911 195.634401 
L 136.34615 195.88801 
L 138.633718 196.652233 
L 140.577951 197.438546 
L 140.921285 197.552121 
L 143.208853 198.40804 
L 145.048703 199.242691 
L 145.49642 199.426297 
L 147.783988 200.48484 
L 148.836268 201.046835 
L 150.071556 201.738507 
L 151.824963 202.85098 
L 152.359123 203.289657 
L 153.926594 204.655125 
L 154.646691 205.868259 
L 155.00602 206.459269 
L 154.972763 208.263414 
L 154.646691 208.714405 
L 153.688717 210.067559 
L 152.359123 210.963854 
L 150.888085 211.871703 
L 150.071556 212.228864 
L 147.783988 213.129471 
L 146.150891 213.675848 
L 145.49642 213.873706 
L 143.208853 214.501186 
L 140.921285 215.020059 
L 138.633718 215.451176 
L 138.466867 215.479993 
L 136.34615 215.887262 
L 134.058583 216.257959 
L 131.771015 216.569467 
L 129.483447 216.832067 
L 127.19588 217.054009 
L 124.908312 217.241945 
L 124.328329 217.284137 
L 122.620745 217.451967 
L 120.333177 217.645476 
L 118.04561 217.809376 
L 115.758042 217.947959 
L 113.470475 218.064819 
L 111.182907 218.163026 
L 108.895339 218.245287 
L 106.607772 218.314119 
L 104.320204 218.372043 
L 102.032637 218.421814 
L 99.745069 218.466683 
L 97.457502 218.510624 
L 95.169934 218.55843 
L 92.882367 218.615476 
L 90.594799 218.686942 
L 88.307231 218.776423 
L 86.019664 218.884276 
L 83.732096 219.006461 
L 82.304615 219.088282 
L 81.444529 219.164725 
L 79.156961 219.367933 
L 76.869394 219.54476 
L 74.581826 219.678828 
L 72.294259 219.7564 
L 70.006691 219.764975 
L 67.719123 219.690514 
L 65.431556 219.513694 
L 63.143988 219.204917 
z
" style="fill:none;"/>
   </g>
   <g id="PathCollection_2">
    <path clip-path="url(#pe8251af7b0)" d="M 63.143988 219.204917 
L 65.431556 219.513694 
L 67.719123 219.690514 
L 70.006691 219.764975 
L 72.294259 219.7564 
L 74.581826 219.678828 
L 76.869394 219.54476 
L 79.156961 219.367933 
L 81.444529 219.164725 
L 82.304615 219.088282 
L 83.732096 219.006461 
L 86.019664 218.884276 
L 88.307231 218.776423 
L 90.594799 218.686942 
L 92.882367 218.615476 
L 95.169934 218.55843 
L 97.457502 218.510624 
L 99.745069 218.466683 
L 102.032637 218.421814 
L 104.320204 218.372043 
L 106.607772 218.314119 
L 108.895339 218.245287 
L 111.182907 218.163026 
L 113.470475 218.064819 
L 115.758042 217.947959 
L 118.04561 217.809376 
L 120.333177 217.645476 
L 122.620745 217.451967 
L 124.328329 217.284137 
L 124.908312 217.241945 
L 127.19588 217.054009 
L 129.483447 216.832067 
L 131.771015 216.569467 
L 134.058583 216.257959 
L 136.34615 215.887262 
L 138.466867 215.479993 
L 138.633718 215.451176 
L 140.921285 215.020059 
L 143.208853 214.501186 
L 145.49642 213.873706 
L 146.150891 213.675848 
L 147.783988 213.129471 
L 150.071556 212.228864 
L 150.888085 211.871703 
L 152.359123 210.963854 
L 153.688717 210.067559 
L 154.646691 208.714405 
L 154.972763 208.263414 
L 155.00602 206.459269 
L 154.646691 205.868259 
L 153.926594 204.655125 
L 152.359123 203.289657 
L 151.824963 202.85098 
L 150.071556 201.738507 
L 148.836268 201.046835 
L 147.783988 200.48484 
L 145.49642 199.426297 
L 145.048703 199.242691 
L 143.208853 198.40804 
L 140.921285 197.552121 
L 140.577951 197.438546 
L 138.633718 196.652233 
L 136.34615 195.88801 
L 135.463911 195.634401 
L 134.058583 195.112473 
L 131.771015 194.388477 
L 129.63977 193.830257 
L 129.483447 193.776939 
L 127.19588 193.08862 
L 124.908312 192.522884 
L 122.620745 192.06462 
L 122.387559 192.026112 
L 120.333177 191.59446 
L 118.04561 191.222863 
L 115.758042 190.950759 
L 113.470475 190.766771 
L 111.182907 190.659632 
L 108.895339 190.618273 
L 106.607772 190.632017 
L 104.320204 190.690745 
L 102.032637 190.784896 
L 99.745069 190.905222 
L 97.457502 191.042271 
L 95.169934 191.185696 
L 92.882367 191.323669 
L 90.594799 191.44294 
L 88.307231 191.530243 
L 86.019664 191.575478 
L 83.732096 191.57621 
L 81.444529 191.541848 
L 79.156961 191.495439 
L 76.869394 191.472227 
L 74.581826 191.516316 
L 72.294259 191.678118 
L 70.006691 192.014967 
L 69.960996 192.026112 
L 67.719123 192.395363 
L 65.431556 192.985524 
L 63.242852 193.830257 
L 63.143988 193.856169 
L 60.856421 194.657283 
L 58.904089 195.634401 
L 58.568853 195.758526 
L 56.281286 196.840215 
L 55.299863 197.438546 
L 53.993718 198.122902 
L 52.313482 199.242691 
L 51.70615 199.647175 
L 49.916652 201.046835 
L 49.418583 201.516433 
L 48.07143 202.85098 
L 47.131015 204.273067 
L 46.856458 204.655125 
L 46.075282 206.459269 
L 45.876476 208.263414 
L 46.22644 210.067559 
L 47.131015 211.675196 
L 47.227524 211.871703 
L 48.787555 213.675848 
L 49.418583 214.178544 
L 51.299917 215.479993 
L 51.70615 215.720122 
L 53.993718 216.861017 
L 55.165015 217.284137 
L 56.281286 217.726028 
L 58.568853 218.410239 
L 60.856421 218.862467 
L 62.539019 219.088282 
z
M 64.178038 217.284137 
L 63.143988 217.1586 
L 60.856421 216.741785 
L 58.568853 216.106605 
L 56.967952 215.479993 
L 56.281286 215.204655 
L 53.993718 213.996686 
L 53.493704 213.675848 
L 51.70615 212.123739 
L 51.441234 211.871703 
L 50.25733 210.067559 
L 49.857134 208.263414 
L 50.083454 206.459269 
L 50.973871 204.655125 
L 51.70615 203.809528 
L 52.564802 202.85098 
L 53.993718 201.707036 
L 54.971927 201.046835 
L 56.281286 200.245323 
L 58.46342 199.242691 
L 58.568853 199.18979 
L 60.856421 198.243378 
L 63.143988 197.607835 
L 64.010348 197.438546 
L 65.431556 197.0586 
L 67.719123 196.655687 
L 70.006691 196.425462 
L 72.294259 196.327442 
L 74.581826 196.331596 
L 76.869394 196.412423 
L 79.156961 196.545169 
L 81.444529 196.704356 
L 83.732096 196.864949 
L 86.019664 197.005655 
L 88.307231 197.112633 
L 90.594799 197.181438 
L 92.882367 197.216113 
L 95.169934 197.22625 
L 97.457502 197.223689 
L 99.745069 197.220146 
L 102.032637 197.22609 
L 104.320204 197.250564 
L 106.607772 197.301485 
L 108.895339 197.386074 
L 109.869615 197.438546 
L 111.182907 197.490036 
L 113.470475 197.612626 
L 115.758042 197.774588 
L 118.04561 197.981858 
L 120.333177 198.241254 
L 122.620745 198.560907 
L 124.908312 198.950801 
L 126.356705 199.242691 
L 127.19588 199.383615 
L 129.483447 199.830352 
L 131.771015 200.372458 
L 134.058583 201.031044 
L 134.108158 201.046835 
L 136.34615 201.750003 
L 138.633718 202.62869 
L 139.149817 202.85098 
L 140.921285 203.788266 
L 142.349769 204.655125 
L 143.208853 205.597699 
L 143.957701 206.459269 
L 143.992376 208.263414 
L 143.208853 209.109277 
L 142.291483 210.067559 
L 140.921285 210.764043 
L 138.633718 211.781191 
L 138.411442 211.871703 
L 136.34615 212.49282 
L 134.058583 213.07572 
L 131.771015 213.566428 
L 131.201029 213.675848 
L 129.483447 213.989248 
L 127.19588 214.34936 
L 124.908312 214.654413 
L 122.620745 214.9131 
L 120.333177 215.132505 
L 118.04561 215.318444 
L 115.758042 215.475734 
L 115.687143 215.479993 
L 113.470475 215.637493 
L 111.182907 215.774201 
L 108.895339 215.888658 
L 106.607772 215.984365 
L 104.320204 216.064836 
L 102.032637 216.133915 
L 99.745069 216.196138 
L 97.457502 216.257056 
L 95.169934 216.323365 
L 92.882367 216.402584 
L 90.594799 216.501967 
L 88.307231 216.626576 
L 86.019664 216.776952 
L 83.732096 216.947492 
L 81.444529 217.126683 
L 79.3699 217.284137 
L 79.156961 217.305831 
L 76.869394 217.520272 
L 74.581826 217.682865 
L 72.294259 217.776873 
L 70.006691 217.787052 
L 67.719123 217.696291 
L 65.431556 217.48106 
z
" style="fill:#fed9c9;"/>
   </g>
   <g id="PathCollection_3">
    <path clip-path="url(#pe8251af7b0)" d="M 65.431556 217.48106 
L 67.719123 217.696291 
L 70.006691 217.787052 
L 72.294259 217.776873 
L 74.581826 217.682865 
L 76.869394 217.520272 
L 79.156961 217.305831 
L 79.3699 217.284137 
L 81.444529 217.126683 
L 83.732096 216.947492 
L 86.019664 216.776952 
L 88.307231 216.626576 
L 90.594799 216.501967 
L 92.882367 216.402584 
L 95.169934 216.323365 
L 97.457502 216.257056 
L 99.745069 216.196138 
L 102.032637 216.133915 
L 104.320204 216.064836 
L 106.607772 215.984365 
L 108.895339 215.888658 
L 111.182907 215.774201 
L 113.470475 215.637493 
L 115.687143 215.479993 
L 115.758042 215.475734 
L 118.04561 215.318444 
L 120.333177 215.132505 
L 122.620745 214.9131 
L 124.908312 214.654413 
L 127.19588 214.34936 
L 129.483447 213.989248 
L 131.201029 213.675848 
L 131.771015 213.566428 
L 134.058583 213.07572 
L 136.34615 212.49282 
L 138.411442 211.871703 
L 138.633718 211.781191 
L 140.921285 210.764043 
L 142.291483 210.067559 
L 143.208853 209.109277 
L 143.992376 208.263414 
L 143.957701 206.459269 
L 143.208853 205.597699 
L 142.349769 204.655125 
L 140.921285 203.788266 
L 139.149817 202.85098 
L 138.633718 202.62869 
L 136.34615 201.750003 
L 134.108158 201.046835 
L 134.058583 201.031044 
L 131.771015 200.372458 
L 129.483447 199.830352 
L 127.19588 199.383615 
L 126.356705 199.242691 
L 124.908312 198.950801 
L 122.620745 198.560907 
L 120.333177 198.241254 
L 118.04561 197.981858 
L 115.758042 197.774588 
L 113.470475 197.612626 
L 111.182907 197.490036 
L 109.869615 197.438546 
L 108.895339 197.386074 
L 106.607772 197.301485 
L 104.320204 197.250564 
L 102.032637 197.22609 
L 99.745069 197.220146 
L 97.457502 197.223689 
L 95.169934 197.22625 
L 92.882367 197.216113 
L 90.594799 197.181438 
L 88.307231 197.112633 
L 86.019664 197.005655 
L 83.732096 196.864949 
L 81.444529 196.704356 
L 79.156961 196.545169 
L 76.869394 196.412423 
L 74.581826 196.331596 
L 72.294259 196.327442 
L 70.006691 196.425462 
L 67.719123 196.655687 
L 65.431556 197.0586 
L 64.010348 197.438546 
L 63.143988 197.607835 
L 60.856421 198.243378 
L 58.568853 199.18979 
L 58.46342 199.242691 
L 56.281286 200.245323 
L 54.971927 201.046835 
L 53.993718 201.707036 
L 52.564802 202.85098 
L 51.70615 203.809528 
L 50.973871 204.655125 
L 50.083454 206.459269 
L 49.857134 208.263414 
L 50.25733 210.067559 
L 51.441234 211.871703 
L 51.70615 212.123739 
L 53.493704 213.675848 
L 53.993718 213.996686 
L 56.281286 215.204655 
L 56.967952 215.479993 
L 58.568853 216.106605 
L 60.856421 216.741785 
L 63.143988 217.1586 
L 64.178038 217.284137 
z
M 62.204662 215.479993 
L 60.856421 215.159958 
L 58.568853 214.375392 
L 57.102575 213.675848 
L 56.281286 213.190349 
L 54.499203 211.871703 
L 53.993718 211.239359 
L 53.099476 210.067559 
L 52.602852 208.263414 
L 52.882392 206.459269 
L 53.98382 204.655125 
L 53.993718 204.644929 
L 55.911949 202.85098 
L 56.281286 202.592045 
L 58.568853 201.271935 
L 59.08079 201.046835 
L 60.856421 200.275357 
L 63.143988 199.583905 
L 64.827658 199.242691 
L 65.431556 199.091892 
L 67.719123 198.713364 
L 70.006691 198.512207 
L 72.294259 198.449872 
L 74.581826 198.498115 
L 76.869394 198.632742 
L 79.156961 198.829296 
L 81.444529 199.061055 
L 83.208299 199.242691 
L 83.732096 199.2858 
L 86.019664 199.452456 
L 88.307231 199.592416 
L 90.594799 199.699429 
L 92.882367 199.775143 
L 95.169934 199.826938 
L 97.457502 199.86497 
L 99.745069 199.899756 
L 102.032637 199.940868 
L 104.320204 199.996554 
L 106.607772 200.073907 
L 108.895339 200.179249 
L 111.182907 200.318545 
L 113.470475 200.497789 
L 115.758042 200.723381 
L 118.04561 201.002505 
L 118.356202 201.046835 
L 120.333177 201.309239 
L 122.620745 201.675356 
L 124.908312 202.117576 
L 127.19588 202.650429 
L 127.94912 202.85098 
L 129.483447 203.328426 
L 131.771015 204.168513 
L 132.917109 204.655125 
L 134.058583 205.485557 
L 135.26364 206.459269 
L 135.402446 208.263414 
L 134.058583 209.385779 
L 133.178277 210.067559 
L 131.771015 210.602418 
L 129.483447 211.363186 
L 127.709309 211.871703 
L 127.19588 211.982882 
L 124.908312 212.42682 
L 122.620745 212.803601 
L 120.333177 213.123411 
L 118.04561 213.394616 
L 115.758042 213.62416 
L 115.163425 213.675848 
L 113.470475 213.821181 
L 111.182907 213.987696 
L 108.895339 214.127048 
L 106.607772 214.243497 
L 104.320204 214.341326 
L 102.032637 214.425227 
L 99.745069 214.500743 
L 97.457502 214.574666 
L 95.169934 214.655201 
L 92.882367 214.751574 
L 90.594799 214.872716 
L 88.307231 215.024897 
L 86.019664 215.20887 
L 83.732096 215.417851 
L 83.112513 215.479993 
L 81.444529 215.672251 
L 79.156961 215.930533 
L 76.869394 216.155483 
L 74.581826 216.326084 
L 72.294259 216.424657 
L 70.006691 216.435088 
L 67.719123 216.339301 
L 65.431556 216.11247 
L 63.143988 215.716613 
z
" style="fill:#fcbba1;"/>
   </g>
   <g id="PathCollection_4">
    <path clip-path="url(#pe8251af7b0)" d="M 63.143988 215.716613 
L 65.431556 216.11247 
L 67.719123 216.339301 
L 70.006691 216.435088 
L 72.294259 216.424657 
L 74.581826 216.326084 
L 76.869394 216.155483 
L 79.156961 215.930533 
L 81.444529 215.672251 
L 83.112513 215.479993 
L 83.732096 215.417851 
L 86.019664 215.20887 
L 88.307231 215.024897 
L 90.594799 214.872716 
L 92.882367 214.751574 
L 95.169934 214.655201 
L 97.457502 214.574666 
L 99.745069 214.500743 
L 102.032637 214.425227 
L 104.320204 214.341326 
L 106.607772 214.243497 
L 108.895339 214.127048 
L 111.182907 213.987696 
L 113.470475 213.821181 
L 115.163425 213.675848 
L 115.758042 213.62416 
L 118.04561 213.394616 
L 120.333177 213.123411 
L 122.620745 212.803601 
L 124.908312 212.42682 
L 127.19588 211.982882 
L 127.709309 211.871703 
L 129.483447 211.363186 
L 131.771015 210.602418 
L 133.178277 210.067559 
L 134.058583 209.385779 
L 135.402446 208.263414 
L 135.26364 206.459269 
L 134.058583 205.485557 
L 132.917109 204.655125 
L 131.771015 204.168513 
L 129.483447 203.328426 
L 127.94912 202.85098 
L 127.19588 202.650429 
L 124.908312 202.117576 
L 122.620745 201.675356 
L 120.333177 201.309239 
L 118.356202 201.046835 
L 118.04561 201.002505 
L 115.758042 200.723381 
L 113.470475 200.497789 
L 111.182907 200.318545 
L 108.895339 200.179249 
L 106.607772 200.073907 
L 104.320204 199.996554 
L 102.032637 199.940868 
L 99.745069 199.899756 
L 97.457502 199.86497 
L 95.169934 199.826938 
L 92.882367 199.775143 
L 90.594799 199.699429 
L 88.307231 199.592416 
L 86.019664 199.452456 
L 83.732096 199.2858 
L 83.208299 199.242691 
L 81.444529 199.061055 
L 79.156961 198.829296 
L 76.869394 198.632742 
L 74.581826 198.498115 
L 72.294259 198.449872 
L 70.006691 198.512207 
L 67.719123 198.713364 
L 65.431556 199.091892 
L 64.827658 199.242691 
L 63.143988 199.583905 
L 60.856421 200.275357 
L 59.08079 201.046835 
L 58.568853 201.271935 
L 56.281286 202.592045 
L 55.911949 202.85098 
L 53.993718 204.644929 
L 53.98382 204.655125 
L 52.882392 206.459269 
L 52.602852 208.263414 
L 53.099476 210.067559 
L 53.993718 211.239359 
L 54.499203 211.871703 
L 56.281286 213.190349 
L 57.102575 213.675848 
L 58.568853 214.375392 
L 60.856421 215.159958 
L 62.204662 215.479993 
z
M 60.53704 213.675848 
L 58.568853 212.758874 
L 57.160521 211.871703 
L 56.281286 210.975424 
L 55.487867 210.067559 
L 54.903878 208.263414 
L 55.23087 206.459269 
L 56.281286 204.955168 
L 56.507284 204.655125 
L 58.568853 203.067952 
L 58.926362 202.85098 
L 60.856421 201.894169 
L 63.143988 201.117944 
L 63.441381 201.046835 
L 65.431556 200.537736 
L 67.719123 200.178287 
L 70.006691 199.996456 
L 72.294259 199.955443 
L 74.581826 200.028584 
L 76.869394 200.192981 
L 79.156961 200.424929 
L 81.444529 200.697564 
L 83.732096 200.981573 
L 84.314818 201.046835 
L 86.019664 201.221863 
L 88.307231 201.422029 
L 90.594799 201.582106 
L 92.882367 201.703078 
L 95.169934 201.793401 
L 97.457502 201.865332 
L 99.745069 201.931812 
L 102.032637 202.00469 
L 104.320204 202.094153 
L 106.607772 202.208893 
L 108.895339 202.356585 
L 111.182907 202.544428 
L 113.470475 202.779675 
L 114.049434 202.85098 
L 115.758042 203.085967 
L 118.04561 203.466844 
L 120.333177 203.928808 
L 122.620745 204.486009 
L 123.226693 204.655125 
L 124.908312 205.422702 
L 126.841959 206.459269 
L 127.157483 208.263414 
L 124.908312 209.6202 
L 124.073244 210.067559 
L 122.620745 210.451385 
L 120.333177 210.976388 
L 118.04561 211.422393 
L 115.758042 211.800496 
L 115.261766 211.871703 
L 113.470475 212.07124 
L 111.182907 212.286927 
L 108.895339 212.467372 
L 106.607772 212.618076 
L 104.320204 212.744581 
L 102.032637 212.852981 
L 99.745069 212.95049 
L 97.457502 213.045971 
L 95.169934 213.150161 
L 92.882367 213.275175 
L 90.594799 213.4328 
L 88.307231 213.631418 
L 87.899741 213.675848 
L 86.019664 213.874883 
L 83.732096 214.152292 
L 81.444529 214.444267 
L 79.156961 214.725995 
L 76.869394 214.971627 
L 74.581826 215.158042 
L 72.294259 215.265729 
L 70.006691 215.276885 
L 67.719123 215.171574 
L 65.431556 214.922466 
L 63.143988 214.487809 
L 60.856421 213.801159 
z
" style="fill:#fc9b7c;"/>
   </g>
   <g id="PathCollection_5">
    <path clip-path="url(#pe8251af7b0)" d="M 60.856421 213.801159 
L 63.143988 214.487809 
L 65.431556 214.922466 
L 67.719123 215.171574 
L 70.006691 215.276885 
L 72.294259 215.265729 
L 74.581826 215.158042 
L 76.869394 214.971627 
L 79.156961 214.725995 
L 81.444529 214.444267 
L 83.732096 214.152292 
L 86.019664 213.874883 
L 87.899741 213.675848 
L 88.307231 213.631418 
L 90.594799 213.4328 
L 92.882367 213.275175 
L 95.169934 213.150161 
L 97.457502 213.045971 
L 99.745069 212.95049 
L 102.032637 212.852981 
L 104.320204 212.744581 
L 106.607772 212.618076 
L 108.895339 212.467372 
L 111.182907 212.286927 
L 113.470475 212.07124 
L 115.261766 211.871703 
L 115.758042 211.800496 
L 118.04561 211.422393 
L 120.333177 210.976388 
L 122.620745 210.451385 
L 124.073244 210.067559 
L 124.908312 209.6202 
L 127.157483 208.263414 
L 126.841959 206.459269 
L 124.908312 205.422702 
L 123.226693 204.655125 
L 122.620745 204.486009 
L 120.333177 203.928808 
L 118.04561 203.466844 
L 115.758042 203.085967 
L 114.049434 202.85098 
L 113.470475 202.779675 
L 111.182907 202.544428 
L 108.895339 202.356585 
L 106.607772 202.208893 
L 104.320204 202.094153 
L 102.032637 202.00469 
L 99.745069 201.931812 
L 97.457502 201.865332 
L 95.169934 201.793401 
L 92.882367 201.703078 
L 90.594799 201.582106 
L 88.307231 201.422029 
L 86.019664 201.221863 
L 84.314818 201.046835 
L 83.732096 200.981573 
L 81.444529 200.697564 
L 79.156961 200.424929 
L 76.869394 200.192981 
L 74.581826 200.028584 
L 72.294259 199.955443 
L 70.006691 199.996456 
L 67.719123 200.178287 
L 65.431556 200.537736 
L 63.441381 201.046835 
L 63.143988 201.117944 
L 60.856421 201.894169 
L 58.926362 202.85098 
L 58.568853 203.067952 
L 56.507284 204.655125 
L 56.281286 204.955168 
L 55.23087 206.459269 
L 54.903878 208.263414 
L 55.487867 210.067559 
L 56.281286 210.975424 
L 57.160521 211.871703 
L 58.568853 212.758874 
L 60.53704 213.675848 
z
M 64.674226 213.675848 
L 63.143988 213.302646 
L 60.856421 212.447944 
L 59.744155 211.871703 
L 58.568853 210.927588 
L 57.685864 210.067559 
L 56.995983 208.263414 
L 57.379846 206.459269 
L 58.568853 205.005631 
L 58.9022 204.655125 
L 60.856421 203.412186 
L 62.075548 202.85098 
L 63.143988 202.43247 
L 65.431556 201.809956 
L 67.719123 201.436841 
L 70.006691 201.254707 
L 72.294259 201.225293 
L 74.581826 201.321132 
L 76.869394 201.518654 
L 79.156961 201.793069 
L 81.444529 202.115556 
L 83.732096 202.453816 
L 86.019664 202.776351 
L 86.647322 202.85098 
L 88.307231 203.069296 
L 90.594799 203.31218 
L 92.882367 203.501664 
L 95.169934 203.648558 
L 97.457502 203.769277 
L 99.745069 203.881455 
L 102.032637 204.001355 
L 104.320204 204.142984 
L 106.607772 204.318277 
L 108.895339 204.537758 
L 109.895074 204.655125 
L 111.182907 204.890003 
L 113.470475 205.399957 
L 115.758042 206.026298 
L 117.084555 206.459269 
L 117.776301 208.263414 
L 115.758042 209.059128 
L 113.470475 209.829362 
L 112.648885 210.067559 
L 111.182907 210.278164 
L 108.895339 210.556082 
L 106.607772 210.78814 
L 104.320204 210.982841 
L 102.032637 211.149591 
L 99.745069 211.2996 
L 97.457502 211.44672 
L 95.169934 211.607847 
L 92.882367 211.802198 
L 92.248223 211.871703 
L 90.594799 212.011578 
L 88.307231 212.25752 
L 86.019664 212.556006 
L 83.732096 212.896243 
L 81.444529 213.255362 
L 79.156961 213.602763 
L 78.628613 213.675848 
L 76.869394 213.908298 
L 74.581826 214.140621 
L 72.294259 214.274646 
L 70.006691 214.288116 
L 67.719123 214.156095 
L 65.431556 213.844409 
z
" style="fill:#fb7a5a;"/>
   </g>
   <g id="PathCollection_6">
    <path clip-path="url(#pe8251af7b0)" d="M 65.431556 213.844409 
L 67.719123 214.156095 
L 70.006691 214.288116 
L 72.294259 214.274646 
L 74.581826 214.140621 
L 76.869394 213.908298 
L 78.628613 213.675848 
L 79.156961 213.602763 
L 81.444529 213.255362 
L 83.732096 212.896243 
L 86.019664 212.556006 
L 88.307231 212.25752 
L 90.594799 212.011578 
L 92.248223 211.871703 
L 92.882367 211.802198 
L 95.169934 211.607847 
L 97.457502 211.44672 
L 99.745069 211.2996 
L 102.032637 211.149591 
L 104.320204 210.982841 
L 106.607772 210.78814 
L 108.895339 210.556082 
L 111.182907 210.278164 
L 112.648885 210.067559 
L 113.470475 209.829362 
L 115.758042 209.059128 
L 117.776301 208.263414 
L 117.084555 206.459269 
L 115.758042 206.026298 
L 113.470475 205.399957 
L 111.182907 204.890003 
L 109.895074 204.655125 
L 108.895339 204.537758 
L 106.607772 204.318277 
L 104.320204 204.142984 
L 102.032637 204.001355 
L 99.745069 203.881455 
L 97.457502 203.769277 
L 95.169934 203.648558 
L 92.882367 203.501664 
L 90.594799 203.31218 
L 88.307231 203.069296 
L 86.647322 202.85098 
L 86.019664 202.776351 
L 83.732096 202.453816 
L 81.444529 202.115556 
L 79.156961 201.793069 
L 76.869394 201.518654 
L 74.581826 201.321132 
L 72.294259 201.225293 
L 70.006691 201.254707 
L 67.719123 201.436841 
L 65.431556 201.809956 
L 63.143988 202.43247 
L 62.075548 202.85098 
L 60.856421 203.412186 
L 58.9022 204.655125 
L 58.568853 205.005631 
L 57.379846 206.459269 
L 56.995983 208.263414 
L 57.685864 210.067559 
L 58.568853 210.927588 
L 59.744155 211.871703 
L 60.856421 212.447944 
L 63.143988 213.302646 
L 64.674226 213.675848 
z
M 62.528366 211.871703 
L 60.856421 210.862949 
L 59.863333 210.067559 
L 59.018251 208.263414 
L 59.484778 206.459269 
L 60.856421 205.074565 
L 61.383535 204.655125 
L 63.143988 203.772607 
L 65.431556 203.010619 
L 66.208426 202.85098 
L 67.719123 202.566209 
L 70.006691 202.357708 
L 72.294259 202.335103 
L 74.581826 202.465819 
L 76.869394 202.721791 
L 77.743666 202.85098 
L 79.156961 203.081856 
L 81.444529 203.511358 
L 83.732096 203.964781 
L 86.019664 204.401398 
L 87.5457 204.655125 
L 88.307231 204.848639 
L 90.594799 205.316704 
L 92.882367 205.691712 
L 95.169934 205.991028 
L 97.457502 206.24307 
L 99.555934 206.459269 
L 99.745069 206.569762 
L 102.032637 208.009016 
L 102.376859 208.263414 
L 102.032637 208.320438 
L 99.745069 208.665068 
L 97.457502 209.005553 
L 95.169934 209.38344 
L 92.882367 209.847433 
L 92.051378 210.067559 
L 90.594799 210.250261 
L 88.307231 210.618122 
L 86.019664 211.067706 
L 83.732096 211.583602 
L 82.560439 211.871703 
L 81.444529 212.074744 
L 79.156961 212.489588 
L 76.869394 212.85201 
L 74.581826 213.127354 
L 72.294259 213.286195 
L 70.006691 213.301623 
L 67.719123 213.143572 
L 65.431556 212.770995 
L 63.143988 212.121364 
z
" style="fill:#f6583e;"/>
   </g>
   <g id="PathCollection_7">
    <path clip-path="url(#pe8251af7b0)" d="M 63.143988 212.121364 
L 65.431556 212.770995 
L 67.719123 213.143572 
L 70.006691 213.301623 
L 72.294259 213.286195 
L 74.581826 213.127354 
L 76.869394 212.85201 
L 79.156961 212.489588 
L 81.444529 212.074744 
L 82.560439 211.871703 
L 83.732096 211.583602 
L 86.019664 211.067706 
L 88.307231 210.618122 
L 90.594799 210.250261 
L 92.051378 210.067559 
L 92.882367 209.847433 
L 95.169934 209.38344 
L 97.457502 209.005553 
L 99.745069 208.665068 
L 102.032637 208.320438 
L 102.376859 208.263414 
L 102.032637 208.009016 
L 99.745069 206.569762 
L 99.555934 206.459269 
L 97.457502 206.24307 
L 95.169934 205.991028 
L 92.882367 205.691712 
L 90.594799 205.316704 
L 88.307231 204.848639 
L 87.5457 204.655125 
L 86.019664 204.401398 
L 83.732096 203.964781 
L 81.444529 203.511358 
L 79.156961 203.081856 
L 77.743666 202.85098 
L 76.869394 202.721791 
L 74.581826 202.465819 
L 72.294259 202.335103 
L 70.006691 202.357708 
L 67.719123 202.566209 
L 66.208426 202.85098 
L 65.431556 203.010619 
L 63.143988 203.772607 
L 61.383535 204.655125 
L 60.856421 205.074565 
L 59.484778 206.459269 
L 59.018251 208.263414 
L 59.863333 210.067559 
L 60.856421 210.862949 
L 62.528366 211.871703 
z
M 66.309364 211.871703 
L 65.431556 211.646904 
L 63.143988 210.662021 
L 62.195761 210.067559 
L 61.093933 208.263414 
L 61.695731 206.459269 
L 63.143988 205.308114 
L 64.307094 204.655125 
L 65.431556 204.241759 
L 67.719123 203.721056 
L 70.006691 203.479795 
L 72.294259 203.46435 
L 74.581826 203.636698 
L 76.869394 203.964231 
L 79.156961 204.411957 
L 80.254511 204.655125 
L 81.444529 205.057804 
L 83.732096 205.855495 
L 85.531869 206.459269 
L 86.019664 207.212203 
L 86.826495 208.263414 
L 86.019664 208.634745 
L 83.732096 209.896757 
L 83.458 210.067559 
L 81.444529 210.620466 
L 79.156961 211.235935 
L 76.869394 211.776452 
L 76.35749 211.871703 
L 74.581826 212.11758 
L 72.294259 212.301762 
L 70.006691 212.318835 
L 67.719123 212.133699 
z
" style="fill:#e83429;"/>
   </g>
   <g id="PathCollection_8">
    <path clip-path="url(#pe8251af7b0)" d="M 67.719123 212.133699 
L 70.006691 212.318835 
L 72.294259 212.301762 
L 74.581826 212.11758 
L 76.35749 211.871703 
L 76.869394 211.776452 
L 79.156961 211.235935 
L 81.444529 210.620466 
L 83.458 210.067559 
L 83.732096 209.896757 
L 86.019664 208.634745 
L 86.826495 208.263414 
L 86.019664 207.212203 
L 85.531869 206.459269 
L 83.732096 205.855495 
L 81.444529 205.057804 
L 80.254511 204.655125 
L 79.156961 204.411957 
L 76.869394 203.964231 
L 74.581826 203.636698 
L 72.294259 203.46435 
L 70.006691 203.479795 
L 67.719123 203.721056 
L 65.431556 204.241759 
L 64.307094 204.655125 
L 63.143988 205.308114 
L 61.695731 206.459269 
L 61.093933 208.263414 
L 62.195761 210.067559 
L 63.143988 210.662021 
L 65.431556 211.646904 
L 66.309364 211.871703 
z
M 65.018574 210.067559 
L 63.437941 208.263414 
L 64.286957 206.459269 
L 65.431556 205.793689 
L 67.719123 204.97497 
L 69.676708 204.655125 
L 70.006691 204.617322 
L 72.294259 204.61048 
L 72.792305 204.655125 
L 74.581826 204.888019 
L 76.869394 205.439802 
L 79.156961 206.195207 
L 79.868857 206.459269 
L 81.035763 208.263414 
L 79.156961 209.494314 
L 78.212761 210.067559 
L 76.869394 210.419545 
L 74.581826 210.886309 
L 72.294259 211.1552 
L 70.006691 211.178294 
L 67.719123 210.902343 
L 65.431556 210.255317 
z
" style="fill:#ca181d;"/>
   </g>
   <g id="PathCollection_9">
    <path clip-path="url(#pe8251af7b0)" d="M 65.431556 210.255317 
L 67.719123 210.902343 
L 70.006691 211.178294 
L 72.294259 211.1552 
L 74.581826 210.886309 
L 76.869394 210.419545 
L 78.212761 210.067559 
L 79.156961 209.494314 
L 81.035763 208.263414 
L 79.868857 206.459269 
L 79.156961 206.195207 
L 76.869394 205.439802 
L 74.581826 204.888019 
L 72.792305 204.655125 
L 72.294259 204.61048 
L 70.006691 204.617322 
L 69.676708 204.655125 
L 67.719123 204.97497 
L 65.431556 205.793689 
L 64.286957 206.459269 
L 63.437941 208.263414 
L 65.018574 210.067559 
z
M 66.707009 208.263414 
L 67.719123 206.932488 
L 68.487304 206.459269 
L 70.006691 206.191729 
L 72.294259 206.1981 
L 73.997953 206.459269 
L 74.581826 206.793208 
L 76.028077 208.263414 
L 74.581826 208.981244 
L 72.294259 209.649495 
L 70.006691 209.699567 
L 67.719123 208.981209 
z
" style="fill:#ac1117;"/>
   </g>
   <g id="PathCollection_10">
    <path clip-path="url(#pe8251af7b0)" d="M 67.719123 208.981209 
L 70.006691 209.699567 
L 72.294259 209.649495 
L 74.581826 208.981244 
L 76.028077 208.263414 
L 74.581826 206.793208 
L 73.997953 206.459269 
L 72.294259 206.1981 
L 70.006691 206.191729 
L 68.487304 206.459269 
L 67.719123 206.932488 
L 66.707009 208.263414 
z
" style="fill:#7e0610;"/>
   </g>
   <g id="matplotlib.axis_1">
    <g id="xtick_1">
     <g id="line2d_1">
      <defs>
       <path d="M 0 0 
L 0 3.5 
" id="m23ff0f76f3" style="stroke:#262626;stroke-width:0.8;"/>
      </defs>
      <g>
       <use style="fill:#262626;stroke:#262626;stroke-width:0.8;" x="67.334837" xlink:href="#m23ff0f76f3" y="223"/>
      </g>
     </g>
     <g id="line2d_2">
      <defs>
       <path d="M 0 0 
L 0 -3.5 
" id="md3434c0e6c" style="stroke:#262626;stroke-width:0.8;"/>
      </defs>
      <g>
       <use style="fill:#262626;stroke:#262626;stroke-width:0.8;" x="67.334837" xlink:href="#md3434c0e6c" y="25.44"/>
      </g>
     </g>
     <g id="text_1">
      <!-- 0.0 -->
      <defs>
       <path d="M 31.78125 66.40625 
Q 24.171875 66.40625 20.328125 58.90625 
Q 16.5 51.421875 16.5 36.375 
Q 16.5 21.390625 20.328125 13.890625 
Q 24.171875 6.390625 31.78125 6.390625 
Q 39.453125 6.390625 43.28125 13.890625 
Q 47.125 21.390625 47.125 36.375 
Q 47.125 51.421875 43.28125 58.90625 
Q 39.453125 66.40625 31.78125 66.40625 
z
M 31.78125 74.21875 
Q 44.046875 74.21875 50.515625 64.515625 
Q 56.984375 54.828125 56.984375 36.375 
Q 56.984375 17.96875 50.515625 8.265625 
Q 44.046875 -1.421875 31.78125 -1.421875 
Q 19.53125 -1.421875 13.0625 8.265625 
Q 6.59375 17.96875 6.59375 36.375 
Q 6.59375 54.828125 13.0625 64.515625 
Q 19.53125 74.21875 31.78125 74.21875 
z
" id="DejaVuSans-30"/>
       <path d="M 10.6875 12.40625 
L 21 12.40625 
L 21 0 
L 10.6875 0 
z
" id="DejaVuSans-2e"/>
      </defs>
      <g style="fill:#262626;" transform="translate(58.588118 238.358281)scale(0.11 -0.11)">
       <use xlink:href="#DejaVuSans-30"/>
       <use x="63.623047" xlink:href="#DejaVuSans-2e"/>
       <use x="95.410156" xlink:href="#DejaVuSans-30"/>
      </g>
     </g>
    </g>
    <g id="xtick_2">
     <g id="line2d_3">
      <g>
       <use style="fill:#262626;stroke:#262626;stroke-width:0.8;" x="137.649636" xlink:href="#m23ff0f76f3" y="223"/>
      </g>
     </g>
     <g id="line2d_4">
      <g>
       <use style="fill:#262626;stroke:#262626;stroke-width:0.8;" x="137.649636" xlink:href="#md3434c0e6c" y="25.44"/>
      </g>
     </g>
     <g id="text_2">
      <!-- 1.0 -->
      <defs>
       <path d="M 12.40625 8.296875 
L 28.515625 8.296875 
L 28.515625 63.921875 
L 10.984375 60.40625 
L 10.984375 69.390625 
L 28.421875 72.90625 
L 38.28125 72.90625 
L 38.28125 8.296875 
L 54.390625 8.296875 
L 54.390625 0 
L 12.40625 0 
z
" id="DejaVuSans-31"/>
      </defs>
      <g style="fill:#262626;" transform="translate(128.902917 238.358281)scale(0.11 -0.11)">
       <use xlink:href="#DejaVuSans-31"/>
       <use x="63.623047" xlink:href="#DejaVuSans-2e"/>
       <use x="95.410156" xlink:href="#DejaVuSans-30"/>
      </g>
     </g>
    </g>
    <g id="xtick_3">
     <g id="line2d_5">
      <g>
       <use style="fill:#262626;stroke:#262626;stroke-width:0.8;" x="207.964434" xlink:href="#m23ff0f76f3" y="223"/>
      </g>
     </g>
     <g id="line2d_6">
      <g>
       <use style="fill:#262626;stroke:#262626;stroke-width:0.8;" x="207.964434" xlink:href="#md3434c0e6c" y="25.44"/>
      </g>
     </g>
     <g id="text_3">
      <!-- 2.0 -->
      <defs>
       <path d="M 19.1875 8.296875 
L 53.609375 8.296875 
L 53.609375 0 
L 7.328125 0 
L 7.328125 8.296875 
Q 12.9375 14.109375 22.625 23.890625 
Q 32.328125 33.6875 34.8125 36.53125 
Q 39.546875 41.84375 41.421875 45.53125 
Q 43.3125 49.21875 43.3125 52.78125 
Q 43.3125 58.59375 39.234375 62.25 
Q 35.15625 65.921875 28.609375 65.921875 
Q 23.96875 65.921875 18.8125 64.3125 
Q 13.671875 62.703125 7.8125 59.421875 
L 7.8125 69.390625 
Q 13.765625 71.78125 18.9375 73 
Q 24.125 74.21875 28.421875 74.21875 
Q 39.75 74.21875 46.484375 68.546875 
Q 53.21875 62.890625 53.21875 53.421875 
Q 53.21875 48.921875 51.53125 44.890625 
Q 49.859375 40.875 45.40625 35.40625 
Q 44.1875 33.984375 37.640625 27.21875 
Q 31.109375 20.453125 19.1875 8.296875 
z
" id="DejaVuSans-32"/>
      </defs>
      <g style="fill:#262626;" transform="translate(199.217716 238.358281)scale(0.11 -0.11)">
       <use xlink:href="#DejaVuSans-32"/>
       <use x="63.623047" xlink:href="#DejaVuSans-2e"/>
       <use x="95.410156" xlink:href="#DejaVuSans-30"/>
      </g>
     </g>
    </g>
    <g id="text_4">
     <!-- log10 counts (Control) -->
     <defs>
      <path d="M 9.421875 75.984375 
L 18.40625 75.984375 
L 18.40625 0 
L 9.421875 0 
z
" id="DejaVuSans-6c"/>
      <path d="M 30.609375 48.390625 
Q 23.390625 48.390625 19.1875 42.75 
Q 14.984375 37.109375 14.984375 27.296875 
Q 14.984375 17.484375 19.15625 11.84375 
Q 23.34375 6.203125 30.609375 6.203125 
Q 37.796875 6.203125 41.984375 11.859375 
Q 46.1875 17.53125 46.1875 27.296875 
Q 46.1875 37.015625 41.984375 42.703125 
Q 37.796875 48.390625 30.609375 48.390625 
z
M 30.609375 56 
Q 42.328125 56 49.015625 48.375 
Q 55.71875 40.765625 55.71875 27.296875 
Q 55.71875 13.875 49.015625 6.21875 
Q 42.328125 -1.421875 30.609375 -1.421875 
Q 18.84375 -1.421875 12.171875 6.21875 
Q 5.515625 13.875 5.515625 27.296875 
Q 5.515625 40.765625 12.171875 48.375 
Q 18.84375 56 30.609375 56 
z
" id="DejaVuSans-6f"/>
      <path d="M 45.40625 27.984375 
Q 45.40625 37.75 41.375 43.109375 
Q 37.359375 48.484375 30.078125 48.484375 
Q 22.859375 48.484375 18.828125 43.109375 
Q 14.796875 37.75 14.796875 27.984375 
Q 14.796875 18.265625 18.828125 12.890625 
Q 22.859375 7.515625 30.078125 7.515625 
Q 37.359375 7.515625 41.375 12.890625 
Q 45.40625 18.265625 45.40625 27.984375 
z
M 54.390625 6.78125 
Q 54.390625 -7.171875 48.1875 -13.984375 
Q 42 -20.796875 29.203125 -20.796875 
Q 24.46875 -20.796875 20.265625 -20.09375 
Q 16.0625 -19.390625 12.109375 -17.921875 
L 12.109375 -9.1875 
Q 16.0625 -11.328125 19.921875 -12.34375 
Q 23.78125 -13.375 27.78125 -13.375 
Q 36.625 -13.375 41.015625 -8.765625 
Q 45.40625 -4.15625 45.40625 5.171875 
L 45.40625 9.625 
Q 42.625 4.78125 38.28125 2.390625 
Q 33.9375 0 27.875 0 
Q 17.828125 0 11.671875 7.65625 
Q 5.515625 15.328125 5.515625 27.984375 
Q 5.515625 40.671875 11.671875 48.328125 
Q 17.828125 56 27.875 56 
Q 33.9375 56 38.28125 53.609375 
Q 42.625 51.21875 45.40625 46.390625 
L 45.40625 54.6875 
L 54.390625 54.6875 
z
" id="DejaVuSans-67"/>
      <path id="DejaVuSans-20"/>
      <path d="M 48.78125 52.59375 
L 48.78125 44.1875 
Q 44.96875 46.296875 41.140625 47.34375 
Q 37.3125 48.390625 33.40625 48.390625 
Q 24.65625 48.390625 19.8125 42.84375 
Q 14.984375 37.3125 14.984375 27.296875 
Q 14.984375 17.28125 19.8125 11.734375 
Q 24.65625 6.203125 33.40625 6.203125 
Q 37.3125 6.203125 41.140625 7.25 
Q 44.96875 8.296875 48.78125 10.40625 
L 48.78125 2.09375 
Q 45.015625 0.34375 40.984375 -0.53125 
Q 36.96875 -1.421875 32.421875 -1.421875 
Q 20.0625 -1.421875 12.78125 6.34375 
Q 5.515625 14.109375 5.515625 27.296875 
Q 5.515625 40.671875 12.859375 48.328125 
Q 20.21875 56 33.015625 56 
Q 37.15625 56 41.109375 55.140625 
Q 45.0625 54.296875 48.78125 52.59375 
z
" id="DejaVuSans-63"/>
      <path d="M 8.5 21.578125 
L 8.5 54.6875 
L 17.484375 54.6875 
L 17.484375 21.921875 
Q 17.484375 14.15625 20.5 10.265625 
Q 23.53125 6.390625 29.59375 6.390625 
Q 36.859375 6.390625 41.078125 11.03125 
Q 45.3125 15.671875 45.3125 23.6875 
L 45.3125 54.6875 
L 54.296875 54.6875 
L 54.296875 0 
L 45.3125 0 
L 45.3125 8.40625 
Q 42.046875 3.421875 37.71875 1 
Q 33.40625 -1.421875 27.6875 -1.421875 
Q 18.265625 -1.421875 13.375 4.4375 
Q 8.5 10.296875 8.5 21.578125 
z
M 31.109375 56 
z
" id="DejaVuSans-75"/>
      <path d="M 54.890625 33.015625 
L 54.890625 0 
L 45.90625 0 
L 45.90625 32.71875 
Q 45.90625 40.484375 42.875 44.328125 
Q 39.84375 48.1875 33.796875 48.1875 
Q 26.515625 48.1875 22.3125 43.546875 
Q 18.109375 38.921875 18.109375 30.90625 
L 18.109375 0 
L 9.078125 0 
L 9.078125 54.6875 
L 18.109375 54.6875 
L 18.109375 46.1875 
Q 21.34375 51.125 25.703125 53.5625 
Q 30.078125 56 35.796875 56 
Q 45.21875 56 50.046875 50.171875 
Q 54.890625 44.34375 54.890625 33.015625 
z
" id="DejaVuSans-6e"/>
      <path d="M 18.3125 70.21875 
L 18.3125 54.6875 
L 36.8125 54.6875 
L 36.8125 47.703125 
L 18.3125 47.703125 
L 18.3125 18.015625 
Q 18.3125 11.328125 20.140625 9.421875 
Q 21.96875 7.515625 27.59375 7.515625 
L 36.8125 7.515625 
L 36.8125 0 
L 27.59375 0 
Q 17.1875 0 13.234375 3.875 
Q 9.28125 7.765625 9.28125 18.015625 
L 9.28125 47.703125 
L 2.6875 47.703125 
L 2.6875 54.6875 
L 9.28125 54.6875 
L 9.28125 70.21875 
z
" id="DejaVuSans-74"/>
      <path d="M 44.28125 53.078125 
L 44.28125 44.578125 
Q 40.484375 46.53125 36.375 47.5 
Q 32.28125 48.484375 27.875 48.484375 
Q 21.1875 48.484375 17.84375 46.4375 
Q 14.5 44.390625 14.5 40.28125 
Q 14.5 37.15625 16.890625 35.375 
Q 19.28125 33.59375 26.515625 31.984375 
L 29.59375 31.296875 
Q 39.15625 29.25 43.1875 25.515625 
Q 47.21875 21.78125 47.21875 15.09375 
Q 47.21875 7.46875 41.1875 3.015625 
Q 35.15625 -1.421875 24.609375 -1.421875 
Q 20.21875 -1.421875 15.453125 -0.5625 
Q 10.6875 0.296875 5.421875 2 
L 5.421875 11.28125 
Q 10.40625 8.6875 15.234375 7.390625 
Q 20.0625 6.109375 24.8125 6.109375 
Q 31.15625 6.109375 34.5625 8.28125 
Q 37.984375 10.453125 37.984375 14.40625 
Q 37.984375 18.0625 35.515625 20.015625 
Q 33.0625 21.96875 24.703125 23.78125 
L 21.578125 24.515625 
Q 13.234375 26.265625 9.515625 29.90625 
Q 5.8125 33.546875 5.8125 39.890625 
Q 5.8125 47.609375 11.28125 51.796875 
Q 16.75 56 26.8125 56 
Q 31.78125 56 36.171875 55.265625 
Q 40.578125 54.546875 44.28125 53.078125 
z
" id="DejaVuSans-73"/>
      <path d="M 31 75.875 
Q 24.46875 64.65625 21.28125 53.65625 
Q 18.109375 42.671875 18.109375 31.390625 
Q 18.109375 20.125 21.3125 9.0625 
Q 24.515625 -2 31 -13.1875 
L 23.1875 -13.1875 
Q 15.875 -1.703125 12.234375 9.375 
Q 8.59375 20.453125 8.59375 31.390625 
Q 8.59375 42.28125 12.203125 53.3125 
Q 15.828125 64.359375 23.1875 75.875 
z
" id="DejaVuSans-28"/>
      <path d="M 64.40625 67.28125 
L 64.40625 56.890625 
Q 59.421875 61.53125 53.78125 63.8125 
Q 48.140625 66.109375 41.796875 66.109375 
Q 29.296875 66.109375 22.65625 58.46875 
Q 16.015625 50.828125 16.015625 36.375 
Q 16.015625 21.96875 22.65625 14.328125 
Q 29.296875 6.6875 41.796875 6.6875 
Q 48.140625 6.6875 53.78125 8.984375 
Q 59.421875 11.28125 64.40625 15.921875 
L 64.40625 5.609375 
Q 59.234375 2.09375 53.4375 0.328125 
Q 47.65625 -1.421875 41.21875 -1.421875 
Q 24.65625 -1.421875 15.125 8.703125 
Q 5.609375 18.84375 5.609375 36.375 
Q 5.609375 53.953125 15.125 64.078125 
Q 24.65625 74.21875 41.21875 74.21875 
Q 47.75 74.21875 53.53125 72.484375 
Q 59.328125 70.75 64.40625 67.28125 
z
" id="DejaVuSans-43"/>
      <path d="M 41.109375 46.296875 
Q 39.59375 47.171875 37.8125 47.578125 
Q 36.03125 48 33.890625 48 
Q 26.265625 48 22.1875 43.046875 
Q 18.109375 38.09375 18.109375 28.8125 
L 18.109375 0 
L 9.078125 0 
L 9.078125 54.6875 
L 18.109375 54.6875 
L 18.109375 46.1875 
Q 20.953125 51.171875 25.484375 53.578125 
Q 30.03125 56 36.53125 56 
Q 37.453125 56 38.578125 55.875 
Q 39.703125 55.765625 41.0625 55.515625 
z
" id="DejaVuSans-72"/>
      <path d="M 8.015625 75.875 
L 15.828125 75.875 
Q 23.140625 64.359375 26.78125 53.3125 
Q 30.421875 42.28125 30.421875 31.390625 
Q 30.421875 20.453125 26.78125 9.375 
Q 23.140625 -1.703125 15.828125 -13.1875 
L 8.015625 -13.1875 
Q 14.5 -2 17.703125 9.0625 
Q 20.90625 20.125 20.90625 31.390625 
Q 20.90625 42.671875 17.703125 53.65625 
Q 14.5 64.65625 8.015625 75.875 
z
" id="DejaVuSans-29"/>
     </defs>
     <g transform="translate(83.294531 253.004219)scale(0.11 -0.11)">
      <use xlink:href="#DejaVuSans-6c"/>
      <use x="27.783203" xlink:href="#DejaVuSans-6f"/>
      <use x="88.964844" xlink:href="#DejaVuSans-67"/>
      <use x="152.441406" xlink:href="#DejaVuSans-31"/>
      <use x="216.064453" xlink:href="#DejaVuSans-30"/>
      <use x="279.6875" xlink:href="#DejaVuSans-20"/>
      <use x="311.474609" xlink:href="#DejaVuSans-63"/>
      <use x="366.455078" xlink:href="#DejaVuSans-6f"/>
      <use x="427.636719" xlink:href="#DejaVuSans-75"/>
      <use x="491.015625" xlink:href="#DejaVuSans-6e"/>
      <use x="554.394531" xlink:href="#DejaVuSans-74"/>
      <use x="593.603516" xlink:href="#DejaVuSans-73"/>
      <use x="645.703125" xlink:href="#DejaVuSans-20"/>
      <use x="677.490234" xlink:href="#DejaVuSans-28"/>
      <use x="716.503906" xlink:href="#DejaVuSans-43"/>
      <use x="786.328125" xlink:href="#DejaVuSans-6f"/>
      <use x="847.509766" xlink:href="#DejaVuSans-6e"/>
      <use x="910.888672" xlink:href="#DejaVuSans-74"/>
      <use x="950.097656" xlink:href="#DejaVuSans-72"/>
      <use x="991.179688" xlink:href="#DejaVuSans-6f"/>
      <use x="1052.361328" xlink:href="#DejaVuSans-6c"/>
      <use x="1080.144531" xlink:href="#DejaVuSans-29"/>
     </g>
    </g>
   </g>
   <g id="matplotlib.axis_2">
    <g id="ytick_1">
     <g id="line2d_7">
      <defs>
       <path d="M 0 0 
L -3.5 0 
" id="m855fce58c4" style="stroke:#262626;stroke-width:0.8;"/>
      </defs>
      <g>
       <use style="fill:#262626;stroke:#262626;stroke-width:0.8;" x="51.01625" xlink:href="#m855fce58c4" y="208.365926"/>
      </g>
     </g>
     <g id="line2d_8">
      <defs>
       <path d="M 0 0 
L 3.5 0 
" id="mf48f0757a2" style="stroke:#262626;stroke-width:0.8;"/>
      </defs>
      <g>
       <use style="fill:#262626;stroke:#262626;stroke-width:0.8;" x="238.68" xlink:href="#mf48f0757a2" y="208.365926"/>
      </g>
     </g>
     <g id="text_5">
      <!-- 0.0 -->
      <g style="fill:#262626;" transform="translate(26.522813 212.545067)scale(0.11 -0.11)">
       <use xlink:href="#DejaVuSans-30"/>
       <use x="63.623047" xlink:href="#DejaVuSans-2e"/>
       <use x="95.410156" xlink:href="#DejaVuSans-30"/>
      </g>
     </g>
    </g>
    <g id="ytick_2">
     <g id="line2d_9">
      <g>
       <use style="fill:#262626;stroke:#262626;stroke-width:0.8;" x="51.01625" xlink:href="#m855fce58c4" y="172.510837"/>
      </g>
     </g>
     <g id="line2d_10">
      <g>
       <use style="fill:#262626;stroke:#262626;stroke-width:0.8;" x="238.68" xlink:href="#mf48f0757a2" y="172.510837"/>
      </g>
     </g>
     <g id="text_6">
      <!-- 1.0 -->
      <g style="fill:#262626;" transform="translate(26.522813 176.689978)scale(0.11 -0.11)">
       <use xlink:href="#DejaVuSans-31"/>
       <use x="63.623047" xlink:href="#DejaVuSans-2e"/>
       <use x="95.410156" xlink:href="#DejaVuSans-30"/>
      </g>
     </g>
    </g>
    <g id="ytick_3">
     <g id="line2d_11">
      <g>
       <use style="fill:#262626;stroke:#262626;stroke-width:0.8;" x="51.01625" xlink:href="#m855fce58c4" y="136.655749"/>
      </g>
     </g>
     <g id="line2d_12">
      <g>
       <use style="fill:#262626;stroke:#262626;stroke-width:0.8;" x="238.68" xlink:href="#mf48f0757a2" y="136.655749"/>
      </g>
     </g>
     <g id="text_7">
      <!-- 2.0 -->
      <g style="fill:#262626;" transform="translate(26.522813 140.834889)scale(0.11 -0.11)">
       <use xlink:href="#DejaVuSans-32"/>
       <use x="63.623047" xlink:href="#DejaVuSans-2e"/>
       <use x="95.410156" xlink:href="#DejaVuSans-30"/>
      </g>
     </g>
    </g>
    <g id="ytick_4">
     <g id="line2d_13">
      <g>
       <use style="fill:#262626;stroke:#262626;stroke-width:0.8;" x="51.01625" xlink:href="#m855fce58c4" y="100.80066"/>
      </g>
     </g>
     <g id="line2d_14">
      <g>
       <use style="fill:#262626;stroke:#262626;stroke-width:0.8;" x="238.68" xlink:href="#mf48f0757a2" y="100.80066"/>
      </g>
     </g>
     <g id="text_8">
      <!-- 3.0 -->
      <defs>
       <path d="M 40.578125 39.3125 
Q 47.65625 37.796875 51.625 33 
Q 55.609375 28.21875 55.609375 21.1875 
Q 55.609375 10.40625 48.1875 4.484375 
Q 40.765625 -1.421875 27.09375 -1.421875 
Q 22.515625 -1.421875 17.65625 -0.515625 
Q 12.796875 0.390625 7.625 2.203125 
L 7.625 11.71875 
Q 11.71875 9.328125 16.59375 8.109375 
Q 21.484375 6.890625 26.8125 6.890625 
Q 36.078125 6.890625 40.9375 10.546875 
Q 45.796875 14.203125 45.796875 21.1875 
Q 45.796875 27.640625 41.28125 31.265625 
Q 36.765625 34.90625 28.71875 34.90625 
L 20.21875 34.90625 
L 20.21875 43.015625 
L 29.109375 43.015625 
Q 36.375 43.015625 40.234375 45.921875 
Q 44.09375 48.828125 44.09375 54.296875 
Q 44.09375 59.90625 40.109375 62.90625 
Q 36.140625 65.921875 28.71875 65.921875 
Q 24.65625 65.921875 20.015625 65.03125 
Q 15.375 64.15625 9.8125 62.3125 
L 9.8125 71.09375 
Q 15.4375 72.65625 20.34375 73.4375 
Q 25.25 74.21875 29.59375 74.21875 
Q 40.828125 74.21875 47.359375 69.109375 
Q 53.90625 64.015625 53.90625 55.328125 
Q 53.90625 49.265625 50.4375 45.09375 
Q 46.96875 40.921875 40.578125 39.3125 
z
" id="DejaVuSans-33"/>
      </defs>
      <g style="fill:#262626;" transform="translate(26.522813 104.979801)scale(0.11 -0.11)">
       <use xlink:href="#DejaVuSans-33"/>
       <use x="63.623047" xlink:href="#DejaVuSans-2e"/>
       <use x="95.410156" xlink:href="#DejaVuSans-30"/>
      </g>
     </g>
    </g>
    <g id="ytick_5">
     <g id="line2d_15">
      <g>
       <use style="fill:#262626;stroke:#262626;stroke-width:0.8;" x="51.01625" xlink:href="#m855fce58c4" y="64.945571"/>
      </g>
     </g>
     <g id="line2d_16">
      <g>
       <use style="fill:#262626;stroke:#262626;stroke-width:0.8;" x="238.68" xlink:href="#mf48f0757a2" y="64.945571"/>
      </g>
     </g>
     <g id="text_9">
      <!-- 4.0 -->
      <defs>
       <path d="M 37.796875 64.3125 
L 12.890625 25.390625 
L 37.796875 25.390625 
z
M 35.203125 72.90625 
L 47.609375 72.90625 
L 47.609375 25.390625 
L 58.015625 25.390625 
L 58.015625 17.1875 
L 47.609375 17.1875 
L 47.609375 0 
L 37.796875 0 
L 37.796875 17.1875 
L 4.890625 17.1875 
L 4.890625 26.703125 
z
" id="DejaVuSans-34"/>
      </defs>
      <g style="fill:#262626;" transform="translate(26.522813 69.124712)scale(0.11 -0.11)">
       <use xlink:href="#DejaVuSans-34"/>
       <use x="63.623047" xlink:href="#DejaVuSans-2e"/>
       <use x="95.410156" xlink:href="#DejaVuSans-30"/>
      </g>
     </g>
    </g>
    <g id="ytick_6">
     <g id="line2d_17">
      <g>
       <use style="fill:#262626;stroke:#262626;stroke-width:0.8;" x="51.01625" xlink:href="#m855fce58c4" y="29.090483"/>
      </g>
     </g>
     <g id="line2d_18">
      <g>
       <use style="fill:#262626;stroke:#262626;stroke-width:0.8;" x="238.68" xlink:href="#mf48f0757a2" y="29.090483"/>
      </g>
     </g>
     <g id="text_10">
      <!-- 5.0 -->
      <defs>
       <path d="M 10.796875 72.90625 
L 49.515625 72.90625 
L 49.515625 64.59375 
L 19.828125 64.59375 
L 19.828125 46.734375 
Q 21.96875 47.46875 24.109375 47.828125 
Q 26.265625 48.1875 28.421875 48.1875 
Q 40.625 48.1875 47.75 41.5 
Q 54.890625 34.8125 54.890625 23.390625 
Q 54.890625 11.625 47.5625 5.09375 
Q 40.234375 -1.421875 26.90625 -1.421875 
Q 22.3125 -1.421875 17.546875 -0.640625 
Q 12.796875 0.140625 7.71875 1.703125 
L 7.71875 11.625 
Q 12.109375 9.234375 16.796875 8.0625 
Q 21.484375 6.890625 26.703125 6.890625 
Q 35.15625 6.890625 40.078125 11.328125 
Q 45.015625 15.765625 45.015625 23.390625 
Q 45.015625 31 40.078125 35.4375 
Q 35.15625 39.890625 26.703125 39.890625 
Q 22.75 39.890625 18.8125 39.015625 
Q 14.890625 38.140625 10.796875 36.28125 
z
" id="DejaVuSans-35"/>
      </defs>
      <g style="fill:#262626;" transform="translate(26.522813 33.269623)scale(0.11 -0.11)">
       <use xlink:href="#DejaVuSans-35"/>
       <use x="63.623047" xlink:href="#DejaVuSans-2e"/>
       <use x="95.410156" xlink:href="#DejaVuSans-30"/>
      </g>
     </g>
    </g>
    <g id="text_11">
     <!-- log10 counts (ToxB_avg) -->
     <defs>
      <path d="M -0.296875 72.90625 
L 61.375 72.90625 
L 61.375 64.59375 
L 35.5 64.59375 
L 35.5 0 
L 25.59375 0 
L 25.59375 64.59375 
L -0.296875 64.59375 
z
" id="DejaVuSans-54"/>
      <path d="M 54.890625 54.6875 
L 35.109375 28.078125 
L 55.90625 0 
L 45.3125 0 
L 29.390625 21.484375 
L 13.484375 0 
L 2.875 0 
L 24.125 28.609375 
L 4.6875 54.6875 
L 15.28125 54.6875 
L 29.78125 35.203125 
L 44.28125 54.6875 
z
" id="DejaVuSans-78"/>
      <path d="M 19.671875 34.8125 
L 19.671875 8.109375 
L 35.5 8.109375 
Q 43.453125 8.109375 47.28125 11.40625 
Q 51.125 14.703125 51.125 21.484375 
Q 51.125 28.328125 47.28125 31.5625 
Q 43.453125 34.8125 35.5 34.8125 
z
M 19.671875 64.796875 
L 19.671875 42.828125 
L 34.28125 42.828125 
Q 41.5 42.828125 45.03125 45.53125 
Q 48.578125 48.25 48.578125 53.8125 
Q 48.578125 59.328125 45.03125 62.0625 
Q 41.5 64.796875 34.28125 64.796875 
z
M 9.8125 72.90625 
L 35.015625 72.90625 
Q 46.296875 72.90625 52.390625 68.21875 
Q 58.5 63.53125 58.5 54.890625 
Q 58.5 48.1875 55.375 44.234375 
Q 52.25 40.28125 46.1875 39.3125 
Q 53.46875 37.75 57.5 32.78125 
Q 61.53125 27.828125 61.53125 20.40625 
Q 61.53125 10.640625 54.890625 5.3125 
Q 48.25 0 35.984375 0 
L 9.8125 0 
z
" id="DejaVuSans-42"/>
      <path d="M 50.984375 -16.609375 
L 50.984375 -23.578125 
L -0.984375 -23.578125 
L -0.984375 -16.609375 
z
" id="DejaVuSans-5f"/>
      <path d="M 34.28125 27.484375 
Q 23.390625 27.484375 19.1875 25 
Q 14.984375 22.515625 14.984375 16.5 
Q 14.984375 11.71875 18.140625 8.90625 
Q 21.296875 6.109375 26.703125 6.109375 
Q 34.1875 6.109375 38.703125 11.40625 
Q 43.21875 16.703125 43.21875 25.484375 
L 43.21875 27.484375 
z
M 52.203125 31.203125 
L 52.203125 0 
L 43.21875 0 
L 43.21875 8.296875 
Q 40.140625 3.328125 35.546875 0.953125 
Q 30.953125 -1.421875 24.3125 -1.421875 
Q 15.921875 -1.421875 10.953125 3.296875 
Q 6 8.015625 6 15.921875 
Q 6 25.140625 12.171875 29.828125 
Q 18.359375 34.515625 30.609375 34.515625 
L 43.21875 34.515625 
L 43.21875 35.40625 
Q 43.21875 41.609375 39.140625 45 
Q 35.0625 48.390625 27.6875 48.390625 
Q 23 48.390625 18.546875 47.265625 
Q 14.109375 46.140625 10.015625 43.890625 
L 10.015625 52.203125 
Q 14.9375 54.109375 19.578125 55.046875 
Q 24.21875 56 28.609375 56 
Q 40.484375 56 46.34375 49.84375 
Q 52.203125 43.703125 52.203125 31.203125 
z
" id="DejaVuSans-61"/>
      <path d="M 2.984375 54.6875 
L 12.5 54.6875 
L 29.59375 8.796875 
L 46.6875 54.6875 
L 56.203125 54.6875 
L 35.6875 0 
L 23.484375 0 
z
" id="DejaVuSans-76"/>
     </defs>
     <g transform="translate(19.929219 192.377031)rotate(-90)scale(0.11 -0.11)">
      <use xlink:href="#DejaVuSans-6c"/>
      <use x="27.783203" xlink:href="#DejaVuSans-6f"/>
      <use x="88.964844" xlink:href="#DejaVuSans-67"/>
      <use x="152.441406" xlink:href="#DejaVuSans-31"/>
      <use x="216.064453" xlink:href="#DejaVuSans-30"/>
      <use x="279.6875" xlink:href="#DejaVuSans-20"/>
      <use x="311.474609" xlink:href="#DejaVuSans-63"/>
      <use x="366.455078" xlink:href="#DejaVuSans-6f"/>
      <use x="427.636719" xlink:href="#DejaVuSans-75"/>
      <use x="491.015625" xlink:href="#DejaVuSans-6e"/>
      <use x="554.394531" xlink:href="#DejaVuSans-74"/>
      <use x="593.603516" xlink:href="#DejaVuSans-73"/>
      <use x="645.703125" xlink:href="#DejaVuSans-20"/>
      <use x="677.490234" xlink:href="#DejaVuSans-28"/>
      <use x="716.503906" xlink:href="#DejaVuSans-54"/>
      <use x="777.322266" xlink:href="#DejaVuSans-6f"/>
      <use x="838.457031" xlink:href="#DejaVuSans-78"/>
      <use x="897.636719" xlink:href="#DejaVuSans-42"/>
      <use x="966.240234" xlink:href="#DejaVuSans-5f"/>
      <use x="1016.240234" xlink:href="#DejaVuSans-61"/>
      <use x="1077.519531" xlink:href="#DejaVuSans-76"/>
      <use x="1136.699219" xlink:href="#DejaVuSans-67"/>
      <use x="1200.175781" xlink:href="#DejaVuSans-29"/>
     </g>
    </g>
   </g>
   <g id="line2d_19">
    <path clip-path="url(#pe8251af7b0)" d="M 51.01625 216.687138 
L 238.68 120.993195 
" style="fill:none;opacity:0.75;stroke:#3399ff;stroke-dasharray:5.55,2.4;stroke-dashoffset:0;stroke-width:1.5;"/>
   </g>
   <g id="patch_3">
    <path d="M 51.01625 223 
L 51.01625 25.44 
" style="fill:none;stroke:#000000;stroke-linecap:square;stroke-linejoin:miter;stroke-width:0.8;"/>
   </g>
   <g id="patch_4">
    <path d="M 238.68 223 
L 238.68 25.44 
" style="fill:none;stroke:#000000;stroke-linecap:square;stroke-linejoin:miter;stroke-width:0.8;"/>
   </g>
   <g id="patch_5">
    <path d="M 51.01625 223 
L 238.68 223 
" style="fill:none;stroke:#000000;stroke-linecap:square;stroke-linejoin:miter;stroke-width:0.8;"/>
   </g>
   <g id="patch_6">
    <path d="M 51.01625 25.44 
L 238.68 25.44 
" style="fill:none;stroke:#000000;stroke-linecap:square;stroke-linejoin:miter;stroke-width:0.8;"/>
   </g>
   <g id="text_12">
    <!-- sgRNA Density -->
    <defs>
     <path d="M 44.390625 34.1875 
Q 47.5625 33.109375 50.5625 29.59375 
Q 53.5625 26.078125 56.59375 19.921875 
L 66.609375 0 
L 56 0 
L 46.6875 18.703125 
Q 43.0625 26.03125 39.671875 28.421875 
Q 36.28125 30.8125 30.421875 30.8125 
L 19.671875 30.8125 
L 19.671875 0 
L 9.8125 0 
L 9.8125 72.90625 
L 32.078125 72.90625 
Q 44.578125 72.90625 50.734375 67.671875 
Q 56.890625 62.453125 56.890625 51.90625 
Q 56.890625 45.015625 53.6875 40.46875 
Q 50.484375 35.9375 44.390625 34.1875 
z
M 19.671875 64.796875 
L 19.671875 38.921875 
L 32.078125 38.921875 
Q 39.203125 38.921875 42.84375 42.21875 
Q 46.484375 45.515625 46.484375 51.90625 
Q 46.484375 58.296875 42.84375 61.546875 
Q 39.203125 64.796875 32.078125 64.796875 
z
" id="DejaVuSans-52"/>
     <path d="M 9.8125 72.90625 
L 23.09375 72.90625 
L 55.421875 11.921875 
L 55.421875 72.90625 
L 64.984375 72.90625 
L 64.984375 0 
L 51.703125 0 
L 19.390625 60.984375 
L 19.390625 0 
L 9.8125 0 
z
" id="DejaVuSans-4e"/>
     <path d="M 34.1875 63.1875 
L 20.796875 26.90625 
L 47.609375 26.90625 
z
M 28.609375 72.90625 
L 39.796875 72.90625 
L 67.578125 0 
L 57.328125 0 
L 50.6875 18.703125 
L 17.828125 18.703125 
L 11.1875 0 
L 0.78125 0 
z
" id="DejaVuSans-41"/>
     <path d="M 19.671875 64.796875 
L 19.671875 8.109375 
L 31.59375 8.109375 
Q 46.6875 8.109375 53.6875 14.9375 
Q 60.6875 21.78125 60.6875 36.53125 
Q 60.6875 51.171875 53.6875 57.984375 
Q 46.6875 64.796875 31.59375 64.796875 
z
M 9.8125 72.90625 
L 30.078125 72.90625 
Q 51.265625 72.90625 61.171875 64.09375 
Q 71.09375 55.28125 71.09375 36.53125 
Q 71.09375 17.671875 61.125 8.828125 
Q 51.171875 0 30.078125 0 
L 9.8125 0 
z
" id="DejaVuSans-44"/>
     <path d="M 56.203125 29.59375 
L 56.203125 25.203125 
L 14.890625 25.203125 
Q 15.484375 15.921875 20.484375 11.0625 
Q 25.484375 6.203125 34.421875 6.203125 
Q 39.59375 6.203125 44.453125 7.46875 
Q 49.3125 8.734375 54.109375 11.28125 
L 54.109375 2.78125 
Q 49.265625 0.734375 44.1875 -0.34375 
Q 39.109375 -1.421875 33.890625 -1.421875 
Q 20.796875 -1.421875 13.15625 6.1875 
Q 5.515625 13.8125 5.515625 26.8125 
Q 5.515625 40.234375 12.765625 48.109375 
Q 20.015625 56 32.328125 56 
Q 43.359375 56 49.78125 48.890625 
Q 56.203125 41.796875 56.203125 29.59375 
z
M 47.21875 32.234375 
Q 47.125 39.59375 43.09375 43.984375 
Q 39.0625 48.390625 32.421875 48.390625 
Q 24.90625 48.390625 20.390625 44.140625 
Q 15.875 39.890625 15.1875 32.171875 
z
" id="DejaVuSans-65"/>
     <path d="M 9.421875 54.6875 
L 18.40625 54.6875 
L 18.40625 0 
L 9.421875 0 
z
M 9.421875 75.984375 
L 18.40625 75.984375 
L 18.40625 64.59375 
L 9.421875 64.59375 
z
" id="DejaVuSans-69"/>
     <path d="M 32.171875 -5.078125 
Q 28.375 -14.84375 24.75 -17.8125 
Q 21.140625 -20.796875 15.09375 -20.796875 
L 7.90625 -20.796875 
L 7.90625 -13.28125 
L 13.1875 -13.28125 
Q 16.890625 -13.28125 18.9375 -11.515625 
Q 21 -9.765625 23.484375 -3.21875 
L 25.09375 0.875 
L 2.984375 54.6875 
L 12.5 54.6875 
L 29.59375 11.921875 
L 46.6875 54.6875 
L 56.203125 54.6875 
z
" id="DejaVuSans-79"/>
    </defs>
    <g transform="translate(100.434063 19.44)scale(0.12 -0.12)">
     <use xlink:href="#DejaVuSans-73"/>
     <use x="52.099609" xlink:href="#DejaVuSans-67"/>
     <use x="115.576172" xlink:href="#DejaVuSans-52"/>
     <use x="185.058594" xlink:href="#DejaVuSans-4e"/>
     <use x="259.863281" xlink:href="#DejaVuSans-41"/>
     <use x="328.271484" xlink:href="#DejaVuSans-20"/>
     <use x="360.058594" xlink:href="#DejaVuSans-44"/>
     <use x="437.060547" xlink:href="#DejaVuSans-65"/>
     <use x="498.583984" xlink:href="#DejaVuSans-6e"/>
     <use x="561.962891" xlink:href="#DejaVuSans-73"/>
     <use x="614.0625" xlink:href="#DejaVuSans-69"/>
     <use x="641.845703" xlink:href="#DejaVuSans-74"/>
     <use x="681.054688" xlink:href="#DejaVuSans-79"/>
    </g>
   </g>
  </g>
 </g>
 <defs>
  <clipPath id="pe8251af7b0">
   <rect height="197.56" width="187.66375" x="51.01625" y="25.44"/>
  </clipPath>
 </defs>
</svg>
