<?xml version="1.0" encoding="utf-8" standalone="no"?>
<!DOCTYPE svg PUBLIC "-//W3C//DTD SVG 1.1//EN"
  "http://www.w3.org/Graphics/SVG/1.1/DTD/svg11.dtd">
<!-- Created with matplotlib (http://matplotlib.org/) -->
<svg height="266pt" version="1.1" viewBox="0 0 252 266" width="252pt" xmlns="http://www.w3.org/2000/svg" xmlns:xlink="http://www.w3.org/1999/xlink">
 <defs>
  <style type="text/css">
*{stroke-linecap:butt;stroke-linejoin:round;}
  </style>
 </defs>
 <g id="figure_1">
  <g id="patch_1">
   <path d="M 0 266.4 
L 252 266.4 
L 252 0 
L 0 0 
z
" style="fill:#ffffff;"/>
  </g>
  <g id="axes_1">
   <g id="patch_2">
    <path d="M 51.01625 223 
L 238.68 223 
L 238.68 25.44 
L 51.01625 25.44 
z
" style="fill:#ffffff;"/>
   </g>
   <g id="PathCollection_1">
    <path clip-path="url(#p9ee3a757df)" d="M 37.980745 224.487213 
L 40.268313 224.487213 
L 42.55588 224.487213 
L 44.843448 224.487213 
L 47.131015 224.487213 
L 49.418583 224.487213 
L 51.70615 224.487213 
L 53.993718 224.487213 
L 56.281286 224.487213 
L 58.568853 224.487213 
L 60.856421 224.487213 
L 63.143988 224.487213 
L 65.431556 224.487213 
L 67.719123 224.487213 
L 70.006691 224.487213 
L 72.294259 224.487213 
L 74.581826 224.487213 
L 76.869394 224.487213 
L 79.156961 224.487213 
L 81.444529 224.487213 
L 83.732096 224.487213 
L 86.019664 224.487213 
L 88.307231 224.487213 
L 90.594799 224.487213 
L 92.882367 224.487213 
L 95.169934 224.487213 
L 97.457502 224.487213 
L 99.745069 224.487213 
L 102.032637 224.487213 
L 104.320204 224.487213 
L 106.607772 224.487213 
L 108.895339 224.487213 
L 111.182907 224.487213 
L 113.470475 224.487213 
L 115.758042 224.487213 
L 118.04561 224.487213 
L 120.333177 224.487213 
L 122.620745 224.487213 
L 124.908312 224.487213 
L 127.19588 224.487213 
L 129.483447 224.487213 
L 131.771015 224.487213 
L 134.058583 224.487213 
L 136.34615 224.487213 
L 138.633718 224.487213 
L 140.921285 224.487213 
L 143.208853 224.487213 
L 145.49642 224.487213 
L 147.783988 224.487213 
L 150.071556 224.487213 
L 152.359123 224.487213 
L 154.646691 224.487213 
L 156.934258 224.487213 
L 159.221826 224.487213 
L 161.509393 224.487213 
L 163.796961 224.487213 
L 166.084528 224.487213 
L 168.372096 224.487213 
L 170.659664 224.487213 
L 172.947231 224.487213 
L 175.234799 224.487213 
L 177.522366 224.487213 
L 179.809934 224.487213 
L 182.097501 224.487213 
L 184.385069 224.487213 
L 186.672636 224.487213 
L 188.960204 224.487213 
L 191.247772 224.487213 
L 193.535339 224.487213 
L 195.822907 224.487213 
L 198.110474 224.487213 
L 200.398042 224.487213 
L 202.685609 224.487213 
L 204.973177 224.487213 
L 207.260745 224.487213 
L 209.548312 224.487213 
L 211.83588 224.487213 
L 214.123447 224.487213 
L 216.411015 224.487213 
L 218.698582 224.487213 
L 220.98615 224.487213 
L 223.273717 224.487213 
L 225.561285 224.487213 
L 227.848853 224.487213 
L 230.13642 224.487213 
L 232.423988 224.487213 
L 234.711555 224.487213 
L 236.999123 224.487213 
L 239.28669 224.487213 
L 241.574258 224.487213 
L 243.861825 224.487213 
L 246.149393 224.487213 
L 248.436961 224.487213 
L 250.724528 224.487213 
L 253.012096 224.487213 
L 255.299663 224.487213 
L 257.587231 224.487213 
L 259.874798 224.487213 
L 262.162366 224.487213 
L 262.162366 222.683341 
L 262.162366 220.879469 
L 262.162366 219.075597 
L 262.162366 217.271725 
L 262.162366 215.467853 
L 262.162366 213.663981 
L 262.162366 211.860109 
L 262.162366 210.056238 
L 262.162366 208.252366 
L 262.162366 206.448494 
L 262.162366 204.644622 
L 262.162366 202.84075 
L 262.162366 201.036878 
L 262.162366 199.233006 
L 262.162366 197.429135 
L 262.162366 195.625263 
L 262.162366 193.821391 
L 262.162366 192.017519 
L 262.162366 190.213647 
L 262.162366 188.409775 
L 262.162366 186.605903 
L 262.162366 184.802032 
L 262.162366 182.99816 
L 262.162366 181.194288 
L 262.162366 179.390416 
L 262.162366 177.586544 
L 262.162366 175.782672 
L 262.162366 173.9788 
L 262.162366 172.174929 
L 262.162366 170.371057 
L 262.162366 168.567185 
L 262.162366 166.763313 
L 262.162366 164.959441 
L 262.162366 163.155569 
L 262.162366 161.351697 
L 262.162366 159.547826 
L 262.162366 157.743954 
L 262.162366 155.940082 
L 262.162366 154.13621 
L 262.162366 152.332338 
L 262.162366 150.528466 
L 262.162366 148.724594 
L 262.162366 146.920723 
L 262.162366 145.116851 
L 262.162366 143.312979 
L 262.162366 141.509107 
L 262.162366 139.705235 
L 262.162366 137.901363 
L 262.162366 136.097491 
L 262.162366 134.29362 
L 262.162366 132.489748 
L 262.162366 130.685876 
L 262.162366 128.882004 
L 262.162366 127.078132 
L 262.162366 125.27426 
L 262.162366 123.470388 
L 262.162366 121.666517 
L 262.162366 119.862645 
L 262.162366 118.058773 
L 262.162366 116.254901 
L 262.162366 114.451029 
L 262.162366 112.647157 
L 262.162366 110.843285 
L 262.162366 109.039414 
L 262.162366 107.235542 
L 262.162366 105.43167 
L 262.162366 103.627798 
L 262.162366 101.823926 
L 262.162366 100.020054 
L 262.162366 98.216182 
L 262.162366 96.412311 
L 262.162366 94.608439 
L 262.162366 92.804567 
L 262.162366 91.000695 
L 262.162366 89.196823 
L 262.162366 87.392951 
L 262.162366 85.589079 
L 262.162366 83.785208 
L 262.162366 81.981336 
L 262.162366 80.177464 
L 262.162366 78.373592 
L 262.162366 76.56972 
L 262.162366 74.765848 
L 262.162366 72.961976 
L 262.162366 71.158105 
L 262.162366 69.354233 
L 262.162366 67.550361 
L 262.162366 65.746489 
L 262.162366 63.942617 
L 262.162366 62.138745 
L 262.162366 60.334873 
L 262.162366 58.531002 
L 262.162366 56.72713 
L 262.162366 54.923258 
L 262.162366 53.119386 
L 262.162366 51.315514 
L 262.162366 49.511642 
L 262.162366 47.70777 
L 262.162366 45.903899 
L 259.874798 45.903899 
L 257.587231 45.903899 
L 255.299663 45.903899 
L 253.012096 45.903899 
L 250.724528 45.903899 
L 248.436961 45.903899 
L 246.149393 45.903899 
L 243.861825 45.903899 
L 241.574258 45.903899 
L 239.28669 45.903899 
L 236.999123 45.903899 
L 234.711555 45.903899 
L 232.423988 45.903899 
L 230.13642 45.903899 
L 227.848853 45.903899 
L 225.561285 45.903899 
L 223.273717 45.903899 
L 220.98615 45.903899 
L 218.698582 45.903899 
L 216.411015 45.903899 
L 214.123447 45.903899 
L 211.83588 45.903899 
L 209.548312 45.903899 
L 207.260745 45.903899 
L 204.973177 45.903899 
L 202.685609 45.903899 
L 200.398042 45.903899 
L 198.110474 45.903899 
L 195.822907 45.903899 
L 193.535339 45.903899 
L 191.247772 45.903899 
L 188.960204 45.903899 
L 186.672636 45.903899 
L 184.385069 45.903899 
L 182.097501 45.903899 
L 179.809934 45.903899 
L 177.522366 45.903899 
L 175.234799 45.903899 
L 172.947231 45.903899 
L 170.659664 45.903899 
L 168.372096 45.903899 
L 166.084528 45.903899 
L 163.796961 45.903899 
L 161.509393 45.903899 
L 159.221826 45.903899 
L 156.934258 45.903899 
L 154.646691 45.903899 
L 152.359123 45.903899 
L 150.071556 45.903899 
L 147.783988 45.903899 
L 145.49642 45.903899 
L 143.208853 45.903899 
L 140.921285 45.903899 
L 138.633718 45.903899 
L 136.34615 45.903899 
L 134.058583 45.903899 
L 131.771015 45.903899 
L 129.483447 45.903899 
L 127.19588 45.903899 
L 124.908312 45.903899 
L 122.620745 45.903899 
L 120.333177 45.903899 
L 118.04561 45.903899 
L 115.758042 45.903899 
L 113.470475 45.903899 
L 111.182907 45.903899 
L 108.895339 45.903899 
L 106.607772 45.903899 
L 104.320204 45.903899 
L 102.032637 45.903899 
L 99.745069 45.903899 
L 97.457502 45.903899 
L 95.169934 45.903899 
L 92.882367 45.903899 
L 90.594799 45.903899 
L 88.307231 45.903899 
L 86.019664 45.903899 
L 83.732096 45.903899 
L 81.444529 45.903899 
L 79.156961 45.903899 
L 76.869394 45.903899 
L 74.581826 45.903899 
L 72.294259 45.903899 
L 70.006691 45.903899 
L 67.719123 45.903899 
L 65.431556 45.903899 
L 63.143988 45.903899 
L 60.856421 45.903899 
L 58.568853 45.903899 
L 56.281286 45.903899 
L 53.993718 45.903899 
L 51.70615 45.903899 
L 49.418583 45.903899 
L 47.131015 45.903899 
L 44.843448 45.903899 
L 42.55588 45.903899 
L 40.268313 45.903899 
L 37.980745 45.903899 
L 35.693178 45.903899 
L 35.693178 47.70777 
L 35.693178 49.511642 
L 35.693178 51.315514 
L 35.693178 53.119386 
L 35.693178 54.923258 
L 35.693178 56.72713 
L 35.693178 58.531002 
L 35.693178 60.334873 
L 35.693178 62.138745 
L 35.693178 63.942617 
L 35.693178 65.746489 
L 35.693178 67.550361 
L 35.693178 69.354233 
L 35.693178 71.158105 
L 35.693178 72.961976 
L 35.693178 74.765848 
L 35.693178 76.56972 
L 35.693178 78.373592 
L 35.693178 80.177464 
L 35.693178 81.981336 
L 35.693178 83.785208 
L 35.693178 85.589079 
L 35.693178 87.392951 
L 35.693178 89.196823 
L 35.693178 91.000695 
L 35.693178 92.804567 
L 35.693178 94.608439 
L 35.693178 96.412311 
L 35.693178 98.216182 
L 35.693178 100.020054 
L 35.693178 101.823926 
L 35.693178 103.627798 
L 35.693178 105.43167 
L 35.693178 107.235542 
L 35.693178 109.039414 
L 35.693178 110.843285 
L 35.693178 112.647157 
L 35.693178 114.451029 
L 35.693178 116.254901 
L 35.693178 118.058773 
L 35.693178 119.862645 
L 35.693178 121.666517 
L 35.693178 123.470388 
L 35.693178 125.27426 
L 35.693178 127.078132 
L 35.693178 128.882004 
L 35.693178 130.685876 
L 35.693178 132.489748 
L 35.693178 134.29362 
L 35.693178 136.097491 
L 35.693178 137.901363 
L 35.693178 139.705235 
L 35.693178 141.509107 
L 35.693178 143.312979 
L 35.693178 145.116851 
L 35.693178 146.920723 
L 35.693178 148.724594 
L 35.693178 150.528466 
L 35.693178 152.332338 
L 35.693178 154.13621 
L 35.693178 155.940082 
L 35.693178 157.743954 
L 35.693178 159.547826 
L 35.693178 161.351697 
L 35.693178 163.155569 
L 35.693178 164.959441 
L 35.693178 166.763313 
L 35.693178 168.567185 
L 35.693178 170.371057 
L 35.693178 172.174929 
L 35.693178 173.9788 
L 35.693178 175.782672 
L 35.693178 177.586544 
L 35.693178 179.390416 
L 35.693178 181.194288 
L 35.693178 182.99816 
L 35.693178 184.802032 
L 35.693178 186.605903 
L 35.693178 188.409775 
L 35.693178 190.213647 
L 35.693178 192.017519 
L 35.693178 193.821391 
L 35.693178 195.625263 
L 35.693178 197.429135 
L 35.693178 199.233006 
L 35.693178 201.036878 
L 35.693178 202.84075 
L 35.693178 204.644622 
L 35.693178 206.448494 
L 35.693178 208.252366 
L 35.693178 210.056238 
L 35.693178 211.860109 
L 35.693178 213.663981 
L 35.693178 215.467853 
L 35.693178 217.271725 
L 35.693178 219.075597 
L 35.693178 220.879469 
L 35.693178 222.683341 
L 35.693178 224.487213 
z
M 61.683383 219.075597 
L 60.856421 218.9636 
L 58.568853 218.530367 
L 56.281286 217.875358 
L 54.760853 217.271725 
L 53.993718 216.992361 
L 51.70615 215.895378 
L 50.986084 215.467853 
L 49.418583 214.36942 
L 48.540594 213.663981 
L 47.131015 211.95985 
L 47.045744 211.860109 
L 46.087669 210.056238 
L 45.802815 208.252366 
L 46.077386 206.448494 
L 46.975246 204.644622 
L 47.131015 204.445074 
L 48.309493 202.84075 
L 49.418583 201.807596 
L 50.308054 201.036878 
L 51.70615 199.984264 
L 52.898063 199.233006 
L 53.993718 198.505617 
L 56.059665 197.429135 
L 56.281286 197.287963 
L 58.568853 196.06204 
L 59.675998 195.625263 
L 60.856421 194.977104 
L 63.143988 194.04146 
L 63.883672 193.821391 
L 65.431556 193.154632 
L 67.719123 192.475851 
L 70.006691 192.042827 
L 70.234406 192.017519 
L 72.294259 191.694823 
L 74.581826 191.527873 
L 76.869394 191.492241 
L 79.156961 191.534439 
L 81.444529 191.60703 
L 83.732096 191.671016 
L 86.019664 191.699475 
L 88.307231 191.679645 
L 90.594799 191.611786 
L 92.882367 191.505302 
L 95.169934 191.374041 
L 97.457502 191.232588 
L 99.745069 191.09429 
L 102.032637 190.970797 
L 104.320204 190.872488 
L 106.607772 190.809214 
L 108.895339 190.790977 
L 111.182907 190.828379 
L 113.470475 190.932785 
L 115.758042 191.116264 
L 118.04561 191.391419 
L 120.333177 191.771243 
L 121.488467 192.017519 
L 122.620745 192.233368 
L 124.908312 192.778134 
L 127.19588 193.457062 
L 128.23346 193.821391 
L 129.483447 194.184989 
L 131.771015 194.977 
L 133.346328 195.625263 
L 134.058583 195.846458 
L 136.34615 196.672627 
L 138.086612 197.429135 
L 138.633718 197.60431 
L 140.921285 198.446557 
L 142.685352 199.233006 
L 143.208853 199.417092 
L 145.49642 200.33201 
L 146.980868 201.036878 
L 147.783988 201.384308 
L 150.071556 202.515612 
L 150.663184 202.84075 
L 152.359123 203.891255 
L 153.461787 204.644622 
L 154.646691 205.907318 
L 155.1469 206.448494 
L 155.614482 208.252366 
L 154.679419 210.056238 
L 154.646691 210.08162 
L 152.359123 211.76748 
L 152.224445 211.860109 
L 150.071556 212.831209 
L 147.836259 213.663981 
L 147.783988 213.680831 
L 145.49642 214.37519 
L 143.208853 214.947498 
L 140.921285 215.421462 
L 140.676778 215.467853 
L 138.633718 215.887898 
L 136.34615 216.285405 
L 134.058583 216.618525 
L 131.771015 216.898594 
L 129.483447 217.134719 
L 127.948028 217.271725 
L 127.19588 217.360406 
L 124.908312 217.599929 
L 122.620745 217.802797 
L 120.333177 217.974592 
L 118.04561 218.119886 
L 115.758042 218.242448 
L 113.470475 218.345421 
L 111.182907 218.431483 
L 108.895339 218.502994 
L 106.607772 218.562156 
L 104.320204 218.611195 
L 102.032637 218.652561 
L 99.745069 218.689165 
L 97.457502 218.724581 
L 95.169934 218.763145 
L 92.882367 218.809763 
L 90.594799 218.869249 
L 88.307231 218.945102 
L 86.019664 219.037986 
L 85.238787 219.075597 
L 83.732096 219.188737 
L 81.444529 219.37417 
L 79.156961 219.554091 
L 76.869394 219.711353 
L 74.581826 219.83034 
L 72.294259 219.897647 
L 70.006691 219.900922 
L 67.719123 219.826346 
L 65.431556 219.655127 
L 63.143988 219.358747 
z
" style="fill:none;"/>
   </g>
   <g id="PathCollection_2">
    <path clip-path="url(#p9ee3a757df)" d="M 63.143988 219.358747 
L 65.431556 219.655127 
L 67.719123 219.826346 
L 70.006691 219.900922 
L 72.294259 219.897647 
L 74.581826 219.83034 
L 76.869394 219.711353 
L 79.156961 219.554091 
L 81.444529 219.37417 
L 83.732096 219.188737 
L 85.238787 219.075597 
L 86.019664 219.037986 
L 88.307231 218.945102 
L 90.594799 218.869249 
L 92.882367 218.809763 
L 95.169934 218.763145 
L 97.457502 218.724581 
L 99.745069 218.689165 
L 102.032637 218.652561 
L 104.320204 218.611195 
L 106.607772 218.562156 
L 108.895339 218.502994 
L 111.182907 218.431483 
L 113.470475 218.345421 
L 115.758042 218.242448 
L 118.04561 218.119886 
L 120.333177 217.974592 
L 122.620745 217.802797 
L 124.908312 217.599929 
L 127.19588 217.360406 
L 127.948028 217.271725 
L 129.483447 217.134719 
L 131.771015 216.898594 
L 134.058583 216.618525 
L 136.34615 216.285405 
L 138.633718 215.887898 
L 140.676778 215.467853 
L 140.921285 215.421462 
L 143.208853 214.947498 
L 145.49642 214.37519 
L 147.783988 213.680831 
L 147.836259 213.663981 
L 150.071556 212.831209 
L 152.224445 211.860109 
L 152.359123 211.76748 
L 154.646691 210.08162 
L 154.679419 210.056238 
L 155.614482 208.252366 
L 155.1469 206.448494 
L 154.646691 205.907318 
L 153.461787 204.644622 
L 152.359123 203.891255 
L 150.663184 202.84075 
L 150.071556 202.515612 
L 147.783988 201.384308 
L 146.980868 201.036878 
L 145.49642 200.33201 
L 143.208853 199.417092 
L 142.685352 199.233006 
L 140.921285 198.446557 
L 138.633718 197.60431 
L 138.086612 197.429135 
L 136.34615 196.672627 
L 134.058583 195.846458 
L 133.346328 195.625263 
L 131.771015 194.977 
L 129.483447 194.184989 
L 128.23346 193.821391 
L 127.19588 193.457062 
L 124.908312 192.778134 
L 122.620745 192.233368 
L 121.488467 192.017519 
L 120.333177 191.771243 
L 118.04561 191.391419 
L 115.758042 191.116264 
L 113.470475 190.932785 
L 111.182907 190.828379 
L 108.895339 190.790977 
L 106.607772 190.809214 
L 104.320204 190.872488 
L 102.032637 190.970797 
L 99.745069 191.09429 
L 97.457502 191.232588 
L 95.169934 191.374041 
L 92.882367 191.505302 
L 90.594799 191.611786 
L 88.307231 191.679645 
L 86.019664 191.699475 
L 83.732096 191.671016 
L 81.444529 191.60703 
L 79.156961 191.534439 
L 76.869394 191.492241 
L 74.581826 191.527873 
L 72.294259 191.694823 
L 70.234406 192.017519 
L 70.006691 192.042827 
L 67.719123 192.475851 
L 65.431556 193.154632 
L 63.883672 193.821391 
L 63.143988 194.04146 
L 60.856421 194.977104 
L 59.675998 195.625263 
L 58.568853 196.06204 
L 56.281286 197.287963 
L 56.059665 197.429135 
L 53.993718 198.505617 
L 52.898063 199.233006 
L 51.70615 199.984264 
L 50.308054 201.036878 
L 49.418583 201.807596 
L 48.309493 202.84075 
L 47.131015 204.445074 
L 46.975246 204.644622 
L 46.077386 206.448494 
L 45.802815 208.252366 
L 46.087669 210.056238 
L 47.045744 211.860109 
L 47.131015 211.95985 
L 48.540594 213.663981 
L 49.418583 214.36942 
L 50.986084 215.467853 
L 51.70615 215.895378 
L 53.993718 216.992361 
L 54.760853 217.271725 
L 56.281286 217.875358 
L 58.568853 218.530367 
L 60.856421 218.9636 
L 61.683383 219.075597 
z
M 63.069003 217.271725 
L 60.856421 216.881444 
L 58.568853 216.270013 
L 56.530876 215.467853 
L 56.281286 215.366324 
L 53.993718 214.194931 
L 53.173605 213.663981 
L 51.70615 212.358131 
L 51.192165 211.860109 
L 50.097986 210.056238 
L 49.772552 208.252366 
L 50.085744 206.448494 
L 51.109969 204.644622 
L 51.70615 204.011236 
L 52.871932 202.84075 
L 53.993718 201.996865 
L 55.543358 201.036878 
L 56.281286 200.602397 
L 58.568853 199.535408 
L 59.442888 199.233006 
L 60.856421 198.645901 
L 63.143988 197.962668 
L 65.431556 197.511577 
L 66.068164 197.429135 
L 67.719123 197.109529 
L 70.006691 196.857919 
L 72.294259 196.760371 
L 74.581826 196.784316 
L 76.869394 196.902255 
L 79.156961 197.086997 
L 81.444529 197.309377 
L 82.672309 197.429135 
L 83.732096 197.499451 
L 86.019664 197.633971 
L 88.307231 197.743619 
L 90.594799 197.822799 
L 92.882367 197.873048 
L 95.169934 197.901066 
L 97.457502 197.916075 
L 99.745069 197.927714 
L 102.032637 197.944918 
L 104.320204 197.975615 
L 106.607772 198.026891 
L 108.895339 198.105312 
L 111.182907 198.217267 
L 113.470475 198.369268 
L 115.758042 198.568236 
L 118.04561 198.821804 
L 120.333177 199.138693 
L 120.910203 199.233006 
L 122.620745 199.438719 
L 124.908312 199.769675 
L 127.19588 200.171436 
L 129.483447 200.658089 
L 130.997103 201.036878 
L 131.771015 201.204314 
L 134.058583 201.772316 
L 136.34615 202.462551 
L 137.435779 202.84075 
L 138.633718 203.288803 
L 140.921285 204.28285 
L 141.661739 204.644622 
L 143.208853 205.77579 
L 144.056316 206.448494 
L 144.703995 208.252366 
L 143.509842 210.056238 
L 143.208853 210.234354 
L 140.921285 211.4854 
L 140.154612 211.860109 
L 138.633718 212.366672 
L 136.34615 213.027524 
L 134.058583 213.581655 
L 133.682047 213.663981 
L 131.771015 214.04578 
L 129.483447 214.436776 
L 127.19588 214.767205 
L 124.908312 215.046893 
L 122.620745 215.283821 
L 120.532029 215.467853 
L 120.333177 215.48793 
L 118.04561 215.692738 
L 115.758042 215.865502 
L 113.470475 216.010654 
L 111.182907 216.131963 
L 108.895339 216.232758 
L 106.607772 216.316143 
L 104.320204 216.385253 
L 102.032637 216.443546 
L 99.745069 216.495124 
L 97.457502 216.545027 
L 95.169934 216.59937 
L 92.882367 216.665073 
L 90.594799 216.748928 
L 88.307231 216.855872 
L 86.019664 216.986848 
L 83.732096 217.137208 
L 81.820534 217.271725 
L 81.444529 217.307179 
L 79.156961 217.52661 
L 76.869394 217.718415 
L 74.581826 217.863536 
L 72.294259 217.945621 
L 70.006691 217.949594 
L 67.719123 217.858594 
L 65.431556 217.649692 
L 63.143988 217.288092 
z
" style="fill:#fed9c9;"/>
   </g>
   <g id="PathCollection_3">
    <path clip-path="url(#p9ee3a757df)" d="M 63.143988 217.288092 
L 65.431556 217.649692 
L 67.719123 217.858594 
L 70.006691 217.949594 
L 72.294259 217.945621 
L 74.581826 217.863536 
L 76.869394 217.718415 
L 79.156961 217.52661 
L 81.444529 217.307179 
L 81.820534 217.271725 
L 83.732096 217.137208 
L 86.019664 216.986848 
L 88.307231 216.855872 
L 90.594799 216.748928 
L 92.882367 216.665073 
L 95.169934 216.59937 
L 97.457502 216.545027 
L 99.745069 216.495124 
L 102.032637 216.443546 
L 104.320204 216.385253 
L 106.607772 216.316143 
L 108.895339 216.232758 
L 111.182907 216.131963 
L 113.470475 216.010654 
L 115.758042 215.865502 
L 118.04561 215.692738 
L 120.333177 215.48793 
L 120.532029 215.467853 
L 122.620745 215.283821 
L 124.908312 215.046893 
L 127.19588 214.767205 
L 129.483447 214.436776 
L 131.771015 214.04578 
L 133.682047 213.663981 
L 134.058583 213.581655 
L 136.34615 213.027524 
L 138.633718 212.366672 
L 140.154612 211.860109 
L 140.921285 211.4854 
L 143.208853 210.234354 
L 143.509842 210.056238 
L 144.703995 208.252366 
L 144.056316 206.448494 
L 143.208853 205.77579 
L 141.661739 204.644622 
L 140.921285 204.28285 
L 138.633718 203.288803 
L 137.435779 202.84075 
L 136.34615 202.462551 
L 134.058583 201.772316 
L 131.771015 201.204314 
L 130.997103 201.036878 
L 129.483447 200.658089 
L 127.19588 200.171436 
L 124.908312 199.769675 
L 122.620745 199.438719 
L 120.910203 199.233006 
L 120.333177 199.138693 
L 118.04561 198.821804 
L 115.758042 198.568236 
L 113.470475 198.369268 
L 111.182907 198.217267 
L 108.895339 198.105312 
L 106.607772 198.026891 
L 104.320204 197.975615 
L 102.032637 197.944918 
L 99.745069 197.927714 
L 97.457502 197.916075 
L 95.169934 197.901066 
L 92.882367 197.873048 
L 90.594799 197.822799 
L 88.307231 197.743619 
L 86.019664 197.633971 
L 83.732096 197.499451 
L 82.672309 197.429135 
L 81.444529 197.309377 
L 79.156961 197.086997 
L 76.869394 196.902255 
L 74.581826 196.784316 
L 72.294259 196.760371 
L 70.006691 196.857919 
L 67.719123 197.109529 
L 66.068164 197.429135 
L 65.431556 197.511577 
L 63.143988 197.962668 
L 60.856421 198.645901 
L 59.442888 199.233006 
L 58.568853 199.535408 
L 56.281286 200.602397 
L 55.543358 201.036878 
L 53.993718 201.996865 
L 52.871932 202.84075 
L 51.70615 204.011236 
L 51.109969 204.644622 
L 50.085744 206.448494 
L 49.772552 208.252366 
L 50.097986 210.056238 
L 51.192165 211.860109 
L 51.70615 212.358131 
L 53.173605 213.663981 
L 53.993718 214.194931 
L 56.281286 215.366324 
L 56.530876 215.467853 
L 58.568853 216.270013 
L 60.856421 216.881444 
L 63.069003 217.271725 
z
M 61.442614 215.467853 
L 60.856421 215.326238 
L 58.568853 214.564655 
L 56.6995 213.663981 
L 56.281286 213.410309 
L 54.225494 211.860109 
L 53.993718 211.55414 
L 52.900894 210.056238 
L 52.497421 208.252366 
L 52.88508 206.448494 
L 53.993718 204.842302 
L 54.133915 204.644622 
L 56.281286 202.865452 
L 56.317238 202.84075 
L 58.568853 201.574699 
L 59.904965 201.036878 
L 60.856421 200.640005 
L 63.143988 199.934364 
L 65.431556 199.475356 
L 67.395847 199.233006 
L 67.719123 199.179163 
L 70.006691 198.973281 
L 72.294259 198.921429 
L 74.581826 198.994265 
L 76.869394 199.16672 
L 77.512799 199.233006 
L 79.156961 199.358824 
L 81.444529 199.562145 
L 83.732096 199.774324 
L 86.019664 199.974137 
L 88.307231 200.145615 
L 90.594799 200.281141 
L 92.882367 200.381798 
L 95.169934 200.455134 
L 97.457502 200.511929 
L 99.745069 200.563521 
L 102.032637 200.620304 
L 104.320204 200.691272 
L 106.607772 200.784184 
L 108.895339 200.905969 
L 110.810022 201.036878 
L 111.182907 201.057915 
L 113.470475 201.2171 
L 115.758042 201.415236 
L 118.04561 201.658583 
L 120.333177 201.954466 
L 122.620745 202.311735 
L 124.908312 202.741306 
L 125.374889 202.84075 
L 127.19588 203.244324 
L 129.483447 203.843935 
L 131.771015 204.563903 
L 132.002397 204.644622 
L 134.058583 205.682417 
L 135.382274 206.448494 
L 136.286419 208.252366 
L 134.749107 210.056238 
L 134.058583 210.365781 
L 131.771015 211.28733 
L 130.122523 211.860109 
L 129.483447 212.015619 
L 127.19588 212.513563 
L 124.908312 212.935179 
L 122.620745 213.292442 
L 120.333177 213.595118 
L 119.738384 213.663981 
L 118.04561 213.849995 
L 115.758042 214.064638 
L 113.470475 214.244977 
L 111.182907 214.395694 
L 108.895339 214.520919 
L 106.607772 214.624509 
L 104.320204 214.710359 
L 102.032637 214.782766 
L 99.745069 214.846827 
L 97.457502 214.908811 
L 95.169934 214.976321 
L 92.882367 215.057968 
L 90.594799 215.162203 
L 88.307231 215.295179 
L 86.019664 215.458082 
L 85.905728 215.467853 
L 83.732096 215.681523 
L 81.444529 215.92072 
L 79.156961 216.152842 
L 76.869394 216.355755 
L 74.581826 216.509287 
L 72.294259 216.596122 
L 70.006691 216.600296 
L 67.719123 216.503956 
L 65.431556 216.282825 
L 63.143988 215.900069 
z
" style="fill:#fcbba1;"/>
   </g>
   <g id="PathCollection_4">
    <path clip-path="url(#p9ee3a757df)" d="M 63.143988 215.900069 
L 65.431556 216.282825 
L 67.719123 216.503956 
L 70.006691 216.600296 
L 72.294259 216.596122 
L 74.581826 216.509287 
L 76.869394 216.355755 
L 79.156961 216.152842 
L 81.444529 215.92072 
L 83.732096 215.681523 
L 85.905728 215.467853 
L 86.019664 215.458082 
L 88.307231 215.295179 
L 90.594799 215.162203 
L 92.882367 215.057968 
L 95.169934 214.976321 
L 97.457502 214.908811 
L 99.745069 214.846827 
L 102.032637 214.782766 
L 104.320204 214.710359 
L 106.607772 214.624509 
L 108.895339 214.520919 
L 111.182907 214.395694 
L 113.470475 214.244977 
L 115.758042 214.064638 
L 118.04561 213.849995 
L 119.738384 213.663981 
L 120.333177 213.595118 
L 122.620745 213.292442 
L 124.908312 212.935179 
L 127.19588 212.513563 
L 129.483447 212.015619 
L 130.122523 211.860109 
L 131.771015 211.28733 
L 134.058583 210.365781 
L 134.749107 210.056238 
L 136.286419 208.252366 
L 135.382274 206.448494 
L 134.058583 205.682417 
L 132.002397 204.644622 
L 131.771015 204.563903 
L 129.483447 203.843935 
L 127.19588 203.244324 
L 125.374889 202.84075 
L 124.908312 202.741306 
L 122.620745 202.311735 
L 120.333177 201.954466 
L 118.04561 201.658583 
L 115.758042 201.415236 
L 113.470475 201.2171 
L 111.182907 201.057915 
L 110.810022 201.036878 
L 108.895339 200.905969 
L 106.607772 200.784184 
L 104.320204 200.691272 
L 102.032637 200.620304 
L 99.745069 200.563521 
L 97.457502 200.511929 
L 95.169934 200.455134 
L 92.882367 200.381798 
L 90.594799 200.281141 
L 88.307231 200.145615 
L 86.019664 199.974137 
L 83.732096 199.774324 
L 81.444529 199.562145 
L 79.156961 199.358824 
L 77.512799 199.233006 
L 76.869394 199.16672 
L 74.581826 198.994265 
L 72.294259 198.921429 
L 70.006691 198.973281 
L 67.719123 199.179163 
L 67.395847 199.233006 
L 65.431556 199.475356 
L 63.143988 199.934364 
L 60.856421 200.640005 
L 59.904965 201.036878 
L 58.568853 201.574699 
L 56.317238 202.84075 
L 56.281286 202.865452 
L 54.133915 204.644622 
L 53.993718 204.842302 
L 52.88508 206.448494 
L 52.497421 208.252366 
L 52.900894 210.056238 
L 53.993718 211.55414 
L 54.225494 211.860109 
L 56.281286 213.410309 
L 56.6995 213.663981 
L 58.568853 214.564655 
L 60.856421 215.326238 
L 61.442614 215.467853 
z
M 59.981875 213.663981 
L 58.568853 212.987703 
L 56.813387 211.860109 
L 56.281286 211.287257 
L 55.253234 210.056238 
L 54.779308 208.252366 
L 55.233824 206.448494 
L 56.281286 205.121408 
L 56.69525 204.644622 
L 58.568853 203.320064 
L 59.449912 202.84075 
L 60.856421 202.187271 
L 63.143988 201.431158 
L 64.957775 201.036878 
L 65.431556 200.921177 
L 67.719123 200.559904 
L 70.006691 200.38335 
L 72.294259 200.354323 
L 74.581826 200.446012 
L 76.869394 200.635313 
L 79.156961 200.897928 
L 80.226898 201.036878 
L 81.444529 201.173141 
L 83.732096 201.432477 
L 86.019664 201.678325 
L 88.307231 201.892175 
L 90.594799 202.06503 
L 92.882367 202.197881 
L 95.169934 202.299171 
L 97.457502 202.381076 
L 99.745069 202.45638 
L 102.032637 202.536714 
L 104.320204 202.632009 
L 106.607772 202.750678 
L 108.00124 202.84075 
L 108.895339 202.898556 
L 111.182907 203.080634 
L 113.470475 203.305916 
L 115.758042 203.581592 
L 118.04561 203.915817 
L 120.333177 204.318213 
L 121.909397 204.644622 
L 122.620745 204.850037 
L 124.908312 205.610206 
L 127.03017 206.448494 
L 127.19588 206.661987 
L 128.336489 208.252366 
L 127.19588 209.273865 
L 126.239793 210.056238 
L 124.908312 210.476768 
L 122.620745 211.106336 
L 120.333177 211.640201 
L 119.246257 211.860109 
L 118.04561 212.035208 
L 115.758042 212.322935 
L 113.470475 212.564708 
L 111.182907 212.766786 
L 108.895339 212.934695 
L 106.607772 213.073598 
L 104.320204 213.188713 
L 102.032637 213.285802 
L 99.745069 213.371705 
L 97.457502 213.45484 
L 95.169934 213.545425 
L 92.882367 213.65504 
L 92.739637 213.663981 
L 90.594799 213.793939 
L 88.307231 213.971065 
L 86.019664 214.188078 
L 83.732096 214.437293 
L 81.444529 214.70178 
L 79.156961 214.958504 
L 76.869394 215.18297 
L 74.581826 215.352834 
L 72.294259 215.448909 
L 70.006691 215.4535 
L 67.719123 215.346826 
L 65.431556 215.101995 
L 63.143988 214.678218 
L 60.856421 214.010846 
z
" style="fill:#fc9b7c;"/>
   </g>
   <g id="PathCollection_5">
    <path clip-path="url(#p9ee3a757df)" d="M 60.856421 214.010846 
L 63.143988 214.678218 
L 65.431556 215.101995 
L 67.719123 215.346826 
L 70.006691 215.4535 
L 72.294259 215.448909 
L 74.581826 215.352834 
L 76.869394 215.18297 
L 79.156961 214.958504 
L 81.444529 214.70178 
L 83.732096 214.437293 
L 86.019664 214.188078 
L 88.307231 213.971065 
L 90.594799 213.793939 
L 92.739637 213.663981 
L 92.882367 213.65504 
L 95.169934 213.545425 
L 97.457502 213.45484 
L 99.745069 213.371705 
L 102.032637 213.285802 
L 104.320204 213.188713 
L 106.607772 213.073598 
L 108.895339 212.934695 
L 111.182907 212.766786 
L 113.470475 212.564708 
L 115.758042 212.322935 
L 118.04561 212.035208 
L 119.246257 211.860109 
L 120.333177 211.640201 
L 122.620745 211.106336 
L 124.908312 210.476768 
L 126.239793 210.056238 
L 127.19588 209.273865 
L 128.336489 208.252366 
L 127.19588 206.661987 
L 127.03017 206.448494 
L 124.908312 205.610206 
L 122.620745 204.850037 
L 121.909397 204.644622 
L 120.333177 204.318213 
L 118.04561 203.915817 
L 115.758042 203.581592 
L 113.470475 203.305916 
L 111.182907 203.080634 
L 108.895339 202.898556 
L 108.00124 202.84075 
L 106.607772 202.750678 
L 104.320204 202.632009 
L 102.032637 202.536714 
L 99.745069 202.45638 
L 97.457502 202.381076 
L 95.169934 202.299171 
L 92.882367 202.197881 
L 90.594799 202.06503 
L 88.307231 201.892175 
L 86.019664 201.678325 
L 83.732096 201.432477 
L 81.444529 201.173141 
L 80.226898 201.036878 
L 79.156961 200.897928 
L 76.869394 200.635313 
L 74.581826 200.446012 
L 72.294259 200.354323 
L 70.006691 200.38335 
L 67.719123 200.559904 
L 65.431556 200.921177 
L 64.957775 201.036878 
L 63.143988 201.431158 
L 60.856421 202.187271 
L 59.449912 202.84075 
L 58.568853 203.320064 
L 56.69525 204.644622 
L 56.281286 205.121408 
L 55.233824 206.448494 
L 54.779308 208.252366 
L 55.253234 210.056238 
L 56.281286 211.287257 
L 56.813387 211.860109 
L 58.568853 212.987703 
L 59.981875 213.663981 
z
M 63.682925 213.663981 
L 63.143988 213.528176 
L 60.856421 212.684395 
L 59.297528 211.860109 
L 58.568853 211.24116 
L 57.407101 210.056238 
L 56.848037 208.252366 
L 57.383037 206.448494 
L 58.568853 205.167068 
L 59.142447 204.644622 
L 60.856421 203.644749 
L 62.809354 202.84075 
L 63.143988 202.71814 
L 65.431556 202.113681 
L 67.719123 201.755244 
L 70.006691 201.585788 
L 72.294259 201.567951 
L 74.581826 201.674796 
L 76.869394 201.882941 
L 79.156961 202.167506 
L 81.444529 202.499404 
L 83.699043 202.84075 
L 83.732096 202.845973 
L 86.019664 203.168839 
L 88.307231 203.451311 
L 90.594799 203.68184 
L 92.882367 203.861555 
L 95.169934 204.001049 
L 97.457502 204.11564 
L 99.745069 204.221384 
L 102.032637 204.332819 
L 104.320204 204.462261 
L 106.607772 204.620038 
L 106.902697 204.644622 
L 108.895339 204.869172 
L 111.182907 205.18631 
L 113.470475 205.57473 
L 115.758042 206.046384 
L 117.397006 206.448494 
L 118.04561 206.944439 
L 119.538889 208.252366 
L 118.04561 209.140281 
L 116.272161 210.056238 
L 115.758042 210.159879 
L 113.470475 210.559765 
L 111.182907 210.894156 
L 108.895339 211.172126 
L 106.607772 211.402171 
L 104.320204 211.592896 
L 102.032637 211.753826 
L 100.332063 211.860109 
L 99.745069 211.88729 
L 97.457502 211.990862 
L 95.169934 212.103723 
L 92.882367 212.240338 
L 90.594799 212.414923 
L 88.307231 212.637853 
L 86.019664 212.911186 
L 83.732096 213.225295 
L 81.444529 213.55887 
L 80.730855 213.663981 
L 79.156961 213.880653 
L 76.869394 214.161099 
L 74.581826 214.373311 
L 72.294259 214.493305 
L 70.006691 214.498962 
L 67.719123 214.365553 
L 65.431556 214.059462 
z
" style="fill:#fb7a5a;"/>
   </g>
   <g id="PathCollection_6">
    <path clip-path="url(#p9ee3a757df)" d="M 65.431556 214.059462 
L 67.719123 214.365553 
L 70.006691 214.498962 
L 72.294259 214.493305 
L 74.581826 214.373311 
L 76.869394 214.161099 
L 79.156961 213.880653 
L 80.730855 213.663981 
L 81.444529 213.55887 
L 83.732096 213.225295 
L 86.019664 212.911186 
L 88.307231 212.637853 
L 90.594799 212.414923 
L 92.882367 212.240338 
L 95.169934 212.103723 
L 97.457502 211.990862 
L 99.745069 211.88729 
L 100.332063 211.860109 
L 102.032637 211.753826 
L 104.320204 211.592896 
L 106.607772 211.402171 
L 108.895339 211.172126 
L 111.182907 210.894156 
L 113.470475 210.559765 
L 115.758042 210.159879 
L 116.272161 210.056238 
L 118.04561 209.140281 
L 119.538889 208.252366 
L 118.04561 206.944439 
L 117.397006 206.448494 
L 115.758042 206.046384 
L 113.470475 205.57473 
L 111.182907 205.18631 
L 108.895339 204.869172 
L 106.902697 204.644622 
L 106.607772 204.620038 
L 104.320204 204.462261 
L 102.032637 204.332819 
L 99.745069 204.221384 
L 97.457502 204.11564 
L 95.169934 204.001049 
L 92.882367 203.861555 
L 90.594799 203.68184 
L 88.307231 203.451311 
L 86.019664 203.168839 
L 83.732096 202.845973 
L 83.699043 202.84075 
L 81.444529 202.499404 
L 79.156961 202.167506 
L 76.869394 201.882941 
L 74.581826 201.674796 
L 72.294259 201.567951 
L 70.006691 201.585788 
L 67.719123 201.755244 
L 65.431556 202.113681 
L 63.143988 202.71814 
L 62.809354 202.84075 
L 60.856421 203.644749 
L 59.142447 204.644622 
L 58.568853 205.167068 
L 57.383037 206.448494 
L 56.848037 208.252366 
L 57.407101 210.056238 
L 58.568853 211.24116 
L 59.297528 211.860109 
L 60.856421 212.684395 
L 63.143988 213.528176 
L 63.682925 213.663981 
z
M 61.922275 211.860109 
L 60.856421 211.178737 
L 59.519413 210.056238 
L 58.835901 208.252366 
L 59.488221 206.448494 
L 60.856421 205.229207 
L 61.706262 204.644622 
L 63.143988 203.984642 
L 65.431556 203.276289 
L 67.719123 202.859319 
L 67.934776 202.84075 
L 70.006691 202.663486 
L 72.294259 202.651096 
L 74.581826 202.790406 
L 75.036866 202.84075 
L 76.869394 203.049396 
L 79.156961 203.399133 
L 81.444529 203.805759 
L 83.732096 204.230195 
L 86.019664 204.63451 
L 86.087932 204.644622 
L 88.307231 205.09804 
L 90.594799 205.481519 
L 92.882367 205.783237 
L 95.169934 206.020012 
L 97.457502 206.216373 
L 99.745069 206.398081 
L 100.359272 206.448494 
L 102.032637 206.853068 
L 104.320204 207.489808 
L 106.578134 208.252366 
L 104.320204 208.809482 
L 102.032637 209.287452 
L 99.745069 209.712387 
L 97.847803 210.056238 
L 97.457502 210.083932 
L 95.169934 210.26301 
L 92.882367 210.480212 
L 90.594799 210.758388 
L 88.307231 211.11435 
L 86.019664 211.551684 
L 84.645315 211.860109 
L 83.732096 212.005918 
L 81.444529 212.405735 
L 79.156961 212.794059 
L 76.869394 213.133758 
L 74.581826 213.390907 
L 72.294259 213.536328 
L 70.006691 213.543104 
L 67.719123 213.381157 
L 65.431556 213.009635 
L 63.143988 212.366617 
z
" style="fill:#f6583e;"/>
   </g>
   <g id="PathCollection_7">
    <path clip-path="url(#p9ee3a757df)" d="M 63.143988 212.366617 
L 65.431556 213.009635 
L 67.719123 213.381157 
L 70.006691 213.543104 
L 72.294259 213.536328 
L 74.581826 213.390907 
L 76.869394 213.133758 
L 79.156961 212.794059 
L 81.444529 212.405735 
L 83.732096 212.005918 
L 84.645315 211.860109 
L 86.019664 211.551684 
L 88.307231 211.11435 
L 90.594799 210.758388 
L 92.882367 210.480212 
L 95.169934 210.26301 
L 97.457502 210.083932 
L 97.847803 210.056238 
L 99.745069 209.712387 
L 102.032637 209.287452 
L 104.320204 208.809482 
L 106.578134 208.252366 
L 104.320204 207.489808 
L 102.032637 206.853068 
L 100.359272 206.448494 
L 99.745069 206.398081 
L 97.457502 206.216373 
L 95.169934 206.020012 
L 92.882367 205.783237 
L 90.594799 205.481519 
L 88.307231 205.09804 
L 86.087932 204.644622 
L 86.019664 204.63451 
L 83.732096 204.230195 
L 81.444529 203.805759 
L 79.156961 203.399133 
L 76.869394 203.049396 
L 75.036866 202.84075 
L 74.581826 202.790406 
L 72.294259 202.651096 
L 70.006691 202.663486 
L 67.934776 202.84075 
L 67.719123 202.859319 
L 65.431556 203.276289 
L 63.143988 203.984642 
L 61.706262 204.644622 
L 60.856421 205.229207 
L 59.488221 206.448494 
L 58.835901 208.252366 
L 59.519413 210.056238 
L 60.856421 211.178737 
L 61.922275 211.860109 
z
M 65.11571 211.860109 
L 63.143988 210.978421 
L 61.743018 210.056238 
L 60.856421 208.256731 
L 60.854593 208.252366 
L 60.856421 208.247795 
L 61.699382 206.448494 
L 63.143988 205.436519 
L 64.780551 204.644622 
L 65.431556 204.426008 
L 67.719123 203.943959 
L 70.006691 203.724859 
L 72.294259 203.717788 
L 74.581826 203.886028 
L 76.869394 204.197476 
L 79.156961 204.617517 
L 79.29206 204.644622 
L 81.444529 205.249237 
L 83.732096 205.918156 
L 85.649896 206.448494 
L 86.019664 206.750346 
L 88.198934 208.252366 
L 86.019664 209.491853 
L 85.192081 210.056238 
L 83.732096 210.423206 
L 81.444529 211.046215 
L 79.156961 211.652469 
L 78.291138 211.860109 
L 76.869394 212.101234 
L 74.581826 212.400936 
L 72.294259 212.570338 
L 70.006691 212.578033 
L 67.719123 212.388925 
L 65.431556 211.95535 
z
" style="fill:#e83429;"/>
   </g>
   <g id="PathCollection_8">
    <path clip-path="url(#p9ee3a757df)" d="M 65.431556 211.95535 
L 67.719123 212.388925 
L 70.006691 212.578033 
L 72.294259 212.570338 
L 74.581826 212.400936 
L 76.869394 212.101234 
L 78.291138 211.860109 
L 79.156961 211.652469 
L 81.444529 211.046215 
L 83.732096 210.423206 
L 85.192081 210.056238 
L 86.019664 209.491853 
L 88.198934 208.252366 
L 86.019664 206.750346 
L 85.649896 206.448494 
L 83.732096 205.918156 
L 81.444529 205.249237 
L 79.29206 204.644622 
L 79.156961 204.617517 
L 76.869394 204.197476 
L 74.581826 203.886028 
L 72.294259 203.717788 
L 70.006691 203.724859 
L 67.719123 203.943959 
L 65.431556 204.426008 
L 64.780551 204.644622 
L 63.143988 205.436519 
L 61.699382 206.448494 
L 60.856421 208.247795 
L 60.854593 208.252366 
L 60.856421 208.256731 
L 61.743018 210.056238 
L 63.143988 210.978421 
L 65.11571 211.860109 
z
M 64.359353 210.056238 
L 63.143988 208.332356 
L 63.101227 208.252366 
L 63.143988 208.168259 
L 64.290282 206.448494 
L 65.431556 205.864763 
L 67.719123 205.147856 
L 70.006691 204.826032 
L 72.294259 204.823405 
L 74.581826 205.085353 
L 76.869394 205.564078 
L 79.156961 206.207818 
L 79.926524 206.448494 
L 81.444529 207.84129 
L 81.902893 208.252366 
L 81.444529 208.606179 
L 79.628572 210.056238 
L 79.156961 210.192434 
L 76.869394 210.797967 
L 74.581826 211.256862 
L 72.294259 211.516378 
L 70.006691 211.527783 
L 67.719123 211.236722 
L 65.431556 210.569581 
z
" style="fill:#ca181d;"/>
   </g>
   <g id="PathCollection_9">
    <path clip-path="url(#p9ee3a757df)" d="M 65.431556 210.569581 
L 67.719123 211.236722 
L 70.006691 211.527783 
L 72.294259 211.516378 
L 74.581826 211.256862 
L 76.869394 210.797967 
L 79.156961 210.192434 
L 79.628572 210.056238 
L 81.444529 208.606179 
L 81.902893 208.252366 
L 81.444529 207.84129 
L 79.926524 206.448494 
L 79.156961 206.207818 
L 76.869394 205.564078 
L 74.581826 205.085353 
L 72.294259 204.823405 
L 70.006691 204.826032 
L 67.719123 205.147856 
L 65.431556 205.864763 
L 64.290282 206.448494 
L 63.143988 208.168259 
L 63.101227 208.252366 
L 63.143988 208.332356 
L 64.359353 210.056238 
z
M 68.778542 210.056238 
L 67.719123 209.643013 
L 66.111271 208.252366 
L 67.719123 206.772103 
L 68.482615 206.448494 
L 70.006691 206.213059 
L 72.294259 206.217317 
L 74.048442 206.448494 
L 74.581826 206.644234 
L 76.869394 208.137397 
L 77.007722 208.252366 
L 76.869394 208.355203 
L 74.581826 209.713945 
L 73.580816 210.056238 
L 72.294259 210.218135 
L 70.006691 210.230106 
z
" style="fill:#ac1117;"/>
   </g>
   <g id="PathCollection_10">
    <path clip-path="url(#p9ee3a757df)" d="M 70.006691 210.230106 
L 72.294259 210.218135 
L 73.580816 210.056238 
L 74.581826 209.713945 
L 76.869394 208.355203 
L 77.007722 208.252366 
L 76.869394 208.137397 
L 74.581826 206.644234 
L 74.048442 206.448494 
L 72.294259 206.217317 
L 70.006691 206.213059 
L 68.482615 206.448494 
L 67.719123 206.772103 
L 66.111271 208.252366 
L 67.719123 209.643013 
L 68.778542 210.056238 
z
" style="fill:#7e0610;"/>
   </g>
   <g id="matplotlib.axis_1">
    <g id="xtick_1">
     <g id="line2d_1">
      <defs>
       <path d="M 0 0 
L 0 3.5 
" id="mdadb39a215" style="stroke:#262626;stroke-width:0.8;"/>
      </defs>
      <g>
       <use style="fill:#262626;stroke:#262626;stroke-width:0.8;" x="67.334837" xlink:href="#mdadb39a215" y="223"/>
      </g>
     </g>
     <g id="line2d_2">
      <defs>
       <path d="M 0 0 
L 0 -3.5 
" id="md3437b19e0" style="stroke:#262626;stroke-width:0.8;"/>
      </defs>
      <g>
       <use style="fill:#262626;stroke:#262626;stroke-width:0.8;" x="67.334837" xlink:href="#md3437b19e0" y="25.44"/>
      </g>
     </g>
     <g id="text_1">
      <!-- 0.0 -->
      <defs>
       <path d="M 31.78125 66.40625 
Q 24.171875 66.40625 20.328125 58.90625 
Q 16.5 51.421875 16.5 36.375 
Q 16.5 21.390625 20.328125 13.890625 
Q 24.171875 6.390625 31.78125 6.390625 
Q 39.453125 6.390625 43.28125 13.890625 
Q 47.125 21.390625 47.125 36.375 
Q 47.125 51.421875 43.28125 58.90625 
Q 39.453125 66.40625 31.78125 66.40625 
z
M 31.78125 74.21875 
Q 44.046875 74.21875 50.515625 64.515625 
Q 56.984375 54.828125 56.984375 36.375 
Q 56.984375 17.96875 50.515625 8.265625 
Q 44.046875 -1.421875 31.78125 -1.421875 
Q 19.53125 -1.421875 13.0625 8.265625 
Q 6.59375 17.96875 6.59375 36.375 
Q 6.59375 54.828125 13.0625 64.515625 
Q 19.53125 74.21875 31.78125 74.21875 
z
" id="DejaVuSans-30"/>
       <path d="M 10.6875 12.40625 
L 21 12.40625 
L 21 0 
L 10.6875 0 
z
" id="DejaVuSans-2e"/>
      </defs>
      <g style="fill:#262626;" transform="translate(58.588118 238.358281)scale(0.11 -0.11)">
       <use xlink:href="#DejaVuSans-30"/>
       <use x="63.623047" xlink:href="#DejaVuSans-2e"/>
       <use x="95.410156" xlink:href="#DejaVuSans-30"/>
      </g>
     </g>
    </g>
    <g id="xtick_2">
     <g id="line2d_3">
      <g>
       <use style="fill:#262626;stroke:#262626;stroke-width:0.8;" x="137.649636" xlink:href="#mdadb39a215" y="223"/>
      </g>
     </g>
     <g id="line2d_4">
      <g>
       <use style="fill:#262626;stroke:#262626;stroke-width:0.8;" x="137.649636" xlink:href="#md3437b19e0" y="25.44"/>
      </g>
     </g>
     <g id="text_2">
      <!-- 1.0 -->
      <defs>
       <path d="M 12.40625 8.296875 
L 28.515625 8.296875 
L 28.515625 63.921875 
L 10.984375 60.40625 
L 10.984375 69.390625 
L 28.421875 72.90625 
L 38.28125 72.90625 
L 38.28125 8.296875 
L 54.390625 8.296875 
L 54.390625 0 
L 12.40625 0 
z
" id="DejaVuSans-31"/>
      </defs>
      <g style="fill:#262626;" transform="translate(128.902917 238.358281)scale(0.11 -0.11)">
       <use xlink:href="#DejaVuSans-31"/>
       <use x="63.623047" xlink:href="#DejaVuSans-2e"/>
       <use x="95.410156" xlink:href="#DejaVuSans-30"/>
      </g>
     </g>
    </g>
    <g id="xtick_3">
     <g id="line2d_5">
      <g>
       <use style="fill:#262626;stroke:#262626;stroke-width:0.8;" x="207.964434" xlink:href="#mdadb39a215" y="223"/>
      </g>
     </g>
     <g id="line2d_6">
      <g>
       <use style="fill:#262626;stroke:#262626;stroke-width:0.8;" x="207.964434" xlink:href="#md3437b19e0" y="25.44"/>
      </g>
     </g>
     <g id="text_3">
      <!-- 2.0 -->
      <defs>
       <path d="M 19.1875 8.296875 
L 53.609375 8.296875 
L 53.609375 0 
L 7.328125 0 
L 7.328125 8.296875 
Q 12.9375 14.109375 22.625 23.890625 
Q 32.328125 33.6875 34.8125 36.53125 
Q 39.546875 41.84375 41.421875 45.53125 
Q 43.3125 49.21875 43.3125 52.78125 
Q 43.3125 58.59375 39.234375 62.25 
Q 35.15625 65.921875 28.609375 65.921875 
Q 23.96875 65.921875 18.8125 64.3125 
Q 13.671875 62.703125 7.8125 59.421875 
L 7.8125 69.390625 
Q 13.765625 71.78125 18.9375 73 
Q 24.125 74.21875 28.421875 74.21875 
Q 39.75 74.21875 46.484375 68.546875 
Q 53.21875 62.890625 53.21875 53.421875 
Q 53.21875 48.921875 51.53125 44.890625 
Q 49.859375 40.875 45.40625 35.40625 
Q 44.1875 33.984375 37.640625 27.21875 
Q 31.109375 20.453125 19.1875 8.296875 
z
" id="DejaVuSans-32"/>
      </defs>
      <g style="fill:#262626;" transform="translate(199.217716 238.358281)scale(0.11 -0.11)">
       <use xlink:href="#DejaVuSans-32"/>
       <use x="63.623047" xlink:href="#DejaVuSans-2e"/>
       <use x="95.410156" xlink:href="#DejaVuSans-30"/>
      </g>
     </g>
    </g>
    <g id="text_4">
     <!-- log10 counts (Control) -->
     <defs>
      <path d="M 9.421875 75.984375 
L 18.40625 75.984375 
L 18.40625 0 
L 9.421875 0 
z
" id="DejaVuSans-6c"/>
      <path d="M 30.609375 48.390625 
Q 23.390625 48.390625 19.1875 42.75 
Q 14.984375 37.109375 14.984375 27.296875 
Q 14.984375 17.484375 19.15625 11.84375 
Q 23.34375 6.203125 30.609375 6.203125 
Q 37.796875 6.203125 41.984375 11.859375 
Q 46.1875 17.53125 46.1875 27.296875 
Q 46.1875 37.015625 41.984375 42.703125 
Q 37.796875 48.390625 30.609375 48.390625 
z
M 30.609375 56 
Q 42.328125 56 49.015625 48.375 
Q 55.71875 40.765625 55.71875 27.296875 
Q 55.71875 13.875 49.015625 6.21875 
Q 42.328125 -1.421875 30.609375 -1.421875 
Q 18.84375 -1.421875 12.171875 6.21875 
Q 5.515625 13.875 5.515625 27.296875 
Q 5.515625 40.765625 12.171875 48.375 
Q 18.84375 56 30.609375 56 
z
" id="DejaVuSans-6f"/>
      <path d="M 45.40625 27.984375 
Q 45.40625 37.75 41.375 43.109375 
Q 37.359375 48.484375 30.078125 48.484375 
Q 22.859375 48.484375 18.828125 43.109375 
Q 14.796875 37.75 14.796875 27.984375 
Q 14.796875 18.265625 18.828125 12.890625 
Q 22.859375 7.515625 30.078125 7.515625 
Q 37.359375 7.515625 41.375 12.890625 
Q 45.40625 18.265625 45.40625 27.984375 
z
M 54.390625 6.78125 
Q 54.390625 -7.171875 48.1875 -13.984375 
Q 42 -20.796875 29.203125 -20.796875 
Q 24.46875 -20.796875 20.265625 -20.09375 
Q 16.0625 -19.390625 12.109375 -17.921875 
L 12.109375 -9.1875 
Q 16.0625 -11.328125 19.921875 -12.34375 
Q 23.78125 -13.375 27.78125 -13.375 
Q 36.625 -13.375 41.015625 -8.765625 
Q 45.40625 -4.15625 45.40625 5.171875 
L 45.40625 9.625 
Q 42.625 4.78125 38.28125 2.390625 
Q 33.9375 0 27.875 0 
Q 17.828125 0 11.671875 7.65625 
Q 5.515625 15.328125 5.515625 27.984375 
Q 5.515625 40.671875 11.671875 48.328125 
Q 17.828125 56 27.875 56 
Q 33.9375 56 38.28125 53.609375 
Q 42.625 51.21875 45.40625 46.390625 
L 45.40625 54.6875 
L 54.390625 54.6875 
z
" id="DejaVuSans-67"/>
      <path id="DejaVuSans-20"/>
      <path d="M 48.78125 52.59375 
L 48.78125 44.1875 
Q 44.96875 46.296875 41.140625 47.34375 
Q 37.3125 48.390625 33.40625 48.390625 
Q 24.65625 48.390625 19.8125 42.84375 
Q 14.984375 37.3125 14.984375 27.296875 
Q 14.984375 17.28125 19.8125 11.734375 
Q 24.65625 6.203125 33.40625 6.203125 
Q 37.3125 6.203125 41.140625 7.25 
Q 44.96875 8.296875 48.78125 10.40625 
L 48.78125 2.09375 
Q 45.015625 0.34375 40.984375 -0.53125 
Q 36.96875 -1.421875 32.421875 -1.421875 
Q 20.0625 -1.421875 12.78125 6.34375 
Q 5.515625 14.109375 5.515625 27.296875 
Q 5.515625 40.671875 12.859375 48.328125 
Q 20.21875 56 33.015625 56 
Q 37.15625 56 41.109375 55.140625 
Q 45.0625 54.296875 48.78125 52.59375 
z
" id="DejaVuSans-63"/>
      <path d="M 8.5 21.578125 
L 8.5 54.6875 
L 17.484375 54.6875 
L 17.484375 21.921875 
Q 17.484375 14.15625 20.5 10.265625 
Q 23.53125 6.390625 29.59375 6.390625 
Q 36.859375 6.390625 41.078125 11.03125 
Q 45.3125 15.671875 45.3125 23.6875 
L 45.3125 54.6875 
L 54.296875 54.6875 
L 54.296875 0 
L 45.3125 0 
L 45.3125 8.40625 
Q 42.046875 3.421875 37.71875 1 
Q 33.40625 -1.421875 27.6875 -1.421875 
Q 18.265625 -1.421875 13.375 4.4375 
Q 8.5 10.296875 8.5 21.578125 
z
M 31.109375 56 
z
" id="DejaVuSans-75"/>
      <path d="M 54.890625 33.015625 
L 54.890625 0 
L 45.90625 0 
L 45.90625 32.71875 
Q 45.90625 40.484375 42.875 44.328125 
Q 39.84375 48.1875 33.796875 48.1875 
Q 26.515625 48.1875 22.3125 43.546875 
Q 18.109375 38.921875 18.109375 30.90625 
L 18.109375 0 
L 9.078125 0 
L 9.078125 54.6875 
L 18.109375 54.6875 
L 18.109375 46.1875 
Q 21.34375 51.125 25.703125 53.5625 
Q 30.078125 56 35.796875 56 
Q 45.21875 56 50.046875 50.171875 
Q 54.890625 44.34375 54.890625 33.015625 
z
" id="DejaVuSans-6e"/>
      <path d="M 18.3125 70.21875 
L 18.3125 54.6875 
L 36.8125 54.6875 
L 36.8125 47.703125 
L 18.3125 47.703125 
L 18.3125 18.015625 
Q 18.3125 11.328125 20.140625 9.421875 
Q 21.96875 7.515625 27.59375 7.515625 
L 36.8125 7.515625 
L 36.8125 0 
L 27.59375 0 
Q 17.1875 0 13.234375 3.875 
Q 9.28125 7.765625 9.28125 18.015625 
L 9.28125 47.703125 
L 2.6875 47.703125 
L 2.6875 54.6875 
L 9.28125 54.6875 
L 9.28125 70.21875 
z
" id="DejaVuSans-74"/>
      <path d="M 44.28125 53.078125 
L 44.28125 44.578125 
Q 40.484375 46.53125 36.375 47.5 
Q 32.28125 48.484375 27.875 48.484375 
Q 21.1875 48.484375 17.84375 46.4375 
Q 14.5 44.390625 14.5 40.28125 
Q 14.5 37.15625 16.890625 35.375 
Q 19.28125 33.59375 26.515625 31.984375 
L 29.59375 31.296875 
Q 39.15625 29.25 43.1875 25.515625 
Q 47.21875 21.78125 47.21875 15.09375 
Q 47.21875 7.46875 41.1875 3.015625 
Q 35.15625 -1.421875 24.609375 -1.421875 
Q 20.21875 -1.421875 15.453125 -0.5625 
Q 10.6875 0.296875 5.421875 2 
L 5.421875 11.28125 
Q 10.40625 8.6875 15.234375 7.390625 
Q 20.0625 6.109375 24.8125 6.109375 
Q 31.15625 6.109375 34.5625 8.28125 
Q 37.984375 10.453125 37.984375 14.40625 
Q 37.984375 18.0625 35.515625 20.015625 
Q 33.0625 21.96875 24.703125 23.78125 
L 21.578125 24.515625 
Q 13.234375 26.265625 9.515625 29.90625 
Q 5.8125 33.546875 5.8125 39.890625 
Q 5.8125 47.609375 11.28125 51.796875 
Q 16.75 56 26.8125 56 
Q 31.78125 56 36.171875 55.265625 
Q 40.578125 54.546875 44.28125 53.078125 
z
" id="DejaVuSans-73"/>
      <path d="M 31 75.875 
Q 24.46875 64.65625 21.28125 53.65625 
Q 18.109375 42.671875 18.109375 31.390625 
Q 18.109375 20.125 21.3125 9.0625 
Q 24.515625 -2 31 -13.1875 
L 23.1875 -13.1875 
Q 15.875 -1.703125 12.234375 9.375 
Q 8.59375 20.453125 8.59375 31.390625 
Q 8.59375 42.28125 12.203125 53.3125 
Q 15.828125 64.359375 23.1875 75.875 
z
" id="DejaVuSans-28"/>
      <path d="M 64.40625 67.28125 
L 64.40625 56.890625 
Q 59.421875 61.53125 53.78125 63.8125 
Q 48.140625 66.109375 41.796875 66.109375 
Q 29.296875 66.109375 22.65625 58.46875 
Q 16.015625 50.828125 16.015625 36.375 
Q 16.015625 21.96875 22.65625 14.328125 
Q 29.296875 6.6875 41.796875 6.6875 
Q 48.140625 6.6875 53.78125 8.984375 
Q 59.421875 11.28125 64.40625 15.921875 
L 64.40625 5.609375 
Q 59.234375 2.09375 53.4375 0.328125 
Q 47.65625 -1.421875 41.21875 -1.421875 
Q 24.65625 -1.421875 15.125 8.703125 
Q 5.609375 18.84375 5.609375 36.375 
Q 5.609375 53.953125 15.125 64.078125 
Q 24.65625 74.21875 41.21875 74.21875 
Q 47.75 74.21875 53.53125 72.484375 
Q 59.328125 70.75 64.40625 67.28125 
z
" id="DejaVuSans-43"/>
      <path d="M 41.109375 46.296875 
Q 39.59375 47.171875 37.8125 47.578125 
Q 36.03125 48 33.890625 48 
Q 26.265625 48 22.1875 43.046875 
Q 18.109375 38.09375 18.109375 28.8125 
L 18.109375 0 
L 9.078125 0 
L 9.078125 54.6875 
L 18.109375 54.6875 
L 18.109375 46.1875 
Q 20.953125 51.171875 25.484375 53.578125 
Q 30.03125 56 36.53125 56 
Q 37.453125 56 38.578125 55.875 
Q 39.703125 55.765625 41.0625 55.515625 
z
" id="DejaVuSans-72"/>
      <path d="M 8.015625 75.875 
L 15.828125 75.875 
Q 23.140625 64.359375 26.78125 53.3125 
Q 30.421875 42.28125 30.421875 31.390625 
Q 30.421875 20.453125 26.78125 9.375 
Q 23.140625 -1.703125 15.828125 -13.1875 
L 8.015625 -13.1875 
Q 14.5 -2 17.703125 9.0625 
Q 20.90625 20.125 20.90625 31.390625 
Q 20.90625 42.671875 17.703125 53.65625 
Q 14.5 64.65625 8.015625 75.875 
z
" id="DejaVuSans-29"/>
     </defs>
     <g transform="translate(83.294531 253.004219)scale(0.11 -0.11)">
      <use xlink:href="#DejaVuSans-6c"/>
      <use x="27.783203" xlink:href="#DejaVuSans-6f"/>
      <use x="88.964844" xlink:href="#DejaVuSans-67"/>
      <use x="152.441406" xlink:href="#DejaVuSans-31"/>
      <use x="216.064453" xlink:href="#DejaVuSans-30"/>
      <use x="279.6875" xlink:href="#DejaVuSans-20"/>
      <use x="311.474609" xlink:href="#DejaVuSans-63"/>
      <use x="366.455078" xlink:href="#DejaVuSans-6f"/>
      <use x="427.636719" xlink:href="#DejaVuSans-75"/>
      <use x="491.015625" xlink:href="#DejaVuSans-6e"/>
      <use x="554.394531" xlink:href="#DejaVuSans-74"/>
      <use x="593.603516" xlink:href="#DejaVuSans-73"/>
      <use x="645.703125" xlink:href="#DejaVuSans-20"/>
      <use x="677.490234" xlink:href="#DejaVuSans-28"/>
      <use x="716.503906" xlink:href="#DejaVuSans-43"/>
      <use x="786.328125" xlink:href="#DejaVuSans-6f"/>
      <use x="847.509766" xlink:href="#DejaVuSans-6e"/>
      <use x="910.888672" xlink:href="#DejaVuSans-74"/>
      <use x="950.097656" xlink:href="#DejaVuSans-72"/>
      <use x="991.179688" xlink:href="#DejaVuSans-6f"/>
      <use x="1052.361328" xlink:href="#DejaVuSans-6c"/>
      <use x="1080.144531" xlink:href="#DejaVuSans-29"/>
     </g>
    </g>
   </g>
   <g id="matplotlib.axis_2">
    <g id="ytick_1">
     <g id="line2d_7">
      <defs>
       <path d="M 0 0 
L -3.5 0 
" id="m4e67aaa1ea" style="stroke:#262626;stroke-width:0.8;"/>
      </defs>
      <g>
       <use style="fill:#262626;stroke:#262626;stroke-width:0.8;" x="51.01625" xlink:href="#m4e67aaa1ea" y="208.365926"/>
      </g>
     </g>
     <g id="line2d_8">
      <defs>
       <path d="M 0 0 
L 3.5 0 
" id="mb35f46e3a9" style="stroke:#262626;stroke-width:0.8;"/>
      </defs>
      <g>
       <use style="fill:#262626;stroke:#262626;stroke-width:0.8;" x="238.68" xlink:href="#mb35f46e3a9" y="208.365926"/>
      </g>
     </g>
     <g id="text_5">
      <!-- 0.0 -->
      <g style="fill:#262626;" transform="translate(26.522813 212.545067)scale(0.11 -0.11)">
       <use xlink:href="#DejaVuSans-30"/>
       <use x="63.623047" xlink:href="#DejaVuSans-2e"/>
       <use x="95.410156" xlink:href="#DejaVuSans-30"/>
      </g>
     </g>
    </g>
    <g id="ytick_2">
     <g id="line2d_9">
      <g>
       <use style="fill:#262626;stroke:#262626;stroke-width:0.8;" x="51.01625" xlink:href="#m4e67aaa1ea" y="172.540845"/>
      </g>
     </g>
     <g id="line2d_10">
      <g>
       <use style="fill:#262626;stroke:#262626;stroke-width:0.8;" x="238.68" xlink:href="#mb35f46e3a9" y="172.540845"/>
      </g>
     </g>
     <g id="text_6">
      <!-- 1.0 -->
      <g style="fill:#262626;" transform="translate(26.522813 176.719985)scale(0.11 -0.11)">
       <use xlink:href="#DejaVuSans-31"/>
       <use x="63.623047" xlink:href="#DejaVuSans-2e"/>
       <use x="95.410156" xlink:href="#DejaVuSans-30"/>
      </g>
     </g>
    </g>
    <g id="ytick_3">
     <g id="line2d_11">
      <g>
       <use style="fill:#262626;stroke:#262626;stroke-width:0.8;" x="51.01625" xlink:href="#m4e67aaa1ea" y="136.715763"/>
      </g>
     </g>
     <g id="line2d_12">
      <g>
       <use style="fill:#262626;stroke:#262626;stroke-width:0.8;" x="238.68" xlink:href="#mb35f46e3a9" y="136.715763"/>
      </g>
     </g>
     <g id="text_7">
      <!-- 2.0 -->
      <g style="fill:#262626;" transform="translate(26.522813 140.894904)scale(0.11 -0.11)">
       <use xlink:href="#DejaVuSans-32"/>
       <use x="63.623047" xlink:href="#DejaVuSans-2e"/>
       <use x="95.410156" xlink:href="#DejaVuSans-30"/>
      </g>
     </g>
    </g>
    <g id="ytick_4">
     <g id="line2d_13">
      <g>
       <use style="fill:#262626;stroke:#262626;stroke-width:0.8;" x="51.01625" xlink:href="#m4e67aaa1ea" y="100.890682"/>
      </g>
     </g>
     <g id="line2d_14">
      <g>
       <use style="fill:#262626;stroke:#262626;stroke-width:0.8;" x="238.68" xlink:href="#mb35f46e3a9" y="100.890682"/>
      </g>
     </g>
     <g id="text_8">
      <!-- 3.0 -->
      <defs>
       <path d="M 40.578125 39.3125 
Q 47.65625 37.796875 51.625 33 
Q 55.609375 28.21875 55.609375 21.1875 
Q 55.609375 10.40625 48.1875 4.484375 
Q 40.765625 -1.421875 27.09375 -1.421875 
Q 22.515625 -1.421875 17.65625 -0.515625 
Q 12.796875 0.390625 7.625 2.203125 
L 7.625 11.71875 
Q 11.71875 9.328125 16.59375 8.109375 
Q 21.484375 6.890625 26.8125 6.890625 
Q 36.078125 6.890625 40.9375 10.546875 
Q 45.796875 14.203125 45.796875 21.1875 
Q 45.796875 27.640625 41.28125 31.265625 
Q 36.765625 34.90625 28.71875 34.90625 
L 20.21875 34.90625 
L 20.21875 43.015625 
L 29.109375 43.015625 
Q 36.375 43.015625 40.234375 45.921875 
Q 44.09375 48.828125 44.09375 54.296875 
Q 44.09375 59.90625 40.109375 62.90625 
Q 36.140625 65.921875 28.71875 65.921875 
Q 24.65625 65.921875 20.015625 65.03125 
Q 15.375 64.15625 9.8125 62.3125 
L 9.8125 71.09375 
Q 15.4375 72.65625 20.34375 73.4375 
Q 25.25 74.21875 29.59375 74.21875 
Q 40.828125 74.21875 47.359375 69.109375 
Q 53.90625 64.015625 53.90625 55.328125 
Q 53.90625 49.265625 50.4375 45.09375 
Q 46.96875 40.921875 40.578125 39.3125 
z
" id="DejaVuSans-33"/>
      </defs>
      <g style="fill:#262626;" transform="translate(26.522813 105.069823)scale(0.11 -0.11)">
       <use xlink:href="#DejaVuSans-33"/>
       <use x="63.623047" xlink:href="#DejaVuSans-2e"/>
       <use x="95.410156" xlink:href="#DejaVuSans-30"/>
      </g>
     </g>
    </g>
    <g id="ytick_5">
     <g id="line2d_15">
      <g>
       <use style="fill:#262626;stroke:#262626;stroke-width:0.8;" x="51.01625" xlink:href="#m4e67aaa1ea" y="65.065601"/>
      </g>
     </g>
     <g id="line2d_16">
      <g>
       <use style="fill:#262626;stroke:#262626;stroke-width:0.8;" x="238.68" xlink:href="#mb35f46e3a9" y="65.065601"/>
      </g>
     </g>
     <g id="text_9">
      <!-- 4.0 -->
      <defs>
       <path d="M 37.796875 64.3125 
L 12.890625 25.390625 
L 37.796875 25.390625 
z
M 35.203125 72.90625 
L 47.609375 72.90625 
L 47.609375 25.390625 
L 58.015625 25.390625 
L 58.015625 17.1875 
L 47.609375 17.1875 
L 47.609375 0 
L 37.796875 0 
L 37.796875 17.1875 
L 4.890625 17.1875 
L 4.890625 26.703125 
z
" id="DejaVuSans-34"/>
      </defs>
      <g style="fill:#262626;" transform="translate(26.522813 69.244741)scale(0.11 -0.11)">
       <use xlink:href="#DejaVuSans-34"/>
       <use x="63.623047" xlink:href="#DejaVuSans-2e"/>
       <use x="95.410156" xlink:href="#DejaVuSans-30"/>
      </g>
     </g>
    </g>
    <g id="ytick_6">
     <g id="line2d_17">
      <g>
       <use style="fill:#262626;stroke:#262626;stroke-width:0.8;" x="51.01625" xlink:href="#m4e67aaa1ea" y="29.24052"/>
      </g>
     </g>
     <g id="line2d_18">
      <g>
       <use style="fill:#262626;stroke:#262626;stroke-width:0.8;" x="238.68" xlink:href="#mb35f46e3a9" y="29.24052"/>
      </g>
     </g>
     <g id="text_10">
      <!-- 5.0 -->
      <defs>
       <path d="M 10.796875 72.90625 
L 49.515625 72.90625 
L 49.515625 64.59375 
L 19.828125 64.59375 
L 19.828125 46.734375 
Q 21.96875 47.46875 24.109375 47.828125 
Q 26.265625 48.1875 28.421875 48.1875 
Q 40.625 48.1875 47.75 41.5 
Q 54.890625 34.8125 54.890625 23.390625 
Q 54.890625 11.625 47.5625 5.09375 
Q 40.234375 -1.421875 26.90625 -1.421875 
Q 22.3125 -1.421875 17.546875 -0.640625 
Q 12.796875 0.140625 7.71875 1.703125 
L 7.71875 11.625 
Q 12.109375 9.234375 16.796875 8.0625 
Q 21.484375 6.890625 26.703125 6.890625 
Q 35.15625 6.890625 40.078125 11.328125 
Q 45.015625 15.765625 45.015625 23.390625 
Q 45.015625 31 40.078125 35.4375 
Q 35.15625 39.890625 26.703125 39.890625 
Q 22.75 39.890625 18.8125 39.015625 
Q 14.890625 38.140625 10.796875 36.28125 
z
" id="DejaVuSans-35"/>
      </defs>
      <g style="fill:#262626;" transform="translate(26.522813 33.41966)scale(0.11 -0.11)">
       <use xlink:href="#DejaVuSans-35"/>
       <use x="63.623047" xlink:href="#DejaVuSans-2e"/>
       <use x="95.410156" xlink:href="#DejaVuSans-30"/>
      </g>
     </g>
    </g>
    <g id="text_11">
     <!-- log10 counts (ToxB_2) -->
     <defs>
      <path d="M -0.296875 72.90625 
L 61.375 72.90625 
L 61.375 64.59375 
L 35.5 64.59375 
L 35.5 0 
L 25.59375 0 
L 25.59375 64.59375 
L -0.296875 64.59375 
z
" id="DejaVuSans-54"/>
      <path d="M 54.890625 54.6875 
L 35.109375 28.078125 
L 55.90625 0 
L 45.3125 0 
L 29.390625 21.484375 
L 13.484375 0 
L 2.875 0 
L 24.125 28.609375 
L 4.6875 54.6875 
L 15.28125 54.6875 
L 29.78125 35.203125 
L 44.28125 54.6875 
z
" id="DejaVuSans-78"/>
      <path d="M 19.671875 34.8125 
L 19.671875 8.109375 
L 35.5 8.109375 
Q 43.453125 8.109375 47.28125 11.40625 
Q 51.125 14.703125 51.125 21.484375 
Q 51.125 28.328125 47.28125 31.5625 
Q 43.453125 34.8125 35.5 34.8125 
z
M 19.671875 64.796875 
L 19.671875 42.828125 
L 34.28125 42.828125 
Q 41.5 42.828125 45.03125 45.53125 
Q 48.578125 48.25 48.578125 53.8125 
Q 48.578125 59.328125 45.03125 62.0625 
Q 41.5 64.796875 34.28125 64.796875 
z
M 9.8125 72.90625 
L 35.015625 72.90625 
Q 46.296875 72.90625 52.390625 68.21875 
Q 58.5 63.53125 58.5 54.890625 
Q 58.5 48.1875 55.375 44.234375 
Q 52.25 40.28125 46.1875 39.3125 
Q 53.46875 37.75 57.5 32.78125 
Q 61.53125 27.828125 61.53125 20.40625 
Q 61.53125 10.640625 54.890625 5.3125 
Q 48.25 0 35.984375 0 
L 9.8125 0 
z
" id="DejaVuSans-42"/>
      <path d="M 50.984375 -16.609375 
L 50.984375 -23.578125 
L -0.984375 -23.578125 
L -0.984375 -16.609375 
z
" id="DejaVuSans-5f"/>
     </defs>
     <g transform="translate(19.929219 185.758984)rotate(-90)scale(0.11 -0.11)">
      <use xlink:href="#DejaVuSans-6c"/>
      <use x="27.783203" xlink:href="#DejaVuSans-6f"/>
      <use x="88.964844" xlink:href="#DejaVuSans-67"/>
      <use x="152.441406" xlink:href="#DejaVuSans-31"/>
      <use x="216.064453" xlink:href="#DejaVuSans-30"/>
      <use x="279.6875" xlink:href="#DejaVuSans-20"/>
      <use x="311.474609" xlink:href="#DejaVuSans-63"/>
      <use x="366.455078" xlink:href="#DejaVuSans-6f"/>
      <use x="427.636719" xlink:href="#DejaVuSans-75"/>
      <use x="491.015625" xlink:href="#DejaVuSans-6e"/>
      <use x="554.394531" xlink:href="#DejaVuSans-74"/>
      <use x="593.603516" xlink:href="#DejaVuSans-73"/>
      <use x="645.703125" xlink:href="#DejaVuSans-20"/>
      <use x="677.490234" xlink:href="#DejaVuSans-28"/>
      <use x="716.503906" xlink:href="#DejaVuSans-54"/>
      <use x="777.322266" xlink:href="#DejaVuSans-6f"/>
      <use x="838.457031" xlink:href="#DejaVuSans-78"/>
      <use x="897.636719" xlink:href="#DejaVuSans-42"/>
      <use x="966.240234" xlink:href="#DejaVuSans-5f"/>
      <use x="1016.240234" xlink:href="#DejaVuSans-32"/>
      <use x="1079.863281" xlink:href="#DejaVuSans-29"/>
     </g>
    </g>
   </g>
   <g id="line2d_19">
    <path clip-path="url(#p9ee3a757df)" d="M 51.01625 216.680174 
L 238.68 121.066317 
" style="fill:none;opacity:0.75;stroke:#3399ff;stroke-dasharray:5.55,2.4;stroke-dashoffset:0;stroke-width:1.5;"/>
   </g>
   <g id="patch_3">
    <path d="M 51.01625 223 
L 51.01625 25.44 
" style="fill:none;stroke:#000000;stroke-linecap:square;stroke-linejoin:miter;stroke-width:0.8;"/>
   </g>
   <g id="patch_4">
    <path d="M 238.68 223 
L 238.68 25.44 
" style="fill:none;stroke:#000000;stroke-linecap:square;stroke-linejoin:miter;stroke-width:0.8;"/>
   </g>
   <g id="patch_5">
    <path d="M 51.01625 223 
L 238.68 223 
" style="fill:none;stroke:#000000;stroke-linecap:square;stroke-linejoin:miter;stroke-width:0.8;"/>
   </g>
   <g id="patch_6">
    <path d="M 51.01625 25.44 
L 238.68 25.44 
" style="fill:none;stroke:#000000;stroke-linecap:square;stroke-linejoin:miter;stroke-width:0.8;"/>
   </g>
   <g id="text_12">
    <!-- sgRNA Density -->
    <defs>
     <path d="M 44.390625 34.1875 
Q 47.5625 33.109375 50.5625 29.59375 
Q 53.5625 26.078125 56.59375 19.921875 
L 66.609375 0 
L 56 0 
L 46.6875 18.703125 
Q 43.0625 26.03125 39.671875 28.421875 
Q 36.28125 30.8125 30.421875 30.8125 
L 19.671875 30.8125 
L 19.671875 0 
L 9.8125 0 
L 9.8125 72.90625 
L 32.078125 72.90625 
Q 44.578125 72.90625 50.734375 67.671875 
Q 56.890625 62.453125 56.890625 51.90625 
Q 56.890625 45.015625 53.6875 40.46875 
Q 50.484375 35.9375 44.390625 34.1875 
z
M 19.671875 64.796875 
L 19.671875 38.921875 
L 32.078125 38.921875 
Q 39.203125 38.921875 42.84375 42.21875 
Q 46.484375 45.515625 46.484375 51.90625 
Q 46.484375 58.296875 42.84375 61.546875 
Q 39.203125 64.796875 32.078125 64.796875 
z
" id="DejaVuSans-52"/>
     <path d="M 9.8125 72.90625 
L 23.09375 72.90625 
L 55.421875 11.921875 
L 55.421875 72.90625 
L 64.984375 72.90625 
L 64.984375 0 
L 51.703125 0 
L 19.390625 60.984375 
L 19.390625 0 
L 9.8125 0 
z
" id="DejaVuSans-4e"/>
     <path d="M 34.1875 63.1875 
L 20.796875 26.90625 
L 47.609375 26.90625 
z
M 28.609375 72.90625 
L 39.796875 72.90625 
L 67.578125 0 
L 57.328125 0 
L 50.6875 18.703125 
L 17.828125 18.703125 
L 11.1875 0 
L 0.78125 0 
z
" id="DejaVuSans-41"/>
     <path d="M 19.671875 64.796875 
L 19.671875 8.109375 
L 31.59375 8.109375 
Q 46.6875 8.109375 53.6875 14.9375 
Q 60.6875 21.78125 60.6875 36.53125 
Q 60.6875 51.171875 53.6875 57.984375 
Q 46.6875 64.796875 31.59375 64.796875 
z
M 9.8125 72.90625 
L 30.078125 72.90625 
Q 51.265625 72.90625 61.171875 64.09375 
Q 71.09375 55.28125 71.09375 36.53125 
Q 71.09375 17.671875 61.125 8.828125 
Q 51.171875 0 30.078125 0 
L 9.8125 0 
z
" id="DejaVuSans-44"/>
     <path d="M 56.203125 29.59375 
L 56.203125 25.203125 
L 14.890625 25.203125 
Q 15.484375 15.921875 20.484375 11.0625 
Q 25.484375 6.203125 34.421875 6.203125 
Q 39.59375 6.203125 44.453125 7.46875 
Q 49.3125 8.734375 54.109375 11.28125 
L 54.109375 2.78125 
Q 49.265625 0.734375 44.1875 -0.34375 
Q 39.109375 -1.421875 33.890625 -1.421875 
Q 20.796875 -1.421875 13.15625 6.1875 
Q 5.515625 13.8125 5.515625 26.8125 
Q 5.515625 40.234375 12.765625 48.109375 
Q 20.015625 56 32.328125 56 
Q 43.359375 56 49.78125 48.890625 
Q 56.203125 41.796875 56.203125 29.59375 
z
M 47.21875 32.234375 
Q 47.125 39.59375 43.09375 43.984375 
Q 39.0625 48.390625 32.421875 48.390625 
Q 24.90625 48.390625 20.390625 44.140625 
Q 15.875 39.890625 15.1875 32.171875 
z
" id="DejaVuSans-65"/>
     <path d="M 9.421875 54.6875 
L 18.40625 54.6875 
L 18.40625 0 
L 9.421875 0 
z
M 9.421875 75.984375 
L 18.40625 75.984375 
L 18.40625 64.59375 
L 9.421875 64.59375 
z
" id="DejaVuSans-69"/>
     <path d="M 32.171875 -5.078125 
Q 28.375 -14.84375 24.75 -17.8125 
Q 21.140625 -20.796875 15.09375 -20.796875 
L 7.90625 -20.796875 
L 7.90625 -13.28125 
L 13.1875 -13.28125 
Q 16.890625 -13.28125 18.9375 -11.515625 
Q 21 -9.765625 23.484375 -3.21875 
L 25.09375 0.875 
L 2.984375 54.6875 
L 12.5 54.6875 
L 29.59375 11.921875 
L 46.6875 54.6875 
L 56.203125 54.6875 
z
" id="DejaVuSans-79"/>
    </defs>
    <g transform="translate(100.434063 19.44)scale(0.12 -0.12)">
     <use xlink:href="#DejaVuSans-73"/>
     <use x="52.099609" xlink:href="#DejaVuSans-67"/>
     <use x="115.576172" xlink:href="#DejaVuSans-52"/>
     <use x="185.058594" xlink:href="#DejaVuSans-4e"/>
     <use x="259.863281" xlink:href="#DejaVuSans-41"/>
     <use x="328.271484" xlink:href="#DejaVuSans-20"/>
     <use x="360.058594" xlink:href="#DejaVuSans-44"/>
     <use x="437.060547" xlink:href="#DejaVuSans-65"/>
     <use x="498.583984" xlink:href="#DejaVuSans-6e"/>
     <use x="561.962891" xlink:href="#DejaVuSans-73"/>
     <use x="614.0625" xlink:href="#DejaVuSans-69"/>
     <use x="641.845703" xlink:href="#DejaVuSans-74"/>
     <use x="681.054688" xlink:href="#DejaVuSans-79"/>
    </g>
   </g>
  </g>
 </g>
 <defs>
  <clipPath id="p9ee3a757df">
   <rect height="197.56" width="187.66375" x="51.01625" y="25.44"/>
  </clipPath>
 </defs>
</svg>
