<?xml version="1.0" encoding="utf-8" standalone="no"?>
<!DOCTYPE svg PUBLIC "-//W3C//DTD SVG 1.1//EN"
  "http://www.w3.org/Graphics/SVG/1.1/DTD/svg11.dtd">
<!-- Created with matplotlib (http://matplotlib.org/) -->
<svg height="266pt" version="1.1" viewBox="0 0 252 266" width="252pt" xmlns="http://www.w3.org/2000/svg" xmlns:xlink="http://www.w3.org/1999/xlink">
 <defs>
  <style type="text/css">
*{stroke-linecap:butt;stroke-linejoin:round;}
  </style>
 </defs>
 <g id="figure_1">
  <g id="patch_1">
   <path d="M 0 266.4 
L 252 266.4 
L 252 0 
L 0 0 
z
" style="fill:#ffffff;"/>
  </g>
  <g id="axes_1">
   <g id="patch_2">
    <path d="M 51.01625 223 
L 238.68 223 
L 238.68 25.44 
L 51.01625 25.44 
z
" style="fill:#ffffff;"/>
   </g>
   <g id="PathCollection_1">
    <path clip-path="url(#p1d405ba376)" d="M 37.980745 227.94666 
L 40.268313 227.94666 
L 42.55588 227.94666 
L 44.843448 227.94666 
L 47.131015 227.94666 
L 49.418583 227.94666 
L 51.70615 227.94666 
L 53.993718 227.94666 
L 56.281286 227.94666 
L 58.568853 227.94666 
L 60.856421 227.94666 
L 63.143988 227.94666 
L 65.431556 227.94666 
L 67.719123 227.94666 
L 70.006691 227.94666 
L 72.294259 227.94666 
L 74.581826 227.94666 
L 76.869394 227.94666 
L 79.156961 227.94666 
L 81.444529 227.94666 
L 83.732096 227.94666 
L 86.019664 227.94666 
L 88.307231 227.94666 
L 90.594799 227.94666 
L 92.882367 227.94666 
L 95.169934 227.94666 
L 97.457502 227.94666 
L 99.745069 227.94666 
L 102.032637 227.94666 
L 104.320204 227.94666 
L 106.607772 227.94666 
L 108.895339 227.94666 
L 111.182907 227.94666 
L 113.470475 227.94666 
L 115.758042 227.94666 
L 118.04561 227.94666 
L 120.333177 227.94666 
L 122.620745 227.94666 
L 124.908312 227.94666 
L 127.19588 227.94666 
L 129.483447 227.94666 
L 131.771015 227.94666 
L 134.058583 227.94666 
L 136.34615 227.94666 
L 138.633718 227.94666 
L 140.921285 227.94666 
L 143.208853 227.94666 
L 145.49642 227.94666 
L 147.783988 227.94666 
L 150.071556 227.94666 
L 152.359123 227.94666 
L 154.646691 227.94666 
L 156.934258 227.94666 
L 159.221826 227.94666 
L 161.509393 227.94666 
L 163.796961 227.94666 
L 166.084528 227.94666 
L 168.372096 227.94666 
L 170.659664 227.94666 
L 172.947231 227.94666 
L 175.234799 227.94666 
L 177.522366 227.94666 
L 179.809934 227.94666 
L 182.097501 227.94666 
L 184.385069 227.94666 
L 186.672636 227.94666 
L 188.960204 227.94666 
L 191.247772 227.94666 
L 193.535339 227.94666 
L 195.822907 227.94666 
L 198.110474 227.94666 
L 200.398042 227.94666 
L 202.685609 227.94666 
L 204.973177 227.94666 
L 207.260745 227.94666 
L 209.548312 227.94666 
L 211.83588 227.94666 
L 214.123447 227.94666 
L 216.411015 227.94666 
L 218.698582 227.94666 
L 220.98615 227.94666 
L 223.273717 227.94666 
L 225.561285 227.94666 
L 227.848853 227.94666 
L 230.13642 227.94666 
L 232.423988 227.94666 
L 234.711555 227.94666 
L 236.999123 227.94666 
L 239.28669 227.94666 
L 241.574258 227.94666 
L 243.861825 227.94666 
L 246.149393 227.94666 
L 248.436961 227.94666 
L 250.724528 227.94666 
L 253.012096 227.94666 
L 255.299663 227.94666 
L 257.587231 227.94666 
L 259.874798 227.94666 
L 262.162366 227.94666 
L 262.162366 226.072901 
L 262.162366 224.199141 
L 262.162366 222.325381 
L 262.162366 220.451621 
L 262.162366 218.577862 
L 262.162366 216.704102 
L 262.162366 214.830342 
L 262.162366 212.956583 
L 262.162366 211.082823 
L 262.162366 209.209063 
L 262.162366 207.335304 
L 262.162366 205.461544 
L 262.162366 203.587784 
L 262.162366 201.714025 
L 262.162366 199.840265 
L 262.162366 197.966505 
L 262.162366 196.092745 
L 262.162366 194.218986 
L 262.162366 192.345226 
L 262.162366 190.471466 
L 262.162366 188.597707 
L 262.162366 186.723947 
L 262.162366 184.850187 
L 262.162366 182.976428 
L 262.162366 181.102668 
L 262.162366 179.228908 
L 262.162366 177.355149 
L 262.162366 175.481389 
L 262.162366 173.607629 
L 262.162366 171.73387 
L 262.162366 169.86011 
L 262.162366 167.98635 
L 262.162366 166.11259 
L 262.162366 164.238831 
L 262.162366 162.365071 
L 262.162366 160.491311 
L 262.162366 158.617552 
L 262.162366 156.743792 
L 262.162366 154.870032 
L 262.162366 152.996273 
L 262.162366 151.122513 
L 262.162366 149.248753 
L 262.162366 147.374994 
L 262.162366 145.501234 
L 262.162366 143.627474 
L 262.162366 141.753714 
L 262.162366 139.879955 
L 262.162366 138.006195 
L 262.162366 136.132435 
L 262.162366 134.258676 
L 262.162366 132.384916 
L 262.162366 130.511156 
L 262.162366 128.637397 
L 262.162366 126.763637 
L 262.162366 124.889877 
L 262.162366 123.016118 
L 262.162366 121.142358 
L 262.162366 119.268598 
L 262.162366 117.394839 
L 262.162366 115.521079 
L 262.162366 113.647319 
L 262.162366 111.773559 
L 262.162366 109.8998 
L 262.162366 108.02604 
L 262.162366 106.15228 
L 262.162366 104.278521 
L 262.162366 102.404761 
L 262.162366 100.531001 
L 262.162366 98.657242 
L 262.162366 96.783482 
L 262.162366 94.909722 
L 262.162366 93.035963 
L 262.162366 91.162203 
L 262.162366 89.288443 
L 262.162366 87.414683 
L 262.162366 85.540924 
L 262.162366 83.667164 
L 262.162366 81.793404 
L 262.162366 79.919645 
L 262.162366 78.045885 
L 262.162366 76.172125 
L 262.162366 74.298366 
L 262.162366 72.424606 
L 262.162366 70.550846 
L 262.162366 68.677087 
L 262.162366 66.803327 
L 262.162366 64.929567 
L 262.162366 63.055807 
L 262.162366 61.182048 
L 262.162366 59.308288 
L 262.162366 57.434528 
L 262.162366 55.560769 
L 262.162366 53.687009 
L 262.162366 51.813249 
L 262.162366 49.93949 
L 262.162366 48.06573 
L 262.162366 46.19197 
L 262.162366 44.318211 
L 262.162366 42.444451 
L 259.874798 42.444451 
L 257.587231 42.444451 
L 255.299663 42.444451 
L 253.012096 42.444451 
L 250.724528 42.444451 
L 248.436961 42.444451 
L 246.149393 42.444451 
L 243.861825 42.444451 
L 241.574258 42.444451 
L 239.28669 42.444451 
L 236.999123 42.444451 
L 234.711555 42.444451 
L 232.423988 42.444451 
L 230.13642 42.444451 
L 227.848853 42.444451 
L 225.561285 42.444451 
L 223.273717 42.444451 
L 220.98615 42.444451 
L 218.698582 42.444451 
L 216.411015 42.444451 
L 214.123447 42.444451 
L 211.83588 42.444451 
L 209.548312 42.444451 
L 207.260745 42.444451 
L 204.973177 42.444451 
L 202.685609 42.444451 
L 200.398042 42.444451 
L 198.110474 42.444451 
L 195.822907 42.444451 
L 193.535339 42.444451 
L 191.247772 42.444451 
L 188.960204 42.444451 
L 186.672636 42.444451 
L 184.385069 42.444451 
L 182.097501 42.444451 
L 179.809934 42.444451 
L 177.522366 42.444451 
L 175.234799 42.444451 
L 172.947231 42.444451 
L 170.659664 42.444451 
L 168.372096 42.444451 
L 166.084528 42.444451 
L 163.796961 42.444451 
L 161.509393 42.444451 
L 159.221826 42.444451 
L 156.934258 42.444451 
L 154.646691 42.444451 
L 152.359123 42.444451 
L 150.071556 42.444451 
L 147.783988 42.444451 
L 145.49642 42.444451 
L 143.208853 42.444451 
L 140.921285 42.444451 
L 138.633718 42.444451 
L 136.34615 42.444451 
L 134.058583 42.444451 
L 131.771015 42.444451 
L 129.483447 42.444451 
L 127.19588 42.444451 
L 124.908312 42.444451 
L 122.620745 42.444451 
L 120.333177 42.444451 
L 118.04561 42.444451 
L 115.758042 42.444451 
L 113.470475 42.444451 
L 111.182907 42.444451 
L 108.895339 42.444451 
L 106.607772 42.444451 
L 104.320204 42.444451 
L 102.032637 42.444451 
L 99.745069 42.444451 
L 97.457502 42.444451 
L 95.169934 42.444451 
L 92.882367 42.444451 
L 90.594799 42.444451 
L 88.307231 42.444451 
L 86.019664 42.444451 
L 83.732096 42.444451 
L 81.444529 42.444451 
L 79.156961 42.444451 
L 76.869394 42.444451 
L 74.581826 42.444451 
L 72.294259 42.444451 
L 70.006691 42.444451 
L 67.719123 42.444451 
L 65.431556 42.444451 
L 63.143988 42.444451 
L 60.856421 42.444451 
L 58.568853 42.444451 
L 56.281286 42.444451 
L 53.993718 42.444451 
L 51.70615 42.444451 
L 49.418583 42.444451 
L 47.131015 42.444451 
L 44.843448 42.444451 
L 42.55588 42.444451 
L 40.268313 42.444451 
L 37.980745 42.444451 
L 35.693178 42.444451 
L 35.693178 44.318211 
L 35.693178 46.19197 
L 35.693178 48.06573 
L 35.693178 49.93949 
L 35.693178 51.813249 
L 35.693178 53.687009 
L 35.693178 55.560769 
L 35.693178 57.434528 
L 35.693178 59.308288 
L 35.693178 61.182048 
L 35.693178 63.055807 
L 35.693178 64.929567 
L 35.693178 66.803327 
L 35.693178 68.677087 
L 35.693178 70.550846 
L 35.693178 72.424606 
L 35.693178 74.298366 
L 35.693178 76.172125 
L 35.693178 78.045885 
L 35.693178 79.919645 
L 35.693178 81.793404 
L 35.693178 83.667164 
L 35.693178 85.540924 
L 35.693178 87.414683 
L 35.693178 89.288443 
L 35.693178 91.162203 
L 35.693178 93.035963 
L 35.693178 94.909722 
L 35.693178 96.783482 
L 35.693178 98.657242 
L 35.693178 100.531001 
L 35.693178 102.404761 
L 35.693178 104.278521 
L 35.693178 106.15228 
L 35.693178 108.02604 
L 35.693178 109.8998 
L 35.693178 111.773559 
L 35.693178 113.647319 
L 35.693178 115.521079 
L 35.693178 117.394839 
L 35.693178 119.268598 
L 35.693178 121.142358 
L 35.693178 123.016118 
L 35.693178 124.889877 
L 35.693178 126.763637 
L 35.693178 128.637397 
L 35.693178 130.511156 
L 35.693178 132.384916 
L 35.693178 134.258676 
L 35.693178 136.132435 
L 35.693178 138.006195 
L 35.693178 139.879955 
L 35.693178 141.753714 
L 35.693178 143.627474 
L 35.693178 145.501234 
L 35.693178 147.374994 
L 35.693178 149.248753 
L 35.693178 151.122513 
L 35.693178 152.996273 
L 35.693178 154.870032 
L 35.693178 156.743792 
L 35.693178 158.617552 
L 35.693178 160.491311 
L 35.693178 162.365071 
L 35.693178 164.238831 
L 35.693178 166.11259 
L 35.693178 167.98635 
L 35.693178 169.86011 
L 35.693178 171.73387 
L 35.693178 173.607629 
L 35.693178 175.481389 
L 35.693178 177.355149 
L 35.693178 179.228908 
L 35.693178 181.102668 
L 35.693178 182.976428 
L 35.693178 184.850187 
L 35.693178 186.723947 
L 35.693178 188.597707 
L 35.693178 190.471466 
L 35.693178 192.345226 
L 35.693178 194.218986 
L 35.693178 196.092745 
L 35.693178 197.966505 
L 35.693178 199.840265 
L 35.693178 201.714025 
L 35.693178 203.587784 
L 35.693178 205.461544 
L 35.693178 207.335304 
L 35.693178 209.209063 
L 35.693178 211.082823 
L 35.693178 212.956583 
L 35.693178 214.830342 
L 35.693178 216.704102 
L 35.693178 218.577862 
L 35.693178 220.451621 
L 35.693178 222.325381 
L 35.693178 224.199141 
L 35.693178 226.072901 
L 35.693178 227.94666 
z
M 58.484936 220.451621 
L 56.281286 219.755155 
L 53.993718 218.659649 
L 53.847067 218.577862 
L 51.70615 217.330291 
L 50.841608 216.704102 
L 49.418583 215.430136 
L 48.796937 214.830342 
L 47.420594 212.956583 
L 47.131015 212.299451 
L 46.51002 211.082823 
L 46.062525 209.209063 
L 46.06137 207.335304 
L 46.497103 205.461544 
L 47.131015 204.165085 
L 47.372875 203.587784 
L 48.620717 201.714025 
L 49.418583 200.855411 
L 50.39541 199.840265 
L 51.70615 198.714672 
L 52.707747 197.966505 
L 53.993718 197.029844 
L 55.597839 196.092745 
L 56.281286 195.642403 
L 58.568853 194.437975 
L 59.112295 194.218986 
L 60.856421 193.283351 
L 63.143988 192.415972 
L 63.399286 192.345226 
L 65.431556 191.493716 
L 67.719123 190.863331 
L 70.006691 190.481915 
L 70.130163 190.471466 
L 72.294259 190.168023 
L 74.581826 190.084841 
L 76.869394 190.17312 
L 79.156961 190.370874 
L 80.117531 190.471466 
L 81.444529 190.562563 
L 83.732096 190.714292 
L 86.019664 190.836301 
L 88.307231 190.910943 
L 90.594799 190.933472 
L 92.882367 190.910623 
L 95.169934 190.856475 
L 97.457502 190.787916 
L 99.745069 190.721417 
L 102.032637 190.671599 
L 104.320204 190.651167 
L 106.607772 190.67157 
L 108.895339 190.743868 
L 111.182907 190.879541 
L 113.470475 191.09112 
L 115.758042 191.392688 
L 118.04561 191.800306 
L 120.333177 192.332456 
L 120.378828 192.345226 
L 122.620745 192.772662 
L 124.908312 193.317636 
L 127.19588 193.990644 
L 127.866125 194.218986 
L 129.483447 194.600946 
L 131.771015 195.242972 
L 134.058583 196.020723 
L 134.249787 196.092745 
L 136.34615 196.680312 
L 138.633718 197.451772 
L 139.950779 197.966505 
L 140.921285 198.280318 
L 143.208853 199.129005 
L 144.832271 199.840265 
L 145.49642 200.116219 
L 147.783988 201.188049 
L 148.77079 201.714025 
L 150.071556 202.493049 
L 151.706311 203.587784 
L 152.359123 204.201808 
L 153.644964 205.461544 
L 154.542251 207.335304 
L 154.43155 209.209063 
L 153.229112 211.082823 
L 152.359123 211.771793 
L 150.757418 212.956583 
L 150.071556 213.31569 
L 147.783988 214.400479 
L 146.751699 214.830342 
L 145.49642 215.286942 
L 143.208853 216.015317 
L 140.921285 216.617947 
L 140.561666 216.704102 
L 138.633718 217.182031 
L 136.34615 217.664369 
L 134.058583 218.069363 
L 131.771015 218.410855 
L 130.492381 218.577862 
L 129.483447 218.736558 
L 127.19588 219.05559 
L 124.908312 219.326749 
L 122.620745 219.557345 
L 120.333177 219.753307 
L 118.04561 219.919514 
L 115.758042 220.060037 
L 113.470475 220.178335 
L 111.182907 220.27742 
L 108.895339 220.360002 
L 106.607772 220.428643 
L 105.701014 220.451621 
L 104.320204 220.501461 
L 102.032637 220.572351 
L 99.745069 220.63582 
L 97.457502 220.697846 
L 95.169934 220.765624 
L 92.882367 220.847223 
L 90.594799 220.950435 
L 88.307231 221.080726 
L 86.019664 221.238755 
L 83.732096 221.418628 
L 81.444529 221.608101 
L 79.156961 221.790956 
L 76.869394 221.950282 
L 74.581826 222.070931 
L 72.294259 222.14009 
L 70.006691 222.146033 
L 67.719123 222.075604 
L 65.431556 221.910774 
L 63.143988 221.624022 
L 60.856421 221.171577 
L 58.568853 220.482568 
z
" style="fill:none;"/>
   </g>
   <g id="PathCollection_2">
    <path clip-path="url(#p1d405ba376)" d="M 58.568853 220.482568 
L 60.856421 221.171577 
L 63.143988 221.624022 
L 65.431556 221.910774 
L 67.719123 222.075604 
L 70.006691 222.146033 
L 72.294259 222.14009 
L 74.581826 222.070931 
L 76.869394 221.950282 
L 79.156961 221.790956 
L 81.444529 221.608101 
L 83.732096 221.418628 
L 86.019664 221.238755 
L 88.307231 221.080726 
L 90.594799 220.950435 
L 92.882367 220.847223 
L 95.169934 220.765624 
L 97.457502 220.697846 
L 99.745069 220.63582 
L 102.032637 220.572351 
L 104.320204 220.501461 
L 105.701014 220.451621 
L 106.607772 220.428643 
L 108.895339 220.360002 
L 111.182907 220.27742 
L 113.470475 220.178335 
L 115.758042 220.060037 
L 118.04561 219.919514 
L 120.333177 219.753307 
L 122.620745 219.557345 
L 124.908312 219.326749 
L 127.19588 219.05559 
L 129.483447 218.736558 
L 130.492381 218.577862 
L 131.771015 218.410855 
L 134.058583 218.069363 
L 136.34615 217.664369 
L 138.633718 217.182031 
L 140.561666 216.704102 
L 140.921285 216.617947 
L 143.208853 216.015317 
L 145.49642 215.286942 
L 146.751699 214.830342 
L 147.783988 214.400479 
L 150.071556 213.31569 
L 150.757418 212.956583 
L 152.359123 211.771793 
L 153.229112 211.082823 
L 154.43155 209.209063 
L 154.542251 207.335304 
L 153.644964 205.461544 
L 152.359123 204.201808 
L 151.706311 203.587784 
L 150.071556 202.493049 
L 148.77079 201.714025 
L 147.783988 201.188049 
L 145.49642 200.116219 
L 144.832271 199.840265 
L 143.208853 199.129005 
L 140.921285 198.280318 
L 139.950779 197.966505 
L 138.633718 197.451772 
L 136.34615 196.680312 
L 134.249787 196.092745 
L 134.058583 196.020723 
L 131.771015 195.242972 
L 129.483447 194.600946 
L 127.866125 194.218986 
L 127.19588 193.990644 
L 124.908312 193.317636 
L 122.620745 192.772662 
L 120.378828 192.345226 
L 120.333177 192.332456 
L 118.04561 191.800306 
L 115.758042 191.392688 
L 113.470475 191.09112 
L 111.182907 190.879541 
L 108.895339 190.743868 
L 106.607772 190.67157 
L 104.320204 190.651167 
L 102.032637 190.671599 
L 99.745069 190.721417 
L 97.457502 190.787916 
L 95.169934 190.856475 
L 92.882367 190.910623 
L 90.594799 190.933472 
L 88.307231 190.910943 
L 86.019664 190.836301 
L 83.732096 190.714292 
L 81.444529 190.562563 
L 80.117531 190.471466 
L 79.156961 190.370874 
L 76.869394 190.17312 
L 74.581826 190.084841 
L 72.294259 190.168023 
L 70.130163 190.471466 
L 70.006691 190.481915 
L 67.719123 190.863331 
L 65.431556 191.493716 
L 63.399286 192.345226 
L 63.143988 192.415972 
L 60.856421 193.283351 
L 59.112295 194.218986 
L 58.568853 194.437975 
L 56.281286 195.642403 
L 55.597839 196.092745 
L 53.993718 197.029844 
L 52.707747 197.966505 
L 51.70615 198.714672 
L 50.39541 199.840265 
L 49.418583 200.855411 
L 48.620717 201.714025 
L 47.372875 203.587784 
L 47.131015 204.165085 
L 46.497103 205.461544 
L 46.06137 207.335304 
L 46.062525 209.209063 
L 46.51002 211.082823 
L 47.131015 212.299451 
L 47.420594 212.956583 
L 48.796937 214.830342 
L 49.418583 215.430136 
L 50.841608 216.704102 
L 51.70615 217.330291 
L 53.847067 218.577862 
L 53.993718 218.659649 
L 56.281286 219.755155 
L 58.484936 220.451621 
z
M 61.163434 218.577862 
L 60.856421 218.505618 
L 58.568853 217.775653 
L 56.335731 216.704102 
L 56.281286 216.67583 
L 53.993718 215.210313 
L 53.504874 214.830342 
L 51.735199 212.956583 
L 51.70615 212.908075 
L 50.581316 211.082823 
L 50.07006 209.209063 
L 50.068595 207.335304 
L 50.565983 205.461544 
L 51.665514 203.587784 
L 51.70615 203.538873 
L 53.274374 201.714025 
L 53.993718 201.089341 
L 55.677632 199.840265 
L 56.281286 199.435538 
L 58.568853 198.20483 
L 59.154473 197.966505 
L 60.856421 197.196625 
L 63.143988 196.473599 
L 64.956489 196.092745 
L 65.431556 195.959736 
L 67.719123 195.535781 
L 70.006691 195.314213 
L 72.294259 195.252351 
L 74.581826 195.319346 
L 76.869394 195.488957 
L 79.156961 195.734368 
L 81.444529 196.025458 
L 81.977187 196.092745 
L 83.732096 196.254602 
L 86.019664 196.450041 
L 88.307231 196.617003 
L 90.594799 196.747818 
L 92.882367 196.843609 
L 95.169934 196.912077 
L 97.457502 196.964242 
L 99.745069 197.011709 
L 102.032637 197.065121 
L 104.320204 197.133695 
L 106.607772 197.225402 
L 108.895339 197.347417 
L 111.182907 197.506612 
L 113.470475 197.709995 
L 115.758042 197.965083 
L 115.768839 197.966505 
L 118.04561 198.200473 
L 120.333177 198.486959 
L 122.620745 198.833007 
L 124.908312 199.248257 
L 127.19588 199.744404 
L 127.590236 199.840265 
L 129.483447 200.255455 
L 131.771015 200.845383 
L 134.058583 201.548831 
L 134.542951 201.714025 
L 136.34615 202.372731 
L 138.633718 203.356489 
L 139.120666 203.587784 
L 140.921285 204.738311 
L 141.942929 205.461544 
L 143.208853 207.29192 
L 143.238229 207.335304 
L 143.208853 207.729751 
L 143.103359 209.209063 
L 141.439562 211.082823 
L 140.921285 211.387667 
L 138.633718 212.612697 
L 137.915449 212.956583 
L 136.34615 213.514895 
L 134.058583 214.220734 
L 131.771015 214.816024 
L 131.710714 214.830342 
L 129.483447 215.317915 
L 127.19588 215.743752 
L 124.908312 216.105712 
L 122.620745 216.413541 
L 120.333177 216.675151 
L 120.046572 216.704102 
L 118.04561 216.926226 
L 115.758042 217.1422 
L 113.470475 217.324013 
L 111.182907 217.476294 
L 108.895339 217.603206 
L 106.607772 217.708688 
L 104.320204 217.796735 
L 102.032637 217.871745 
L 99.745069 217.938899 
L 97.457502 218.004527 
L 95.169934 218.076247 
L 92.882367 218.162602 
L 90.594799 218.271846 
L 88.307231 218.40977 
L 86.019664 218.577078 
L 86.01073 218.577862 
L 83.732096 218.824545 
L 81.444529 219.085482 
L 79.156961 219.337312 
L 76.869394 219.556744 
L 74.581826 219.72291 
L 72.294259 219.818156 
L 70.006691 219.826325 
L 67.719123 219.729293 
L 65.431556 219.502223 
L 63.143988 219.107199 
z
" style="fill:#fed9c9;"/>
   </g>
   <g id="PathCollection_3">
    <path clip-path="url(#p1d405ba376)" d="M 63.143988 219.107199 
L 65.431556 219.502223 
L 67.719123 219.729293 
L 70.006691 219.826325 
L 72.294259 219.818156 
L 74.581826 219.72291 
L 76.869394 219.556744 
L 79.156961 219.337312 
L 81.444529 219.085482 
L 83.732096 218.824545 
L 86.01073 218.577862 
L 86.019664 218.577078 
L 88.307231 218.40977 
L 90.594799 218.271846 
L 92.882367 218.162602 
L 95.169934 218.076247 
L 97.457502 218.004527 
L 99.745069 217.938899 
L 102.032637 217.871745 
L 104.320204 217.796735 
L 106.607772 217.708688 
L 108.895339 217.603206 
L 111.182907 217.476294 
L 113.470475 217.324013 
L 115.758042 217.1422 
L 118.04561 216.926226 
L 120.046572 216.704102 
L 120.333177 216.675151 
L 122.620745 216.413541 
L 124.908312 216.105712 
L 127.19588 215.743752 
L 129.483447 215.317915 
L 131.710714 214.830342 
L 131.771015 214.816024 
L 134.058583 214.220734 
L 136.34615 213.514895 
L 137.915449 212.956583 
L 138.633718 212.612697 
L 140.921285 211.387667 
L 141.439562 211.082823 
L 143.103359 209.209063 
L 143.208853 207.729751 
L 143.238229 207.335304 
L 143.208853 207.29192 
L 141.942929 205.461544 
L 140.921285 204.738311 
L 139.120666 203.587784 
L 138.633718 203.356489 
L 136.34615 202.372731 
L 134.542951 201.714025 
L 134.058583 201.548831 
L 131.771015 200.845383 
L 129.483447 200.255455 
L 127.590236 199.840265 
L 127.19588 199.744404 
L 124.908312 199.248257 
L 122.620745 198.833007 
L 120.333177 198.486959 
L 118.04561 198.200473 
L 115.768839 197.966505 
L 115.758042 197.965083 
L 113.470475 197.709995 
L 111.182907 197.506612 
L 108.895339 197.347417 
L 106.607772 197.225402 
L 104.320204 197.133695 
L 102.032637 197.065121 
L 99.745069 197.011709 
L 97.457502 196.964242 
L 95.169934 196.912077 
L 92.882367 196.843609 
L 90.594799 196.747818 
L 88.307231 196.617003 
L 86.019664 196.450041 
L 83.732096 196.254602 
L 81.977187 196.092745 
L 81.444529 196.025458 
L 79.156961 195.734368 
L 76.869394 195.488957 
L 74.581826 195.319346 
L 72.294259 195.252351 
L 70.006691 195.314213 
L 67.719123 195.535781 
L 65.431556 195.959736 
L 64.956489 196.092745 
L 63.143988 196.473599 
L 60.856421 197.196625 
L 59.154473 197.966505 
L 58.568853 198.20483 
L 56.281286 199.435538 
L 55.677632 199.840265 
L 53.993718 201.089341 
L 53.274374 201.714025 
L 51.70615 203.538873 
L 51.665514 203.587784 
L 50.565983 205.461544 
L 50.068595 207.335304 
L 50.07006 209.209063 
L 50.581316 211.082823 
L 51.70615 212.908075 
L 51.735199 212.956583 
L 53.504874 214.830342 
L 53.993718 215.210313 
L 56.281286 216.67583 
L 56.335731 216.704102 
L 58.568853 217.775653 
L 60.856421 218.505618 
L 61.163434 218.577862 
z
M 61.119557 216.704102 
L 60.856421 216.623104 
L 58.568853 215.670817 
L 57.115114 214.830342 
L 56.281286 214.226191 
L 54.826446 212.956583 
L 53.993718 211.794729 
L 53.501138 211.082823 
L 52.867313 209.209063 
L 52.865309 207.335304 
L 53.481408 205.461544 
L 53.993718 204.687609 
L 54.741669 203.587784 
L 56.281286 202.143712 
L 56.821748 201.714025 
L 58.568853 200.581798 
L 60.113151 199.840265 
L 60.856421 199.488547 
L 63.143988 198.678911 
L 65.431556 198.156789 
L 66.793729 197.966505 
L 67.719123 197.804862 
L 70.006691 197.604037 
L 72.294259 197.573561 
L 74.581826 197.682887 
L 76.869394 197.90575 
L 77.342205 197.966505 
L 79.156961 198.153374 
L 81.444529 198.426198 
L 83.732096 198.711873 
L 86.019664 198.983864 
L 88.307231 199.221718 
L 90.594799 199.415183 
L 92.882367 199.564924 
L 95.169934 199.679885 
L 97.457502 199.773259 
L 99.252245 199.840265 
L 99.745069 199.856099 
L 102.032637 199.932807 
L 104.320204 200.023014 
L 106.607772 200.134519 
L 108.895339 200.274163 
L 111.182907 200.448345 
L 113.470475 200.66348 
L 115.758042 200.92639 
L 118.04561 201.24465 
L 120.333177 201.626929 
L 120.789418 201.714025 
L 122.620745 202.074714 
L 124.908312 202.604385 
L 127.19588 203.232288 
L 128.330843 203.587784 
L 129.483447 204.055817 
L 131.771015 205.118741 
L 132.431801 205.461544 
L 134.058583 207.124135 
L 134.252027 207.335304 
L 134.085925 209.209063 
L 134.058583 209.233318 
L 131.804675 211.082823 
L 131.771015 211.09756 
L 129.483447 212.018762 
L 127.19588 212.800808 
L 126.685859 212.956583 
L 124.908312 213.373869 
L 122.620745 213.837356 
L 120.333177 214.231278 
L 118.04561 214.565423 
L 115.906291 214.830342 
L 115.758042 214.847886 
L 113.470475 215.0847 
L 111.182907 215.283042 
L 108.895339 215.448335 
L 106.607772 215.585709 
L 104.320204 215.700371 
L 102.032637 215.798046 
L 99.745069 215.885488 
L 97.457502 215.970943 
L 95.169934 216.064341 
L 92.882367 216.176817 
L 90.594799 216.319136 
L 88.307231 216.498853 
L 86.159591 216.704102 
L 86.019664 216.718826 
L 83.732096 217.004417 
L 81.444529 217.305292 
L 79.156961 217.595688 
L 76.869394 217.848738 
L 74.581826 218.040367 
L 72.294259 218.150205 
L 70.006691 218.159605 
L 67.719123 218.047655 
L 65.431556 217.785696 
L 63.143988 217.329988 
z
" style="fill:#fcbba1;"/>
   </g>
   <g id="PathCollection_4">
    <path clip-path="url(#p1d405ba376)" d="M 63.143988 217.329988 
L 65.431556 217.785696 
L 67.719123 218.047655 
L 70.006691 218.159605 
L 72.294259 218.150205 
L 74.581826 218.040367 
L 76.869394 217.848738 
L 79.156961 217.595688 
L 81.444529 217.305292 
L 83.732096 217.004417 
L 86.019664 216.718826 
L 86.159591 216.704102 
L 88.307231 216.498853 
L 90.594799 216.319136 
L 92.882367 216.176817 
L 95.169934 216.064341 
L 97.457502 215.970943 
L 99.745069 215.885488 
L 102.032637 215.798046 
L 104.320204 215.700371 
L 106.607772 215.585709 
L 108.895339 215.448335 
L 111.182907 215.283042 
L 113.470475 215.0847 
L 115.758042 214.847886 
L 115.906291 214.830342 
L 118.04561 214.565423 
L 120.333177 214.231278 
L 122.620745 213.837356 
L 124.908312 213.373869 
L 126.685859 212.956583 
L 127.19588 212.800808 
L 129.483447 212.018762 
L 131.771015 211.09756 
L 131.804675 211.082823 
L 134.058583 209.233318 
L 134.085925 209.209063 
L 134.252027 207.335304 
L 134.058583 207.124135 
L 132.431801 205.461544 
L 131.771015 205.118741 
L 129.483447 204.055817 
L 128.330843 203.587784 
L 127.19588 203.232288 
L 124.908312 202.604385 
L 122.620745 202.074714 
L 120.789418 201.714025 
L 120.333177 201.626929 
L 118.04561 201.24465 
L 115.758042 200.92639 
L 113.470475 200.66348 
L 111.182907 200.448345 
L 108.895339 200.274163 
L 106.607772 200.134519 
L 104.320204 200.023014 
L 102.032637 199.932807 
L 99.745069 199.856099 
L 99.252245 199.840265 
L 97.457502 199.773259 
L 95.169934 199.679885 
L 92.882367 199.564924 
L 90.594799 199.415183 
L 88.307231 199.221718 
L 86.019664 198.983864 
L 83.732096 198.711873 
L 81.444529 198.426198 
L 79.156961 198.153374 
L 77.342205 197.966505 
L 76.869394 197.90575 
L 74.581826 197.682887 
L 72.294259 197.573561 
L 70.006691 197.604037 
L 67.719123 197.804862 
L 66.793729 197.966505 
L 65.431556 198.156789 
L 63.143988 198.678911 
L 60.856421 199.488547 
L 60.113151 199.840265 
L 58.568853 200.581798 
L 56.821748 201.714025 
L 56.281286 202.143712 
L 54.741669 203.587784 
L 53.993718 204.687609 
L 53.481408 205.461544 
L 52.865309 207.335304 
L 52.867313 209.209063 
L 53.501138 211.082823 
L 53.993718 211.794729 
L 54.826446 212.956583 
L 56.281286 214.226191 
L 57.115114 214.830342 
L 58.568853 215.670817 
L 60.856421 216.623104 
L 61.119557 216.704102 
z
M 68.809399 216.704102 
L 67.719123 216.641357 
L 65.431556 216.337585 
L 63.143988 215.80914 
L 60.856421 214.975351 
L 60.551549 214.830342 
L 58.568853 213.697573 
L 57.571716 212.956583 
L 56.281286 211.488779 
L 55.959704 211.082823 
L 55.215162 209.209063 
L 55.212563 207.335304 
L 55.935547 205.461544 
L 56.281286 205.004994 
L 57.46207 203.587784 
L 58.568853 202.702635 
L 60.141707 201.714025 
L 60.856421 201.331884 
L 63.143988 200.417719 
L 65.394727 199.840265 
L 65.431556 199.83017 
L 67.719123 199.423903 
L 70.006691 199.234766 
L 72.294259 199.220428 
L 74.581826 199.350515 
L 76.869394 199.598719 
L 78.531436 199.840265 
L 79.156961 199.922327 
L 81.444529 200.257418 
L 83.732096 200.608179 
L 86.019664 200.943229 
L 88.307231 201.238242 
L 90.594799 201.480891 
L 92.882367 201.671726 
L 93.541845 201.714025 
L 95.169934 201.819039 
L 97.457502 201.939824 
L 99.745069 202.050845 
L 102.032637 202.166617 
L 104.320204 202.299446 
L 106.607772 202.459652 
L 108.895339 202.656197 
L 111.182907 202.897387 
L 113.470475 203.191508 
L 115.758042 203.547356 
L 115.983141 203.587784 
L 118.04561 204.054265 
L 120.333177 204.66912 
L 122.620745 205.399461 
L 122.794403 205.461544 
L 124.908312 206.907073 
L 125.467594 207.335304 
L 125.254921 209.209063 
L 124.908312 209.428496 
L 122.620745 210.730372 
L 121.918332 211.082823 
L 120.333177 211.519551 
L 118.04561 212.063008 
L 115.758042 212.522623 
L 113.470475 212.909673 
L 113.148198 212.956583 
L 111.182907 213.183612 
L 108.895339 213.404807 
L 106.607772 213.588631 
L 104.320204 213.742049 
L 102.032637 213.872728 
L 99.745069 213.989712 
L 97.457502 214.104046 
L 95.169934 214.229036 
L 92.882367 214.379614 
L 90.594799 214.570219 
L 88.307231 214.81101 
L 88.161977 214.830342 
L 86.019664 215.101678 
L 83.732096 215.432512 
L 81.444529 215.781112 
L 79.156961 216.117623 
L 76.869394 216.410895 
L 74.581826 216.633004 
L 73.319027 216.704102 
L 72.294259 216.768745 
L 70.006691 216.781245 
z
" style="fill:#fc9b7c;"/>
   </g>
   <g id="PathCollection_5">
    <path clip-path="url(#p1d405ba376)" d="M 70.006691 216.781245 
L 72.294259 216.768745 
L 73.319027 216.704102 
L 74.581826 216.633004 
L 76.869394 216.410895 
L 79.156961 216.117623 
L 81.444529 215.781112 
L 83.732096 215.432512 
L 86.019664 215.101678 
L 88.161977 214.830342 
L 88.307231 214.81101 
L 90.594799 214.570219 
L 92.882367 214.379614 
L 95.169934 214.229036 
L 97.457502 214.104046 
L 99.745069 213.989712 
L 102.032637 213.872728 
L 104.320204 213.742049 
L 106.607772 213.588631 
L 108.895339 213.404807 
L 111.182907 213.183612 
L 113.148198 212.956583 
L 113.470475 212.909673 
L 115.758042 212.522623 
L 118.04561 212.063008 
L 120.333177 211.519551 
L 121.918332 211.082823 
L 122.620745 210.730372 
L 124.908312 209.428496 
L 125.254921 209.209063 
L 125.467594 207.335304 
L 124.908312 206.907073 
L 122.794403 205.461544 
L 122.620745 205.399461 
L 120.333177 204.66912 
L 118.04561 204.054265 
L 115.983141 203.587784 
L 115.758042 203.547356 
L 113.470475 203.191508 
L 111.182907 202.897387 
L 108.895339 202.656197 
L 106.607772 202.459652 
L 104.320204 202.299446 
L 102.032637 202.166617 
L 99.745069 202.050845 
L 97.457502 201.939824 
L 95.169934 201.819039 
L 93.541845 201.714025 
L 92.882367 201.671726 
L 90.594799 201.480891 
L 88.307231 201.238242 
L 86.019664 200.943229 
L 83.732096 200.608179 
L 81.444529 200.257418 
L 79.156961 199.922327 
L 78.531436 199.840265 
L 76.869394 199.598719 
L 74.581826 199.350515 
L 72.294259 199.220428 
L 70.006691 199.234766 
L 67.719123 199.423903 
L 65.431556 199.83017 
L 65.394727 199.840265 
L 63.143988 200.417719 
L 60.856421 201.331884 
L 60.141707 201.714025 
L 58.568853 202.702635 
L 57.46207 203.587784 
L 56.281286 205.004994 
L 55.935547 205.461544 
L 55.212563 207.335304 
L 55.215162 209.209063 
L 55.959704 211.082823 
L 56.281286 211.488779 
L 57.571716 212.956583 
L 58.568853 213.697573 
L 60.551549 214.830342 
L 60.856421 214.975351 
L 63.143988 215.80914 
L 65.431556 216.337585 
L 67.719123 216.641357 
L 68.809399 216.704102 
z
M 64.691204 214.830342 
L 63.143988 214.366603 
L 60.856421 213.316906 
L 60.26704 212.956583 
L 58.568853 211.433505 
L 58.242615 211.082823 
L 57.364124 209.209063 
L 57.360715 207.335304 
L 58.212684 205.461544 
L 58.568853 205.060645 
L 60.122421 203.587784 
L 60.856421 203.103932 
L 63.143988 201.980333 
L 63.942669 201.714025 
L 65.431556 201.256252 
L 67.719123 200.830184 
L 70.006691 200.636982 
L 72.294259 200.63182 
L 74.581826 200.782509 
L 76.869394 201.06101 
L 79.156961 201.437063 
L 80.639181 201.714025 
L 81.444529 201.87212 
L 83.732096 202.322773 
L 86.019664 202.753768 
L 88.307231 203.134392 
L 90.594799 203.449023 
L 91.885905 203.587784 
L 92.882367 203.721042 
L 95.169934 203.958329 
L 97.457502 204.155399 
L 99.745069 204.336734 
L 102.032637 204.524549 
L 104.320204 204.737625 
L 106.607772 204.991634 
L 108.895339 205.300119 
L 109.895353 205.461544 
L 111.182907 205.845271 
L 113.470475 206.661752 
L 115.055477 207.335304 
L 114.721585 209.209063 
L 113.470475 209.658997 
L 111.182907 210.359955 
L 108.895339 210.944911 
L 108.257332 211.082823 
L 106.607772 211.283578 
L 104.320204 211.517378 
L 102.032637 211.716508 
L 99.745069 211.894772 
L 97.457502 212.069046 
L 95.169934 212.25968 
L 92.882367 212.48954 
L 90.594799 212.780783 
L 89.522339 212.956583 
L 88.307231 213.113665 
L 86.019664 213.478576 
L 83.732096 213.894241 
L 81.444529 214.332399 
L 79.156961 214.75551 
L 78.712921 214.830342 
L 76.869394 215.122457 
L 74.581826 215.399989 
L 72.294259 215.559038 
L 70.006691 215.572557 
L 67.719123 215.410214 
L 65.431556 215.030454 
z
" style="fill:#fb7a5a;"/>
   </g>
   <g id="PathCollection_6">
    <path clip-path="url(#p1d405ba376)" d="M 65.431556 215.030454 
L 67.719123 215.410214 
L 70.006691 215.572557 
L 72.294259 215.559038 
L 74.581826 215.399989 
L 76.869394 215.122457 
L 78.712921 214.830342 
L 79.156961 214.75551 
L 81.444529 214.332399 
L 83.732096 213.894241 
L 86.019664 213.478576 
L 88.307231 213.113665 
L 89.522339 212.956583 
L 90.594799 212.780783 
L 92.882367 212.48954 
L 95.169934 212.25968 
L 97.457502 212.069046 
L 99.745069 211.894772 
L 102.032637 211.716508 
L 104.320204 211.517378 
L 106.607772 211.283578 
L 108.257332 211.082823 
L 108.895339 210.944911 
L 111.182907 210.359955 
L 113.470475 209.658997 
L 114.721585 209.209063 
L 115.055477 207.335304 
L 113.470475 206.661752 
L 111.182907 205.845271 
L 109.895353 205.461544 
L 108.895339 205.300119 
L 106.607772 204.991634 
L 104.320204 204.737625 
L 102.032637 204.524549 
L 99.745069 204.336734 
L 97.457502 204.155399 
L 95.169934 203.958329 
L 92.882367 203.721042 
L 91.885905 203.587784 
L 90.594799 203.449023 
L 88.307231 203.134392 
L 86.019664 202.753768 
L 83.732096 202.322773 
L 81.444529 201.87212 
L 80.639181 201.714025 
L 79.156961 201.437063 
L 76.869394 201.06101 
L 74.581826 200.782509 
L 72.294259 200.63182 
L 70.006691 200.636982 
L 67.719123 200.830184 
L 65.431556 201.256252 
L 63.942669 201.714025 
L 63.143988 201.980333 
L 60.856421 203.103932 
L 60.122421 203.587784 
L 58.568853 205.060645 
L 58.212684 205.461544 
L 57.360715 207.335304 
L 57.364124 209.209063 
L 58.242615 211.082823 
L 58.568853 211.433505 
L 60.26704 212.956583 
L 60.856421 213.316906 
L 63.143988 214.366603 
L 64.691204 214.830342 
z
M 63.247096 212.956583 
L 63.143988 212.908071 
L 60.856421 211.358719 
L 60.544431 211.082823 
L 59.46983 209.209063 
L 59.465141 207.335304 
L 60.50554 205.461544 
L 60.856421 205.136169 
L 63.023246 203.587784 
L 63.143988 203.525271 
L 65.431556 202.667532 
L 67.719123 202.168078 
L 70.006691 201.945611 
L 72.294259 201.947223 
L 74.581826 202.134895 
L 76.869394 202.475374 
L 79.156961 202.932583 
L 81.444529 203.463467 
L 81.982226 203.587784 
L 83.732096 204.108117 
L 86.019664 204.75003 
L 88.307231 205.318234 
L 89.022032 205.461544 
L 90.594799 206.04437 
L 92.882367 206.712506 
L 95.169934 207.244243 
L 95.646322 207.335304 
L 95.169934 209.0313 
L 95.130383 209.209063 
L 92.882367 209.679037 
L 90.594799 210.287251 
L 88.307231 211.05898 
L 88.251565 211.082823 
L 86.019664 211.604795 
L 83.732096 212.215492 
L 81.444529 212.859876 
L 81.106755 212.956583 
L 79.156961 213.385167 
L 76.869394 213.827493 
L 74.581826 214.162539 
L 72.294259 214.354548 
L 70.006691 214.370781 
L 67.719123 214.17453 
L 65.431556 213.715538 
z
" style="fill:#f6583e;"/>
   </g>
   <g id="PathCollection_7">
    <path clip-path="url(#p1d405ba376)" d="M 65.431556 213.715538 
L 67.719123 214.17453 
L 70.006691 214.370781 
L 72.294259 214.354548 
L 74.581826 214.162539 
L 76.869394 213.827493 
L 79.156961 213.385167 
L 81.106755 212.956583 
L 81.444529 212.859876 
L 83.732096 212.215492 
L 86.019664 211.604795 
L 88.251565 211.082823 
L 88.307231 211.05898 
L 90.594799 210.287251 
L 92.882367 209.679037 
L 95.130383 209.209063 
L 95.169934 209.0313 
L 95.646322 207.335304 
L 95.169934 207.244243 
L 92.882367 206.712506 
L 90.594799 206.04437 
L 89.022032 205.461544 
L 88.307231 205.318234 
L 86.019664 204.75003 
L 83.732096 204.108117 
L 81.982226 203.587784 
L 81.444529 203.463467 
L 79.156961 202.932583 
L 76.869394 202.475374 
L 74.581826 202.134895 
L 72.294259 201.947223 
L 70.006691 201.945611 
L 67.719123 202.168078 
L 65.431556 202.667532 
L 63.143988 203.525271 
L 63.023246 203.587784 
L 60.856421 205.136169 
L 60.50554 205.461544 
L 59.465141 207.335304 
L 59.46983 209.209063 
L 60.544431 211.082823 
L 60.856421 211.358719 
L 63.143988 212.908071 
L 63.247096 212.956583 
z
M 67.931381 212.956583 
L 67.719123 212.929806 
L 65.431556 212.271211 
L 63.143988 211.125504 
L 63.082361 211.082823 
L 61.683765 209.209063 
L 61.676756 207.335304 
L 63.027548 205.461544 
L 63.143988 205.376809 
L 65.431556 204.172764 
L 67.328727 203.587784 
L 67.719123 203.493674 
L 70.006691 203.239036 
L 72.294259 203.247073 
L 74.581826 203.473597 
L 75.247145 203.587784 
L 76.869394 203.940281 
L 79.156961 204.596594 
L 81.444529 205.357954 
L 81.758818 205.461544 
L 83.732096 206.687676 
L 84.859435 207.335304 
L 84.749151 209.209063 
L 83.732096 209.748197 
L 81.444529 211.069012 
L 81.421232 211.082823 
L 79.156961 211.800485 
L 76.869394 212.433452 
L 74.581826 212.91321 
L 74.228827 212.956583 
L 72.294259 213.145102 
L 70.006691 213.163886 
z
" style="fill:#e83429;"/>
   </g>
   <g id="PathCollection_8">
    <path clip-path="url(#p1d405ba376)" d="M 70.006691 213.163886 
L 72.294259 213.145102 
L 74.228827 212.956583 
L 74.581826 212.91321 
L 76.869394 212.433452 
L 79.156961 211.800485 
L 81.421232 211.082823 
L 81.444529 211.069012 
L 83.732096 209.748197 
L 84.749151 209.209063 
L 84.859435 207.335304 
L 83.732096 206.687676 
L 81.758818 205.461544 
L 81.444529 205.357954 
L 79.156961 204.596594 
L 76.869394 203.940281 
L 75.247145 203.587784 
L 74.581826 203.473597 
L 72.294259 203.247073 
L 70.006691 203.239036 
L 67.719123 203.493674 
L 67.328727 203.587784 
L 65.431556 204.172764 
L 63.143988 205.376809 
L 63.027548 205.461544 
L 61.676756 207.335304 
L 61.683765 209.209063 
L 63.082361 211.082823 
L 63.143988 211.125504 
L 65.431556 212.271211 
L 67.719123 212.929806 
L 67.931381 212.956583 
z
M 66.70475 211.082823 
L 65.431556 210.318335 
L 64.286396 209.209063 
L 64.274366 207.335304 
L 65.431556 206.174873 
L 66.569699 205.461544 
L 67.719123 205.07395 
L 70.006691 204.727815 
L 72.294259 204.745252 
L 74.581826 205.065475 
L 76.195294 205.461544 
L 76.869394 205.767236 
L 79.156961 207.109247 
L 79.507692 207.335304 
L 79.438652 209.209063 
L 79.156961 209.379622 
L 76.869394 210.654732 
L 75.882479 211.082823 
L 74.581826 211.388271 
L 72.294259 211.701951 
L 70.006691 211.727865 
L 67.719123 211.405605 
z
" style="fill:#ca181d;"/>
   </g>
   <g id="PathCollection_9">
    <path clip-path="url(#p1d405ba376)" d="M 67.719123 211.405605 
L 70.006691 211.727865 
L 72.294259 211.701951 
L 74.581826 211.388271 
L 75.882479 211.082823 
L 76.869394 210.654732 
L 79.156961 209.379622 
L 79.438652 209.209063 
L 79.507692 207.335304 
L 79.156961 207.109247 
L 76.869394 205.767236 
L 76.195294 205.461544 
L 74.581826 205.065475 
L 72.294259 204.745252 
L 70.006691 204.727815 
L 67.719123 205.07395 
L 66.569699 205.461544 
L 65.431556 206.174873 
L 64.274366 207.335304 
L 64.286396 209.209063 
L 65.431556 210.318335 
L 66.70475 211.082823 
z
M 68.624323 209.209063 
L 68.564169 207.335304 
L 70.006691 206.913736 
L 72.294259 206.959122 
L 73.641041 207.335304 
L 73.544935 209.209063 
L 72.294259 209.545429 
L 70.006691 209.594895 
z
" style="fill:#ac1117;"/>
   </g>
   <g id="PathCollection_10">
    <path clip-path="url(#p1d405ba376)" d="M 70.006691 209.594895 
L 72.294259 209.545429 
L 73.544935 209.209063 
L 73.641041 207.335304 
L 72.294259 206.959122 
L 70.006691 206.913736 
L 68.564169 207.335304 
L 68.624323 209.209063 
z
" style="fill:#7e0610;"/>
   </g>
   <g id="matplotlib.axis_1">
    <g id="xtick_1">
     <g id="line2d_1">
      <defs>
       <path d="M 0 0 
L 0 3.5 
" id="m5a7b0a94d7" style="stroke:#262626;stroke-width:0.8;"/>
      </defs>
      <g>
       <use style="fill:#262626;stroke:#262626;stroke-width:0.8;" x="67.334837" xlink:href="#m5a7b0a94d7" y="223"/>
      </g>
     </g>
     <g id="line2d_2">
      <defs>
       <path d="M 0 0 
L 0 -3.5 
" id="me805908261" style="stroke:#262626;stroke-width:0.8;"/>
      </defs>
      <g>
       <use style="fill:#262626;stroke:#262626;stroke-width:0.8;" x="67.334837" xlink:href="#me805908261" y="25.44"/>
      </g>
     </g>
     <g id="text_1">
      <!-- 0.0 -->
      <defs>
       <path d="M 31.78125 66.40625 
Q 24.171875 66.40625 20.328125 58.90625 
Q 16.5 51.421875 16.5 36.375 
Q 16.5 21.390625 20.328125 13.890625 
Q 24.171875 6.390625 31.78125 6.390625 
Q 39.453125 6.390625 43.28125 13.890625 
Q 47.125 21.390625 47.125 36.375 
Q 47.125 51.421875 43.28125 58.90625 
Q 39.453125 66.40625 31.78125 66.40625 
z
M 31.78125 74.21875 
Q 44.046875 74.21875 50.515625 64.515625 
Q 56.984375 54.828125 56.984375 36.375 
Q 56.984375 17.96875 50.515625 8.265625 
Q 44.046875 -1.421875 31.78125 -1.421875 
Q 19.53125 -1.421875 13.0625 8.265625 
Q 6.59375 17.96875 6.59375 36.375 
Q 6.59375 54.828125 13.0625 64.515625 
Q 19.53125 74.21875 31.78125 74.21875 
z
" id="DejaVuSans-30"/>
       <path d="M 10.6875 12.40625 
L 21 12.40625 
L 21 0 
L 10.6875 0 
z
" id="DejaVuSans-2e"/>
      </defs>
      <g style="fill:#262626;" transform="translate(58.588118 238.358281)scale(0.11 -0.11)">
       <use xlink:href="#DejaVuSans-30"/>
       <use x="63.623047" xlink:href="#DejaVuSans-2e"/>
       <use x="95.410156" xlink:href="#DejaVuSans-30"/>
      </g>
     </g>
    </g>
    <g id="xtick_2">
     <g id="line2d_3">
      <g>
       <use style="fill:#262626;stroke:#262626;stroke-width:0.8;" x="137.649636" xlink:href="#m5a7b0a94d7" y="223"/>
      </g>
     </g>
     <g id="line2d_4">
      <g>
       <use style="fill:#262626;stroke:#262626;stroke-width:0.8;" x="137.649636" xlink:href="#me805908261" y="25.44"/>
      </g>
     </g>
     <g id="text_2">
      <!-- 1.0 -->
      <defs>
       <path d="M 12.40625 8.296875 
L 28.515625 8.296875 
L 28.515625 63.921875 
L 10.984375 60.40625 
L 10.984375 69.390625 
L 28.421875 72.90625 
L 38.28125 72.90625 
L 38.28125 8.296875 
L 54.390625 8.296875 
L 54.390625 0 
L 12.40625 0 
z
" id="DejaVuSans-31"/>
      </defs>
      <g style="fill:#262626;" transform="translate(128.902917 238.358281)scale(0.11 -0.11)">
       <use xlink:href="#DejaVuSans-31"/>
       <use x="63.623047" xlink:href="#DejaVuSans-2e"/>
       <use x="95.410156" xlink:href="#DejaVuSans-30"/>
      </g>
     </g>
    </g>
    <g id="xtick_3">
     <g id="line2d_5">
      <g>
       <use style="fill:#262626;stroke:#262626;stroke-width:0.8;" x="207.964434" xlink:href="#m5a7b0a94d7" y="223"/>
      </g>
     </g>
     <g id="line2d_6">
      <g>
       <use style="fill:#262626;stroke:#262626;stroke-width:0.8;" x="207.964434" xlink:href="#me805908261" y="25.44"/>
      </g>
     </g>
     <g id="text_3">
      <!-- 2.0 -->
      <defs>
       <path d="M 19.1875 8.296875 
L 53.609375 8.296875 
L 53.609375 0 
L 7.328125 0 
L 7.328125 8.296875 
Q 12.9375 14.109375 22.625 23.890625 
Q 32.328125 33.6875 34.8125 36.53125 
Q 39.546875 41.84375 41.421875 45.53125 
Q 43.3125 49.21875 43.3125 52.78125 
Q 43.3125 58.59375 39.234375 62.25 
Q 35.15625 65.921875 28.609375 65.921875 
Q 23.96875 65.921875 18.8125 64.3125 
Q 13.671875 62.703125 7.8125 59.421875 
L 7.8125 69.390625 
Q 13.765625 71.78125 18.9375 73 
Q 24.125 74.21875 28.421875 74.21875 
Q 39.75 74.21875 46.484375 68.546875 
Q 53.21875 62.890625 53.21875 53.421875 
Q 53.21875 48.921875 51.53125 44.890625 
Q 49.859375 40.875 45.40625 35.40625 
Q 44.1875 33.984375 37.640625 27.21875 
Q 31.109375 20.453125 19.1875 8.296875 
z
" id="DejaVuSans-32"/>
      </defs>
      <g style="fill:#262626;" transform="translate(199.217716 238.358281)scale(0.11 -0.11)">
       <use xlink:href="#DejaVuSans-32"/>
       <use x="63.623047" xlink:href="#DejaVuSans-2e"/>
       <use x="95.410156" xlink:href="#DejaVuSans-30"/>
      </g>
     </g>
    </g>
    <g id="text_4">
     <!-- log10 counts (Control) -->
     <defs>
      <path d="M 9.421875 75.984375 
L 18.40625 75.984375 
L 18.40625 0 
L 9.421875 0 
z
" id="DejaVuSans-6c"/>
      <path d="M 30.609375 48.390625 
Q 23.390625 48.390625 19.1875 42.75 
Q 14.984375 37.109375 14.984375 27.296875 
Q 14.984375 17.484375 19.15625 11.84375 
Q 23.34375 6.203125 30.609375 6.203125 
Q 37.796875 6.203125 41.984375 11.859375 
Q 46.1875 17.53125 46.1875 27.296875 
Q 46.1875 37.015625 41.984375 42.703125 
Q 37.796875 48.390625 30.609375 48.390625 
z
M 30.609375 56 
Q 42.328125 56 49.015625 48.375 
Q 55.71875 40.765625 55.71875 27.296875 
Q 55.71875 13.875 49.015625 6.21875 
Q 42.328125 -1.421875 30.609375 -1.421875 
Q 18.84375 -1.421875 12.171875 6.21875 
Q 5.515625 13.875 5.515625 27.296875 
Q 5.515625 40.765625 12.171875 48.375 
Q 18.84375 56 30.609375 56 
z
" id="DejaVuSans-6f"/>
      <path d="M 45.40625 27.984375 
Q 45.40625 37.75 41.375 43.109375 
Q 37.359375 48.484375 30.078125 48.484375 
Q 22.859375 48.484375 18.828125 43.109375 
Q 14.796875 37.75 14.796875 27.984375 
Q 14.796875 18.265625 18.828125 12.890625 
Q 22.859375 7.515625 30.078125 7.515625 
Q 37.359375 7.515625 41.375 12.890625 
Q 45.40625 18.265625 45.40625 27.984375 
z
M 54.390625 6.78125 
Q 54.390625 -7.171875 48.1875 -13.984375 
Q 42 -20.796875 29.203125 -20.796875 
Q 24.46875 -20.796875 20.265625 -20.09375 
Q 16.0625 -19.390625 12.109375 -17.921875 
L 12.109375 -9.1875 
Q 16.0625 -11.328125 19.921875 -12.34375 
Q 23.78125 -13.375 27.78125 -13.375 
Q 36.625 -13.375 41.015625 -8.765625 
Q 45.40625 -4.15625 45.40625 5.171875 
L 45.40625 9.625 
Q 42.625 4.78125 38.28125 2.390625 
Q 33.9375 0 27.875 0 
Q 17.828125 0 11.671875 7.65625 
Q 5.515625 15.328125 5.515625 27.984375 
Q 5.515625 40.671875 11.671875 48.328125 
Q 17.828125 56 27.875 56 
Q 33.9375 56 38.28125 53.609375 
Q 42.625 51.21875 45.40625 46.390625 
L 45.40625 54.6875 
L 54.390625 54.6875 
z
" id="DejaVuSans-67"/>
      <path id="DejaVuSans-20"/>
      <path d="M 48.78125 52.59375 
L 48.78125 44.1875 
Q 44.96875 46.296875 41.140625 47.34375 
Q 37.3125 48.390625 33.40625 48.390625 
Q 24.65625 48.390625 19.8125 42.84375 
Q 14.984375 37.3125 14.984375 27.296875 
Q 14.984375 17.28125 19.8125 11.734375 
Q 24.65625 6.203125 33.40625 6.203125 
Q 37.3125 6.203125 41.140625 7.25 
Q 44.96875 8.296875 48.78125 10.40625 
L 48.78125 2.09375 
Q 45.015625 0.34375 40.984375 -0.53125 
Q 36.96875 -1.421875 32.421875 -1.421875 
Q 20.0625 -1.421875 12.78125 6.34375 
Q 5.515625 14.109375 5.515625 27.296875 
Q 5.515625 40.671875 12.859375 48.328125 
Q 20.21875 56 33.015625 56 
Q 37.15625 56 41.109375 55.140625 
Q 45.0625 54.296875 48.78125 52.59375 
z
" id="DejaVuSans-63"/>
      <path d="M 8.5 21.578125 
L 8.5 54.6875 
L 17.484375 54.6875 
L 17.484375 21.921875 
Q 17.484375 14.15625 20.5 10.265625 
Q 23.53125 6.390625 29.59375 6.390625 
Q 36.859375 6.390625 41.078125 11.03125 
Q 45.3125 15.671875 45.3125 23.6875 
L 45.3125 54.6875 
L 54.296875 54.6875 
L 54.296875 0 
L 45.3125 0 
L 45.3125 8.40625 
Q 42.046875 3.421875 37.71875 1 
Q 33.40625 -1.421875 27.6875 -1.421875 
Q 18.265625 -1.421875 13.375 4.4375 
Q 8.5 10.296875 8.5 21.578125 
z
M 31.109375 56 
z
" id="DejaVuSans-75"/>
      <path d="M 54.890625 33.015625 
L 54.890625 0 
L 45.90625 0 
L 45.90625 32.71875 
Q 45.90625 40.484375 42.875 44.328125 
Q 39.84375 48.1875 33.796875 48.1875 
Q 26.515625 48.1875 22.3125 43.546875 
Q 18.109375 38.921875 18.109375 30.90625 
L 18.109375 0 
L 9.078125 0 
L 9.078125 54.6875 
L 18.109375 54.6875 
L 18.109375 46.1875 
Q 21.34375 51.125 25.703125 53.5625 
Q 30.078125 56 35.796875 56 
Q 45.21875 56 50.046875 50.171875 
Q 54.890625 44.34375 54.890625 33.015625 
z
" id="DejaVuSans-6e"/>
      <path d="M 18.3125 70.21875 
L 18.3125 54.6875 
L 36.8125 54.6875 
L 36.8125 47.703125 
L 18.3125 47.703125 
L 18.3125 18.015625 
Q 18.3125 11.328125 20.140625 9.421875 
Q 21.96875 7.515625 27.59375 7.515625 
L 36.8125 7.515625 
L 36.8125 0 
L 27.59375 0 
Q 17.1875 0 13.234375 3.875 
Q 9.28125 7.765625 9.28125 18.015625 
L 9.28125 47.703125 
L 2.6875 47.703125 
L 2.6875 54.6875 
L 9.28125 54.6875 
L 9.28125 70.21875 
z
" id="DejaVuSans-74"/>
      <path d="M 44.28125 53.078125 
L 44.28125 44.578125 
Q 40.484375 46.53125 36.375 47.5 
Q 32.28125 48.484375 27.875 48.484375 
Q 21.1875 48.484375 17.84375 46.4375 
Q 14.5 44.390625 14.5 40.28125 
Q 14.5 37.15625 16.890625 35.375 
Q 19.28125 33.59375 26.515625 31.984375 
L 29.59375 31.296875 
Q 39.15625 29.25 43.1875 25.515625 
Q 47.21875 21.78125 47.21875 15.09375 
Q 47.21875 7.46875 41.1875 3.015625 
Q 35.15625 -1.421875 24.609375 -1.421875 
Q 20.21875 -1.421875 15.453125 -0.5625 
Q 10.6875 0.296875 5.421875 2 
L 5.421875 11.28125 
Q 10.40625 8.6875 15.234375 7.390625 
Q 20.0625 6.109375 24.8125 6.109375 
Q 31.15625 6.109375 34.5625 8.28125 
Q 37.984375 10.453125 37.984375 14.40625 
Q 37.984375 18.0625 35.515625 20.015625 
Q 33.0625 21.96875 24.703125 23.78125 
L 21.578125 24.515625 
Q 13.234375 26.265625 9.515625 29.90625 
Q 5.8125 33.546875 5.8125 39.890625 
Q 5.8125 47.609375 11.28125 51.796875 
Q 16.75 56 26.8125 56 
Q 31.78125 56 36.171875 55.265625 
Q 40.578125 54.546875 44.28125 53.078125 
z
" id="DejaVuSans-73"/>
      <path d="M 31 75.875 
Q 24.46875 64.65625 21.28125 53.65625 
Q 18.109375 42.671875 18.109375 31.390625 
Q 18.109375 20.125 21.3125 9.0625 
Q 24.515625 -2 31 -13.1875 
L 23.1875 -13.1875 
Q 15.875 -1.703125 12.234375 9.375 
Q 8.59375 20.453125 8.59375 31.390625 
Q 8.59375 42.28125 12.203125 53.3125 
Q 15.828125 64.359375 23.1875 75.875 
z
" id="DejaVuSans-28"/>
      <path d="M 64.40625 67.28125 
L 64.40625 56.890625 
Q 59.421875 61.53125 53.78125 63.8125 
Q 48.140625 66.109375 41.796875 66.109375 
Q 29.296875 66.109375 22.65625 58.46875 
Q 16.015625 50.828125 16.015625 36.375 
Q 16.015625 21.96875 22.65625 14.328125 
Q 29.296875 6.6875 41.796875 6.6875 
Q 48.140625 6.6875 53.78125 8.984375 
Q 59.421875 11.28125 64.40625 15.921875 
L 64.40625 5.609375 
Q 59.234375 2.09375 53.4375 0.328125 
Q 47.65625 -1.421875 41.21875 -1.421875 
Q 24.65625 -1.421875 15.125 8.703125 
Q 5.609375 18.84375 5.609375 36.375 
Q 5.609375 53.953125 15.125 64.078125 
Q 24.65625 74.21875 41.21875 74.21875 
Q 47.75 74.21875 53.53125 72.484375 
Q 59.328125 70.75 64.40625 67.28125 
z
" id="DejaVuSans-43"/>
      <path d="M 41.109375 46.296875 
Q 39.59375 47.171875 37.8125 47.578125 
Q 36.03125 48 33.890625 48 
Q 26.265625 48 22.1875 43.046875 
Q 18.109375 38.09375 18.109375 28.8125 
L 18.109375 0 
L 9.078125 0 
L 9.078125 54.6875 
L 18.109375 54.6875 
L 18.109375 46.1875 
Q 20.953125 51.171875 25.484375 53.578125 
Q 30.03125 56 36.53125 56 
Q 37.453125 56 38.578125 55.875 
Q 39.703125 55.765625 41.0625 55.515625 
z
" id="DejaVuSans-72"/>
      <path d="M 8.015625 75.875 
L 15.828125 75.875 
Q 23.140625 64.359375 26.78125 53.3125 
Q 30.421875 42.28125 30.421875 31.390625 
Q 30.421875 20.453125 26.78125 9.375 
Q 23.140625 -1.703125 15.828125 -13.1875 
L 8.015625 -13.1875 
Q 14.5 -2 17.703125 9.0625 
Q 20.90625 20.125 20.90625 31.390625 
Q 20.90625 42.671875 17.703125 53.65625 
Q 14.5 64.65625 8.015625 75.875 
z
" id="DejaVuSans-29"/>
     </defs>
     <g transform="translate(83.294531 253.004219)scale(0.11 -0.11)">
      <use xlink:href="#DejaVuSans-6c"/>
      <use x="27.783203" xlink:href="#DejaVuSans-6f"/>
      <use x="88.964844" xlink:href="#DejaVuSans-67"/>
      <use x="152.441406" xlink:href="#DejaVuSans-31"/>
      <use x="216.064453" xlink:href="#DejaVuSans-30"/>
      <use x="279.6875" xlink:href="#DejaVuSans-20"/>
      <use x="311.474609" xlink:href="#DejaVuSans-63"/>
      <use x="366.455078" xlink:href="#DejaVuSans-6f"/>
      <use x="427.636719" xlink:href="#DejaVuSans-75"/>
      <use x="491.015625" xlink:href="#DejaVuSans-6e"/>
      <use x="554.394531" xlink:href="#DejaVuSans-74"/>
      <use x="593.603516" xlink:href="#DejaVuSans-73"/>
      <use x="645.703125" xlink:href="#DejaVuSans-20"/>
      <use x="677.490234" xlink:href="#DejaVuSans-28"/>
      <use x="716.503906" xlink:href="#DejaVuSans-43"/>
      <use x="786.328125" xlink:href="#DejaVuSans-6f"/>
      <use x="847.509766" xlink:href="#DejaVuSans-6e"/>
      <use x="910.888672" xlink:href="#DejaVuSans-74"/>
      <use x="950.097656" xlink:href="#DejaVuSans-72"/>
      <use x="991.179688" xlink:href="#DejaVuSans-6f"/>
      <use x="1052.361328" xlink:href="#DejaVuSans-6c"/>
      <use x="1080.144531" xlink:href="#DejaVuSans-29"/>
     </g>
    </g>
   </g>
   <g id="matplotlib.axis_2">
    <g id="ytick_1">
     <g id="line2d_7">
      <defs>
       <path d="M 0 0 
L -3.5 0 
" id="mae92c8fee9" style="stroke:#262626;stroke-width:0.8;"/>
      </defs>
      <g>
       <use style="fill:#262626;stroke:#262626;stroke-width:0.8;" x="51.01625" xlink:href="#mae92c8fee9" y="208.365926"/>
      </g>
     </g>
     <g id="line2d_8">
      <defs>
       <path d="M 0 0 
L 3.5 0 
" id="m7b0180fc32" style="stroke:#262626;stroke-width:0.8;"/>
      </defs>
      <g>
       <use style="fill:#262626;stroke:#262626;stroke-width:0.8;" x="238.68" xlink:href="#m7b0180fc32" y="208.365926"/>
      </g>
     </g>
     <g id="text_5">
      <!-- 0.0 -->
      <g style="fill:#262626;" transform="translate(26.522813 212.545067)scale(0.11 -0.11)">
       <use xlink:href="#DejaVuSans-30"/>
       <use x="63.623047" xlink:href="#DejaVuSans-2e"/>
       <use x="95.410156" xlink:href="#DejaVuSans-30"/>
      </g>
     </g>
    </g>
    <g id="ytick_2">
     <g id="line2d_9">
      <g>
       <use style="fill:#262626;stroke:#262626;stroke-width:0.8;" x="51.01625" xlink:href="#mae92c8fee9" y="164.853183"/>
      </g>
     </g>
     <g id="line2d_10">
      <g>
       <use style="fill:#262626;stroke:#262626;stroke-width:0.8;" x="238.68" xlink:href="#m7b0180fc32" y="164.853183"/>
      </g>
     </g>
     <g id="text_6">
      <!-- 1.0 -->
      <g style="fill:#262626;" transform="translate(26.522813 169.032324)scale(0.11 -0.11)">
       <use xlink:href="#DejaVuSans-31"/>
       <use x="63.623047" xlink:href="#DejaVuSans-2e"/>
       <use x="95.410156" xlink:href="#DejaVuSans-30"/>
      </g>
     </g>
    </g>
    <g id="ytick_3">
     <g id="line2d_11">
      <g>
       <use style="fill:#262626;stroke:#262626;stroke-width:0.8;" x="51.01625" xlink:href="#mae92c8fee9" y="121.34044"/>
      </g>
     </g>
     <g id="line2d_12">
      <g>
       <use style="fill:#262626;stroke:#262626;stroke-width:0.8;" x="238.68" xlink:href="#m7b0180fc32" y="121.34044"/>
      </g>
     </g>
     <g id="text_7">
      <!-- 2.0 -->
      <g style="fill:#262626;" transform="translate(26.522813 125.519581)scale(0.11 -0.11)">
       <use xlink:href="#DejaVuSans-32"/>
       <use x="63.623047" xlink:href="#DejaVuSans-2e"/>
       <use x="95.410156" xlink:href="#DejaVuSans-30"/>
      </g>
     </g>
    </g>
    <g id="ytick_4">
     <g id="line2d_13">
      <g>
       <use style="fill:#262626;stroke:#262626;stroke-width:0.8;" x="51.01625" xlink:href="#mae92c8fee9" y="77.827697"/>
      </g>
     </g>
     <g id="line2d_14">
      <g>
       <use style="fill:#262626;stroke:#262626;stroke-width:0.8;" x="238.68" xlink:href="#m7b0180fc32" y="77.827697"/>
      </g>
     </g>
     <g id="text_8">
      <!-- 3.0 -->
      <defs>
       <path d="M 40.578125 39.3125 
Q 47.65625 37.796875 51.625 33 
Q 55.609375 28.21875 55.609375 21.1875 
Q 55.609375 10.40625 48.1875 4.484375 
Q 40.765625 -1.421875 27.09375 -1.421875 
Q 22.515625 -1.421875 17.65625 -0.515625 
Q 12.796875 0.390625 7.625 2.203125 
L 7.625 11.71875 
Q 11.71875 9.328125 16.59375 8.109375 
Q 21.484375 6.890625 26.8125 6.890625 
Q 36.078125 6.890625 40.9375 10.546875 
Q 45.796875 14.203125 45.796875 21.1875 
Q 45.796875 27.640625 41.28125 31.265625 
Q 36.765625 34.90625 28.71875 34.90625 
L 20.21875 34.90625 
L 20.21875 43.015625 
L 29.109375 43.015625 
Q 36.375 43.015625 40.234375 45.921875 
Q 44.09375 48.828125 44.09375 54.296875 
Q 44.09375 59.90625 40.109375 62.90625 
Q 36.140625 65.921875 28.71875 65.921875 
Q 24.65625 65.921875 20.015625 65.03125 
Q 15.375 64.15625 9.8125 62.3125 
L 9.8125 71.09375 
Q 15.4375 72.65625 20.34375 73.4375 
Q 25.25 74.21875 29.59375 74.21875 
Q 40.828125 74.21875 47.359375 69.109375 
Q 53.90625 64.015625 53.90625 55.328125 
Q 53.90625 49.265625 50.4375 45.09375 
Q 46.96875 40.921875 40.578125 39.3125 
z
" id="DejaVuSans-33"/>
      </defs>
      <g style="fill:#262626;" transform="translate(26.522813 82.006838)scale(0.11 -0.11)">
       <use xlink:href="#DejaVuSans-33"/>
       <use x="63.623047" xlink:href="#DejaVuSans-2e"/>
       <use x="95.410156" xlink:href="#DejaVuSans-30"/>
      </g>
     </g>
    </g>
    <g id="ytick_5">
     <g id="line2d_15">
      <g>
       <use style="fill:#262626;stroke:#262626;stroke-width:0.8;" x="51.01625" xlink:href="#mae92c8fee9" y="34.314955"/>
      </g>
     </g>
     <g id="line2d_16">
      <g>
       <use style="fill:#262626;stroke:#262626;stroke-width:0.8;" x="238.68" xlink:href="#m7b0180fc32" y="34.314955"/>
      </g>
     </g>
     <g id="text_9">
      <!-- 4.0 -->
      <defs>
       <path d="M 37.796875 64.3125 
L 12.890625 25.390625 
L 37.796875 25.390625 
z
M 35.203125 72.90625 
L 47.609375 72.90625 
L 47.609375 25.390625 
L 58.015625 25.390625 
L 58.015625 17.1875 
L 47.609375 17.1875 
L 47.609375 0 
L 37.796875 0 
L 37.796875 17.1875 
L 4.890625 17.1875 
L 4.890625 26.703125 
z
" id="DejaVuSans-34"/>
      </defs>
      <g style="fill:#262626;" transform="translate(26.522813 38.494095)scale(0.11 -0.11)">
       <use xlink:href="#DejaVuSans-34"/>
       <use x="63.623047" xlink:href="#DejaVuSans-2e"/>
       <use x="95.410156" xlink:href="#DejaVuSans-30"/>
      </g>
     </g>
    </g>
    <g id="text_10">
     <!-- log10 counts (ToxA_2) -->
     <defs>
      <path d="M -0.296875 72.90625 
L 61.375 72.90625 
L 61.375 64.59375 
L 35.5 64.59375 
L 35.5 0 
L 25.59375 0 
L 25.59375 64.59375 
L -0.296875 64.59375 
z
" id="DejaVuSans-54"/>
      <path d="M 54.890625 54.6875 
L 35.109375 28.078125 
L 55.90625 0 
L 45.3125 0 
L 29.390625 21.484375 
L 13.484375 0 
L 2.875 0 
L 24.125 28.609375 
L 4.6875 54.6875 
L 15.28125 54.6875 
L 29.78125 35.203125 
L 44.28125 54.6875 
z
" id="DejaVuSans-78"/>
      <path d="M 34.1875 63.1875 
L 20.796875 26.90625 
L 47.609375 26.90625 
z
M 28.609375 72.90625 
L 39.796875 72.90625 
L 67.578125 0 
L 57.328125 0 
L 50.6875 18.703125 
L 17.828125 18.703125 
L 11.1875 0 
L 0.78125 0 
z
" id="DejaVuSans-41"/>
      <path d="M 50.984375 -16.609375 
L 50.984375 -23.578125 
L -0.984375 -23.578125 
L -0.984375 -16.609375 
z
" id="DejaVuSans-5f"/>
     </defs>
     <g transform="translate(19.929219 185.747813)rotate(-90)scale(0.11 -0.11)">
      <use xlink:href="#DejaVuSans-6c"/>
      <use x="27.783203" xlink:href="#DejaVuSans-6f"/>
      <use x="88.964844" xlink:href="#DejaVuSans-67"/>
      <use x="152.441406" xlink:href="#DejaVuSans-31"/>
      <use x="216.064453" xlink:href="#DejaVuSans-30"/>
      <use x="279.6875" xlink:href="#DejaVuSans-20"/>
      <use x="311.474609" xlink:href="#DejaVuSans-63"/>
      <use x="366.455078" xlink:href="#DejaVuSans-6f"/>
      <use x="427.636719" xlink:href="#DejaVuSans-75"/>
      <use x="491.015625" xlink:href="#DejaVuSans-6e"/>
      <use x="554.394531" xlink:href="#DejaVuSans-74"/>
      <use x="593.603516" xlink:href="#DejaVuSans-73"/>
      <use x="645.703125" xlink:href="#DejaVuSans-20"/>
      <use x="677.490234" xlink:href="#DejaVuSans-28"/>
      <use x="716.503906" xlink:href="#DejaVuSans-54"/>
      <use x="777.322266" xlink:href="#DejaVuSans-6f"/>
      <use x="838.457031" xlink:href="#DejaVuSans-78"/>
      <use x="897.636719" xlink:href="#DejaVuSans-41"/>
      <use x="966.044922" xlink:href="#DejaVuSans-5f"/>
      <use x="1016.044922" xlink:href="#DejaVuSans-32"/>
      <use x="1079.667969" xlink:href="#DejaVuSans-29"/>
     </g>
    </g>
   </g>
   <g id="line2d_17">
    <path clip-path="url(#p1d405ba376)" d="M 51.01625 218.464319 
L 238.68 102.332798 
" style="fill:none;opacity:0.75;stroke:#3399ff;stroke-dasharray:5.55,2.4;stroke-dashoffset:0;stroke-width:1.5;"/>
   </g>
   <g id="patch_3">
    <path d="M 51.01625 223 
L 51.01625 25.44 
" style="fill:none;stroke:#000000;stroke-linecap:square;stroke-linejoin:miter;stroke-width:0.8;"/>
   </g>
   <g id="patch_4">
    <path d="M 238.68 223 
L 238.68 25.44 
" style="fill:none;stroke:#000000;stroke-linecap:square;stroke-linejoin:miter;stroke-width:0.8;"/>
   </g>
   <g id="patch_5">
    <path d="M 51.01625 223 
L 238.68 223 
" style="fill:none;stroke:#000000;stroke-linecap:square;stroke-linejoin:miter;stroke-width:0.8;"/>
   </g>
   <g id="patch_6">
    <path d="M 51.01625 25.44 
L 238.68 25.44 
" style="fill:none;stroke:#000000;stroke-linecap:square;stroke-linejoin:miter;stroke-width:0.8;"/>
   </g>
   <g id="text_11">
    <!-- sgRNA Density -->
    <defs>
     <path d="M 44.390625 34.1875 
Q 47.5625 33.109375 50.5625 29.59375 
Q 53.5625 26.078125 56.59375 19.921875 
L 66.609375 0 
L 56 0 
L 46.6875 18.703125 
Q 43.0625 26.03125 39.671875 28.421875 
Q 36.28125 30.8125 30.421875 30.8125 
L 19.671875 30.8125 
L 19.671875 0 
L 9.8125 0 
L 9.8125 72.90625 
L 32.078125 72.90625 
Q 44.578125 72.90625 50.734375 67.671875 
Q 56.890625 62.453125 56.890625 51.90625 
Q 56.890625 45.015625 53.6875 40.46875 
Q 50.484375 35.9375 44.390625 34.1875 
z
M 19.671875 64.796875 
L 19.671875 38.921875 
L 32.078125 38.921875 
Q 39.203125 38.921875 42.84375 42.21875 
Q 46.484375 45.515625 46.484375 51.90625 
Q 46.484375 58.296875 42.84375 61.546875 
Q 39.203125 64.796875 32.078125 64.796875 
z
" id="DejaVuSans-52"/>
     <path d="M 9.8125 72.90625 
L 23.09375 72.90625 
L 55.421875 11.921875 
L 55.421875 72.90625 
L 64.984375 72.90625 
L 64.984375 0 
L 51.703125 0 
L 19.390625 60.984375 
L 19.390625 0 
L 9.8125 0 
z
" id="DejaVuSans-4e"/>
     <path d="M 19.671875 64.796875 
L 19.671875 8.109375 
L 31.59375 8.109375 
Q 46.6875 8.109375 53.6875 14.9375 
Q 60.6875 21.78125 60.6875 36.53125 
Q 60.6875 51.171875 53.6875 57.984375 
Q 46.6875 64.796875 31.59375 64.796875 
z
M 9.8125 72.90625 
L 30.078125 72.90625 
Q 51.265625 72.90625 61.171875 64.09375 
Q 71.09375 55.28125 71.09375 36.53125 
Q 71.09375 17.671875 61.125 8.828125 
Q 51.171875 0 30.078125 0 
L 9.8125 0 
z
" id="DejaVuSans-44"/>
     <path d="M 56.203125 29.59375 
L 56.203125 25.203125 
L 14.890625 25.203125 
Q 15.484375 15.921875 20.484375 11.0625 
Q 25.484375 6.203125 34.421875 6.203125 
Q 39.59375 6.203125 44.453125 7.46875 
Q 49.3125 8.734375 54.109375 11.28125 
L 54.109375 2.78125 
Q 49.265625 0.734375 44.1875 -0.34375 
Q 39.109375 -1.421875 33.890625 -1.421875 
Q 20.796875 -1.421875 13.15625 6.1875 
Q 5.515625 13.8125 5.515625 26.8125 
Q 5.515625 40.234375 12.765625 48.109375 
Q 20.015625 56 32.328125 56 
Q 43.359375 56 49.78125 48.890625 
Q 56.203125 41.796875 56.203125 29.59375 
z
M 47.21875 32.234375 
Q 47.125 39.59375 43.09375 43.984375 
Q 39.0625 48.390625 32.421875 48.390625 
Q 24.90625 48.390625 20.390625 44.140625 
Q 15.875 39.890625 15.1875 32.171875 
z
" id="DejaVuSans-65"/>
     <path d="M 9.421875 54.6875 
L 18.40625 54.6875 
L 18.40625 0 
L 9.421875 0 
z
M 9.421875 75.984375 
L 18.40625 75.984375 
L 18.40625 64.59375 
L 9.421875 64.59375 
z
" id="DejaVuSans-69"/>
     <path d="M 32.171875 -5.078125 
Q 28.375 -14.84375 24.75 -17.8125 
Q 21.140625 -20.796875 15.09375 -20.796875 
L 7.90625 -20.796875 
L 7.90625 -13.28125 
L 13.1875 -13.28125 
Q 16.890625 -13.28125 18.9375 -11.515625 
Q 21 -9.765625 23.484375 -3.21875 
L 25.09375 0.875 
L 2.984375 54.6875 
L 12.5 54.6875 
L 29.59375 11.921875 
L 46.6875 54.6875 
L 56.203125 54.6875 
z
" id="DejaVuSans-79"/>
    </defs>
    <g transform="translate(100.434063 19.44)scale(0.12 -0.12)">
     <use xlink:href="#DejaVuSans-73"/>
     <use x="52.099609" xlink:href="#DejaVuSans-67"/>
     <use x="115.576172" xlink:href="#DejaVuSans-52"/>
     <use x="185.058594" xlink:href="#DejaVuSans-4e"/>
     <use x="259.863281" xlink:href="#DejaVuSans-41"/>
     <use x="328.271484" xlink:href="#DejaVuSans-20"/>
     <use x="360.058594" xlink:href="#DejaVuSans-44"/>
     <use x="437.060547" xlink:href="#DejaVuSans-65"/>
     <use x="498.583984" xlink:href="#DejaVuSans-6e"/>
     <use x="561.962891" xlink:href="#DejaVuSans-73"/>
     <use x="614.0625" xlink:href="#DejaVuSans-69"/>
     <use x="641.845703" xlink:href="#DejaVuSans-74"/>
     <use x="681.054688" xlink:href="#DejaVuSans-79"/>
    </g>
   </g>
  </g>
 </g>
 <defs>
  <clipPath id="p1d405ba376">
   <rect height="197.56" width="187.66375" x="51.01625" y="25.44"/>
  </clipPath>
 </defs>
</svg>
