<?xml version="1.0" encoding="utf-8" standalone="no"?>
<!DOCTYPE svg PUBLIC "-//W3C//DTD SVG 1.1//EN"
  "http://www.w3.org/Graphics/SVG/1.1/DTD/svg11.dtd">
<!-- Created with matplotlib (http://matplotlib.org/) -->
<svg height="266pt" version="1.1" viewBox="0 0 252 266" width="252pt" xmlns="http://www.w3.org/2000/svg" xmlns:xlink="http://www.w3.org/1999/xlink">
 <defs>
  <style type="text/css">
*{stroke-linecap:butt;stroke-linejoin:round;}
  </style>
 </defs>
 <g id="figure_1">
  <g id="patch_1">
   <path d="M 0 266.4 
L 252 266.4 
L 252 0 
L 0 0 
z
" style="fill:#ffffff;"/>
  </g>
  <g id="axes_1">
   <g id="patch_2">
    <path d="M 51.01625 223 
L 238.68 223 
L 238.68 25.44 
L 51.01625 25.44 
z
" style="fill:#ffffff;"/>
   </g>
   <g id="PathCollection_1">
    <path clip-path="url(#p66f3c98364)" d="M 37.980745 227.733905 
L 40.268313 227.733905 
L 42.55588 227.733905 
L 44.843448 227.733905 
L 47.131015 227.733905 
L 49.418583 227.733905 
L 51.70615 227.733905 
L 53.993718 227.733905 
L 56.281286 227.733905 
L 58.568853 227.733905 
L 60.856421 227.733905 
L 63.143988 227.733905 
L 65.431556 227.733905 
L 67.719123 227.733905 
L 70.006691 227.733905 
L 72.294259 227.733905 
L 74.581826 227.733905 
L 76.869394 227.733905 
L 79.156961 227.733905 
L 81.444529 227.733905 
L 83.732096 227.733905 
L 86.019664 227.733905 
L 88.307231 227.733905 
L 90.594799 227.733905 
L 92.882367 227.733905 
L 95.169934 227.733905 
L 97.457502 227.733905 
L 99.745069 227.733905 
L 102.032637 227.733905 
L 104.320204 227.733905 
L 106.607772 227.733905 
L 108.895339 227.733905 
L 111.182907 227.733905 
L 113.470475 227.733905 
L 115.758042 227.733905 
L 118.04561 227.733905 
L 120.333177 227.733905 
L 122.620745 227.733905 
L 124.908312 227.733905 
L 127.19588 227.733905 
L 129.483447 227.733905 
L 131.771015 227.733905 
L 134.058583 227.733905 
L 136.34615 227.733905 
L 138.633718 227.733905 
L 140.921285 227.733905 
L 143.208853 227.733905 
L 145.49642 227.733905 
L 147.783988 227.733905 
L 150.071556 227.733905 
L 152.359123 227.733905 
L 154.646691 227.733905 
L 156.934258 227.733905 
L 159.221826 227.733905 
L 161.509393 227.733905 
L 163.796961 227.733905 
L 166.084528 227.733905 
L 168.372096 227.733905 
L 170.659664 227.733905 
L 172.947231 227.733905 
L 175.234799 227.733905 
L 177.522366 227.733905 
L 179.809934 227.733905 
L 182.097501 227.733905 
L 184.385069 227.733905 
L 186.672636 227.733905 
L 188.960204 227.733905 
L 191.247772 227.733905 
L 193.535339 227.733905 
L 195.822907 227.733905 
L 198.110474 227.733905 
L 200.398042 227.733905 
L 202.685609 227.733905 
L 204.973177 227.733905 
L 207.260745 227.733905 
L 209.548312 227.733905 
L 211.83588 227.733905 
L 214.123447 227.733905 
L 216.411015 227.733905 
L 218.698582 227.733905 
L 220.98615 227.733905 
L 223.273717 227.733905 
L 225.561285 227.733905 
L 227.848853 227.733905 
L 230.13642 227.733905 
L 232.423988 227.733905 
L 234.711555 227.733905 
L 236.999123 227.733905 
L 239.28669 227.733905 
L 241.574258 227.733905 
L 243.861825 227.733905 
L 246.149393 227.733905 
L 248.436961 227.733905 
L 250.724528 227.733905 
L 253.012096 227.733905 
L 255.299663 227.733905 
L 257.587231 227.733905 
L 259.874798 227.733905 
L 262.162366 227.733905 
L 262.162366 225.864444 
L 262.162366 223.994982 
L 262.162366 222.125521 
L 262.162366 220.256059 
L 262.162366 218.386597 
L 262.162366 216.517136 
L 262.162366 214.647674 
L 262.162366 212.778212 
L 262.162366 210.908751 
L 262.162366 209.039289 
L 262.162366 207.169828 
L 262.162366 205.300366 
L 262.162366 203.430904 
L 262.162366 201.561443 
L 262.162366 199.691981 
L 262.162366 197.82252 
L 262.162366 195.953058 
L 262.162366 194.083596 
L 262.162366 192.214135 
L 262.162366 190.344673 
L 262.162366 188.475211 
L 262.162366 186.60575 
L 262.162366 184.736288 
L 262.162366 182.866827 
L 262.162366 180.997365 
L 262.162366 179.127903 
L 262.162366 177.258442 
L 262.162366 175.38898 
L 262.162366 173.519519 
L 262.162366 171.650057 
L 262.162366 169.780595 
L 262.162366 167.911134 
L 262.162366 166.041672 
L 262.162366 164.172211 
L 262.162366 162.302749 
L 262.162366 160.433287 
L 262.162366 158.563826 
L 262.162366 156.694364 
L 262.162366 154.824902 
L 262.162366 152.955441 
L 262.162366 151.085979 
L 262.162366 149.216518 
L 262.162366 147.347056 
L 262.162366 145.477594 
L 262.162366 143.608133 
L 262.162366 141.738671 
L 262.162366 139.86921 
L 262.162366 137.999748 
L 262.162366 136.130286 
L 262.162366 134.260825 
L 262.162366 132.391363 
L 262.162366 130.521902 
L 262.162366 128.65244 
L 262.162366 126.782978 
L 262.162366 124.913517 
L 262.162366 123.044055 
L 262.162366 121.174593 
L 262.162366 119.305132 
L 262.162366 117.43567 
L 262.162366 115.566209 
L 262.162366 113.696747 
L 262.162366 111.827285 
L 262.162366 109.957824 
L 262.162366 108.088362 
L 262.162366 106.218901 
L 262.162366 104.349439 
L 262.162366 102.479977 
L 262.162366 100.610516 
L 262.162366 98.741054 
L 262.162366 96.871593 
L 262.162366 95.002131 
L 262.162366 93.132669 
L 262.162366 91.263208 
L 262.162366 89.393746 
L 262.162366 87.524284 
L 262.162366 85.654823 
L 262.162366 83.785361 
L 262.162366 81.9159 
L 262.162366 80.046438 
L 262.162366 78.176976 
L 262.162366 76.307515 
L 262.162366 74.438053 
L 262.162366 72.568592 
L 262.162366 70.69913 
L 262.162366 68.829668 
L 262.162366 66.960207 
L 262.162366 65.090745 
L 262.162366 63.221283 
L 262.162366 61.351822 
L 262.162366 59.48236 
L 262.162366 57.612899 
L 262.162366 55.743437 
L 262.162366 53.873975 
L 262.162366 52.004514 
L 262.162366 50.135052 
L 262.162366 48.265591 
L 262.162366 46.396129 
L 262.162366 44.526667 
L 262.162366 42.657206 
L 259.874798 42.657206 
L 257.587231 42.657206 
L 255.299663 42.657206 
L 253.012096 42.657206 
L 250.724528 42.657206 
L 248.436961 42.657206 
L 246.149393 42.657206 
L 243.861825 42.657206 
L 241.574258 42.657206 
L 239.28669 42.657206 
L 236.999123 42.657206 
L 234.711555 42.657206 
L 232.423988 42.657206 
L 230.13642 42.657206 
L 227.848853 42.657206 
L 225.561285 42.657206 
L 223.273717 42.657206 
L 220.98615 42.657206 
L 218.698582 42.657206 
L 216.411015 42.657206 
L 214.123447 42.657206 
L 211.83588 42.657206 
L 209.548312 42.657206 
L 207.260745 42.657206 
L 204.973177 42.657206 
L 202.685609 42.657206 
L 200.398042 42.657206 
L 198.110474 42.657206 
L 195.822907 42.657206 
L 193.535339 42.657206 
L 191.247772 42.657206 
L 188.960204 42.657206 
L 186.672636 42.657206 
L 184.385069 42.657206 
L 182.097501 42.657206 
L 179.809934 42.657206 
L 177.522366 42.657206 
L 175.234799 42.657206 
L 172.947231 42.657206 
L 170.659664 42.657206 
L 168.372096 42.657206 
L 166.084528 42.657206 
L 163.796961 42.657206 
L 161.509393 42.657206 
L 159.221826 42.657206 
L 156.934258 42.657206 
L 154.646691 42.657206 
L 152.359123 42.657206 
L 150.071556 42.657206 
L 147.783988 42.657206 
L 145.49642 42.657206 
L 143.208853 42.657206 
L 140.921285 42.657206 
L 138.633718 42.657206 
L 136.34615 42.657206 
L 134.058583 42.657206 
L 131.771015 42.657206 
L 129.483447 42.657206 
L 127.19588 42.657206 
L 124.908312 42.657206 
L 122.620745 42.657206 
L 120.333177 42.657206 
L 118.04561 42.657206 
L 115.758042 42.657206 
L 113.470475 42.657206 
L 111.182907 42.657206 
L 108.895339 42.657206 
L 106.607772 42.657206 
L 104.320204 42.657206 
L 102.032637 42.657206 
L 99.745069 42.657206 
L 97.457502 42.657206 
L 95.169934 42.657206 
L 92.882367 42.657206 
L 90.594799 42.657206 
L 88.307231 42.657206 
L 86.019664 42.657206 
L 83.732096 42.657206 
L 81.444529 42.657206 
L 79.156961 42.657206 
L 76.869394 42.657206 
L 74.581826 42.657206 
L 72.294259 42.657206 
L 70.006691 42.657206 
L 67.719123 42.657206 
L 65.431556 42.657206 
L 63.143988 42.657206 
L 60.856421 42.657206 
L 58.568853 42.657206 
L 56.281286 42.657206 
L 53.993718 42.657206 
L 51.70615 42.657206 
L 49.418583 42.657206 
L 47.131015 42.657206 
L 44.843448 42.657206 
L 42.55588 42.657206 
L 40.268313 42.657206 
L 37.980745 42.657206 
L 35.693178 42.657206 
L 35.693178 44.526667 
L 35.693178 46.396129 
L 35.693178 48.265591 
L 35.693178 50.135052 
L 35.693178 52.004514 
L 35.693178 53.873975 
L 35.693178 55.743437 
L 35.693178 57.612899 
L 35.693178 59.48236 
L 35.693178 61.351822 
L 35.693178 63.221283 
L 35.693178 65.090745 
L 35.693178 66.960207 
L 35.693178 68.829668 
L 35.693178 70.69913 
L 35.693178 72.568592 
L 35.693178 74.438053 
L 35.693178 76.307515 
L 35.693178 78.176976 
L 35.693178 80.046438 
L 35.693178 81.9159 
L 35.693178 83.785361 
L 35.693178 85.654823 
L 35.693178 87.524284 
L 35.693178 89.393746 
L 35.693178 91.263208 
L 35.693178 93.132669 
L 35.693178 95.002131 
L 35.693178 96.871593 
L 35.693178 98.741054 
L 35.693178 100.610516 
L 35.693178 102.479977 
L 35.693178 104.349439 
L 35.693178 106.218901 
L 35.693178 108.088362 
L 35.693178 109.957824 
L 35.693178 111.827285 
L 35.693178 113.696747 
L 35.693178 115.566209 
L 35.693178 117.43567 
L 35.693178 119.305132 
L 35.693178 121.174593 
L 35.693178 123.044055 
L 35.693178 124.913517 
L 35.693178 126.782978 
L 35.693178 128.65244 
L 35.693178 130.521902 
L 35.693178 132.391363 
L 35.693178 134.260825 
L 35.693178 136.130286 
L 35.693178 137.999748 
L 35.693178 139.86921 
L 35.693178 141.738671 
L 35.693178 143.608133 
L 35.693178 145.477594 
L 35.693178 147.347056 
L 35.693178 149.216518 
L 35.693178 151.085979 
L 35.693178 152.955441 
L 35.693178 154.824902 
L 35.693178 156.694364 
L 35.693178 158.563826 
L 35.693178 160.433287 
L 35.693178 162.302749 
L 35.693178 164.172211 
L 35.693178 166.041672 
L 35.693178 167.911134 
L 35.693178 169.780595 
L 35.693178 171.650057 
L 35.693178 173.519519 
L 35.693178 175.38898 
L 35.693178 177.258442 
L 35.693178 179.127903 
L 35.693178 180.997365 
L 35.693178 182.866827 
L 35.693178 184.736288 
L 35.693178 186.60575 
L 35.693178 188.475211 
L 35.693178 190.344673 
L 35.693178 192.214135 
L 35.693178 194.083596 
L 35.693178 195.953058 
L 35.693178 197.82252 
L 35.693178 199.691981 
L 35.693178 201.561443 
L 35.693178 203.430904 
L 35.693178 205.300366 
L 35.693178 207.169828 
L 35.693178 209.039289 
L 35.693178 210.908751 
L 35.693178 212.778212 
L 35.693178 214.647674 
L 35.693178 216.517136 
L 35.693178 218.386597 
L 35.693178 220.256059 
L 35.693178 222.125521 
L 35.693178 223.994982 
L 35.693178 225.864444 
L 35.693178 227.733905 
z
M 58.600266 220.256059 
L 58.568853 220.248312 
L 56.281286 219.530458 
L 53.993718 218.434604 
L 53.907077 218.386597 
L 51.70615 217.113514 
L 50.878158 216.517136 
L 49.418583 215.217929 
L 48.824776 214.647674 
L 47.43982 212.778212 
L 47.131015 212.081318 
L 46.529533 210.908751 
L 46.075594 209.039289 
L 46.063907 207.169828 
L 46.478435 205.300366 
L 47.131015 203.91754 
L 47.326536 203.430904 
L 48.506621 201.561443 
L 49.418583 200.545213 
L 50.201607 199.691981 
L 51.70615 198.356707 
L 52.388342 197.82252 
L 53.993718 196.622905 
L 55.097644 195.953058 
L 56.281286 195.166426 
L 58.404063 194.083596 
L 58.568853 193.980094 
L 60.856421 192.795546 
L 62.450613 192.214135 
L 63.143988 191.8597 
L 65.431556 190.993324 
L 67.719123 190.426581 
L 68.244525 190.344673 
L 70.006691 189.915091 
L 72.294259 189.619988 
L 74.581826 189.522915 
L 76.869394 189.56592 
L 79.156961 189.695799 
L 81.444529 189.862519 
L 83.732096 190.022036 
L 86.019664 190.141488 
L 88.307231 190.203396 
L 90.594799 190.206088 
L 92.882367 190.160057 
L 95.169934 190.082381 
L 97.457502 189.991737 
L 99.745069 189.905377 
L 102.032637 189.838081 
L 104.320204 189.802376 
L 106.607772 189.809331 
L 108.895339 189.869439 
L 111.182907 189.99339 
L 113.470475 190.192689 
L 114.698978 190.344673 
L 115.758042 190.43484 
L 118.04561 190.695543 
L 120.333177 191.038273 
L 122.620745 191.477769 
L 124.908312 192.031542 
L 125.543839 192.214135 
L 127.19588 192.555804 
L 129.483447 193.130856 
L 131.771015 193.837357 
L 132.464093 194.083596 
L 134.058583 194.515039 
L 136.34615 195.252181 
L 138.168435 195.953058 
L 138.633718 196.099952 
L 140.921285 196.915125 
L 143.020769 197.82252 
L 143.208853 197.896317 
L 145.49642 198.889017 
L 147.060028 199.691981 
L 147.783988 200.075798 
L 150.071556 201.455934 
L 150.232966 201.561443 
L 152.359123 203.25973 
L 152.558903 203.430904 
L 154.028353 205.300366 
L 154.571277 207.169828 
L 154.204108 209.039289 
L 152.782008 210.908751 
L 152.359123 211.227194 
L 150.139302 212.778212 
L 150.071556 212.81297 
L 147.783988 213.918542 
L 145.991277 214.647674 
L 145.49642 214.826386 
L 143.208853 215.581624 
L 140.921285 216.206224 
L 139.611526 216.517136 
L 138.633718 216.759305 
L 136.34615 217.26345 
L 134.058583 217.686657 
L 131.771015 218.043542 
L 129.483447 218.345678 
L 129.140054 218.386597 
L 127.19588 218.668783 
L 124.908312 218.954376 
L 122.620745 219.197504 
L 120.333177 219.404387 
L 118.04561 219.580136 
L 115.758042 219.729023 
L 113.470475 219.854688 
L 111.182907 219.960313 
L 108.895339 220.048764 
L 106.607772 220.122752 
L 104.320204 220.185019 
L 102.032637 220.238562 
L 101.213107 220.256059 
L 99.745069 220.301009 
L 97.457502 220.370072 
L 95.169934 220.445189 
L 92.882367 220.53467 
L 90.594799 220.646467 
L 88.307231 220.786036 
L 86.019664 220.953785 
L 83.732096 221.143343 
L 81.444529 221.341898 
L 79.156961 221.532737 
L 76.869394 221.698673 
L 74.581826 221.824512 
L 72.294259 221.897556 
L 70.006691 221.90627 
L 67.719123 221.83769 
L 65.431556 221.673935 
L 63.143988 221.387571 
L 60.856421 220.93484 
z
" style="fill:none;"/>
   </g>
   <g id="PathCollection_2">
    <path clip-path="url(#p66f3c98364)" d="M 60.856421 220.93484 
L 63.143988 221.387571 
L 65.431556 221.673935 
L 67.719123 221.83769 
L 70.006691 221.90627 
L 72.294259 221.897556 
L 74.581826 221.824512 
L 76.869394 221.698673 
L 79.156961 221.532737 
L 81.444529 221.341898 
L 83.732096 221.143343 
L 86.019664 220.953785 
L 88.307231 220.786036 
L 90.594799 220.646467 
L 92.882367 220.53467 
L 95.169934 220.445189 
L 97.457502 220.370072 
L 99.745069 220.301009 
L 101.213107 220.256059 
L 102.032637 220.238562 
L 104.320204 220.185019 
L 106.607772 220.122752 
L 108.895339 220.048764 
L 111.182907 219.960313 
L 113.470475 219.854688 
L 115.758042 219.729023 
L 118.04561 219.580136 
L 120.333177 219.404387 
L 122.620745 219.197504 
L 124.908312 218.954376 
L 127.19588 218.668783 
L 129.140054 218.386597 
L 129.483447 218.345678 
L 131.771015 218.043542 
L 134.058583 217.686657 
L 136.34615 217.26345 
L 138.633718 216.759305 
L 139.611526 216.517136 
L 140.921285 216.206224 
L 143.208853 215.581624 
L 145.49642 214.826386 
L 145.991277 214.647674 
L 147.783988 213.918542 
L 150.071556 212.81297 
L 150.139302 212.778212 
L 152.359123 211.227194 
L 152.782008 210.908751 
L 154.204108 209.039289 
L 154.571277 207.169828 
L 154.028353 205.300366 
L 152.558903 203.430904 
L 152.359123 203.25973 
L 150.232966 201.561443 
L 150.071556 201.455934 
L 147.783988 200.075798 
L 147.060028 199.691981 
L 145.49642 198.889017 
L 143.208853 197.896317 
L 143.020769 197.82252 
L 140.921285 196.915125 
L 138.633718 196.099952 
L 138.168435 195.953058 
L 136.34615 195.252181 
L 134.058583 194.515039 
L 132.464093 194.083596 
L 131.771015 193.837357 
L 129.483447 193.130856 
L 127.19588 192.555804 
L 125.543839 192.214135 
L 124.908312 192.031542 
L 122.620745 191.477769 
L 120.333177 191.038273 
L 118.04561 190.695543 
L 115.758042 190.43484 
L 114.698978 190.344673 
L 113.470475 190.192689 
L 111.182907 189.99339 
L 108.895339 189.869439 
L 106.607772 189.809331 
L 104.320204 189.802376 
L 102.032637 189.838081 
L 99.745069 189.905377 
L 97.457502 189.991737 
L 95.169934 190.082381 
L 92.882367 190.160057 
L 90.594799 190.206088 
L 88.307231 190.203396 
L 86.019664 190.141488 
L 83.732096 190.022036 
L 81.444529 189.862519 
L 79.156961 189.695799 
L 76.869394 189.56592 
L 74.581826 189.522915 
L 72.294259 189.619988 
L 70.006691 189.915091 
L 68.244525 190.344673 
L 67.719123 190.426581 
L 65.431556 190.993324 
L 63.143988 191.8597 
L 62.450613 192.214135 
L 60.856421 192.795546 
L 58.568853 193.980094 
L 58.404063 194.083596 
L 56.281286 195.166426 
L 55.097644 195.953058 
L 53.993718 196.622905 
L 52.388342 197.82252 
L 51.70615 198.356707 
L 50.201607 199.691981 
L 49.418583 200.545213 
L 48.506621 201.561443 
L 47.326536 203.430904 
L 47.131015 203.91754 
L 46.478435 205.300366 
L 46.063907 207.169828 
L 46.075594 209.039289 
L 46.529533 210.908751 
L 47.131015 212.081318 
L 47.43982 212.778212 
L 48.824776 214.647674 
L 49.418583 215.217929 
L 50.878158 216.517136 
L 51.70615 217.113514 
L 53.907077 218.386597 
L 53.993718 218.434604 
L 56.281286 219.530458 
L 58.568853 220.248312 
L 58.600266 220.256059 
z
M 61.289188 218.386597 
L 60.856421 218.285777 
L 58.568853 217.556606 
L 56.388954 216.517136 
L 56.281286 216.461595 
L 53.993718 214.996913 
L 53.542197 214.647674 
L 51.760652 212.778212 
L 51.70615 212.687741 
L 50.604089 210.908751 
L 50.085175 209.039289 
L 50.071396 207.169828 
L 50.544115 205.300366 
L 51.592025 203.430904 
L 51.70615 203.288598 
L 53.124862 201.561443 
L 53.993718 200.779431 
L 55.389557 199.691981 
L 56.281286 199.073273 
L 58.568853 197.837236 
L 58.603179 197.82252 
L 60.856421 196.772824 
L 63.143988 196.058299 
L 63.619507 195.953058 
L 65.431556 195.435625 
L 67.719123 195.020194 
L 70.006691 194.793725 
L 72.294259 194.714236 
L 74.581826 194.750874 
L 76.869394 194.877283 
L 79.156961 195.067123 
L 81.444529 195.292073 
L 83.732096 195.522923 
L 86.019664 195.733518 
L 88.307231 195.905653 
L 89.182848 195.953058 
L 90.594799 196.010292 
L 92.882367 196.071582 
L 95.169934 196.110245 
L 97.457502 196.136267 
L 99.745069 196.159779 
L 102.032637 196.189841 
L 104.320204 196.234148 
L 106.607772 196.299276 
L 108.895339 196.391133 
L 111.182907 196.515441 
L 113.470475 196.67816 
L 115.758042 196.885854 
L 118.04561 197.146012 
L 120.333177 197.467368 
L 122.411981 197.82252 
L 122.620745 197.85272 
L 124.908312 198.234506 
L 127.19588 198.695651 
L 129.483447 199.250817 
L 131.037249 199.691981 
L 131.771015 199.893947 
L 134.058583 200.610809 
L 136.34615 201.474867 
L 136.55477 201.561443 
L 138.633718 202.552378 
L 140.219668 203.430904 
L 140.921285 203.995262 
L 142.417303 205.300366 
L 143.208853 207.019214 
L 143.27794 207.169828 
L 143.208853 207.450552 
L 142.829725 209.039289 
L 140.921285 210.893751 
L 140.904992 210.908751 
L 138.633718 212.105033 
L 137.160637 212.778212 
L 136.34615 213.063501 
L 134.058583 213.782211 
L 131.771015 214.388937 
L 130.664288 214.647674 
L 129.483447 214.905654 
L 127.19588 215.346786 
L 124.908312 215.722163 
L 122.620745 216.041827 
L 120.333177 216.313921 
L 118.33434 216.517136 
L 118.04561 216.549604 
L 115.758042 216.776745 
L 113.470475 216.968412 
L 111.182907 217.129453 
L 108.895339 217.264246 
L 106.607772 217.376927 
L 104.320204 217.471683 
L 102.032637 217.553093 
L 99.745069 217.626525 
L 97.457502 217.698504 
L 95.169934 217.776857 
L 92.882367 217.870322 
L 90.594799 217.987283 
L 88.307231 218.13352 
L 86.019664 218.309527 
L 85.163432 218.386597 
L 83.732096 218.545747 
L 81.444529 218.817874 
L 79.156961 219.079534 
L 76.869394 219.307112 
L 74.581826 219.479705 
L 72.294259 219.579829 
L 70.006691 219.591589 
L 67.719123 219.497132 
L 65.431556 219.271847 
L 63.143988 218.877993 
z
" style="fill:#fed9c9;"/>
   </g>
   <g id="PathCollection_3">
    <path clip-path="url(#p66f3c98364)" d="M 63.143988 218.877993 
L 65.431556 219.271847 
L 67.719123 219.497132 
L 70.006691 219.591589 
L 72.294259 219.579829 
L 74.581826 219.479705 
L 76.869394 219.307112 
L 79.156961 219.079534 
L 81.444529 218.817874 
L 83.732096 218.545747 
L 85.163432 218.386597 
L 86.019664 218.309527 
L 88.307231 218.13352 
L 90.594799 217.987283 
L 92.882367 217.870322 
L 95.169934 217.776857 
L 97.457502 217.698504 
L 99.745069 217.626525 
L 102.032637 217.553093 
L 104.320204 217.471683 
L 106.607772 217.376927 
L 108.895339 217.264246 
L 111.182907 217.129453 
L 113.470475 216.968412 
L 115.758042 216.776745 
L 118.04561 216.549604 
L 118.33434 216.517136 
L 120.333177 216.313921 
L 122.620745 216.041827 
L 124.908312 215.722163 
L 127.19588 215.346786 
L 129.483447 214.905654 
L 130.664288 214.647674 
L 131.771015 214.388937 
L 134.058583 213.782211 
L 136.34615 213.063501 
L 137.160637 212.778212 
L 138.633718 212.105033 
L 140.904992 210.908751 
L 140.921285 210.893751 
L 142.829725 209.039289 
L 143.208853 207.450552 
L 143.27794 207.169828 
L 143.208853 207.019214 
L 142.417303 205.300366 
L 140.921285 203.995262 
L 140.219668 203.430904 
L 138.633718 202.552378 
L 136.55477 201.561443 
L 136.34615 201.474867 
L 134.058583 200.610809 
L 131.771015 199.893947 
L 131.037249 199.691981 
L 129.483447 199.250817 
L 127.19588 198.695651 
L 124.908312 198.234506 
L 122.620745 197.85272 
L 122.411981 197.82252 
L 120.333177 197.467368 
L 118.04561 197.146012 
L 115.758042 196.885854 
L 113.470475 196.67816 
L 111.182907 196.515441 
L 108.895339 196.391133 
L 106.607772 196.299276 
L 104.320204 196.234148 
L 102.032637 196.189841 
L 99.745069 196.159779 
L 97.457502 196.136267 
L 95.169934 196.110245 
L 92.882367 196.071582 
L 90.594799 196.010292 
L 89.182848 195.953058 
L 88.307231 195.905653 
L 86.019664 195.733518 
L 83.732096 195.522923 
L 81.444529 195.292073 
L 79.156961 195.067123 
L 76.869394 194.877283 
L 74.581826 194.750874 
L 72.294259 194.714236 
L 70.006691 194.793725 
L 67.719123 195.020194 
L 65.431556 195.435625 
L 63.619507 195.953058 
L 63.143988 196.058299 
L 60.856421 196.772824 
L 58.603179 197.82252 
L 58.568853 197.837236 
L 56.281286 199.073273 
L 55.389557 199.691981 
L 53.993718 200.779431 
L 53.124862 201.561443 
L 51.70615 203.288598 
L 51.592025 203.430904 
L 50.544115 205.300366 
L 50.071396 207.169828 
L 50.085175 209.039289 
L 50.604089 210.908751 
L 51.70615 212.687741 
L 51.760652 212.778212 
L 53.542197 214.647674 
L 53.993718 214.996913 
L 56.281286 216.461595 
L 56.388954 216.517136 
L 58.568853 217.556606 
L 60.856421 218.285777 
L 61.289188 218.386597 
z
M 61.218689 216.517136 
L 60.856421 216.406564 
L 58.568853 215.455415 
L 57.164075 214.647674 
L 56.281286 214.011704 
L 54.861245 212.778212 
L 53.993718 211.57537 
L 53.529964 210.908751 
L 52.88629 209.039289 
L 52.868653 207.169828 
L 53.453617 205.300366 
L 53.993718 204.453917 
L 54.659681 203.430904 
L 56.281286 201.853275 
L 56.631379 201.561443 
L 58.568853 200.257645 
L 59.68637 199.691981 
L 60.856421 199.117225 
L 63.143988 198.300334 
L 65.183217 197.82252 
L 65.431556 197.754067 
L 67.719123 197.336721 
L 70.006691 197.124326 
L 72.294259 197.074045 
L 74.581826 197.154687 
L 76.869394 197.339373 
L 79.156961 197.600325 
L 80.846268 197.82252 
L 81.444529 197.887945 
L 83.732096 198.136441 
L 86.019664 198.370133 
L 88.307231 198.570513 
L 90.594799 198.728889 
L 92.882367 198.84674 
L 95.169934 198.933058 
L 97.457502 199.000525 
L 99.745069 199.062336 
L 102.032637 199.130435 
L 104.320204 199.214988 
L 106.607772 199.324624 
L 108.895339 199.466986 
L 111.182907 199.64933 
L 111.61962 199.691981 
L 113.470475 199.858441 
L 115.758042 200.112447 
L 118.04561 200.424193 
L 120.333177 200.803068 
L 122.620745 201.260148 
L 123.912762 201.561443 
L 124.908312 201.816075 
L 127.19588 202.492329 
L 129.483447 203.300786 
L 129.81426 203.430904 
L 131.771015 204.506803 
L 133.039303 205.300366 
L 134.058583 206.788966 
L 134.30658 207.169828 
L 134.058583 208.008196 
L 133.750562 209.039289 
L 131.771015 210.492784 
L 131.148204 210.908751 
L 129.483447 211.556913 
L 127.19588 212.331234 
L 125.679235 212.778212 
L 124.908312 212.957713 
L 122.620745 213.431512 
L 120.333177 213.834895 
L 118.04561 214.177739 
L 115.758042 214.468309 
L 114.102048 214.647674 
L 113.470475 214.714121 
L 111.182907 214.921741 
L 108.895339 215.095449 
L 106.607772 215.24058 
L 104.320204 215.362538 
L 102.032637 215.467237 
L 99.745069 215.561621 
L 97.457502 215.654137 
L 95.169934 215.754928 
L 92.882367 215.875336 
L 90.594799 216.026269 
L 88.307231 216.215288 
L 86.019664 216.443118 
L 85.388387 216.517136 
L 83.732096 216.729508 
L 81.444529 217.041847 
L 79.156961 217.342362 
L 76.869394 217.603858 
L 74.581826 217.802218 
L 72.294259 217.917241 
L 70.006691 217.930551 
L 67.719123 217.821519 
L 65.431556 217.561742 
L 63.143988 217.107687 
z
" style="fill:#fcbba1;"/>
   </g>
   <g id="PathCollection_4">
    <path clip-path="url(#p66f3c98364)" d="M 63.143988 217.107687 
L 65.431556 217.561742 
L 67.719123 217.821519 
L 70.006691 217.930551 
L 72.294259 217.917241 
L 74.581826 217.802218 
L 76.869394 217.603858 
L 79.156961 217.342362 
L 81.444529 217.041847 
L 83.732096 216.729508 
L 85.388387 216.517136 
L 86.019664 216.443118 
L 88.307231 216.215288 
L 90.594799 216.026269 
L 92.882367 215.875336 
L 95.169934 215.754928 
L 97.457502 215.654137 
L 99.745069 215.561621 
L 102.032637 215.467237 
L 104.320204 215.362538 
L 106.607772 215.24058 
L 108.895339 215.095449 
L 111.182907 214.921741 
L 113.470475 214.714121 
L 114.102048 214.647674 
L 115.758042 214.468309 
L 118.04561 214.177739 
L 120.333177 213.834895 
L 122.620745 213.431512 
L 124.908312 212.957713 
L 125.679235 212.778212 
L 127.19588 212.331234 
L 129.483447 211.556913 
L 131.148204 210.908751 
L 131.771015 210.492784 
L 133.750562 209.039289 
L 134.058583 208.008196 
L 134.30658 207.169828 
L 134.058583 206.788966 
L 133.039303 205.300366 
L 131.771015 204.506803 
L 129.81426 203.430904 
L 129.483447 203.300786 
L 127.19588 202.492329 
L 124.908312 201.816075 
L 123.912762 201.561443 
L 122.620745 201.260148 
L 120.333177 200.803068 
L 118.04561 200.424193 
L 115.758042 200.112447 
L 113.470475 199.858441 
L 111.61962 199.691981 
L 111.182907 199.64933 
L 108.895339 199.466986 
L 106.607772 199.324624 
L 104.320204 199.214988 
L 102.032637 199.130435 
L 99.745069 199.062336 
L 97.457502 199.000525 
L 95.169934 198.933058 
L 92.882367 198.84674 
L 90.594799 198.728889 
L 88.307231 198.570513 
L 86.019664 198.370133 
L 83.732096 198.136441 
L 81.444529 197.887945 
L 80.846268 197.82252 
L 79.156961 197.600325 
L 76.869394 197.339373 
L 74.581826 197.154687 
L 72.294259 197.074045 
L 70.006691 197.124326 
L 67.719123 197.336721 
L 65.431556 197.754067 
L 65.183217 197.82252 
L 63.143988 198.300334 
L 60.856421 199.117225 
L 59.68637 199.691981 
L 58.568853 200.257645 
L 56.631379 201.561443 
L 56.281286 201.853275 
L 54.659681 203.430904 
L 53.993718 204.453917 
L 53.453617 205.300366 
L 52.868653 207.169828 
L 52.88629 209.039289 
L 53.529964 210.908751 
L 53.993718 211.57537 
L 54.861245 212.778212 
L 56.281286 214.011704 
L 57.164075 214.647674 
L 58.568853 215.455415 
L 60.856421 216.406564 
L 61.218689 216.517136 
z
M 69.496501 216.517136 
L 67.719123 216.418237 
L 65.431556 216.116977 
L 63.143988 215.590486 
L 60.856421 214.758269 
L 60.622497 214.647674 
L 58.568853 213.481868 
L 57.617218 212.778212 
L 56.281286 211.268879 
L 55.994373 210.908751 
L 55.237761 209.039289 
L 55.216321 207.169828 
L 55.901979 205.300366 
L 56.281286 204.780363 
L 57.356298 203.430904 
L 58.568853 202.424016 
L 59.875202 201.561443 
L 60.856421 201.015736 
L 63.143988 200.080577 
L 64.566426 199.691981 
L 65.431556 199.443568 
L 67.719123 199.026001 
L 70.006691 198.822748 
L 72.294259 198.79065 
L 74.581826 198.89853 
L 76.869394 199.119444 
L 79.156961 199.425014 
L 80.893153 199.691981 
L 81.444529 199.770909 
L 83.732096 200.097031 
L 86.019664 200.407273 
L 88.307231 200.678111 
L 90.594799 200.897812 
L 92.882367 201.067254 
L 95.169934 201.196873 
L 97.457502 201.30198 
L 99.745069 201.398756 
L 102.032637 201.501951 
L 103.158034 201.561443 
L 104.320204 201.625528 
L 106.607772 201.780989 
L 108.895339 201.976794 
L 111.182907 202.222106 
L 113.470475 202.52623 
L 115.758042 202.899192 
L 118.04561 203.352256 
L 118.389879 203.430904 
L 120.333177 204.028225 
L 122.620745 204.86657 
L 123.646601 205.300366 
L 124.908312 206.48558 
L 125.566673 207.169828 
L 124.908312 208.898905 
L 124.852023 209.039289 
L 122.620745 210.200663 
L 121.057201 210.908751 
L 120.333177 211.103019 
L 118.04561 211.643975 
L 115.758042 212.102732 
L 113.470475 212.490309 
L 111.457687 212.778212 
L 111.182907 212.810155 
L 108.895339 213.038783 
L 106.607772 213.229688 
L 104.320204 213.389988 
L 102.032637 213.52749 
L 99.745069 213.651376 
L 97.457502 213.772842 
L 95.169934 213.905358 
L 92.882367 214.064028 
L 90.594799 214.263438 
L 88.307231 214.513793 
L 87.319404 214.647674 
L 86.019664 214.816192 
L 83.732096 215.158989 
L 81.444529 215.518956 
L 79.156961 215.865659 
L 76.869394 216.167597 
L 74.581826 216.396759 
L 72.514546 216.517136 
L 72.294259 216.531513 
L 70.006691 216.548957 
z
" style="fill:#fc9b7c;"/>
   </g>
   <g id="PathCollection_5">
    <path clip-path="url(#p66f3c98364)" d="M 70.006691 216.548957 
L 72.294259 216.531513 
L 72.514546 216.517136 
L 74.581826 216.396759 
L 76.869394 216.167597 
L 79.156961 215.865659 
L 81.444529 215.518956 
L 83.732096 215.158989 
L 86.019664 214.816192 
L 87.319404 214.647674 
L 88.307231 214.513793 
L 90.594799 214.263438 
L 92.882367 214.064028 
L 95.169934 213.905358 
L 97.457502 213.772842 
L 99.745069 213.651376 
L 102.032637 213.52749 
L 104.320204 213.389988 
L 106.607772 213.229688 
L 108.895339 213.038783 
L 111.182907 212.810155 
L 111.457687 212.778212 
L 113.470475 212.490309 
L 115.758042 212.102732 
L 118.04561 211.643975 
L 120.333177 211.103019 
L 121.057201 210.908751 
L 122.620745 210.200663 
L 124.852023 209.039289 
L 124.908312 208.898905 
L 125.566673 207.169828 
L 124.908312 206.48558 
L 123.646601 205.300366 
L 122.620745 204.86657 
L 120.333177 204.028225 
L 118.389879 203.430904 
L 118.04561 203.352256 
L 115.758042 202.899192 
L 113.470475 202.52623 
L 111.182907 202.222106 
L 108.895339 201.976794 
L 106.607772 201.780989 
L 104.320204 201.625528 
L 103.158034 201.561443 
L 102.032637 201.501951 
L 99.745069 201.398756 
L 97.457502 201.30198 
L 95.169934 201.196873 
L 92.882367 201.067254 
L 90.594799 200.897812 
L 88.307231 200.678111 
L 86.019664 200.407273 
L 83.732096 200.097031 
L 81.444529 199.770909 
L 80.893153 199.691981 
L 79.156961 199.425014 
L 76.869394 199.119444 
L 74.581826 198.89853 
L 72.294259 198.79065 
L 70.006691 198.822748 
L 67.719123 199.026001 
L 65.431556 199.443568 
L 64.566426 199.691981 
L 63.143988 200.080577 
L 60.856421 201.015736 
L 59.875202 201.561443 
L 58.568853 202.424016 
L 57.356298 203.430904 
L 56.281286 204.780363 
L 55.901979 205.300366 
L 55.216321 207.169828 
L 55.237761 209.039289 
L 55.994373 210.908751 
L 56.281286 211.268879 
L 57.617218 212.778212 
L 58.568853 213.481868 
L 60.622497 214.647674 
L 60.856421 214.758269 
L 63.143988 215.590486 
L 65.431556 216.116977 
L 67.719123 216.418237 
L 69.496501 216.517136 
z
M 64.830088 214.647674 
L 63.143988 214.147164 
L 60.856421 213.099563 
L 60.32787 212.778212 
L 58.568853 211.212332 
L 58.284701 210.908751 
L 57.391216 209.039289 
L 57.364907 207.169828 
L 58.171731 205.300366 
L 58.568853 204.835836 
L 59.983398 203.430904 
L 60.856421 202.832471 
L 63.143988 201.672896 
L 63.459536 201.561443 
L 65.431556 200.925913 
L 67.719123 200.482985 
L 70.006691 200.274092 
L 72.294259 200.253308 
L 74.581826 200.387681 
L 76.869394 200.648725 
L 79.156961 201.006067 
L 81.444529 201.423936 
L 82.195394 201.561443 
L 83.732096 201.864112 
L 86.019664 202.287001 
L 88.307231 202.660535 
L 90.594799 202.968422 
L 92.882367 203.210851 
L 95.169934 203.400766 
L 95.617039 203.430904 
L 97.457502 203.590271 
L 99.745069 203.773321 
L 102.032637 203.966462 
L 104.320204 204.19057 
L 106.607772 204.463491 
L 108.895339 204.801054 
L 111.182907 205.21824 
L 111.561578 205.300366 
L 113.470475 206.17219 
L 115.278304 207.169828 
L 114.162429 209.039289 
L 113.470475 209.267474 
L 111.182907 209.918133 
L 108.895339 210.46444 
L 106.67793 210.908751 
L 106.607772 210.917208 
L 104.320204 211.153481 
L 102.032637 211.355953 
L 99.745069 211.538289 
L 97.457502 211.71722 
L 95.169934 211.912971 
L 92.882367 212.148348 
L 90.594799 212.445558 
L 88.572508 212.778212 
L 88.307231 212.813141 
L 86.019664 213.18874 
L 83.732096 213.615414 
L 81.444529 214.064407 
L 79.156961 214.497665 
L 78.27905 214.647674 
L 76.869394 214.874693 
L 74.581826 215.160398 
L 72.294259 215.325855 
L 70.006691 215.344296 
L 67.719123 215.185701 
L 65.431556 214.808805 
z
" style="fill:#fb7a5a;"/>
   </g>
   <g id="PathCollection_6">
    <path clip-path="url(#p66f3c98364)" d="M 65.431556 214.808805 
L 67.719123 215.185701 
L 70.006691 215.344296 
L 72.294259 215.325855 
L 74.581826 215.160398 
L 76.869394 214.874693 
L 78.27905 214.647674 
L 79.156961 214.497665 
L 81.444529 214.064407 
L 83.732096 213.615414 
L 86.019664 213.18874 
L 88.307231 212.813141 
L 88.572508 212.778212 
L 90.594799 212.445558 
L 92.882367 212.148348 
L 95.169934 211.912971 
L 97.457502 211.71722 
L 99.745069 211.538289 
L 102.032637 211.355953 
L 104.320204 211.153481 
L 106.607772 210.917208 
L 106.67793 210.908751 
L 108.895339 210.46444 
L 111.182907 209.918133 
L 113.470475 209.267474 
L 114.162429 209.039289 
L 115.278304 207.169828 
L 113.470475 206.17219 
L 111.561578 205.300366 
L 111.182907 205.21824 
L 108.895339 204.801054 
L 106.607772 204.463491 
L 104.320204 204.19057 
L 102.032637 203.966462 
L 99.745069 203.773321 
L 97.457502 203.590271 
L 95.617039 203.430904 
L 95.169934 203.400766 
L 92.882367 203.210851 
L 90.594799 202.968422 
L 88.307231 202.660535 
L 86.019664 202.287001 
L 83.732096 201.864112 
L 82.195394 201.561443 
L 81.444529 201.423936 
L 79.156961 201.006067 
L 76.869394 200.648725 
L 74.581826 200.387681 
L 72.294259 200.253308 
L 70.006691 200.274092 
L 67.719123 200.482985 
L 65.431556 200.925913 
L 63.459536 201.561443 
L 63.143988 201.672896 
L 60.856421 202.832471 
L 59.983398 203.430904 
L 58.568853 204.835836 
L 58.171731 205.300366 
L 57.364907 207.169828 
L 57.391216 209.039289 
L 58.284701 210.908751 
L 58.568853 211.212332 
L 60.32787 212.778212 
L 60.856421 213.099563 
L 63.143988 214.147164 
L 64.830088 214.647674 
z
M 63.356361 212.778212 
L 63.143988 212.679351 
L 60.856421 211.135929 
L 60.597792 210.908751 
L 59.503615 209.039289 
L 59.469894 207.169828 
L 60.453301 205.300366 
L 60.856421 204.911345 
L 62.828988 203.430904 
L 63.143988 203.260926 
L 65.431556 202.372865 
L 67.719123 201.850231 
L 70.006691 201.609521 
L 72.294259 201.596533 
L 74.581826 201.77265 
L 76.869394 202.104546 
L 79.156961 202.55637 
L 81.444529 203.085256 
L 82.900762 203.430904 
L 83.732096 203.691852 
L 86.019664 204.356583 
L 88.307231 204.950398 
L 89.94123 205.300366 
L 90.594799 205.579853 
L 92.882367 206.346536 
L 95.169934 206.96865 
L 96.053852 207.169828 
L 95.169934 208.07487 
L 94.435585 209.039289 
L 92.882367 209.345963 
L 90.594799 209.92624 
L 88.307231 210.667223 
L 87.716295 210.908751 
L 86.019664 211.304567 
L 83.732096 211.92039 
L 81.444529 212.571196 
L 80.722357 212.778212 
L 79.156961 213.12588 
L 76.869394 213.577618 
L 74.581826 213.920702 
L 72.294259 214.119355 
L 70.006691 214.140948 
L 67.719123 213.948962 
L 65.431556 213.493345 
z
" style="fill:#f6583e;"/>
   </g>
   <g id="PathCollection_7">
    <path clip-path="url(#p66f3c98364)" d="M 65.431556 213.493345 
L 67.719123 213.948962 
L 70.006691 214.140948 
L 72.294259 214.119355 
L 74.581826 213.920702 
L 76.869394 213.577618 
L 79.156961 213.12588 
L 80.722357 212.778212 
L 81.444529 212.571196 
L 83.732096 211.92039 
L 86.019664 211.304567 
L 87.716295 210.908751 
L 88.307231 210.667223 
L 90.594799 209.92624 
L 92.882367 209.345963 
L 94.435585 209.039289 
L 95.169934 208.07487 
L 96.053852 207.169828 
L 95.169934 206.96865 
L 92.882367 206.346536 
L 90.594799 205.579853 
L 89.94123 205.300366 
L 88.307231 204.950398 
L 86.019664 204.356583 
L 83.732096 203.691852 
L 82.900762 203.430904 
L 81.444529 203.085256 
L 79.156961 202.55637 
L 76.869394 202.104546 
L 74.581826 201.77265 
L 72.294259 201.596533 
L 70.006691 201.609521 
L 67.719123 201.850231 
L 65.431556 202.372865 
L 63.143988 203.260926 
L 62.828988 203.430904 
L 60.856421 204.911345 
L 60.453301 205.300366 
L 59.469894 207.169828 
L 59.503615 209.039289 
L 60.597792 210.908751 
L 60.856421 211.135929 
L 63.143988 212.679351 
L 63.356361 212.778212 
z
M 68.41117 212.778212 
L 67.719123 212.693354 
L 65.431556 212.040812 
L 63.158131 210.908751 
L 63.143988 210.895128 
L 61.72885 209.039289 
L 61.682279 207.169828 
L 62.955623 205.300366 
L 63.143988 205.157429 
L 65.431556 203.902817 
L 66.871211 203.430904 
L 67.719123 203.215426 
L 70.006691 202.943419 
L 72.294259 202.939376 
L 74.581826 203.158578 
L 76.149916 203.430904 
L 76.869394 203.592129 
L 79.156961 204.264351 
L 81.444529 205.053812 
L 82.153013 205.300366 
L 83.732096 206.397401 
L 84.927816 207.169828 
L 84.530955 209.039289 
L 83.732096 209.444789 
L 81.444529 210.724076 
L 81.122308 210.908751 
L 79.156961 211.530953 
L 76.869394 212.170001 
L 74.581826 212.656566 
L 73.609116 212.778212 
L 72.294259 212.909333 
L 70.006691 212.933651 
z
" style="fill:#e83429;"/>
   </g>
   <g id="PathCollection_8">
    <path clip-path="url(#p66f3c98364)" d="M 70.006691 212.933651 
L 72.294259 212.909333 
L 73.609116 212.778212 
L 74.581826 212.656566 
L 76.869394 212.170001 
L 79.156961 211.530953 
L 81.122308 210.908751 
L 81.444529 210.724076 
L 83.732096 209.444789 
L 84.530955 209.039289 
L 84.927816 207.169828 
L 83.732096 206.397401 
L 82.153013 205.300366 
L 81.444529 205.053812 
L 79.156961 204.264351 
L 76.869394 203.592129 
L 76.149916 203.430904 
L 74.581826 203.158578 
L 72.294259 202.939376 
L 70.006691 202.943419 
L 67.719123 203.215426 
L 66.871211 203.430904 
L 65.431556 203.902817 
L 63.143988 205.157429 
L 62.955623 205.300366 
L 61.682279 207.169828 
L 61.72885 209.039289 
L 63.143988 210.895128 
L 63.158131 210.908751 
L 65.431556 212.040812 
L 67.719123 212.693354 
L 68.41117 212.778212 
z
M 66.875861 210.908751 
L 65.431556 210.063167 
L 64.353345 209.039289 
L 64.28077 207.169828 
L 65.431556 205.949146 
L 66.400379 205.300366 
L 67.719123 204.832783 
L 70.006691 204.464049 
L 72.294259 204.47142 
L 74.581826 204.794248 
L 76.570916 205.300366 
L 76.869394 205.446041 
L 79.156961 206.899272 
L 79.539409 207.169828 
L 79.274043 209.039289 
L 79.156961 209.107856 
L 76.869394 210.352564 
L 75.559256 210.908751 
L 74.581826 211.139105 
L 72.294259 211.458462 
L 70.006691 211.490243 
L 67.719123 211.173792 
z
" style="fill:#ca181d;"/>
   </g>
   <g id="PathCollection_9">
    <path clip-path="url(#p66f3c98364)" d="M 67.719123 211.173792 
L 70.006691 211.490243 
L 72.294259 211.458462 
L 74.581826 211.139105 
L 75.559256 210.908751 
L 76.869394 210.352564 
L 79.156961 209.107856 
L 79.274043 209.039289 
L 79.539409 207.169828 
L 79.156961 206.899272 
L 76.869394 205.446041 
L 76.570916 205.300366 
L 74.581826 204.794248 
L 72.294259 204.47142 
L 70.006691 204.464049 
L 67.719123 204.832783 
L 66.400379 205.300366 
L 65.431556 205.949146 
L 64.28077 207.169828 
L 64.353345 209.039289 
L 65.431556 210.063167 
L 66.875861 210.908751 
z
M 68.885685 209.039289 
L 68.573746 207.169828 
L 70.006691 206.721515 
L 72.294259 206.763693 
L 73.65895 207.169828 
L 73.240497 209.039289 
L 72.294259 209.289475 
L 70.006691 209.343219 
z
" style="fill:#ac1117;"/>
   </g>
   <g id="PathCollection_10">
    <path clip-path="url(#p66f3c98364)" d="M 70.006691 209.343219 
L 72.294259 209.289475 
L 73.240497 209.039289 
L 73.65895 207.169828 
L 72.294259 206.763693 
L 70.006691 206.721515 
L 68.573746 207.169828 
L 68.885685 209.039289 
z
" style="fill:#7e0610;"/>
   </g>
   <g id="matplotlib.axis_1">
    <g id="xtick_1">
     <g id="line2d_1">
      <defs>
       <path d="M 0 0 
L 0 3.5 
" id="m49e8c8d1d9" style="stroke:#262626;stroke-width:0.8;"/>
      </defs>
      <g>
       <use style="fill:#262626;stroke:#262626;stroke-width:0.8;" x="67.334837" xlink:href="#m49e8c8d1d9" y="223"/>
      </g>
     </g>
     <g id="line2d_2">
      <defs>
       <path d="M 0 0 
L 0 -3.5 
" id="mc6c44ec366" style="stroke:#262626;stroke-width:0.8;"/>
      </defs>
      <g>
       <use style="fill:#262626;stroke:#262626;stroke-width:0.8;" x="67.334837" xlink:href="#mc6c44ec366" y="25.44"/>
      </g>
     </g>
     <g id="text_1">
      <!-- 0.0 -->
      <defs>
       <path d="M 31.78125 66.40625 
Q 24.171875 66.40625 20.328125 58.90625 
Q 16.5 51.421875 16.5 36.375 
Q 16.5 21.390625 20.328125 13.890625 
Q 24.171875 6.390625 31.78125 6.390625 
Q 39.453125 6.390625 43.28125 13.890625 
Q 47.125 21.390625 47.125 36.375 
Q 47.125 51.421875 43.28125 58.90625 
Q 39.453125 66.40625 31.78125 66.40625 
z
M 31.78125 74.21875 
Q 44.046875 74.21875 50.515625 64.515625 
Q 56.984375 54.828125 56.984375 36.375 
Q 56.984375 17.96875 50.515625 8.265625 
Q 44.046875 -1.421875 31.78125 -1.421875 
Q 19.53125 -1.421875 13.0625 8.265625 
Q 6.59375 17.96875 6.59375 36.375 
Q 6.59375 54.828125 13.0625 64.515625 
Q 19.53125 74.21875 31.78125 74.21875 
z
" id="DejaVuSans-30"/>
       <path d="M 10.6875 12.40625 
L 21 12.40625 
L 21 0 
L 10.6875 0 
z
" id="DejaVuSans-2e"/>
      </defs>
      <g style="fill:#262626;" transform="translate(58.588118 238.358281)scale(0.11 -0.11)">
       <use xlink:href="#DejaVuSans-30"/>
       <use x="63.623047" xlink:href="#DejaVuSans-2e"/>
       <use x="95.410156" xlink:href="#DejaVuSans-30"/>
      </g>
     </g>
    </g>
    <g id="xtick_2">
     <g id="line2d_3">
      <g>
       <use style="fill:#262626;stroke:#262626;stroke-width:0.8;" x="137.649636" xlink:href="#m49e8c8d1d9" y="223"/>
      </g>
     </g>
     <g id="line2d_4">
      <g>
       <use style="fill:#262626;stroke:#262626;stroke-width:0.8;" x="137.649636" xlink:href="#mc6c44ec366" y="25.44"/>
      </g>
     </g>
     <g id="text_2">
      <!-- 1.0 -->
      <defs>
       <path d="M 12.40625 8.296875 
L 28.515625 8.296875 
L 28.515625 63.921875 
L 10.984375 60.40625 
L 10.984375 69.390625 
L 28.421875 72.90625 
L 38.28125 72.90625 
L 38.28125 8.296875 
L 54.390625 8.296875 
L 54.390625 0 
L 12.40625 0 
z
" id="DejaVuSans-31"/>
      </defs>
      <g style="fill:#262626;" transform="translate(128.902917 238.358281)scale(0.11 -0.11)">
       <use xlink:href="#DejaVuSans-31"/>
       <use x="63.623047" xlink:href="#DejaVuSans-2e"/>
       <use x="95.410156" xlink:href="#DejaVuSans-30"/>
      </g>
     </g>
    </g>
    <g id="xtick_3">
     <g id="line2d_5">
      <g>
       <use style="fill:#262626;stroke:#262626;stroke-width:0.8;" x="207.964434" xlink:href="#m49e8c8d1d9" y="223"/>
      </g>
     </g>
     <g id="line2d_6">
      <g>
       <use style="fill:#262626;stroke:#262626;stroke-width:0.8;" x="207.964434" xlink:href="#mc6c44ec366" y="25.44"/>
      </g>
     </g>
     <g id="text_3">
      <!-- 2.0 -->
      <defs>
       <path d="M 19.1875 8.296875 
L 53.609375 8.296875 
L 53.609375 0 
L 7.328125 0 
L 7.328125 8.296875 
Q 12.9375 14.109375 22.625 23.890625 
Q 32.328125 33.6875 34.8125 36.53125 
Q 39.546875 41.84375 41.421875 45.53125 
Q 43.3125 49.21875 43.3125 52.78125 
Q 43.3125 58.59375 39.234375 62.25 
Q 35.15625 65.921875 28.609375 65.921875 
Q 23.96875 65.921875 18.8125 64.3125 
Q 13.671875 62.703125 7.8125 59.421875 
L 7.8125 69.390625 
Q 13.765625 71.78125 18.9375 73 
Q 24.125 74.21875 28.421875 74.21875 
Q 39.75 74.21875 46.484375 68.546875 
Q 53.21875 62.890625 53.21875 53.421875 
Q 53.21875 48.921875 51.53125 44.890625 
Q 49.859375 40.875 45.40625 35.40625 
Q 44.1875 33.984375 37.640625 27.21875 
Q 31.109375 20.453125 19.1875 8.296875 
z
" id="DejaVuSans-32"/>
      </defs>
      <g style="fill:#262626;" transform="translate(199.217716 238.358281)scale(0.11 -0.11)">
       <use xlink:href="#DejaVuSans-32"/>
       <use x="63.623047" xlink:href="#DejaVuSans-2e"/>
       <use x="95.410156" xlink:href="#DejaVuSans-30"/>
      </g>
     </g>
    </g>
    <g id="text_4">
     <!-- log10 counts (Control) -->
     <defs>
      <path d="M 9.421875 75.984375 
L 18.40625 75.984375 
L 18.40625 0 
L 9.421875 0 
z
" id="DejaVuSans-6c"/>
      <path d="M 30.609375 48.390625 
Q 23.390625 48.390625 19.1875 42.75 
Q 14.984375 37.109375 14.984375 27.296875 
Q 14.984375 17.484375 19.15625 11.84375 
Q 23.34375 6.203125 30.609375 6.203125 
Q 37.796875 6.203125 41.984375 11.859375 
Q 46.1875 17.53125 46.1875 27.296875 
Q 46.1875 37.015625 41.984375 42.703125 
Q 37.796875 48.390625 30.609375 48.390625 
z
M 30.609375 56 
Q 42.328125 56 49.015625 48.375 
Q 55.71875 40.765625 55.71875 27.296875 
Q 55.71875 13.875 49.015625 6.21875 
Q 42.328125 -1.421875 30.609375 -1.421875 
Q 18.84375 -1.421875 12.171875 6.21875 
Q 5.515625 13.875 5.515625 27.296875 
Q 5.515625 40.765625 12.171875 48.375 
Q 18.84375 56 30.609375 56 
z
" id="DejaVuSans-6f"/>
      <path d="M 45.40625 27.984375 
Q 45.40625 37.75 41.375 43.109375 
Q 37.359375 48.484375 30.078125 48.484375 
Q 22.859375 48.484375 18.828125 43.109375 
Q 14.796875 37.75 14.796875 27.984375 
Q 14.796875 18.265625 18.828125 12.890625 
Q 22.859375 7.515625 30.078125 7.515625 
Q 37.359375 7.515625 41.375 12.890625 
Q 45.40625 18.265625 45.40625 27.984375 
z
M 54.390625 6.78125 
Q 54.390625 -7.171875 48.1875 -13.984375 
Q 42 -20.796875 29.203125 -20.796875 
Q 24.46875 -20.796875 20.265625 -20.09375 
Q 16.0625 -19.390625 12.109375 -17.921875 
L 12.109375 -9.1875 
Q 16.0625 -11.328125 19.921875 -12.34375 
Q 23.78125 -13.375 27.78125 -13.375 
Q 36.625 -13.375 41.015625 -8.765625 
Q 45.40625 -4.15625 45.40625 5.171875 
L 45.40625 9.625 
Q 42.625 4.78125 38.28125 2.390625 
Q 33.9375 0 27.875 0 
Q 17.828125 0 11.671875 7.65625 
Q 5.515625 15.328125 5.515625 27.984375 
Q 5.515625 40.671875 11.671875 48.328125 
Q 17.828125 56 27.875 56 
Q 33.9375 56 38.28125 53.609375 
Q 42.625 51.21875 45.40625 46.390625 
L 45.40625 54.6875 
L 54.390625 54.6875 
z
" id="DejaVuSans-67"/>
      <path id="DejaVuSans-20"/>
      <path d="M 48.78125 52.59375 
L 48.78125 44.1875 
Q 44.96875 46.296875 41.140625 47.34375 
Q 37.3125 48.390625 33.40625 48.390625 
Q 24.65625 48.390625 19.8125 42.84375 
Q 14.984375 37.3125 14.984375 27.296875 
Q 14.984375 17.28125 19.8125 11.734375 
Q 24.65625 6.203125 33.40625 6.203125 
Q 37.3125 6.203125 41.140625 7.25 
Q 44.96875 8.296875 48.78125 10.40625 
L 48.78125 2.09375 
Q 45.015625 0.34375 40.984375 -0.53125 
Q 36.96875 -1.421875 32.421875 -1.421875 
Q 20.0625 -1.421875 12.78125 6.34375 
Q 5.515625 14.109375 5.515625 27.296875 
Q 5.515625 40.671875 12.859375 48.328125 
Q 20.21875 56 33.015625 56 
Q 37.15625 56 41.109375 55.140625 
Q 45.0625 54.296875 48.78125 52.59375 
z
" id="DejaVuSans-63"/>
      <path d="M 8.5 21.578125 
L 8.5 54.6875 
L 17.484375 54.6875 
L 17.484375 21.921875 
Q 17.484375 14.15625 20.5 10.265625 
Q 23.53125 6.390625 29.59375 6.390625 
Q 36.859375 6.390625 41.078125 11.03125 
Q 45.3125 15.671875 45.3125 23.6875 
L 45.3125 54.6875 
L 54.296875 54.6875 
L 54.296875 0 
L 45.3125 0 
L 45.3125 8.40625 
Q 42.046875 3.421875 37.71875 1 
Q 33.40625 -1.421875 27.6875 -1.421875 
Q 18.265625 -1.421875 13.375 4.4375 
Q 8.5 10.296875 8.5 21.578125 
z
M 31.109375 56 
z
" id="DejaVuSans-75"/>
      <path d="M 54.890625 33.015625 
L 54.890625 0 
L 45.90625 0 
L 45.90625 32.71875 
Q 45.90625 40.484375 42.875 44.328125 
Q 39.84375 48.1875 33.796875 48.1875 
Q 26.515625 48.1875 22.3125 43.546875 
Q 18.109375 38.921875 18.109375 30.90625 
L 18.109375 0 
L 9.078125 0 
L 9.078125 54.6875 
L 18.109375 54.6875 
L 18.109375 46.1875 
Q 21.34375 51.125 25.703125 53.5625 
Q 30.078125 56 35.796875 56 
Q 45.21875 56 50.046875 50.171875 
Q 54.890625 44.34375 54.890625 33.015625 
z
" id="DejaVuSans-6e"/>
      <path d="M 18.3125 70.21875 
L 18.3125 54.6875 
L 36.8125 54.6875 
L 36.8125 47.703125 
L 18.3125 47.703125 
L 18.3125 18.015625 
Q 18.3125 11.328125 20.140625 9.421875 
Q 21.96875 7.515625 27.59375 7.515625 
L 36.8125 7.515625 
L 36.8125 0 
L 27.59375 0 
Q 17.1875 0 13.234375 3.875 
Q 9.28125 7.765625 9.28125 18.015625 
L 9.28125 47.703125 
L 2.6875 47.703125 
L 2.6875 54.6875 
L 9.28125 54.6875 
L 9.28125 70.21875 
z
" id="DejaVuSans-74"/>
      <path d="M 44.28125 53.078125 
L 44.28125 44.578125 
Q 40.484375 46.53125 36.375 47.5 
Q 32.28125 48.484375 27.875 48.484375 
Q 21.1875 48.484375 17.84375 46.4375 
Q 14.5 44.390625 14.5 40.28125 
Q 14.5 37.15625 16.890625 35.375 
Q 19.28125 33.59375 26.515625 31.984375 
L 29.59375 31.296875 
Q 39.15625 29.25 43.1875 25.515625 
Q 47.21875 21.78125 47.21875 15.09375 
Q 47.21875 7.46875 41.1875 3.015625 
Q 35.15625 -1.421875 24.609375 -1.421875 
Q 20.21875 -1.421875 15.453125 -0.5625 
Q 10.6875 0.296875 5.421875 2 
L 5.421875 11.28125 
Q 10.40625 8.6875 15.234375 7.390625 
Q 20.0625 6.109375 24.8125 6.109375 
Q 31.15625 6.109375 34.5625 8.28125 
Q 37.984375 10.453125 37.984375 14.40625 
Q 37.984375 18.0625 35.515625 20.015625 
Q 33.0625 21.96875 24.703125 23.78125 
L 21.578125 24.515625 
Q 13.234375 26.265625 9.515625 29.90625 
Q 5.8125 33.546875 5.8125 39.890625 
Q 5.8125 47.609375 11.28125 51.796875 
Q 16.75 56 26.8125 56 
Q 31.78125 56 36.171875 55.265625 
Q 40.578125 54.546875 44.28125 53.078125 
z
" id="DejaVuSans-73"/>
      <path d="M 31 75.875 
Q 24.46875 64.65625 21.28125 53.65625 
Q 18.109375 42.671875 18.109375 31.390625 
Q 18.109375 20.125 21.3125 9.0625 
Q 24.515625 -2 31 -13.1875 
L 23.1875 -13.1875 
Q 15.875 -1.703125 12.234375 9.375 
Q 8.59375 20.453125 8.59375 31.390625 
Q 8.59375 42.28125 12.203125 53.3125 
Q 15.828125 64.359375 23.1875 75.875 
z
" id="DejaVuSans-28"/>
      <path d="M 64.40625 67.28125 
L 64.40625 56.890625 
Q 59.421875 61.53125 53.78125 63.8125 
Q 48.140625 66.109375 41.796875 66.109375 
Q 29.296875 66.109375 22.65625 58.46875 
Q 16.015625 50.828125 16.015625 36.375 
Q 16.015625 21.96875 22.65625 14.328125 
Q 29.296875 6.6875 41.796875 6.6875 
Q 48.140625 6.6875 53.78125 8.984375 
Q 59.421875 11.28125 64.40625 15.921875 
L 64.40625 5.609375 
Q 59.234375 2.09375 53.4375 0.328125 
Q 47.65625 -1.421875 41.21875 -1.421875 
Q 24.65625 -1.421875 15.125 8.703125 
Q 5.609375 18.84375 5.609375 36.375 
Q 5.609375 53.953125 15.125 64.078125 
Q 24.65625 74.21875 41.21875 74.21875 
Q 47.75 74.21875 53.53125 72.484375 
Q 59.328125 70.75 64.40625 67.28125 
z
" id="DejaVuSans-43"/>
      <path d="M 41.109375 46.296875 
Q 39.59375 47.171875 37.8125 47.578125 
Q 36.03125 48 33.890625 48 
Q 26.265625 48 22.1875 43.046875 
Q 18.109375 38.09375 18.109375 28.8125 
L 18.109375 0 
L 9.078125 0 
L 9.078125 54.6875 
L 18.109375 54.6875 
L 18.109375 46.1875 
Q 20.953125 51.171875 25.484375 53.578125 
Q 30.03125 56 36.53125 56 
Q 37.453125 56 38.578125 55.875 
Q 39.703125 55.765625 41.0625 55.515625 
z
" id="DejaVuSans-72"/>
      <path d="M 8.015625 75.875 
L 15.828125 75.875 
Q 23.140625 64.359375 26.78125 53.3125 
Q 30.421875 42.28125 30.421875 31.390625 
Q 30.421875 20.453125 26.78125 9.375 
Q 23.140625 -1.703125 15.828125 -13.1875 
L 8.015625 -13.1875 
Q 14.5 -2 17.703125 9.0625 
Q 20.90625 20.125 20.90625 31.390625 
Q 20.90625 42.671875 17.703125 53.65625 
Q 14.5 64.65625 8.015625 75.875 
z
" id="DejaVuSans-29"/>
     </defs>
     <g transform="translate(83.294531 253.004219)scale(0.11 -0.11)">
      <use xlink:href="#DejaVuSans-6c"/>
      <use x="27.783203" xlink:href="#DejaVuSans-6f"/>
      <use x="88.964844" xlink:href="#DejaVuSans-67"/>
      <use x="152.441406" xlink:href="#DejaVuSans-31"/>
      <use x="216.064453" xlink:href="#DejaVuSans-30"/>
      <use x="279.6875" xlink:href="#DejaVuSans-20"/>
      <use x="311.474609" xlink:href="#DejaVuSans-63"/>
      <use x="366.455078" xlink:href="#DejaVuSans-6f"/>
      <use x="427.636719" xlink:href="#DejaVuSans-75"/>
      <use x="491.015625" xlink:href="#DejaVuSans-6e"/>
      <use x="554.394531" xlink:href="#DejaVuSans-74"/>
      <use x="593.603516" xlink:href="#DejaVuSans-73"/>
      <use x="645.703125" xlink:href="#DejaVuSans-20"/>
      <use x="677.490234" xlink:href="#DejaVuSans-28"/>
      <use x="716.503906" xlink:href="#DejaVuSans-43"/>
      <use x="786.328125" xlink:href="#DejaVuSans-6f"/>
      <use x="847.509766" xlink:href="#DejaVuSans-6e"/>
      <use x="910.888672" xlink:href="#DejaVuSans-74"/>
      <use x="950.097656" xlink:href="#DejaVuSans-72"/>
      <use x="991.179688" xlink:href="#DejaVuSans-6f"/>
      <use x="1052.361328" xlink:href="#DejaVuSans-6c"/>
      <use x="1080.144531" xlink:href="#DejaVuSans-29"/>
     </g>
    </g>
   </g>
   <g id="matplotlib.axis_2">
    <g id="ytick_1">
     <g id="line2d_7">
      <defs>
       <path d="M 0 0 
L -3.5 0 
" id="mb67f80ab9a" style="stroke:#262626;stroke-width:0.8;"/>
      </defs>
      <g>
       <use style="fill:#262626;stroke:#262626;stroke-width:0.8;" x="51.01625" xlink:href="#mb67f80ab9a" y="208.365926"/>
      </g>
     </g>
     <g id="line2d_8">
      <defs>
       <path d="M 0 0 
L 3.5 0 
" id="mf970beca79" style="stroke:#262626;stroke-width:0.8;"/>
      </defs>
      <g>
       <use style="fill:#262626;stroke:#262626;stroke-width:0.8;" x="238.68" xlink:href="#mf970beca79" y="208.365926"/>
      </g>
     </g>
     <g id="text_5">
      <!-- 0.0 -->
      <g style="fill:#262626;" transform="translate(26.522813 212.545067)scale(0.11 -0.11)">
       <use xlink:href="#DejaVuSans-30"/>
       <use x="63.623047" xlink:href="#DejaVuSans-2e"/>
       <use x="95.410156" xlink:href="#DejaVuSans-30"/>
      </g>
     </g>
    </g>
    <g id="ytick_2">
     <g id="line2d_9">
      <g>
       <use style="fill:#262626;stroke:#262626;stroke-width:0.8;" x="51.01625" xlink:href="#mb67f80ab9a" y="165.325972"/>
      </g>
     </g>
     <g id="line2d_10">
      <g>
       <use style="fill:#262626;stroke:#262626;stroke-width:0.8;" x="238.68" xlink:href="#mf970beca79" y="165.325972"/>
      </g>
     </g>
     <g id="text_6">
      <!-- 1.0 -->
      <g style="fill:#262626;" transform="translate(26.522813 169.505112)scale(0.11 -0.11)">
       <use xlink:href="#DejaVuSans-31"/>
       <use x="63.623047" xlink:href="#DejaVuSans-2e"/>
       <use x="95.410156" xlink:href="#DejaVuSans-30"/>
      </g>
     </g>
    </g>
    <g id="ytick_3">
     <g id="line2d_11">
      <g>
       <use style="fill:#262626;stroke:#262626;stroke-width:0.8;" x="51.01625" xlink:href="#mb67f80ab9a" y="122.286017"/>
      </g>
     </g>
     <g id="line2d_12">
      <g>
       <use style="fill:#262626;stroke:#262626;stroke-width:0.8;" x="238.68" xlink:href="#mf970beca79" y="122.286017"/>
      </g>
     </g>
     <g id="text_7">
      <!-- 2.0 -->
      <g style="fill:#262626;" transform="translate(26.522813 126.465158)scale(0.11 -0.11)">
       <use xlink:href="#DejaVuSans-32"/>
       <use x="63.623047" xlink:href="#DejaVuSans-2e"/>
       <use x="95.410156" xlink:href="#DejaVuSans-30"/>
      </g>
     </g>
    </g>
    <g id="ytick_4">
     <g id="line2d_13">
      <g>
       <use style="fill:#262626;stroke:#262626;stroke-width:0.8;" x="51.01625" xlink:href="#mb67f80ab9a" y="79.246063"/>
      </g>
     </g>
     <g id="line2d_14">
      <g>
       <use style="fill:#262626;stroke:#262626;stroke-width:0.8;" x="238.68" xlink:href="#mf970beca79" y="79.246063"/>
      </g>
     </g>
     <g id="text_8">
      <!-- 3.0 -->
      <defs>
       <path d="M 40.578125 39.3125 
Q 47.65625 37.796875 51.625 33 
Q 55.609375 28.21875 55.609375 21.1875 
Q 55.609375 10.40625 48.1875 4.484375 
Q 40.765625 -1.421875 27.09375 -1.421875 
Q 22.515625 -1.421875 17.65625 -0.515625 
Q 12.796875 0.390625 7.625 2.203125 
L 7.625 11.71875 
Q 11.71875 9.328125 16.59375 8.109375 
Q 21.484375 6.890625 26.8125 6.890625 
Q 36.078125 6.890625 40.9375 10.546875 
Q 45.796875 14.203125 45.796875 21.1875 
Q 45.796875 27.640625 41.28125 31.265625 
Q 36.765625 34.90625 28.71875 34.90625 
L 20.21875 34.90625 
L 20.21875 43.015625 
L 29.109375 43.015625 
Q 36.375 43.015625 40.234375 45.921875 
Q 44.09375 48.828125 44.09375 54.296875 
Q 44.09375 59.90625 40.109375 62.90625 
Q 36.140625 65.921875 28.71875 65.921875 
Q 24.65625 65.921875 20.015625 65.03125 
Q 15.375 64.15625 9.8125 62.3125 
L 9.8125 71.09375 
Q 15.4375 72.65625 20.34375 73.4375 
Q 25.25 74.21875 29.59375 74.21875 
Q 40.828125 74.21875 47.359375 69.109375 
Q 53.90625 64.015625 53.90625 55.328125 
Q 53.90625 49.265625 50.4375 45.09375 
Q 46.96875 40.921875 40.578125 39.3125 
z
" id="DejaVuSans-33"/>
      </defs>
      <g style="fill:#262626;" transform="translate(26.522813 83.425204)scale(0.11 -0.11)">
       <use xlink:href="#DejaVuSans-33"/>
       <use x="63.623047" xlink:href="#DejaVuSans-2e"/>
       <use x="95.410156" xlink:href="#DejaVuSans-30"/>
      </g>
     </g>
    </g>
    <g id="ytick_5">
     <g id="line2d_15">
      <g>
       <use style="fill:#262626;stroke:#262626;stroke-width:0.8;" x="51.01625" xlink:href="#mb67f80ab9a" y="36.206109"/>
      </g>
     </g>
     <g id="line2d_16">
      <g>
       <use style="fill:#262626;stroke:#262626;stroke-width:0.8;" x="238.68" xlink:href="#mf970beca79" y="36.206109"/>
      </g>
     </g>
     <g id="text_9">
      <!-- 4.0 -->
      <defs>
       <path d="M 37.796875 64.3125 
L 12.890625 25.390625 
L 37.796875 25.390625 
z
M 35.203125 72.90625 
L 47.609375 72.90625 
L 47.609375 25.390625 
L 58.015625 25.390625 
L 58.015625 17.1875 
L 47.609375 17.1875 
L 47.609375 0 
L 37.796875 0 
L 37.796875 17.1875 
L 4.890625 17.1875 
L 4.890625 26.703125 
z
" id="DejaVuSans-34"/>
      </defs>
      <g style="fill:#262626;" transform="translate(26.522813 40.385249)scale(0.11 -0.11)">
       <use xlink:href="#DejaVuSans-34"/>
       <use x="63.623047" xlink:href="#DejaVuSans-2e"/>
       <use x="95.410156" xlink:href="#DejaVuSans-30"/>
      </g>
     </g>
    </g>
    <g id="text_10">
     <!-- log10 counts (ToxA_avg) -->
     <defs>
      <path d="M -0.296875 72.90625 
L 61.375 72.90625 
L 61.375 64.59375 
L 35.5 64.59375 
L 35.5 0 
L 25.59375 0 
L 25.59375 64.59375 
L -0.296875 64.59375 
z
" id="DejaVuSans-54"/>
      <path d="M 54.890625 54.6875 
L 35.109375 28.078125 
L 55.90625 0 
L 45.3125 0 
L 29.390625 21.484375 
L 13.484375 0 
L 2.875 0 
L 24.125 28.609375 
L 4.6875 54.6875 
L 15.28125 54.6875 
L 29.78125 35.203125 
L 44.28125 54.6875 
z
" id="DejaVuSans-78"/>
      <path d="M 34.1875 63.1875 
L 20.796875 26.90625 
L 47.609375 26.90625 
z
M 28.609375 72.90625 
L 39.796875 72.90625 
L 67.578125 0 
L 57.328125 0 
L 50.6875 18.703125 
L 17.828125 18.703125 
L 11.1875 0 
L 0.78125 0 
z
" id="DejaVuSans-41"/>
      <path d="M 50.984375 -16.609375 
L 50.984375 -23.578125 
L -0.984375 -23.578125 
L -0.984375 -16.609375 
z
" id="DejaVuSans-5f"/>
      <path d="M 34.28125 27.484375 
Q 23.390625 27.484375 19.1875 25 
Q 14.984375 22.515625 14.984375 16.5 
Q 14.984375 11.71875 18.140625 8.90625 
Q 21.296875 6.109375 26.703125 6.109375 
Q 34.1875 6.109375 38.703125 11.40625 
Q 43.21875 16.703125 43.21875 25.484375 
L 43.21875 27.484375 
z
M 52.203125 31.203125 
L 52.203125 0 
L 43.21875 0 
L 43.21875 8.296875 
Q 40.140625 3.328125 35.546875 0.953125 
Q 30.953125 -1.421875 24.3125 -1.421875 
Q 15.921875 -1.421875 10.953125 3.296875 
Q 6 8.015625 6 15.921875 
Q 6 25.140625 12.171875 29.828125 
Q 18.359375 34.515625 30.609375 34.515625 
L 43.21875 34.515625 
L 43.21875 35.40625 
Q 43.21875 41.609375 39.140625 45 
Q 35.0625 48.390625 27.6875 48.390625 
Q 23 48.390625 18.546875 47.265625 
Q 14.109375 46.140625 10.015625 43.890625 
L 10.015625 52.203125 
Q 14.9375 54.109375 19.578125 55.046875 
Q 24.21875 56 28.609375 56 
Q 40.484375 56 46.34375 49.84375 
Q 52.203125 43.703125 52.203125 31.203125 
z
" id="DejaVuSans-61"/>
      <path d="M 2.984375 54.6875 
L 12.5 54.6875 
L 29.59375 8.796875 
L 46.6875 54.6875 
L 56.203125 54.6875 
L 35.6875 0 
L 23.484375 0 
z
" id="DejaVuSans-76"/>
     </defs>
     <g transform="translate(19.929219 192.365859)rotate(-90)scale(0.11 -0.11)">
      <use xlink:href="#DejaVuSans-6c"/>
      <use x="27.783203" xlink:href="#DejaVuSans-6f"/>
      <use x="88.964844" xlink:href="#DejaVuSans-67"/>
      <use x="152.441406" xlink:href="#DejaVuSans-31"/>
      <use x="216.064453" xlink:href="#DejaVuSans-30"/>
      <use x="279.6875" xlink:href="#DejaVuSans-20"/>
      <use x="311.474609" xlink:href="#DejaVuSans-63"/>
      <use x="366.455078" xlink:href="#DejaVuSans-6f"/>
      <use x="427.636719" xlink:href="#DejaVuSans-75"/>
      <use x="491.015625" xlink:href="#DejaVuSans-6e"/>
      <use x="554.394531" xlink:href="#DejaVuSans-74"/>
      <use x="593.603516" xlink:href="#DejaVuSans-73"/>
      <use x="645.703125" xlink:href="#DejaVuSans-20"/>
      <use x="677.490234" xlink:href="#DejaVuSans-28"/>
      <use x="716.503906" xlink:href="#DejaVuSans-54"/>
      <use x="777.322266" xlink:href="#DejaVuSans-6f"/>
      <use x="838.457031" xlink:href="#DejaVuSans-78"/>
      <use x="897.636719" xlink:href="#DejaVuSans-41"/>
      <use x="966.044922" xlink:href="#DejaVuSans-5f"/>
      <use x="1016.044922" xlink:href="#DejaVuSans-61"/>
      <use x="1077.324219" xlink:href="#DejaVuSans-76"/>
      <use x="1136.503906" xlink:href="#DejaVuSans-67"/>
      <use x="1199.980469" xlink:href="#DejaVuSans-29"/>
     </g>
    </g>
   </g>
   <g id="line2d_17">
    <path clip-path="url(#p66f3c98364)" d="M 51.01625 218.354595 
L 238.68 103.484903 
" style="fill:none;opacity:0.75;stroke:#3399ff;stroke-dasharray:5.55,2.4;stroke-dashoffset:0;stroke-width:1.5;"/>
   </g>
   <g id="patch_3">
    <path d="M 51.01625 223 
L 51.01625 25.44 
" style="fill:none;stroke:#000000;stroke-linecap:square;stroke-linejoin:miter;stroke-width:0.8;"/>
   </g>
   <g id="patch_4">
    <path d="M 238.68 223 
L 238.68 25.44 
" style="fill:none;stroke:#000000;stroke-linecap:square;stroke-linejoin:miter;stroke-width:0.8;"/>
   </g>
   <g id="patch_5">
    <path d="M 51.01625 223 
L 238.68 223 
" style="fill:none;stroke:#000000;stroke-linecap:square;stroke-linejoin:miter;stroke-width:0.8;"/>
   </g>
   <g id="patch_6">
    <path d="M 51.01625 25.44 
L 238.68 25.44 
" style="fill:none;stroke:#000000;stroke-linecap:square;stroke-linejoin:miter;stroke-width:0.8;"/>
   </g>
   <g id="text_11">
    <!-- sgRNA Density -->
    <defs>
     <path d="M 44.390625 34.1875 
Q 47.5625 33.109375 50.5625 29.59375 
Q 53.5625 26.078125 56.59375 19.921875 
L 66.609375 0 
L 56 0 
L 46.6875 18.703125 
Q 43.0625 26.03125 39.671875 28.421875 
Q 36.28125 30.8125 30.421875 30.8125 
L 19.671875 30.8125 
L 19.671875 0 
L 9.8125 0 
L 9.8125 72.90625 
L 32.078125 72.90625 
Q 44.578125 72.90625 50.734375 67.671875 
Q 56.890625 62.453125 56.890625 51.90625 
Q 56.890625 45.015625 53.6875 40.46875 
Q 50.484375 35.9375 44.390625 34.1875 
z
M 19.671875 64.796875 
L 19.671875 38.921875 
L 32.078125 38.921875 
Q 39.203125 38.921875 42.84375 42.21875 
Q 46.484375 45.515625 46.484375 51.90625 
Q 46.484375 58.296875 42.84375 61.546875 
Q 39.203125 64.796875 32.078125 64.796875 
z
" id="DejaVuSans-52"/>
     <path d="M 9.8125 72.90625 
L 23.09375 72.90625 
L 55.421875 11.921875 
L 55.421875 72.90625 
L 64.984375 72.90625 
L 64.984375 0 
L 51.703125 0 
L 19.390625 60.984375 
L 19.390625 0 
L 9.8125 0 
z
" id="DejaVuSans-4e"/>
     <path d="M 19.671875 64.796875 
L 19.671875 8.109375 
L 31.59375 8.109375 
Q 46.6875 8.109375 53.6875 14.9375 
Q 60.6875 21.78125 60.6875 36.53125 
Q 60.6875 51.171875 53.6875 57.984375 
Q 46.6875 64.796875 31.59375 64.796875 
z
M 9.8125 72.90625 
L 30.078125 72.90625 
Q 51.265625 72.90625 61.171875 64.09375 
Q 71.09375 55.28125 71.09375 36.53125 
Q 71.09375 17.671875 61.125 8.828125 
Q 51.171875 0 30.078125 0 
L 9.8125 0 
z
" id="DejaVuSans-44"/>
     <path d="M 56.203125 29.59375 
L 56.203125 25.203125 
L 14.890625 25.203125 
Q 15.484375 15.921875 20.484375 11.0625 
Q 25.484375 6.203125 34.421875 6.203125 
Q 39.59375 6.203125 44.453125 7.46875 
Q 49.3125 8.734375 54.109375 11.28125 
L 54.109375 2.78125 
Q 49.265625 0.734375 44.1875 -0.34375 
Q 39.109375 -1.421875 33.890625 -1.421875 
Q 20.796875 -1.421875 13.15625 6.1875 
Q 5.515625 13.8125 5.515625 26.8125 
Q 5.515625 40.234375 12.765625 48.109375 
Q 20.015625 56 32.328125 56 
Q 43.359375 56 49.78125 48.890625 
Q 56.203125 41.796875 56.203125 29.59375 
z
M 47.21875 32.234375 
Q 47.125 39.59375 43.09375 43.984375 
Q 39.0625 48.390625 32.421875 48.390625 
Q 24.90625 48.390625 20.390625 44.140625 
Q 15.875 39.890625 15.1875 32.171875 
z
" id="DejaVuSans-65"/>
     <path d="M 9.421875 54.6875 
L 18.40625 54.6875 
L 18.40625 0 
L 9.421875 0 
z
M 9.421875 75.984375 
L 18.40625 75.984375 
L 18.40625 64.59375 
L 9.421875 64.59375 
z
" id="DejaVuSans-69"/>
     <path d="M 32.171875 -5.078125 
Q 28.375 -14.84375 24.75 -17.8125 
Q 21.140625 -20.796875 15.09375 -20.796875 
L 7.90625 -20.796875 
L 7.90625 -13.28125 
L 13.1875 -13.28125 
Q 16.890625 -13.28125 18.9375 -11.515625 
Q 21 -9.765625 23.484375 -3.21875 
L 25.09375 0.875 
L 2.984375 54.6875 
L 12.5 54.6875 
L 29.59375 11.921875 
L 46.6875 54.6875 
L 56.203125 54.6875 
z
" id="DejaVuSans-79"/>
    </defs>
    <g transform="translate(100.434063 19.44)scale(0.12 -0.12)">
     <use xlink:href="#DejaVuSans-73"/>
     <use x="52.099609" xlink:href="#DejaVuSans-67"/>
     <use x="115.576172" xlink:href="#DejaVuSans-52"/>
     <use x="185.058594" xlink:href="#DejaVuSans-4e"/>
     <use x="259.863281" xlink:href="#DejaVuSans-41"/>
     <use x="328.271484" xlink:href="#DejaVuSans-20"/>
     <use x="360.058594" xlink:href="#DejaVuSans-44"/>
     <use x="437.060547" xlink:href="#DejaVuSans-65"/>
     <use x="498.583984" xlink:href="#DejaVuSans-6e"/>
     <use x="561.962891" xlink:href="#DejaVuSans-73"/>
     <use x="614.0625" xlink:href="#DejaVuSans-69"/>
     <use x="641.845703" xlink:href="#DejaVuSans-74"/>
     <use x="681.054688" xlink:href="#DejaVuSans-79"/>
    </g>
   </g>
  </g>
 </g>
 <defs>
  <clipPath id="p66f3c98364">
   <rect height="197.56" width="187.66375" x="51.01625" y="25.44"/>
  </clipPath>
 </defs>
</svg>
