<?xml version="1.0" encoding="utf-8" standalone="no"?>
<!DOCTYPE svg PUBLIC "-//W3C//DTD SVG 1.1//EN"
  "http://www.w3.org/Graphics/SVG/1.1/DTD/svg11.dtd">
<!-- Created with matplotlib (http://matplotlib.org/) -->
<svg height="360pt" version="1.1" viewBox="0 0 432 360" width="432pt" xmlns="http://www.w3.org/2000/svg" xmlns:xlink="http://www.w3.org/1999/xlink">
 <defs>
  <style type="text/css">
*{stroke-linecap:butt;stroke-linejoin:round;}
  </style>
 </defs>
 <g id="figure_1">
  <g id="patch_1">
   <path d="M 0 360 
L 432 360 
L 432 0 
L 0 0 
z
" style="fill:#ffffff;"/>
  </g>
  <g id="axes_1">
   <g id="patch_2">
    <path d="M 55.55 142 
L 156.186667 142 
L 156.186667 29.76 
L 55.55 29.76 
z
" style="fill:#ffffff;"/>
   </g>
   <g id="matplotlib.axis_1"/>
   <g id="matplotlib.axis_2">
    <g id="ytick_1">
     <g id="line2d_1">
      <defs>
       <path d="M 0 0 
L -3.5 0 
" id="ma54a40d805" style="stroke:#000000;stroke-width:0.8;"/>
      </defs>
      <g>
       <use style="stroke:#000000;stroke-width:0.8;" x="55.55" xlink:href="#ma54a40d805" y="136.898182"/>
      </g>
     </g>
     <g id="text_1">
      <!-- 0 -->
      <defs>
       <path d="M 31.78125 66.40625 
Q 24.171875 66.40625 20.328125 58.90625 
Q 16.5 51.421875 16.5 36.375 
Q 16.5 21.390625 20.328125 13.890625 
Q 24.171875 6.390625 31.78125 6.390625 
Q 39.453125 6.390625 43.28125 13.890625 
Q 47.125 21.390625 47.125 36.375 
Q 47.125 51.421875 43.28125 58.90625 
Q 39.453125 66.40625 31.78125 66.40625 
z
M 31.78125 74.21875 
Q 44.046875 74.21875 50.515625 64.515625 
Q 56.984375 54.828125 56.984375 36.375 
Q 56.984375 17.96875 50.515625 8.265625 
Q 44.046875 -1.421875 31.78125 -1.421875 
Q 19.53125 -1.421875 13.0625 8.265625 
Q 6.59375 17.96875 6.59375 36.375 
Q 6.59375 54.828125 13.0625 64.515625 
Q 19.53125 74.21875 31.78125 74.21875 
z
" id="DejaVuSans-30"/>
      </defs>
      <g transform="translate(40.915 141.457244)scale(0.12 -0.12)">
       <use xlink:href="#DejaVuSans-30"/>
      </g>
     </g>
    </g>
    <g id="ytick_2">
     <g id="line2d_2">
      <g>
       <use style="stroke:#000000;stroke-width:0.8;" x="55.55" xlink:href="#ma54a40d805" y="96.507868"/>
      </g>
     </g>
     <g id="text_2">
      <!-- 10 -->
      <defs>
       <path d="M 12.40625 8.296875 
L 28.515625 8.296875 
L 28.515625 63.921875 
L 10.984375 60.40625 
L 10.984375 69.390625 
L 28.421875 72.90625 
L 38.28125 72.90625 
L 38.28125 8.296875 
L 54.390625 8.296875 
L 54.390625 0 
L 12.40625 0 
z
" id="DejaVuSans-31"/>
      </defs>
      <g transform="translate(33.28 101.06693)scale(0.12 -0.12)">
       <use xlink:href="#DejaVuSans-31"/>
       <use x="63.623047" xlink:href="#DejaVuSans-30"/>
      </g>
     </g>
    </g>
    <g id="ytick_3">
     <g id="line2d_3">
      <g>
       <use style="stroke:#000000;stroke-width:0.8;" x="55.55" xlink:href="#ma54a40d805" y="56.117553"/>
      </g>
     </g>
     <g id="text_3">
      <!-- 20 -->
      <defs>
       <path d="M 19.1875 8.296875 
L 53.609375 8.296875 
L 53.609375 0 
L 7.328125 0 
L 7.328125 8.296875 
Q 12.9375 14.109375 22.625 23.890625 
Q 32.328125 33.6875 34.8125 36.53125 
Q 39.546875 41.84375 41.421875 45.53125 
Q 43.3125 49.21875 43.3125 52.78125 
Q 43.3125 58.59375 39.234375 62.25 
Q 35.15625 65.921875 28.609375 65.921875 
Q 23.96875 65.921875 18.8125 64.3125 
Q 13.671875 62.703125 7.8125 59.421875 
L 7.8125 69.390625 
Q 13.765625 71.78125 18.9375 73 
Q 24.125 74.21875 28.421875 74.21875 
Q 39.75 74.21875 46.484375 68.546875 
Q 53.21875 62.890625 53.21875 53.421875 
Q 53.21875 48.921875 51.53125 44.890625 
Q 49.859375 40.875 45.40625 35.40625 
Q 44.1875 33.984375 37.640625 27.21875 
Q 31.109375 20.453125 19.1875 8.296875 
z
" id="DejaVuSans-32"/>
      </defs>
      <g transform="translate(33.28 60.676616)scale(0.12 -0.12)">
       <use xlink:href="#DejaVuSans-32"/>
       <use x="63.623047" xlink:href="#DejaVuSans-30"/>
      </g>
     </g>
    </g>
    <g id="text_4">
     <!-- Counts per sgRNA -->
     <defs>
      <path d="M 64.40625 67.28125 
L 64.40625 56.890625 
Q 59.421875 61.53125 53.78125 63.8125 
Q 48.140625 66.109375 41.796875 66.109375 
Q 29.296875 66.109375 22.65625 58.46875 
Q 16.015625 50.828125 16.015625 36.375 
Q 16.015625 21.96875 22.65625 14.328125 
Q 29.296875 6.6875 41.796875 6.6875 
Q 48.140625 6.6875 53.78125 8.984375 
Q 59.421875 11.28125 64.40625 15.921875 
L 64.40625 5.609375 
Q 59.234375 2.09375 53.4375 0.328125 
Q 47.65625 -1.421875 41.21875 -1.421875 
Q 24.65625 -1.421875 15.125 8.703125 
Q 5.609375 18.84375 5.609375 36.375 
Q 5.609375 53.953125 15.125 64.078125 
Q 24.65625 74.21875 41.21875 74.21875 
Q 47.75 74.21875 53.53125 72.484375 
Q 59.328125 70.75 64.40625 67.28125 
z
" id="DejaVuSans-43"/>
      <path d="M 30.609375 48.390625 
Q 23.390625 48.390625 19.1875 42.75 
Q 14.984375 37.109375 14.984375 27.296875 
Q 14.984375 17.484375 19.15625 11.84375 
Q 23.34375 6.203125 30.609375 6.203125 
Q 37.796875 6.203125 41.984375 11.859375 
Q 46.1875 17.53125 46.1875 27.296875 
Q 46.1875 37.015625 41.984375 42.703125 
Q 37.796875 48.390625 30.609375 48.390625 
z
M 30.609375 56 
Q 42.328125 56 49.015625 48.375 
Q 55.71875 40.765625 55.71875 27.296875 
Q 55.71875 13.875 49.015625 6.21875 
Q 42.328125 -1.421875 30.609375 -1.421875 
Q 18.84375 -1.421875 12.171875 6.21875 
Q 5.515625 13.875 5.515625 27.296875 
Q 5.515625 40.765625 12.171875 48.375 
Q 18.84375 56 30.609375 56 
z
" id="DejaVuSans-6f"/>
      <path d="M 8.5 21.578125 
L 8.5 54.6875 
L 17.484375 54.6875 
L 17.484375 21.921875 
Q 17.484375 14.15625 20.5 10.265625 
Q 23.53125 6.390625 29.59375 6.390625 
Q 36.859375 6.390625 41.078125 11.03125 
Q 45.3125 15.671875 45.3125 23.6875 
L 45.3125 54.6875 
L 54.296875 54.6875 
L 54.296875 0 
L 45.3125 0 
L 45.3125 8.40625 
Q 42.046875 3.421875 37.71875 1 
Q 33.40625 -1.421875 27.6875 -1.421875 
Q 18.265625 -1.421875 13.375 4.4375 
Q 8.5 10.296875 8.5 21.578125 
z
M 31.109375 56 
z
" id="DejaVuSans-75"/>
      <path d="M 54.890625 33.015625 
L 54.890625 0 
L 45.90625 0 
L 45.90625 32.71875 
Q 45.90625 40.484375 42.875 44.328125 
Q 39.84375 48.1875 33.796875 48.1875 
Q 26.515625 48.1875 22.3125 43.546875 
Q 18.109375 38.921875 18.109375 30.90625 
L 18.109375 0 
L 9.078125 0 
L 9.078125 54.6875 
L 18.109375 54.6875 
L 18.109375 46.1875 
Q 21.34375 51.125 25.703125 53.5625 
Q 30.078125 56 35.796875 56 
Q 45.21875 56 50.046875 50.171875 
Q 54.890625 44.34375 54.890625 33.015625 
z
" id="DejaVuSans-6e"/>
      <path d="M 18.3125 70.21875 
L 18.3125 54.6875 
L 36.8125 54.6875 
L 36.8125 47.703125 
L 18.3125 47.703125 
L 18.3125 18.015625 
Q 18.3125 11.328125 20.140625 9.421875 
Q 21.96875 7.515625 27.59375 7.515625 
L 36.8125 7.515625 
L 36.8125 0 
L 27.59375 0 
Q 17.1875 0 13.234375 3.875 
Q 9.28125 7.765625 9.28125 18.015625 
L 9.28125 47.703125 
L 2.6875 47.703125 
L 2.6875 54.6875 
L 9.28125 54.6875 
L 9.28125 70.21875 
z
" id="DejaVuSans-74"/>
      <path d="M 44.28125 53.078125 
L 44.28125 44.578125 
Q 40.484375 46.53125 36.375 47.5 
Q 32.28125 48.484375 27.875 48.484375 
Q 21.1875 48.484375 17.84375 46.4375 
Q 14.5 44.390625 14.5 40.28125 
Q 14.5 37.15625 16.890625 35.375 
Q 19.28125 33.59375 26.515625 31.984375 
L 29.59375 31.296875 
Q 39.15625 29.25 43.1875 25.515625 
Q 47.21875 21.78125 47.21875 15.09375 
Q 47.21875 7.46875 41.1875 3.015625 
Q 35.15625 -1.421875 24.609375 -1.421875 
Q 20.21875 -1.421875 15.453125 -0.5625 
Q 10.6875 0.296875 5.421875 2 
L 5.421875 11.28125 
Q 10.40625 8.6875 15.234375 7.390625 
Q 20.0625 6.109375 24.8125 6.109375 
Q 31.15625 6.109375 34.5625 8.28125 
Q 37.984375 10.453125 37.984375 14.40625 
Q 37.984375 18.0625 35.515625 20.015625 
Q 33.0625 21.96875 24.703125 23.78125 
L 21.578125 24.515625 
Q 13.234375 26.265625 9.515625 29.90625 
Q 5.8125 33.546875 5.8125 39.890625 
Q 5.8125 47.609375 11.28125 51.796875 
Q 16.75 56 26.8125 56 
Q 31.78125 56 36.171875 55.265625 
Q 40.578125 54.546875 44.28125 53.078125 
z
" id="DejaVuSans-73"/>
      <path id="DejaVuSans-20"/>
      <path d="M 18.109375 8.203125 
L 18.109375 -20.796875 
L 9.078125 -20.796875 
L 9.078125 54.6875 
L 18.109375 54.6875 
L 18.109375 46.390625 
Q 20.953125 51.265625 25.265625 53.625 
Q 29.59375 56 35.59375 56 
Q 45.5625 56 51.78125 48.09375 
Q 58.015625 40.1875 58.015625 27.296875 
Q 58.015625 14.40625 51.78125 6.484375 
Q 45.5625 -1.421875 35.59375 -1.421875 
Q 29.59375 -1.421875 25.265625 0.953125 
Q 20.953125 3.328125 18.109375 8.203125 
z
M 48.6875 27.296875 
Q 48.6875 37.203125 44.609375 42.84375 
Q 40.53125 48.484375 33.40625 48.484375 
Q 26.265625 48.484375 22.1875 42.84375 
Q 18.109375 37.203125 18.109375 27.296875 
Q 18.109375 17.390625 22.1875 11.75 
Q 26.265625 6.109375 33.40625 6.109375 
Q 40.53125 6.109375 44.609375 11.75 
Q 48.6875 17.390625 48.6875 27.296875 
z
" id="DejaVuSans-70"/>
      <path d="M 56.203125 29.59375 
L 56.203125 25.203125 
L 14.890625 25.203125 
Q 15.484375 15.921875 20.484375 11.0625 
Q 25.484375 6.203125 34.421875 6.203125 
Q 39.59375 6.203125 44.453125 7.46875 
Q 49.3125 8.734375 54.109375 11.28125 
L 54.109375 2.78125 
Q 49.265625 0.734375 44.1875 -0.34375 
Q 39.109375 -1.421875 33.890625 -1.421875 
Q 20.796875 -1.421875 13.15625 6.1875 
Q 5.515625 13.8125 5.515625 26.8125 
Q 5.515625 40.234375 12.765625 48.109375 
Q 20.015625 56 32.328125 56 
Q 43.359375 56 49.78125 48.890625 
Q 56.203125 41.796875 56.203125 29.59375 
z
M 47.21875 32.234375 
Q 47.125 39.59375 43.09375 43.984375 
Q 39.0625 48.390625 32.421875 48.390625 
Q 24.90625 48.390625 20.390625 44.140625 
Q 15.875 39.890625 15.1875 32.171875 
z
" id="DejaVuSans-65"/>
      <path d="M 41.109375 46.296875 
Q 39.59375 47.171875 37.8125 47.578125 
Q 36.03125 48 33.890625 48 
Q 26.265625 48 22.1875 43.046875 
Q 18.109375 38.09375 18.109375 28.8125 
L 18.109375 0 
L 9.078125 0 
L 9.078125 54.6875 
L 18.109375 54.6875 
L 18.109375 46.1875 
Q 20.953125 51.171875 25.484375 53.578125 
Q 30.03125 56 36.53125 56 
Q 37.453125 56 38.578125 55.875 
Q 39.703125 55.765625 41.0625 55.515625 
z
" id="DejaVuSans-72"/>
      <path d="M 45.40625 27.984375 
Q 45.40625 37.75 41.375 43.109375 
Q 37.359375 48.484375 30.078125 48.484375 
Q 22.859375 48.484375 18.828125 43.109375 
Q 14.796875 37.75 14.796875 27.984375 
Q 14.796875 18.265625 18.828125 12.890625 
Q 22.859375 7.515625 30.078125 7.515625 
Q 37.359375 7.515625 41.375 12.890625 
Q 45.40625 18.265625 45.40625 27.984375 
z
M 54.390625 6.78125 
Q 54.390625 -7.171875 48.1875 -13.984375 
Q 42 -20.796875 29.203125 -20.796875 
Q 24.46875 -20.796875 20.265625 -20.09375 
Q 16.0625 -19.390625 12.109375 -17.921875 
L 12.109375 -9.1875 
Q 16.0625 -11.328125 19.921875 -12.34375 
Q 23.78125 -13.375 27.78125 -13.375 
Q 36.625 -13.375 41.015625 -8.765625 
Q 45.40625 -4.15625 45.40625 5.171875 
L 45.40625 9.625 
Q 42.625 4.78125 38.28125 2.390625 
Q 33.9375 0 27.875 0 
Q 17.828125 0 11.671875 7.65625 
Q 5.515625 15.328125 5.515625 27.984375 
Q 5.515625 40.671875 11.671875 48.328125 
Q 17.828125 56 27.875 56 
Q 33.9375 56 38.28125 53.609375 
Q 42.625 51.21875 45.40625 46.390625 
L 45.40625 54.6875 
L 54.390625 54.6875 
z
" id="DejaVuSans-67"/>
      <path d="M 44.390625 34.1875 
Q 47.5625 33.109375 50.5625 29.59375 
Q 53.5625 26.078125 56.59375 19.921875 
L 66.609375 0 
L 56 0 
L 46.6875 18.703125 
Q 43.0625 26.03125 39.671875 28.421875 
Q 36.28125 30.8125 30.421875 30.8125 
L 19.671875 30.8125 
L 19.671875 0 
L 9.8125 0 
L 9.8125 72.90625 
L 32.078125 72.90625 
Q 44.578125 72.90625 50.734375 67.671875 
Q 56.890625 62.453125 56.890625 51.90625 
Q 56.890625 45.015625 53.6875 40.46875 
Q 50.484375 35.9375 44.390625 34.1875 
z
M 19.671875 64.796875 
L 19.671875 38.921875 
L 32.078125 38.921875 
Q 39.203125 38.921875 42.84375 42.21875 
Q 46.484375 45.515625 46.484375 51.90625 
Q 46.484375 58.296875 42.84375 61.546875 
Q 39.203125 64.796875 32.078125 64.796875 
z
" id="DejaVuSans-52"/>
      <path d="M 9.8125 72.90625 
L 23.09375 72.90625 
L 55.421875 11.921875 
L 55.421875 72.90625 
L 64.984375 72.90625 
L 64.984375 0 
L 51.703125 0 
L 19.390625 60.984375 
L 19.390625 0 
L 9.8125 0 
z
" id="DejaVuSans-4e"/>
      <path d="M 34.1875 63.1875 
L 20.796875 26.90625 
L 47.609375 26.90625 
z
M 28.609375 72.90625 
L 39.796875 72.90625 
L 67.578125 0 
L 57.328125 0 
L 50.6875 18.703125 
L 17.828125 18.703125 
L 11.1875 0 
L 0.78125 0 
z
" id="DejaVuSans-41"/>
     </defs>
     <g transform="translate(26.784375 140.301875)rotate(-90)scale(0.12 -0.12)">
      <use xlink:href="#DejaVuSans-43"/>
      <use x="69.824219" xlink:href="#DejaVuSans-6f"/>
      <use x="131.005859" xlink:href="#DejaVuSans-75"/>
      <use x="194.384766" xlink:href="#DejaVuSans-6e"/>
      <use x="257.763672" xlink:href="#DejaVuSans-74"/>
      <use x="296.972656" xlink:href="#DejaVuSans-73"/>
      <use x="349.072266" xlink:href="#DejaVuSans-20"/>
      <use x="380.859375" xlink:href="#DejaVuSans-70"/>
      <use x="444.335938" xlink:href="#DejaVuSans-65"/>
      <use x="505.859375" xlink:href="#DejaVuSans-72"/>
      <use x="546.972656" xlink:href="#DejaVuSans-20"/>
      <use x="578.759766" xlink:href="#DejaVuSans-73"/>
      <use x="630.859375" xlink:href="#DejaVuSans-67"/>
      <use x="694.335938" xlink:href="#DejaVuSans-52"/>
      <use x="763.818359" xlink:href="#DejaVuSans-4e"/>
      <use x="838.623047" xlink:href="#DejaVuSans-41"/>
     </g>
    </g>
   </g>
   <g id="line2d_4">
    <path clip-path="url(#p6628965208)" d="M 105.868333 136.898182 
L 105.868333 136.898182 
" style="fill:none;stroke:#000000;stroke-linecap:square;"/>
   </g>
   <g id="line2d_5">
    <path clip-path="url(#p6628965208)" d="M 105.868333 94.883209 
L 105.868333 34.861818 
" style="fill:none;stroke:#000000;stroke-linecap:square;"/>
   </g>
   <g id="line2d_6">
    <path clip-path="url(#p6628965208)" d="M 102.094458 136.898182 
L 109.642208 136.898182 
" style="fill:none;stroke:#000000;stroke-linecap:square;"/>
   </g>
   <g id="line2d_7">
    <path clip-path="url(#p6628965208)" d="M 102.094458 34.861818 
L 109.642208 34.861818 
" style="fill:none;stroke:#000000;stroke-linecap:square;"/>
   </g>
   <g id="patch_3">
    <path clip-path="url(#p6628965208)" d="M 98.320583 136.898182 
L 113.416083 136.898182 
L 113.416083 94.883209 
L 98.320583 94.883209 
L 98.320583 136.898182 
z
" style="fill:#92fcae;stroke:#000000;stroke-linejoin:miter;"/>
   </g>
   <g id="line2d_8">
    <path clip-path="url(#p6628965208)" d="M 98.320583 124.893904 
L 113.416083 124.893904 
" style="fill:none;stroke:#ff0000;stroke-linecap:square;"/>
   </g>
   <g id="patch_4">
    <path d="M 55.55 142 
L 55.55 29.76 
" style="fill:none;stroke:#000000;stroke-linecap:square;stroke-linejoin:miter;stroke-width:0.8;"/>
   </g>
   <g id="patch_5">
    <path d="M 156.186667 142 
L 156.186667 29.76 
" style="fill:none;stroke:#000000;stroke-linecap:square;stroke-linejoin:miter;stroke-width:0.8;"/>
   </g>
   <g id="patch_6">
    <path d="M 55.55 142 
L 156.186667 142 
" style="fill:none;stroke:#000000;stroke-linecap:square;stroke-linejoin:miter;stroke-width:0.8;"/>
   </g>
   <g id="patch_7">
    <path d="M 55.55 29.76 
L 156.186667 29.76 
" style="fill:none;stroke:#000000;stroke-linecap:square;stroke-linejoin:miter;stroke-width:0.8;"/>
   </g>
  </g>
  <g id="axes_2">
   <g id="patch_8">
    <path d="M 217.406667 142 
L 418.68 142 
L 418.68 29.76 
L 217.406667 29.76 
z
" style="fill:#ffffff;"/>
   </g>
   <g id="patch_9">
    <path clip-path="url(#p0860018b81)" d="M 246.377828 142 
L 249.427424 142 
L 249.427424 35.104762 
L 246.377828 35.104762 
z
" style="fill:#008000;"/>
   </g>
   <g id="patch_10">
    <path clip-path="url(#p0860018b81)" d="M 249.427424 142 
L 252.47702 142 
L 252.47702 103.759024 
L 249.427424 103.759024 
z
" style="fill:#008000;"/>
   </g>
   <g id="patch_11">
    <path clip-path="url(#p0860018b81)" d="M 252.47702 142 
L 255.526616 142 
L 255.526616 114.091239 
L 252.47702 114.091239 
z
" style="fill:#008000;"/>
   </g>
   <g id="patch_12">
    <path clip-path="url(#p0860018b81)" d="M 255.526616 142 
L 258.576212 142 
L 258.576212 142 
L 255.526616 142 
z
" style="fill:#008000;"/>
   </g>
   <g id="patch_13">
    <path clip-path="url(#p0860018b81)" d="M 258.576212 142 
L 261.625808 142 
L 261.625808 118.592652 
L 258.576212 118.592652 
z
" style="fill:#008000;"/>
   </g>
   <g id="patch_14">
    <path clip-path="url(#p0860018b81)" d="M 261.625808 142 
L 264.675404 142 
L 264.675404 122.967857 
L 261.625808 122.967857 
z
" style="fill:#008000;"/>
   </g>
   <g id="patch_15">
    <path clip-path="url(#p0860018b81)" d="M 264.675404 142 
L 267.725 142 
L 267.725 142 
L 264.675404 142 
z
" style="fill:#008000;"/>
   </g>
   <g id="patch_16">
    <path clip-path="url(#p0860018b81)" d="M 267.725 142 
L 270.774596 142 
L 270.774596 125.433117 
L 267.725 125.433117 
z
" style="fill:#008000;"/>
   </g>
   <g id="patch_17">
    <path clip-path="url(#p0860018b81)" d="M 270.774596 142 
L 273.824192 142 
L 273.824192 128.212494 
L 270.774596 128.212494 
z
" style="fill:#008000;"/>
   </g>
   <g id="patch_18">
    <path clip-path="url(#p0860018b81)" d="M 273.824192 142 
L 276.873788 142 
L 276.873788 142 
L 273.824192 142 
z
" style="fill:#008000;"/>
   </g>
   <g id="patch_19">
    <path clip-path="url(#p0860018b81)" d="M 276.873788 142 
L 279.923384 142 
L 279.923384 129.847587 
L 276.873788 129.847587 
z
" style="fill:#008000;"/>
   </g>
   <g id="patch_20">
    <path clip-path="url(#p0860018b81)" d="M 279.923384 142 
L 282.97298 142 
L 282.97298 131.679003 
L 279.923384 131.679003 
z
" style="fill:#008000;"/>
   </g>
   <g id="patch_21">
    <path clip-path="url(#p0860018b81)" d="M 282.97298 142 
L 286.022576 142 
L 286.022576 142 
L 282.97298 142 
z
" style="fill:#008000;"/>
   </g>
   <g id="patch_22">
    <path clip-path="url(#p0860018b81)" d="M 286.022576 142 
L 289.072172 142 
L 289.072172 132.955105 
L 286.022576 132.955105 
z
" style="fill:#008000;"/>
   </g>
   <g id="patch_23">
    <path clip-path="url(#p0860018b81)" d="M 289.072172 142 
L 292.121768 142 
L 292.121768 134.318149 
L 289.072172 134.318149 
z
" style="fill:#008000;"/>
   </g>
   <g id="patch_24">
    <path clip-path="url(#p0860018b81)" d="M 292.121768 142 
L 295.171364 142 
L 295.171364 142 
L 292.121768 142 
z
" style="fill:#008000;"/>
   </g>
   <g id="patch_25">
    <path clip-path="url(#p0860018b81)" d="M 295.171364 142 
L 298.22096 142 
L 298.22096 135.350249 
L 295.171364 135.350249 
z
" style="fill:#008000;"/>
   </g>
   <g id="patch_26">
    <path clip-path="url(#p0860018b81)" d="M 298.22096 142 
L 301.270556 142 
L 301.270556 136.012139 
L 298.22096 136.012139 
z
" style="fill:#008000;"/>
   </g>
   <g id="patch_27">
    <path clip-path="url(#p0860018b81)" d="M 301.270556 142 
L 304.320152 142 
L 304.320152 142 
L 301.270556 142 
z
" style="fill:#008000;"/>
   </g>
   <g id="patch_28">
    <path clip-path="url(#p0860018b81)" d="M 304.320152 142 
L 307.369747 142 
L 307.369747 137.021802 
L 304.320152 137.021802 
z
" style="fill:#008000;"/>
   </g>
   <g id="patch_29">
    <path clip-path="url(#p0860018b81)" d="M 307.369747 142 
L 310.419343 142 
L 310.419343 137.624795 
L 307.369747 137.624795 
z
" style="fill:#008000;"/>
   </g>
   <g id="patch_30">
    <path clip-path="url(#p0860018b81)" d="M 310.419343 142 
L 313.468939 142 
L 313.468939 142 
L 310.419343 142 
z
" style="fill:#008000;"/>
   </g>
   <g id="patch_31">
    <path clip-path="url(#p0860018b81)" d="M 313.468939 142 
L 316.518535 142 
L 316.518535 138.039878 
L 313.468939 138.039878 
z
" style="fill:#008000;"/>
   </g>
   <g id="patch_32">
    <path clip-path="url(#p0860018b81)" d="M 316.518535 142 
L 319.568131 142 
L 319.568131 138.47179 
L 316.518535 138.47179 
z
" style="fill:#008000;"/>
   </g>
   <g id="patch_33">
    <path clip-path="url(#p0860018b81)" d="M 319.568131 142 
L 322.617727 142 
L 322.617727 142 
L 319.568131 142 
z
" style="fill:#008000;"/>
   </g>
   <g id="patch_34">
    <path clip-path="url(#p0860018b81)" d="M 322.617727 142 
L 325.667323 142 
L 325.667323 139.038323 
L 322.617727 139.038323 
z
" style="fill:#008000;"/>
   </g>
   <g id="patch_35">
    <path clip-path="url(#p0860018b81)" d="M 325.667323 142 
L 328.716919 142 
L 328.716919 139.153312 
L 325.667323 139.153312 
z
" style="fill:#008000;"/>
   </g>
   <g id="patch_36">
    <path clip-path="url(#p0860018b81)" d="M 328.716919 142 
L 331.766515 142 
L 331.766515 142 
L 328.716919 142 
z
" style="fill:#008000;"/>
   </g>
   <g id="patch_37">
    <path clip-path="url(#p0860018b81)" d="M 331.766515 142 
L 334.816111 142 
L 334.816111 139.562786 
L 331.766515 139.562786 
z
" style="fill:#008000;"/>
   </g>
   <g id="patch_38">
    <path clip-path="url(#p0860018b81)" d="M 334.816111 142 
L 337.865707 142 
L 337.865707 139.83203 
L 334.816111 139.83203 
z
" style="fill:#008000;"/>
   </g>
   <g id="patch_39">
    <path clip-path="url(#p0860018b81)" d="M 337.865707 142 
L 340.915303 142 
L 340.915303 142 
L 337.865707 142 
z
" style="fill:#008000;"/>
   </g>
   <g id="patch_40">
    <path clip-path="url(#p0860018b81)" d="M 340.915303 142 
L 343.964899 142 
L 343.964899 140.30601 
L 340.915303 140.30601 
z
" style="fill:#008000;"/>
   </g>
   <g id="patch_41">
    <path clip-path="url(#p0860018b81)" d="M 343.964899 142 
L 347.014495 142 
L 347.014495 140.356493 
L 343.964899 140.356493 
z
" style="fill:#008000;"/>
   </g>
   <g id="patch_42">
    <path clip-path="url(#p0860018b81)" d="M 347.014495 142 
L 350.064091 142 
L 350.064091 142 
L 347.014495 142 
z
" style="fill:#008000;"/>
   </g>
   <g id="patch_43">
    <path clip-path="url(#p0860018b81)" d="M 350.064091 142 
L 353.113687 142 
L 353.113687 140.550012 
L 350.064091 140.550012 
z
" style="fill:#008000;"/>
   </g>
   <g id="patch_44">
    <path clip-path="url(#p0860018b81)" d="M 353.113687 142 
L 356.163283 142 
L 356.163283 140.645369 
L 353.113687 140.645369 
z
" style="fill:#008000;"/>
   </g>
   <g id="patch_45">
    <path clip-path="url(#p0860018b81)" d="M 356.163283 142 
L 359.212879 142 
L 359.212879 142 
L 356.163283 142 
z
" style="fill:#008000;"/>
   </g>
   <g id="patch_46">
    <path clip-path="url(#p0860018b81)" d="M 359.212879 142 
L 362.262475 142 
L 362.262475 140.751945 
L 359.212879 140.751945 
z
" style="fill:#008000;"/>
   </g>
   <g id="patch_47">
    <path clip-path="url(#p0860018b81)" d="M 362.262475 142 
L 365.312071 142 
L 365.312071 140.987533 
L 362.262475 140.987533 
z
" style="fill:#008000;"/>
   </g>
   <g id="patch_48">
    <path clip-path="url(#p0860018b81)" d="M 365.312071 142 
L 368.361667 142 
L 368.361667 142 
L 365.312071 142 
z
" style="fill:#008000;"/>
   </g>
   <g id="patch_49">
    <path clip-path="url(#p0860018b81)" d="M 368.361667 142 
L 371.411263 142 
L 371.411263 141.110936 
L 368.361667 141.110936 
z
" style="fill:#008000;"/>
   </g>
   <g id="patch_50">
    <path clip-path="url(#p0860018b81)" d="M 371.411263 142 
L 374.460859 142 
L 374.460859 141.141787 
L 371.411263 141.141787 
z
" style="fill:#008000;"/>
   </g>
   <g id="patch_51">
    <path clip-path="url(#p0860018b81)" d="M 374.460859 142 
L 377.510455 142 
L 377.510455 142 
L 374.460859 142 
z
" style="fill:#008000;"/>
   </g>
   <g id="patch_52">
    <path clip-path="url(#p0860018b81)" d="M 377.510455 142 
L 380.560051 142 
L 380.560051 141.214707 
L 377.510455 141.214707 
z
" style="fill:#008000;"/>
   </g>
   <g id="patch_53">
    <path clip-path="url(#p0860018b81)" d="M 380.560051 142 
L 383.609646 142 
L 383.609646 141.315673 
L 380.560051 141.315673 
z
" style="fill:#008000;"/>
   </g>
   <g id="patch_54">
    <path clip-path="url(#p0860018b81)" d="M 383.609646 142 
L 386.659242 142 
L 386.659242 142 
L 383.609646 142 
z
" style="fill:#008000;"/>
   </g>
   <g id="patch_55">
    <path clip-path="url(#p0860018b81)" d="M 386.659242 142 
L 389.708838 142 
L 389.708838 141.380179 
L 386.659242 141.380179 
z
" style="fill:#008000;"/>
   </g>
   <g id="patch_56">
    <path clip-path="url(#p0860018b81)" d="M 389.708838 142 
L 392.758434 142 
L 392.758434 141.528824 
L 389.708838 141.528824 
z
" style="fill:#008000;"/>
   </g>
   <g id="patch_57">
    <path clip-path="url(#p0860018b81)" d="M 392.758434 142 
L 395.80803 142 
L 395.80803 142 
L 392.758434 142 
z
" style="fill:#008000;"/>
   </g>
   <g id="patch_58">
    <path clip-path="url(#p0860018b81)" d="M 395.80803 142 
L 398.857626 142 
L 398.857626 141.554066 
L 395.80803 141.554066 
z
" style="fill:#008000;"/>
   </g>
   <g id="patch_59">
    <path clip-path="url(#p0860018b81)" d="M 398.857626 142 
L 401.907222 142 
L 401.907222 141.559675 
L 398.857626 141.559675 
z
" style="fill:#008000;"/>
   </g>
   <g id="patch_60">
    <path clip-path="url(#p0860018b81)" d="M 401.907222 142 
L 404.956818 142 
L 404.956818 142 
L 401.907222 142 
z
" style="fill:#008000;"/>
   </g>
   <g id="patch_61">
    <path clip-path="url(#p0860018b81)" d="M 404.956818 142 
L 408.006414 142 
L 408.006414 141.587721 
L 404.956818 141.587721 
z
" style="fill:#008000;"/>
   </g>
   <g id="patch_62">
    <path clip-path="url(#p0860018b81)" d="M 408.006414 142 
L 411.05601 142 
L 411.05601 141.612963 
L 408.006414 141.612963 
z
" style="fill:#008000;"/>
   </g>
   <g id="patch_63">
    <path clip-path="url(#p0860018b81)" d="M 411.05601 142 
L 414.105606 142 
L 414.105606 141.646618 
L 411.05601 141.646618 
z
" style="fill:#008000;"/>
   </g>
   <g id="patch_64">
    <path clip-path="url(#p0860018b81)" d="M 414.105606 142 
L 417.155202 142 
L 417.155202 142 
L 414.105606 142 
z
" style="fill:#008000;"/>
   </g>
   <g id="patch_65">
    <path clip-path="url(#p0860018b81)" d="M 417.155202 142 
L 420.204798 142 
L 420.204798 142 
L 417.155202 142 
z
" style="fill:#008000;"/>
   </g>
   <g id="matplotlib.axis_3">
    <g id="xtick_1">
     <g id="line2d_9">
      <defs>
       <path d="M 0 0 
L 0 3.5 
" id="m1fabd8c049" style="stroke:#000000;stroke-width:0.8;"/>
      </defs>
      <g>
       <use style="stroke:#000000;stroke-width:0.8;" x="247.902626" xlink:href="#m1fabd8c049" y="142"/>
      </g>
     </g>
     <g id="text_5">
      <!-- 0 -->
      <g transform="translate(244.085126 158.118125)scale(0.12 -0.12)">
       <use xlink:href="#DejaVuSans-30"/>
      </g>
     </g>
    </g>
    <g id="xtick_2">
     <g id="line2d_10">
      <g>
       <use style="stroke:#000000;stroke-width:0.8;" x="308.894545" xlink:href="#m1fabd8c049" y="142"/>
      </g>
     </g>
     <g id="text_6">
      <!-- 20 -->
      <g transform="translate(301.259545 158.118125)scale(0.12 -0.12)">
       <use xlink:href="#DejaVuSans-32"/>
       <use x="63.623047" xlink:href="#DejaVuSans-30"/>
      </g>
     </g>
    </g>
    <g id="xtick_3">
     <g id="line2d_11">
      <g>
       <use style="stroke:#000000;stroke-width:0.8;" x="369.886465" xlink:href="#m1fabd8c049" y="142"/>
      </g>
     </g>
     <g id="text_7">
      <!-- 40 -->
      <defs>
       <path d="M 37.796875 64.3125 
L 12.890625 25.390625 
L 37.796875 25.390625 
z
M 35.203125 72.90625 
L 47.609375 72.90625 
L 47.609375 25.390625 
L 58.015625 25.390625 
L 58.015625 17.1875 
L 47.609375 17.1875 
L 47.609375 0 
L 37.796875 0 
L 37.796875 17.1875 
L 4.890625 17.1875 
L 4.890625 26.703125 
z
" id="DejaVuSans-34"/>
      </defs>
      <g transform="translate(362.251465 158.118125)scale(0.12 -0.12)">
       <use xlink:href="#DejaVuSans-34"/>
       <use x="63.623047" xlink:href="#DejaVuSans-30"/>
      </g>
     </g>
    </g>
    <g id="text_8">
     <!-- Counts per sgRNA -->
     <g transform="translate(263.621458 173.731875)scale(0.12 -0.12)">
      <use xlink:href="#DejaVuSans-43"/>
      <use x="69.824219" xlink:href="#DejaVuSans-6f"/>
      <use x="131.005859" xlink:href="#DejaVuSans-75"/>
      <use x="194.384766" xlink:href="#DejaVuSans-6e"/>
      <use x="257.763672" xlink:href="#DejaVuSans-74"/>
      <use x="296.972656" xlink:href="#DejaVuSans-73"/>
      <use x="349.072266" xlink:href="#DejaVuSans-20"/>
      <use x="380.859375" xlink:href="#DejaVuSans-70"/>
      <use x="444.335938" xlink:href="#DejaVuSans-65"/>
      <use x="505.859375" xlink:href="#DejaVuSans-72"/>
      <use x="546.972656" xlink:href="#DejaVuSans-20"/>
      <use x="578.759766" xlink:href="#DejaVuSans-73"/>
      <use x="630.859375" xlink:href="#DejaVuSans-67"/>
      <use x="694.335938" xlink:href="#DejaVuSans-52"/>
      <use x="763.818359" xlink:href="#DejaVuSans-4e"/>
      <use x="838.623047" xlink:href="#DejaVuSans-41"/>
     </g>
    </g>
   </g>
   <g id="matplotlib.axis_4">
    <g id="ytick_4">
     <g id="line2d_12">
      <g>
       <use style="stroke:#000000;stroke-width:0.8;" x="217.406667" xlink:href="#ma54a40d805" y="142"/>
      </g>
     </g>
     <g id="text_9">
      <!-- 0k -->
      <defs>
       <path d="M 9.078125 75.984375 
L 18.109375 75.984375 
L 18.109375 31.109375 
L 44.921875 54.6875 
L 56.390625 54.6875 
L 27.390625 29.109375 
L 57.625 0 
L 45.90625 0 
L 18.109375 26.703125 
L 18.109375 0 
L 9.078125 0 
z
" id="DejaVuSans-6b"/>
      </defs>
      <g transform="translate(195.822917 146.559063)scale(0.12 -0.12)">
       <use xlink:href="#DejaVuSans-30"/>
       <use x="63.623047" xlink:href="#DejaVuSans-6b"/>
      </g>
     </g>
    </g>
    <g id="ytick_5">
     <g id="line2d_13">
      <g>
       <use style="stroke:#000000;stroke-width:0.8;" x="217.406667" xlink:href="#ma54a40d805" y="85.907625"/>
      </g>
     </g>
     <g id="text_10">
      <!-- 20k -->
      <g transform="translate(188.187917 90.466688)scale(0.12 -0.12)">
       <use xlink:href="#DejaVuSans-32"/>
       <use x="63.623047" xlink:href="#DejaVuSans-30"/>
       <use x="127.246094" xlink:href="#DejaVuSans-6b"/>
      </g>
     </g>
    </g>
    <g id="ytick_6">
     <g id="line2d_14">
      <g>
       <use style="stroke:#000000;stroke-width:0.8;" x="217.406667" xlink:href="#ma54a40d805" y="29.815251"/>
      </g>
     </g>
     <g id="text_11">
      <!-- 40k -->
      <g transform="translate(188.187917 34.374313)scale(0.12 -0.12)">
       <use xlink:href="#DejaVuSans-34"/>
       <use x="63.623047" xlink:href="#DejaVuSans-30"/>
       <use x="127.246094" xlink:href="#DejaVuSans-6b"/>
      </g>
     </g>
    </g>
    <g id="text_12">
     <!-- Number of sgRNAs -->
     <defs>
      <path d="M 52 44.1875 
Q 55.375 50.25 60.0625 53.125 
Q 64.75 56 71.09375 56 
Q 79.640625 56 84.28125 50.015625 
Q 88.921875 44.046875 88.921875 33.015625 
L 88.921875 0 
L 79.890625 0 
L 79.890625 32.71875 
Q 79.890625 40.578125 77.09375 44.375 
Q 74.3125 48.1875 68.609375 48.1875 
Q 61.625 48.1875 57.5625 43.546875 
Q 53.515625 38.921875 53.515625 30.90625 
L 53.515625 0 
L 44.484375 0 
L 44.484375 32.71875 
Q 44.484375 40.625 41.703125 44.40625 
Q 38.921875 48.1875 33.109375 48.1875 
Q 26.21875 48.1875 22.15625 43.53125 
Q 18.109375 38.875 18.109375 30.90625 
L 18.109375 0 
L 9.078125 0 
L 9.078125 54.6875 
L 18.109375 54.6875 
L 18.109375 46.1875 
Q 21.1875 51.21875 25.484375 53.609375 
Q 29.78125 56 35.6875 56 
Q 41.65625 56 45.828125 52.96875 
Q 50 49.953125 52 44.1875 
z
" id="DejaVuSans-6d"/>
      <path d="M 48.6875 27.296875 
Q 48.6875 37.203125 44.609375 42.84375 
Q 40.53125 48.484375 33.40625 48.484375 
Q 26.265625 48.484375 22.1875 42.84375 
Q 18.109375 37.203125 18.109375 27.296875 
Q 18.109375 17.390625 22.1875 11.75 
Q 26.265625 6.109375 33.40625 6.109375 
Q 40.53125 6.109375 44.609375 11.75 
Q 48.6875 17.390625 48.6875 27.296875 
z
M 18.109375 46.390625 
Q 20.953125 51.265625 25.265625 53.625 
Q 29.59375 56 35.59375 56 
Q 45.5625 56 51.78125 48.09375 
Q 58.015625 40.1875 58.015625 27.296875 
Q 58.015625 14.40625 51.78125 6.484375 
Q 45.5625 -1.421875 35.59375 -1.421875 
Q 29.59375 -1.421875 25.265625 0.953125 
Q 20.953125 3.328125 18.109375 8.203125 
L 18.109375 0 
L 9.078125 0 
L 9.078125 75.984375 
L 18.109375 75.984375 
z
" id="DejaVuSans-62"/>
      <path d="M 37.109375 75.984375 
L 37.109375 68.5 
L 28.515625 68.5 
Q 23.6875 68.5 21.796875 66.546875 
Q 19.921875 64.59375 19.921875 59.515625 
L 19.921875 54.6875 
L 34.71875 54.6875 
L 34.71875 47.703125 
L 19.921875 47.703125 
L 19.921875 0 
L 10.890625 0 
L 10.890625 47.703125 
L 2.296875 47.703125 
L 2.296875 54.6875 
L 10.890625 54.6875 
L 10.890625 58.5 
Q 10.890625 67.625 15.140625 71.796875 
Q 19.390625 75.984375 28.609375 75.984375 
z
" id="DejaVuSans-66"/>
     </defs>
     <g transform="translate(181.692292 142.402812)rotate(-90)scale(0.12 -0.12)">
      <use xlink:href="#DejaVuSans-4e"/>
      <use x="74.804688" xlink:href="#DejaVuSans-75"/>
      <use x="138.183594" xlink:href="#DejaVuSans-6d"/>
      <use x="235.595703" xlink:href="#DejaVuSans-62"/>
      <use x="299.072266" xlink:href="#DejaVuSans-65"/>
      <use x="360.595703" xlink:href="#DejaVuSans-72"/>
      <use x="401.708984" xlink:href="#DejaVuSans-20"/>
      <use x="433.496094" xlink:href="#DejaVuSans-6f"/>
      <use x="494.677734" xlink:href="#DejaVuSans-66"/>
      <use x="529.882812" xlink:href="#DejaVuSans-20"/>
      <use x="561.669922" xlink:href="#DejaVuSans-73"/>
      <use x="613.769531" xlink:href="#DejaVuSans-67"/>
      <use x="677.246094" xlink:href="#DejaVuSans-52"/>
      <use x="746.728516" xlink:href="#DejaVuSans-4e"/>
      <use x="821.533203" xlink:href="#DejaVuSans-41"/>
      <use x="889.941406" xlink:href="#DejaVuSans-73"/>
     </g>
    </g>
   </g>
   <g id="patch_66">
    <path d="M 217.406667 142 
L 217.406667 29.76 
" style="fill:none;stroke:#000000;stroke-linecap:square;stroke-linejoin:miter;stroke-width:0.8;"/>
   </g>
   <g id="patch_67">
    <path d="M 418.68 142 
L 418.68 29.76 
" style="fill:none;stroke:#000000;stroke-linecap:square;stroke-linejoin:miter;stroke-width:0.8;"/>
   </g>
   <g id="patch_68">
    <path d="M 217.406667 142 
L 418.68 142 
" style="fill:none;stroke:#000000;stroke-linecap:square;stroke-linejoin:miter;stroke-width:0.8;"/>
   </g>
   <g id="patch_69">
    <path d="M 217.406667 29.76 
L 418.68 29.76 
" style="fill:none;stroke:#000000;stroke-linecap:square;stroke-linejoin:miter;stroke-width:0.8;"/>
   </g>
   <g id="text_13">
    <!-- EMPTY -->
    <defs>
     <path d="M 9.8125 72.90625 
L 55.90625 72.90625 
L 55.90625 64.59375 
L 19.671875 64.59375 
L 19.671875 43.015625 
L 54.390625 43.015625 
L 54.390625 34.71875 
L 19.671875 34.71875 
L 19.671875 8.296875 
L 56.78125 8.296875 
L 56.78125 0 
L 9.8125 0 
z
" id="DejaVuSans-45"/>
     <path d="M 9.8125 72.90625 
L 24.515625 72.90625 
L 43.109375 23.296875 
L 61.8125 72.90625 
L 76.515625 72.90625 
L 76.515625 0 
L 66.890625 0 
L 66.890625 64.015625 
L 48.09375 14.015625 
L 38.1875 14.015625 
L 19.390625 64.015625 
L 19.390625 0 
L 9.8125 0 
z
" id="DejaVuSans-4d"/>
     <path d="M 19.671875 64.796875 
L 19.671875 37.40625 
L 32.078125 37.40625 
Q 38.96875 37.40625 42.71875 40.96875 
Q 46.484375 44.53125 46.484375 51.125 
Q 46.484375 57.671875 42.71875 61.234375 
Q 38.96875 64.796875 32.078125 64.796875 
z
M 9.8125 72.90625 
L 32.078125 72.90625 
Q 44.34375 72.90625 50.609375 67.359375 
Q 56.890625 61.8125 56.890625 51.125 
Q 56.890625 40.328125 50.609375 34.8125 
Q 44.34375 29.296875 32.078125 29.296875 
L 19.671875 29.296875 
L 19.671875 0 
L 9.8125 0 
z
" id="DejaVuSans-50"/>
     <path d="M -0.296875 72.90625 
L 61.375 72.90625 
L 61.375 64.59375 
L 35.5 64.59375 
L 35.5 0 
L 25.59375 0 
L 25.59375 64.59375 
L -0.296875 64.59375 
z
" id="DejaVuSans-54"/>
     <path d="M -0.203125 72.90625 
L 10.40625 72.90625 
L 30.609375 42.921875 
L 50.6875 72.90625 
L 61.28125 72.90625 
L 35.5 34.71875 
L 35.5 0 
L 25.59375 0 
L 25.59375 34.71875 
z
" id="DejaVuSans-59"/>
    </defs>
    <g style="fill:#ffffff;" transform="translate(291.489583 23.76)scale(0.16 -0.16)">
     <use xlink:href="#DejaVuSans-45"/>
     <use x="63.183594" xlink:href="#DejaVuSans-4d"/>
     <use x="149.462891" xlink:href="#DejaVuSans-50"/>
     <use x="209.765625" xlink:href="#DejaVuSans-54"/>
     <use x="270.849609" xlink:href="#DejaVuSans-59"/>
    </g>
   </g>
  </g>
  <g id="axes_3">
   <g id="patch_70">
    <path d="M 55.55 316.6 
L 156.186667 316.6 
L 156.186667 204.36 
L 55.55 204.36 
z
" style="fill:#ffffff;"/>
   </g>
   <g id="matplotlib.axis_5"/>
   <g id="matplotlib.axis_6">
    <g id="ytick_7">
     <g id="line2d_15">
      <g>
       <use style="stroke:#000000;stroke-width:0.8;" x="55.55" xlink:href="#ma54a40d805" y="311.498182"/>
      </g>
     </g>
     <g id="text_14">
      <!-- 0 -->
      <g transform="translate(40.915 316.057244)scale(0.12 -0.12)">
       <use xlink:href="#DejaVuSans-30"/>
      </g>
     </g>
    </g>
    <g id="ytick_8">
     <g id="line2d_16">
      <g>
       <use style="stroke:#000000;stroke-width:0.8;" x="55.55" xlink:href="#ma54a40d805" y="269.630173"/>
      </g>
     </g>
     <g id="text_15">
      <!-- 50 -->
      <defs>
       <path d="M 10.796875 72.90625 
L 49.515625 72.90625 
L 49.515625 64.59375 
L 19.828125 64.59375 
L 19.828125 46.734375 
Q 21.96875 47.46875 24.109375 47.828125 
Q 26.265625 48.1875 28.421875 48.1875 
Q 40.625 48.1875 47.75 41.5 
Q 54.890625 34.8125 54.890625 23.390625 
Q 54.890625 11.625 47.5625 5.09375 
Q 40.234375 -1.421875 26.90625 -1.421875 
Q 22.3125 -1.421875 17.546875 -0.640625 
Q 12.796875 0.140625 7.71875 1.703125 
L 7.71875 11.625 
Q 12.109375 9.234375 16.796875 8.0625 
Q 21.484375 6.890625 26.703125 6.890625 
Q 35.15625 6.890625 40.078125 11.328125 
Q 45.015625 15.765625 45.015625 23.390625 
Q 45.015625 31 40.078125 35.4375 
Q 35.15625 39.890625 26.703125 39.890625 
Q 22.75 39.890625 18.8125 39.015625 
Q 14.890625 38.140625 10.796875 36.28125 
z
" id="DejaVuSans-35"/>
      </defs>
      <g transform="translate(33.28 274.189236)scale(0.12 -0.12)">
       <use xlink:href="#DejaVuSans-35"/>
       <use x="63.623047" xlink:href="#DejaVuSans-30"/>
      </g>
     </g>
    </g>
    <g id="ytick_9">
     <g id="line2d_17">
      <g>
       <use style="stroke:#000000;stroke-width:0.8;" x="55.55" xlink:href="#ma54a40d805" y="227.762164"/>
      </g>
     </g>
     <g id="text_16">
      <!-- 100 -->
      <g transform="translate(25.645 232.321227)scale(0.12 -0.12)">
       <use xlink:href="#DejaVuSans-31"/>
       <use x="63.623047" xlink:href="#DejaVuSans-30"/>
       <use x="127.246094" xlink:href="#DejaVuSans-30"/>
      </g>
     </g>
    </g>
    <g id="text_17">
     <!-- Counts per Gene -->
     <defs>
      <path d="M 59.515625 10.40625 
L 59.515625 29.984375 
L 43.40625 29.984375 
L 43.40625 38.09375 
L 69.28125 38.09375 
L 69.28125 6.78125 
Q 63.578125 2.734375 56.6875 0.65625 
Q 49.8125 -1.421875 42 -1.421875 
Q 24.90625 -1.421875 15.25 8.5625 
Q 5.609375 18.5625 5.609375 36.375 
Q 5.609375 54.25 15.25 64.234375 
Q 24.90625 74.21875 42 74.21875 
Q 49.125 74.21875 55.546875 72.453125 
Q 61.96875 70.703125 67.390625 67.28125 
L 67.390625 56.78125 
Q 61.921875 61.421875 55.765625 63.765625 
Q 49.609375 66.109375 42.828125 66.109375 
Q 29.4375 66.109375 22.71875 58.640625 
Q 16.015625 51.171875 16.015625 36.375 
Q 16.015625 21.625 22.71875 14.15625 
Q 29.4375 6.6875 42.828125 6.6875 
Q 48.046875 6.6875 52.140625 7.59375 
Q 56.25 8.5 59.515625 10.40625 
z
" id="DejaVuSans-47"/>
     </defs>
     <g transform="translate(19.149375 311.040312)rotate(-90)scale(0.12 -0.12)">
      <use xlink:href="#DejaVuSans-43"/>
      <use x="69.824219" xlink:href="#DejaVuSans-6f"/>
      <use x="131.005859" xlink:href="#DejaVuSans-75"/>
      <use x="194.384766" xlink:href="#DejaVuSans-6e"/>
      <use x="257.763672" xlink:href="#DejaVuSans-74"/>
      <use x="296.972656" xlink:href="#DejaVuSans-73"/>
      <use x="349.072266" xlink:href="#DejaVuSans-20"/>
      <use x="380.859375" xlink:href="#DejaVuSans-70"/>
      <use x="444.335938" xlink:href="#DejaVuSans-65"/>
      <use x="505.859375" xlink:href="#DejaVuSans-72"/>
      <use x="546.972656" xlink:href="#DejaVuSans-20"/>
      <use x="578.759766" xlink:href="#DejaVuSans-47"/>
      <use x="656.25" xlink:href="#DejaVuSans-65"/>
      <use x="717.773438" xlink:href="#DejaVuSans-6e"/>
      <use x="781.152344" xlink:href="#DejaVuSans-65"/>
     </g>
    </g>
   </g>
   <g id="line2d_18">
    <path clip-path="url(#p34000d0c49)" d="M 105.868333 292.832993 
L 105.868333 311.498182 
" style="fill:none;stroke:#000000;stroke-linecap:square;"/>
   </g>
   <g id="line2d_19">
    <path clip-path="url(#p34000d0c49)" d="M 105.868333 259.235654 
L 105.868333 209.461818 
" style="fill:none;stroke:#000000;stroke-linecap:square;"/>
   </g>
   <g id="line2d_20">
    <path clip-path="url(#p34000d0c49)" d="M 102.094458 311.498182 
L 109.642208 311.498182 
" style="fill:none;stroke:#000000;stroke-linecap:square;"/>
   </g>
   <g id="line2d_21">
    <path clip-path="url(#p34000d0c49)" d="M 102.094458 209.461818 
L 109.642208 209.461818 
" style="fill:none;stroke:#000000;stroke-linecap:square;"/>
   </g>
   <g id="patch_71">
    <path clip-path="url(#p34000d0c49)" d="M 98.320583 292.832993 
L 113.416083 292.832993 
L 113.416083 259.235654 
L 98.320583 259.235654 
L 98.320583 292.832993 
z
" style="fill:#9de4f9;stroke:#000000;stroke-linejoin:miter;"/>
   </g>
   <g id="line2d_22">
    <path clip-path="url(#p34000d0c49)" d="M 98.320583 277.900843 
L 113.416083 277.900843 
" style="fill:none;stroke:#ff0000;stroke-linecap:square;"/>
   </g>
   <g id="patch_72">
    <path d="M 55.55 316.6 
L 55.55 204.36 
" style="fill:none;stroke:#000000;stroke-linecap:square;stroke-linejoin:miter;stroke-width:0.8;"/>
   </g>
   <g id="patch_73">
    <path d="M 156.186667 316.6 
L 156.186667 204.36 
" style="fill:none;stroke:#000000;stroke-linecap:square;stroke-linejoin:miter;stroke-width:0.8;"/>
   </g>
   <g id="patch_74">
    <path d="M 55.55 316.6 
L 156.186667 316.6 
" style="fill:none;stroke:#000000;stroke-linecap:square;stroke-linejoin:miter;stroke-width:0.8;"/>
   </g>
   <g id="patch_75">
    <path d="M 55.55 204.36 
L 156.186667 204.36 
" style="fill:none;stroke:#000000;stroke-linecap:square;stroke-linejoin:miter;stroke-width:0.8;"/>
   </g>
  </g>
  <g id="axes_4">
   <g id="patch_76">
    <path d="M 217.406667 316.6 
L 418.68 316.6 
L 418.68 204.36 
L 217.406667 204.36 
z
" style="fill:#ffffff;"/>
   </g>
   <g id="patch_77">
    <path clip-path="url(#pd91661443e)" d="M 224.652507 316.6 
L 226.262693 316.6 
L 226.262693 209.704762 
L 224.652507 209.704762 
z
" style="fill:#0000ff;"/>
   </g>
   <g id="patch_78">
    <path clip-path="url(#pd91661443e)" d="M 226.262693 316.6 
L 227.87288 316.6 
L 227.87288 288.083983 
L 226.262693 288.083983 
z
" style="fill:#0000ff;"/>
   </g>
   <g id="patch_79">
    <path clip-path="url(#pd91661443e)" d="M 227.87288 316.6 
L 229.483067 316.6 
L 229.483067 286.172294 
L 227.87288 286.172294 
z
" style="fill:#0000ff;"/>
   </g>
   <g id="patch_80">
    <path clip-path="url(#pd91661443e)" d="M 229.483067 316.6 
L 231.093253 316.6 
L 231.093253 316.6 
L 229.483067 316.6 
z
" style="fill:#0000ff;"/>
   </g>
   <g id="patch_81">
    <path clip-path="url(#pd91661443e)" d="M 231.093253 316.6 
L 232.70344 316.6 
L 232.70344 283.623377 
L 231.093253 283.623377 
z
" style="fill:#0000ff;"/>
   </g>
   <g id="patch_82">
    <path clip-path="url(#pd91661443e)" d="M 232.70344 316.6 
L 234.313627 316.6 
L 234.313627 280.596537 
L 232.70344 280.596537 
z
" style="fill:#0000ff;"/>
   </g>
   <g id="patch_83">
    <path clip-path="url(#pd91661443e)" d="M 234.313627 316.6 
L 235.923813 316.6 
L 235.923813 316.6 
L 234.313627 316.6 
z
" style="fill:#0000ff;"/>
   </g>
   <g id="patch_84">
    <path clip-path="url(#pd91661443e)" d="M 235.923813 316.6 
L 237.534 316.6 
L 237.534 270.400866 
L 235.923813 270.400866 
z
" style="fill:#0000ff;"/>
   </g>
   <g id="patch_85">
    <path clip-path="url(#pd91661443e)" d="M 237.534 316.6 
L 239.144187 316.6 
L 239.144187 274.861472 
L 237.534 274.861472 
z
" style="fill:#0000ff;"/>
   </g>
   <g id="patch_86">
    <path clip-path="url(#pd91661443e)" d="M 239.144187 316.6 
L 240.754373 316.6 
L 240.754373 316.6 
L 239.144187 316.6 
z
" style="fill:#0000ff;"/>
   </g>
   <g id="patch_87">
    <path clip-path="url(#pd91661443e)" d="M 240.754373 316.6 
L 242.36456 316.6 
L 242.36456 266.418182 
L 240.754373 266.418182 
z
" style="fill:#0000ff;"/>
   </g>
   <g id="patch_88">
    <path clip-path="url(#pd91661443e)" d="M 242.36456 316.6 
L 243.974747 316.6 
L 243.974747 264.665801 
L 242.36456 264.665801 
z
" style="fill:#0000ff;"/>
   </g>
   <g id="patch_89">
    <path clip-path="url(#pd91661443e)" d="M 243.974747 316.6 
L 245.584933 316.6 
L 245.584933 316.6 
L 243.974747 316.6 
z
" style="fill:#0000ff;"/>
   </g>
   <g id="patch_90">
    <path clip-path="url(#pd91661443e)" d="M 245.584933 316.6 
L 247.19512 316.6 
L 247.19512 261.479654 
L 245.584933 261.479654 
z
" style="fill:#0000ff;"/>
   </g>
   <g id="patch_91">
    <path clip-path="url(#pd91661443e)" d="M 247.19512 316.6 
L 248.805307 316.6 
L 248.805307 257.49697 
L 247.19512 257.49697 
z
" style="fill:#0000ff;"/>
   </g>
   <g id="patch_92">
    <path clip-path="url(#pd91661443e)" d="M 248.805307 316.6 
L 250.415493 316.6 
L 250.415493 316.6 
L 248.805307 316.6 
z
" style="fill:#0000ff;"/>
   </g>
   <g id="patch_93">
    <path clip-path="url(#pd91661443e)" d="M 250.415493 316.6 
L 252.02568 316.6 
L 252.02568 252.717749 
L 250.415493 252.717749 
z
" style="fill:#0000ff;"/>
   </g>
   <g id="patch_94">
    <path clip-path="url(#pd91661443e)" d="M 252.02568 316.6 
L 253.635867 316.6 
L 253.635867 254.151515 
L 252.02568 254.151515 
z
" style="fill:#0000ff;"/>
   </g>
   <g id="patch_95">
    <path clip-path="url(#pd91661443e)" d="M 253.635867 316.6 
L 255.246053 316.6 
L 255.246053 316.6 
L 253.635867 316.6 
z
" style="fill:#0000ff;"/>
   </g>
   <g id="patch_96">
    <path clip-path="url(#pd91661443e)" d="M 255.246053 316.6 
L 256.85624 316.6 
L 256.85624 249.690909 
L 255.246053 249.690909 
z
" style="fill:#0000ff;"/>
   </g>
   <g id="patch_97">
    <path clip-path="url(#pd91661443e)" d="M 256.85624 316.6 
L 258.466427 316.6 
L 258.466427 236.94632 
L 256.85624 236.94632 
z
" style="fill:#0000ff;"/>
   </g>
   <g id="patch_98">
    <path clip-path="url(#pd91661443e)" d="M 258.466427 316.6 
L 260.076613 316.6 
L 260.076613 316.6 
L 258.466427 316.6 
z
" style="fill:#0000ff;"/>
   </g>
   <g id="patch_99">
    <path clip-path="url(#pd91661443e)" d="M 260.076613 316.6 
L 261.6868 316.6 
L 261.6868 253.673593 
L 260.076613 253.673593 
z
" style="fill:#0000ff;"/>
   </g>
   <g id="patch_100">
    <path clip-path="url(#pd91661443e)" d="M 261.6868 316.6 
L 263.296987 316.6 
L 263.296987 243.637229 
L 261.6868 243.637229 
z
" style="fill:#0000ff;"/>
   </g>
   <g id="patch_101">
    <path clip-path="url(#pd91661443e)" d="M 263.296987 316.6 
L 264.907173 316.6 
L 264.907173 316.6 
L 263.296987 316.6 
z
" style="fill:#0000ff;"/>
   </g>
   <g id="patch_102">
    <path clip-path="url(#pd91661443e)" d="M 264.907173 316.6 
L 266.51736 316.6 
L 266.51736 241.725541 
L 264.907173 241.725541 
z
" style="fill:#0000ff;"/>
   </g>
   <g id="patch_103">
    <path clip-path="url(#pd91661443e)" d="M 266.51736 316.6 
L 268.127547 316.6 
L 268.127547 241.247619 
L 266.51736 241.247619 
z
" style="fill:#0000ff;"/>
   </g>
   <g id="patch_104">
    <path clip-path="url(#pd91661443e)" d="M 268.127547 316.6 
L 269.737733 316.6 
L 269.737733 316.6 
L 268.127547 316.6 
z
" style="fill:#0000ff;"/>
   </g>
   <g id="patch_105">
    <path clip-path="url(#pd91661443e)" d="M 269.737733 316.6 
L 271.34792 316.6 
L 271.34792 244.911688 
L 269.737733 244.911688 
z
" style="fill:#0000ff;"/>
   </g>
   <g id="patch_106">
    <path clip-path="url(#pd91661443e)" d="M 271.34792 316.6 
L 272.958107 316.6 
L 272.958107 240.132468 
L 271.34792 240.132468 
z
" style="fill:#0000ff;"/>
   </g>
   <g id="patch_107">
    <path clip-path="url(#pd91661443e)" d="M 272.958107 316.6 
L 274.568293 316.6 
L 274.568293 316.6 
L 272.958107 316.6 
z
" style="fill:#0000ff;"/>
   </g>
   <g id="patch_108">
    <path clip-path="url(#pd91661443e)" d="M 274.568293 316.6 
L 276.17848 316.6 
L 276.17848 237.58355 
L 274.568293 237.58355 
z
" style="fill:#0000ff;"/>
   </g>
   <g id="patch_109">
    <path clip-path="url(#pd91661443e)" d="M 276.17848 316.6 
L 277.788667 316.6 
L 277.788667 241.725541 
L 276.17848 241.725541 
z
" style="fill:#0000ff;"/>
   </g>
   <g id="patch_110">
    <path clip-path="url(#pd91661443e)" d="M 277.788667 316.6 
L 279.398853 316.6 
L 279.398853 316.6 
L 277.788667 316.6 
z
" style="fill:#0000ff;"/>
   </g>
   <g id="patch_111">
    <path clip-path="url(#pd91661443e)" d="M 279.398853 316.6 
L 281.00904 316.6 
L 281.00904 238.220779 
L 279.398853 238.220779 
z
" style="fill:#0000ff;"/>
   </g>
   <g id="patch_112">
    <path clip-path="url(#pd91661443e)" d="M 281.00904 316.6 
L 282.619227 316.6 
L 282.619227 236.787013 
L 281.00904 236.787013 
z
" style="fill:#0000ff;"/>
   </g>
   <g id="patch_113">
    <path clip-path="url(#pd91661443e)" d="M 282.619227 316.6 
L 284.229413 316.6 
L 284.229413 316.6 
L 282.619227 316.6 
z
" style="fill:#0000ff;"/>
   </g>
   <g id="patch_114">
    <path clip-path="url(#pd91661443e)" d="M 284.229413 316.6 
L 285.8396 316.6 
L 285.8396 237.58355 
L 284.229413 237.58355 
z
" style="fill:#0000ff;"/>
   </g>
   <g id="patch_115">
    <path clip-path="url(#pd91661443e)" d="M 285.8396 316.6 
L 287.449787 316.6 
L 287.449787 247.301299 
L 285.8396 247.301299 
z
" style="fill:#0000ff;"/>
   </g>
   <g id="patch_116">
    <path clip-path="url(#pd91661443e)" d="M 287.449787 316.6 
L 289.059973 316.6 
L 289.059973 316.6 
L 287.449787 316.6 
z
" style="fill:#0000ff;"/>
   </g>
   <g id="patch_117">
    <path clip-path="url(#pd91661443e)" d="M 289.059973 316.6 
L 290.67016 316.6 
L 290.67016 245.548918 
L 289.059973 245.548918 
z
" style="fill:#0000ff;"/>
   </g>
   <g id="patch_118">
    <path clip-path="url(#pd91661443e)" d="M 290.67016 316.6 
L 292.280347 316.6 
L 292.280347 247.301299 
L 290.67016 247.301299 
z
" style="fill:#0000ff;"/>
   </g>
   <g id="patch_119">
    <path clip-path="url(#pd91661443e)" d="M 292.280347 316.6 
L 293.890533 316.6 
L 293.890533 316.6 
L 292.280347 316.6 
z
" style="fill:#0000ff;"/>
   </g>
   <g id="patch_120">
    <path clip-path="url(#pd91661443e)" d="M 293.890533 316.6 
L 295.50072 316.6 
L 295.50072 251.124675 
L 293.890533 251.124675 
z
" style="fill:#0000ff;"/>
   </g>
   <g id="patch_121">
    <path clip-path="url(#pd91661443e)" d="M 295.50072 316.6 
L 297.110907 316.6 
L 297.110907 249.372294 
L 295.50072 249.372294 
z
" style="fill:#0000ff;"/>
   </g>
   <g id="patch_122">
    <path clip-path="url(#pd91661443e)" d="M 297.110907 316.6 
L 298.721093 316.6 
L 298.721093 316.6 
L 297.110907 316.6 
z
" style="fill:#0000ff;"/>
   </g>
   <g id="patch_123">
    <path clip-path="url(#pd91661443e)" d="M 298.721093 316.6 
L 300.33128 316.6 
L 300.33128 243.955844 
L 298.721093 243.955844 
z
" style="fill:#0000ff;"/>
   </g>
   <g id="patch_124">
    <path clip-path="url(#pd91661443e)" d="M 300.33128 316.6 
L 301.941467 316.6 
L 301.941467 251.761905 
L 300.33128 251.761905 
z
" style="fill:#0000ff;"/>
   </g>
   <g id="patch_125">
    <path clip-path="url(#pd91661443e)" d="M 301.941467 316.6 
L 303.551653 316.6 
L 303.551653 316.6 
L 301.941467 316.6 
z
" style="fill:#0000ff;"/>
   </g>
   <g id="patch_126">
    <path clip-path="url(#pd91661443e)" d="M 303.551653 316.6 
L 305.16184 316.6 
L 305.16184 256.700433 
L 303.551653 256.700433 
z
" style="fill:#0000ff;"/>
   </g>
   <g id="patch_127">
    <path clip-path="url(#pd91661443e)" d="M 305.16184 316.6 
L 306.772027 316.6 
L 306.772027 258.134199 
L 305.16184 258.134199 
z
" style="fill:#0000ff;"/>
   </g>
   <g id="patch_128">
    <path clip-path="url(#pd91661443e)" d="M 306.772027 316.6 
L 308.382213 316.6 
L 308.382213 316.6 
L 306.772027 316.6 
z
" style="fill:#0000ff;"/>
   </g>
   <g id="patch_129">
    <path clip-path="url(#pd91661443e)" d="M 308.382213 316.6 
L 309.9924 316.6 
L 309.9924 255.266667 
L 308.382213 255.266667 
z
" style="fill:#0000ff;"/>
   </g>
   <g id="patch_130">
    <path clip-path="url(#pd91661443e)" d="M 309.9924 316.6 
L 311.602587 316.6 
L 311.602587 263.232035 
L 309.9924 263.232035 
z
" style="fill:#0000ff;"/>
   </g>
   <g id="patch_131">
    <path clip-path="url(#pd91661443e)" d="M 311.602587 316.6 
L 313.212773 316.6 
L 313.212773 257.49697 
L 311.602587 257.49697 
z
" style="fill:#0000ff;"/>
   </g>
   <g id="patch_132">
    <path clip-path="url(#pd91661443e)" d="M 313.212773 316.6 
L 314.82296 316.6 
L 314.82296 316.6 
L 313.212773 316.6 
z
" style="fill:#0000ff;"/>
   </g>
   <g id="patch_133">
    <path clip-path="url(#pd91661443e)" d="M 314.82296 316.6 
L 316.433147 316.6 
L 316.433147 261.161039 
L 314.82296 261.161039 
z
" style="fill:#0000ff;"/>
   </g>
   <g id="patch_134">
    <path clip-path="url(#pd91661443e)" d="M 316.433147 316.6 
L 318.043333 316.6 
L 318.043333 269.285714 
L 316.433147 269.285714 
z
" style="fill:#0000ff;"/>
   </g>
   <g id="patch_135">
    <path clip-path="url(#pd91661443e)" d="M 318.043333 316.6 
L 319.65352 316.6 
L 319.65352 316.6 
L 318.043333 316.6 
z
" style="fill:#0000ff;"/>
   </g>
   <g id="patch_136">
    <path clip-path="url(#pd91661443e)" d="M 319.65352 316.6 
L 321.263707 316.6 
L 321.263707 266.418182 
L 319.65352 266.418182 
z
" style="fill:#0000ff;"/>
   </g>
   <g id="patch_137">
    <path clip-path="url(#pd91661443e)" d="M 321.263707 316.6 
L 322.873893 316.6 
L 322.873893 268.648485 
L 321.263707 268.648485 
z
" style="fill:#0000ff;"/>
   </g>
   <g id="patch_138">
    <path clip-path="url(#pd91661443e)" d="M 322.873893 316.6 
L 324.48408 316.6 
L 324.48408 316.6 
L 322.873893 316.6 
z
" style="fill:#0000ff;"/>
   </g>
   <g id="patch_139">
    <path clip-path="url(#pd91661443e)" d="M 324.48408 316.6 
L 326.094267 316.6 
L 326.094267 267.851948 
L 324.48408 267.851948 
z
" style="fill:#0000ff;"/>
   </g>
   <g id="patch_140">
    <path clip-path="url(#pd91661443e)" d="M 326.094267 316.6 
L 327.704453 316.6 
L 327.704453 272.949784 
L 326.094267 272.949784 
z
" style="fill:#0000ff;"/>
   </g>
   <g id="patch_141">
    <path clip-path="url(#pd91661443e)" d="M 327.704453 316.6 
L 329.31464 316.6 
L 329.31464 316.6 
L 327.704453 316.6 
z
" style="fill:#0000ff;"/>
   </g>
   <g id="patch_142">
    <path clip-path="url(#pd91661443e)" d="M 329.31464 316.6 
L 330.924827 316.6 
L 330.924827 272.949784 
L 329.31464 272.949784 
z
" style="fill:#0000ff;"/>
   </g>
   <g id="patch_143">
    <path clip-path="url(#pd91661443e)" d="M 330.924827 316.6 
L 332.535013 316.6 
L 332.535013 278.206926 
L 330.924827 278.206926 
z
" style="fill:#0000ff;"/>
   </g>
   <g id="patch_144">
    <path clip-path="url(#pd91661443e)" d="M 332.535013 316.6 
L 334.1452 316.6 
L 334.1452 316.6 
L 332.535013 316.6 
z
" style="fill:#0000ff;"/>
   </g>
   <g id="patch_145">
    <path clip-path="url(#pd91661443e)" d="M 334.1452 316.6 
L 335.755387 316.6 
L 335.755387 275.817316 
L 334.1452 275.817316 
z
" style="fill:#0000ff;"/>
   </g>
   <g id="patch_146">
    <path clip-path="url(#pd91661443e)" d="M 335.755387 316.6 
L 337.365573 316.6 
L 337.365573 278.206926 
L 335.755387 278.206926 
z
" style="fill:#0000ff;"/>
   </g>
   <g id="patch_147">
    <path clip-path="url(#pd91661443e)" d="M 337.365573 316.6 
L 338.97576 316.6 
L 338.97576 316.6 
L 337.365573 316.6 
z
" style="fill:#0000ff;"/>
   </g>
   <g id="patch_148">
    <path clip-path="url(#pd91661443e)" d="M 338.97576 316.6 
L 340.585947 316.6 
L 340.585947 285.375758 
L 338.97576 285.375758 
z
" style="fill:#0000ff;"/>
   </g>
   <g id="patch_149">
    <path clip-path="url(#pd91661443e)" d="M 340.585947 316.6 
L 342.196133 316.6 
L 342.196133 283.782684 
L 340.585947 283.782684 
z
" style="fill:#0000ff;"/>
   </g>
   <g id="patch_150">
    <path clip-path="url(#pd91661443e)" d="M 342.196133 316.6 
L 343.80632 316.6 
L 343.80632 316.6 
L 342.196133 316.6 
z
" style="fill:#0000ff;"/>
   </g>
   <g id="patch_151">
    <path clip-path="url(#pd91661443e)" d="M 343.80632 316.6 
L 345.416507 316.6 
L 345.416507 289.358442 
L 343.80632 289.358442 
z
" style="fill:#0000ff;"/>
   </g>
   <g id="patch_152">
    <path clip-path="url(#pd91661443e)" d="M 345.416507 316.6 
L 347.026693 316.6 
L 347.026693 284.897835 
L 345.416507 284.897835 
z
" style="fill:#0000ff;"/>
   </g>
   <g id="patch_153">
    <path clip-path="url(#pd91661443e)" d="M 347.026693 316.6 
L 348.63688 316.6 
L 348.63688 316.6 
L 347.026693 316.6 
z
" style="fill:#0000ff;"/>
   </g>
   <g id="patch_154">
    <path clip-path="url(#pd91661443e)" d="M 348.63688 316.6 
L 350.247067 316.6 
L 350.247067 291.110823 
L 348.63688 291.110823 
z
" style="fill:#0000ff;"/>
   </g>
   <g id="patch_155">
    <path clip-path="url(#pd91661443e)" d="M 350.247067 316.6 
L 351.857253 316.6 
L 351.857253 290.154978 
L 350.247067 290.154978 
z
" style="fill:#0000ff;"/>
   </g>
   <g id="patch_156">
    <path clip-path="url(#pd91661443e)" d="M 351.857253 316.6 
L 353.46744 316.6 
L 353.46744 316.6 
L 351.857253 316.6 
z
" style="fill:#0000ff;"/>
   </g>
   <g id="patch_157">
    <path clip-path="url(#pd91661443e)" d="M 353.46744 316.6 
L 355.077627 316.6 
L 355.077627 292.703896 
L 353.46744 292.703896 
z
" style="fill:#0000ff;"/>
   </g>
   <g id="patch_158">
    <path clip-path="url(#pd91661443e)" d="M 355.077627 316.6 
L 356.687813 316.6 
L 356.687813 292.863203 
L 355.077627 292.863203 
z
" style="fill:#0000ff;"/>
   </g>
   <g id="patch_159">
    <path clip-path="url(#pd91661443e)" d="M 356.687813 316.6 
L 358.298 316.6 
L 358.298 316.6 
L 356.687813 316.6 
z
" style="fill:#0000ff;"/>
   </g>
   <g id="patch_160">
    <path clip-path="url(#pd91661443e)" d="M 358.298 316.6 
L 359.908187 316.6 
L 359.908187 293.819048 
L 358.298 293.819048 
z
" style="fill:#0000ff;"/>
   </g>
   <g id="patch_161">
    <path clip-path="url(#pd91661443e)" d="M 359.908187 316.6 
L 361.518373 316.6 
L 361.518373 298.598268 
L 359.908187 298.598268 
z
" style="fill:#0000ff;"/>
   </g>
   <g id="patch_162">
    <path clip-path="url(#pd91661443e)" d="M 361.518373 316.6 
L 363.12856 316.6 
L 363.12856 316.6 
L 361.518373 316.6 
z
" style="fill:#0000ff;"/>
   </g>
   <g id="patch_163">
    <path clip-path="url(#pd91661443e)" d="M 363.12856 316.6 
L 364.738747 316.6 
L 364.738747 295.890043 
L 363.12856 295.890043 
z
" style="fill:#0000ff;"/>
   </g>
   <g id="patch_164">
    <path clip-path="url(#pd91661443e)" d="M 364.738747 316.6 
L 366.348933 316.6 
L 366.348933 298.916883 
L 364.738747 298.916883 
z
" style="fill:#0000ff;"/>
   </g>
   <g id="patch_165">
    <path clip-path="url(#pd91661443e)" d="M 366.348933 316.6 
L 367.95912 316.6 
L 367.95912 316.6 
L 366.348933 316.6 
z
" style="fill:#0000ff;"/>
   </g>
   <g id="patch_166">
    <path clip-path="url(#pd91661443e)" d="M 367.95912 316.6 
L 369.569307 316.6 
L 369.569307 298.598268 
L 367.95912 298.598268 
z
" style="fill:#0000ff;"/>
   </g>
   <g id="patch_167">
    <path clip-path="url(#pd91661443e)" d="M 369.569307 316.6 
L 371.179493 316.6 
L 371.179493 300.350649 
L 369.569307 300.350649 
z
" style="fill:#0000ff;"/>
   </g>
   <g id="patch_168">
    <path clip-path="url(#pd91661443e)" d="M 371.179493 316.6 
L 372.78968 316.6 
L 372.78968 316.6 
L 371.179493 316.6 
z
" style="fill:#0000ff;"/>
   </g>
   <g id="patch_169">
    <path clip-path="url(#pd91661443e)" d="M 372.78968 316.6 
L 374.399867 316.6 
L 374.399867 298.438961 
L 372.78968 298.438961 
z
" style="fill:#0000ff;"/>
   </g>
   <g id="patch_170">
    <path clip-path="url(#pd91661443e)" d="M 374.399867 316.6 
L 376.010053 316.6 
L 376.010053 303.058874 
L 374.399867 303.058874 
z
" style="fill:#0000ff;"/>
   </g>
   <g id="patch_171">
    <path clip-path="url(#pd91661443e)" d="M 376.010053 316.6 
L 377.62024 316.6 
L 377.62024 316.6 
L 376.010053 316.6 
z
" style="fill:#0000ff;"/>
   </g>
   <g id="patch_172">
    <path clip-path="url(#pd91661443e)" d="M 377.62024 316.6 
L 379.230427 316.6 
L 379.230427 301.625108 
L 377.62024 301.625108 
z
" style="fill:#0000ff;"/>
   </g>
   <g id="patch_173">
    <path clip-path="url(#pd91661443e)" d="M 379.230427 316.6 
L 380.840613 316.6 
L 380.840613 302.262338 
L 379.230427 302.262338 
z
" style="fill:#0000ff;"/>
   </g>
   <g id="patch_174">
    <path clip-path="url(#pd91661443e)" d="M 380.840613 316.6 
L 382.4508 316.6 
L 382.4508 316.6 
L 380.840613 316.6 
z
" style="fill:#0000ff;"/>
   </g>
   <g id="patch_175">
    <path clip-path="url(#pd91661443e)" d="M 382.4508 316.6 
L 384.060987 316.6 
L 384.060987 303.377489 
L 382.4508 303.377489 
z
" style="fill:#0000ff;"/>
   </g>
   <g id="patch_176">
    <path clip-path="url(#pd91661443e)" d="M 384.060987 316.6 
L 385.671173 316.6 
L 385.671173 303.536797 
L 384.060987 303.536797 
z
" style="fill:#0000ff;"/>
   </g>
   <g id="patch_177">
    <path clip-path="url(#pd91661443e)" d="M 385.671173 316.6 
L 387.28136 316.6 
L 387.28136 316.6 
L 385.671173 316.6 
z
" style="fill:#0000ff;"/>
   </g>
   <g id="patch_178">
    <path clip-path="url(#pd91661443e)" d="M 387.28136 316.6 
L 388.891547 316.6 
L 388.891547 305.12987 
L 387.28136 305.12987 
z
" style="fill:#0000ff;"/>
   </g>
   <g id="patch_179">
    <path clip-path="url(#pd91661443e)" d="M 388.891547 316.6 
L 390.501733 316.6 
L 390.501733 306.085714 
L 388.891547 306.085714 
z
" style="fill:#0000ff;"/>
   </g>
   <g id="patch_180">
    <path clip-path="url(#pd91661443e)" d="M 390.501733 316.6 
L 392.11192 316.6 
L 392.11192 316.6 
L 390.501733 316.6 
z
" style="fill:#0000ff;"/>
   </g>
   <g id="patch_181">
    <path clip-path="url(#pd91661443e)" d="M 392.11192 316.6 
L 393.722107 316.6 
L 393.722107 307.200866 
L 392.11192 307.200866 
z
" style="fill:#0000ff;"/>
   </g>
   <g id="patch_182">
    <path clip-path="url(#pd91661443e)" d="M 393.722107 316.6 
L 395.332293 316.6 
L 395.332293 308.316017 
L 393.722107 308.316017 
z
" style="fill:#0000ff;"/>
   </g>
   <g id="patch_183">
    <path clip-path="url(#pd91661443e)" d="M 395.332293 316.6 
L 396.94248 316.6 
L 396.94248 309.431169 
L 395.332293 309.431169 
z
" style="fill:#0000ff;"/>
   </g>
   <g id="patch_184">
    <path clip-path="url(#pd91661443e)" d="M 396.94248 316.6 
L 398.552667 316.6 
L 398.552667 316.6 
L 396.94248 316.6 
z
" style="fill:#0000ff;"/>
   </g>
   <g id="patch_185">
    <path clip-path="url(#pd91661443e)" d="M 398.552667 316.6 
L 400.162853 316.6 
L 400.162853 308.953247 
L 398.552667 308.953247 
z
" style="fill:#0000ff;"/>
   </g>
   <g id="patch_186">
    <path clip-path="url(#pd91661443e)" d="M 400.162853 316.6 
L 401.77304 316.6 
L 401.77304 307.997403 
L 400.162853 307.997403 
z
" style="fill:#0000ff;"/>
   </g>
   <g id="patch_187">
    <path clip-path="url(#pd91661443e)" d="M 401.77304 316.6 
L 403.383227 316.6 
L 403.383227 316.6 
L 401.77304 316.6 
z
" style="fill:#0000ff;"/>
   </g>
   <g id="patch_188">
    <path clip-path="url(#pd91661443e)" d="M 403.383227 316.6 
L 404.993413 316.6 
L 404.993413 309.112554 
L 403.383227 309.112554 
z
" style="fill:#0000ff;"/>
   </g>
   <g id="patch_189">
    <path clip-path="url(#pd91661443e)" d="M 404.993413 316.6 
L 406.6036 316.6 
L 406.6036 308.953247 
L 404.993413 308.953247 
z
" style="fill:#0000ff;"/>
   </g>
   <g id="patch_190">
    <path clip-path="url(#pd91661443e)" d="M 406.6036 316.6 
L 408.213787 316.6 
L 408.213787 316.6 
L 406.6036 316.6 
z
" style="fill:#0000ff;"/>
   </g>
   <g id="patch_191">
    <path clip-path="url(#pd91661443e)" d="M 408.213787 316.6 
L 409.823973 316.6 
L 409.823973 310.227706 
L 408.213787 310.227706 
z
" style="fill:#0000ff;"/>
   </g>
   <g id="patch_192">
    <path clip-path="url(#pd91661443e)" d="M 409.823973 316.6 
L 411.43416 316.6 
L 411.43416 307.838095 
L 409.823973 307.838095 
z
" style="fill:#0000ff;"/>
   </g>
   <g id="patch_193">
    <path clip-path="url(#pd91661443e)" d="M 411.43416 316.6 
L 413.044347 316.6 
L 413.044347 316.6 
L 411.43416 316.6 
z
" style="fill:#0000ff;"/>
   </g>
   <g id="patch_194">
    <path clip-path="url(#pd91661443e)" d="M 413.044347 316.6 
L 414.654533 316.6 
L 414.654533 310.227706 
L 413.044347 310.227706 
z
" style="fill:#0000ff;"/>
   </g>
   <g id="patch_195">
    <path clip-path="url(#pd91661443e)" d="M 414.654533 316.6 
L 416.26472 316.6 
L 416.26472 310.387013 
L 414.654533 310.387013 
z
" style="fill:#0000ff;"/>
   </g>
   <g id="patch_196">
    <path clip-path="url(#pd91661443e)" d="M 416.26472 316.6 
L 417.874907 316.6 
L 417.874907 316.6 
L 416.26472 316.6 
z
" style="fill:#0000ff;"/>
   </g>
   <g id="patch_197">
    <path clip-path="url(#pd91661443e)" d="M 417.874907 316.6 
L 419.485093 316.6 
L 419.485093 316.6 
L 417.874907 316.6 
z
" style="fill:#0000ff;"/>
   </g>
   <g id="matplotlib.axis_7">
    <g id="xtick_4">
     <g id="line2d_23">
      <g>
       <use style="stroke:#000000;stroke-width:0.8;" x="225.4576" xlink:href="#m1fabd8c049" y="316.6"/>
      </g>
     </g>
     <g id="text_18">
      <!-- 0 -->
      <g transform="translate(221.6401 332.718125)scale(0.12 -0.12)">
       <use xlink:href="#DejaVuSans-30"/>
      </g>
     </g>
    </g>
    <g id="xtick_5">
     <g id="line2d_24">
      <g>
       <use style="stroke:#000000;stroke-width:0.8;" x="265.712267" xlink:href="#m1fabd8c049" y="316.6"/>
      </g>
     </g>
     <g id="text_19">
      <!-- 25 -->
      <g transform="translate(258.077267 332.718125)scale(0.12 -0.12)">
       <use xlink:href="#DejaVuSans-32"/>
       <use x="63.623047" xlink:href="#DejaVuSans-35"/>
      </g>
     </g>
    </g>
    <g id="xtick_6">
     <g id="line2d_25">
      <g>
       <use style="stroke:#000000;stroke-width:0.8;" x="305.966933" xlink:href="#m1fabd8c049" y="316.6"/>
      </g>
     </g>
     <g id="text_20">
      <!-- 50 -->
      <g transform="translate(298.331933 332.718125)scale(0.12 -0.12)">
       <use xlink:href="#DejaVuSans-35"/>
       <use x="63.623047" xlink:href="#DejaVuSans-30"/>
      </g>
     </g>
    </g>
    <g id="xtick_7">
     <g id="line2d_26">
      <g>
       <use style="stroke:#000000;stroke-width:0.8;" x="346.2216" xlink:href="#m1fabd8c049" y="316.6"/>
      </g>
     </g>
     <g id="text_21">
      <!-- 75 -->
      <defs>
       <path d="M 8.203125 72.90625 
L 55.078125 72.90625 
L 55.078125 68.703125 
L 28.609375 0 
L 18.3125 0 
L 43.21875 64.59375 
L 8.203125 64.59375 
z
" id="DejaVuSans-37"/>
      </defs>
      <g transform="translate(338.5866 332.718125)scale(0.12 -0.12)">
       <use xlink:href="#DejaVuSans-37"/>
       <use x="63.623047" xlink:href="#DejaVuSans-35"/>
      </g>
     </g>
    </g>
    <g id="xtick_8">
     <g id="line2d_27">
      <g>
       <use style="stroke:#000000;stroke-width:0.8;" x="386.476267" xlink:href="#m1fabd8c049" y="316.6"/>
      </g>
     </g>
     <g id="text_22">
      <!-- 100 -->
      <g transform="translate(375.023767 332.718125)scale(0.12 -0.12)">
       <use xlink:href="#DejaVuSans-31"/>
       <use x="63.623047" xlink:href="#DejaVuSans-30"/>
       <use x="127.246094" xlink:href="#DejaVuSans-30"/>
      </g>
     </g>
    </g>
    <g id="text_23">
     <!-- Counts per Gene -->
     <g transform="translate(267.483021 348.331875)scale(0.12 -0.12)">
      <use xlink:href="#DejaVuSans-43"/>
      <use x="69.824219" xlink:href="#DejaVuSans-6f"/>
      <use x="131.005859" xlink:href="#DejaVuSans-75"/>
      <use x="194.384766" xlink:href="#DejaVuSans-6e"/>
      <use x="257.763672" xlink:href="#DejaVuSans-74"/>
      <use x="296.972656" xlink:href="#DejaVuSans-73"/>
      <use x="349.072266" xlink:href="#DejaVuSans-20"/>
      <use x="380.859375" xlink:href="#DejaVuSans-70"/>
      <use x="444.335938" xlink:href="#DejaVuSans-65"/>
      <use x="505.859375" xlink:href="#DejaVuSans-72"/>
      <use x="546.972656" xlink:href="#DejaVuSans-20"/>
      <use x="578.759766" xlink:href="#DejaVuSans-47"/>
      <use x="656.25" xlink:href="#DejaVuSans-65"/>
      <use x="717.773438" xlink:href="#DejaVuSans-6e"/>
      <use x="781.152344" xlink:href="#DejaVuSans-65"/>
     </g>
    </g>
   </g>
   <g id="matplotlib.axis_8">
    <g id="ytick_10">
     <g id="line2d_28">
      <g>
       <use style="stroke:#000000;stroke-width:0.8;" x="217.406667" xlink:href="#ma54a40d805" y="316.6"/>
      </g>
     </g>
     <g id="text_24">
      <!-- 0.0k -->
      <defs>
       <path d="M 10.6875 12.40625 
L 21 12.40625 
L 21 0 
L 10.6875 0 
z
" id="DejaVuSans-2e"/>
      </defs>
      <g transform="translate(184.374167 321.159063)scale(0.12 -0.12)">
       <use xlink:href="#DejaVuSans-30"/>
       <use x="63.623047" xlink:href="#DejaVuSans-2e"/>
       <use x="95.410156" xlink:href="#DejaVuSans-30"/>
       <use x="159.033203" xlink:href="#DejaVuSans-6b"/>
      </g>
     </g>
    </g>
    <g id="ytick_11">
     <g id="line2d_29">
      <g>
       <use style="stroke:#000000;stroke-width:0.8;" x="217.406667" xlink:href="#ma54a40d805" y="284.738528"/>
      </g>
     </g>
     <g id="text_25">
      <!-- 0.2k -->
      <g transform="translate(184.374167 289.297591)scale(0.12 -0.12)">
       <use xlink:href="#DejaVuSans-30"/>
       <use x="63.623047" xlink:href="#DejaVuSans-2e"/>
       <use x="95.410156" xlink:href="#DejaVuSans-32"/>
       <use x="159.033203" xlink:href="#DejaVuSans-6b"/>
      </g>
     </g>
    </g>
    <g id="ytick_12">
     <g id="line2d_30">
      <g>
       <use style="stroke:#000000;stroke-width:0.8;" x="217.406667" xlink:href="#ma54a40d805" y="252.877056"/>
      </g>
     </g>
     <g id="text_26">
      <!-- 0.4k -->
      <g transform="translate(184.374167 257.436119)scale(0.12 -0.12)">
       <use xlink:href="#DejaVuSans-30"/>
       <use x="63.623047" xlink:href="#DejaVuSans-2e"/>
       <use x="95.410156" xlink:href="#DejaVuSans-34"/>
       <use x="159.033203" xlink:href="#DejaVuSans-6b"/>
      </g>
     </g>
    </g>
    <g id="ytick_13">
     <g id="line2d_31">
      <g>
       <use style="stroke:#000000;stroke-width:0.8;" x="217.406667" xlink:href="#ma54a40d805" y="221.015584"/>
      </g>
     </g>
     <g id="text_27">
      <!-- 0.6k -->
      <defs>
       <path d="M 33.015625 40.375 
Q 26.375 40.375 22.484375 35.828125 
Q 18.609375 31.296875 18.609375 23.390625 
Q 18.609375 15.53125 22.484375 10.953125 
Q 26.375 6.390625 33.015625 6.390625 
Q 39.65625 6.390625 43.53125 10.953125 
Q 47.40625 15.53125 47.40625 23.390625 
Q 47.40625 31.296875 43.53125 35.828125 
Q 39.65625 40.375 33.015625 40.375 
z
M 52.59375 71.296875 
L 52.59375 62.3125 
Q 48.875 64.0625 45.09375 64.984375 
Q 41.3125 65.921875 37.59375 65.921875 
Q 27.828125 65.921875 22.671875 59.328125 
Q 17.53125 52.734375 16.796875 39.40625 
Q 19.671875 43.65625 24.015625 45.921875 
Q 28.375 48.1875 33.59375 48.1875 
Q 44.578125 48.1875 50.953125 41.515625 
Q 57.328125 34.859375 57.328125 23.390625 
Q 57.328125 12.15625 50.6875 5.359375 
Q 44.046875 -1.421875 33.015625 -1.421875 
Q 20.359375 -1.421875 13.671875 8.265625 
Q 6.984375 17.96875 6.984375 36.375 
Q 6.984375 53.65625 15.1875 63.9375 
Q 23.390625 74.21875 37.203125 74.21875 
Q 40.921875 74.21875 44.703125 73.484375 
Q 48.484375 72.75 52.59375 71.296875 
z
" id="DejaVuSans-36"/>
      </defs>
      <g transform="translate(184.374167 225.574647)scale(0.12 -0.12)">
       <use xlink:href="#DejaVuSans-30"/>
       <use x="63.623047" xlink:href="#DejaVuSans-2e"/>
       <use x="95.410156" xlink:href="#DejaVuSans-36"/>
       <use x="159.033203" xlink:href="#DejaVuSans-6b"/>
      </g>
     </g>
    </g>
    <g id="text_28">
     <!-- Number of Genes -->
     <g transform="translate(177.878542 313.14125)rotate(-90)scale(0.12 -0.12)">
      <use xlink:href="#DejaVuSans-4e"/>
      <use x="74.804688" xlink:href="#DejaVuSans-75"/>
      <use x="138.183594" xlink:href="#DejaVuSans-6d"/>
      <use x="235.595703" xlink:href="#DejaVuSans-62"/>
      <use x="299.072266" xlink:href="#DejaVuSans-65"/>
      <use x="360.595703" xlink:href="#DejaVuSans-72"/>
      <use x="401.708984" xlink:href="#DejaVuSans-20"/>
      <use x="433.496094" xlink:href="#DejaVuSans-6f"/>
      <use x="494.677734" xlink:href="#DejaVuSans-66"/>
      <use x="529.882812" xlink:href="#DejaVuSans-20"/>
      <use x="561.669922" xlink:href="#DejaVuSans-47"/>
      <use x="639.160156" xlink:href="#DejaVuSans-65"/>
      <use x="700.683594" xlink:href="#DejaVuSans-6e"/>
      <use x="764.0625" xlink:href="#DejaVuSans-65"/>
      <use x="825.585938" xlink:href="#DejaVuSans-73"/>
     </g>
    </g>
   </g>
   <g id="patch_198">
    <path d="M 217.406667 316.6 
L 217.406667 204.36 
" style="fill:none;stroke:#000000;stroke-linecap:square;stroke-linejoin:miter;stroke-width:0.8;"/>
   </g>
   <g id="patch_199">
    <path d="M 418.68 316.6 
L 418.68 204.36 
" style="fill:none;stroke:#000000;stroke-linecap:square;stroke-linejoin:miter;stroke-width:0.8;"/>
   </g>
   <g id="patch_200">
    <path d="M 217.406667 316.6 
L 418.68 316.6 
" style="fill:none;stroke:#000000;stroke-linecap:square;stroke-linejoin:miter;stroke-width:0.8;"/>
   </g>
   <g id="patch_201">
    <path d="M 217.406667 204.36 
L 418.68 204.36 
" style="fill:none;stroke:#000000;stroke-linecap:square;stroke-linejoin:miter;stroke-width:0.8;"/>
   </g>
   <g id="text_29">
    <!-- EMPTY -->
    <g style="fill:#ffffff;" transform="translate(291.489583 198.36)scale(0.16 -0.16)">
     <use xlink:href="#DejaVuSans-45"/>
     <use x="63.183594" xlink:href="#DejaVuSans-4d"/>
     <use x="149.462891" xlink:href="#DejaVuSans-50"/>
     <use x="209.765625" xlink:href="#DejaVuSans-54"/>
     <use x="270.849609" xlink:href="#DejaVuSans-59"/>
    </g>
   </g>
  </g>
  <g id="text_30">
   <!-- Read Distribution (sgRNAs) -->
   <defs>
    <path d="M 34.28125 27.484375 
Q 23.390625 27.484375 19.1875 25 
Q 14.984375 22.515625 14.984375 16.5 
Q 14.984375 11.71875 18.140625 8.90625 
Q 21.296875 6.109375 26.703125 6.109375 
Q 34.1875 6.109375 38.703125 11.40625 
Q 43.21875 16.703125 43.21875 25.484375 
L 43.21875 27.484375 
z
M 52.203125 31.203125 
L 52.203125 0 
L 43.21875 0 
L 43.21875 8.296875 
Q 40.140625 3.328125 35.546875 0.953125 
Q 30.953125 -1.421875 24.3125 -1.421875 
Q 15.921875 -1.421875 10.953125 3.296875 
Q 6 8.015625 6 15.921875 
Q 6 25.140625 12.171875 29.828125 
Q 18.359375 34.515625 30.609375 34.515625 
L 43.21875 34.515625 
L 43.21875 35.40625 
Q 43.21875 41.609375 39.140625 45 
Q 35.0625 48.390625 27.6875 48.390625 
Q 23 48.390625 18.546875 47.265625 
Q 14.109375 46.140625 10.015625 43.890625 
L 10.015625 52.203125 
Q 14.9375 54.109375 19.578125 55.046875 
Q 24.21875 56 28.609375 56 
Q 40.484375 56 46.34375 49.84375 
Q 52.203125 43.703125 52.203125 31.203125 
z
" id="DejaVuSans-61"/>
    <path d="M 45.40625 46.390625 
L 45.40625 75.984375 
L 54.390625 75.984375 
L 54.390625 0 
L 45.40625 0 
L 45.40625 8.203125 
Q 42.578125 3.328125 38.25 0.953125 
Q 33.9375 -1.421875 27.875 -1.421875 
Q 17.96875 -1.421875 11.734375 6.484375 
Q 5.515625 14.40625 5.515625 27.296875 
Q 5.515625 40.1875 11.734375 48.09375 
Q 17.96875 56 27.875 56 
Q 33.9375 56 38.25 53.625 
Q 42.578125 51.265625 45.40625 46.390625 
z
M 14.796875 27.296875 
Q 14.796875 17.390625 18.875 11.75 
Q 22.953125 6.109375 30.078125 6.109375 
Q 37.203125 6.109375 41.296875 11.75 
Q 45.40625 17.390625 45.40625 27.296875 
Q 45.40625 37.203125 41.296875 42.84375 
Q 37.203125 48.484375 30.078125 48.484375 
Q 22.953125 48.484375 18.875 42.84375 
Q 14.796875 37.203125 14.796875 27.296875 
z
" id="DejaVuSans-64"/>
    <path d="M 19.671875 64.796875 
L 19.671875 8.109375 
L 31.59375 8.109375 
Q 46.6875 8.109375 53.6875 14.9375 
Q 60.6875 21.78125 60.6875 36.53125 
Q 60.6875 51.171875 53.6875 57.984375 
Q 46.6875 64.796875 31.59375 64.796875 
z
M 9.8125 72.90625 
L 30.078125 72.90625 
Q 51.265625 72.90625 61.171875 64.09375 
Q 71.09375 55.28125 71.09375 36.53125 
Q 71.09375 17.671875 61.125 8.828125 
Q 51.171875 0 30.078125 0 
L 9.8125 0 
z
" id="DejaVuSans-44"/>
    <path d="M 9.421875 54.6875 
L 18.40625 54.6875 
L 18.40625 0 
L 9.421875 0 
z
M 9.421875 75.984375 
L 18.40625 75.984375 
L 18.40625 64.59375 
L 9.421875 64.59375 
z
" id="DejaVuSans-69"/>
    <path d="M 31 75.875 
Q 24.46875 64.65625 21.28125 53.65625 
Q 18.109375 42.671875 18.109375 31.390625 
Q 18.109375 20.125 21.3125 9.0625 
Q 24.515625 -2 31 -13.1875 
L 23.1875 -13.1875 
Q 15.875 -1.703125 12.234375 9.375 
Q 8.59375 20.453125 8.59375 31.390625 
Q 8.59375 42.28125 12.203125 53.3125 
Q 15.828125 64.359375 23.1875 75.875 
z
" id="DejaVuSans-28"/>
    <path d="M 8.015625 75.875 
L 15.828125 75.875 
Q 23.140625 64.359375 26.78125 53.3125 
Q 30.421875 42.28125 30.421875 31.390625 
Q 30.421875 20.453125 26.78125 9.375 
Q 23.140625 -1.703125 15.828125 -13.1875 
L 8.015625 -13.1875 
Q 14.5 -2 17.703125 9.0625 
Q 20.90625 20.125 20.90625 31.390625 
Q 20.90625 42.671875 17.703125 53.65625 
Q 14.5 64.65625 8.015625 75.875 
z
" id="DejaVuSans-29"/>
   </defs>
   <g transform="translate(129.6 18)scale(0.14 -0.14)">
    <use xlink:href="#DejaVuSans-52"/>
    <use x="69.419922" xlink:href="#DejaVuSans-65"/>
    <use x="130.943359" xlink:href="#DejaVuSans-61"/>
    <use x="192.222656" xlink:href="#DejaVuSans-64"/>
    <use x="255.699219" xlink:href="#DejaVuSans-20"/>
    <use x="287.486328" xlink:href="#DejaVuSans-44"/>
    <use x="364.488281" xlink:href="#DejaVuSans-69"/>
    <use x="392.271484" xlink:href="#DejaVuSans-73"/>
    <use x="444.371094" xlink:href="#DejaVuSans-74"/>
    <use x="483.580078" xlink:href="#DejaVuSans-72"/>
    <use x="524.693359" xlink:href="#DejaVuSans-69"/>
    <use x="552.476562" xlink:href="#DejaVuSans-62"/>
    <use x="615.953125" xlink:href="#DejaVuSans-75"/>
    <use x="679.332031" xlink:href="#DejaVuSans-74"/>
    <use x="718.541016" xlink:href="#DejaVuSans-69"/>
    <use x="746.324219" xlink:href="#DejaVuSans-6f"/>
    <use x="807.505859" xlink:href="#DejaVuSans-6e"/>
    <use x="870.884766" xlink:href="#DejaVuSans-20"/>
    <use x="902.671875" xlink:href="#DejaVuSans-28"/>
    <use x="941.685547" xlink:href="#DejaVuSans-73"/>
    <use x="993.785156" xlink:href="#DejaVuSans-67"/>
    <use x="1057.261719" xlink:href="#DejaVuSans-52"/>
    <use x="1126.744141" xlink:href="#DejaVuSans-4e"/>
    <use x="1201.548828" xlink:href="#DejaVuSans-41"/>
    <use x="1269.957031" xlink:href="#DejaVuSans-73"/>
    <use x="1322.056641" xlink:href="#DejaVuSans-29"/>
   </g>
  </g>
  <g id="text_31">
   <!-- Read Distribution (Genes) -->
   <g transform="translate(129.6 190.8)scale(0.14 -0.14)">
    <use xlink:href="#DejaVuSans-52"/>
    <use x="69.419922" xlink:href="#DejaVuSans-65"/>
    <use x="130.943359" xlink:href="#DejaVuSans-61"/>
    <use x="192.222656" xlink:href="#DejaVuSans-64"/>
    <use x="255.699219" xlink:href="#DejaVuSans-20"/>
    <use x="287.486328" xlink:href="#DejaVuSans-44"/>
    <use x="364.488281" xlink:href="#DejaVuSans-69"/>
    <use x="392.271484" xlink:href="#DejaVuSans-73"/>
    <use x="444.371094" xlink:href="#DejaVuSans-74"/>
    <use x="483.580078" xlink:href="#DejaVuSans-72"/>
    <use x="524.693359" xlink:href="#DejaVuSans-69"/>
    <use x="552.476562" xlink:href="#DejaVuSans-62"/>
    <use x="615.953125" xlink:href="#DejaVuSans-75"/>
    <use x="679.332031" xlink:href="#DejaVuSans-74"/>
    <use x="718.541016" xlink:href="#DejaVuSans-69"/>
    <use x="746.324219" xlink:href="#DejaVuSans-6f"/>
    <use x="807.505859" xlink:href="#DejaVuSans-6e"/>
    <use x="870.884766" xlink:href="#DejaVuSans-20"/>
    <use x="902.671875" xlink:href="#DejaVuSans-28"/>
    <use x="941.685547" xlink:href="#DejaVuSans-47"/>
    <use x="1019.175781" xlink:href="#DejaVuSans-65"/>
    <use x="1080.699219" xlink:href="#DejaVuSans-6e"/>
    <use x="1144.078125" xlink:href="#DejaVuSans-65"/>
    <use x="1205.601562" xlink:href="#DejaVuSans-73"/>
    <use x="1257.701172" xlink:href="#DejaVuSans-29"/>
   </g>
  </g>
 </g>
 <defs>
  <clipPath id="p6628965208">
   <rect height="112.24" width="100.636667" x="55.55" y="29.76"/>
  </clipPath>
  <clipPath id="p0860018b81">
   <rect height="112.24" width="201.273333" x="217.406667" y="29.76"/>
  </clipPath>
  <clipPath id="p34000d0c49">
   <rect height="112.24" width="100.636667" x="55.55" y="204.36"/>
  </clipPath>
  <clipPath id="pd91661443e">
   <rect height="112.24" width="201.273333" x="217.406667" y="204.36"/>
  </clipPath>
 </defs>
</svg>
