<?xml version="1.0" encoding="utf-8" standalone="no"?>
<!DOCTYPE svg PUBLIC "-//W3C//DTD SVG 1.1//EN"
  "http://www.w3.org/Graphics/SVG/1.1/DTD/svg11.dtd">
<!-- Created with matplotlib (http://matplotlib.org/) -->
<svg height="360pt" version="1.1" viewBox="0 0 504 360" width="504pt" xmlns="http://www.w3.org/2000/svg" xmlns:xlink="http://www.w3.org/1999/xlink">
 <defs>
  <style type="text/css">
*{stroke-linecap:butt;stroke-linejoin:round;}
  </style>
 </defs>
 <g id="figure_1">
  <g id="patch_1">
   <path d="M 0 360 
L 504 360 
L 504 0 
L 0 0 
z
" style="fill:#ffffff;"/>
  </g>
  <g id="axes_1">
   <g id="patch_2">
    <path d="M 51.05 143.44 
L 173.277613 143.44 
L 173.277613 25.44 
L 51.05 25.44 
z
" style="fill:#ffffff;"/>
   </g>
   <g id="matplotlib.axis_1"/>
   <g id="matplotlib.axis_2">
    <g id="ytick_1">
     <g id="line2d_1">
      <defs>
       <path d="M 0 0 
L -3.5 0 
" id="m3f2d070e52" style="stroke:#000000;stroke-width:0.8;"/>
      </defs>
      <g>
       <use style="stroke:#000000;stroke-width:0.8;" x="51.05" xlink:href="#m3f2d070e52" y="138.076364"/>
      </g>
     </g>
     <g id="text_1">
      <!-- 0 -->
      <defs>
       <path d="M 31.78125 66.40625 
Q 24.171875 66.40625 20.328125 58.90625 
Q 16.5 51.421875 16.5 36.375 
Q 16.5 21.390625 20.328125 13.890625 
Q 24.171875 6.390625 31.78125 6.390625 
Q 39.453125 6.390625 43.28125 13.890625 
Q 47.125 21.390625 47.125 36.375 
Q 47.125 51.421875 43.28125 58.90625 
Q 39.453125 66.40625 31.78125 66.40625 
M 31.78125 74.21875 
Q 44.046875 74.21875 50.515625 64.515625 
Q 56.984375 54.828125 56.984375 36.375 
Q 56.984375 17.96875 50.515625 8.265625 
Q 44.046875 -1.421875 31.78125 -1.421875 
Q 19.53125 -1.421875 13.0625 8.265625 
Q 6.59375 17.96875 6.59375 36.375 
Q 6.59375 54.828125 13.0625 64.515625 
Q 19.53125 74.21875 31.78125 74.21875 
" id="DejaVuSans-30"/>
      </defs>
      <g transform="translate(37.6875 141.875582)scale(0.1 -0.1)">
       <use xlink:href="#DejaVuSans-30"/>
      </g>
     </g>
    </g>
    <g id="ytick_2">
     <g id="line2d_2">
      <g>
       <use style="stroke:#000000;stroke-width:0.8;" x="51.05" xlink:href="#m3f2d070e52" y="98.345724"/>
      </g>
     </g>
     <g id="text_2">
      <!-- 10 -->
      <defs>
       <path d="M 12.40625 8.296875 
L 28.515625 8.296875 
L 28.515625 63.921875 
L 10.984375 60.40625 
L 10.984375 69.390625 
L 28.421875 72.90625 
L 38.28125 72.90625 
L 38.28125 8.296875 
L 54.390625 8.296875 
L 54.390625 0 
L 12.40625 0 
z
" id="DejaVuSans-31"/>
      </defs>
      <g transform="translate(31.325 102.144943)scale(0.1 -0.1)">
       <use xlink:href="#DejaVuSans-31"/>
       <use x="63.623047" xlink:href="#DejaVuSans-30"/>
      </g>
     </g>
    </g>
    <g id="ytick_3">
     <g id="line2d_3">
      <g>
       <use style="stroke:#000000;stroke-width:0.8;" x="51.05" xlink:href="#m3f2d070e52" y="58.615084"/>
      </g>
     </g>
     <g id="text_3">
      <!-- 20 -->
      <defs>
       <path d="M 19.1875 8.296875 
L 53.609375 8.296875 
L 53.609375 0 
L 7.328125 0 
L 7.328125 8.296875 
Q 12.9375 14.109375 22.625 23.890625 
Q 32.328125 33.6875 34.8125 36.53125 
Q 39.546875 41.84375 41.421875 45.53125 
Q 43.3125 49.21875 43.3125 52.78125 
Q 43.3125 58.59375 39.234375 62.25 
Q 35.15625 65.921875 28.609375 65.921875 
Q 23.96875 65.921875 18.8125 64.3125 
Q 13.671875 62.703125 7.8125 59.421875 
L 7.8125 69.390625 
Q 13.765625 71.78125 18.9375 73 
Q 24.125 74.21875 28.421875 74.21875 
Q 39.75 74.21875 46.484375 68.546875 
Q 53.21875 62.890625 53.21875 53.421875 
Q 53.21875 48.921875 51.53125 44.890625 
Q 49.859375 40.875 45.40625 35.40625 
Q 44.1875 33.984375 37.640625 27.21875 
Q 31.109375 20.453125 19.1875 8.296875 
" id="DejaVuSans-32"/>
      </defs>
      <g transform="translate(31.325 62.414303)scale(0.1 -0.1)">
       <use xlink:href="#DejaVuSans-32"/>
       <use x="63.623047" xlink:href="#DejaVuSans-30"/>
      </g>
     </g>
    </g>
    <g id="text_4">
     <!-- counts [norm.] -->
     <defs>
      <path d="M 48.78125 52.59375 
L 48.78125 44.1875 
Q 44.96875 46.296875 41.140625 47.34375 
Q 37.3125 48.390625 33.40625 48.390625 
Q 24.65625 48.390625 19.8125 42.84375 
Q 14.984375 37.3125 14.984375 27.296875 
Q 14.984375 17.28125 19.8125 11.734375 
Q 24.65625 6.203125 33.40625 6.203125 
Q 37.3125 6.203125 41.140625 7.25 
Q 44.96875 8.296875 48.78125 10.40625 
L 48.78125 2.09375 
Q 45.015625 0.34375 40.984375 -0.53125 
Q 36.96875 -1.421875 32.421875 -1.421875 
Q 20.0625 -1.421875 12.78125 6.34375 
Q 5.515625 14.109375 5.515625 27.296875 
Q 5.515625 40.671875 12.859375 48.328125 
Q 20.21875 56 33.015625 56 
Q 37.15625 56 41.109375 55.140625 
Q 45.0625 54.296875 48.78125 52.59375 
" id="DejaVuSans-63"/>
      <path d="M 30.609375 48.390625 
Q 23.390625 48.390625 19.1875 42.75 
Q 14.984375 37.109375 14.984375 27.296875 
Q 14.984375 17.484375 19.15625 11.84375 
Q 23.34375 6.203125 30.609375 6.203125 
Q 37.796875 6.203125 41.984375 11.859375 
Q 46.1875 17.53125 46.1875 27.296875 
Q 46.1875 37.015625 41.984375 42.703125 
Q 37.796875 48.390625 30.609375 48.390625 
M 30.609375 56 
Q 42.328125 56 49.015625 48.375 
Q 55.71875 40.765625 55.71875 27.296875 
Q 55.71875 13.875 49.015625 6.21875 
Q 42.328125 -1.421875 30.609375 -1.421875 
Q 18.84375 -1.421875 12.171875 6.21875 
Q 5.515625 13.875 5.515625 27.296875 
Q 5.515625 40.765625 12.171875 48.375 
Q 18.84375 56 30.609375 56 
" id="DejaVuSans-6f"/>
      <path d="M 8.5 21.578125 
L 8.5 54.6875 
L 17.484375 54.6875 
L 17.484375 21.921875 
Q 17.484375 14.15625 20.5 10.265625 
Q 23.53125 6.390625 29.59375 6.390625 
Q 36.859375 6.390625 41.078125 11.03125 
Q 45.3125 15.671875 45.3125 23.6875 
L 45.3125 54.6875 
L 54.296875 54.6875 
L 54.296875 0 
L 45.3125 0 
L 45.3125 8.40625 
Q 42.046875 3.421875 37.71875 1 
Q 33.40625 -1.421875 27.6875 -1.421875 
Q 18.265625 -1.421875 13.375 4.4375 
Q 8.5 10.296875 8.5 21.578125 
M 31.109375 56 
z
" id="DejaVuSans-75"/>
      <path d="M 54.890625 33.015625 
L 54.890625 0 
L 45.90625 0 
L 45.90625 32.71875 
Q 45.90625 40.484375 42.875 44.328125 
Q 39.84375 48.1875 33.796875 48.1875 
Q 26.515625 48.1875 22.3125 43.546875 
Q 18.109375 38.921875 18.109375 30.90625 
L 18.109375 0 
L 9.078125 0 
L 9.078125 54.6875 
L 18.109375 54.6875 
L 18.109375 46.1875 
Q 21.34375 51.125 25.703125 53.5625 
Q 30.078125 56 35.796875 56 
Q 45.21875 56 50.046875 50.171875 
Q 54.890625 44.34375 54.890625 33.015625 
" id="DejaVuSans-6e"/>
      <path d="M 18.3125 70.21875 
L 18.3125 54.6875 
L 36.8125 54.6875 
L 36.8125 47.703125 
L 18.3125 47.703125 
L 18.3125 18.015625 
Q 18.3125 11.328125 20.140625 9.421875 
Q 21.96875 7.515625 27.59375 7.515625 
L 36.8125 7.515625 
L 36.8125 0 
L 27.59375 0 
Q 17.1875 0 13.234375 3.875 
Q 9.28125 7.765625 9.28125 18.015625 
L 9.28125 47.703125 
L 2.6875 47.703125 
L 2.6875 54.6875 
L 9.28125 54.6875 
L 9.28125 70.21875 
z
" id="DejaVuSans-74"/>
      <path d="M 44.28125 53.078125 
L 44.28125 44.578125 
Q 40.484375 46.53125 36.375 47.5 
Q 32.28125 48.484375 27.875 48.484375 
Q 21.1875 48.484375 17.84375 46.4375 
Q 14.5 44.390625 14.5 40.28125 
Q 14.5 37.15625 16.890625 35.375 
Q 19.28125 33.59375 26.515625 31.984375 
L 29.59375 31.296875 
Q 39.15625 29.25 43.1875 25.515625 
Q 47.21875 21.78125 47.21875 15.09375 
Q 47.21875 7.46875 41.1875 3.015625 
Q 35.15625 -1.421875 24.609375 -1.421875 
Q 20.21875 -1.421875 15.453125 -0.5625 
Q 10.6875 0.296875 5.421875 2 
L 5.421875 11.28125 
Q 10.40625 8.6875 15.234375 7.390625 
Q 20.0625 6.109375 24.8125 6.109375 
Q 31.15625 6.109375 34.5625 8.28125 
Q 37.984375 10.453125 37.984375 14.40625 
Q 37.984375 18.0625 35.515625 20.015625 
Q 33.0625 21.96875 24.703125 23.78125 
L 21.578125 24.515625 
Q 13.234375 26.265625 9.515625 29.90625 
Q 5.8125 33.546875 5.8125 39.890625 
Q 5.8125 47.609375 11.28125 51.796875 
Q 16.75 56 26.8125 56 
Q 31.78125 56 36.171875 55.265625 
Q 40.578125 54.546875 44.28125 53.078125 
" id="DejaVuSans-73"/>
      <path id="DejaVuSans-20"/>
      <path d="M 8.59375 75.984375 
L 29.296875 75.984375 
L 29.296875 69 
L 17.578125 69 
L 17.578125 -6.203125 
L 29.296875 -6.203125 
L 29.296875 -13.1875 
L 8.59375 -13.1875 
z
" id="DejaVuSans-5b"/>
      <path d="M 41.109375 46.296875 
Q 39.59375 47.171875 37.8125 47.578125 
Q 36.03125 48 33.890625 48 
Q 26.265625 48 22.1875 43.046875 
Q 18.109375 38.09375 18.109375 28.8125 
L 18.109375 0 
L 9.078125 0 
L 9.078125 54.6875 
L 18.109375 54.6875 
L 18.109375 46.1875 
Q 20.953125 51.171875 25.484375 53.578125 
Q 30.03125 56 36.53125 56 
Q 37.453125 56 38.578125 55.875 
Q 39.703125 55.765625 41.0625 55.515625 
z
" id="DejaVuSans-72"/>
      <path d="M 52 44.1875 
Q 55.375 50.25 60.0625 53.125 
Q 64.75 56 71.09375 56 
Q 79.640625 56 84.28125 50.015625 
Q 88.921875 44.046875 88.921875 33.015625 
L 88.921875 0 
L 79.890625 0 
L 79.890625 32.71875 
Q 79.890625 40.578125 77.09375 44.375 
Q 74.3125 48.1875 68.609375 48.1875 
Q 61.625 48.1875 57.5625 43.546875 
Q 53.515625 38.921875 53.515625 30.90625 
L 53.515625 0 
L 44.484375 0 
L 44.484375 32.71875 
Q 44.484375 40.625 41.703125 44.40625 
Q 38.921875 48.1875 33.109375 48.1875 
Q 26.21875 48.1875 22.15625 43.53125 
Q 18.109375 38.875 18.109375 30.90625 
L 18.109375 0 
L 9.078125 0 
L 9.078125 54.6875 
L 18.109375 54.6875 
L 18.109375 46.1875 
Q 21.1875 51.21875 25.484375 53.609375 
Q 29.78125 56 35.6875 56 
Q 41.65625 56 45.828125 52.96875 
Q 50 49.953125 52 44.1875 
" id="DejaVuSans-6d"/>
      <path d="M 10.6875 12.40625 
L 21 12.40625 
L 21 0 
L 10.6875 0 
z
" id="DejaVuSans-2e"/>
      <path d="M 30.421875 75.984375 
L 30.421875 -13.1875 
L 9.71875 -13.1875 
L 9.71875 -6.203125 
L 21.390625 -6.203125 
L 21.390625 69 
L 9.71875 69 
L 9.71875 75.984375 
z
" id="DejaVuSans-5d"/>
     </defs>
     <g transform="translate(25.245313 121.38375)rotate(-90)scale(0.1 -0.1)">
      <use xlink:href="#DejaVuSans-63"/>
      <use x="54.980469" xlink:href="#DejaVuSans-6f"/>
      <use x="116.162109" xlink:href="#DejaVuSans-75"/>
      <use x="179.541016" xlink:href="#DejaVuSans-6e"/>
      <use x="242.919922" xlink:href="#DejaVuSans-74"/>
      <use x="282.128906" xlink:href="#DejaVuSans-73"/>
      <use x="334.228516" xlink:href="#DejaVuSans-20"/>
      <use x="366.015625" xlink:href="#DejaVuSans-5b"/>
      <use x="405.029297" xlink:href="#DejaVuSans-6e"/>
      <use x="468.408203" xlink:href="#DejaVuSans-6f"/>
      <use x="529.589844" xlink:href="#DejaVuSans-72"/>
      <use x="570.6875" xlink:href="#DejaVuSans-6d"/>
      <use x="668.099609" xlink:href="#DejaVuSans-2e"/>
      <use x="699.886719" xlink:href="#DejaVuSans-5d"/>
     </g>
    </g>
   </g>
   <g id="line2d_4">
    <path clip-path="url(#p9c4b092507)" d="M 102.996736 138.076364 
L 121.330878 138.076364 
L 121.330878 94.37266 
L 102.996736 94.37266 
L 102.996736 138.076364 
" style="fill:none;stroke:#000000;stroke-linecap:square;"/>
   </g>
   <g id="line2d_5">
    <path clip-path="url(#p9c4b092507)" d="M 112.163807 138.076364 
L 112.163807 138.076364 
" style="fill:none;stroke:#000000;stroke-linecap:square;"/>
   </g>
   <g id="line2d_6">
    <path clip-path="url(#p9c4b092507)" d="M 112.163807 94.37266 
L 112.163807 30.803636 
" style="fill:none;stroke:#000000;stroke-linecap:square;"/>
   </g>
   <g id="line2d_7">
    <path clip-path="url(#p9c4b092507)" d="M 107.580271 138.076364 
L 116.747342 138.076364 
" style="fill:none;stroke:#000000;stroke-linecap:square;"/>
   </g>
   <g id="line2d_8">
    <path clip-path="url(#p9c4b092507)" d="M 107.580271 30.803636 
L 116.747342 30.803636 
" style="fill:none;stroke:#000000;stroke-linecap:square;"/>
   </g>
   <g id="line2d_9">
    <path clip-path="url(#p9c4b092507)" d="M 102.996736 130.130236 
L 121.330878 130.130236 
" style="fill:none;stroke:#ff7f0e;stroke-linecap:square;"/>
   </g>
   <g id="patch_3">
    <path d="M 51.05 143.44 
L 51.05 25.44 
" style="fill:none;stroke:#000000;stroke-linecap:square;stroke-linejoin:miter;stroke-width:0.8;"/>
   </g>
   <g id="patch_4">
    <path d="M 173.277613 143.44 
L 173.277613 25.44 
" style="fill:none;stroke:#000000;stroke-linecap:square;stroke-linejoin:miter;stroke-width:0.8;"/>
   </g>
   <g id="patch_5">
    <path d="M 51.05 143.44 
L 173.277613 143.44 
" style="fill:none;stroke:#000000;stroke-linecap:square;stroke-linejoin:miter;stroke-width:0.8;"/>
   </g>
   <g id="patch_6">
    <path d="M 51.05 25.44 
L 173.277613 25.44 
" style="fill:none;stroke:#000000;stroke-linecap:square;stroke-linejoin:miter;stroke-width:0.8;"/>
   </g>
   <g id="text_5">
    <!-- Reads per sgRNA -->
    <defs>
     <path d="M 44.390625 34.1875 
Q 47.5625 33.109375 50.5625 29.59375 
Q 53.5625 26.078125 56.59375 19.921875 
L 66.609375 0 
L 56 0 
L 46.6875 18.703125 
Q 43.0625 26.03125 39.671875 28.421875 
Q 36.28125 30.8125 30.421875 30.8125 
L 19.671875 30.8125 
L 19.671875 0 
L 9.8125 0 
L 9.8125 72.90625 
L 32.078125 72.90625 
Q 44.578125 72.90625 50.734375 67.671875 
Q 56.890625 62.453125 56.890625 51.90625 
Q 56.890625 45.015625 53.6875 40.46875 
Q 50.484375 35.9375 44.390625 34.1875 
M 19.671875 64.796875 
L 19.671875 38.921875 
L 32.078125 38.921875 
Q 39.203125 38.921875 42.84375 42.21875 
Q 46.484375 45.515625 46.484375 51.90625 
Q 46.484375 58.296875 42.84375 61.546875 
Q 39.203125 64.796875 32.078125 64.796875 
z
" id="DejaVuSans-52"/>
     <path d="M 56.203125 29.59375 
L 56.203125 25.203125 
L 14.890625 25.203125 
Q 15.484375 15.921875 20.484375 11.0625 
Q 25.484375 6.203125 34.421875 6.203125 
Q 39.59375 6.203125 44.453125 7.46875 
Q 49.3125 8.734375 54.109375 11.28125 
L 54.109375 2.78125 
Q 49.265625 0.734375 44.1875 -0.34375 
Q 39.109375 -1.421875 33.890625 -1.421875 
Q 20.796875 -1.421875 13.15625 6.1875 
Q 5.515625 13.8125 5.515625 26.8125 
Q 5.515625 40.234375 12.765625 48.109375 
Q 20.015625 56 32.328125 56 
Q 43.359375 56 49.78125 48.890625 
Q 56.203125 41.796875 56.203125 29.59375 
M 47.21875 32.234375 
Q 47.125 39.59375 43.09375 43.984375 
Q 39.0625 48.390625 32.421875 48.390625 
Q 24.90625 48.390625 20.390625 44.140625 
Q 15.875 39.890625 15.1875 32.171875 
z
" id="DejaVuSans-65"/>
     <path d="M 34.28125 27.484375 
Q 23.390625 27.484375 19.1875 25 
Q 14.984375 22.515625 14.984375 16.5 
Q 14.984375 11.71875 18.140625 8.90625 
Q 21.296875 6.109375 26.703125 6.109375 
Q 34.1875 6.109375 38.703125 11.40625 
Q 43.21875 16.703125 43.21875 25.484375 
L 43.21875 27.484375 
z
M 52.203125 31.203125 
L 52.203125 0 
L 43.21875 0 
L 43.21875 8.296875 
Q 40.140625 3.328125 35.546875 0.953125 
Q 30.953125 -1.421875 24.3125 -1.421875 
Q 15.921875 -1.421875 10.953125 3.296875 
Q 6 8.015625 6 15.921875 
Q 6 25.140625 12.171875 29.828125 
Q 18.359375 34.515625 30.609375 34.515625 
L 43.21875 34.515625 
L 43.21875 35.40625 
Q 43.21875 41.609375 39.140625 45 
Q 35.0625 48.390625 27.6875 48.390625 
Q 23 48.390625 18.546875 47.265625 
Q 14.109375 46.140625 10.015625 43.890625 
L 10.015625 52.203125 
Q 14.9375 54.109375 19.578125 55.046875 
Q 24.21875 56 28.609375 56 
Q 40.484375 56 46.34375 49.84375 
Q 52.203125 43.703125 52.203125 31.203125 
" id="DejaVuSans-61"/>
     <path d="M 45.40625 46.390625 
L 45.40625 75.984375 
L 54.390625 75.984375 
L 54.390625 0 
L 45.40625 0 
L 45.40625 8.203125 
Q 42.578125 3.328125 38.25 0.953125 
Q 33.9375 -1.421875 27.875 -1.421875 
Q 17.96875 -1.421875 11.734375 6.484375 
Q 5.515625 14.40625 5.515625 27.296875 
Q 5.515625 40.1875 11.734375 48.09375 
Q 17.96875 56 27.875 56 
Q 33.9375 56 38.25 53.625 
Q 42.578125 51.265625 45.40625 46.390625 
M 14.796875 27.296875 
Q 14.796875 17.390625 18.875 11.75 
Q 22.953125 6.109375 30.078125 6.109375 
Q 37.203125 6.109375 41.296875 11.75 
Q 45.40625 17.390625 45.40625 27.296875 
Q 45.40625 37.203125 41.296875 42.84375 
Q 37.203125 48.484375 30.078125 48.484375 
Q 22.953125 48.484375 18.875 42.84375 
Q 14.796875 37.203125 14.796875 27.296875 
" id="DejaVuSans-64"/>
     <path d="M 18.109375 8.203125 
L 18.109375 -20.796875 
L 9.078125 -20.796875 
L 9.078125 54.6875 
L 18.109375 54.6875 
L 18.109375 46.390625 
Q 20.953125 51.265625 25.265625 53.625 
Q 29.59375 56 35.59375 56 
Q 45.5625 56 51.78125 48.09375 
Q 58.015625 40.1875 58.015625 27.296875 
Q 58.015625 14.40625 51.78125 6.484375 
Q 45.5625 -1.421875 35.59375 -1.421875 
Q 29.59375 -1.421875 25.265625 0.953125 
Q 20.953125 3.328125 18.109375 8.203125 
M 48.6875 27.296875 
Q 48.6875 37.203125 44.609375 42.84375 
Q 40.53125 48.484375 33.40625 48.484375 
Q 26.265625 48.484375 22.1875 42.84375 
Q 18.109375 37.203125 18.109375 27.296875 
Q 18.109375 17.390625 22.1875 11.75 
Q 26.265625 6.109375 33.40625 6.109375 
Q 40.53125 6.109375 44.609375 11.75 
Q 48.6875 17.390625 48.6875 27.296875 
" id="DejaVuSans-70"/>
     <path d="M 45.40625 27.984375 
Q 45.40625 37.75 41.375 43.109375 
Q 37.359375 48.484375 30.078125 48.484375 
Q 22.859375 48.484375 18.828125 43.109375 
Q 14.796875 37.75 14.796875 27.984375 
Q 14.796875 18.265625 18.828125 12.890625 
Q 22.859375 7.515625 30.078125 7.515625 
Q 37.359375 7.515625 41.375 12.890625 
Q 45.40625 18.265625 45.40625 27.984375 
M 54.390625 6.78125 
Q 54.390625 -7.171875 48.1875 -13.984375 
Q 42 -20.796875 29.203125 -20.796875 
Q 24.46875 -20.796875 20.265625 -20.09375 
Q 16.0625 -19.390625 12.109375 -17.921875 
L 12.109375 -9.1875 
Q 16.0625 -11.328125 19.921875 -12.34375 
Q 23.78125 -13.375 27.78125 -13.375 
Q 36.625 -13.375 41.015625 -8.765625 
Q 45.40625 -4.15625 45.40625 5.171875 
L 45.40625 9.625 
Q 42.625 4.78125 38.28125 2.390625 
Q 33.9375 0 27.875 0 
Q 17.828125 0 11.671875 7.65625 
Q 5.515625 15.328125 5.515625 27.984375 
Q 5.515625 40.671875 11.671875 48.328125 
Q 17.828125 56 27.875 56 
Q 33.9375 56 38.28125 53.609375 
Q 42.625 51.21875 45.40625 46.390625 
L 45.40625 54.6875 
L 54.390625 54.6875 
z
" id="DejaVuSans-67"/>
     <path d="M 9.8125 72.90625 
L 23.09375 72.90625 
L 55.421875 11.921875 
L 55.421875 72.90625 
L 64.984375 72.90625 
L 64.984375 0 
L 51.703125 0 
L 19.390625 60.984375 
L 19.390625 0 
L 9.8125 0 
z
" id="DejaVuSans-4e"/>
     <path d="M 34.1875 63.1875 
L 20.796875 26.90625 
L 47.609375 26.90625 
z
M 28.609375 72.90625 
L 39.796875 72.90625 
L 67.578125 0 
L 57.328125 0 
L 50.6875 18.703125 
L 17.828125 18.703125 
L 11.1875 0 
L 0.78125 0 
z
" id="DejaVuSans-41"/>
    </defs>
    <g transform="translate(60.216932 19.44)scale(0.12 -0.12)">
     <use xlink:href="#DejaVuSans-52"/>
     <use x="69.419922" xlink:href="#DejaVuSans-65"/>
     <use x="130.943359" xlink:href="#DejaVuSans-61"/>
     <use x="192.222656" xlink:href="#DejaVuSans-64"/>
     <use x="255.699219" xlink:href="#DejaVuSans-73"/>
     <use x="307.798828" xlink:href="#DejaVuSans-20"/>
     <use x="339.585938" xlink:href="#DejaVuSans-70"/>
     <use x="403.0625" xlink:href="#DejaVuSans-65"/>
     <use x="464.585938" xlink:href="#DejaVuSans-72"/>
     <use x="505.699219" xlink:href="#DejaVuSans-20"/>
     <use x="537.486328" xlink:href="#DejaVuSans-73"/>
     <use x="589.585938" xlink:href="#DejaVuSans-67"/>
     <use x="653.0625" xlink:href="#DejaVuSans-52"/>
     <use x="722.544922" xlink:href="#DejaVuSans-4e"/>
     <use x="797.349609" xlink:href="#DejaVuSans-41"/>
    </g>
   </g>
  </g>
  <g id="axes_2">
   <g id="patch_7">
    <path d="M 239.627613 143.44 
L 484.08284 143.44 
L 484.08284 25.44 
L 239.627613 25.44 
z
" style="fill:#ffffff;"/>
   </g>
   <g id="patch_8">
    <path clip-path="url(#pc16d7ac8f8)" d="M 250.739215 143.44 
L 257.088701 143.44 
L 257.088701 31.059048 
L 250.739215 31.059048 
z
" style="fill:#1f77b4;"/>
   </g>
   <g id="patch_9">
    <path clip-path="url(#pc16d7ac8f8)" d="M 257.088701 143.44 
L 263.438188 143.44 
L 263.438188 143.44 
L 257.088701 143.44 
z
" style="fill:#1f77b4;"/>
   </g>
   <g id="patch_10">
    <path clip-path="url(#pc16d7ac8f8)" d="M 263.438188 143.44 
L 269.787674 143.44 
L 269.787674 107.477135 
L 263.438188 107.477135 
z
" style="fill:#1f77b4;"/>
   </g>
   <g id="patch_11">
    <path clip-path="url(#pc16d7ac8f8)" d="M 269.787674 143.44 
L 276.13716 143.44 
L 276.13716 143.44 
L 269.787674 143.44 
z
" style="fill:#1f77b4;"/>
   </g>
   <g id="patch_12">
    <path clip-path="url(#pc16d7ac8f8)" d="M 276.13716 143.44 
L 282.486647 143.44 
L 282.486647 143.44 
L 276.13716 143.44 
z
" style="fill:#1f77b4;"/>
   </g>
   <g id="patch_13">
    <path clip-path="url(#pc16d7ac8f8)" d="M 282.486647 143.44 
L 288.836133 143.44 
L 288.836133 120.930193 
L 282.486647 120.930193 
z
" style="fill:#1f77b4;"/>
   </g>
   <g id="patch_14">
    <path clip-path="url(#pc16d7ac8f8)" d="M 288.836133 143.44 
L 295.18562 143.44 
L 295.18562 143.44 
L 288.836133 143.44 
z
" style="fill:#1f77b4;"/>
   </g>
   <g id="patch_15">
    <path clip-path="url(#pc16d7ac8f8)" d="M 295.18562 143.44 
L 301.535106 143.44 
L 301.535106 126.001012 
L 295.18562 126.001012 
z
" style="fill:#1f77b4;"/>
   </g>
   <g id="patch_16">
    <path clip-path="url(#pc16d7ac8f8)" d="M 301.535106 143.44 
L 307.884592 143.44 
L 307.884592 143.44 
L 301.535106 143.44 
z
" style="fill:#1f77b4;"/>
   </g>
   <g id="patch_17">
    <path clip-path="url(#pc16d7ac8f8)" d="M 307.884592 143.44 
L 314.234079 143.44 
L 314.234079 129.801397 
L 307.884592 129.801397 
z
" style="fill:#1f77b4;"/>
   </g>
   <g id="patch_18">
    <path clip-path="url(#pc16d7ac8f8)" d="M 314.234079 143.44 
L 320.583565 143.44 
L 320.583565 143.44 
L 314.234079 143.44 
z
" style="fill:#1f77b4;"/>
   </g>
   <g id="patch_19">
    <path clip-path="url(#pc16d7ac8f8)" d="M 320.583565 143.44 
L 326.933052 143.44 
L 326.933052 132.674061 
L 320.583565 132.674061 
z
" style="fill:#1f77b4;"/>
   </g>
   <g id="patch_20">
    <path clip-path="url(#pc16d7ac8f8)" d="M 326.933052 143.44 
L 333.282538 143.44 
L 333.282538 143.44 
L 326.933052 143.44 
z
" style="fill:#1f77b4;"/>
   </g>
   <g id="patch_21">
    <path clip-path="url(#pc16d7ac8f8)" d="M 333.282538 143.44 
L 339.632025 143.44 
L 339.632025 143.44 
L 333.282538 143.44 
z
" style="fill:#1f77b4;"/>
   </g>
   <g id="patch_22">
    <path clip-path="url(#pc16d7ac8f8)" d="M 339.632025 143.44 
L 345.981511 143.44 
L 345.981511 134.784901 
L 339.632025 134.784901 
z
" style="fill:#1f77b4;"/>
   </g>
   <g id="patch_23">
    <path clip-path="url(#pc16d7ac8f8)" d="M 345.981511 143.44 
L 352.330997 143.44 
L 352.330997 143.44 
L 345.981511 143.44 
z
" style="fill:#1f77b4;"/>
   </g>
   <g id="patch_24">
    <path clip-path="url(#pc16d7ac8f8)" d="M 352.330997 143.44 
L 358.680484 143.44 
L 358.680484 136.061883 
L 352.330997 136.061883 
z
" style="fill:#1f77b4;"/>
   </g>
   <g id="patch_25">
    <path clip-path="url(#pc16d7ac8f8)" d="M 358.680484 143.44 
L 365.02997 143.44 
L 365.02997 143.44 
L 358.680484 143.44 
z
" style="fill:#1f77b4;"/>
   </g>
   <g id="patch_26">
    <path clip-path="url(#pc16d7ac8f8)" d="M 365.02997 143.44 
L 371.379457 143.44 
L 371.379457 137.718685 
L 365.02997 137.718685 
z
" style="fill:#1f77b4;"/>
   </g>
   <g id="patch_27">
    <path clip-path="url(#pc16d7ac8f8)" d="M 371.379457 143.44 
L 377.728943 143.44 
L 377.728943 143.44 
L 371.379457 143.44 
z
" style="fill:#1f77b4;"/>
   </g>
   <g id="patch_28">
    <path clip-path="url(#pc16d7ac8f8)" d="M 377.728943 143.44 
L 384.078429 143.44 
L 384.078429 143.44 
L 377.728943 143.44 
z
" style="fill:#1f77b4;"/>
   </g>
   <g id="patch_29">
    <path clip-path="url(#pc16d7ac8f8)" d="M 384.078429 143.44 
L 390.427916 143.44 
L 390.427916 138.347353 
L 384.078429 138.347353 
z
" style="fill:#1f77b4;"/>
   </g>
   <g id="patch_30">
    <path clip-path="url(#pc16d7ac8f8)" d="M 390.427916 143.44 
L 396.777402 143.44 
L 396.777402 143.44 
L 390.427916 143.44 
z
" style="fill:#1f77b4;"/>
   </g>
   <g id="patch_31">
    <path clip-path="url(#pc16d7ac8f8)" d="M 396.777402 143.44 
L 403.126889 143.44 
L 403.126889 139.220503 
L 396.777402 139.220503 
z
" style="fill:#1f77b4;"/>
   </g>
   <g id="patch_32">
    <path clip-path="url(#pc16d7ac8f8)" d="M 403.126889 143.44 
L 409.476375 143.44 
L 409.476375 143.44 
L 403.126889 143.44 
z
" style="fill:#1f77b4;"/>
   </g>
   <g id="patch_33">
    <path clip-path="url(#pc16d7ac8f8)" d="M 409.476375 143.44 
L 415.825861 143.44 
L 415.825861 140.163505 
L 409.476375 140.163505 
z
" style="fill:#1f77b4;"/>
   </g>
   <g id="patch_34">
    <path clip-path="url(#pc16d7ac8f8)" d="M 415.825861 143.44 
L 422.175348 143.44 
L 422.175348 143.44 
L 415.825861 143.44 
z
" style="fill:#1f77b4;"/>
   </g>
   <g id="patch_35">
    <path clip-path="url(#pc16d7ac8f8)" d="M 422.175348 143.44 
L 428.524834 143.44 
L 428.524834 140.514948 
L 422.175348 140.514948 
z
" style="fill:#1f77b4;"/>
   </g>
   <g id="patch_36">
    <path clip-path="url(#pc16d7ac8f8)" d="M 428.524834 143.44 
L 434.874321 143.44 
L 434.874321 143.44 
L 428.524834 143.44 
z
" style="fill:#1f77b4;"/>
   </g>
   <g id="patch_37">
    <path clip-path="url(#pc16d7ac8f8)" d="M 434.874321 143.44 
L 441.223807 143.44 
L 441.223807 143.44 
L 434.874321 143.44 
z
" style="fill:#1f77b4;"/>
   </g>
   <g id="patch_38">
    <path clip-path="url(#pc16d7ac8f8)" d="M 441.223807 143.44 
L 447.573294 143.44 
L 447.573294 140.798721 
L 441.223807 140.798721 
z
" style="fill:#1f77b4;"/>
   </g>
   <g id="patch_39">
    <path clip-path="url(#pc16d7ac8f8)" d="M 447.573294 143.44 
L 453.92278 143.44 
L 453.92278 143.44 
L 447.573294 143.44 
z
" style="fill:#1f77b4;"/>
   </g>
   <g id="patch_40">
    <path clip-path="url(#pc16d7ac8f8)" d="M 453.92278 143.44 
L 460.272266 143.44 
L 460.272266 141.311697 
L 453.92278 141.311697 
z
" style="fill:#1f77b4;"/>
   </g>
   <g id="patch_41">
    <path clip-path="url(#pc16d7ac8f8)" d="M 460.272266 143.44 
L 466.621753 143.44 
L 466.621753 143.44 
L 460.272266 143.44 
z
" style="fill:#1f77b4;"/>
   </g>
   <g id="patch_42">
    <path clip-path="url(#pc16d7ac8f8)" d="M 466.621753 143.44 
L 472.971239 143.44 
L 472.971239 141.521253 
L 466.621753 141.521253 
z
" style="fill:#1f77b4;"/>
   </g>
   <g id="matplotlib.axis_3">
    <g id="xtick_1">
     <g id="line2d_10">
      <defs>
       <path d="M 0 0 
L 0 3.5 
" id="mc52ac787e5" style="stroke:#000000;stroke-width:0.8;"/>
      </defs>
      <g>
       <use style="stroke:#000000;stroke-width:0.8;" x="253.913958" xlink:href="#mc52ac787e5" y="143.44"/>
      </g>
     </g>
     <g id="text_6">
      <!-- 0 -->
      <g transform="translate(250.732708 158.038438)scale(0.1 -0.1)">
       <use xlink:href="#DejaVuSans-30"/>
      </g>
     </g>
    </g>
    <g id="xtick_2">
     <g id="line2d_11">
      <g>
       <use style="stroke:#000000;stroke-width:0.8;" x="285.66139" xlink:href="#mc52ac787e5" y="143.44"/>
      </g>
     </g>
     <g id="text_7">
      <!-- 5 -->
      <defs>
       <path d="M 10.796875 72.90625 
L 49.515625 72.90625 
L 49.515625 64.59375 
L 19.828125 64.59375 
L 19.828125 46.734375 
Q 21.96875 47.46875 24.109375 47.828125 
Q 26.265625 48.1875 28.421875 48.1875 
Q 40.625 48.1875 47.75 41.5 
Q 54.890625 34.8125 54.890625 23.390625 
Q 54.890625 11.625 47.5625 5.09375 
Q 40.234375 -1.421875 26.90625 -1.421875 
Q 22.3125 -1.421875 17.546875 -0.640625 
Q 12.796875 0.140625 7.71875 1.703125 
L 7.71875 11.625 
Q 12.109375 9.234375 16.796875 8.0625 
Q 21.484375 6.890625 26.703125 6.890625 
Q 35.15625 6.890625 40.078125 11.328125 
Q 45.015625 15.765625 45.015625 23.390625 
Q 45.015625 31 40.078125 35.4375 
Q 35.15625 39.890625 26.703125 39.890625 
Q 22.75 39.890625 18.8125 39.015625 
Q 14.890625 38.140625 10.796875 36.28125 
z
" id="DejaVuSans-35"/>
      </defs>
      <g transform="translate(282.48014 158.038438)scale(0.1 -0.1)">
       <use xlink:href="#DejaVuSans-35"/>
      </g>
     </g>
    </g>
    <g id="xtick_3">
     <g id="line2d_12">
      <g>
       <use style="stroke:#000000;stroke-width:0.8;" x="317.408822" xlink:href="#mc52ac787e5" y="143.44"/>
      </g>
     </g>
     <g id="text_8">
      <!-- 10 -->
      <g transform="translate(311.046322 158.038438)scale(0.1 -0.1)">
       <use xlink:href="#DejaVuSans-31"/>
       <use x="63.623047" xlink:href="#DejaVuSans-30"/>
      </g>
     </g>
    </g>
    <g id="xtick_4">
     <g id="line2d_13">
      <g>
       <use style="stroke:#000000;stroke-width:0.8;" x="349.156254" xlink:href="#mc52ac787e5" y="143.44"/>
      </g>
     </g>
     <g id="text_9">
      <!-- 15 -->
      <g transform="translate(342.793754 158.038438)scale(0.1 -0.1)">
       <use xlink:href="#DejaVuSans-31"/>
       <use x="63.623047" xlink:href="#DejaVuSans-35"/>
      </g>
     </g>
    </g>
    <g id="xtick_5">
     <g id="line2d_14">
      <g>
       <use style="stroke:#000000;stroke-width:0.8;" x="380.903686" xlink:href="#mc52ac787e5" y="143.44"/>
      </g>
     </g>
     <g id="text_10">
      <!-- 20 -->
      <g transform="translate(374.541186 158.038438)scale(0.1 -0.1)">
       <use xlink:href="#DejaVuSans-32"/>
       <use x="63.623047" xlink:href="#DejaVuSans-30"/>
      </g>
     </g>
    </g>
    <g id="xtick_6">
     <g id="line2d_15">
      <g>
       <use style="stroke:#000000;stroke-width:0.8;" x="412.651118" xlink:href="#mc52ac787e5" y="143.44"/>
      </g>
     </g>
     <g id="text_11">
      <!-- 25 -->
      <g transform="translate(406.288618 158.038438)scale(0.1 -0.1)">
       <use xlink:href="#DejaVuSans-32"/>
       <use x="63.623047" xlink:href="#DejaVuSans-35"/>
      </g>
     </g>
    </g>
    <g id="xtick_7">
     <g id="line2d_16">
      <g>
       <use style="stroke:#000000;stroke-width:0.8;" x="444.39855" xlink:href="#mc52ac787e5" y="143.44"/>
      </g>
     </g>
     <g id="text_12">
      <!-- 30 -->
      <defs>
       <path d="M 40.578125 39.3125 
Q 47.65625 37.796875 51.625 33 
Q 55.609375 28.21875 55.609375 21.1875 
Q 55.609375 10.40625 48.1875 4.484375 
Q 40.765625 -1.421875 27.09375 -1.421875 
Q 22.515625 -1.421875 17.65625 -0.515625 
Q 12.796875 0.390625 7.625 2.203125 
L 7.625 11.71875 
Q 11.71875 9.328125 16.59375 8.109375 
Q 21.484375 6.890625 26.8125 6.890625 
Q 36.078125 6.890625 40.9375 10.546875 
Q 45.796875 14.203125 45.796875 21.1875 
Q 45.796875 27.640625 41.28125 31.265625 
Q 36.765625 34.90625 28.71875 34.90625 
L 20.21875 34.90625 
L 20.21875 43.015625 
L 29.109375 43.015625 
Q 36.375 43.015625 40.234375 45.921875 
Q 44.09375 48.828125 44.09375 54.296875 
Q 44.09375 59.90625 40.109375 62.90625 
Q 36.140625 65.921875 28.71875 65.921875 
Q 24.65625 65.921875 20.015625 65.03125 
Q 15.375 64.15625 9.8125 62.3125 
L 9.8125 71.09375 
Q 15.4375 72.65625 20.34375 73.4375 
Q 25.25 74.21875 29.59375 74.21875 
Q 40.828125 74.21875 47.359375 69.109375 
Q 53.90625 64.015625 53.90625 55.328125 
Q 53.90625 49.265625 50.4375 45.09375 
Q 46.96875 40.921875 40.578125 39.3125 
" id="DejaVuSans-33"/>
      </defs>
      <g transform="translate(438.03605 158.038438)scale(0.1 -0.1)">
       <use xlink:href="#DejaVuSans-33"/>
       <use x="63.623047" xlink:href="#DejaVuSans-30"/>
      </g>
     </g>
    </g>
    <g id="xtick_8">
     <g id="line2d_17">
      <g>
       <use style="stroke:#000000;stroke-width:0.8;" x="476.145982" xlink:href="#mc52ac787e5" y="143.44"/>
      </g>
     </g>
     <g id="text_13">
      <!-- 35 -->
      <g transform="translate(469.783482 158.038438)scale(0.1 -0.1)">
       <use xlink:href="#DejaVuSans-33"/>
       <use x="63.623047" xlink:href="#DejaVuSans-35"/>
      </g>
     </g>
    </g>
    <g id="text_14">
     <!-- counts [norm.] per sgRNA -->
     <g transform="translate(297.013039 171.716563)scale(0.1 -0.1)">
      <use xlink:href="#DejaVuSans-63"/>
      <use x="54.980469" xlink:href="#DejaVuSans-6f"/>
      <use x="116.162109" xlink:href="#DejaVuSans-75"/>
      <use x="179.541016" xlink:href="#DejaVuSans-6e"/>
      <use x="242.919922" xlink:href="#DejaVuSans-74"/>
      <use x="282.128906" xlink:href="#DejaVuSans-73"/>
      <use x="334.228516" xlink:href="#DejaVuSans-20"/>
      <use x="366.015625" xlink:href="#DejaVuSans-5b"/>
      <use x="405.029297" xlink:href="#DejaVuSans-6e"/>
      <use x="468.408203" xlink:href="#DejaVuSans-6f"/>
      <use x="529.589844" xlink:href="#DejaVuSans-72"/>
      <use x="570.6875" xlink:href="#DejaVuSans-6d"/>
      <use x="668.099609" xlink:href="#DejaVuSans-2e"/>
      <use x="699.886719" xlink:href="#DejaVuSans-5d"/>
      <use x="738.900391" xlink:href="#DejaVuSans-20"/>
      <use x="770.6875" xlink:href="#DejaVuSans-70"/>
      <use x="834.164062" xlink:href="#DejaVuSans-65"/>
      <use x="895.6875" xlink:href="#DejaVuSans-72"/>
      <use x="936.800781" xlink:href="#DejaVuSans-20"/>
      <use x="968.587891" xlink:href="#DejaVuSans-73"/>
      <use x="1020.6875" xlink:href="#DejaVuSans-67"/>
      <use x="1084.164062" xlink:href="#DejaVuSans-52"/>
      <use x="1153.646484" xlink:href="#DejaVuSans-4e"/>
      <use x="1228.451172" xlink:href="#DejaVuSans-41"/>
     </g>
    </g>
   </g>
   <g id="matplotlib.axis_4">
    <g id="ytick_4">
     <g id="line2d_18">
      <g>
       <use style="stroke:#000000;stroke-width:0.8;" x="239.627613" xlink:href="#m3f2d070e52" y="143.44"/>
      </g>
     </g>
     <g id="text_15">
      <!-- 0 -->
      <g transform="translate(226.265113 147.239219)scale(0.1 -0.1)">
       <use xlink:href="#DejaVuSans-30"/>
      </g>
     </g>
    </g>
    <g id="ytick_5">
     <g id="line2d_19">
      <g>
       <use style="stroke:#000000;stroke-width:0.8;" x="239.627613" xlink:href="#m3f2d070e52" y="99.7825"/>
      </g>
     </g>
     <g id="text_16">
      <!-- 20000 -->
      <g transform="translate(200.815113 103.581719)scale(0.1 -0.1)">
       <use xlink:href="#DejaVuSans-32"/>
       <use x="63.623047" xlink:href="#DejaVuSans-30"/>
       <use x="127.246094" xlink:href="#DejaVuSans-30"/>
       <use x="190.869141" xlink:href="#DejaVuSans-30"/>
       <use x="254.492188" xlink:href="#DejaVuSans-30"/>
      </g>
     </g>
    </g>
    <g id="ytick_6">
     <g id="line2d_20">
      <g>
       <use style="stroke:#000000;stroke-width:0.8;" x="239.627613" xlink:href="#m3f2d070e52" y="56.125001"/>
      </g>
     </g>
     <g id="text_17">
      <!-- 40000 -->
      <defs>
       <path d="M 37.796875 64.3125 
L 12.890625 25.390625 
L 37.796875 25.390625 
z
M 35.203125 72.90625 
L 47.609375 72.90625 
L 47.609375 25.390625 
L 58.015625 25.390625 
L 58.015625 17.1875 
L 47.609375 17.1875 
L 47.609375 0 
L 37.796875 0 
L 37.796875 17.1875 
L 4.890625 17.1875 
L 4.890625 26.703125 
z
" id="DejaVuSans-34"/>
      </defs>
      <g transform="translate(200.815113 59.92422)scale(0.1 -0.1)">
       <use xlink:href="#DejaVuSans-34"/>
       <use x="63.623047" xlink:href="#DejaVuSans-30"/>
       <use x="127.246094" xlink:href="#DejaVuSans-30"/>
       <use x="190.869141" xlink:href="#DejaVuSans-30"/>
       <use x="254.492188" xlink:href="#DejaVuSans-30"/>
      </g>
     </g>
    </g>
    <g id="text_18">
     <!-- Number of sgRNAs -->
     <defs>
      <path d="M 48.6875 27.296875 
Q 48.6875 37.203125 44.609375 42.84375 
Q 40.53125 48.484375 33.40625 48.484375 
Q 26.265625 48.484375 22.1875 42.84375 
Q 18.109375 37.203125 18.109375 27.296875 
Q 18.109375 17.390625 22.1875 11.75 
Q 26.265625 6.109375 33.40625 6.109375 
Q 40.53125 6.109375 44.609375 11.75 
Q 48.6875 17.390625 48.6875 27.296875 
M 18.109375 46.390625 
Q 20.953125 51.265625 25.265625 53.625 
Q 29.59375 56 35.59375 56 
Q 45.5625 56 51.78125 48.09375 
Q 58.015625 40.1875 58.015625 27.296875 
Q 58.015625 14.40625 51.78125 6.484375 
Q 45.5625 -1.421875 35.59375 -1.421875 
Q 29.59375 -1.421875 25.265625 0.953125 
Q 20.953125 3.328125 18.109375 8.203125 
L 18.109375 0 
L 9.078125 0 
L 9.078125 75.984375 
L 18.109375 75.984375 
z
" id="DejaVuSans-62"/>
      <path d="M 37.109375 75.984375 
L 37.109375 68.5 
L 28.515625 68.5 
Q 23.6875 68.5 21.796875 66.546875 
Q 19.921875 64.59375 19.921875 59.515625 
L 19.921875 54.6875 
L 34.71875 54.6875 
L 34.71875 47.703125 
L 19.921875 47.703125 
L 19.921875 0 
L 10.890625 0 
L 10.890625 47.703125 
L 2.296875 47.703125 
L 2.296875 54.6875 
L 10.890625 54.6875 
L 10.890625 58.5 
Q 10.890625 67.625 15.140625 71.796875 
Q 19.390625 75.984375 28.609375 75.984375 
z
" id="DejaVuSans-66"/>
     </defs>
     <g transform="translate(194.735426 131.542344)rotate(-90)scale(0.1 -0.1)">
      <use xlink:href="#DejaVuSans-4e"/>
      <use x="74.804688" xlink:href="#DejaVuSans-75"/>
      <use x="138.183594" xlink:href="#DejaVuSans-6d"/>
      <use x="235.595703" xlink:href="#DejaVuSans-62"/>
      <use x="299.072266" xlink:href="#DejaVuSans-65"/>
      <use x="360.595703" xlink:href="#DejaVuSans-72"/>
      <use x="401.708984" xlink:href="#DejaVuSans-20"/>
      <use x="433.496094" xlink:href="#DejaVuSans-6f"/>
      <use x="494.677734" xlink:href="#DejaVuSans-66"/>
      <use x="529.882812" xlink:href="#DejaVuSans-20"/>
      <use x="561.669922" xlink:href="#DejaVuSans-73"/>
      <use x="613.769531" xlink:href="#DejaVuSans-67"/>
      <use x="677.246094" xlink:href="#DejaVuSans-52"/>
      <use x="746.728516" xlink:href="#DejaVuSans-4e"/>
      <use x="821.533203" xlink:href="#DejaVuSans-41"/>
      <use x="889.941406" xlink:href="#DejaVuSans-73"/>
     </g>
    </g>
   </g>
   <g id="patch_43">
    <path d="M 239.627613 143.44 
L 239.627613 25.44 
" style="fill:none;stroke:#000000;stroke-linecap:square;stroke-linejoin:miter;stroke-width:0.8;"/>
   </g>
   <g id="patch_44">
    <path d="M 484.08284 143.44 
L 484.08284 25.44 
" style="fill:none;stroke:#000000;stroke-linecap:square;stroke-linejoin:miter;stroke-width:0.8;"/>
   </g>
   <g id="patch_45">
    <path d="M 239.627613 143.44 
L 484.08284 143.44 
" style="fill:none;stroke:#000000;stroke-linecap:square;stroke-linejoin:miter;stroke-width:0.8;"/>
   </g>
   <g id="patch_46">
    <path d="M 239.627613 25.44 
L 484.08284 25.44 
" style="fill:none;stroke:#000000;stroke-linecap:square;stroke-linejoin:miter;stroke-width:0.8;"/>
   </g>
   <g id="text_19">
    <!-- Control_2 Read Distribution -->
    <defs>
     <path d="M 64.40625 67.28125 
L 64.40625 56.890625 
Q 59.421875 61.53125 53.78125 63.8125 
Q 48.140625 66.109375 41.796875 66.109375 
Q 29.296875 66.109375 22.65625 58.46875 
Q 16.015625 50.828125 16.015625 36.375 
Q 16.015625 21.96875 22.65625 14.328125 
Q 29.296875 6.6875 41.796875 6.6875 
Q 48.140625 6.6875 53.78125 8.984375 
Q 59.421875 11.28125 64.40625 15.921875 
L 64.40625 5.609375 
Q 59.234375 2.09375 53.4375 0.328125 
Q 47.65625 -1.421875 41.21875 -1.421875 
Q 24.65625 -1.421875 15.125 8.703125 
Q 5.609375 18.84375 5.609375 36.375 
Q 5.609375 53.953125 15.125 64.078125 
Q 24.65625 74.21875 41.21875 74.21875 
Q 47.75 74.21875 53.53125 72.484375 
Q 59.328125 70.75 64.40625 67.28125 
" id="DejaVuSans-43"/>
     <path d="M 9.421875 75.984375 
L 18.40625 75.984375 
L 18.40625 0 
L 9.421875 0 
z
" id="DejaVuSans-6c"/>
     <path d="M 50.984375 -16.609375 
L 50.984375 -23.578125 
L -0.984375 -23.578125 
L -0.984375 -16.609375 
z
" id="DejaVuSans-5f"/>
     <path d="M 19.671875 64.796875 
L 19.671875 8.109375 
L 31.59375 8.109375 
Q 46.6875 8.109375 53.6875 14.9375 
Q 60.6875 21.78125 60.6875 36.53125 
Q 60.6875 51.171875 53.6875 57.984375 
Q 46.6875 64.796875 31.59375 64.796875 
z
M 9.8125 72.90625 
L 30.078125 72.90625 
Q 51.265625 72.90625 61.171875 64.09375 
Q 71.09375 55.28125 71.09375 36.53125 
Q 71.09375 17.671875 61.125 8.828125 
Q 51.171875 0 30.078125 0 
L 9.8125 0 
z
" id="DejaVuSans-44"/>
     <path d="M 9.421875 54.6875 
L 18.40625 54.6875 
L 18.40625 0 
L 9.421875 0 
z
M 9.421875 75.984375 
L 18.40625 75.984375 
L 18.40625 64.59375 
L 9.421875 64.59375 
z
" id="DejaVuSans-69"/>
    </defs>
    <g transform="translate(279.059914 19.44)scale(0.12 -0.12)">
     <use xlink:href="#DejaVuSans-43"/>
     <use x="69.824219" xlink:href="#DejaVuSans-6f"/>
     <use x="131.005859" xlink:href="#DejaVuSans-6e"/>
     <use x="194.384766" xlink:href="#DejaVuSans-74"/>
     <use x="233.59375" xlink:href="#DejaVuSans-72"/>
     <use x="274.675781" xlink:href="#DejaVuSans-6f"/>
     <use x="335.857422" xlink:href="#DejaVuSans-6c"/>
     <use x="363.640625" xlink:href="#DejaVuSans-5f"/>
     <use x="413.640625" xlink:href="#DejaVuSans-32"/>
     <use x="477.263672" xlink:href="#DejaVuSans-20"/>
     <use x="509.050781" xlink:href="#DejaVuSans-52"/>
     <use x="578.470703" xlink:href="#DejaVuSans-65"/>
     <use x="639.994141" xlink:href="#DejaVuSans-61"/>
     <use x="701.273438" xlink:href="#DejaVuSans-64"/>
     <use x="764.75" xlink:href="#DejaVuSans-20"/>
     <use x="796.537109" xlink:href="#DejaVuSans-44"/>
     <use x="873.539062" xlink:href="#DejaVuSans-69"/>
     <use x="901.322266" xlink:href="#DejaVuSans-73"/>
     <use x="953.421875" xlink:href="#DejaVuSans-74"/>
     <use x="992.630859" xlink:href="#DejaVuSans-72"/>
     <use x="1033.744141" xlink:href="#DejaVuSans-69"/>
     <use x="1061.527344" xlink:href="#DejaVuSans-62"/>
     <use x="1125.003906" xlink:href="#DejaVuSans-75"/>
     <use x="1188.382812" xlink:href="#DejaVuSans-74"/>
     <use x="1227.591797" xlink:href="#DejaVuSans-69"/>
     <use x="1255.375" xlink:href="#DejaVuSans-6f"/>
     <use x="1316.556641" xlink:href="#DejaVuSans-6e"/>
    </g>
   </g>
  </g>
  <g id="axes_3">
   <g id="patch_47">
    <path d="M 51.05 318.04 
L 173.277613 318.04 
L 173.277613 200.04 
L 51.05 200.04 
z
" style="fill:#ffffff;"/>
   </g>
   <g id="matplotlib.axis_5"/>
   <g id="matplotlib.axis_6">
    <g id="ytick_7">
     <g id="line2d_21">
      <g>
       <use style="stroke:#000000;stroke-width:0.8;" x="51.05" xlink:href="#m3f2d070e52" y="312.676364"/>
      </g>
     </g>
     <g id="text_20">
      <!-- 0 -->
      <g transform="translate(37.6875 316.475582)scale(0.1 -0.1)">
       <use xlink:href="#DejaVuSans-30"/>
      </g>
     </g>
    </g>
    <g id="ytick_8">
     <g id="line2d_22">
      <g>
       <use style="stroke:#000000;stroke-width:0.8;" x="51.05" xlink:href="#m3f2d070e52" y="272.042755"/>
      </g>
     </g>
     <g id="text_21">
      <!-- 50 -->
      <g transform="translate(31.325 275.841974)scale(0.1 -0.1)">
       <use xlink:href="#DejaVuSans-35"/>
       <use x="63.623047" xlink:href="#DejaVuSans-30"/>
      </g>
     </g>
    </g>
    <g id="ytick_9">
     <g id="line2d_23">
      <g>
       <use style="stroke:#000000;stroke-width:0.8;" x="51.05" xlink:href="#m3f2d070e52" y="231.409146"/>
      </g>
     </g>
     <g id="text_22">
      <!-- 100 -->
      <g transform="translate(24.9625 235.208365)scale(0.1 -0.1)">
       <use xlink:href="#DejaVuSans-31"/>
       <use x="63.623047" xlink:href="#DejaVuSans-30"/>
       <use x="127.246094" xlink:href="#DejaVuSans-30"/>
      </g>
     </g>
    </g>
    <g id="text_23">
     <!-- counts [norm.] -->
     <g transform="translate(18.882813 295.98375)rotate(-90)scale(0.1 -0.1)">
      <use xlink:href="#DejaVuSans-63"/>
      <use x="54.980469" xlink:href="#DejaVuSans-6f"/>
      <use x="116.162109" xlink:href="#DejaVuSans-75"/>
      <use x="179.541016" xlink:href="#DejaVuSans-6e"/>
      <use x="242.919922" xlink:href="#DejaVuSans-74"/>
      <use x="282.128906" xlink:href="#DejaVuSans-73"/>
      <use x="334.228516" xlink:href="#DejaVuSans-20"/>
      <use x="366.015625" xlink:href="#DejaVuSans-5b"/>
      <use x="405.029297" xlink:href="#DejaVuSans-6e"/>
      <use x="468.408203" xlink:href="#DejaVuSans-6f"/>
      <use x="529.589844" xlink:href="#DejaVuSans-72"/>
      <use x="570.6875" xlink:href="#DejaVuSans-6d"/>
      <use x="668.099609" xlink:href="#DejaVuSans-2e"/>
      <use x="699.886719" xlink:href="#DejaVuSans-5d"/>
     </g>
    </g>
   </g>
   <g id="line2d_24">
    <path clip-path="url(#p65aad440c3)" d="M 102.996736 298.048264 
L 121.330878 298.048264 
L 121.330878 260.665344 
L 102.996736 260.665344 
L 102.996736 298.048264 
" style="fill:none;stroke:#000000;stroke-linecap:square;"/>
   </g>
   <g id="line2d_25">
    <path clip-path="url(#p65aad440c3)" d="M 112.163807 298.048264 
L 112.163807 312.676364 
" style="fill:none;stroke:#000000;stroke-linecap:square;"/>
   </g>
   <g id="line2d_26">
    <path clip-path="url(#p65aad440c3)" d="M 112.163807 260.665344 
L 112.163807 205.403636 
" style="fill:none;stroke:#000000;stroke-linecap:square;"/>
   </g>
   <g id="line2d_27">
    <path clip-path="url(#p65aad440c3)" d="M 107.580271 312.676364 
L 116.747342 312.676364 
" style="fill:none;stroke:#000000;stroke-linecap:square;"/>
   </g>
   <g id="line2d_28">
    <path clip-path="url(#p65aad440c3)" d="M 107.580271 205.403636 
L 116.747342 205.403636 
" style="fill:none;stroke:#000000;stroke-linecap:square;"/>
   </g>
   <g id="line2d_29">
    <path clip-path="url(#p65aad440c3)" d="M 102.996736 280.982149 
L 121.330878 280.982149 
" style="fill:none;stroke:#ff7f0e;stroke-linecap:square;"/>
   </g>
   <g id="patch_48">
    <path d="M 51.05 318.04 
L 51.05 200.04 
" style="fill:none;stroke:#000000;stroke-linecap:square;stroke-linejoin:miter;stroke-width:0.8;"/>
   </g>
   <g id="patch_49">
    <path d="M 173.277613 318.04 
L 173.277613 200.04 
" style="fill:none;stroke:#000000;stroke-linecap:square;stroke-linejoin:miter;stroke-width:0.8;"/>
   </g>
   <g id="patch_50">
    <path d="M 51.05 318.04 
L 173.277613 318.04 
" style="fill:none;stroke:#000000;stroke-linecap:square;stroke-linejoin:miter;stroke-width:0.8;"/>
   </g>
   <g id="patch_51">
    <path d="M 51.05 200.04 
L 173.277613 200.04 
" style="fill:none;stroke:#000000;stroke-linecap:square;stroke-linejoin:miter;stroke-width:0.8;"/>
   </g>
   <g id="text_24">
    <!-- Reads per Gene -->
    <defs>
     <path d="M 59.515625 10.40625 
L 59.515625 29.984375 
L 43.40625 29.984375 
L 43.40625 38.09375 
L 69.28125 38.09375 
L 69.28125 6.78125 
Q 63.578125 2.734375 56.6875 0.65625 
Q 49.8125 -1.421875 42 -1.421875 
Q 24.90625 -1.421875 15.25 8.5625 
Q 5.609375 18.5625 5.609375 36.375 
Q 5.609375 54.25 15.25 64.234375 
Q 24.90625 74.21875 42 74.21875 
Q 49.125 74.21875 55.546875 72.453125 
Q 61.96875 70.703125 67.390625 67.28125 
L 67.390625 56.78125 
Q 61.921875 61.421875 55.765625 63.765625 
Q 49.609375 66.109375 42.828125 66.109375 
Q 29.4375 66.109375 22.71875 58.640625 
Q 16.015625 51.171875 16.015625 36.375 
Q 16.015625 21.625 22.71875 14.15625 
Q 29.4375 6.6875 42.828125 6.6875 
Q 48.046875 6.6875 52.140625 7.59375 
Q 56.25 8.5 59.515625 10.40625 
" id="DejaVuSans-47"/>
    </defs>
    <g transform="translate(64.078494 194.04)scale(0.12 -0.12)">
     <use xlink:href="#DejaVuSans-52"/>
     <use x="69.419922" xlink:href="#DejaVuSans-65"/>
     <use x="130.943359" xlink:href="#DejaVuSans-61"/>
     <use x="192.222656" xlink:href="#DejaVuSans-64"/>
     <use x="255.699219" xlink:href="#DejaVuSans-73"/>
     <use x="307.798828" xlink:href="#DejaVuSans-20"/>
     <use x="339.585938" xlink:href="#DejaVuSans-70"/>
     <use x="403.0625" xlink:href="#DejaVuSans-65"/>
     <use x="464.585938" xlink:href="#DejaVuSans-72"/>
     <use x="505.699219" xlink:href="#DejaVuSans-20"/>
     <use x="537.486328" xlink:href="#DejaVuSans-47"/>
     <use x="614.976562" xlink:href="#DejaVuSans-65"/>
     <use x="676.5" xlink:href="#DejaVuSans-6e"/>
     <use x="739.878906" xlink:href="#DejaVuSans-65"/>
    </g>
   </g>
  </g>
  <g id="axes_4">
   <g id="patch_52">
    <path d="M 239.627613 318.04 
L 484.08284 318.04 
L 484.08284 200.04 
L 239.627613 200.04 
z
" style="fill:#ffffff;"/>
   </g>
   <g id="patch_53">
    <path clip-path="url(#p271322b697)" d="M 250.739215 318.04 
L 252.671667 318.04 
L 252.671667 205.659048 
L 250.739215 205.659048 
z
" style="fill:#1f77b4;"/>
   </g>
   <g id="patch_54">
    <path clip-path="url(#p271322b697)" d="M 252.671667 318.04 
L 254.604119 318.04 
L 254.604119 318.04 
L 252.671667 318.04 
z
" style="fill:#1f77b4;"/>
   </g>
   <g id="patch_55">
    <path clip-path="url(#p271322b697)" d="M 254.604119 318.04 
L 256.536572 318.04 
L 256.536572 294.78141 
L 254.604119 294.78141 
z
" style="fill:#1f77b4;"/>
   </g>
   <g id="patch_56">
    <path clip-path="url(#p271322b697)" d="M 256.536572 318.04 
L 258.469024 318.04 
L 258.469024 318.04 
L 256.536572 318.04 
z
" style="fill:#1f77b4;"/>
   </g>
   <g id="patch_57">
    <path clip-path="url(#p271322b697)" d="M 258.469024 318.04 
L 260.401477 318.04 
L 260.401477 318.04 
L 258.469024 318.04 
z
" style="fill:#1f77b4;"/>
   </g>
   <g id="patch_58">
    <path clip-path="url(#p271322b697)" d="M 260.401477 318.04 
L 262.333929 318.04 
L 262.333929 291.722942 
L 260.401477 291.722942 
z
" style="fill:#1f77b4;"/>
   </g>
   <g id="patch_59">
    <path clip-path="url(#p271322b697)" d="M 262.333929 318.04 
L 264.266381 318.04 
L 264.266381 318.04 
L 262.333929 318.04 
z
" style="fill:#1f77b4;"/>
   </g>
   <g id="patch_60">
    <path clip-path="url(#p271322b697)" d="M 264.266381 318.04 
L 266.198834 318.04 
L 266.198834 287.099675 
L 264.266381 287.099675 
z
" style="fill:#1f77b4;"/>
   </g>
   <g id="patch_61">
    <path clip-path="url(#p271322b697)" d="M 266.198834 318.04 
L 268.131286 318.04 
L 268.131286 318.04 
L 266.198834 318.04 
z
" style="fill:#1f77b4;"/>
   </g>
   <g id="patch_62">
    <path clip-path="url(#p271322b697)" d="M 268.131286 318.04 
L 270.063739 318.04 
L 270.063739 283.614442 
L 268.131286 283.614442 
z
" style="fill:#1f77b4;"/>
   </g>
   <g id="patch_63">
    <path clip-path="url(#p271322b697)" d="M 270.063739 318.04 
L 271.996191 318.04 
L 271.996191 318.04 
L 270.063739 318.04 
z
" style="fill:#1f77b4;"/>
   </g>
   <g id="patch_64">
    <path clip-path="url(#p271322b697)" d="M 271.996191 318.04 
L 273.928643 318.04 
L 273.928643 279.560193 
L 271.996191 279.560193 
z
" style="fill:#1f77b4;"/>
   </g>
   <g id="patch_65">
    <path clip-path="url(#p271322b697)" d="M 273.928643 318.04 
L 275.861096 318.04 
L 275.861096 318.04 
L 273.928643 318.04 
z
" style="fill:#1f77b4;"/>
   </g>
   <g id="patch_66">
    <path clip-path="url(#p271322b697)" d="M 275.861096 318.04 
L 277.793548 318.04 
L 277.793548 318.04 
L 275.861096 318.04 
z
" style="fill:#1f77b4;"/>
   </g>
   <g id="patch_67">
    <path clip-path="url(#p271322b697)" d="M 277.793548 318.04 
L 279.726001 318.04 
L 279.726001 274.794671 
L 277.793548 274.794671 
z
" style="fill:#1f77b4;"/>
   </g>
   <g id="patch_68">
    <path clip-path="url(#p271322b697)" d="M 279.726001 318.04 
L 281.658453 318.04 
L 281.658453 318.04 
L 279.726001 318.04 
z
" style="fill:#1f77b4;"/>
   </g>
   <g id="patch_69">
    <path clip-path="url(#p271322b697)" d="M 281.658453 318.04 
L 283.590905 318.04 
L 283.590905 278.137649 
L 281.658453 278.137649 
z
" style="fill:#1f77b4;"/>
   </g>
   <g id="patch_70">
    <path clip-path="url(#p271322b697)" d="M 283.590905 318.04 
L 285.523358 318.04 
L 285.523358 318.04 
L 283.590905 318.04 
z
" style="fill:#1f77b4;"/>
   </g>
   <g id="patch_71">
    <path clip-path="url(#p271322b697)" d="M 285.523358 318.04 
L 287.45581 318.04 
L 287.45581 276.074961 
L 285.523358 276.074961 
z
" style="fill:#1f77b4;"/>
   </g>
   <g id="patch_72">
    <path clip-path="url(#p271322b697)" d="M 287.45581 318.04 
L 289.388262 318.04 
L 289.388262 318.04 
L 287.45581 318.04 
z
" style="fill:#1f77b4;"/>
   </g>
   <g id="patch_73">
    <path clip-path="url(#p271322b697)" d="M 289.388262 318.04 
L 291.320715 318.04 
L 291.320715 318.04 
L 289.388262 318.04 
z
" style="fill:#1f77b4;"/>
   </g>
   <g id="patch_74">
    <path clip-path="url(#p271322b697)" d="M 291.320715 318.04 
L 293.253167 318.04 
L 293.253167 271.167185 
L 291.320715 271.167185 
z
" style="fill:#1f77b4;"/>
   </g>
   <g id="patch_75">
    <path clip-path="url(#p271322b697)" d="M 293.253167 318.04 
L 295.18562 318.04 
L 295.18562 318.04 
L 293.253167 318.04 
z
" style="fill:#1f77b4;"/>
   </g>
   <g id="patch_76">
    <path clip-path="url(#p271322b697)" d="M 295.18562 318.04 
L 297.118072 318.04 
L 297.118072 272.874237 
L 295.18562 272.874237 
z
" style="fill:#1f77b4;"/>
   </g>
   <g id="patch_77">
    <path clip-path="url(#p271322b697)" d="M 297.118072 318.04 
L 299.050524 318.04 
L 299.050524 318.04 
L 297.118072 318.04 
z
" style="fill:#1f77b4;"/>
   </g>
   <g id="patch_78">
    <path clip-path="url(#p271322b697)" d="M 299.050524 318.04 
L 300.982977 318.04 
L 300.982977 267.75308 
L 299.050524 267.75308 
z
" style="fill:#1f77b4;"/>
   </g>
   <g id="patch_79">
    <path clip-path="url(#p271322b697)" d="M 300.982977 318.04 
L 302.915429 318.04 
L 302.915429 318.04 
L 300.982977 318.04 
z
" style="fill:#1f77b4;"/>
   </g>
   <g id="patch_80">
    <path clip-path="url(#p271322b697)" d="M 302.915429 318.04 
L 304.847882 318.04 
L 304.847882 272.589729 
L 302.915429 272.589729 
z
" style="fill:#1f77b4;"/>
   </g>
   <g id="patch_81">
    <path clip-path="url(#p271322b697)" d="M 304.847882 318.04 
L 306.780334 318.04 
L 306.780334 318.04 
L 304.847882 318.04 
z
" style="fill:#1f77b4;"/>
   </g>
   <g id="patch_82">
    <path clip-path="url(#p271322b697)" d="M 306.780334 318.04 
L 308.712786 318.04 
L 308.712786 318.04 
L 306.780334 318.04 
z
" style="fill:#1f77b4;"/>
   </g>
   <g id="patch_83">
    <path clip-path="url(#p271322b697)" d="M 308.712786 318.04 
L 310.645239 318.04 
L 310.645239 272.162966 
L 308.712786 272.162966 
z
" style="fill:#1f77b4;"/>
   </g>
   <g id="patch_84">
    <path clip-path="url(#p271322b697)" d="M 310.645239 318.04 
L 312.577691 318.04 
L 312.577691 318.04 
L 310.645239 318.04 
z
" style="fill:#1f77b4;"/>
   </g>
   <g id="patch_85">
    <path clip-path="url(#p271322b697)" d="M 312.577691 318.04 
L 314.510143 318.04 
L 314.510143 269.744641 
L 312.577691 269.744641 
z
" style="fill:#1f77b4;"/>
   </g>
   <g id="patch_86">
    <path clip-path="url(#p271322b697)" d="M 314.510143 318.04 
L 316.442596 318.04 
L 316.442596 318.04 
L 314.510143 318.04 
z
" style="fill:#1f77b4;"/>
   </g>
   <g id="patch_87">
    <path clip-path="url(#p271322b697)" d="M 316.442596 318.04 
L 318.375048 318.04 
L 318.375048 270.100277 
L 316.442596 270.100277 
z
" style="fill:#1f77b4;"/>
   </g>
   <g id="patch_88">
    <path clip-path="url(#p271322b697)" d="M 318.375048 318.04 
L 320.307501 318.04 
L 320.307501 318.04 
L 318.375048 318.04 
z
" style="fill:#1f77b4;"/>
   </g>
   <g id="patch_89">
    <path clip-path="url(#p271322b697)" d="M 320.307501 318.04 
L 322.239953 318.04 
L 322.239953 318.04 
L 320.307501 318.04 
z
" style="fill:#1f77b4;"/>
   </g>
   <g id="patch_90">
    <path clip-path="url(#p271322b697)" d="M 322.239953 318.04 
L 324.172405 318.04 
L 324.172405 275.363689 
L 322.239953 275.363689 
z
" style="fill:#1f77b4;"/>
   </g>
   <g id="patch_91">
    <path clip-path="url(#p271322b697)" d="M 324.172405 318.04 
L 326.104858 318.04 
L 326.104858 318.04 
L 324.172405 318.04 
z
" style="fill:#1f77b4;"/>
   </g>
   <g id="patch_92">
    <path clip-path="url(#p271322b697)" d="M 326.104858 318.04 
L 328.03731 318.04 
L 328.03731 274.154527 
L 326.104858 274.154527 
z
" style="fill:#1f77b4;"/>
   </g>
   <g id="patch_93">
    <path clip-path="url(#p271322b697)" d="M 328.03731 318.04 
L 329.969763 318.04 
L 329.969763 318.04 
L 328.03731 318.04 
z
" style="fill:#1f77b4;"/>
   </g>
   <g id="patch_94">
    <path clip-path="url(#p271322b697)" d="M 329.969763 318.04 
L 331.902215 318.04 
L 331.902215 275.292562 
L 329.969763 275.292562 
z
" style="fill:#1f77b4;"/>
   </g>
   <g id="patch_95">
    <path clip-path="url(#p271322b697)" d="M 331.902215 318.04 
L 333.834667 318.04 
L 333.834667 318.04 
L 331.902215 318.04 
z
" style="fill:#1f77b4;"/>
   </g>
   <g id="patch_96">
    <path clip-path="url(#p271322b697)" d="M 333.834667 318.04 
L 335.76712 318.04 
L 335.76712 278.848921 
L 333.834667 278.848921 
z
" style="fill:#1f77b4;"/>
   </g>
   <g id="patch_97">
    <path clip-path="url(#p271322b697)" d="M 335.76712 318.04 
L 337.699572 318.04 
L 337.699572 318.04 
L 335.76712 318.04 
z
" style="fill:#1f77b4;"/>
   </g>
   <g id="patch_98">
    <path clip-path="url(#p271322b697)" d="M 337.699572 318.04 
L 339.632025 318.04 
L 339.632025 318.04 
L 337.699572 318.04 
z
" style="fill:#1f77b4;"/>
   </g>
   <g id="patch_99">
    <path clip-path="url(#p271322b697)" d="M 339.632025 318.04 
L 341.564477 318.04 
L 341.564477 283.116552 
L 339.632025 283.116552 
z
" style="fill:#1f77b4;"/>
   </g>
   <g id="patch_100">
    <path clip-path="url(#p271322b697)" d="M 341.564477 318.04 
L 343.496929 318.04 
L 343.496929 318.04 
L 341.564477 318.04 
z
" style="fill:#1f77b4;"/>
   </g>
   <g id="patch_101">
    <path clip-path="url(#p271322b697)" d="M 343.496929 318.04 
L 345.429382 318.04 
L 345.429382 281.90739 
L 343.496929 281.90739 
z
" style="fill:#1f77b4;"/>
   </g>
   <g id="patch_102">
    <path clip-path="url(#p271322b697)" d="M 345.429382 318.04 
L 347.361834 318.04 
L 347.361834 318.04 
L 345.429382 318.04 
z
" style="fill:#1f77b4;"/>
   </g>
   <g id="patch_103">
    <path clip-path="url(#p271322b697)" d="M 347.361834 318.04 
L 349.294286 318.04 
L 349.294286 279.560193 
L 347.361834 279.560193 
z
" style="fill:#1f77b4;"/>
   </g>
   <g id="patch_104">
    <path clip-path="url(#p271322b697)" d="M 349.294286 318.04 
L 351.226739 318.04 
L 351.226739 318.04 
L 349.294286 318.04 
z
" style="fill:#1f77b4;"/>
   </g>
   <g id="patch_105">
    <path clip-path="url(#p271322b697)" d="M 351.226739 318.04 
L 353.159191 318.04 
L 353.159191 282.120772 
L 351.226739 282.120772 
z
" style="fill:#1f77b4;"/>
   </g>
   <g id="patch_106">
    <path clip-path="url(#p271322b697)" d="M 353.159191 318.04 
L 355.091644 318.04 
L 355.091644 318.04 
L 353.159191 318.04 
z
" style="fill:#1f77b4;"/>
   </g>
   <g id="patch_107">
    <path clip-path="url(#p271322b697)" d="M 355.091644 318.04 
L 357.024096 318.04 
L 357.024096 318.04 
L 355.091644 318.04 
z
" style="fill:#1f77b4;"/>
   </g>
   <g id="patch_108">
    <path clip-path="url(#p271322b697)" d="M 357.024096 318.04 
L 358.956548 318.04 
L 358.956548 286.103894 
L 357.024096 286.103894 
z
" style="fill:#1f77b4;"/>
   </g>
   <g id="patch_109">
    <path clip-path="url(#p271322b697)" d="M 358.956548 318.04 
L 360.889001 318.04 
L 360.889001 318.04 
L 358.956548 318.04 
z
" style="fill:#1f77b4;"/>
   </g>
   <g id="patch_110">
    <path clip-path="url(#p271322b697)" d="M 360.889001 318.04 
L 362.821453 318.04 
L 362.821453 284.965859 
L 360.889001 284.965859 
z
" style="fill:#1f77b4;"/>
   </g>
   <g id="patch_111">
    <path clip-path="url(#p271322b697)" d="M 362.821453 318.04 
L 364.753906 318.04 
L 364.753906 318.04 
L 362.821453 318.04 
z
" style="fill:#1f77b4;"/>
   </g>
   <g id="patch_112">
    <path clip-path="url(#p271322b697)" d="M 364.753906 318.04 
L 366.686358 318.04 
L 366.686358 285.819385 
L 364.753906 285.819385 
z
" style="fill:#1f77b4;"/>
   </g>
   <g id="patch_113">
    <path clip-path="url(#p271322b697)" d="M 366.686358 318.04 
L 368.61881 318.04 
L 368.61881 318.04 
L 366.686358 318.04 
z
" style="fill:#1f77b4;"/>
   </g>
   <g id="patch_114">
    <path clip-path="url(#p271322b697)" d="M 368.61881 318.04 
L 370.551263 318.04 
L 370.551263 318.04 
L 368.61881 318.04 
z
" style="fill:#1f77b4;"/>
   </g>
   <g id="patch_115">
    <path clip-path="url(#p271322b697)" d="M 370.551263 318.04 
L 372.483715 318.04 
L 372.483715 290.300398 
L 370.551263 290.300398 
z
" style="fill:#1f77b4;"/>
   </g>
   <g id="patch_116">
    <path clip-path="url(#p271322b697)" d="M 372.483715 318.04 
L 374.416167 318.04 
L 374.416167 318.04 
L 372.483715 318.04 
z
" style="fill:#1f77b4;"/>
   </g>
   <g id="patch_117">
    <path clip-path="url(#p271322b697)" d="M 374.416167 318.04 
L 376.34862 318.04 
L 376.34862 291.936323 
L 374.416167 291.936323 
z
" style="fill:#1f77b4;"/>
   </g>
   <g id="patch_118">
    <path clip-path="url(#p271322b697)" d="M 376.34862 318.04 
L 378.281072 318.04 
L 378.281072 318.04 
L 376.34862 318.04 
z
" style="fill:#1f77b4;"/>
   </g>
   <g id="patch_119">
    <path clip-path="url(#p271322b697)" d="M 378.281072 318.04 
L 380.213525 318.04 
L 380.213525 292.220832 
L 378.281072 292.220832 
z
" style="fill:#1f77b4;"/>
   </g>
   <g id="patch_120">
    <path clip-path="url(#p271322b697)" d="M 380.213525 318.04 
L 382.145977 318.04 
L 382.145977 318.04 
L 380.213525 318.04 
z
" style="fill:#1f77b4;"/>
   </g>
   <g id="patch_121">
    <path clip-path="url(#p271322b697)" d="M 382.145977 318.04 
L 384.078429 318.04 
L 384.078429 293.78563 
L 382.145977 293.78563 
z
" style="fill:#1f77b4;"/>
   </g>
   <g id="patch_122">
    <path clip-path="url(#p271322b697)" d="M 384.078429 318.04 
L 386.010882 318.04 
L 386.010882 318.04 
L 384.078429 318.04 
z
" style="fill:#1f77b4;"/>
   </g>
   <g id="patch_123">
    <path clip-path="url(#p271322b697)" d="M 386.010882 318.04 
L 387.943334 318.04 
L 387.943334 318.04 
L 386.010882 318.04 
z
" style="fill:#1f77b4;"/>
   </g>
   <g id="patch_124">
    <path clip-path="url(#p271322b697)" d="M 387.943334 318.04 
L 389.875787 318.04 
L 389.875787 297.341989 
L 387.943334 297.341989 
z
" style="fill:#1f77b4;"/>
   </g>
   <g id="patch_125">
    <path clip-path="url(#p271322b697)" d="M 389.875787 318.04 
L 391.808239 318.04 
L 391.808239 318.04 
L 389.875787 318.04 
z
" style="fill:#1f77b4;"/>
   </g>
   <g id="patch_126">
    <path clip-path="url(#p271322b697)" d="M 391.808239 318.04 
L 393.740691 318.04 
L 393.740691 298.053261 
L 391.808239 298.053261 
z
" style="fill:#1f77b4;"/>
   </g>
   <g id="patch_127">
    <path clip-path="url(#p271322b697)" d="M 393.740691 318.04 
L 395.673144 318.04 
L 395.673144 318.04 
L 393.740691 318.04 
z
" style="fill:#1f77b4;"/>
   </g>
   <g id="patch_128">
    <path clip-path="url(#p271322b697)" d="M 395.673144 318.04 
L 397.605596 318.04 
L 397.605596 297.626498 
L 395.673144 297.626498 
z
" style="fill:#1f77b4;"/>
   </g>
   <g id="patch_129">
    <path clip-path="url(#p271322b697)" d="M 397.605596 318.04 
L 399.538049 318.04 
L 399.538049 318.04 
L 397.605596 318.04 
z
" style="fill:#1f77b4;"/>
   </g>
   <g id="patch_130">
    <path clip-path="url(#p271322b697)" d="M 399.538049 318.04 
L 401.470501 318.04 
L 401.470501 318.04 
L 399.538049 318.04 
z
" style="fill:#1f77b4;"/>
   </g>
   <g id="patch_131">
    <path clip-path="url(#p271322b697)" d="M 401.470501 318.04 
L 403.402953 318.04 
L 403.402953 299.689186 
L 401.470501 299.689186 
z
" style="fill:#1f77b4;"/>
   </g>
   <g id="patch_132">
    <path clip-path="url(#p271322b697)" d="M 403.402953 318.04 
L 405.335406 318.04 
L 405.335406 318.04 
L 403.402953 318.04 
z
" style="fill:#1f77b4;"/>
   </g>
   <g id="patch_133">
    <path clip-path="url(#p271322b697)" d="M 405.335406 318.04 
L 407.267858 318.04 
L 407.267858 300.61384 
L 405.335406 300.61384 
z
" style="fill:#1f77b4;"/>
   </g>
   <g id="patch_134">
    <path clip-path="url(#p271322b697)" d="M 407.267858 318.04 
L 409.20031 318.04 
L 409.20031 318.04 
L 407.267858 318.04 
z
" style="fill:#1f77b4;"/>
   </g>
   <g id="patch_135">
    <path clip-path="url(#p271322b697)" d="M 409.20031 318.04 
L 411.132763 318.04 
L 411.132763 299.760313 
L 409.20031 299.760313 
z
" style="fill:#1f77b4;"/>
   </g>
   <g id="patch_136">
    <path clip-path="url(#p271322b697)" d="M 411.132763 318.04 
L 413.065215 318.04 
L 413.065215 318.04 
L 411.132763 318.04 
z
" style="fill:#1f77b4;"/>
   </g>
   <g id="patch_137">
    <path clip-path="url(#p271322b697)" d="M 413.065215 318.04 
L 414.997668 318.04 
L 414.997668 301.751875 
L 413.065215 301.751875 
z
" style="fill:#1f77b4;"/>
   </g>
   <g id="patch_138">
    <path clip-path="url(#p271322b697)" d="M 414.997668 318.04 
L 416.93012 318.04 
L 416.93012 318.04 
L 414.997668 318.04 
z
" style="fill:#1f77b4;"/>
   </g>
   <g id="patch_139">
    <path clip-path="url(#p271322b697)" d="M 416.93012 318.04 
L 418.862572 318.04 
L 418.862572 318.04 
L 416.93012 318.04 
z
" style="fill:#1f77b4;"/>
   </g>
   <g id="patch_140">
    <path clip-path="url(#p271322b697)" d="M 418.862572 318.04 
L 420.795025 318.04 
L 420.795025 306.090633 
L 418.862572 306.090633 
z
" style="fill:#1f77b4;"/>
   </g>
   <g id="patch_141">
    <path clip-path="url(#p271322b697)" d="M 420.795025 318.04 
L 422.727477 318.04 
L 422.727477 318.04 
L 420.795025 318.04 
z
" style="fill:#1f77b4;"/>
   </g>
   <g id="patch_142">
    <path clip-path="url(#p271322b697)" d="M 422.727477 318.04 
L 424.65993 318.04 
L 424.65993 304.739216 
L 422.727477 304.739216 
z
" style="fill:#1f77b4;"/>
   </g>
   <g id="patch_143">
    <path clip-path="url(#p271322b697)" d="M 424.65993 318.04 
L 426.592382 318.04 
L 426.592382 318.04 
L 424.65993 318.04 
z
" style="fill:#1f77b4;"/>
   </g>
   <g id="patch_144">
    <path clip-path="url(#p271322b697)" d="M 426.592382 318.04 
L 428.524834 318.04 
L 428.524834 305.877251 
L 426.592382 305.877251 
z
" style="fill:#1f77b4;"/>
   </g>
   <g id="patch_145">
    <path clip-path="url(#p271322b697)" d="M 428.524834 318.04 
L 430.457287 318.04 
L 430.457287 318.04 
L 428.524834 318.04 
z
" style="fill:#1f77b4;"/>
   </g>
   <g id="patch_146">
    <path clip-path="url(#p271322b697)" d="M 430.457287 318.04 
L 432.389739 318.04 
L 432.389739 318.04 
L 430.457287 318.04 
z
" style="fill:#1f77b4;"/>
   </g>
   <g id="patch_147">
    <path clip-path="url(#p271322b697)" d="M 432.389739 318.04 
L 434.322191 318.04 
L 434.322191 307.299795 
L 432.389739 307.299795 
z
" style="fill:#1f77b4;"/>
   </g>
   <g id="patch_148">
    <path clip-path="url(#p271322b697)" d="M 434.322191 318.04 
L 436.254644 318.04 
L 436.254644 318.04 
L 434.322191 318.04 
z
" style="fill:#1f77b4;"/>
   </g>
   <g id="patch_149">
    <path clip-path="url(#p271322b697)" d="M 436.254644 318.04 
L 438.187096 318.04 
L 438.187096 306.730778 
L 436.254644 306.730778 
z
" style="fill:#1f77b4;"/>
   </g>
   <g id="patch_150">
    <path clip-path="url(#p271322b697)" d="M 438.187096 318.04 
L 440.119549 318.04 
L 440.119549 318.04 
L 438.187096 318.04 
z
" style="fill:#1f77b4;"/>
   </g>
   <g id="patch_151">
    <path clip-path="url(#p271322b697)" d="M 440.119549 318.04 
L 442.052001 318.04 
L 442.052001 310.287137 
L 440.119549 310.287137 
z
" style="fill:#1f77b4;"/>
   </g>
   <g id="patch_152">
    <path clip-path="url(#p271322b697)" d="M 442.052001 318.04 
L 443.984453 318.04 
L 443.984453 318.04 
L 442.052001 318.04 
z
" style="fill:#1f77b4;"/>
   </g>
   <g id="patch_153">
    <path clip-path="url(#p271322b697)" d="M 443.984453 318.04 
L 445.916906 318.04 
L 445.916906 308.93572 
L 443.984453 308.93572 
z
" style="fill:#1f77b4;"/>
   </g>
   <g id="patch_154">
    <path clip-path="url(#p271322b697)" d="M 445.916906 318.04 
L 447.849358 318.04 
L 447.849358 318.04 
L 445.916906 318.04 
z
" style="fill:#1f77b4;"/>
   </g>
   <g id="patch_155">
    <path clip-path="url(#p271322b697)" d="M 447.849358 318.04 
L 449.781811 318.04 
L 449.781811 318.04 
L 447.849358 318.04 
z
" style="fill:#1f77b4;"/>
   </g>
   <g id="patch_156">
    <path clip-path="url(#p271322b697)" d="M 449.781811 318.04 
L 451.714263 318.04 
L 451.714263 309.149102 
L 449.781811 309.149102 
z
" style="fill:#1f77b4;"/>
   </g>
   <g id="patch_157">
    <path clip-path="url(#p271322b697)" d="M 451.714263 318.04 
L 453.646715 318.04 
L 453.646715 318.04 
L 451.714263 318.04 
z
" style="fill:#1f77b4;"/>
   </g>
   <g id="patch_158">
    <path clip-path="url(#p271322b697)" d="M 453.646715 318.04 
L 455.579168 318.04 
L 455.579168 310.571646 
L 453.646715 310.571646 
z
" style="fill:#1f77b4;"/>
   </g>
   <g id="patch_159">
    <path clip-path="url(#p271322b697)" d="M 455.579168 318.04 
L 457.51162 318.04 
L 457.51162 318.04 
L 455.579168 318.04 
z
" style="fill:#1f77b4;"/>
   </g>
   <g id="patch_160">
    <path clip-path="url(#p271322b697)" d="M 457.51162 318.04 
L 459.444073 318.04 
L 459.444073 310.927281 
L 457.51162 310.927281 
z
" style="fill:#1f77b4;"/>
   </g>
   <g id="patch_161">
    <path clip-path="url(#p271322b697)" d="M 459.444073 318.04 
L 461.376525 318.04 
L 461.376525 318.04 
L 459.444073 318.04 
z
" style="fill:#1f77b4;"/>
   </g>
   <g id="patch_162">
    <path clip-path="url(#p271322b697)" d="M 461.376525 318.04 
L 463.308977 318.04 
L 463.308977 318.04 
L 461.376525 318.04 
z
" style="fill:#1f77b4;"/>
   </g>
   <g id="patch_163">
    <path clip-path="url(#p271322b697)" d="M 463.308977 318.04 
L 465.24143 318.04 
L 465.24143 310.785027 
L 463.308977 310.785027 
z
" style="fill:#1f77b4;"/>
   </g>
   <g id="patch_164">
    <path clip-path="url(#p271322b697)" d="M 465.24143 318.04 
L 467.173882 318.04 
L 467.173882 318.04 
L 465.24143 318.04 
z
" style="fill:#1f77b4;"/>
   </g>
   <g id="patch_165">
    <path clip-path="url(#p271322b697)" d="M 467.173882 318.04 
L 469.106334 318.04 
L 469.106334 312.207571 
L 467.173882 312.207571 
z
" style="fill:#1f77b4;"/>
   </g>
   <g id="patch_166">
    <path clip-path="url(#p271322b697)" d="M 469.106334 318.04 
L 471.038787 318.04 
L 471.038787 318.04 
L 469.106334 318.04 
z
" style="fill:#1f77b4;"/>
   </g>
   <g id="patch_167">
    <path clip-path="url(#p271322b697)" d="M 471.038787 318.04 
L 472.971239 318.04 
L 472.971239 311.851935 
L 471.038787 311.851935 
z
" style="fill:#1f77b4;"/>
   </g>
   <g id="matplotlib.axis_7">
    <g id="xtick_9">
     <g id="line2d_30">
      <g>
       <use style="stroke:#000000;stroke-width:0.8;" x="251.705441" xlink:href="#mc52ac787e5" y="318.04"/>
      </g>
     </g>
     <g id="text_25">
      <!-- 0 -->
      <g transform="translate(248.524191 332.638438)scale(0.1 -0.1)">
       <use xlink:href="#DejaVuSans-30"/>
      </g>
     </g>
    </g>
    <g id="xtick_10">
     <g id="line2d_31">
      <g>
       <use style="stroke:#000000;stroke-width:0.8;" x="290.354489" xlink:href="#mc52ac787e5" y="318.04"/>
      </g>
     </g>
     <g id="text_26">
      <!-- 20 -->
      <g transform="translate(283.991989 332.638438)scale(0.1 -0.1)">
       <use xlink:href="#DejaVuSans-32"/>
       <use x="63.623047" xlink:href="#DejaVuSans-30"/>
      </g>
     </g>
    </g>
    <g id="xtick_11">
     <g id="line2d_32">
      <g>
       <use style="stroke:#000000;stroke-width:0.8;" x="329.003536" xlink:href="#mc52ac787e5" y="318.04"/>
      </g>
     </g>
     <g id="text_27">
      <!-- 40 -->
      <g transform="translate(322.641036 332.638438)scale(0.1 -0.1)">
       <use xlink:href="#DejaVuSans-34"/>
       <use x="63.623047" xlink:href="#DejaVuSans-30"/>
      </g>
     </g>
    </g>
    <g id="xtick_12">
     <g id="line2d_33">
      <g>
       <use style="stroke:#000000;stroke-width:0.8;" x="367.652584" xlink:href="#mc52ac787e5" y="318.04"/>
      </g>
     </g>
     <g id="text_28">
      <!-- 60 -->
      <defs>
       <path d="M 33.015625 40.375 
Q 26.375 40.375 22.484375 35.828125 
Q 18.609375 31.296875 18.609375 23.390625 
Q 18.609375 15.53125 22.484375 10.953125 
Q 26.375 6.390625 33.015625 6.390625 
Q 39.65625 6.390625 43.53125 10.953125 
Q 47.40625 15.53125 47.40625 23.390625 
Q 47.40625 31.296875 43.53125 35.828125 
Q 39.65625 40.375 33.015625 40.375 
M 52.59375 71.296875 
L 52.59375 62.3125 
Q 48.875 64.0625 45.09375 64.984375 
Q 41.3125 65.921875 37.59375 65.921875 
Q 27.828125 65.921875 22.671875 59.328125 
Q 17.53125 52.734375 16.796875 39.40625 
Q 19.671875 43.65625 24.015625 45.921875 
Q 28.375 48.1875 33.59375 48.1875 
Q 44.578125 48.1875 50.953125 41.515625 
Q 57.328125 34.859375 57.328125 23.390625 
Q 57.328125 12.15625 50.6875 5.359375 
Q 44.046875 -1.421875 33.015625 -1.421875 
Q 20.359375 -1.421875 13.671875 8.265625 
Q 6.984375 17.96875 6.984375 36.375 
Q 6.984375 53.65625 15.1875 63.9375 
Q 23.390625 74.21875 37.203125 74.21875 
Q 40.921875 74.21875 44.703125 73.484375 
Q 48.484375 72.75 52.59375 71.296875 
" id="DejaVuSans-36"/>
      </defs>
      <g transform="translate(361.290084 332.638438)scale(0.1 -0.1)">
       <use xlink:href="#DejaVuSans-36"/>
       <use x="63.623047" xlink:href="#DejaVuSans-30"/>
      </g>
     </g>
    </g>
    <g id="xtick_13">
     <g id="line2d_34">
      <g>
       <use style="stroke:#000000;stroke-width:0.8;" x="406.301632" xlink:href="#mc52ac787e5" y="318.04"/>
      </g>
     </g>
     <g id="text_29">
      <!-- 80 -->
      <defs>
       <path d="M 31.78125 34.625 
Q 24.75 34.625 20.71875 30.859375 
Q 16.703125 27.09375 16.703125 20.515625 
Q 16.703125 13.921875 20.71875 10.15625 
Q 24.75 6.390625 31.78125 6.390625 
Q 38.8125 6.390625 42.859375 10.171875 
Q 46.921875 13.96875 46.921875 20.515625 
Q 46.921875 27.09375 42.890625 30.859375 
Q 38.875 34.625 31.78125 34.625 
M 21.921875 38.8125 
Q 15.578125 40.375 12.03125 44.71875 
Q 8.5 49.078125 8.5 55.328125 
Q 8.5 64.0625 14.71875 69.140625 
Q 20.953125 74.21875 31.78125 74.21875 
Q 42.671875 74.21875 48.875 69.140625 
Q 55.078125 64.0625 55.078125 55.328125 
Q 55.078125 49.078125 51.53125 44.71875 
Q 48 40.375 41.703125 38.8125 
Q 48.828125 37.15625 52.796875 32.3125 
Q 56.78125 27.484375 56.78125 20.515625 
Q 56.78125 9.90625 50.3125 4.234375 
Q 43.84375 -1.421875 31.78125 -1.421875 
Q 19.734375 -1.421875 13.25 4.234375 
Q 6.78125 9.90625 6.78125 20.515625 
Q 6.78125 27.484375 10.78125 32.3125 
Q 14.796875 37.15625 21.921875 38.8125 
M 18.3125 54.390625 
Q 18.3125 48.734375 21.84375 45.5625 
Q 25.390625 42.390625 31.78125 42.390625 
Q 38.140625 42.390625 41.71875 45.5625 
Q 45.3125 48.734375 45.3125 54.390625 
Q 45.3125 60.0625 41.71875 63.234375 
Q 38.140625 66.40625 31.78125 66.40625 
Q 25.390625 66.40625 21.84375 63.234375 
Q 18.3125 60.0625 18.3125 54.390625 
" id="DejaVuSans-38"/>
      </defs>
      <g transform="translate(399.939132 332.638438)scale(0.1 -0.1)">
       <use xlink:href="#DejaVuSans-38"/>
       <use x="63.623047" xlink:href="#DejaVuSans-30"/>
      </g>
     </g>
    </g>
    <g id="xtick_14">
     <g id="line2d_35">
      <g>
       <use style="stroke:#000000;stroke-width:0.8;" x="444.95068" xlink:href="#mc52ac787e5" y="318.04"/>
      </g>
     </g>
     <g id="text_30">
      <!-- 100 -->
      <g transform="translate(435.40693 332.638438)scale(0.1 -0.1)">
       <use xlink:href="#DejaVuSans-31"/>
       <use x="63.623047" xlink:href="#DejaVuSans-30"/>
       <use x="127.246094" xlink:href="#DejaVuSans-30"/>
      </g>
     </g>
    </g>
    <g id="xtick_15">
     <g id="line2d_36">
      <g>
       <use style="stroke:#000000;stroke-width:0.8;" x="483.599727" xlink:href="#mc52ac787e5" y="318.04"/>
      </g>
     </g>
     <g id="text_31">
      <!-- 120 -->
      <g transform="translate(474.055977 332.638438)scale(0.1 -0.1)">
       <use xlink:href="#DejaVuSans-31"/>
       <use x="63.623047" xlink:href="#DejaVuSans-32"/>
       <use x="127.246094" xlink:href="#DejaVuSans-30"/>
      </g>
     </g>
    </g>
    <g id="text_32">
     <!-- counts [norm.] per Gene -->
     <g transform="translate(300.231008 346.316563)scale(0.1 -0.1)">
      <use xlink:href="#DejaVuSans-63"/>
      <use x="54.980469" xlink:href="#DejaVuSans-6f"/>
      <use x="116.162109" xlink:href="#DejaVuSans-75"/>
      <use x="179.541016" xlink:href="#DejaVuSans-6e"/>
      <use x="242.919922" xlink:href="#DejaVuSans-74"/>
      <use x="282.128906" xlink:href="#DejaVuSans-73"/>
      <use x="334.228516" xlink:href="#DejaVuSans-20"/>
      <use x="366.015625" xlink:href="#DejaVuSans-5b"/>
      <use x="405.029297" xlink:href="#DejaVuSans-6e"/>
      <use x="468.408203" xlink:href="#DejaVuSans-6f"/>
      <use x="529.589844" xlink:href="#DejaVuSans-72"/>
      <use x="570.6875" xlink:href="#DejaVuSans-6d"/>
      <use x="668.099609" xlink:href="#DejaVuSans-2e"/>
      <use x="699.886719" xlink:href="#DejaVuSans-5d"/>
      <use x="738.900391" xlink:href="#DejaVuSans-20"/>
      <use x="770.6875" xlink:href="#DejaVuSans-70"/>
      <use x="834.164062" xlink:href="#DejaVuSans-65"/>
      <use x="895.6875" xlink:href="#DejaVuSans-72"/>
      <use x="936.800781" xlink:href="#DejaVuSans-20"/>
      <use x="968.587891" xlink:href="#DejaVuSans-47"/>
      <use x="1046.078125" xlink:href="#DejaVuSans-65"/>
      <use x="1107.601562" xlink:href="#DejaVuSans-6e"/>
      <use x="1170.980469" xlink:href="#DejaVuSans-65"/>
     </g>
    </g>
   </g>
   <g id="matplotlib.axis_8">
    <g id="ytick_10">
     <g id="line2d_37">
      <g>
       <use style="stroke:#000000;stroke-width:0.8;" x="239.627613" xlink:href="#m3f2d070e52" y="318.04"/>
      </g>
     </g>
     <g id="text_33">
      <!-- 0 -->
      <g transform="translate(226.265113 321.839219)scale(0.1 -0.1)">
       <use xlink:href="#DejaVuSans-30"/>
      </g>
     </g>
    </g>
    <g id="ytick_11">
     <g id="line2d_38">
      <g>
       <use style="stroke:#000000;stroke-width:0.8;" x="239.627613" xlink:href="#m3f2d070e52" y="282.476407"/>
      </g>
     </g>
     <g id="text_34">
      <!-- 500 -->
      <g transform="translate(213.540113 286.275626)scale(0.1 -0.1)">
       <use xlink:href="#DejaVuSans-35"/>
       <use x="63.623047" xlink:href="#DejaVuSans-30"/>
       <use x="127.246094" xlink:href="#DejaVuSans-30"/>
      </g>
     </g>
    </g>
    <g id="ytick_12">
     <g id="line2d_39">
      <g>
       <use style="stroke:#000000;stroke-width:0.8;" x="239.627613" xlink:href="#m3f2d070e52" y="246.912815"/>
      </g>
     </g>
     <g id="text_35">
      <!-- 1000 -->
      <g transform="translate(207.177613 250.712034)scale(0.1 -0.1)">
       <use xlink:href="#DejaVuSans-31"/>
       <use x="63.623047" xlink:href="#DejaVuSans-30"/>
       <use x="127.246094" xlink:href="#DejaVuSans-30"/>
       <use x="190.869141" xlink:href="#DejaVuSans-30"/>
      </g>
     </g>
    </g>
    <g id="ytick_13">
     <g id="line2d_40">
      <g>
       <use style="stroke:#000000;stroke-width:0.8;" x="239.627613" xlink:href="#m3f2d070e52" y="211.349222"/>
      </g>
     </g>
     <g id="text_36">
      <!-- 1500 -->
      <g transform="translate(207.177613 215.148441)scale(0.1 -0.1)">
       <use xlink:href="#DejaVuSans-31"/>
       <use x="63.623047" xlink:href="#DejaVuSans-35"/>
       <use x="127.246094" xlink:href="#DejaVuSans-30"/>
       <use x="190.869141" xlink:href="#DejaVuSans-30"/>
      </g>
     </g>
    </g>
    <g id="text_37">
     <!-- Number of Genes -->
     <g transform="translate(201.097926 302.924375)rotate(-90)scale(0.1 -0.1)">
      <use xlink:href="#DejaVuSans-4e"/>
      <use x="74.804688" xlink:href="#DejaVuSans-75"/>
      <use x="138.183594" xlink:href="#DejaVuSans-6d"/>
      <use x="235.595703" xlink:href="#DejaVuSans-62"/>
      <use x="299.072266" xlink:href="#DejaVuSans-65"/>
      <use x="360.595703" xlink:href="#DejaVuSans-72"/>
      <use x="401.708984" xlink:href="#DejaVuSans-20"/>
      <use x="433.496094" xlink:href="#DejaVuSans-6f"/>
      <use x="494.677734" xlink:href="#DejaVuSans-66"/>
      <use x="529.882812" xlink:href="#DejaVuSans-20"/>
      <use x="561.669922" xlink:href="#DejaVuSans-47"/>
      <use x="639.160156" xlink:href="#DejaVuSans-65"/>
      <use x="700.683594" xlink:href="#DejaVuSans-6e"/>
      <use x="764.0625" xlink:href="#DejaVuSans-65"/>
      <use x="825.585938" xlink:href="#DejaVuSans-73"/>
     </g>
    </g>
   </g>
   <g id="patch_168">
    <path d="M 239.627613 318.04 
L 239.627613 200.04 
" style="fill:none;stroke:#000000;stroke-linecap:square;stroke-linejoin:miter;stroke-width:0.8;"/>
   </g>
   <g id="patch_169">
    <path d="M 484.08284 318.04 
L 484.08284 200.04 
" style="fill:none;stroke:#000000;stroke-linecap:square;stroke-linejoin:miter;stroke-width:0.8;"/>
   </g>
   <g id="patch_170">
    <path d="M 239.627613 318.04 
L 484.08284 318.04 
" style="fill:none;stroke:#000000;stroke-linecap:square;stroke-linejoin:miter;stroke-width:0.8;"/>
   </g>
   <g id="patch_171">
    <path d="M 239.627613 200.04 
L 484.08284 200.04 
" style="fill:none;stroke:#000000;stroke-linecap:square;stroke-linejoin:miter;stroke-width:0.8;"/>
   </g>
   <g id="text_38">
    <!-- Control_2 Read Distribution -->
    <g transform="translate(279.059914 194.04)scale(0.12 -0.12)">
     <use xlink:href="#DejaVuSans-43"/>
     <use x="69.824219" xlink:href="#DejaVuSans-6f"/>
     <use x="131.005859" xlink:href="#DejaVuSans-6e"/>
     <use x="194.384766" xlink:href="#DejaVuSans-74"/>
     <use x="233.59375" xlink:href="#DejaVuSans-72"/>
     <use x="274.675781" xlink:href="#DejaVuSans-6f"/>
     <use x="335.857422" xlink:href="#DejaVuSans-6c"/>
     <use x="363.640625" xlink:href="#DejaVuSans-5f"/>
     <use x="413.640625" xlink:href="#DejaVuSans-32"/>
     <use x="477.263672" xlink:href="#DejaVuSans-20"/>
     <use x="509.050781" xlink:href="#DejaVuSans-52"/>
     <use x="578.470703" xlink:href="#DejaVuSans-65"/>
     <use x="639.994141" xlink:href="#DejaVuSans-61"/>
     <use x="701.273438" xlink:href="#DejaVuSans-64"/>
     <use x="764.75" xlink:href="#DejaVuSans-20"/>
     <use x="796.537109" xlink:href="#DejaVuSans-44"/>
     <use x="873.539062" xlink:href="#DejaVuSans-69"/>
     <use x="901.322266" xlink:href="#DejaVuSans-73"/>
     <use x="953.421875" xlink:href="#DejaVuSans-74"/>
     <use x="992.630859" xlink:href="#DejaVuSans-72"/>
     <use x="1033.744141" xlink:href="#DejaVuSans-69"/>
     <use x="1061.527344" xlink:href="#DejaVuSans-62"/>
     <use x="1125.003906" xlink:href="#DejaVuSans-75"/>
     <use x="1188.382812" xlink:href="#DejaVuSans-74"/>
     <use x="1227.591797" xlink:href="#DejaVuSans-69"/>
     <use x="1255.375" xlink:href="#DejaVuSans-6f"/>
     <use x="1316.556641" xlink:href="#DejaVuSans-6e"/>
    </g>
   </g>
  </g>
 </g>
 <defs>
  <clipPath id="p9c4b092507">
   <rect height="118" width="122.227613" x="51.05" y="25.44"/>
  </clipPath>
  <clipPath id="pc16d7ac8f8">
   <rect height="118" width="244.455227" x="239.627613" y="25.44"/>
  </clipPath>
  <clipPath id="p65aad440c3">
   <rect height="118" width="122.227613" x="51.05" y="200.04"/>
  </clipPath>
  <clipPath id="p271322b697">
   <rect height="118" width="244.455227" x="239.627613" y="200.04"/>
  </clipPath>
 </defs>
</svg>
