<?xml version="1.0" encoding="utf-8" standalone="no"?>
<!DOCTYPE svg PUBLIC "-//W3C//DTD SVG 1.1//EN"
  "http://www.w3.org/Graphics/SVG/1.1/DTD/svg11.dtd">
<!-- Created with matplotlib (http://matplotlib.org/) -->
<svg height="360pt" version="1.1" viewBox="0 0 432 360" width="432pt" xmlns="http://www.w3.org/2000/svg" xmlns:xlink="http://www.w3.org/1999/xlink">
 <defs>
  <style type="text/css">
*{stroke-linecap:butt;stroke-linejoin:round;}
  </style>
 </defs>
 <g id="figure_1">
  <g id="patch_1">
   <path d="M 0 360 
L 432 360 
L 432 0 
L 0 0 
z
" style="fill:#ffffff;"/>
  </g>
  <g id="axes_1">
   <g id="patch_2">
    <path d="M 47.9 142 
L 151.086667 142 
L 151.086667 29.76 
L 47.9 29.76 
z
" style="fill:#ffffff;"/>
   </g>
   <g id="matplotlib.axis_1"/>
   <g id="matplotlib.axis_2">
    <g id="ytick_1">
     <g id="line2d_1">
      <defs>
       <path d="M 0 0 
L -3.5 0 
" id="me10fe6b709" style="stroke:#000000;stroke-width:0.8;"/>
      </defs>
      <g>
       <use style="stroke:#000000;stroke-width:0.8;" x="47.9" xlink:href="#me10fe6b709" y="136.898182"/>
      </g>
     </g>
     <g id="text_1">
      <!-- 0 -->
      <defs>
       <path d="M 31.78125 66.40625 
Q 24.171875 66.40625 20.328125 58.90625 
Q 16.5 51.421875 16.5 36.375 
Q 16.5 21.390625 20.328125 13.890625 
Q 24.171875 6.390625 31.78125 6.390625 
Q 39.453125 6.390625 43.28125 13.890625 
Q 47.125 21.390625 47.125 36.375 
Q 47.125 51.421875 43.28125 58.90625 
Q 39.453125 66.40625 31.78125 66.40625 
z
M 31.78125 74.21875 
Q 44.046875 74.21875 50.515625 64.515625 
Q 56.984375 54.828125 56.984375 36.375 
Q 56.984375 17.96875 50.515625 8.265625 
Q 44.046875 -1.421875 31.78125 -1.421875 
Q 19.53125 -1.421875 13.0625 8.265625 
Q 6.59375 17.96875 6.59375 36.375 
Q 6.59375 54.828125 13.0625 64.515625 
Q 19.53125 74.21875 31.78125 74.21875 
z
" id="DejaVuSans-30"/>
      </defs>
      <g transform="translate(33.265 141.457244)scale(0.12 -0.12)">
       <use xlink:href="#DejaVuSans-30"/>
      </g>
     </g>
    </g>
    <g id="ytick_2">
     <g id="line2d_2">
      <g>
       <use style="stroke:#000000;stroke-width:0.8;" x="47.9" xlink:href="#me10fe6b709" y="100.747157"/>
      </g>
     </g>
     <g id="text_2">
      <!-- 1 -->
      <defs>
       <path d="M 12.40625 8.296875 
L 28.515625 8.296875 
L 28.515625 63.921875 
L 10.984375 60.40625 
L 10.984375 69.390625 
L 28.421875 72.90625 
L 38.28125 72.90625 
L 38.28125 8.296875 
L 54.390625 8.296875 
L 54.390625 0 
L 12.40625 0 
z
" id="DejaVuSans-31"/>
      </defs>
      <g transform="translate(33.265 105.30622)scale(0.12 -0.12)">
       <use xlink:href="#DejaVuSans-31"/>
      </g>
     </g>
    </g>
    <g id="ytick_3">
     <g id="line2d_3">
      <g>
       <use style="stroke:#000000;stroke-width:0.8;" x="47.9" xlink:href="#me10fe6b709" y="64.596133"/>
      </g>
     </g>
     <g id="text_3">
      <!-- 2 -->
      <defs>
       <path d="M 19.1875 8.296875 
L 53.609375 8.296875 
L 53.609375 0 
L 7.328125 0 
L 7.328125 8.296875 
Q 12.9375 14.109375 22.625 23.890625 
Q 32.328125 33.6875 34.8125 36.53125 
Q 39.546875 41.84375 41.421875 45.53125 
Q 43.3125 49.21875 43.3125 52.78125 
Q 43.3125 58.59375 39.234375 62.25 
Q 35.15625 65.921875 28.609375 65.921875 
Q 23.96875 65.921875 18.8125 64.3125 
Q 13.671875 62.703125 7.8125 59.421875 
L 7.8125 69.390625 
Q 13.765625 71.78125 18.9375 73 
Q 24.125 74.21875 28.421875 74.21875 
Q 39.75 74.21875 46.484375 68.546875 
Q 53.21875 62.890625 53.21875 53.421875 
Q 53.21875 48.921875 51.53125 44.890625 
Q 49.859375 40.875 45.40625 35.40625 
Q 44.1875 33.984375 37.640625 27.21875 
Q 31.109375 20.453125 19.1875 8.296875 
z
" id="DejaVuSans-32"/>
      </defs>
      <g transform="translate(33.265 69.155195)scale(0.12 -0.12)">
       <use xlink:href="#DejaVuSans-32"/>
      </g>
     </g>
    </g>
    <g id="text_4">
     <!-- Counts per sgRNA -->
     <defs>
      <path d="M 64.40625 67.28125 
L 64.40625 56.890625 
Q 59.421875 61.53125 53.78125 63.8125 
Q 48.140625 66.109375 41.796875 66.109375 
Q 29.296875 66.109375 22.65625 58.46875 
Q 16.015625 50.828125 16.015625 36.375 
Q 16.015625 21.96875 22.65625 14.328125 
Q 29.296875 6.6875 41.796875 6.6875 
Q 48.140625 6.6875 53.78125 8.984375 
Q 59.421875 11.28125 64.40625 15.921875 
L 64.40625 5.609375 
Q 59.234375 2.09375 53.4375 0.328125 
Q 47.65625 -1.421875 41.21875 -1.421875 
Q 24.65625 -1.421875 15.125 8.703125 
Q 5.609375 18.84375 5.609375 36.375 
Q 5.609375 53.953125 15.125 64.078125 
Q 24.65625 74.21875 41.21875 74.21875 
Q 47.75 74.21875 53.53125 72.484375 
Q 59.328125 70.75 64.40625 67.28125 
z
" id="DejaVuSans-43"/>
      <path d="M 30.609375 48.390625 
Q 23.390625 48.390625 19.1875 42.75 
Q 14.984375 37.109375 14.984375 27.296875 
Q 14.984375 17.484375 19.15625 11.84375 
Q 23.34375 6.203125 30.609375 6.203125 
Q 37.796875 6.203125 41.984375 11.859375 
Q 46.1875 17.53125 46.1875 27.296875 
Q 46.1875 37.015625 41.984375 42.703125 
Q 37.796875 48.390625 30.609375 48.390625 
z
M 30.609375 56 
Q 42.328125 56 49.015625 48.375 
Q 55.71875 40.765625 55.71875 27.296875 
Q 55.71875 13.875 49.015625 6.21875 
Q 42.328125 -1.421875 30.609375 -1.421875 
Q 18.84375 -1.421875 12.171875 6.21875 
Q 5.515625 13.875 5.515625 27.296875 
Q 5.515625 40.765625 12.171875 48.375 
Q 18.84375 56 30.609375 56 
z
" id="DejaVuSans-6f"/>
      <path d="M 8.5 21.578125 
L 8.5 54.6875 
L 17.484375 54.6875 
L 17.484375 21.921875 
Q 17.484375 14.15625 20.5 10.265625 
Q 23.53125 6.390625 29.59375 6.390625 
Q 36.859375 6.390625 41.078125 11.03125 
Q 45.3125 15.671875 45.3125 23.6875 
L 45.3125 54.6875 
L 54.296875 54.6875 
L 54.296875 0 
L 45.3125 0 
L 45.3125 8.40625 
Q 42.046875 3.421875 37.71875 1 
Q 33.40625 -1.421875 27.6875 -1.421875 
Q 18.265625 -1.421875 13.375 4.4375 
Q 8.5 10.296875 8.5 21.578125 
z
M 31.109375 56 
z
" id="DejaVuSans-75"/>
      <path d="M 54.890625 33.015625 
L 54.890625 0 
L 45.90625 0 
L 45.90625 32.71875 
Q 45.90625 40.484375 42.875 44.328125 
Q 39.84375 48.1875 33.796875 48.1875 
Q 26.515625 48.1875 22.3125 43.546875 
Q 18.109375 38.921875 18.109375 30.90625 
L 18.109375 0 
L 9.078125 0 
L 9.078125 54.6875 
L 18.109375 54.6875 
L 18.109375 46.1875 
Q 21.34375 51.125 25.703125 53.5625 
Q 30.078125 56 35.796875 56 
Q 45.21875 56 50.046875 50.171875 
Q 54.890625 44.34375 54.890625 33.015625 
z
" id="DejaVuSans-6e"/>
      <path d="M 18.3125 70.21875 
L 18.3125 54.6875 
L 36.8125 54.6875 
L 36.8125 47.703125 
L 18.3125 47.703125 
L 18.3125 18.015625 
Q 18.3125 11.328125 20.140625 9.421875 
Q 21.96875 7.515625 27.59375 7.515625 
L 36.8125 7.515625 
L 36.8125 0 
L 27.59375 0 
Q 17.1875 0 13.234375 3.875 
Q 9.28125 7.765625 9.28125 18.015625 
L 9.28125 47.703125 
L 2.6875 47.703125 
L 2.6875 54.6875 
L 9.28125 54.6875 
L 9.28125 70.21875 
z
" id="DejaVuSans-74"/>
      <path d="M 44.28125 53.078125 
L 44.28125 44.578125 
Q 40.484375 46.53125 36.375 47.5 
Q 32.28125 48.484375 27.875 48.484375 
Q 21.1875 48.484375 17.84375 46.4375 
Q 14.5 44.390625 14.5 40.28125 
Q 14.5 37.15625 16.890625 35.375 
Q 19.28125 33.59375 26.515625 31.984375 
L 29.59375 31.296875 
Q 39.15625 29.25 43.1875 25.515625 
Q 47.21875 21.78125 47.21875 15.09375 
Q 47.21875 7.46875 41.1875 3.015625 
Q 35.15625 -1.421875 24.609375 -1.421875 
Q 20.21875 -1.421875 15.453125 -0.5625 
Q 10.6875 0.296875 5.421875 2 
L 5.421875 11.28125 
Q 10.40625 8.6875 15.234375 7.390625 
Q 20.0625 6.109375 24.8125 6.109375 
Q 31.15625 6.109375 34.5625 8.28125 
Q 37.984375 10.453125 37.984375 14.40625 
Q 37.984375 18.0625 35.515625 20.015625 
Q 33.0625 21.96875 24.703125 23.78125 
L 21.578125 24.515625 
Q 13.234375 26.265625 9.515625 29.90625 
Q 5.8125 33.546875 5.8125 39.890625 
Q 5.8125 47.609375 11.28125 51.796875 
Q 16.75 56 26.8125 56 
Q 31.78125 56 36.171875 55.265625 
Q 40.578125 54.546875 44.28125 53.078125 
z
" id="DejaVuSans-73"/>
      <path id="DejaVuSans-20"/>
      <path d="M 18.109375 8.203125 
L 18.109375 -20.796875 
L 9.078125 -20.796875 
L 9.078125 54.6875 
L 18.109375 54.6875 
L 18.109375 46.390625 
Q 20.953125 51.265625 25.265625 53.625 
Q 29.59375 56 35.59375 56 
Q 45.5625 56 51.78125 48.09375 
Q 58.015625 40.1875 58.015625 27.296875 
Q 58.015625 14.40625 51.78125 6.484375 
Q 45.5625 -1.421875 35.59375 -1.421875 
Q 29.59375 -1.421875 25.265625 0.953125 
Q 20.953125 3.328125 18.109375 8.203125 
z
M 48.6875 27.296875 
Q 48.6875 37.203125 44.609375 42.84375 
Q 40.53125 48.484375 33.40625 48.484375 
Q 26.265625 48.484375 22.1875 42.84375 
Q 18.109375 37.203125 18.109375 27.296875 
Q 18.109375 17.390625 22.1875 11.75 
Q 26.265625 6.109375 33.40625 6.109375 
Q 40.53125 6.109375 44.609375 11.75 
Q 48.6875 17.390625 48.6875 27.296875 
z
" id="DejaVuSans-70"/>
      <path d="M 56.203125 29.59375 
L 56.203125 25.203125 
L 14.890625 25.203125 
Q 15.484375 15.921875 20.484375 11.0625 
Q 25.484375 6.203125 34.421875 6.203125 
Q 39.59375 6.203125 44.453125 7.46875 
Q 49.3125 8.734375 54.109375 11.28125 
L 54.109375 2.78125 
Q 49.265625 0.734375 44.1875 -0.34375 
Q 39.109375 -1.421875 33.890625 -1.421875 
Q 20.796875 -1.421875 13.15625 6.1875 
Q 5.515625 13.8125 5.515625 26.8125 
Q 5.515625 40.234375 12.765625 48.109375 
Q 20.015625 56 32.328125 56 
Q 43.359375 56 49.78125 48.890625 
Q 56.203125 41.796875 56.203125 29.59375 
z
M 47.21875 32.234375 
Q 47.125 39.59375 43.09375 43.984375 
Q 39.0625 48.390625 32.421875 48.390625 
Q 24.90625 48.390625 20.390625 44.140625 
Q 15.875 39.890625 15.1875 32.171875 
z
" id="DejaVuSans-65"/>
      <path d="M 41.109375 46.296875 
Q 39.59375 47.171875 37.8125 47.578125 
Q 36.03125 48 33.890625 48 
Q 26.265625 48 22.1875 43.046875 
Q 18.109375 38.09375 18.109375 28.8125 
L 18.109375 0 
L 9.078125 0 
L 9.078125 54.6875 
L 18.109375 54.6875 
L 18.109375 46.1875 
Q 20.953125 51.171875 25.484375 53.578125 
Q 30.03125 56 36.53125 56 
Q 37.453125 56 38.578125 55.875 
Q 39.703125 55.765625 41.0625 55.515625 
z
" id="DejaVuSans-72"/>
      <path d="M 45.40625 27.984375 
Q 45.40625 37.75 41.375 43.109375 
Q 37.359375 48.484375 30.078125 48.484375 
Q 22.859375 48.484375 18.828125 43.109375 
Q 14.796875 37.75 14.796875 27.984375 
Q 14.796875 18.265625 18.828125 12.890625 
Q 22.859375 7.515625 30.078125 7.515625 
Q 37.359375 7.515625 41.375 12.890625 
Q 45.40625 18.265625 45.40625 27.984375 
z
M 54.390625 6.78125 
Q 54.390625 -7.171875 48.1875 -13.984375 
Q 42 -20.796875 29.203125 -20.796875 
Q 24.46875 -20.796875 20.265625 -20.09375 
Q 16.0625 -19.390625 12.109375 -17.921875 
L 12.109375 -9.1875 
Q 16.0625 -11.328125 19.921875 -12.34375 
Q 23.78125 -13.375 27.78125 -13.375 
Q 36.625 -13.375 41.015625 -8.765625 
Q 45.40625 -4.15625 45.40625 5.171875 
L 45.40625 9.625 
Q 42.625 4.78125 38.28125 2.390625 
Q 33.9375 0 27.875 0 
Q 17.828125 0 11.671875 7.65625 
Q 5.515625 15.328125 5.515625 27.984375 
Q 5.515625 40.671875 11.671875 48.328125 
Q 17.828125 56 27.875 56 
Q 33.9375 56 38.28125 53.609375 
Q 42.625 51.21875 45.40625 46.390625 
L 45.40625 54.6875 
L 54.390625 54.6875 
z
" id="DejaVuSans-67"/>
      <path d="M 44.390625 34.1875 
Q 47.5625 33.109375 50.5625 29.59375 
Q 53.5625 26.078125 56.59375 19.921875 
L 66.609375 0 
L 56 0 
L 46.6875 18.703125 
Q 43.0625 26.03125 39.671875 28.421875 
Q 36.28125 30.8125 30.421875 30.8125 
L 19.671875 30.8125 
L 19.671875 0 
L 9.8125 0 
L 9.8125 72.90625 
L 32.078125 72.90625 
Q 44.578125 72.90625 50.734375 67.671875 
Q 56.890625 62.453125 56.890625 51.90625 
Q 56.890625 45.015625 53.6875 40.46875 
Q 50.484375 35.9375 44.390625 34.1875 
z
M 19.671875 64.796875 
L 19.671875 38.921875 
L 32.078125 38.921875 
Q 39.203125 38.921875 42.84375 42.21875 
Q 46.484375 45.515625 46.484375 51.90625 
Q 46.484375 58.296875 42.84375 61.546875 
Q 39.203125 64.796875 32.078125 64.796875 
z
" id="DejaVuSans-52"/>
      <path d="M 9.8125 72.90625 
L 23.09375 72.90625 
L 55.421875 11.921875 
L 55.421875 72.90625 
L 64.984375 72.90625 
L 64.984375 0 
L 51.703125 0 
L 19.390625 60.984375 
L 19.390625 0 
L 9.8125 0 
z
" id="DejaVuSans-4e"/>
      <path d="M 34.1875 63.1875 
L 20.796875 26.90625 
L 47.609375 26.90625 
z
M 28.609375 72.90625 
L 39.796875 72.90625 
L 67.578125 0 
L 57.328125 0 
L 50.6875 18.703125 
L 17.828125 18.703125 
L 11.1875 0 
L 0.78125 0 
z
" id="DejaVuSans-41"/>
     </defs>
     <g transform="translate(26.769375 140.301875)rotate(-90)scale(0.12 -0.12)">
      <use xlink:href="#DejaVuSans-43"/>
      <use x="69.824219" xlink:href="#DejaVuSans-6f"/>
      <use x="131.005859" xlink:href="#DejaVuSans-75"/>
      <use x="194.384766" xlink:href="#DejaVuSans-6e"/>
      <use x="257.763672" xlink:href="#DejaVuSans-74"/>
      <use x="296.972656" xlink:href="#DejaVuSans-73"/>
      <use x="349.072266" xlink:href="#DejaVuSans-20"/>
      <use x="380.859375" xlink:href="#DejaVuSans-70"/>
      <use x="444.335938" xlink:href="#DejaVuSans-65"/>
      <use x="505.859375" xlink:href="#DejaVuSans-72"/>
      <use x="546.972656" xlink:href="#DejaVuSans-20"/>
      <use x="578.759766" xlink:href="#DejaVuSans-73"/>
      <use x="630.859375" xlink:href="#DejaVuSans-67"/>
      <use x="694.335938" xlink:href="#DejaVuSans-52"/>
      <use x="763.818359" xlink:href="#DejaVuSans-4e"/>
      <use x="838.623047" xlink:href="#DejaVuSans-41"/>
     </g>
    </g>
   </g>
   <g id="line2d_4">
    <path clip-path="url(#p578da17de2)" d="M 99.493333 136.898182 
L 99.493333 136.898182 
" style="fill:none;stroke:#000000;stroke-linecap:square;"/>
   </g>
   <g id="line2d_5">
    <path clip-path="url(#p578da17de2)" d="M 99.493333 85.88 
L 99.493333 34.861818 
" style="fill:none;stroke:#000000;stroke-linecap:square;"/>
   </g>
   <g id="line2d_6">
    <path clip-path="url(#p578da17de2)" d="M 95.623833 136.898182 
L 103.362833 136.898182 
" style="fill:none;stroke:#000000;stroke-linecap:square;"/>
   </g>
   <g id="line2d_7">
    <path clip-path="url(#p578da17de2)" d="M 95.623833 34.861818 
L 103.362833 34.861818 
" style="fill:none;stroke:#000000;stroke-linecap:square;"/>
   </g>
   <g id="patch_3">
    <path clip-path="url(#p578da17de2)" d="M 91.754333 136.898182 
L 107.232333 136.898182 
L 107.232333 85.88 
L 91.754333 85.88 
L 91.754333 136.898182 
z
" style="fill:#92fcae;stroke:#000000;stroke-linejoin:miter;"/>
   </g>
   <g id="line2d_8">
    <path clip-path="url(#p578da17de2)" d="M 91.754333 136.898182 
L 107.232333 136.898182 
" style="fill:none;stroke:#ff0000;stroke-linecap:square;"/>
   </g>
   <g id="patch_4">
    <path d="M 47.9 142 
L 47.9 29.76 
" style="fill:none;stroke:#000000;stroke-linecap:square;stroke-linejoin:miter;stroke-width:0.8;"/>
   </g>
   <g id="patch_5">
    <path d="M 151.086667 142 
L 151.086667 29.76 
" style="fill:none;stroke:#000000;stroke-linecap:square;stroke-linejoin:miter;stroke-width:0.8;"/>
   </g>
   <g id="patch_6">
    <path d="M 47.9 142 
L 151.086667 142 
" style="fill:none;stroke:#000000;stroke-linecap:square;stroke-linejoin:miter;stroke-width:0.8;"/>
   </g>
   <g id="patch_7">
    <path d="M 47.9 29.76 
L 151.086667 29.76 
" style="fill:none;stroke:#000000;stroke-linecap:square;stroke-linejoin:miter;stroke-width:0.8;"/>
   </g>
  </g>
  <g id="axes_2">
   <g id="patch_8">
    <path d="M 212.306667 142 
L 418.68 142 
L 418.68 29.76 
L 212.306667 29.76 
z
" style="fill:#ffffff;"/>
   </g>
   <g id="patch_9">
    <path clip-path="url(#p315fb99897)" d="M 247.95297 142 
L 251.705212 142 
L 251.705212 35.104762 
L 247.95297 35.104762 
z
" style="fill:#008000;"/>
   </g>
   <g id="patch_10">
    <path clip-path="url(#p315fb99897)" d="M 251.705212 142 
L 255.457455 142 
L 255.457455 128.163919 
L 251.705212 128.163919 
z
" style="fill:#008000;"/>
   </g>
   <g id="patch_11">
    <path clip-path="url(#p315fb99897)" d="M 255.457455 142 
L 259.209697 142 
L 259.209697 135.089229 
L 255.457455 135.089229 
z
" style="fill:#008000;"/>
   </g>
   <g id="patch_12">
    <path clip-path="url(#p315fb99897)" d="M 259.209697 142 
L 262.961939 142 
L 262.961939 142 
L 259.209697 142 
z
" style="fill:#008000;"/>
   </g>
   <g id="patch_13">
    <path clip-path="url(#p315fb99897)" d="M 262.961939 142 
L 266.714182 142 
L 266.714182 137.725596 
L 262.961939 137.725596 
z
" style="fill:#008000;"/>
   </g>
   <g id="patch_14">
    <path clip-path="url(#p315fb99897)" d="M 266.714182 142 
L 270.466424 142 
L 270.466424 138.95897 
L 266.714182 138.95897 
z
" style="fill:#008000;"/>
   </g>
   <g id="patch_15">
    <path clip-path="url(#p315fb99897)" d="M 270.466424 142 
L 274.218667 142 
L 274.218667 142 
L 270.466424 142 
z
" style="fill:#008000;"/>
   </g>
   <g id="patch_16">
    <path clip-path="url(#p315fb99897)" d="M 274.218667 142 
L 277.970909 142 
L 277.970909 139.651985 
L 274.218667 139.651985 
z
" style="fill:#008000;"/>
   </g>
   <g id="patch_17">
    <path clip-path="url(#p315fb99897)" d="M 277.970909 142 
L 281.723152 142 
L 281.723152 140.255345 
L 277.970909 140.255345 
z
" style="fill:#008000;"/>
   </g>
   <g id="patch_18">
    <path clip-path="url(#p315fb99897)" d="M 281.723152 142 
L 285.475394 142 
L 285.475394 140.669701 
L 281.723152 140.669701 
z
" style="fill:#008000;"/>
   </g>
   <g id="patch_19">
    <path clip-path="url(#p315fb99897)" d="M 285.475394 142 
L 289.227636 142 
L 289.227636 142 
L 285.475394 142 
z
" style="fill:#008000;"/>
   </g>
   <g id="patch_20">
    <path clip-path="url(#p315fb99897)" d="M 289.227636 142 
L 292.979879 142 
L 292.979879 140.85507 
L 289.227636 140.85507 
z
" style="fill:#008000;"/>
   </g>
   <g id="patch_21">
    <path clip-path="url(#p315fb99897)" d="M 292.979879 142 
L 296.732121 142 
L 296.732121 141.075575 
L 292.979879 141.075575 
z
" style="fill:#008000;"/>
   </g>
   <g id="patch_22">
    <path clip-path="url(#p315fb99897)" d="M 296.732121 142 
L 300.484364 142 
L 300.484364 142 
L 296.732121 142 
z
" style="fill:#008000;"/>
   </g>
   <g id="patch_23">
    <path clip-path="url(#p315fb99897)" d="M 300.484364 142 
L 304.236606 142 
L 304.236606 141.282753 
L 300.484364 141.282753 
z
" style="fill:#008000;"/>
   </g>
   <g id="patch_24">
    <path clip-path="url(#p315fb99897)" d="M 304.236606 142 
L 307.988848 142 
L 307.988848 141.424506 
L 304.236606 141.424506 
z
" style="fill:#008000;"/>
   </g>
   <g id="patch_25">
    <path clip-path="url(#p315fb99897)" d="M 307.988848 142 
L 311.741091 142 
L 311.741091 141.480238 
L 307.988848 141.480238 
z
" style="fill:#008000;"/>
   </g>
   <g id="patch_26">
    <path clip-path="url(#p315fb99897)" d="M 311.741091 142 
L 315.493333 142 
L 315.493333 142 
L 311.741091 142 
z
" style="fill:#008000;"/>
   </g>
   <g id="patch_27">
    <path clip-path="url(#p315fb99897)" d="M 315.493333 142 
L 319.245576 142 
L 319.245576 141.619568 
L 315.493333 141.619568 
z
" style="fill:#008000;"/>
   </g>
   <g id="patch_28">
    <path clip-path="url(#p315fb99897)" d="M 319.245576 142 
L 322.997818 142 
L 322.997818 141.651069 
L 319.245576 141.651069 
z
" style="fill:#008000;"/>
   </g>
   <g id="patch_29">
    <path clip-path="url(#p315fb99897)" d="M 322.997818 142 
L 326.750061 142 
L 326.750061 142 
L 322.997818 142 
z
" style="fill:#008000;"/>
   </g>
   <g id="patch_30">
    <path clip-path="url(#p315fb99897)" d="M 326.750061 142 
L 330.502303 142 
L 330.502303 141.731032 
L 326.750061 141.731032 
z
" style="fill:#008000;"/>
   </g>
   <g id="patch_31">
    <path clip-path="url(#p315fb99897)" d="M 330.502303 142 
L 334.254545 142 
L 334.254545 141.804938 
L 330.502303 141.804938 
z
" style="fill:#008000;"/>
   </g>
   <g id="patch_32">
    <path clip-path="url(#p315fb99897)" d="M 334.254545 142 
L 338.006788 142 
L 338.006788 141.810996 
L 334.254545 141.810996 
z
" style="fill:#008000;"/>
   </g>
   <g id="patch_33">
    <path clip-path="url(#p315fb99897)" d="M 338.006788 142 
L 341.75903 142 
L 341.75903 142 
L 338.006788 142 
z
" style="fill:#008000;"/>
   </g>
   <g id="patch_34">
    <path clip-path="url(#p315fb99897)" d="M 341.75903 142 
L 345.511273 142 
L 345.511273 141.836439 
L 341.75903 141.836439 
z
" style="fill:#008000;"/>
   </g>
   <g id="patch_35">
    <path clip-path="url(#p315fb99897)" d="M 345.511273 142 
L 349.263515 142 
L 349.263515 141.853401 
L 345.511273 141.853401 
z
" style="fill:#008000;"/>
   </g>
   <g id="patch_36">
    <path clip-path="url(#p315fb99897)" d="M 349.263515 142 
L 353.015758 142 
L 353.015758 142 
L 349.263515 142 
z
" style="fill:#008000;"/>
   </g>
   <g id="patch_37">
    <path clip-path="url(#p315fb99897)" d="M 353.015758 142 
L 356.768 142 
L 356.768 141.863093 
L 353.015758 141.863093 
z
" style="fill:#008000;"/>
   </g>
   <g id="patch_38">
    <path clip-path="url(#p315fb99897)" d="M 356.768 142 
L 360.520242 142 
L 360.520242 141.886113 
L 356.768 141.886113 
z
" style="fill:#008000;"/>
   </g>
   <g id="patch_39">
    <path clip-path="url(#p315fb99897)" d="M 360.520242 142 
L 364.272485 142 
L 364.272485 142 
L 360.520242 142 
z
" style="fill:#008000;"/>
   </g>
   <g id="patch_40">
    <path clip-path="url(#p315fb99897)" d="M 364.272485 142 
L 368.024727 142 
L 368.024727 141.918825 
L 364.272485 141.918825 
z
" style="fill:#008000;"/>
   </g>
   <g id="patch_41">
    <path clip-path="url(#p315fb99897)" d="M 368.024727 142 
L 371.77697 142 
L 371.77697 141.926094 
L 368.024727 141.926094 
z
" style="fill:#008000;"/>
   </g>
   <g id="patch_42">
    <path clip-path="url(#p315fb99897)" d="M 371.77697 142 
L 375.529212 142 
L 375.529212 141.911556 
L 371.77697 141.911556 
z
" style="fill:#008000;"/>
   </g>
   <g id="patch_43">
    <path clip-path="url(#p315fb99897)" d="M 375.529212 142 
L 379.281455 142 
L 379.281455 142 
L 375.529212 142 
z
" style="fill:#008000;"/>
   </g>
   <g id="patch_44">
    <path clip-path="url(#p315fb99897)" d="M 379.281455 142 
L 383.033697 142 
L 383.033697 141.944268 
L 379.281455 141.944268 
z
" style="fill:#008000;"/>
   </g>
   <g id="patch_45">
    <path clip-path="url(#p315fb99897)" d="M 383.033697 142 
L 386.785939 142 
L 386.785939 141.935787 
L 383.033697 141.935787 
z
" style="fill:#008000;"/>
   </g>
   <g id="patch_46">
    <path clip-path="url(#p315fb99897)" d="M 386.785939 142 
L 390.538182 142 
L 390.538182 142 
L 386.785939 142 
z
" style="fill:#008000;"/>
   </g>
   <g id="patch_47">
    <path clip-path="url(#p315fb99897)" d="M 390.538182 142 
L 394.290424 142 
L 394.290424 141.951537 
L 390.538182 141.951537 
z
" style="fill:#008000;"/>
   </g>
   <g id="patch_48">
    <path clip-path="url(#p315fb99897)" d="M 394.290424 142 
L 398.042667 142 
L 398.042667 141.952749 
L 394.290424 141.952749 
z
" style="fill:#008000;"/>
   </g>
   <g id="patch_49">
    <path clip-path="url(#p315fb99897)" d="M 398.042667 142 
L 401.794909 142 
L 401.794909 141.957595 
L 398.042667 141.957595 
z
" style="fill:#008000;"/>
   </g>
   <g id="patch_50">
    <path clip-path="url(#p315fb99897)" d="M 401.794909 142 
L 405.547152 142 
L 405.547152 142 
L 401.794909 142 
z
" style="fill:#008000;"/>
   </g>
   <g id="patch_51">
    <path clip-path="url(#p315fb99897)" d="M 405.547152 142 
L 409.299394 142 
L 409.299394 141.967288 
L 405.547152 141.967288 
z
" style="fill:#008000;"/>
   </g>
   <g id="patch_52">
    <path clip-path="url(#p315fb99897)" d="M 409.299394 142 
L 413.051636 142 
L 413.051636 141.950326 
L 409.299394 141.950326 
z
" style="fill:#008000;"/>
   </g>
   <g id="patch_53">
    <path clip-path="url(#p315fb99897)" d="M 413.051636 142 
L 416.803879 142 
L 416.803879 142 
L 413.051636 142 
z
" style="fill:#008000;"/>
   </g>
   <g id="patch_54">
    <path clip-path="url(#p315fb99897)" d="M 416.803879 142 
L 420.556121 142 
L 420.556121 142 
L 416.803879 142 
z
" style="fill:#008000;"/>
   </g>
   <g id="matplotlib.axis_3">
    <g id="xtick_1">
     <g id="line2d_9">
      <defs>
       <path d="M 0 0 
L 0 3.5 
" id="m2a34d4a05b" style="stroke:#000000;stroke-width:0.8;"/>
      </defs>
      <g>
       <use style="stroke:#000000;stroke-width:0.8;" x="249.829091" xlink:href="#m2a34d4a05b" y="142"/>
      </g>
     </g>
     <g id="text_5">
      <!-- 0 -->
      <g transform="translate(246.011591 158.118125)scale(0.12 -0.12)">
       <use xlink:href="#DejaVuSans-30"/>
      </g>
     </g>
    </g>
    <g id="xtick_2">
     <g id="line2d_10">
      <g>
       <use style="stroke:#000000;stroke-width:0.8;" x="324.873939" xlink:href="#m2a34d4a05b" y="142"/>
      </g>
     </g>
     <g id="text_6">
      <!-- 20 -->
      <g transform="translate(317.238939 158.118125)scale(0.12 -0.12)">
       <use xlink:href="#DejaVuSans-32"/>
       <use x="63.623047" xlink:href="#DejaVuSans-30"/>
      </g>
     </g>
    </g>
    <g id="xtick_3">
     <g id="line2d_11">
      <g>
       <use style="stroke:#000000;stroke-width:0.8;" x="399.918788" xlink:href="#m2a34d4a05b" y="142"/>
      </g>
     </g>
     <g id="text_7">
      <!-- 40 -->
      <defs>
       <path d="M 37.796875 64.3125 
L 12.890625 25.390625 
L 37.796875 25.390625 
z
M 35.203125 72.90625 
L 47.609375 72.90625 
L 47.609375 25.390625 
L 58.015625 25.390625 
L 58.015625 17.1875 
L 47.609375 17.1875 
L 47.609375 0 
L 37.796875 0 
L 37.796875 17.1875 
L 4.890625 17.1875 
L 4.890625 26.703125 
z
" id="DejaVuSans-34"/>
      </defs>
      <g transform="translate(392.283788 158.118125)scale(0.12 -0.12)">
       <use xlink:href="#DejaVuSans-34"/>
       <use x="63.623047" xlink:href="#DejaVuSans-30"/>
      </g>
     </g>
    </g>
    <g id="text_8">
     <!-- Counts per sgRNA -->
     <g transform="translate(261.071458 173.731875)scale(0.12 -0.12)">
      <use xlink:href="#DejaVuSans-43"/>
      <use x="69.824219" xlink:href="#DejaVuSans-6f"/>
      <use x="131.005859" xlink:href="#DejaVuSans-75"/>
      <use x="194.384766" xlink:href="#DejaVuSans-6e"/>
      <use x="257.763672" xlink:href="#DejaVuSans-74"/>
      <use x="296.972656" xlink:href="#DejaVuSans-73"/>
      <use x="349.072266" xlink:href="#DejaVuSans-20"/>
      <use x="380.859375" xlink:href="#DejaVuSans-70"/>
      <use x="444.335938" xlink:href="#DejaVuSans-65"/>
      <use x="505.859375" xlink:href="#DejaVuSans-72"/>
      <use x="546.972656" xlink:href="#DejaVuSans-20"/>
      <use x="578.759766" xlink:href="#DejaVuSans-73"/>
      <use x="630.859375" xlink:href="#DejaVuSans-67"/>
      <use x="694.335938" xlink:href="#DejaVuSans-52"/>
      <use x="763.818359" xlink:href="#DejaVuSans-4e"/>
      <use x="838.623047" xlink:href="#DejaVuSans-41"/>
     </g>
    </g>
   </g>
   <g id="matplotlib.axis_4">
    <g id="ytick_4">
     <g id="line2d_12">
      <g>
       <use style="stroke:#000000;stroke-width:0.8;" x="212.306667" xlink:href="#me10fe6b709" y="142"/>
      </g>
     </g>
     <g id="text_9">
      <!-- 0k -->
      <defs>
       <path d="M 9.078125 75.984375 
L 18.109375 75.984375 
L 18.109375 31.109375 
L 44.921875 54.6875 
L 56.390625 54.6875 
L 27.390625 29.109375 
L 57.625 0 
L 45.90625 0 
L 18.109375 26.703125 
L 18.109375 0 
L 9.078125 0 
z
" id="DejaVuSans-6b"/>
      </defs>
      <g transform="translate(190.722917 146.559063)scale(0.12 -0.12)">
       <use xlink:href="#DejaVuSans-30"/>
       <use x="63.623047" xlink:href="#DejaVuSans-6b"/>
      </g>
     </g>
    </g>
    <g id="ytick_5">
     <g id="line2d_13">
      <g>
       <use style="stroke:#000000;stroke-width:0.8;" x="212.306667" xlink:href="#me10fe6b709" y="111.710855"/>
      </g>
     </g>
     <g id="text_10">
      <!-- 25k -->
      <defs>
       <path d="M 10.796875 72.90625 
L 49.515625 72.90625 
L 49.515625 64.59375 
L 19.828125 64.59375 
L 19.828125 46.734375 
Q 21.96875 47.46875 24.109375 47.828125 
Q 26.265625 48.1875 28.421875 48.1875 
Q 40.625 48.1875 47.75 41.5 
Q 54.890625 34.8125 54.890625 23.390625 
Q 54.890625 11.625 47.5625 5.09375 
Q 40.234375 -1.421875 26.90625 -1.421875 
Q 22.3125 -1.421875 17.546875 -0.640625 
Q 12.796875 0.140625 7.71875 1.703125 
L 7.71875 11.625 
Q 12.109375 9.234375 16.796875 8.0625 
Q 21.484375 6.890625 26.703125 6.890625 
Q 35.15625 6.890625 40.078125 11.328125 
Q 45.015625 15.765625 45.015625 23.390625 
Q 45.015625 31 40.078125 35.4375 
Q 35.15625 39.890625 26.703125 39.890625 
Q 22.75 39.890625 18.8125 39.015625 
Q 14.890625 38.140625 10.796875 36.28125 
z
" id="DejaVuSans-35"/>
      </defs>
      <g transform="translate(183.087917 116.269918)scale(0.12 -0.12)">
       <use xlink:href="#DejaVuSans-32"/>
       <use x="63.623047" xlink:href="#DejaVuSans-35"/>
       <use x="127.246094" xlink:href="#DejaVuSans-6b"/>
      </g>
     </g>
    </g>
    <g id="ytick_6">
     <g id="line2d_14">
      <g>
       <use style="stroke:#000000;stroke-width:0.8;" x="212.306667" xlink:href="#me10fe6b709" y="81.42171"/>
      </g>
     </g>
     <g id="text_11">
      <!-- 50k -->
      <g transform="translate(183.087917 85.980773)scale(0.12 -0.12)">
       <use xlink:href="#DejaVuSans-35"/>
       <use x="63.623047" xlink:href="#DejaVuSans-30"/>
       <use x="127.246094" xlink:href="#DejaVuSans-6b"/>
      </g>
     </g>
    </g>
    <g id="ytick_7">
     <g id="line2d_15">
      <g>
       <use style="stroke:#000000;stroke-width:0.8;" x="212.306667" xlink:href="#me10fe6b709" y="51.132566"/>
      </g>
     </g>
     <g id="text_12">
      <!-- 75k -->
      <defs>
       <path d="M 8.203125 72.90625 
L 55.078125 72.90625 
L 55.078125 68.703125 
L 28.609375 0 
L 18.3125 0 
L 43.21875 64.59375 
L 8.203125 64.59375 
z
" id="DejaVuSans-37"/>
      </defs>
      <g transform="translate(183.087917 55.691628)scale(0.12 -0.12)">
       <use xlink:href="#DejaVuSans-37"/>
       <use x="63.623047" xlink:href="#DejaVuSans-35"/>
       <use x="127.246094" xlink:href="#DejaVuSans-6b"/>
      </g>
     </g>
    </g>
    <g id="text_13">
     <!-- Number of sgRNAs -->
     <defs>
      <path d="M 52 44.1875 
Q 55.375 50.25 60.0625 53.125 
Q 64.75 56 71.09375 56 
Q 79.640625 56 84.28125 50.015625 
Q 88.921875 44.046875 88.921875 33.015625 
L 88.921875 0 
L 79.890625 0 
L 79.890625 32.71875 
Q 79.890625 40.578125 77.09375 44.375 
Q 74.3125 48.1875 68.609375 48.1875 
Q 61.625 48.1875 57.5625 43.546875 
Q 53.515625 38.921875 53.515625 30.90625 
L 53.515625 0 
L 44.484375 0 
L 44.484375 32.71875 
Q 44.484375 40.625 41.703125 44.40625 
Q 38.921875 48.1875 33.109375 48.1875 
Q 26.21875 48.1875 22.15625 43.53125 
Q 18.109375 38.875 18.109375 30.90625 
L 18.109375 0 
L 9.078125 0 
L 9.078125 54.6875 
L 18.109375 54.6875 
L 18.109375 46.1875 
Q 21.1875 51.21875 25.484375 53.609375 
Q 29.78125 56 35.6875 56 
Q 41.65625 56 45.828125 52.96875 
Q 50 49.953125 52 44.1875 
z
" id="DejaVuSans-6d"/>
      <path d="M 48.6875 27.296875 
Q 48.6875 37.203125 44.609375 42.84375 
Q 40.53125 48.484375 33.40625 48.484375 
Q 26.265625 48.484375 22.1875 42.84375 
Q 18.109375 37.203125 18.109375 27.296875 
Q 18.109375 17.390625 22.1875 11.75 
Q 26.265625 6.109375 33.40625 6.109375 
Q 40.53125 6.109375 44.609375 11.75 
Q 48.6875 17.390625 48.6875 27.296875 
z
M 18.109375 46.390625 
Q 20.953125 51.265625 25.265625 53.625 
Q 29.59375 56 35.59375 56 
Q 45.5625 56 51.78125 48.09375 
Q 58.015625 40.1875 58.015625 27.296875 
Q 58.015625 14.40625 51.78125 6.484375 
Q 45.5625 -1.421875 35.59375 -1.421875 
Q 29.59375 -1.421875 25.265625 0.953125 
Q 20.953125 3.328125 18.109375 8.203125 
L 18.109375 0 
L 9.078125 0 
L 9.078125 75.984375 
L 18.109375 75.984375 
z
" id="DejaVuSans-62"/>
      <path d="M 37.109375 75.984375 
L 37.109375 68.5 
L 28.515625 68.5 
Q 23.6875 68.5 21.796875 66.546875 
Q 19.921875 64.59375 19.921875 59.515625 
L 19.921875 54.6875 
L 34.71875 54.6875 
L 34.71875 47.703125 
L 19.921875 47.703125 
L 19.921875 0 
L 10.890625 0 
L 10.890625 47.703125 
L 2.296875 47.703125 
L 2.296875 54.6875 
L 10.890625 54.6875 
L 10.890625 58.5 
Q 10.890625 67.625 15.140625 71.796875 
Q 19.390625 75.984375 28.609375 75.984375 
z
" id="DejaVuSans-66"/>
     </defs>
     <g transform="translate(176.592292 142.402812)rotate(-90)scale(0.12 -0.12)">
      <use xlink:href="#DejaVuSans-4e"/>
      <use x="74.804688" xlink:href="#DejaVuSans-75"/>
      <use x="138.183594" xlink:href="#DejaVuSans-6d"/>
      <use x="235.595703" xlink:href="#DejaVuSans-62"/>
      <use x="299.072266" xlink:href="#DejaVuSans-65"/>
      <use x="360.595703" xlink:href="#DejaVuSans-72"/>
      <use x="401.708984" xlink:href="#DejaVuSans-20"/>
      <use x="433.496094" xlink:href="#DejaVuSans-6f"/>
      <use x="494.677734" xlink:href="#DejaVuSans-66"/>
      <use x="529.882812" xlink:href="#DejaVuSans-20"/>
      <use x="561.669922" xlink:href="#DejaVuSans-73"/>
      <use x="613.769531" xlink:href="#DejaVuSans-67"/>
      <use x="677.246094" xlink:href="#DejaVuSans-52"/>
      <use x="746.728516" xlink:href="#DejaVuSans-4e"/>
      <use x="821.533203" xlink:href="#DejaVuSans-41"/>
      <use x="889.941406" xlink:href="#DejaVuSans-73"/>
     </g>
    </g>
   </g>
   <g id="patch_55">
    <path d="M 212.306667 142 
L 212.306667 29.76 
" style="fill:none;stroke:#000000;stroke-linecap:square;stroke-linejoin:miter;stroke-width:0.8;"/>
   </g>
   <g id="patch_56">
    <path d="M 418.68 142 
L 418.68 29.76 
" style="fill:none;stroke:#000000;stroke-linecap:square;stroke-linejoin:miter;stroke-width:0.8;"/>
   </g>
   <g id="patch_57">
    <path d="M 212.306667 142 
L 418.68 142 
" style="fill:none;stroke:#000000;stroke-linecap:square;stroke-linejoin:miter;stroke-width:0.8;"/>
   </g>
   <g id="patch_58">
    <path d="M 212.306667 29.76 
L 418.68 29.76 
" style="fill:none;stroke:#000000;stroke-linecap:square;stroke-linejoin:miter;stroke-width:0.8;"/>
   </g>
   <g id="text_14">
    <!-- EMPTY -->
    <defs>
     <path d="M 9.8125 72.90625 
L 55.90625 72.90625 
L 55.90625 64.59375 
L 19.671875 64.59375 
L 19.671875 43.015625 
L 54.390625 43.015625 
L 54.390625 34.71875 
L 19.671875 34.71875 
L 19.671875 8.296875 
L 56.78125 8.296875 
L 56.78125 0 
L 9.8125 0 
z
" id="DejaVuSans-45"/>
     <path d="M 9.8125 72.90625 
L 24.515625 72.90625 
L 43.109375 23.296875 
L 61.8125 72.90625 
L 76.515625 72.90625 
L 76.515625 0 
L 66.890625 0 
L 66.890625 64.015625 
L 48.09375 14.015625 
L 38.1875 14.015625 
L 19.390625 64.015625 
L 19.390625 0 
L 9.8125 0 
z
" id="DejaVuSans-4d"/>
     <path d="M 19.671875 64.796875 
L 19.671875 37.40625 
L 32.078125 37.40625 
Q 38.96875 37.40625 42.71875 40.96875 
Q 46.484375 44.53125 46.484375 51.125 
Q 46.484375 57.671875 42.71875 61.234375 
Q 38.96875 64.796875 32.078125 64.796875 
z
M 9.8125 72.90625 
L 32.078125 72.90625 
Q 44.34375 72.90625 50.609375 67.359375 
Q 56.890625 61.8125 56.890625 51.125 
Q 56.890625 40.328125 50.609375 34.8125 
Q 44.34375 29.296875 32.078125 29.296875 
L 19.671875 29.296875 
L 19.671875 0 
L 9.8125 0 
z
" id="DejaVuSans-50"/>
     <path d="M -0.296875 72.90625 
L 61.375 72.90625 
L 61.375 64.59375 
L 35.5 64.59375 
L 35.5 0 
L 25.59375 0 
L 25.59375 64.59375 
L -0.296875 64.59375 
z
" id="DejaVuSans-54"/>
     <path d="M -0.203125 72.90625 
L 10.40625 72.90625 
L 30.609375 42.921875 
L 50.6875 72.90625 
L 61.28125 72.90625 
L 35.5 34.71875 
L 35.5 0 
L 25.59375 0 
L 25.59375 34.71875 
z
" id="DejaVuSans-59"/>
    </defs>
    <g style="fill:#ffffff;" transform="translate(288.939583 23.76)scale(0.16 -0.16)">
     <use xlink:href="#DejaVuSans-45"/>
     <use x="63.183594" xlink:href="#DejaVuSans-4d"/>
     <use x="149.462891" xlink:href="#DejaVuSans-50"/>
     <use x="209.765625" xlink:href="#DejaVuSans-54"/>
     <use x="270.849609" xlink:href="#DejaVuSans-59"/>
    </g>
   </g>
  </g>
  <g id="axes_3">
   <g id="patch_59">
    <path d="M 47.9 316.6 
L 151.086667 316.6 
L 151.086667 204.36 
L 47.9 204.36 
z
" style="fill:#ffffff;"/>
   </g>
   <g id="matplotlib.axis_5"/>
   <g id="matplotlib.axis_6">
    <g id="ytick_8">
     <g id="line2d_16">
      <g>
       <use style="stroke:#000000;stroke-width:0.8;" x="47.9" xlink:href="#me10fe6b709" y="311.498182"/>
      </g>
     </g>
     <g id="text_15">
      <!-- 0 -->
      <g transform="translate(33.265 316.057244)scale(0.12 -0.12)">
       <use xlink:href="#DejaVuSans-30"/>
      </g>
     </g>
    </g>
    <g id="ytick_9">
     <g id="line2d_17">
      <g>
       <use style="stroke:#000000;stroke-width:0.8;" x="47.9" xlink:href="#me10fe6b709" y="255.881221"/>
      </g>
     </g>
     <g id="text_16">
      <!-- 20 -->
      <g transform="translate(25.63 260.440284)scale(0.12 -0.12)">
       <use xlink:href="#DejaVuSans-32"/>
       <use x="63.623047" xlink:href="#DejaVuSans-30"/>
      </g>
     </g>
    </g>
    <g id="text_17">
     <!-- Counts per Gene -->
     <defs>
      <path d="M 59.515625 10.40625 
L 59.515625 29.984375 
L 43.40625 29.984375 
L 43.40625 38.09375 
L 69.28125 38.09375 
L 69.28125 6.78125 
Q 63.578125 2.734375 56.6875 0.65625 
Q 49.8125 -1.421875 42 -1.421875 
Q 24.90625 -1.421875 15.25 8.5625 
Q 5.609375 18.5625 5.609375 36.375 
Q 5.609375 54.25 15.25 64.234375 
Q 24.90625 74.21875 42 74.21875 
Q 49.125 74.21875 55.546875 72.453125 
Q 61.96875 70.703125 67.390625 67.28125 
L 67.390625 56.78125 
Q 61.921875 61.421875 55.765625 63.765625 
Q 49.609375 66.109375 42.828125 66.109375 
Q 29.4375 66.109375 22.71875 58.640625 
Q 16.015625 51.171875 16.015625 36.375 
Q 16.015625 21.625 22.71875 14.15625 
Q 29.4375 6.6875 42.828125 6.6875 
Q 48.046875 6.6875 52.140625 7.59375 
Q 56.25 8.5 59.515625 10.40625 
z
" id="DejaVuSans-47"/>
     </defs>
     <g transform="translate(19.134375 311.040312)rotate(-90)scale(0.12 -0.12)">
      <use xlink:href="#DejaVuSans-43"/>
      <use x="69.824219" xlink:href="#DejaVuSans-6f"/>
      <use x="131.005859" xlink:href="#DejaVuSans-75"/>
      <use x="194.384766" xlink:href="#DejaVuSans-6e"/>
      <use x="257.763672" xlink:href="#DejaVuSans-74"/>
      <use x="296.972656" xlink:href="#DejaVuSans-73"/>
      <use x="349.072266" xlink:href="#DejaVuSans-20"/>
      <use x="380.859375" xlink:href="#DejaVuSans-70"/>
      <use x="444.335938" xlink:href="#DejaVuSans-65"/>
      <use x="505.859375" xlink:href="#DejaVuSans-72"/>
      <use x="546.972656" xlink:href="#DejaVuSans-20"/>
      <use x="578.759766" xlink:href="#DejaVuSans-47"/>
      <use x="656.25" xlink:href="#DejaVuSans-65"/>
      <use x="717.773438" xlink:href="#DejaVuSans-6e"/>
      <use x="781.152344" xlink:href="#DejaVuSans-65"/>
     </g>
    </g>
   </g>
   <g id="line2d_18">
    <path clip-path="url(#p2fe11664a9)" d="M 99.493333 307.573706 
L 99.493333 311.498182 
" style="fill:none;stroke:#000000;stroke-linecap:square;"/>
   </g>
   <g id="line2d_19">
    <path clip-path="url(#p2fe11664a9)" d="M 99.493333 268.328951 
L 99.493333 209.461818 
" style="fill:none;stroke:#000000;stroke-linecap:square;"/>
   </g>
   <g id="line2d_20">
    <path clip-path="url(#p2fe11664a9)" d="M 95.623833 311.498182 
L 103.362833 311.498182 
" style="fill:none;stroke:#000000;stroke-linecap:square;"/>
   </g>
   <g id="line2d_21">
    <path clip-path="url(#p2fe11664a9)" d="M 95.623833 209.461818 
L 103.362833 209.461818 
" style="fill:none;stroke:#000000;stroke-linecap:square;"/>
   </g>
   <g id="patch_60">
    <path clip-path="url(#p2fe11664a9)" d="M 91.754333 307.573706 
L 107.232333 307.573706 
L 107.232333 268.328951 
L 91.754333 268.328951 
L 91.754333 307.573706 
z
" style="fill:#9de4f9;stroke:#000000;stroke-linejoin:miter;"/>
   </g>
   <g id="line2d_22">
    <path clip-path="url(#p2fe11664a9)" d="M 91.754333 295.80028 
L 107.232333 295.80028 
" style="fill:none;stroke:#ff0000;stroke-linecap:square;"/>
   </g>
   <g id="patch_61">
    <path d="M 47.9 316.6 
L 47.9 204.36 
" style="fill:none;stroke:#000000;stroke-linecap:square;stroke-linejoin:miter;stroke-width:0.8;"/>
   </g>
   <g id="patch_62">
    <path d="M 151.086667 316.6 
L 151.086667 204.36 
" style="fill:none;stroke:#000000;stroke-linecap:square;stroke-linejoin:miter;stroke-width:0.8;"/>
   </g>
   <g id="patch_63">
    <path d="M 47.9 316.6 
L 151.086667 316.6 
" style="fill:none;stroke:#000000;stroke-linecap:square;stroke-linejoin:miter;stroke-width:0.8;"/>
   </g>
   <g id="patch_64">
    <path d="M 47.9 204.36 
L 151.086667 204.36 
" style="fill:none;stroke:#000000;stroke-linecap:square;stroke-linejoin:miter;stroke-width:0.8;"/>
   </g>
  </g>
  <g id="axes_4">
   <g id="patch_65">
    <path d="M 212.306667 316.6 
L 418.68 316.6 
L 418.68 204.36 
L 212.306667 204.36 
z
" style="fill:#ffffff;"/>
   </g>
   <g id="patch_66">
    <path clip-path="url(#pcf7d13f8a7)" d="M 219.736107 316.6 
L 221.387093 316.6 
L 221.387093 209.704762 
L 219.736107 209.704762 
z
" style="fill:#0000ff;"/>
   </g>
   <g id="patch_67">
    <path clip-path="url(#pcf7d13f8a7)" d="M 221.387093 316.6 
L 223.03808 316.6 
L 223.03808 257.352259 
L 221.387093 257.352259 
z
" style="fill:#0000ff;"/>
   </g>
   <g id="patch_68">
    <path clip-path="url(#pcf7d13f8a7)" d="M 223.03808 316.6 
L 224.689067 316.6 
L 224.689067 267.705986 
L 223.03808 267.705986 
z
" style="fill:#0000ff;"/>
   </g>
   <g id="patch_69">
    <path clip-path="url(#pcf7d13f8a7)" d="M 224.689067 316.6 
L 226.340053 316.6 
L 226.340053 316.6 
L 224.689067 316.6 
z
" style="fill:#0000ff;"/>
   </g>
   <g id="patch_70">
    <path clip-path="url(#pcf7d13f8a7)" d="M 226.340053 316.6 
L 227.99104 316.6 
L 227.99104 277.143904 
L 226.340053 277.143904 
z
" style="fill:#0000ff;"/>
   </g>
   <g id="patch_71">
    <path clip-path="url(#pcf7d13f8a7)" d="M 227.99104 316.6 
L 229.642027 316.6 
L 229.642027 282.918588 
L 227.99104 282.918588 
z
" style="fill:#0000ff;"/>
   </g>
   <g id="patch_72">
    <path clip-path="url(#pcf7d13f8a7)" d="M 229.642027 316.6 
L 231.293013 316.6 
L 231.293013 316.6 
L 229.642027 316.6 
z
" style="fill:#0000ff;"/>
   </g>
   <g id="patch_73">
    <path clip-path="url(#pcf7d13f8a7)" d="M 231.293013 316.6 
L 232.944 316.6 
L 232.944 288.845906 
L 231.293013 288.845906 
z
" style="fill:#0000ff;"/>
   </g>
   <g id="patch_74">
    <path clip-path="url(#pcf7d13f8a7)" d="M 232.944 316.6 
L 234.594987 316.6 
L 234.594987 290.728401 
L 232.944 290.728401 
z
" style="fill:#0000ff;"/>
   </g>
   <g id="patch_75">
    <path clip-path="url(#pcf7d13f8a7)" d="M 234.594987 316.6 
L 236.245973 316.6 
L 236.245973 294.849541 
L 234.594987 294.849541 
z
" style="fill:#0000ff;"/>
   </g>
   <g id="patch_76">
    <path clip-path="url(#pcf7d13f8a7)" d="M 236.245973 316.6 
L 237.89696 316.6 
L 237.89696 316.6 
L 236.245973 316.6 
z
" style="fill:#0000ff;"/>
   </g>
   <g id="patch_77">
    <path clip-path="url(#pcf7d13f8a7)" d="M 237.89696 316.6 
L 239.547947 316.6 
L 239.547947 297.851359 
L 237.89696 297.851359 
z
" style="fill:#0000ff;"/>
   </g>
   <g id="patch_78">
    <path clip-path="url(#pcf7d13f8a7)" d="M 239.547947 316.6 
L 241.198933 316.6 
L 241.198933 299.555781 
L 239.547947 299.555781 
z
" style="fill:#0000ff;"/>
   </g>
   <g id="patch_79">
    <path clip-path="url(#pcf7d13f8a7)" d="M 241.198933 316.6 
L 242.84992 316.6 
L 242.84992 316.6 
L 241.198933 316.6 
z
" style="fill:#0000ff;"/>
   </g>
   <g id="patch_80">
    <path clip-path="url(#pcf7d13f8a7)" d="M 242.84992 316.6 
L 244.500907 316.6 
L 244.500907 300.980372 
L 242.84992 300.980372 
z
" style="fill:#0000ff;"/>
   </g>
   <g id="patch_81">
    <path clip-path="url(#pcf7d13f8a7)" d="M 244.500907 316.6 
L 246.151893 316.6 
L 246.151893 303.219016 
L 244.500907 303.219016 
z
" style="fill:#0000ff;"/>
   </g>
   <g id="patch_82">
    <path clip-path="url(#pcf7d13f8a7)" d="M 246.151893 316.6 
L 247.80288 316.6 
L 247.80288 305.15239 
L 246.151893 305.15239 
z
" style="fill:#0000ff;"/>
   </g>
   <g id="patch_83">
    <path clip-path="url(#pcf7d13f8a7)" d="M 247.80288 316.6 
L 249.453867 316.6 
L 249.453867 316.6 
L 247.80288 316.6 
z
" style="fill:#0000ff;"/>
   </g>
   <g id="patch_84">
    <path clip-path="url(#pcf7d13f8a7)" d="M 249.453867 316.6 
L 251.104853 316.6 
L 251.104853 305.864686 
L 249.453867 305.864686 
z
" style="fill:#0000ff;"/>
   </g>
   <g id="patch_85">
    <path clip-path="url(#pcf7d13f8a7)" d="M 251.104853 316.6 
L 252.75584 316.6 
L 252.75584 307.238399 
L 251.104853 307.238399 
z
" style="fill:#0000ff;"/>
   </g>
   <g id="patch_86">
    <path clip-path="url(#pcf7d13f8a7)" d="M 252.75584 316.6 
L 254.406827 316.6 
L 254.406827 316.6 
L 252.75584 316.6 
z
" style="fill:#0000ff;"/>
   </g>
   <g id="patch_87">
    <path clip-path="url(#pcf7d13f8a7)" d="M 254.406827 316.6 
L 256.057813 316.6 
L 256.057813 308.484916 
L 254.406827 308.484916 
z
" style="fill:#0000ff;"/>
   </g>
   <g id="patch_88">
    <path clip-path="url(#pcf7d13f8a7)" d="M 256.057813 316.6 
L 257.7088 316.6 
L 257.7088 309.629677 
L 256.057813 309.629677 
z
" style="fill:#0000ff;"/>
   </g>
   <g id="patch_89">
    <path clip-path="url(#pcf7d13f8a7)" d="M 257.7088 316.6 
L 259.359787 316.6 
L 259.359787 310.367412 
L 257.7088 310.367412 
z
" style="fill:#0000ff;"/>
   </g>
   <g id="patch_90">
    <path clip-path="url(#pcf7d13f8a7)" d="M 259.359787 316.6 
L 261.010773 316.6 
L 261.010773 316.6 
L 259.359787 316.6 
z
" style="fill:#0000ff;"/>
   </g>
   <g id="patch_91">
    <path clip-path="url(#pcf7d13f8a7)" d="M 261.010773 316.6 
L 262.66176 316.6 
L 262.66176 311.359539 
L 261.010773 311.359539 
z
" style="fill:#0000ff;"/>
   </g>
   <g id="patch_92">
    <path clip-path="url(#pcf7d13f8a7)" d="M 262.66176 316.6 
L 264.312747 316.6 
L 264.312747 311.842882 
L 262.66176 311.842882 
z
" style="fill:#0000ff;"/>
   </g>
   <g id="patch_93">
    <path clip-path="url(#pcf7d13f8a7)" d="M 264.312747 316.6 
L 265.963733 316.6 
L 265.963733 316.6 
L 264.312747 316.6 
z
" style="fill:#0000ff;"/>
   </g>
   <g id="patch_94">
    <path clip-path="url(#pcf7d13f8a7)" d="M 265.963733 316.6 
L 267.61472 316.6 
L 267.61472 312.020956 
L 265.963733 312.020956 
z
" style="fill:#0000ff;"/>
   </g>
   <g id="patch_95">
    <path clip-path="url(#pcf7d13f8a7)" d="M 267.61472 316.6 
L 269.265707 316.6 
L 269.265707 312.936765 
L 267.61472 312.936765 
z
" style="fill:#0000ff;"/>
   </g>
   <g id="patch_96">
    <path clip-path="url(#pcf7d13f8a7)" d="M 269.265707 316.6 
L 270.916693 316.6 
L 270.916693 316.6 
L 269.265707 316.6 
z
" style="fill:#0000ff;"/>
   </g>
   <g id="patch_97">
    <path clip-path="url(#pcf7d13f8a7)" d="M 270.916693 316.6 
L 272.56768 316.6 
L 272.56768 313.827134 
L 270.916693 313.827134 
z
" style="fill:#0000ff;"/>
   </g>
   <g id="patch_98">
    <path clip-path="url(#pcf7d13f8a7)" d="M 272.56768 316.6 
L 274.218667 316.6 
L 274.218667 314.056087 
L 272.56768 314.056087 
z
" style="fill:#0000ff;"/>
   </g>
   <g id="patch_99">
    <path clip-path="url(#pcf7d13f8a7)" d="M 274.218667 316.6 
L 275.869653 316.6 
L 275.869653 313.852574 
L 274.218667 313.852574 
z
" style="fill:#0000ff;"/>
   </g>
   <g id="patch_100">
    <path clip-path="url(#pcf7d13f8a7)" d="M 275.869653 316.6 
L 277.52064 316.6 
L 277.52064 316.6 
L 275.869653 316.6 
z
" style="fill:#0000ff;"/>
   </g>
   <g id="patch_101">
    <path clip-path="url(#pcf7d13f8a7)" d="M 277.52064 316.6 
L 279.171627 316.6 
L 279.171627 314.564869 
L 277.52064 314.564869 
z
" style="fill:#0000ff;"/>
   </g>
   <g id="patch_102">
    <path clip-path="url(#pcf7d13f8a7)" d="M 279.171627 316.6 
L 280.822613 316.6 
L 280.822613 314.463113 
L 279.171627 314.463113 
z
" style="fill:#0000ff;"/>
   </g>
   <g id="patch_103">
    <path clip-path="url(#pcf7d13f8a7)" d="M 280.822613 316.6 
L 282.4736 316.6 
L 282.4736 316.6 
L 280.822613 316.6 
z
" style="fill:#0000ff;"/>
   </g>
   <g id="patch_104">
    <path clip-path="url(#pcf7d13f8a7)" d="M 282.4736 316.6 
L 284.124587 316.6 
L 284.124587 314.437674 
L 282.4736 314.437674 
z
" style="fill:#0000ff;"/>
   </g>
   <g id="patch_105">
    <path clip-path="url(#pcf7d13f8a7)" d="M 284.124587 316.6 
L 285.775573 316.6 
L 285.775573 314.997335 
L 284.124587 314.997335 
z
" style="fill:#0000ff;"/>
   </g>
   <g id="patch_106">
    <path clip-path="url(#pcf7d13f8a7)" d="M 285.775573 316.6 
L 287.42656 316.6 
L 287.42656 315.149969 
L 285.775573 315.149969 
z
" style="fill:#0000ff;"/>
   </g>
   <g id="patch_107">
    <path clip-path="url(#pcf7d13f8a7)" d="M 287.42656 316.6 
L 289.077547 316.6 
L 289.077547 316.6 
L 287.42656 316.6 
z
" style="fill:#0000ff;"/>
   </g>
   <g id="patch_108">
    <path clip-path="url(#pcf7d13f8a7)" d="M 289.077547 316.6 
L 290.728533 316.6 
L 290.728533 315.022774 
L 289.077547 315.022774 
z
" style="fill:#0000ff;"/>
   </g>
   <g id="patch_109">
    <path clip-path="url(#pcf7d13f8a7)" d="M 290.728533 316.6 
L 292.37952 316.6 
L 292.37952 315.099091 
L 290.728533 315.099091 
z
" style="fill:#0000ff;"/>
   </g>
   <g id="patch_110">
    <path clip-path="url(#pcf7d13f8a7)" d="M 292.37952 316.6 
L 294.030507 316.6 
L 294.030507 316.6 
L 292.37952 316.6 
z
" style="fill:#0000ff;"/>
   </g>
   <g id="patch_111">
    <path clip-path="url(#pcf7d13f8a7)" d="M 294.030507 316.6 
L 295.681493 316.6 
L 295.681493 315.328043 
L 294.030507 315.328043 
z
" style="fill:#0000ff;"/>
   </g>
   <g id="patch_112">
    <path clip-path="url(#pcf7d13f8a7)" d="M 295.681493 316.6 
L 297.33248 316.6 
L 297.33248 315.633313 
L 295.681493 315.633313 
z
" style="fill:#0000ff;"/>
   </g>
   <g id="patch_113">
    <path clip-path="url(#pcf7d13f8a7)" d="M 297.33248 316.6 
L 298.983467 316.6 
L 298.983467 315.531556 
L 297.33248 315.531556 
z
" style="fill:#0000ff;"/>
   </g>
   <g id="patch_114">
    <path clip-path="url(#pcf7d13f8a7)" d="M 298.983467 316.6 
L 300.634453 316.6 
L 300.634453 316.6 
L 298.983467 316.6 
z
" style="fill:#0000ff;"/>
   </g>
   <g id="patch_115">
    <path clip-path="url(#pcf7d13f8a7)" d="M 300.634453 316.6 
L 302.28544 316.6 
L 302.28544 315.4298 
L 300.634453 315.4298 
z
" style="fill:#0000ff;"/>
   </g>
   <g id="patch_116">
    <path clip-path="url(#pcf7d13f8a7)" d="M 302.28544 316.6 
L 303.936427 316.6 
L 303.936427 315.811387 
L 302.28544 315.811387 
z
" style="fill:#0000ff;"/>
   </g>
   <g id="patch_117">
    <path clip-path="url(#pcf7d13f8a7)" d="M 303.936427 316.6 
L 305.587413 316.6 
L 305.587413 316.6 
L 303.936427 316.6 
z
" style="fill:#0000ff;"/>
   </g>
   <g id="patch_118">
    <path clip-path="url(#pcf7d13f8a7)" d="M 305.587413 316.6 
L 307.2384 316.6 
L 307.2384 315.964022 
L 305.587413 315.964022 
z
" style="fill:#0000ff;"/>
   </g>
   <g id="patch_119">
    <path clip-path="url(#pcf7d13f8a7)" d="M 307.2384 316.6 
L 308.889387 316.6 
L 308.889387 315.887704 
L 307.2384 315.887704 
z
" style="fill:#0000ff;"/>
   </g>
   <g id="patch_120">
    <path clip-path="url(#pcf7d13f8a7)" d="M 308.889387 316.6 
L 310.540373 316.6 
L 310.540373 316.6 
L 308.889387 316.6 
z
" style="fill:#0000ff;"/>
   </g>
   <g id="patch_121">
    <path clip-path="url(#pcf7d13f8a7)" d="M 310.540373 316.6 
L 312.19136 316.6 
L 312.19136 315.938583 
L 310.540373 315.938583 
z
" style="fill:#0000ff;"/>
   </g>
   <g id="patch_122">
    <path clip-path="url(#pcf7d13f8a7)" d="M 312.19136 316.6 
L 313.842347 316.6 
L 313.842347 315.887704 
L 312.19136 315.887704 
z
" style="fill:#0000ff;"/>
   </g>
   <g id="patch_123">
    <path clip-path="url(#pcf7d13f8a7)" d="M 313.842347 316.6 
L 315.493333 316.6 
L 315.493333 316.142096 
L 313.842347 316.142096 
z
" style="fill:#0000ff;"/>
   </g>
   <g id="patch_124">
    <path clip-path="url(#pcf7d13f8a7)" d="M 315.493333 316.6 
L 317.14432 316.6 
L 317.14432 316.6 
L 315.493333 316.6 
z
" style="fill:#0000ff;"/>
   </g>
   <g id="patch_125">
    <path clip-path="url(#pcf7d13f8a7)" d="M 317.14432 316.6 
L 318.795307 316.6 
L 318.795307 316.142096 
L 317.14432 316.142096 
z
" style="fill:#0000ff;"/>
   </g>
   <g id="patch_126">
    <path clip-path="url(#pcf7d13f8a7)" d="M 318.795307 316.6 
L 320.446293 316.6 
L 320.446293 316.0149 
L 318.795307 316.0149 
z
" style="fill:#0000ff;"/>
   </g>
   <g id="patch_127">
    <path clip-path="url(#pcf7d13f8a7)" d="M 320.446293 316.6 
L 322.09728 316.6 
L 322.09728 316.6 
L 320.446293 316.6 
z
" style="fill:#0000ff;"/>
   </g>
   <g id="patch_128">
    <path clip-path="url(#pcf7d13f8a7)" d="M 322.09728 316.6 
L 323.748267 316.6 
L 323.748267 316.269291 
L 322.09728 316.269291 
z
" style="fill:#0000ff;"/>
   </g>
   <g id="patch_129">
    <path clip-path="url(#pcf7d13f8a7)" d="M 323.748267 316.6 
L 325.399253 316.6 
L 325.399253 316.243852 
L 323.748267 316.243852 
z
" style="fill:#0000ff;"/>
   </g>
   <g id="patch_130">
    <path clip-path="url(#pcf7d13f8a7)" d="M 325.399253 316.6 
L 327.05024 316.6 
L 327.05024 316.091217 
L 325.399253 316.091217 
z
" style="fill:#0000ff;"/>
   </g>
   <g id="patch_131">
    <path clip-path="url(#pcf7d13f8a7)" d="M 327.05024 316.6 
L 328.701227 316.6 
L 328.701227 316.6 
L 327.05024 316.6 
z
" style="fill:#0000ff;"/>
   </g>
   <g id="patch_132">
    <path clip-path="url(#pcf7d13f8a7)" d="M 328.701227 316.6 
L 330.352213 316.6 
L 330.352213 316.142096 
L 328.701227 316.142096 
z
" style="fill:#0000ff;"/>
   </g>
   <g id="patch_133">
    <path clip-path="url(#pcf7d13f8a7)" d="M 330.352213 316.6 
L 332.0032 316.6 
L 332.0032 316.167535 
L 330.352213 316.167535 
z
" style="fill:#0000ff;"/>
   </g>
   <g id="patch_134">
    <path clip-path="url(#pcf7d13f8a7)" d="M 332.0032 316.6 
L 333.654187 316.6 
L 333.654187 316.6 
L 332.0032 316.6 
z
" style="fill:#0000ff;"/>
   </g>
   <g id="patch_135">
    <path clip-path="url(#pcf7d13f8a7)" d="M 333.654187 316.6 
L 335.305173 316.6 
L 335.305173 316.167535 
L 333.654187 316.167535 
z
" style="fill:#0000ff;"/>
   </g>
   <g id="patch_136">
    <path clip-path="url(#pcf7d13f8a7)" d="M 335.305173 316.6 
L 336.95616 316.6 
L 336.95616 316.065778 
L 335.305173 316.065778 
z
" style="fill:#0000ff;"/>
   </g>
   <g id="patch_137">
    <path clip-path="url(#pcf7d13f8a7)" d="M 336.95616 316.6 
L 338.607147 316.6 
L 338.607147 316.192974 
L 336.95616 316.192974 
z
" style="fill:#0000ff;"/>
   </g>
   <g id="patch_138">
    <path clip-path="url(#pcf7d13f8a7)" d="M 338.607147 316.6 
L 340.258133 316.6 
L 340.258133 316.6 
L 338.607147 316.6 
z
" style="fill:#0000ff;"/>
   </g>
   <g id="patch_139">
    <path clip-path="url(#pcf7d13f8a7)" d="M 340.258133 316.6 
L 341.90912 316.6 
L 341.90912 316.29473 
L 340.258133 316.29473 
z
" style="fill:#0000ff;"/>
   </g>
   <g id="patch_140">
    <path clip-path="url(#pcf7d13f8a7)" d="M 341.90912 316.6 
L 343.560107 316.6 
L 343.560107 316.218413 
L 341.90912 316.218413 
z
" style="fill:#0000ff;"/>
   </g>
   <g id="patch_141">
    <path clip-path="url(#pcf7d13f8a7)" d="M 343.560107 316.6 
L 345.211093 316.6 
L 345.211093 316.6 
L 343.560107 316.6 
z
" style="fill:#0000ff;"/>
   </g>
   <g id="patch_142">
    <path clip-path="url(#pcf7d13f8a7)" d="M 345.211093 316.6 
L 346.86208 316.6 
L 346.86208 316.269291 
L 345.211093 316.269291 
z
" style="fill:#0000ff;"/>
   </g>
   <g id="patch_143">
    <path clip-path="url(#pcf7d13f8a7)" d="M 346.86208 316.6 
L 348.513067 316.6 
L 348.513067 316.396487 
L 346.86208 316.396487 
z
" style="fill:#0000ff;"/>
   </g>
   <g id="patch_144">
    <path clip-path="url(#pcf7d13f8a7)" d="M 348.513067 316.6 
L 350.164053 316.6 
L 350.164053 316.6 
L 348.513067 316.6 
z
" style="fill:#0000ff;"/>
   </g>
   <g id="patch_145">
    <path clip-path="url(#pcf7d13f8a7)" d="M 350.164053 316.6 
L 351.81504 316.6 
L 351.81504 316.345609 
L 350.164053 316.345609 
z
" style="fill:#0000ff;"/>
   </g>
   <g id="patch_146">
    <path clip-path="url(#pcf7d13f8a7)" d="M 351.81504 316.6 
L 353.466027 316.6 
L 353.466027 316.371048 
L 351.81504 316.371048 
z
" style="fill:#0000ff;"/>
   </g>
   <g id="patch_147">
    <path clip-path="url(#pcf7d13f8a7)" d="M 353.466027 316.6 
L 355.117013 316.6 
L 355.117013 316.396487 
L 353.466027 316.396487 
z
" style="fill:#0000ff;"/>
   </g>
   <g id="patch_148">
    <path clip-path="url(#pcf7d13f8a7)" d="M 355.117013 316.6 
L 356.768 316.6 
L 356.768 316.6 
L 355.117013 316.6 
z
" style="fill:#0000ff;"/>
   </g>
   <g id="patch_149">
    <path clip-path="url(#pcf7d13f8a7)" d="M 356.768 316.6 
L 358.418987 316.6 
L 358.418987 316.396487 
L 356.768 316.396487 
z
" style="fill:#0000ff;"/>
   </g>
   <g id="patch_150">
    <path clip-path="url(#pcf7d13f8a7)" d="M 358.418987 316.6 
L 360.069973 316.6 
L 360.069973 316.421926 
L 358.418987 316.421926 
z
" style="fill:#0000ff;"/>
   </g>
   <g id="patch_151">
    <path clip-path="url(#pcf7d13f8a7)" d="M 360.069973 316.6 
L 361.72096 316.6 
L 361.72096 316.6 
L 360.069973 316.6 
z
" style="fill:#0000ff;"/>
   </g>
   <g id="patch_152">
    <path clip-path="url(#pcf7d13f8a7)" d="M 361.72096 316.6 
L 363.371947 316.6 
L 363.371947 316.32017 
L 361.72096 316.32017 
z
" style="fill:#0000ff;"/>
   </g>
   <g id="patch_153">
    <path clip-path="url(#pcf7d13f8a7)" d="M 363.371947 316.6 
L 365.022933 316.6 
L 365.022933 316.498243 
L 363.371947 316.498243 
z
" style="fill:#0000ff;"/>
   </g>
   <g id="patch_154">
    <path clip-path="url(#pcf7d13f8a7)" d="M 365.022933 316.6 
L 366.67392 316.6 
L 366.67392 316.421926 
L 365.022933 316.421926 
z
" style="fill:#0000ff;"/>
   </g>
   <g id="patch_155">
    <path clip-path="url(#pcf7d13f8a7)" d="M 366.67392 316.6 
L 368.324907 316.6 
L 368.324907 316.6 
L 366.67392 316.6 
z
" style="fill:#0000ff;"/>
   </g>
   <g id="patch_156">
    <path clip-path="url(#pcf7d13f8a7)" d="M 368.324907 316.6 
L 369.975893 316.6 
L 369.975893 316.32017 
L 368.324907 316.32017 
z
" style="fill:#0000ff;"/>
   </g>
   <g id="patch_157">
    <path clip-path="url(#pcf7d13f8a7)" d="M 369.975893 316.6 
L 371.62688 316.6 
L 371.62688 316.371048 
L 369.975893 316.371048 
z
" style="fill:#0000ff;"/>
   </g>
   <g id="patch_158">
    <path clip-path="url(#pcf7d13f8a7)" d="M 371.62688 316.6 
L 373.277867 316.6 
L 373.277867 316.6 
L 371.62688 316.6 
z
" style="fill:#0000ff;"/>
   </g>
   <g id="patch_159">
    <path clip-path="url(#pcf7d13f8a7)" d="M 373.277867 316.6 
L 374.928853 316.6 
L 374.928853 316.549122 
L 373.277867 316.549122 
z
" style="fill:#0000ff;"/>
   </g>
   <g id="patch_160">
    <path clip-path="url(#pcf7d13f8a7)" d="M 374.928853 316.6 
L 376.57984 316.6 
L 376.57984 316.396487 
L 374.928853 316.396487 
z
" style="fill:#0000ff;"/>
   </g>
   <g id="patch_161">
    <path clip-path="url(#pcf7d13f8a7)" d="M 376.57984 316.6 
L 378.230827 316.6 
L 378.230827 316.371048 
L 376.57984 316.371048 
z
" style="fill:#0000ff;"/>
   </g>
   <g id="patch_162">
    <path clip-path="url(#pcf7d13f8a7)" d="M 378.230827 316.6 
L 379.881813 316.6 
L 379.881813 316.6 
L 378.230827 316.6 
z
" style="fill:#0000ff;"/>
   </g>
   <g id="patch_163">
    <path clip-path="url(#pcf7d13f8a7)" d="M 379.881813 316.6 
L 381.5328 316.6 
L 381.5328 316.371048 
L 379.881813 316.371048 
z
" style="fill:#0000ff;"/>
   </g>
   <g id="patch_164">
    <path clip-path="url(#pcf7d13f8a7)" d="M 381.5328 316.6 
L 383.183787 316.6 
L 383.183787 316.421926 
L 381.5328 316.421926 
z
" style="fill:#0000ff;"/>
   </g>
   <g id="patch_165">
    <path clip-path="url(#pcf7d13f8a7)" d="M 383.183787 316.6 
L 384.834773 316.6 
L 384.834773 316.6 
L 383.183787 316.6 
z
" style="fill:#0000ff;"/>
   </g>
   <g id="patch_166">
    <path clip-path="url(#pcf7d13f8a7)" d="M 384.834773 316.6 
L 386.48576 316.6 
L 386.48576 316.498243 
L 384.834773 316.498243 
z
" style="fill:#0000ff;"/>
   </g>
   <g id="patch_167">
    <path clip-path="url(#pcf7d13f8a7)" d="M 386.48576 316.6 
L 388.136747 316.6 
L 388.136747 316.345609 
L 386.48576 316.345609 
z
" style="fill:#0000ff;"/>
   </g>
   <g id="patch_168">
    <path clip-path="url(#pcf7d13f8a7)" d="M 388.136747 316.6 
L 389.787733 316.6 
L 389.787733 316.6 
L 388.136747 316.6 
z
" style="fill:#0000ff;"/>
   </g>
   <g id="patch_169">
    <path clip-path="url(#pcf7d13f8a7)" d="M 389.787733 316.6 
L 391.43872 316.6 
L 391.43872 316.447365 
L 389.787733 316.447365 
z
" style="fill:#0000ff;"/>
   </g>
   <g id="patch_170">
    <path clip-path="url(#pcf7d13f8a7)" d="M 391.43872 316.6 
L 393.089707 316.6 
L 393.089707 316.498243 
L 391.43872 316.498243 
z
" style="fill:#0000ff;"/>
   </g>
   <g id="patch_171">
    <path clip-path="url(#pcf7d13f8a7)" d="M 393.089707 316.6 
L 394.740693 316.6 
L 394.740693 316.498243 
L 393.089707 316.498243 
z
" style="fill:#0000ff;"/>
   </g>
   <g id="patch_172">
    <path clip-path="url(#pcf7d13f8a7)" d="M 394.740693 316.6 
L 396.39168 316.6 
L 396.39168 316.6 
L 394.740693 316.6 
z
" style="fill:#0000ff;"/>
   </g>
   <g id="patch_173">
    <path clip-path="url(#pcf7d13f8a7)" d="M 396.39168 316.6 
L 398.042667 316.6 
L 398.042667 316.498243 
L 396.39168 316.498243 
z
" style="fill:#0000ff;"/>
   </g>
   <g id="patch_174">
    <path clip-path="url(#pcf7d13f8a7)" d="M 398.042667 316.6 
L 399.693653 316.6 
L 399.693653 316.498243 
L 398.042667 316.498243 
z
" style="fill:#0000ff;"/>
   </g>
   <g id="patch_175">
    <path clip-path="url(#pcf7d13f8a7)" d="M 399.693653 316.6 
L 401.34464 316.6 
L 401.34464 316.6 
L 399.693653 316.6 
z
" style="fill:#0000ff;"/>
   </g>
   <g id="patch_176">
    <path clip-path="url(#pcf7d13f8a7)" d="M 401.34464 316.6 
L 402.995627 316.6 
L 402.995627 316.498243 
L 401.34464 316.498243 
z
" style="fill:#0000ff;"/>
   </g>
   <g id="patch_177">
    <path clip-path="url(#pcf7d13f8a7)" d="M 402.995627 316.6 
L 404.646613 316.6 
L 404.646613 316.472804 
L 402.995627 316.472804 
z
" style="fill:#0000ff;"/>
   </g>
   <g id="patch_178">
    <path clip-path="url(#pcf7d13f8a7)" d="M 404.646613 316.6 
L 406.2976 316.6 
L 406.2976 316.523683 
L 404.646613 316.523683 
z
" style="fill:#0000ff;"/>
   </g>
   <g id="patch_179">
    <path clip-path="url(#pcf7d13f8a7)" d="M 406.2976 316.6 
L 407.948587 316.6 
L 407.948587 316.6 
L 406.2976 316.6 
z
" style="fill:#0000ff;"/>
   </g>
   <g id="patch_180">
    <path clip-path="url(#pcf7d13f8a7)" d="M 407.948587 316.6 
L 409.599573 316.6 
L 409.599573 316.523683 
L 407.948587 316.523683 
z
" style="fill:#0000ff;"/>
   </g>
   <g id="patch_181">
    <path clip-path="url(#pcf7d13f8a7)" d="M 409.599573 316.6 
L 411.25056 316.6 
L 411.25056 316.447365 
L 409.599573 316.447365 
z
" style="fill:#0000ff;"/>
   </g>
   <g id="patch_182">
    <path clip-path="url(#pcf7d13f8a7)" d="M 411.25056 316.6 
L 412.901547 316.6 
L 412.901547 316.6 
L 411.25056 316.6 
z
" style="fill:#0000ff;"/>
   </g>
   <g id="patch_183">
    <path clip-path="url(#pcf7d13f8a7)" d="M 412.901547 316.6 
L 414.552533 316.6 
L 414.552533 316.447365 
L 412.901547 316.447365 
z
" style="fill:#0000ff;"/>
   </g>
   <g id="patch_184">
    <path clip-path="url(#pcf7d13f8a7)" d="M 414.552533 316.6 
L 416.20352 316.6 
L 416.20352 316.345609 
L 414.552533 316.345609 
z
" style="fill:#0000ff;"/>
   </g>
   <g id="patch_185">
    <path clip-path="url(#pcf7d13f8a7)" d="M 416.20352 316.6 
L 417.854507 316.6 
L 417.854507 316.498243 
L 416.20352 316.498243 
z
" style="fill:#0000ff;"/>
   </g>
   <g id="patch_186">
    <path clip-path="url(#pcf7d13f8a7)" d="M 417.854507 316.6 
L 419.505493 316.6 
L 419.505493 316.6 
L 417.854507 316.6 
z
" style="fill:#0000ff;"/>
   </g>
   <g id="matplotlib.axis_7">
    <g id="xtick_4">
     <g id="line2d_23">
      <g>
       <use style="stroke:#000000;stroke-width:0.8;" x="220.5616" xlink:href="#m2a34d4a05b" y="316.6"/>
      </g>
     </g>
     <g id="text_18">
      <!-- 0 -->
      <g transform="translate(216.7441 332.718125)scale(0.12 -0.12)">
       <use xlink:href="#DejaVuSans-30"/>
      </g>
     </g>
    </g>
    <g id="xtick_5">
     <g id="line2d_24">
      <g>
       <use style="stroke:#000000;stroke-width:0.8;" x="261.836267" xlink:href="#m2a34d4a05b" y="316.6"/>
      </g>
     </g>
     <g id="text_19">
      <!-- 25 -->
      <g transform="translate(254.201267 332.718125)scale(0.12 -0.12)">
       <use xlink:href="#DejaVuSans-32"/>
       <use x="63.623047" xlink:href="#DejaVuSans-35"/>
      </g>
     </g>
    </g>
    <g id="xtick_6">
     <g id="line2d_25">
      <g>
       <use style="stroke:#000000;stroke-width:0.8;" x="303.110933" xlink:href="#m2a34d4a05b" y="316.6"/>
      </g>
     </g>
     <g id="text_20">
      <!-- 50 -->
      <g transform="translate(295.475933 332.718125)scale(0.12 -0.12)">
       <use xlink:href="#DejaVuSans-35"/>
       <use x="63.623047" xlink:href="#DejaVuSans-30"/>
      </g>
     </g>
    </g>
    <g id="xtick_7">
     <g id="line2d_26">
      <g>
       <use style="stroke:#000000;stroke-width:0.8;" x="344.3856" xlink:href="#m2a34d4a05b" y="316.6"/>
      </g>
     </g>
     <g id="text_21">
      <!-- 75 -->
      <g transform="translate(336.7506 332.718125)scale(0.12 -0.12)">
       <use xlink:href="#DejaVuSans-37"/>
       <use x="63.623047" xlink:href="#DejaVuSans-35"/>
      </g>
     </g>
    </g>
    <g id="xtick_8">
     <g id="line2d_27">
      <g>
       <use style="stroke:#000000;stroke-width:0.8;" x="385.660267" xlink:href="#m2a34d4a05b" y="316.6"/>
      </g>
     </g>
     <g id="text_22">
      <!-- 100 -->
      <g transform="translate(374.207767 332.718125)scale(0.12 -0.12)">
       <use xlink:href="#DejaVuSans-31"/>
       <use x="63.623047" xlink:href="#DejaVuSans-30"/>
       <use x="127.246094" xlink:href="#DejaVuSans-30"/>
      </g>
     </g>
    </g>
    <g id="text_23">
     <!-- Counts per Gene -->
     <g transform="translate(264.933021 348.331875)scale(0.12 -0.12)">
      <use xlink:href="#DejaVuSans-43"/>
      <use x="69.824219" xlink:href="#DejaVuSans-6f"/>
      <use x="131.005859" xlink:href="#DejaVuSans-75"/>
      <use x="194.384766" xlink:href="#DejaVuSans-6e"/>
      <use x="257.763672" xlink:href="#DejaVuSans-74"/>
      <use x="296.972656" xlink:href="#DejaVuSans-73"/>
      <use x="349.072266" xlink:href="#DejaVuSans-20"/>
      <use x="380.859375" xlink:href="#DejaVuSans-70"/>
      <use x="444.335938" xlink:href="#DejaVuSans-65"/>
      <use x="505.859375" xlink:href="#DejaVuSans-72"/>
      <use x="546.972656" xlink:href="#DejaVuSans-20"/>
      <use x="578.759766" xlink:href="#DejaVuSans-47"/>
      <use x="656.25" xlink:href="#DejaVuSans-65"/>
      <use x="717.773438" xlink:href="#DejaVuSans-6e"/>
      <use x="781.152344" xlink:href="#DejaVuSans-65"/>
     </g>
    </g>
   </g>
   <g id="matplotlib.axis_8">
    <g id="ytick_10">
     <g id="line2d_28">
      <g>
       <use style="stroke:#000000;stroke-width:0.8;" x="212.306667" xlink:href="#me10fe6b709" y="316.6"/>
      </g>
     </g>
     <g id="text_24">
      <!-- 0.0k -->
      <defs>
       <path d="M 10.6875 12.40625 
L 21 12.40625 
L 21 0 
L 10.6875 0 
z
" id="DejaVuSans-2e"/>
      </defs>
      <g transform="translate(179.274167 321.159063)scale(0.12 -0.12)">
       <use xlink:href="#DejaVuSans-30"/>
       <use x="63.623047" xlink:href="#DejaVuSans-2e"/>
       <use x="95.410156" xlink:href="#DejaVuSans-30"/>
       <use x="159.033203" xlink:href="#DejaVuSans-6b"/>
      </g>
     </g>
    </g>
    <g id="ytick_11">
     <g id="line2d_29">
      <g>
       <use style="stroke:#000000;stroke-width:0.8;" x="212.306667" xlink:href="#me10fe6b709" y="265.721733"/>
      </g>
     </g>
     <g id="text_25">
      <!-- 2.0k -->
      <g transform="translate(179.274167 270.280796)scale(0.12 -0.12)">
       <use xlink:href="#DejaVuSans-32"/>
       <use x="63.623047" xlink:href="#DejaVuSans-2e"/>
       <use x="95.410156" xlink:href="#DejaVuSans-30"/>
       <use x="159.033203" xlink:href="#DejaVuSans-6b"/>
      </g>
     </g>
    </g>
    <g id="ytick_12">
     <g id="line2d_30">
      <g>
       <use style="stroke:#000000;stroke-width:0.8;" x="212.306667" xlink:href="#me10fe6b709" y="214.843467"/>
      </g>
     </g>
     <g id="text_26">
      <!-- 4.0k -->
      <g transform="translate(179.274167 219.402529)scale(0.12 -0.12)">
       <use xlink:href="#DejaVuSans-34"/>
       <use x="63.623047" xlink:href="#DejaVuSans-2e"/>
       <use x="95.410156" xlink:href="#DejaVuSans-30"/>
       <use x="159.033203" xlink:href="#DejaVuSans-6b"/>
      </g>
     </g>
    </g>
    <g id="text_27">
     <!-- Number of Genes -->
     <g transform="translate(172.778542 313.14125)rotate(-90)scale(0.12 -0.12)">
      <use xlink:href="#DejaVuSans-4e"/>
      <use x="74.804688" xlink:href="#DejaVuSans-75"/>
      <use x="138.183594" xlink:href="#DejaVuSans-6d"/>
      <use x="235.595703" xlink:href="#DejaVuSans-62"/>
      <use x="299.072266" xlink:href="#DejaVuSans-65"/>
      <use x="360.595703" xlink:href="#DejaVuSans-72"/>
      <use x="401.708984" xlink:href="#DejaVuSans-20"/>
      <use x="433.496094" xlink:href="#DejaVuSans-6f"/>
      <use x="494.677734" xlink:href="#DejaVuSans-66"/>
      <use x="529.882812" xlink:href="#DejaVuSans-20"/>
      <use x="561.669922" xlink:href="#DejaVuSans-47"/>
      <use x="639.160156" xlink:href="#DejaVuSans-65"/>
      <use x="700.683594" xlink:href="#DejaVuSans-6e"/>
      <use x="764.0625" xlink:href="#DejaVuSans-65"/>
      <use x="825.585938" xlink:href="#DejaVuSans-73"/>
     </g>
    </g>
   </g>
   <g id="patch_187">
    <path d="M 212.306667 316.6 
L 212.306667 204.36 
" style="fill:none;stroke:#000000;stroke-linecap:square;stroke-linejoin:miter;stroke-width:0.8;"/>
   </g>
   <g id="patch_188">
    <path d="M 418.68 316.6 
L 418.68 204.36 
" style="fill:none;stroke:#000000;stroke-linecap:square;stroke-linejoin:miter;stroke-width:0.8;"/>
   </g>
   <g id="patch_189">
    <path d="M 212.306667 316.6 
L 418.68 316.6 
" style="fill:none;stroke:#000000;stroke-linecap:square;stroke-linejoin:miter;stroke-width:0.8;"/>
   </g>
   <g id="patch_190">
    <path d="M 212.306667 204.36 
L 418.68 204.36 
" style="fill:none;stroke:#000000;stroke-linecap:square;stroke-linejoin:miter;stroke-width:0.8;"/>
   </g>
   <g id="text_28">
    <!-- EMPTY -->
    <g style="fill:#ffffff;" transform="translate(288.939583 198.36)scale(0.16 -0.16)">
     <use xlink:href="#DejaVuSans-45"/>
     <use x="63.183594" xlink:href="#DejaVuSans-4d"/>
     <use x="149.462891" xlink:href="#DejaVuSans-50"/>
     <use x="209.765625" xlink:href="#DejaVuSans-54"/>
     <use x="270.849609" xlink:href="#DejaVuSans-59"/>
    </g>
   </g>
  </g>
  <g id="text_29">
   <!-- Read Distribution (sgRNAs) -->
   <defs>
    <path d="M 34.28125 27.484375 
Q 23.390625 27.484375 19.1875 25 
Q 14.984375 22.515625 14.984375 16.5 
Q 14.984375 11.71875 18.140625 8.90625 
Q 21.296875 6.109375 26.703125 6.109375 
Q 34.1875 6.109375 38.703125 11.40625 
Q 43.21875 16.703125 43.21875 25.484375 
L 43.21875 27.484375 
z
M 52.203125 31.203125 
L 52.203125 0 
L 43.21875 0 
L 43.21875 8.296875 
Q 40.140625 3.328125 35.546875 0.953125 
Q 30.953125 -1.421875 24.3125 -1.421875 
Q 15.921875 -1.421875 10.953125 3.296875 
Q 6 8.015625 6 15.921875 
Q 6 25.140625 12.171875 29.828125 
Q 18.359375 34.515625 30.609375 34.515625 
L 43.21875 34.515625 
L 43.21875 35.40625 
Q 43.21875 41.609375 39.140625 45 
Q 35.0625 48.390625 27.6875 48.390625 
Q 23 48.390625 18.546875 47.265625 
Q 14.109375 46.140625 10.015625 43.890625 
L 10.015625 52.203125 
Q 14.9375 54.109375 19.578125 55.046875 
Q 24.21875 56 28.609375 56 
Q 40.484375 56 46.34375 49.84375 
Q 52.203125 43.703125 52.203125 31.203125 
z
" id="DejaVuSans-61"/>
    <path d="M 45.40625 46.390625 
L 45.40625 75.984375 
L 54.390625 75.984375 
L 54.390625 0 
L 45.40625 0 
L 45.40625 8.203125 
Q 42.578125 3.328125 38.25 0.953125 
Q 33.9375 -1.421875 27.875 -1.421875 
Q 17.96875 -1.421875 11.734375 6.484375 
Q 5.515625 14.40625 5.515625 27.296875 
Q 5.515625 40.1875 11.734375 48.09375 
Q 17.96875 56 27.875 56 
Q 33.9375 56 38.25 53.625 
Q 42.578125 51.265625 45.40625 46.390625 
z
M 14.796875 27.296875 
Q 14.796875 17.390625 18.875 11.75 
Q 22.953125 6.109375 30.078125 6.109375 
Q 37.203125 6.109375 41.296875 11.75 
Q 45.40625 17.390625 45.40625 27.296875 
Q 45.40625 37.203125 41.296875 42.84375 
Q 37.203125 48.484375 30.078125 48.484375 
Q 22.953125 48.484375 18.875 42.84375 
Q 14.796875 37.203125 14.796875 27.296875 
z
" id="DejaVuSans-64"/>
    <path d="M 19.671875 64.796875 
L 19.671875 8.109375 
L 31.59375 8.109375 
Q 46.6875 8.109375 53.6875 14.9375 
Q 60.6875 21.78125 60.6875 36.53125 
Q 60.6875 51.171875 53.6875 57.984375 
Q 46.6875 64.796875 31.59375 64.796875 
z
M 9.8125 72.90625 
L 30.078125 72.90625 
Q 51.265625 72.90625 61.171875 64.09375 
Q 71.09375 55.28125 71.09375 36.53125 
Q 71.09375 17.671875 61.125 8.828125 
Q 51.171875 0 30.078125 0 
L 9.8125 0 
z
" id="DejaVuSans-44"/>
    <path d="M 9.421875 54.6875 
L 18.40625 54.6875 
L 18.40625 0 
L 9.421875 0 
z
M 9.421875 75.984375 
L 18.40625 75.984375 
L 18.40625 64.59375 
L 9.421875 64.59375 
z
" id="DejaVuSans-69"/>
    <path d="M 31 75.875 
Q 24.46875 64.65625 21.28125 53.65625 
Q 18.109375 42.671875 18.109375 31.390625 
Q 18.109375 20.125 21.3125 9.0625 
Q 24.515625 -2 31 -13.1875 
L 23.1875 -13.1875 
Q 15.875 -1.703125 12.234375 9.375 
Q 8.59375 20.453125 8.59375 31.390625 
Q 8.59375 42.28125 12.203125 53.3125 
Q 15.828125 64.359375 23.1875 75.875 
z
" id="DejaVuSans-28"/>
    <path d="M 8.015625 75.875 
L 15.828125 75.875 
Q 23.140625 64.359375 26.78125 53.3125 
Q 30.421875 42.28125 30.421875 31.390625 
Q 30.421875 20.453125 26.78125 9.375 
Q 23.140625 -1.703125 15.828125 -13.1875 
L 8.015625 -13.1875 
Q 14.5 -2 17.703125 9.0625 
Q 20.90625 20.125 20.90625 31.390625 
Q 20.90625 42.671875 17.703125 53.65625 
Q 14.5 64.65625 8.015625 75.875 
z
" id="DejaVuSans-29"/>
   </defs>
   <g transform="translate(129.6 18)scale(0.14 -0.14)">
    <use xlink:href="#DejaVuSans-52"/>
    <use x="69.419922" xlink:href="#DejaVuSans-65"/>
    <use x="130.943359" xlink:href="#DejaVuSans-61"/>
    <use x="192.222656" xlink:href="#DejaVuSans-64"/>
    <use x="255.699219" xlink:href="#DejaVuSans-20"/>
    <use x="287.486328" xlink:href="#DejaVuSans-44"/>
    <use x="364.488281" xlink:href="#DejaVuSans-69"/>
    <use x="392.271484" xlink:href="#DejaVuSans-73"/>
    <use x="444.371094" xlink:href="#DejaVuSans-74"/>
    <use x="483.580078" xlink:href="#DejaVuSans-72"/>
    <use x="524.693359" xlink:href="#DejaVuSans-69"/>
    <use x="552.476562" xlink:href="#DejaVuSans-62"/>
    <use x="615.953125" xlink:href="#DejaVuSans-75"/>
    <use x="679.332031" xlink:href="#DejaVuSans-74"/>
    <use x="718.541016" xlink:href="#DejaVuSans-69"/>
    <use x="746.324219" xlink:href="#DejaVuSans-6f"/>
    <use x="807.505859" xlink:href="#DejaVuSans-6e"/>
    <use x="870.884766" xlink:href="#DejaVuSans-20"/>
    <use x="902.671875" xlink:href="#DejaVuSans-28"/>
    <use x="941.685547" xlink:href="#DejaVuSans-73"/>
    <use x="993.785156" xlink:href="#DejaVuSans-67"/>
    <use x="1057.261719" xlink:href="#DejaVuSans-52"/>
    <use x="1126.744141" xlink:href="#DejaVuSans-4e"/>
    <use x="1201.548828" xlink:href="#DejaVuSans-41"/>
    <use x="1269.957031" xlink:href="#DejaVuSans-73"/>
    <use x="1322.056641" xlink:href="#DejaVuSans-29"/>
   </g>
  </g>
  <g id="text_30">
   <!-- Read Distribution (Genes) -->
   <g transform="translate(129.6 190.8)scale(0.14 -0.14)">
    <use xlink:href="#DejaVuSans-52"/>
    <use x="69.419922" xlink:href="#DejaVuSans-65"/>
    <use x="130.943359" xlink:href="#DejaVuSans-61"/>
    <use x="192.222656" xlink:href="#DejaVuSans-64"/>
    <use x="255.699219" xlink:href="#DejaVuSans-20"/>
    <use x="287.486328" xlink:href="#DejaVuSans-44"/>
    <use x="364.488281" xlink:href="#DejaVuSans-69"/>
    <use x="392.271484" xlink:href="#DejaVuSans-73"/>
    <use x="444.371094" xlink:href="#DejaVuSans-74"/>
    <use x="483.580078" xlink:href="#DejaVuSans-72"/>
    <use x="524.693359" xlink:href="#DejaVuSans-69"/>
    <use x="552.476562" xlink:href="#DejaVuSans-62"/>
    <use x="615.953125" xlink:href="#DejaVuSans-75"/>
    <use x="679.332031" xlink:href="#DejaVuSans-74"/>
    <use x="718.541016" xlink:href="#DejaVuSans-69"/>
    <use x="746.324219" xlink:href="#DejaVuSans-6f"/>
    <use x="807.505859" xlink:href="#DejaVuSans-6e"/>
    <use x="870.884766" xlink:href="#DejaVuSans-20"/>
    <use x="902.671875" xlink:href="#DejaVuSans-28"/>
    <use x="941.685547" xlink:href="#DejaVuSans-47"/>
    <use x="1019.175781" xlink:href="#DejaVuSans-65"/>
    <use x="1080.699219" xlink:href="#DejaVuSans-6e"/>
    <use x="1144.078125" xlink:href="#DejaVuSans-65"/>
    <use x="1205.601562" xlink:href="#DejaVuSans-73"/>
    <use x="1257.701172" xlink:href="#DejaVuSans-29"/>
   </g>
  </g>
 </g>
 <defs>
  <clipPath id="p578da17de2">
   <rect height="112.24" width="103.186667" x="47.9" y="29.76"/>
  </clipPath>
  <clipPath id="p315fb99897">
   <rect height="112.24" width="206.373333" x="212.306667" y="29.76"/>
  </clipPath>
  <clipPath id="p2fe11664a9">
   <rect height="112.24" width="103.186667" x="47.9" y="204.36"/>
  </clipPath>
  <clipPath id="pcf7d13f8a7">
   <rect height="112.24" width="206.373333" x="212.306667" y="204.36"/>
  </clipPath>
 </defs>
</svg>
