<?xml version="1.0" encoding="utf-8" standalone="no"?>
<!DOCTYPE svg PUBLIC "-//W3C//DTD SVG 1.1//EN"
  "http://www.w3.org/Graphics/SVG/1.1/DTD/svg11.dtd">
<!-- Created with matplotlib (http://matplotlib.org/) -->
<svg height="360pt" version="1.1" viewBox="0 0 432 360" width="432pt" xmlns="http://www.w3.org/2000/svg" xmlns:xlink="http://www.w3.org/1999/xlink">
 <defs>
  <style type="text/css">
*{stroke-linecap:butt;stroke-linejoin:round;}
  </style>
 </defs>
 <g id="figure_1">
  <g id="patch_1">
   <path d="M 0 360 
L 432 360 
L 432 0 
L 0 0 
z
" style="fill:#ffffff;"/>
  </g>
  <g id="axes_1">
   <g id="patch_2">
    <path d="M 77.06 142 
L 169.236667 142 
L 169.236667 29.76 
L 77.06 29.76 
z
" style="fill:#ffffff;"/>
   </g>
   <g id="matplotlib.axis_1"/>
   <g id="matplotlib.axis_2">
    <g id="ytick_1">
     <g id="line2d_1">
      <defs>
       <path d="M 0 0 
L -3.5 0 
" id="me9985b6c14" style="stroke:#000000;stroke-width:0.8;"/>
      </defs>
      <g>
       <use style="stroke:#000000;stroke-width:0.8;" x="77.06" xlink:href="#me9985b6c14" y="136.898182"/>
      </g>
     </g>
     <g id="text_1">
      <!-- −0.05 -->
      <defs>
       <path d="M 10.59375 35.5 
L 73.1875 35.5 
L 73.1875 27.203125 
L 10.59375 27.203125 
z
" id="DejaVuSans-2212"/>
       <path d="M 31.78125 66.40625 
Q 24.171875 66.40625 20.328125 58.90625 
Q 16.5 51.421875 16.5 36.375 
Q 16.5 21.390625 20.328125 13.890625 
Q 24.171875 6.390625 31.78125 6.390625 
Q 39.453125 6.390625 43.28125 13.890625 
Q 47.125 21.390625 47.125 36.375 
Q 47.125 51.421875 43.28125 58.90625 
Q 39.453125 66.40625 31.78125 66.40625 
z
M 31.78125 74.21875 
Q 44.046875 74.21875 50.515625 64.515625 
Q 56.984375 54.828125 56.984375 36.375 
Q 56.984375 17.96875 50.515625 8.265625 
Q 44.046875 -1.421875 31.78125 -1.421875 
Q 19.53125 -1.421875 13.0625 8.265625 
Q 6.59375 17.96875 6.59375 36.375 
Q 6.59375 54.828125 13.0625 64.515625 
Q 19.53125 74.21875 31.78125 74.21875 
z
" id="DejaVuSans-30"/>
       <path d="M 10.6875 12.40625 
L 21 12.40625 
L 21 0 
L 10.6875 0 
z
" id="DejaVuSans-2e"/>
       <path d="M 10.796875 72.90625 
L 49.515625 72.90625 
L 49.515625 64.59375 
L 19.828125 64.59375 
L 19.828125 46.734375 
Q 21.96875 47.46875 24.109375 47.828125 
Q 26.265625 48.1875 28.421875 48.1875 
Q 40.625 48.1875 47.75 41.5 
Q 54.890625 34.8125 54.890625 23.390625 
Q 54.890625 11.625 47.5625 5.09375 
Q 40.234375 -1.421875 26.90625 -1.421875 
Q 22.3125 -1.421875 17.546875 -0.640625 
Q 12.796875 0.140625 7.71875 1.703125 
L 7.71875 11.625 
Q 12.109375 9.234375 16.796875 8.0625 
Q 21.484375 6.890625 26.703125 6.890625 
Q 35.15625 6.890625 40.078125 11.328125 
Q 45.015625 15.765625 45.015625 23.390625 
Q 45.015625 31 40.078125 35.4375 
Q 35.15625 39.890625 26.703125 39.890625 
Q 22.75 39.890625 18.8125 39.015625 
Q 14.890625 38.140625 10.796875 36.28125 
z
" id="DejaVuSans-35"/>
      </defs>
      <g transform="translate(33.285625 141.457244)scale(0.12 -0.12)">
       <use xlink:href="#DejaVuSans-2212"/>
       <use x="83.789062" xlink:href="#DejaVuSans-30"/>
       <use x="147.412109" xlink:href="#DejaVuSans-2e"/>
       <use x="179.199219" xlink:href="#DejaVuSans-30"/>
       <use x="242.822266" xlink:href="#DejaVuSans-35"/>
      </g>
     </g>
    </g>
    <g id="ytick_2">
     <g id="line2d_2">
      <g>
       <use style="stroke:#000000;stroke-width:0.8;" x="77.06" xlink:href="#me9985b6c14" y="85.88"/>
      </g>
     </g>
     <g id="text_2">
      <!-- 0.00 -->
      <g transform="translate(43.34125 90.439062)scale(0.12 -0.12)">
       <use xlink:href="#DejaVuSans-30"/>
       <use x="63.623047" xlink:href="#DejaVuSans-2e"/>
       <use x="95.410156" xlink:href="#DejaVuSans-30"/>
       <use x="159.033203" xlink:href="#DejaVuSans-30"/>
      </g>
     </g>
    </g>
    <g id="ytick_3">
     <g id="line2d_3">
      <g>
       <use style="stroke:#000000;stroke-width:0.8;" x="77.06" xlink:href="#me9985b6c14" y="34.861818"/>
      </g>
     </g>
     <g id="text_3">
      <!-- 0.05 -->
      <g transform="translate(43.34125 39.420881)scale(0.12 -0.12)">
       <use xlink:href="#DejaVuSans-30"/>
       <use x="63.623047" xlink:href="#DejaVuSans-2e"/>
       <use x="95.410156" xlink:href="#DejaVuSans-30"/>
       <use x="159.033203" xlink:href="#DejaVuSans-35"/>
      </g>
     </g>
    </g>
    <g id="text_4">
     <!-- Counts per sgRNA -->
     <defs>
      <path d="M 64.40625 67.28125 
L 64.40625 56.890625 
Q 59.421875 61.53125 53.78125 63.8125 
Q 48.140625 66.109375 41.796875 66.109375 
Q 29.296875 66.109375 22.65625 58.46875 
Q 16.015625 50.828125 16.015625 36.375 
Q 16.015625 21.96875 22.65625 14.328125 
Q 29.296875 6.6875 41.796875 6.6875 
Q 48.140625 6.6875 53.78125 8.984375 
Q 59.421875 11.28125 64.40625 15.921875 
L 64.40625 5.609375 
Q 59.234375 2.09375 53.4375 0.328125 
Q 47.65625 -1.421875 41.21875 -1.421875 
Q 24.65625 -1.421875 15.125 8.703125 
Q 5.609375 18.84375 5.609375 36.375 
Q 5.609375 53.953125 15.125 64.078125 
Q 24.65625 74.21875 41.21875 74.21875 
Q 47.75 74.21875 53.53125 72.484375 
Q 59.328125 70.75 64.40625 67.28125 
z
" id="DejaVuSans-43"/>
      <path d="M 30.609375 48.390625 
Q 23.390625 48.390625 19.1875 42.75 
Q 14.984375 37.109375 14.984375 27.296875 
Q 14.984375 17.484375 19.15625 11.84375 
Q 23.34375 6.203125 30.609375 6.203125 
Q 37.796875 6.203125 41.984375 11.859375 
Q 46.1875 17.53125 46.1875 27.296875 
Q 46.1875 37.015625 41.984375 42.703125 
Q 37.796875 48.390625 30.609375 48.390625 
z
M 30.609375 56 
Q 42.328125 56 49.015625 48.375 
Q 55.71875 40.765625 55.71875 27.296875 
Q 55.71875 13.875 49.015625 6.21875 
Q 42.328125 -1.421875 30.609375 -1.421875 
Q 18.84375 -1.421875 12.171875 6.21875 
Q 5.515625 13.875 5.515625 27.296875 
Q 5.515625 40.765625 12.171875 48.375 
Q 18.84375 56 30.609375 56 
z
" id="DejaVuSans-6f"/>
      <path d="M 8.5 21.578125 
L 8.5 54.6875 
L 17.484375 54.6875 
L 17.484375 21.921875 
Q 17.484375 14.15625 20.5 10.265625 
Q 23.53125 6.390625 29.59375 6.390625 
Q 36.859375 6.390625 41.078125 11.03125 
Q 45.3125 15.671875 45.3125 23.6875 
L 45.3125 54.6875 
L 54.296875 54.6875 
L 54.296875 0 
L 45.3125 0 
L 45.3125 8.40625 
Q 42.046875 3.421875 37.71875 1 
Q 33.40625 -1.421875 27.6875 -1.421875 
Q 18.265625 -1.421875 13.375 4.4375 
Q 8.5 10.296875 8.5 21.578125 
z
M 31.109375 56 
z
" id="DejaVuSans-75"/>
      <path d="M 54.890625 33.015625 
L 54.890625 0 
L 45.90625 0 
L 45.90625 32.71875 
Q 45.90625 40.484375 42.875 44.328125 
Q 39.84375 48.1875 33.796875 48.1875 
Q 26.515625 48.1875 22.3125 43.546875 
Q 18.109375 38.921875 18.109375 30.90625 
L 18.109375 0 
L 9.078125 0 
L 9.078125 54.6875 
L 18.109375 54.6875 
L 18.109375 46.1875 
Q 21.34375 51.125 25.703125 53.5625 
Q 30.078125 56 35.796875 56 
Q 45.21875 56 50.046875 50.171875 
Q 54.890625 44.34375 54.890625 33.015625 
z
" id="DejaVuSans-6e"/>
      <path d="M 18.3125 70.21875 
L 18.3125 54.6875 
L 36.8125 54.6875 
L 36.8125 47.703125 
L 18.3125 47.703125 
L 18.3125 18.015625 
Q 18.3125 11.328125 20.140625 9.421875 
Q 21.96875 7.515625 27.59375 7.515625 
L 36.8125 7.515625 
L 36.8125 0 
L 27.59375 0 
Q 17.1875 0 13.234375 3.875 
Q 9.28125 7.765625 9.28125 18.015625 
L 9.28125 47.703125 
L 2.6875 47.703125 
L 2.6875 54.6875 
L 9.28125 54.6875 
L 9.28125 70.21875 
z
" id="DejaVuSans-74"/>
      <path d="M 44.28125 53.078125 
L 44.28125 44.578125 
Q 40.484375 46.53125 36.375 47.5 
Q 32.28125 48.484375 27.875 48.484375 
Q 21.1875 48.484375 17.84375 46.4375 
Q 14.5 44.390625 14.5 40.28125 
Q 14.5 37.15625 16.890625 35.375 
Q 19.28125 33.59375 26.515625 31.984375 
L 29.59375 31.296875 
Q 39.15625 29.25 43.1875 25.515625 
Q 47.21875 21.78125 47.21875 15.09375 
Q 47.21875 7.46875 41.1875 3.015625 
Q 35.15625 -1.421875 24.609375 -1.421875 
Q 20.21875 -1.421875 15.453125 -0.5625 
Q 10.6875 0.296875 5.421875 2 
L 5.421875 11.28125 
Q 10.40625 8.6875 15.234375 7.390625 
Q 20.0625 6.109375 24.8125 6.109375 
Q 31.15625 6.109375 34.5625 8.28125 
Q 37.984375 10.453125 37.984375 14.40625 
Q 37.984375 18.0625 35.515625 20.015625 
Q 33.0625 21.96875 24.703125 23.78125 
L 21.578125 24.515625 
Q 13.234375 26.265625 9.515625 29.90625 
Q 5.8125 33.546875 5.8125 39.890625 
Q 5.8125 47.609375 11.28125 51.796875 
Q 16.75 56 26.8125 56 
Q 31.78125 56 36.171875 55.265625 
Q 40.578125 54.546875 44.28125 53.078125 
z
" id="DejaVuSans-73"/>
      <path id="DejaVuSans-20"/>
      <path d="M 18.109375 8.203125 
L 18.109375 -20.796875 
L 9.078125 -20.796875 
L 9.078125 54.6875 
L 18.109375 54.6875 
L 18.109375 46.390625 
Q 20.953125 51.265625 25.265625 53.625 
Q 29.59375 56 35.59375 56 
Q 45.5625 56 51.78125 48.09375 
Q 58.015625 40.1875 58.015625 27.296875 
Q 58.015625 14.40625 51.78125 6.484375 
Q 45.5625 -1.421875 35.59375 -1.421875 
Q 29.59375 -1.421875 25.265625 0.953125 
Q 20.953125 3.328125 18.109375 8.203125 
z
M 48.6875 27.296875 
Q 48.6875 37.203125 44.609375 42.84375 
Q 40.53125 48.484375 33.40625 48.484375 
Q 26.265625 48.484375 22.1875 42.84375 
Q 18.109375 37.203125 18.109375 27.296875 
Q 18.109375 17.390625 22.1875 11.75 
Q 26.265625 6.109375 33.40625 6.109375 
Q 40.53125 6.109375 44.609375 11.75 
Q 48.6875 17.390625 48.6875 27.296875 
z
" id="DejaVuSans-70"/>
      <path d="M 56.203125 29.59375 
L 56.203125 25.203125 
L 14.890625 25.203125 
Q 15.484375 15.921875 20.484375 11.0625 
Q 25.484375 6.203125 34.421875 6.203125 
Q 39.59375 6.203125 44.453125 7.46875 
Q 49.3125 8.734375 54.109375 11.28125 
L 54.109375 2.78125 
Q 49.265625 0.734375 44.1875 -0.34375 
Q 39.109375 -1.421875 33.890625 -1.421875 
Q 20.796875 -1.421875 13.15625 6.1875 
Q 5.515625 13.8125 5.515625 26.8125 
Q 5.515625 40.234375 12.765625 48.109375 
Q 20.015625 56 32.328125 56 
Q 43.359375 56 49.78125 48.890625 
Q 56.203125 41.796875 56.203125 29.59375 
z
M 47.21875 32.234375 
Q 47.125 39.59375 43.09375 43.984375 
Q 39.0625 48.390625 32.421875 48.390625 
Q 24.90625 48.390625 20.390625 44.140625 
Q 15.875 39.890625 15.1875 32.171875 
z
" id="DejaVuSans-65"/>
      <path d="M 41.109375 46.296875 
Q 39.59375 47.171875 37.8125 47.578125 
Q 36.03125 48 33.890625 48 
Q 26.265625 48 22.1875 43.046875 
Q 18.109375 38.09375 18.109375 28.8125 
L 18.109375 0 
L 9.078125 0 
L 9.078125 54.6875 
L 18.109375 54.6875 
L 18.109375 46.1875 
Q 20.953125 51.171875 25.484375 53.578125 
Q 30.03125 56 36.53125 56 
Q 37.453125 56 38.578125 55.875 
Q 39.703125 55.765625 41.0625 55.515625 
z
" id="DejaVuSans-72"/>
      <path d="M 45.40625 27.984375 
Q 45.40625 37.75 41.375 43.109375 
Q 37.359375 48.484375 30.078125 48.484375 
Q 22.859375 48.484375 18.828125 43.109375 
Q 14.796875 37.75 14.796875 27.984375 
Q 14.796875 18.265625 18.828125 12.890625 
Q 22.859375 7.515625 30.078125 7.515625 
Q 37.359375 7.515625 41.375 12.890625 
Q 45.40625 18.265625 45.40625 27.984375 
z
M 54.390625 6.78125 
Q 54.390625 -7.171875 48.1875 -13.984375 
Q 42 -20.796875 29.203125 -20.796875 
Q 24.46875 -20.796875 20.265625 -20.09375 
Q 16.0625 -19.390625 12.109375 -17.921875 
L 12.109375 -9.1875 
Q 16.0625 -11.328125 19.921875 -12.34375 
Q 23.78125 -13.375 27.78125 -13.375 
Q 36.625 -13.375 41.015625 -8.765625 
Q 45.40625 -4.15625 45.40625 5.171875 
L 45.40625 9.625 
Q 42.625 4.78125 38.28125 2.390625 
Q 33.9375 0 27.875 0 
Q 17.828125 0 11.671875 7.65625 
Q 5.515625 15.328125 5.515625 27.984375 
Q 5.515625 40.671875 11.671875 48.328125 
Q 17.828125 56 27.875 56 
Q 33.9375 56 38.28125 53.609375 
Q 42.625 51.21875 45.40625 46.390625 
L 45.40625 54.6875 
L 54.390625 54.6875 
z
" id="DejaVuSans-67"/>
      <path d="M 44.390625 34.1875 
Q 47.5625 33.109375 50.5625 29.59375 
Q 53.5625 26.078125 56.59375 19.921875 
L 66.609375 0 
L 56 0 
L 46.6875 18.703125 
Q 43.0625 26.03125 39.671875 28.421875 
Q 36.28125 30.8125 30.421875 30.8125 
L 19.671875 30.8125 
L 19.671875 0 
L 9.8125 0 
L 9.8125 72.90625 
L 32.078125 72.90625 
Q 44.578125 72.90625 50.734375 67.671875 
Q 56.890625 62.453125 56.890625 51.90625 
Q 56.890625 45.015625 53.6875 40.46875 
Q 50.484375 35.9375 44.390625 34.1875 
z
M 19.671875 64.796875 
L 19.671875 38.921875 
L 32.078125 38.921875 
Q 39.203125 38.921875 42.84375 42.21875 
Q 46.484375 45.515625 46.484375 51.90625 
Q 46.484375 58.296875 42.84375 61.546875 
Q 39.203125 64.796875 32.078125 64.796875 
z
" id="DejaVuSans-52"/>
      <path d="M 9.8125 72.90625 
L 23.09375 72.90625 
L 55.421875 11.921875 
L 55.421875 72.90625 
L 64.984375 72.90625 
L 64.984375 0 
L 51.703125 0 
L 19.390625 60.984375 
L 19.390625 0 
L 9.8125 0 
z
" id="DejaVuSans-4e"/>
      <path d="M 34.1875 63.1875 
L 20.796875 26.90625 
L 47.609375 26.90625 
z
M 28.609375 72.90625 
L 39.796875 72.90625 
L 67.578125 0 
L 57.328125 0 
L 50.6875 18.703125 
L 17.828125 18.703125 
L 11.1875 0 
L 0.78125 0 
z
" id="DejaVuSans-41"/>
     </defs>
     <g transform="translate(26.79 140.301875)rotate(-90)scale(0.12 -0.12)">
      <use xlink:href="#DejaVuSans-43"/>
      <use x="69.824219" xlink:href="#DejaVuSans-6f"/>
      <use x="131.005859" xlink:href="#DejaVuSans-75"/>
      <use x="194.384766" xlink:href="#DejaVuSans-6e"/>
      <use x="257.763672" xlink:href="#DejaVuSans-74"/>
      <use x="296.972656" xlink:href="#DejaVuSans-73"/>
      <use x="349.072266" xlink:href="#DejaVuSans-20"/>
      <use x="380.859375" xlink:href="#DejaVuSans-70"/>
      <use x="444.335938" xlink:href="#DejaVuSans-65"/>
      <use x="505.859375" xlink:href="#DejaVuSans-72"/>
      <use x="546.972656" xlink:href="#DejaVuSans-20"/>
      <use x="578.759766" xlink:href="#DejaVuSans-73"/>
      <use x="630.859375" xlink:href="#DejaVuSans-67"/>
      <use x="694.335938" xlink:href="#DejaVuSans-52"/>
      <use x="763.818359" xlink:href="#DejaVuSans-4e"/>
      <use x="838.623047" xlink:href="#DejaVuSans-41"/>
     </g>
    </g>
   </g>
   <g id="line2d_4">
    <path clip-path="url(#p9c2371dbff)" d="M 123.148333 85.88 
L 123.148333 85.88 
" style="fill:none;stroke:#000000;stroke-linecap:square;"/>
   </g>
   <g id="line2d_5">
    <path clip-path="url(#p9c2371dbff)" d="M 123.148333 85.88 
L 123.148333 85.88 
" style="fill:none;stroke:#000000;stroke-linecap:square;"/>
   </g>
   <g id="line2d_6">
    <path clip-path="url(#p9c2371dbff)" d="M 119.691708 85.88 
L 126.604958 85.88 
" style="fill:none;stroke:#000000;stroke-linecap:square;"/>
   </g>
   <g id="line2d_7">
    <path clip-path="url(#p9c2371dbff)" d="M 119.691708 85.88 
L 126.604958 85.88 
" style="fill:none;stroke:#000000;stroke-linecap:square;"/>
   </g>
   <g id="patch_3">
    <path clip-path="url(#p9c2371dbff)" d="M 116.235083 85.88 
L 130.061583 85.88 
L 130.061583 85.88 
L 116.235083 85.88 
L 116.235083 85.88 
z
" style="fill:#92fcae;stroke:#000000;stroke-linejoin:miter;"/>
   </g>
   <g id="line2d_8">
    <path clip-path="url(#p9c2371dbff)" d="M 116.235083 85.88 
L 130.061583 85.88 
" style="fill:none;stroke:#ff0000;stroke-linecap:square;"/>
   </g>
   <g id="patch_4">
    <path d="M 77.06 142 
L 77.06 29.76 
" style="fill:none;stroke:#000000;stroke-linecap:square;stroke-linejoin:miter;stroke-width:0.8;"/>
   </g>
   <g id="patch_5">
    <path d="M 169.236667 142 
L 169.236667 29.76 
" style="fill:none;stroke:#000000;stroke-linecap:square;stroke-linejoin:miter;stroke-width:0.8;"/>
   </g>
   <g id="patch_6">
    <path d="M 77.06 142 
L 169.236667 142 
" style="fill:none;stroke:#000000;stroke-linecap:square;stroke-linejoin:miter;stroke-width:0.8;"/>
   </g>
   <g id="patch_7">
    <path d="M 77.06 29.76 
L 169.236667 29.76 
" style="fill:none;stroke:#000000;stroke-linecap:square;stroke-linejoin:miter;stroke-width:0.8;"/>
   </g>
  </g>
  <g id="axes_2">
   <g id="patch_8">
    <path d="M 234.326667 142 
L 418.68 142 
L 418.68 29.76 
L 234.326667 29.76 
z
" style="fill:#ffffff;"/>
   </g>
   <g id="patch_9">
    <path clip-path="url(#p672a47fc1f)" d="M 263.515944 142 
L 266.5885 142 
L 266.5885 35.104762 
L 263.515944 35.104762 
z
" style="fill:#008000;"/>
   </g>
   <g id="patch_10">
    <path clip-path="url(#p672a47fc1f)" d="M 266.5885 142 
L 269.661056 142 
L 269.661056 142 
L 266.5885 142 
z
" style="fill:#008000;"/>
   </g>
   <g id="patch_11">
    <path clip-path="url(#p672a47fc1f)" d="M 269.661056 142 
L 272.733611 142 
L 272.733611 130.780788 
L 269.661056 130.780788 
z
" style="fill:#008000;"/>
   </g>
   <g id="patch_12">
    <path clip-path="url(#p672a47fc1f)" d="M 272.733611 142 
L 275.806167 142 
L 275.806167 142 
L 272.733611 142 
z
" style="fill:#008000;"/>
   </g>
   <g id="patch_13">
    <path clip-path="url(#p672a47fc1f)" d="M 275.806167 142 
L 278.878722 142 
L 278.878722 142 
L 275.806167 142 
z
" style="fill:#008000;"/>
   </g>
   <g id="patch_14">
    <path clip-path="url(#p672a47fc1f)" d="M 278.878722 142 
L 281.951278 142 
L 281.951278 136.747394 
L 278.878722 136.747394 
z
" style="fill:#008000;"/>
   </g>
   <g id="patch_15">
    <path clip-path="url(#p672a47fc1f)" d="M 281.951278 142 
L 285.023833 142 
L 285.023833 142 
L 281.951278 142 
z
" style="fill:#008000;"/>
   </g>
   <g id="patch_16">
    <path clip-path="url(#p672a47fc1f)" d="M 285.023833 142 
L 288.096389 142 
L 288.096389 142 
L 285.023833 142 
z
" style="fill:#008000;"/>
   </g>
   <g id="patch_17">
    <path clip-path="url(#p672a47fc1f)" d="M 288.096389 142 
L 291.168944 142 
L 291.168944 138.722241 
L 288.096389 138.722241 
z
" style="fill:#008000;"/>
   </g>
   <g id="patch_18">
    <path clip-path="url(#p672a47fc1f)" d="M 291.168944 142 
L 294.2415 142 
L 294.2415 142 
L 291.168944 142 
z
" style="fill:#008000;"/>
   </g>
   <g id="patch_19">
    <path clip-path="url(#p672a47fc1f)" d="M 294.2415 142 
L 297.314056 142 
L 297.314056 142 
L 294.2415 142 
z
" style="fill:#008000;"/>
   </g>
   <g id="patch_20">
    <path clip-path="url(#p672a47fc1f)" d="M 297.314056 142 
L 300.386611 142 
L 300.386611 139.78826 
L 297.314056 139.78826 
z
" style="fill:#008000;"/>
   </g>
   <g id="patch_21">
    <path clip-path="url(#p672a47fc1f)" d="M 300.386611 142 
L 303.459167 142 
L 303.459167 142 
L 300.386611 142 
z
" style="fill:#008000;"/>
   </g>
   <g id="patch_22">
    <path clip-path="url(#p672a47fc1f)" d="M 303.459167 142 
L 306.531722 142 
L 306.531722 142 
L 303.459167 142 
z
" style="fill:#008000;"/>
   </g>
   <g id="patch_23">
    <path clip-path="url(#p672a47fc1f)" d="M 306.531722 142 
L 309.604278 142 
L 309.604278 140.556502 
L 306.531722 140.556502 
z
" style="fill:#008000;"/>
   </g>
   <g id="patch_24">
    <path clip-path="url(#p672a47fc1f)" d="M 309.604278 142 
L 312.676833 142 
L 312.676833 142 
L 309.604278 142 
z
" style="fill:#008000;"/>
   </g>
   <g id="patch_25">
    <path clip-path="url(#p672a47fc1f)" d="M 312.676833 142 
L 315.749389 142 
L 315.749389 140.974939 
L 312.676833 140.974939 
z
" style="fill:#008000;"/>
   </g>
   <g id="patch_26">
    <path clip-path="url(#p672a47fc1f)" d="M 315.749389 142 
L 318.821944 142 
L 318.821944 142 
L 315.749389 142 
z
" style="fill:#008000;"/>
   </g>
   <g id="patch_27">
    <path clip-path="url(#p672a47fc1f)" d="M 318.821944 142 
L 321.8945 142 
L 321.8945 142 
L 318.821944 142 
z
" style="fill:#008000;"/>
   </g>
   <g id="patch_28">
    <path clip-path="url(#p672a47fc1f)" d="M 321.8945 142 
L 324.967056 142 
L 324.967056 141.241721 
L 321.8945 141.241721 
z
" style="fill:#008000;"/>
   </g>
   <g id="patch_29">
    <path clip-path="url(#p672a47fc1f)" d="M 324.967056 142 
L 328.039611 142 
L 328.039611 142 
L 324.967056 142 
z
" style="fill:#008000;"/>
   </g>
   <g id="patch_30">
    <path clip-path="url(#p672a47fc1f)" d="M 328.039611 142 
L 331.112167 142 
L 331.112167 142 
L 328.039611 142 
z
" style="fill:#008000;"/>
   </g>
   <g id="patch_31">
    <path clip-path="url(#p672a47fc1f)" d="M 331.112167 142 
L 334.184722 142 
L 334.184722 141.478614 
L 331.112167 141.478614 
z
" style="fill:#008000;"/>
   </g>
   <g id="patch_32">
    <path clip-path="url(#p672a47fc1f)" d="M 334.184722 142 
L 337.257278 142 
L 337.257278 142 
L 334.184722 142 
z
" style="fill:#008000;"/>
   </g>
   <g id="patch_33">
    <path clip-path="url(#p672a47fc1f)" d="M 337.257278 142 
L 340.329833 142 
L 340.329833 142 
L 337.257278 142 
z
" style="fill:#008000;"/>
   </g>
   <g id="patch_34">
    <path clip-path="url(#p672a47fc1f)" d="M 340.329833 142 
L 343.402389 142 
L 343.402389 141.620307 
L 340.329833 141.620307 
z
" style="fill:#008000;"/>
   </g>
   <g id="patch_35">
    <path clip-path="url(#p672a47fc1f)" d="M 343.402389 142 
L 346.474944 142 
L 346.474944 142 
L 343.402389 142 
z
" style="fill:#008000;"/>
   </g>
   <g id="patch_36">
    <path clip-path="url(#p672a47fc1f)" d="M 346.474944 142 
L 349.5475 142 
L 349.5475 142 
L 346.474944 142 
z
" style="fill:#008000;"/>
   </g>
   <g id="patch_37">
    <path clip-path="url(#p672a47fc1f)" d="M 349.5475 142 
L 352.620056 142 
L 352.620056 141.664586 
L 349.5475 141.664586 
z
" style="fill:#008000;"/>
   </g>
   <g id="patch_38">
    <path clip-path="url(#p672a47fc1f)" d="M 352.620056 142 
L 355.692611 142 
L 355.692611 142 
L 352.620056 142 
z
" style="fill:#008000;"/>
   </g>
   <g id="patch_39">
    <path clip-path="url(#p672a47fc1f)" d="M 355.692611 142 
L 358.765167 142 
L 358.765167 141.823991 
L 355.692611 141.823991 
z
" style="fill:#008000;"/>
   </g>
   <g id="patch_40">
    <path clip-path="url(#p672a47fc1f)" d="M 358.765167 142 
L 361.837722 142 
L 361.837722 142 
L 358.765167 142 
z
" style="fill:#008000;"/>
   </g>
   <g id="patch_41">
    <path clip-path="url(#p672a47fc1f)" d="M 361.837722 142 
L 364.910278 142 
L 364.910278 142 
L 361.837722 142 
z
" style="fill:#008000;"/>
   </g>
   <g id="patch_42">
    <path clip-path="url(#p672a47fc1f)" d="M 364.910278 142 
L 367.982833 142 
L 367.982833 141.831739 
L 364.910278 141.831739 
z
" style="fill:#008000;"/>
   </g>
   <g id="patch_43">
    <path clip-path="url(#p672a47fc1f)" d="M 367.982833 142 
L 371.055389 142 
L 371.055389 142 
L 367.982833 142 
z
" style="fill:#008000;"/>
   </g>
   <g id="patch_44">
    <path clip-path="url(#p672a47fc1f)" d="M 371.055389 142 
L 374.127944 142 
L 374.127944 142 
L 371.055389 142 
z
" style="fill:#008000;"/>
   </g>
   <g id="patch_45">
    <path clip-path="url(#p672a47fc1f)" d="M 374.127944 142 
L 377.2005 142 
L 377.2005 141.88266 
L 374.127944 141.88266 
z
" style="fill:#008000;"/>
   </g>
   <g id="patch_46">
    <path clip-path="url(#p672a47fc1f)" d="M 377.2005 142 
L 380.273056 142 
L 380.273056 142 
L 377.2005 142 
z
" style="fill:#008000;"/>
   </g>
   <g id="patch_47">
    <path clip-path="url(#p672a47fc1f)" d="M 380.273056 142 
L 383.345611 142 
L 383.345611 142 
L 380.273056 142 
z
" style="fill:#008000;"/>
   </g>
   <g id="patch_48">
    <path clip-path="url(#p672a47fc1f)" d="M 383.345611 142 
L 386.418167 142 
L 386.418167 141.884874 
L 383.345611 141.884874 
z
" style="fill:#008000;"/>
   </g>
   <g id="patch_49">
    <path clip-path="url(#p672a47fc1f)" d="M 386.418167 142 
L 389.490722 142 
L 389.490722 142 
L 386.418167 142 
z
" style="fill:#008000;"/>
   </g>
   <g id="patch_50">
    <path clip-path="url(#p672a47fc1f)" d="M 389.490722 142 
L 392.563278 142 
L 392.563278 142 
L 389.490722 142 
z
" style="fill:#008000;"/>
   </g>
   <g id="patch_51">
    <path clip-path="url(#p672a47fc1f)" d="M 392.563278 142 
L 395.635833 142 
L 395.635833 141.909228 
L 392.563278 141.909228 
z
" style="fill:#008000;"/>
   </g>
   <g id="patch_52">
    <path clip-path="url(#p672a47fc1f)" d="M 395.635833 142 
L 398.708389 142 
L 398.708389 142 
L 395.635833 142 
z
" style="fill:#008000;"/>
   </g>
   <g id="patch_53">
    <path clip-path="url(#p672a47fc1f)" d="M 398.708389 142 
L 401.780944 142 
L 401.780944 142 
L 398.708389 142 
z
" style="fill:#008000;"/>
   </g>
   <g id="patch_54">
    <path clip-path="url(#p672a47fc1f)" d="M 401.780944 142 
L 404.8535 142 
L 404.8535 141.924726 
L 401.780944 141.924726 
z
" style="fill:#008000;"/>
   </g>
   <g id="patch_55">
    <path clip-path="url(#p672a47fc1f)" d="M 404.8535 142 
L 407.926056 142 
L 407.926056 142 
L 404.8535 142 
z
" style="fill:#008000;"/>
   </g>
   <g id="patch_56">
    <path clip-path="url(#p672a47fc1f)" d="M 407.926056 142 
L 410.998611 142 
L 410.998611 141.935795 
L 407.926056 141.935795 
z
" style="fill:#008000;"/>
   </g>
   <g id="patch_57">
    <path clip-path="url(#p672a47fc1f)" d="M 410.998611 142 
L 414.071167 142 
L 414.071167 142 
L 410.998611 142 
z
" style="fill:#008000;"/>
   </g>
   <g id="patch_58">
    <path clip-path="url(#p672a47fc1f)" d="M 414.071167 142 
L 417.143722 142 
L 417.143722 142 
L 414.071167 142 
z
" style="fill:#008000;"/>
   </g>
   <g id="patch_59">
    <path clip-path="url(#p672a47fc1f)" d="M 417.143722 142 
L 420.216278 142 
L 420.216278 142 
L 417.143722 142 
z
" style="fill:#008000;"/>
   </g>
   <g id="matplotlib.axis_3">
    <g id="xtick_1">
     <g id="line2d_9">
      <defs>
       <path d="M 0 0 
L 0 3.5 
" id="m0098cf976b" style="stroke:#000000;stroke-width:0.8;"/>
      </defs>
      <g>
       <use style="stroke:#000000;stroke-width:0.8;" x="265.052222" xlink:href="#m0098cf976b" y="142"/>
      </g>
     </g>
     <g id="text_5">
      <!-- 0 -->
      <g transform="translate(261.234722 158.118125)scale(0.12 -0.12)">
       <use xlink:href="#DejaVuSans-30"/>
      </g>
     </g>
    </g>
    <g id="xtick_2">
     <g id="line2d_10">
      <g>
       <use style="stroke:#000000;stroke-width:0.8;" x="326.503333" xlink:href="#m0098cf976b" y="142"/>
      </g>
     </g>
     <g id="text_6">
      <!-- 20 -->
      <defs>
       <path d="M 19.1875 8.296875 
L 53.609375 8.296875 
L 53.609375 0 
L 7.328125 0 
L 7.328125 8.296875 
Q 12.9375 14.109375 22.625 23.890625 
Q 32.328125 33.6875 34.8125 36.53125 
Q 39.546875 41.84375 41.421875 45.53125 
Q 43.3125 49.21875 43.3125 52.78125 
Q 43.3125 58.59375 39.234375 62.25 
Q 35.15625 65.921875 28.609375 65.921875 
Q 23.96875 65.921875 18.8125 64.3125 
Q 13.671875 62.703125 7.8125 59.421875 
L 7.8125 69.390625 
Q 13.765625 71.78125 18.9375 73 
Q 24.125 74.21875 28.421875 74.21875 
Q 39.75 74.21875 46.484375 68.546875 
Q 53.21875 62.890625 53.21875 53.421875 
Q 53.21875 48.921875 51.53125 44.890625 
Q 49.859375 40.875 45.40625 35.40625 
Q 44.1875 33.984375 37.640625 27.21875 
Q 31.109375 20.453125 19.1875 8.296875 
z
" id="DejaVuSans-32"/>
      </defs>
      <g transform="translate(318.868333 158.118125)scale(0.12 -0.12)">
       <use xlink:href="#DejaVuSans-32"/>
       <use x="63.623047" xlink:href="#DejaVuSans-30"/>
      </g>
     </g>
    </g>
    <g id="xtick_3">
     <g id="line2d_11">
      <g>
       <use style="stroke:#000000;stroke-width:0.8;" x="387.954444" xlink:href="#m0098cf976b" y="142"/>
      </g>
     </g>
     <g id="text_7">
      <!-- 40 -->
      <defs>
       <path d="M 37.796875 64.3125 
L 12.890625 25.390625 
L 37.796875 25.390625 
z
M 35.203125 72.90625 
L 47.609375 72.90625 
L 47.609375 25.390625 
L 58.015625 25.390625 
L 58.015625 17.1875 
L 47.609375 17.1875 
L 47.609375 0 
L 37.796875 0 
L 37.796875 17.1875 
L 4.890625 17.1875 
L 4.890625 26.703125 
z
" id="DejaVuSans-34"/>
      </defs>
      <g transform="translate(380.319444 158.118125)scale(0.12 -0.12)">
       <use xlink:href="#DejaVuSans-34"/>
       <use x="63.623047" xlink:href="#DejaVuSans-30"/>
      </g>
     </g>
    </g>
    <g id="text_8">
     <!-- Counts per sgRNA -->
     <g transform="translate(272.081458 173.731875)scale(0.12 -0.12)">
      <use xlink:href="#DejaVuSans-43"/>
      <use x="69.824219" xlink:href="#DejaVuSans-6f"/>
      <use x="131.005859" xlink:href="#DejaVuSans-75"/>
      <use x="194.384766" xlink:href="#DejaVuSans-6e"/>
      <use x="257.763672" xlink:href="#DejaVuSans-74"/>
      <use x="296.972656" xlink:href="#DejaVuSans-73"/>
      <use x="349.072266" xlink:href="#DejaVuSans-20"/>
      <use x="380.859375" xlink:href="#DejaVuSans-70"/>
      <use x="444.335938" xlink:href="#DejaVuSans-65"/>
      <use x="505.859375" xlink:href="#DejaVuSans-72"/>
      <use x="546.972656" xlink:href="#DejaVuSans-20"/>
      <use x="578.759766" xlink:href="#DejaVuSans-73"/>
      <use x="630.859375" xlink:href="#DejaVuSans-67"/>
      <use x="694.335938" xlink:href="#DejaVuSans-52"/>
      <use x="763.818359" xlink:href="#DejaVuSans-4e"/>
      <use x="838.623047" xlink:href="#DejaVuSans-41"/>
     </g>
    </g>
   </g>
   <g id="matplotlib.axis_4">
    <g id="ytick_4">
     <g id="line2d_12">
      <g>
       <use style="stroke:#000000;stroke-width:0.8;" x="234.326667" xlink:href="#me9985b6c14" y="142"/>
      </g>
     </g>
     <g id="text_9">
      <!-- 0k -->
      <defs>
       <path d="M 9.078125 75.984375 
L 18.109375 75.984375 
L 18.109375 31.109375 
L 44.921875 54.6875 
L 56.390625 54.6875 
L 27.390625 29.109375 
L 57.625 0 
L 45.90625 0 
L 18.109375 26.703125 
L 18.109375 0 
L 9.078125 0 
z
" id="DejaVuSans-6b"/>
      </defs>
      <g transform="translate(212.742917 146.559063)scale(0.12 -0.12)">
       <use xlink:href="#DejaVuSans-30"/>
       <use x="63.623047" xlink:href="#DejaVuSans-6b"/>
      </g>
     </g>
    </g>
    <g id="ytick_5">
     <g id="line2d_13">
      <g>
       <use style="stroke:#000000;stroke-width:0.8;" x="234.326667" xlink:href="#me9985b6c14" y="86.651148"/>
      </g>
     </g>
     <g id="text_10">
      <!-- 50k -->
      <g transform="translate(205.107917 91.21021)scale(0.12 -0.12)">
       <use xlink:href="#DejaVuSans-35"/>
       <use x="63.623047" xlink:href="#DejaVuSans-30"/>
       <use x="127.246094" xlink:href="#DejaVuSans-6b"/>
      </g>
     </g>
    </g>
    <g id="ytick_6">
     <g id="line2d_14">
      <g>
       <use style="stroke:#000000;stroke-width:0.8;" x="234.326667" xlink:href="#me9985b6c14" y="31.302296"/>
      </g>
     </g>
     <g id="text_11">
      <!-- 100k -->
      <defs>
       <path d="M 12.40625 8.296875 
L 28.515625 8.296875 
L 28.515625 63.921875 
L 10.984375 60.40625 
L 10.984375 69.390625 
L 28.421875 72.90625 
L 38.28125 72.90625 
L 38.28125 8.296875 
L 54.390625 8.296875 
L 54.390625 0 
L 12.40625 0 
z
" id="DejaVuSans-31"/>
      </defs>
      <g transform="translate(197.472917 35.861358)scale(0.12 -0.12)">
       <use xlink:href="#DejaVuSans-31"/>
       <use x="63.623047" xlink:href="#DejaVuSans-30"/>
       <use x="127.246094" xlink:href="#DejaVuSans-30"/>
       <use x="190.869141" xlink:href="#DejaVuSans-6b"/>
      </g>
     </g>
    </g>
    <g id="text_12">
     <!-- Number of sgRNAs -->
     <defs>
      <path d="M 52 44.1875 
Q 55.375 50.25 60.0625 53.125 
Q 64.75 56 71.09375 56 
Q 79.640625 56 84.28125 50.015625 
Q 88.921875 44.046875 88.921875 33.015625 
L 88.921875 0 
L 79.890625 0 
L 79.890625 32.71875 
Q 79.890625 40.578125 77.09375 44.375 
Q 74.3125 48.1875 68.609375 48.1875 
Q 61.625 48.1875 57.5625 43.546875 
Q 53.515625 38.921875 53.515625 30.90625 
L 53.515625 0 
L 44.484375 0 
L 44.484375 32.71875 
Q 44.484375 40.625 41.703125 44.40625 
Q 38.921875 48.1875 33.109375 48.1875 
Q 26.21875 48.1875 22.15625 43.53125 
Q 18.109375 38.875 18.109375 30.90625 
L 18.109375 0 
L 9.078125 0 
L 9.078125 54.6875 
L 18.109375 54.6875 
L 18.109375 46.1875 
Q 21.1875 51.21875 25.484375 53.609375 
Q 29.78125 56 35.6875 56 
Q 41.65625 56 45.828125 52.96875 
Q 50 49.953125 52 44.1875 
z
" id="DejaVuSans-6d"/>
      <path d="M 48.6875 27.296875 
Q 48.6875 37.203125 44.609375 42.84375 
Q 40.53125 48.484375 33.40625 48.484375 
Q 26.265625 48.484375 22.1875 42.84375 
Q 18.109375 37.203125 18.109375 27.296875 
Q 18.109375 17.390625 22.1875 11.75 
Q 26.265625 6.109375 33.40625 6.109375 
Q 40.53125 6.109375 44.609375 11.75 
Q 48.6875 17.390625 48.6875 27.296875 
z
M 18.109375 46.390625 
Q 20.953125 51.265625 25.265625 53.625 
Q 29.59375 56 35.59375 56 
Q 45.5625 56 51.78125 48.09375 
Q 58.015625 40.1875 58.015625 27.296875 
Q 58.015625 14.40625 51.78125 6.484375 
Q 45.5625 -1.421875 35.59375 -1.421875 
Q 29.59375 -1.421875 25.265625 0.953125 
Q 20.953125 3.328125 18.109375 8.203125 
L 18.109375 0 
L 9.078125 0 
L 9.078125 75.984375 
L 18.109375 75.984375 
z
" id="DejaVuSans-62"/>
      <path d="M 37.109375 75.984375 
L 37.109375 68.5 
L 28.515625 68.5 
Q 23.6875 68.5 21.796875 66.546875 
Q 19.921875 64.59375 19.921875 59.515625 
L 19.921875 54.6875 
L 34.71875 54.6875 
L 34.71875 47.703125 
L 19.921875 47.703125 
L 19.921875 0 
L 10.890625 0 
L 10.890625 47.703125 
L 2.296875 47.703125 
L 2.296875 54.6875 
L 10.890625 54.6875 
L 10.890625 58.5 
Q 10.890625 67.625 15.140625 71.796875 
Q 19.390625 75.984375 28.609375 75.984375 
z
" id="DejaVuSans-66"/>
     </defs>
     <g transform="translate(190.977292 142.402812)rotate(-90)scale(0.12 -0.12)">
      <use xlink:href="#DejaVuSans-4e"/>
      <use x="74.804688" xlink:href="#DejaVuSans-75"/>
      <use x="138.183594" xlink:href="#DejaVuSans-6d"/>
      <use x="235.595703" xlink:href="#DejaVuSans-62"/>
      <use x="299.072266" xlink:href="#DejaVuSans-65"/>
      <use x="360.595703" xlink:href="#DejaVuSans-72"/>
      <use x="401.708984" xlink:href="#DejaVuSans-20"/>
      <use x="433.496094" xlink:href="#DejaVuSans-6f"/>
      <use x="494.677734" xlink:href="#DejaVuSans-66"/>
      <use x="529.882812" xlink:href="#DejaVuSans-20"/>
      <use x="561.669922" xlink:href="#DejaVuSans-73"/>
      <use x="613.769531" xlink:href="#DejaVuSans-67"/>
      <use x="677.246094" xlink:href="#DejaVuSans-52"/>
      <use x="746.728516" xlink:href="#DejaVuSans-4e"/>
      <use x="821.533203" xlink:href="#DejaVuSans-41"/>
      <use x="889.941406" xlink:href="#DejaVuSans-73"/>
     </g>
    </g>
   </g>
   <g id="patch_60">
    <path d="M 234.326667 142 
L 234.326667 29.76 
" style="fill:none;stroke:#000000;stroke-linecap:square;stroke-linejoin:miter;stroke-width:0.8;"/>
   </g>
   <g id="patch_61">
    <path d="M 418.68 142 
L 418.68 29.76 
" style="fill:none;stroke:#000000;stroke-linecap:square;stroke-linejoin:miter;stroke-width:0.8;"/>
   </g>
   <g id="patch_62">
    <path d="M 234.326667 142 
L 418.68 142 
" style="fill:none;stroke:#000000;stroke-linecap:square;stroke-linejoin:miter;stroke-width:0.8;"/>
   </g>
   <g id="patch_63">
    <path d="M 234.326667 29.76 
L 418.68 29.76 
" style="fill:none;stroke:#000000;stroke-linecap:square;stroke-linejoin:miter;stroke-width:0.8;"/>
   </g>
   <g id="text_13">
    <!-- EMPTY -->
    <defs>
     <path d="M 9.8125 72.90625 
L 55.90625 72.90625 
L 55.90625 64.59375 
L 19.671875 64.59375 
L 19.671875 43.015625 
L 54.390625 43.015625 
L 54.390625 34.71875 
L 19.671875 34.71875 
L 19.671875 8.296875 
L 56.78125 8.296875 
L 56.78125 0 
L 9.8125 0 
z
" id="DejaVuSans-45"/>
     <path d="M 9.8125 72.90625 
L 24.515625 72.90625 
L 43.109375 23.296875 
L 61.8125 72.90625 
L 76.515625 72.90625 
L 76.515625 0 
L 66.890625 0 
L 66.890625 64.015625 
L 48.09375 14.015625 
L 38.1875 14.015625 
L 19.390625 64.015625 
L 19.390625 0 
L 9.8125 0 
z
" id="DejaVuSans-4d"/>
     <path d="M 19.671875 64.796875 
L 19.671875 37.40625 
L 32.078125 37.40625 
Q 38.96875 37.40625 42.71875 40.96875 
Q 46.484375 44.53125 46.484375 51.125 
Q 46.484375 57.671875 42.71875 61.234375 
Q 38.96875 64.796875 32.078125 64.796875 
z
M 9.8125 72.90625 
L 32.078125 72.90625 
Q 44.34375 72.90625 50.609375 67.359375 
Q 56.890625 61.8125 56.890625 51.125 
Q 56.890625 40.328125 50.609375 34.8125 
Q 44.34375 29.296875 32.078125 29.296875 
L 19.671875 29.296875 
L 19.671875 0 
L 9.8125 0 
z
" id="DejaVuSans-50"/>
     <path d="M -0.296875 72.90625 
L 61.375 72.90625 
L 61.375 64.59375 
L 35.5 64.59375 
L 35.5 0 
L 25.59375 0 
L 25.59375 64.59375 
L -0.296875 64.59375 
z
" id="DejaVuSans-54"/>
     <path d="M -0.203125 72.90625 
L 10.40625 72.90625 
L 30.609375 42.921875 
L 50.6875 72.90625 
L 61.28125 72.90625 
L 35.5 34.71875 
L 35.5 0 
L 25.59375 0 
L 25.59375 34.71875 
z
" id="DejaVuSans-59"/>
    </defs>
    <g style="fill:#ffffff;" transform="translate(299.949583 23.76)scale(0.16 -0.16)">
     <use xlink:href="#DejaVuSans-45"/>
     <use x="63.183594" xlink:href="#DejaVuSans-4d"/>
     <use x="149.462891" xlink:href="#DejaVuSans-50"/>
     <use x="209.765625" xlink:href="#DejaVuSans-54"/>
     <use x="270.849609" xlink:href="#DejaVuSans-59"/>
    </g>
   </g>
  </g>
  <g id="axes_3">
   <g id="patch_64">
    <path d="M 77.06 316.6 
L 169.236667 316.6 
L 169.236667 204.36 
L 77.06 204.36 
z
" style="fill:#ffffff;"/>
   </g>
   <g id="matplotlib.axis_5"/>
   <g id="matplotlib.axis_6">
    <g id="ytick_7">
     <g id="line2d_15">
      <g>
       <use style="stroke:#000000;stroke-width:0.8;" x="77.06" xlink:href="#me9985b6c14" y="311.498182"/>
      </g>
     </g>
     <g id="text_14">
      <!-- 0 -->
      <g transform="translate(62.425 316.057244)scale(0.12 -0.12)">
       <use xlink:href="#DejaVuSans-30"/>
      </g>
     </g>
    </g>
    <g id="ytick_8">
     <g id="line2d_16">
      <g>
       <use style="stroke:#000000;stroke-width:0.8;" x="77.06" xlink:href="#me9985b6c14" y="263.220153"/>
      </g>
     </g>
     <g id="text_15">
      <!-- 20 -->
      <g transform="translate(54.79 267.779215)scale(0.12 -0.12)">
       <use xlink:href="#DejaVuSans-32"/>
       <use x="63.623047" xlink:href="#DejaVuSans-30"/>
      </g>
     </g>
    </g>
    <g id="ytick_9">
     <g id="line2d_17">
      <g>
       <use style="stroke:#000000;stroke-width:0.8;" x="77.06" xlink:href="#me9985b6c14" y="214.942123"/>
      </g>
     </g>
     <g id="text_16">
      <!-- 40 -->
      <g transform="translate(54.79 219.501186)scale(0.12 -0.12)">
       <use xlink:href="#DejaVuSans-34"/>
       <use x="63.623047" xlink:href="#DejaVuSans-30"/>
      </g>
     </g>
    </g>
    <g id="text_17">
     <!-- Counts per Gene -->
     <defs>
      <path d="M 59.515625 10.40625 
L 59.515625 29.984375 
L 43.40625 29.984375 
L 43.40625 38.09375 
L 69.28125 38.09375 
L 69.28125 6.78125 
Q 63.578125 2.734375 56.6875 0.65625 
Q 49.8125 -1.421875 42 -1.421875 
Q 24.90625 -1.421875 15.25 8.5625 
Q 5.609375 18.5625 5.609375 36.375 
Q 5.609375 54.25 15.25 64.234375 
Q 24.90625 74.21875 42 74.21875 
Q 49.125 74.21875 55.546875 72.453125 
Q 61.96875 70.703125 67.390625 67.28125 
L 67.390625 56.78125 
Q 61.921875 61.421875 55.765625 63.765625 
Q 49.609375 66.109375 42.828125 66.109375 
Q 29.4375 66.109375 22.71875 58.640625 
Q 16.015625 51.171875 16.015625 36.375 
Q 16.015625 21.625 22.71875 14.15625 
Q 29.4375 6.6875 42.828125 6.6875 
Q 48.046875 6.6875 52.140625 7.59375 
Q 56.25 8.5 59.515625 10.40625 
z
" id="DejaVuSans-47"/>
     </defs>
     <g transform="translate(48.294375 311.040312)rotate(-90)scale(0.12 -0.12)">
      <use xlink:href="#DejaVuSans-43"/>
      <use x="69.824219" xlink:href="#DejaVuSans-6f"/>
      <use x="131.005859" xlink:href="#DejaVuSans-75"/>
      <use x="194.384766" xlink:href="#DejaVuSans-6e"/>
      <use x="257.763672" xlink:href="#DejaVuSans-74"/>
      <use x="296.972656" xlink:href="#DejaVuSans-73"/>
      <use x="349.072266" xlink:href="#DejaVuSans-20"/>
      <use x="380.859375" xlink:href="#DejaVuSans-70"/>
      <use x="444.335938" xlink:href="#DejaVuSans-65"/>
      <use x="505.859375" xlink:href="#DejaVuSans-72"/>
      <use x="546.972656" xlink:href="#DejaVuSans-20"/>
      <use x="578.759766" xlink:href="#DejaVuSans-47"/>
      <use x="656.25" xlink:href="#DejaVuSans-65"/>
      <use x="717.773438" xlink:href="#DejaVuSans-6e"/>
      <use x="781.152344" xlink:href="#DejaVuSans-65"/>
     </g>
    </g>
   </g>
   <g id="line2d_18">
    <path clip-path="url(#p43eda9f79f)" d="M 123.148333 311.498182 
L 123.148333 311.498182 
" style="fill:none;stroke:#000000;stroke-linecap:square;"/>
   </g>
   <g id="line2d_19">
    <path clip-path="url(#p43eda9f79f)" d="M 123.148333 270.683636 
L 123.148333 209.461818 
" style="fill:none;stroke:#000000;stroke-linecap:square;"/>
   </g>
   <g id="line2d_20">
    <path clip-path="url(#p43eda9f79f)" d="M 119.691708 311.498182 
L 126.604958 311.498182 
" style="fill:none;stroke:#000000;stroke-linecap:square;"/>
   </g>
   <g id="line2d_21">
    <path clip-path="url(#p43eda9f79f)" d="M 119.691708 209.461818 
L 126.604958 209.461818 
" style="fill:none;stroke:#000000;stroke-linecap:square;"/>
   </g>
   <g id="patch_65">
    <path clip-path="url(#p43eda9f79f)" d="M 116.235083 311.498182 
L 130.061583 311.498182 
L 130.061583 270.683636 
L 116.235083 270.683636 
L 116.235083 311.498182 
z
" style="fill:#9de4f9;stroke:#000000;stroke-linejoin:miter;"/>
   </g>
   <g id="line2d_22">
    <path clip-path="url(#p43eda9f79f)" d="M 116.235083 297.893333 
L 130.061583 297.893333 
" style="fill:none;stroke:#ff0000;stroke-linecap:square;"/>
   </g>
   <g id="patch_66">
    <path d="M 77.06 316.6 
L 77.06 204.36 
" style="fill:none;stroke:#000000;stroke-linecap:square;stroke-linejoin:miter;stroke-width:0.8;"/>
   </g>
   <g id="patch_67">
    <path d="M 169.236667 316.6 
L 169.236667 204.36 
" style="fill:none;stroke:#000000;stroke-linecap:square;stroke-linejoin:miter;stroke-width:0.8;"/>
   </g>
   <g id="patch_68">
    <path d="M 77.06 316.6 
L 169.236667 316.6 
" style="fill:none;stroke:#000000;stroke-linecap:square;stroke-linejoin:miter;stroke-width:0.8;"/>
   </g>
   <g id="patch_69">
    <path d="M 77.06 204.36 
L 169.236667 204.36 
" style="fill:none;stroke:#000000;stroke-linecap:square;stroke-linejoin:miter;stroke-width:0.8;"/>
   </g>
  </g>
  <g id="axes_4">
   <g id="patch_70">
    <path d="M 234.326667 316.6 
L 418.68 316.6 
L 418.68 204.36 
L 234.326667 204.36 
z
" style="fill:#ffffff;"/>
   </g>
   <g id="patch_71">
    <path clip-path="url(#pecb03ec549)" d="M 240.963387 316.6 
L 242.438213 316.6 
L 242.438213 209.704762 
L 240.963387 209.704762 
z
" style="fill:#0000ff;"/>
   </g>
   <g id="patch_72">
    <path clip-path="url(#pecb03ec549)" d="M 242.438213 316.6 
L 243.91304 316.6 
L 243.91304 316.6 
L 242.438213 316.6 
z
" style="fill:#0000ff;"/>
   </g>
   <g id="patch_73">
    <path clip-path="url(#pecb03ec549)" d="M 243.91304 316.6 
L 245.387867 316.6 
L 245.387867 263.480901 
L 243.91304 263.480901 
z
" style="fill:#0000ff;"/>
   </g>
   <g id="patch_74">
    <path clip-path="url(#pecb03ec549)" d="M 245.387867 316.6 
L 246.862693 316.6 
L 246.862693 316.6 
L 245.387867 316.6 
z
" style="fill:#0000ff;"/>
   </g>
   <g id="patch_75">
    <path clip-path="url(#pecb03ec549)" d="M 246.862693 316.6 
L 248.33752 316.6 
L 248.33752 316.6 
L 246.862693 316.6 
z
" style="fill:#0000ff;"/>
   </g>
   <g id="patch_76">
    <path clip-path="url(#pecb03ec549)" d="M 248.33752 316.6 
L 249.812347 316.6 
L 249.812347 276.924935 
L 248.33752 276.924935 
z
" style="fill:#0000ff;"/>
   </g>
   <g id="patch_77">
    <path clip-path="url(#pecb03ec549)" d="M 249.812347 316.6 
L 251.287173 316.6 
L 251.287173 316.6 
L 249.812347 316.6 
z
" style="fill:#0000ff;"/>
   </g>
   <g id="patch_78">
    <path clip-path="url(#pecb03ec549)" d="M 251.287173 316.6 
L 252.762 316.6 
L 252.762 316.6 
L 251.287173 316.6 
z
" style="fill:#0000ff;"/>
   </g>
   <g id="patch_79">
    <path clip-path="url(#pecb03ec549)" d="M 252.762 316.6 
L 254.236827 316.6 
L 254.236827 286.612053 
L 252.762 286.612053 
z
" style="fill:#0000ff;"/>
   </g>
   <g id="patch_80">
    <path clip-path="url(#pecb03ec549)" d="M 254.236827 316.6 
L 255.711653 316.6 
L 255.711653 316.6 
L 254.236827 316.6 
z
" style="fill:#0000ff;"/>
   </g>
   <g id="patch_81">
    <path clip-path="url(#pecb03ec549)" d="M 255.711653 316.6 
L 257.18648 316.6 
L 257.18648 316.6 
L 255.711653 316.6 
z
" style="fill:#0000ff;"/>
   </g>
   <g id="patch_82">
    <path clip-path="url(#pecb03ec549)" d="M 257.18648 316.6 
L 258.661307 316.6 
L 258.661307 293.350917 
L 257.18648 293.350917 
z
" style="fill:#0000ff;"/>
   </g>
   <g id="patch_83">
    <path clip-path="url(#pecb03ec549)" d="M 258.661307 316.6 
L 260.136133 316.6 
L 260.136133 316.6 
L 258.661307 316.6 
z
" style="fill:#0000ff;"/>
   </g>
   <g id="patch_84">
    <path clip-path="url(#pecb03ec549)" d="M 260.136133 316.6 
L 261.61096 316.6 
L 261.61096 316.6 
L 260.136133 316.6 
z
" style="fill:#0000ff;"/>
   </g>
   <g id="patch_85">
    <path clip-path="url(#pecb03ec549)" d="M 261.61096 316.6 
L 263.085787 316.6 
L 263.085787 297.832262 
L 261.61096 297.832262 
z
" style="fill:#0000ff;"/>
   </g>
   <g id="patch_86">
    <path clip-path="url(#pecb03ec549)" d="M 263.085787 316.6 
L 264.560613 316.6 
L 264.560613 316.6 
L 263.085787 316.6 
z
" style="fill:#0000ff;"/>
   </g>
   <g id="patch_87">
    <path clip-path="url(#pecb03ec549)" d="M 264.560613 316.6 
L 266.03544 316.6 
L 266.03544 301.841887 
L 264.560613 301.841887 
z
" style="fill:#0000ff;"/>
   </g>
   <g id="patch_88">
    <path clip-path="url(#pecb03ec549)" d="M 266.03544 316.6 
L 267.510267 316.6 
L 267.510267 316.6 
L 266.03544 316.6 
z
" style="fill:#0000ff;"/>
   </g>
   <g id="patch_89">
    <path clip-path="url(#pecb03ec549)" d="M 267.510267 316.6 
L 268.985093 316.6 
L 268.985093 316.6 
L 267.510267 316.6 
z
" style="fill:#0000ff;"/>
   </g>
   <g id="patch_90">
    <path clip-path="url(#pecb03ec549)" d="M 268.985093 316.6 
L 270.45992 316.6 
L 270.45992 303.914088 
L 268.985093 303.914088 
z
" style="fill:#0000ff;"/>
   </g>
   <g id="patch_91">
    <path clip-path="url(#pecb03ec549)" d="M 270.45992 316.6 
L 271.934747 316.6 
L 271.934747 316.6 
L 270.45992 316.6 
z
" style="fill:#0000ff;"/>
   </g>
   <g id="patch_92">
    <path clip-path="url(#pecb03ec549)" d="M 271.934747 316.6 
L 273.409573 316.6 
L 273.409573 316.6 
L 271.934747 316.6 
z
" style="fill:#0000ff;"/>
   </g>
   <g id="patch_93">
    <path clip-path="url(#pecb03ec549)" d="M 273.409573 316.6 
L 274.8844 316.6 
L 274.8844 306.289537 
L 273.409573 306.289537 
z
" style="fill:#0000ff;"/>
   </g>
   <g id="patch_94">
    <path clip-path="url(#pecb03ec549)" d="M 274.8844 316.6 
L 276.359227 316.6 
L 276.359227 316.6 
L 274.8844 316.6 
z
" style="fill:#0000ff;"/>
   </g>
   <g id="patch_95">
    <path clip-path="url(#pecb03ec549)" d="M 276.359227 316.6 
L 277.834053 316.6 
L 277.834053 316.6 
L 276.359227 316.6 
z
" style="fill:#0000ff;"/>
   </g>
   <g id="patch_96">
    <path clip-path="url(#pecb03ec549)" d="M 277.834053 316.6 
L 279.30888 316.6 
L 279.30888 308.985083 
L 277.834053 308.985083 
z
" style="fill:#0000ff;"/>
   </g>
   <g id="patch_97">
    <path clip-path="url(#pecb03ec549)" d="M 279.30888 316.6 
L 280.783707 316.6 
L 280.783707 316.6 
L 279.30888 316.6 
z
" style="fill:#0000ff;"/>
   </g>
   <g id="patch_98">
    <path clip-path="url(#pecb03ec549)" d="M 280.783707 316.6 
L 282.258533 316.6 
L 282.258533 316.6 
L 280.783707 316.6 
z
" style="fill:#0000ff;"/>
   </g>
   <g id="patch_99">
    <path clip-path="url(#pecb03ec549)" d="M 282.258533 316.6 
L 283.73336 316.6 
L 283.73336 309.625275 
L 282.258533 309.625275 
z
" style="fill:#0000ff;"/>
   </g>
   <g id="patch_100">
    <path clip-path="url(#pecb03ec549)" d="M 283.73336 316.6 
L 285.208187 316.6 
L 285.208187 316.6 
L 283.73336 316.6 
z
" style="fill:#0000ff;"/>
   </g>
   <g id="patch_101">
    <path clip-path="url(#pecb03ec549)" d="M 285.208187 316.6 
L 286.683013 316.6 
L 286.683013 311.697476 
L 285.208187 311.697476 
z
" style="fill:#0000ff;"/>
   </g>
   <g id="patch_102">
    <path clip-path="url(#pecb03ec549)" d="M 286.683013 316.6 
L 288.15784 316.6 
L 288.15784 316.6 
L 286.683013 316.6 
z
" style="fill:#0000ff;"/>
   </g>
   <g id="patch_103">
    <path clip-path="url(#pecb03ec549)" d="M 288.15784 316.6 
L 289.632667 316.6 
L 289.632667 316.6 
L 288.15784 316.6 
z
" style="fill:#0000ff;"/>
   </g>
   <g id="patch_104">
    <path clip-path="url(#pecb03ec549)" d="M 289.632667 316.6 
L 291.107493 316.6 
L 291.107493 312.893625 
L 289.632667 312.893625 
z
" style="fill:#0000ff;"/>
   </g>
   <g id="patch_105">
    <path clip-path="url(#pecb03ec549)" d="M 291.107493 316.6 
L 292.58232 316.6 
L 292.58232 316.6 
L 291.107493 316.6 
z
" style="fill:#0000ff;"/>
   </g>
   <g id="patch_106">
    <path clip-path="url(#pecb03ec549)" d="M 292.58232 316.6 
L 294.057147 316.6 
L 294.057147 316.6 
L 292.58232 316.6 
z
" style="fill:#0000ff;"/>
   </g>
   <g id="patch_107">
    <path clip-path="url(#pecb03ec549)" d="M 294.057147 316.6 
L 295.531973 316.6 
L 295.531973 313.028402 
L 294.057147 313.028402 
z
" style="fill:#0000ff;"/>
   </g>
   <g id="patch_108">
    <path clip-path="url(#pecb03ec549)" d="M 295.531973 316.6 
L 297.0068 316.6 
L 297.0068 316.6 
L 295.531973 316.6 
z
" style="fill:#0000ff;"/>
   </g>
   <g id="patch_109">
    <path clip-path="url(#pecb03ec549)" d="M 297.0068 316.6 
L 298.481627 316.6 
L 298.481627 316.6 
L 297.0068 316.6 
z
" style="fill:#0000ff;"/>
   </g>
   <g id="patch_110">
    <path clip-path="url(#pecb03ec549)" d="M 298.481627 316.6 
L 299.956453 316.6 
L 299.956453 313.837066 
L 298.481627 313.837066 
z
" style="fill:#0000ff;"/>
   </g>
   <g id="patch_111">
    <path clip-path="url(#pecb03ec549)" d="M 299.956453 316.6 
L 301.43128 316.6 
L 301.43128 316.6 
L 299.956453 316.6 
z
" style="fill:#0000ff;"/>
   </g>
   <g id="patch_112">
    <path clip-path="url(#pecb03ec549)" d="M 301.43128 316.6 
L 302.906107 316.6 
L 302.906107 316.6 
L 301.43128 316.6 
z
" style="fill:#0000ff;"/>
   </g>
   <g id="patch_113">
    <path clip-path="url(#pecb03ec549)" d="M 302.906107 316.6 
L 304.380933 316.6 
L 304.380933 314.291939 
L 302.906107 314.291939 
z
" style="fill:#0000ff;"/>
   </g>
   <g id="patch_114">
    <path clip-path="url(#pecb03ec549)" d="M 304.380933 316.6 
L 305.85576 316.6 
L 305.85576 316.6 
L 304.380933 316.6 
z
" style="fill:#0000ff;"/>
   </g>
   <g id="patch_115">
    <path clip-path="url(#pecb03ec549)" d="M 305.85576 316.6 
L 307.330587 316.6 
L 307.330587 316.6 
L 305.85576 316.6 
z
" style="fill:#0000ff;"/>
   </g>
   <g id="patch_116">
    <path clip-path="url(#pecb03ec549)" d="M 307.330587 316.6 
L 308.805413 316.6 
L 308.805413 314.729965 
L 307.330587 314.729965 
z
" style="fill:#0000ff;"/>
   </g>
   <g id="patch_117">
    <path clip-path="url(#pecb03ec549)" d="M 308.805413 316.6 
L 310.28024 316.6 
L 310.28024 316.6 
L 308.805413 316.6 
z
" style="fill:#0000ff;"/>
   </g>
   <g id="patch_118">
    <path clip-path="url(#pecb03ec549)" d="M 310.28024 316.6 
L 311.755067 316.6 
L 311.755067 315.083755 
L 310.28024 315.083755 
z
" style="fill:#0000ff;"/>
   </g>
   <g id="patch_119">
    <path clip-path="url(#pecb03ec549)" d="M 311.755067 316.6 
L 313.229893 316.6 
L 313.229893 316.6 
L 311.755067 316.6 
z
" style="fill:#0000ff;"/>
   </g>
   <g id="patch_120">
    <path clip-path="url(#pecb03ec549)" d="M 313.229893 316.6 
L 314.70472 316.6 
L 314.70472 316.6 
L 313.229893 316.6 
z
" style="fill:#0000ff;"/>
   </g>
   <g id="patch_121">
    <path clip-path="url(#pecb03ec549)" d="M 314.70472 316.6 
L 316.179547 316.6 
L 316.179547 315.269074 
L 314.70472 315.269074 
z
" style="fill:#0000ff;"/>
   </g>
   <g id="patch_122">
    <path clip-path="url(#pecb03ec549)" d="M 316.179547 316.6 
L 317.654373 316.6 
L 317.654373 316.6 
L 316.179547 316.6 
z
" style="fill:#0000ff;"/>
   </g>
   <g id="patch_123">
    <path clip-path="url(#pecb03ec549)" d="M 317.654373 316.6 
L 319.1292 316.6 
L 319.1292 316.6 
L 317.654373 316.6 
z
" style="fill:#0000ff;"/>
   </g>
   <g id="patch_124">
    <path clip-path="url(#pecb03ec549)" d="M 319.1292 316.6 
L 320.604027 316.6 
L 320.604027 315.521782 
L 319.1292 315.521782 
z
" style="fill:#0000ff;"/>
   </g>
   <g id="patch_125">
    <path clip-path="url(#pecb03ec549)" d="M 320.604027 316.6 
L 322.078853 316.6 
L 322.078853 316.6 
L 320.604027 316.6 
z
" style="fill:#0000ff;"/>
   </g>
   <g id="patch_126">
    <path clip-path="url(#pecb03ec549)" d="M 322.078853 316.6 
L 323.55368 316.6 
L 323.55368 316.6 
L 322.078853 316.6 
z
" style="fill:#0000ff;"/>
   </g>
   <g id="patch_127">
    <path clip-path="url(#pecb03ec549)" d="M 323.55368 316.6 
L 325.028507 316.6 
L 325.028507 315.454393 
L 323.55368 315.454393 
z
" style="fill:#0000ff;"/>
   </g>
   <g id="patch_128">
    <path clip-path="url(#pecb03ec549)" d="M 325.028507 316.6 
L 326.503333 316.6 
L 326.503333 316.6 
L 325.028507 316.6 
z
" style="fill:#0000ff;"/>
   </g>
   <g id="patch_129">
    <path clip-path="url(#pecb03ec549)" d="M 326.503333 316.6 
L 327.97816 316.6 
L 327.97816 316.6 
L 326.503333 316.6 
z
" style="fill:#0000ff;"/>
   </g>
   <g id="patch_130">
    <path clip-path="url(#pecb03ec549)" d="M 327.97816 316.6 
L 329.452987 316.6 
L 329.452987 315.504935 
L 327.97816 315.504935 
z
" style="fill:#0000ff;"/>
   </g>
   <g id="patch_131">
    <path clip-path="url(#pecb03ec549)" d="M 329.452987 316.6 
L 330.927813 316.6 
L 330.927813 316.6 
L 329.452987 316.6 
z
" style="fill:#0000ff;"/>
   </g>
   <g id="patch_132">
    <path clip-path="url(#pecb03ec549)" d="M 330.927813 316.6 
L 332.40264 316.6 
L 332.40264 315.808183 
L 330.927813 315.808183 
z
" style="fill:#0000ff;"/>
   </g>
   <g id="patch_133">
    <path clip-path="url(#pecb03ec549)" d="M 332.40264 316.6 
L 333.877467 316.6 
L 333.877467 316.6 
L 332.40264 316.6 
z
" style="fill:#0000ff;"/>
   </g>
   <g id="patch_134">
    <path clip-path="url(#pecb03ec549)" d="M 333.877467 316.6 
L 335.352293 316.6 
L 335.352293 316.6 
L 333.877467 316.6 
z
" style="fill:#0000ff;"/>
   </g>
   <g id="patch_135">
    <path clip-path="url(#pecb03ec549)" d="M 335.352293 316.6 
L 336.82712 316.6 
L 336.82712 315.942961 
L 335.352293 315.942961 
z
" style="fill:#0000ff;"/>
   </g>
   <g id="patch_136">
    <path clip-path="url(#pecb03ec549)" d="M 336.82712 316.6 
L 338.301947 316.6 
L 338.301947 316.6 
L 336.82712 316.6 
z
" style="fill:#0000ff;"/>
   </g>
   <g id="patch_137">
    <path clip-path="url(#pecb03ec549)" d="M 338.301947 316.6 
L 339.776773 316.6 
L 339.776773 316.6 
L 338.301947 316.6 
z
" style="fill:#0000ff;"/>
   </g>
   <g id="patch_138">
    <path clip-path="url(#pecb03ec549)" d="M 339.776773 316.6 
L 341.2516 316.6 
L 341.2516 315.875572 
L 339.776773 315.875572 
z
" style="fill:#0000ff;"/>
   </g>
   <g id="patch_139">
    <path clip-path="url(#pecb03ec549)" d="M 341.2516 316.6 
L 342.726427 316.6 
L 342.726427 316.6 
L 341.2516 316.6 
z
" style="fill:#0000ff;"/>
   </g>
   <g id="patch_140">
    <path clip-path="url(#pecb03ec549)" d="M 342.726427 316.6 
L 344.201253 316.6 
L 344.201253 316.6 
L 342.726427 316.6 
z
" style="fill:#0000ff;"/>
   </g>
   <g id="patch_141">
    <path clip-path="url(#pecb03ec549)" d="M 344.201253 316.6 
L 345.67608 316.6 
L 345.67608 316.044044 
L 344.201253 316.044044 
z
" style="fill:#0000ff;"/>
   </g>
   <g id="patch_142">
    <path clip-path="url(#pecb03ec549)" d="M 345.67608 316.6 
L 347.150907 316.6 
L 347.150907 316.6 
L 345.67608 316.6 
z
" style="fill:#0000ff;"/>
   </g>
   <g id="patch_143">
    <path clip-path="url(#pecb03ec549)" d="M 347.150907 316.6 
L 348.625733 316.6 
L 348.625733 316.6 
L 347.150907 316.6 
z
" style="fill:#0000ff;"/>
   </g>
   <g id="patch_144">
    <path clip-path="url(#pecb03ec549)" d="M 348.625733 316.6 
L 350.10056 316.6 
L 350.10056 316.195668 
L 348.625733 316.195668 
z
" style="fill:#0000ff;"/>
   </g>
   <g id="patch_145">
    <path clip-path="url(#pecb03ec549)" d="M 350.10056 316.6 
L 351.575387 316.6 
L 351.575387 316.6 
L 350.10056 316.6 
z
" style="fill:#0000ff;"/>
   </g>
   <g id="patch_146">
    <path clip-path="url(#pecb03ec549)" d="M 351.575387 316.6 
L 353.050213 316.6 
L 353.050213 316.6 
L 351.575387 316.6 
z
" style="fill:#0000ff;"/>
   </g>
   <g id="patch_147">
    <path clip-path="url(#pecb03ec549)" d="M 353.050213 316.6 
L 354.52504 316.6 
L 354.52504 316.279904 
L 353.050213 316.279904 
z
" style="fill:#0000ff;"/>
   </g>
   <g id="patch_148">
    <path clip-path="url(#pecb03ec549)" d="M 354.52504 316.6 
L 355.999867 316.6 
L 355.999867 316.6 
L 354.52504 316.6 
z
" style="fill:#0000ff;"/>
   </g>
   <g id="patch_149">
    <path clip-path="url(#pecb03ec549)" d="M 355.999867 316.6 
L 357.474693 316.6 
L 357.474693 316.263057 
L 355.999867 316.263057 
z
" style="fill:#0000ff;"/>
   </g>
   <g id="patch_150">
    <path clip-path="url(#pecb03ec549)" d="M 357.474693 316.6 
L 358.94952 316.6 
L 358.94952 316.6 
L 357.474693 316.6 
z
" style="fill:#0000ff;"/>
   </g>
   <g id="patch_151">
    <path clip-path="url(#pecb03ec549)" d="M 358.94952 316.6 
L 360.424347 316.6 
L 360.424347 316.6 
L 358.94952 316.6 
z
" style="fill:#0000ff;"/>
   </g>
   <g id="patch_152">
    <path clip-path="url(#pecb03ec549)" d="M 360.424347 316.6 
L 361.899173 316.6 
L 361.899173 316.347293 
L 360.424347 316.347293 
z
" style="fill:#0000ff;"/>
   </g>
   <g id="patch_153">
    <path clip-path="url(#pecb03ec549)" d="M 361.899173 316.6 
L 363.374 316.6 
L 363.374 316.6 
L 361.899173 316.6 
z
" style="fill:#0000ff;"/>
   </g>
   <g id="patch_154">
    <path clip-path="url(#pecb03ec549)" d="M 363.374 316.6 
L 364.848827 316.6 
L 364.848827 316.6 
L 363.374 316.6 
z
" style="fill:#0000ff;"/>
   </g>
   <g id="patch_155">
    <path clip-path="url(#pecb03ec549)" d="M 364.848827 316.6 
L 366.323653 316.6 
L 366.323653 316.145127 
L 364.848827 316.145127 
z
" style="fill:#0000ff;"/>
   </g>
   <g id="patch_156">
    <path clip-path="url(#pecb03ec549)" d="M 366.323653 316.6 
L 367.79848 316.6 
L 367.79848 316.6 
L 366.323653 316.6 
z
" style="fill:#0000ff;"/>
   </g>
   <g id="patch_157">
    <path clip-path="url(#pecb03ec549)" d="M 367.79848 316.6 
L 369.273307 316.6 
L 369.273307 316.6 
L 367.79848 316.6 
z
" style="fill:#0000ff;"/>
   </g>
   <g id="patch_158">
    <path clip-path="url(#pecb03ec549)" d="M 369.273307 316.6 
L 370.748133 316.6 
L 370.748133 316.24621 
L 369.273307 316.24621 
z
" style="fill:#0000ff;"/>
   </g>
   <g id="patch_159">
    <path clip-path="url(#pecb03ec549)" d="M 370.748133 316.6 
L 372.22296 316.6 
L 372.22296 316.6 
L 370.748133 316.6 
z
" style="fill:#0000ff;"/>
   </g>
   <g id="patch_160">
    <path clip-path="url(#pecb03ec549)" d="M 372.22296 316.6 
L 373.697787 316.6 
L 373.697787 316.6 
L 372.22296 316.6 
z
" style="fill:#0000ff;"/>
   </g>
   <g id="patch_161">
    <path clip-path="url(#pecb03ec549)" d="M 373.697787 316.6 
L 375.172613 316.6 
L 375.172613 316.279904 
L 373.697787 316.279904 
z
" style="fill:#0000ff;"/>
   </g>
   <g id="patch_162">
    <path clip-path="url(#pecb03ec549)" d="M 375.172613 316.6 
L 376.64744 316.6 
L 376.64744 316.6 
L 375.172613 316.6 
z
" style="fill:#0000ff;"/>
   </g>
   <g id="patch_163">
    <path clip-path="url(#pecb03ec549)" d="M 376.64744 316.6 
L 378.122267 316.6 
L 378.122267 316.195668 
L 376.64744 316.195668 
z
" style="fill:#0000ff;"/>
   </g>
   <g id="patch_164">
    <path clip-path="url(#pecb03ec549)" d="M 378.122267 316.6 
L 379.597093 316.6 
L 379.597093 316.6 
L 378.122267 316.6 
z
" style="fill:#0000ff;"/>
   </g>
   <g id="patch_165">
    <path clip-path="url(#pecb03ec549)" d="M 379.597093 316.6 
L 381.07192 316.6 
L 381.07192 316.6 
L 379.597093 316.6 
z
" style="fill:#0000ff;"/>
   </g>
   <g id="patch_166">
    <path clip-path="url(#pecb03ec549)" d="M 381.07192 316.6 
L 382.546747 316.6 
L 382.546747 316.279904 
L 381.07192 316.279904 
z
" style="fill:#0000ff;"/>
   </g>
   <g id="patch_167">
    <path clip-path="url(#pecb03ec549)" d="M 382.546747 316.6 
L 384.021573 316.6 
L 384.021573 316.6 
L 382.546747 316.6 
z
" style="fill:#0000ff;"/>
   </g>
   <g id="patch_168">
    <path clip-path="url(#pecb03ec549)" d="M 384.021573 316.6 
L 385.4964 316.6 
L 385.4964 316.6 
L 384.021573 316.6 
z
" style="fill:#0000ff;"/>
   </g>
   <g id="patch_169">
    <path clip-path="url(#pecb03ec549)" d="M 385.4964 316.6 
L 386.971227 316.6 
L 386.971227 316.296751 
L 385.4964 316.296751 
z
" style="fill:#0000ff;"/>
   </g>
   <g id="patch_170">
    <path clip-path="url(#pecb03ec549)" d="M 386.971227 316.6 
L 388.446053 316.6 
L 388.446053 316.6 
L 386.971227 316.6 
z
" style="fill:#0000ff;"/>
   </g>
   <g id="patch_171">
    <path clip-path="url(#pecb03ec549)" d="M 388.446053 316.6 
L 389.92088 316.6 
L 389.92088 316.6 
L 388.446053 316.6 
z
" style="fill:#0000ff;"/>
   </g>
   <g id="patch_172">
    <path clip-path="url(#pecb03ec549)" d="M 389.92088 316.6 
L 391.395707 316.6 
L 391.395707 316.330445 
L 389.92088 316.330445 
z
" style="fill:#0000ff;"/>
   </g>
   <g id="patch_173">
    <path clip-path="url(#pecb03ec549)" d="M 391.395707 316.6 
L 392.870533 316.6 
L 392.870533 316.6 
L 391.395707 316.6 
z
" style="fill:#0000ff;"/>
   </g>
   <g id="patch_174">
    <path clip-path="url(#pecb03ec549)" d="M 392.870533 316.6 
L 394.34536 316.6 
L 394.34536 316.6 
L 392.870533 316.6 
z
" style="fill:#0000ff;"/>
   </g>
   <g id="patch_175">
    <path clip-path="url(#pecb03ec549)" d="M 394.34536 316.6 
L 395.820187 316.6 
L 395.820187 316.347293 
L 394.34536 316.347293 
z
" style="fill:#0000ff;"/>
   </g>
   <g id="patch_176">
    <path clip-path="url(#pecb03ec549)" d="M 395.820187 316.6 
L 397.295013 316.6 
L 397.295013 316.6 
L 395.820187 316.6 
z
" style="fill:#0000ff;"/>
   </g>
   <g id="patch_177">
    <path clip-path="url(#pecb03ec549)" d="M 397.295013 316.6 
L 398.76984 316.6 
L 398.76984 316.6 
L 397.295013 316.6 
z
" style="fill:#0000ff;"/>
   </g>
   <g id="patch_178">
    <path clip-path="url(#pecb03ec549)" d="M 398.76984 316.6 
L 400.244667 316.6 
L 400.244667 316.498917 
L 398.76984 316.498917 
z
" style="fill:#0000ff;"/>
   </g>
   <g id="patch_179">
    <path clip-path="url(#pecb03ec549)" d="M 400.244667 316.6 
L 401.719493 316.6 
L 401.719493 316.6 
L 400.244667 316.6 
z
" style="fill:#0000ff;"/>
   </g>
   <g id="patch_180">
    <path clip-path="url(#pecb03ec549)" d="M 401.719493 316.6 
L 403.19432 316.6 
L 403.19432 316.36414 
L 401.719493 316.36414 
z
" style="fill:#0000ff;"/>
   </g>
   <g id="patch_181">
    <path clip-path="url(#pecb03ec549)" d="M 403.19432 316.6 
L 404.669147 316.6 
L 404.669147 316.6 
L 403.19432 316.6 
z
" style="fill:#0000ff;"/>
   </g>
   <g id="patch_182">
    <path clip-path="url(#pecb03ec549)" d="M 404.669147 316.6 
L 406.143973 316.6 
L 406.143973 316.6 
L 404.669147 316.6 
z
" style="fill:#0000ff;"/>
   </g>
   <g id="patch_183">
    <path clip-path="url(#pecb03ec549)" d="M 406.143973 316.6 
L 407.6188 316.6 
L 407.6188 316.465223 
L 406.143973 316.465223 
z
" style="fill:#0000ff;"/>
   </g>
   <g id="patch_184">
    <path clip-path="url(#pecb03ec549)" d="M 407.6188 316.6 
L 409.093627 316.6 
L 409.093627 316.6 
L 407.6188 316.6 
z
" style="fill:#0000ff;"/>
   </g>
   <g id="patch_185">
    <path clip-path="url(#pecb03ec549)" d="M 409.093627 316.6 
L 410.568453 316.6 
L 410.568453 316.6 
L 409.093627 316.6 
z
" style="fill:#0000ff;"/>
   </g>
   <g id="patch_186">
    <path clip-path="url(#pecb03ec549)" d="M 410.568453 316.6 
L 412.04328 316.6 
L 412.04328 316.414681 
L 410.568453 316.414681 
z
" style="fill:#0000ff;"/>
   </g>
   <g id="patch_187">
    <path clip-path="url(#pecb03ec549)" d="M 412.04328 316.6 
L 413.518107 316.6 
L 413.518107 316.6 
L 412.04328 316.6 
z
" style="fill:#0000ff;"/>
   </g>
   <g id="patch_188">
    <path clip-path="url(#pecb03ec549)" d="M 413.518107 316.6 
L 414.992933 316.6 
L 414.992933 316.6 
L 413.518107 316.6 
z
" style="fill:#0000ff;"/>
   </g>
   <g id="patch_189">
    <path clip-path="url(#pecb03ec549)" d="M 414.992933 316.6 
L 416.46776 316.6 
L 416.46776 316.431528 
L 414.992933 316.431528 
z
" style="fill:#0000ff;"/>
   </g>
   <g id="patch_190">
    <path clip-path="url(#pecb03ec549)" d="M 416.46776 316.6 
L 417.942587 316.6 
L 417.942587 316.6 
L 416.46776 316.6 
z
" style="fill:#0000ff;"/>
   </g>
   <g id="patch_191">
    <path clip-path="url(#pecb03ec549)" d="M 417.942587 316.6 
L 419.417413 316.6 
L 419.417413 316.6 
L 417.942587 316.6 
z
" style="fill:#0000ff;"/>
   </g>
   <g id="matplotlib.axis_7">
    <g id="xtick_4">
     <g id="line2d_23">
      <g>
       <use style="stroke:#000000;stroke-width:0.8;" x="241.7008" xlink:href="#m0098cf976b" y="316.6"/>
      </g>
     </g>
     <g id="text_18">
      <!-- 0 -->
      <g transform="translate(237.8833 332.718125)scale(0.12 -0.12)">
       <use xlink:href="#DejaVuSans-30"/>
      </g>
     </g>
    </g>
    <g id="xtick_5">
     <g id="line2d_24">
      <g>
       <use style="stroke:#000000;stroke-width:0.8;" x="278.571467" xlink:href="#m0098cf976b" y="316.6"/>
      </g>
     </g>
     <g id="text_19">
      <!-- 25 -->
      <g transform="translate(270.936467 332.718125)scale(0.12 -0.12)">
       <use xlink:href="#DejaVuSans-32"/>
       <use x="63.623047" xlink:href="#DejaVuSans-35"/>
      </g>
     </g>
    </g>
    <g id="xtick_6">
     <g id="line2d_25">
      <g>
       <use style="stroke:#000000;stroke-width:0.8;" x="315.442133" xlink:href="#m0098cf976b" y="316.6"/>
      </g>
     </g>
     <g id="text_20">
      <!-- 50 -->
      <g transform="translate(307.807133 332.718125)scale(0.12 -0.12)">
       <use xlink:href="#DejaVuSans-35"/>
       <use x="63.623047" xlink:href="#DejaVuSans-30"/>
      </g>
     </g>
    </g>
    <g id="xtick_7">
     <g id="line2d_26">
      <g>
       <use style="stroke:#000000;stroke-width:0.8;" x="352.3128" xlink:href="#m0098cf976b" y="316.6"/>
      </g>
     </g>
     <g id="text_21">
      <!-- 75 -->
      <defs>
       <path d="M 8.203125 72.90625 
L 55.078125 72.90625 
L 55.078125 68.703125 
L 28.609375 0 
L 18.3125 0 
L 43.21875 64.59375 
L 8.203125 64.59375 
z
" id="DejaVuSans-37"/>
      </defs>
      <g transform="translate(344.6778 332.718125)scale(0.12 -0.12)">
       <use xlink:href="#DejaVuSans-37"/>
       <use x="63.623047" xlink:href="#DejaVuSans-35"/>
      </g>
     </g>
    </g>
    <g id="xtick_8">
     <g id="line2d_27">
      <g>
       <use style="stroke:#000000;stroke-width:0.8;" x="389.183467" xlink:href="#m0098cf976b" y="316.6"/>
      </g>
     </g>
     <g id="text_22">
      <!-- 100 -->
      <g transform="translate(377.730967 332.718125)scale(0.12 -0.12)">
       <use xlink:href="#DejaVuSans-31"/>
       <use x="63.623047" xlink:href="#DejaVuSans-30"/>
       <use x="127.246094" xlink:href="#DejaVuSans-30"/>
      </g>
     </g>
    </g>
    <g id="text_23">
     <!-- Counts per Gene -->
     <g transform="translate(275.943021 348.331875)scale(0.12 -0.12)">
      <use xlink:href="#DejaVuSans-43"/>
      <use x="69.824219" xlink:href="#DejaVuSans-6f"/>
      <use x="131.005859" xlink:href="#DejaVuSans-75"/>
      <use x="194.384766" xlink:href="#DejaVuSans-6e"/>
      <use x="257.763672" xlink:href="#DejaVuSans-74"/>
      <use x="296.972656" xlink:href="#DejaVuSans-73"/>
      <use x="349.072266" xlink:href="#DejaVuSans-20"/>
      <use x="380.859375" xlink:href="#DejaVuSans-70"/>
      <use x="444.335938" xlink:href="#DejaVuSans-65"/>
      <use x="505.859375" xlink:href="#DejaVuSans-72"/>
      <use x="546.972656" xlink:href="#DejaVuSans-20"/>
      <use x="578.759766" xlink:href="#DejaVuSans-47"/>
      <use x="656.25" xlink:href="#DejaVuSans-65"/>
      <use x="717.773438" xlink:href="#DejaVuSans-6e"/>
      <use x="781.152344" xlink:href="#DejaVuSans-65"/>
     </g>
    </g>
   </g>
   <g id="matplotlib.axis_8">
    <g id="ytick_10">
     <g id="line2d_28">
      <g>
       <use style="stroke:#000000;stroke-width:0.8;" x="234.326667" xlink:href="#me9985b6c14" y="316.6"/>
      </g>
     </g>
     <g id="text_24">
      <!-- 0.0k -->
      <g transform="translate(201.294167 321.159063)scale(0.12 -0.12)">
       <use xlink:href="#DejaVuSans-30"/>
       <use x="63.623047" xlink:href="#DejaVuSans-2e"/>
       <use x="95.410156" xlink:href="#DejaVuSans-30"/>
       <use x="159.033203" xlink:href="#DejaVuSans-6b"/>
      </g>
     </g>
    </g>
    <g id="ytick_11">
     <g id="line2d_29">
      <g>
       <use style="stroke:#000000;stroke-width:0.8;" x="234.326667" xlink:href="#me9985b6c14" y="282.905678"/>
      </g>
     </g>
     <g id="text_25">
      <!-- 2.0k -->
      <g transform="translate(201.294167 287.46474)scale(0.12 -0.12)">
       <use xlink:href="#DejaVuSans-32"/>
       <use x="63.623047" xlink:href="#DejaVuSans-2e"/>
       <use x="95.410156" xlink:href="#DejaVuSans-30"/>
       <use x="159.033203" xlink:href="#DejaVuSans-6b"/>
      </g>
     </g>
    </g>
    <g id="ytick_12">
     <g id="line2d_30">
      <g>
       <use style="stroke:#000000;stroke-width:0.8;" x="234.326667" xlink:href="#me9985b6c14" y="249.211355"/>
      </g>
     </g>
     <g id="text_26">
      <!-- 4.0k -->
      <g transform="translate(201.294167 253.770418)scale(0.12 -0.12)">
       <use xlink:href="#DejaVuSans-34"/>
       <use x="63.623047" xlink:href="#DejaVuSans-2e"/>
       <use x="95.410156" xlink:href="#DejaVuSans-30"/>
       <use x="159.033203" xlink:href="#DejaVuSans-6b"/>
      </g>
     </g>
    </g>
    <g id="ytick_13">
     <g id="line2d_31">
      <g>
       <use style="stroke:#000000;stroke-width:0.8;" x="234.326667" xlink:href="#me9985b6c14" y="215.517033"/>
      </g>
     </g>
     <g id="text_27">
      <!-- 6.0k -->
      <defs>
       <path d="M 33.015625 40.375 
Q 26.375 40.375 22.484375 35.828125 
Q 18.609375 31.296875 18.609375 23.390625 
Q 18.609375 15.53125 22.484375 10.953125 
Q 26.375 6.390625 33.015625 6.390625 
Q 39.65625 6.390625 43.53125 10.953125 
Q 47.40625 15.53125 47.40625 23.390625 
Q 47.40625 31.296875 43.53125 35.828125 
Q 39.65625 40.375 33.015625 40.375 
z
M 52.59375 71.296875 
L 52.59375 62.3125 
Q 48.875 64.0625 45.09375 64.984375 
Q 41.3125 65.921875 37.59375 65.921875 
Q 27.828125 65.921875 22.671875 59.328125 
Q 17.53125 52.734375 16.796875 39.40625 
Q 19.671875 43.65625 24.015625 45.921875 
Q 28.375 48.1875 33.59375 48.1875 
Q 44.578125 48.1875 50.953125 41.515625 
Q 57.328125 34.859375 57.328125 23.390625 
Q 57.328125 12.15625 50.6875 5.359375 
Q 44.046875 -1.421875 33.015625 -1.421875 
Q 20.359375 -1.421875 13.671875 8.265625 
Q 6.984375 17.96875 6.984375 36.375 
Q 6.984375 53.65625 15.1875 63.9375 
Q 23.390625 74.21875 37.203125 74.21875 
Q 40.921875 74.21875 44.703125 73.484375 
Q 48.484375 72.75 52.59375 71.296875 
z
" id="DejaVuSans-36"/>
      </defs>
      <g transform="translate(201.294167 220.076095)scale(0.12 -0.12)">
       <use xlink:href="#DejaVuSans-36"/>
       <use x="63.623047" xlink:href="#DejaVuSans-2e"/>
       <use x="95.410156" xlink:href="#DejaVuSans-30"/>
       <use x="159.033203" xlink:href="#DejaVuSans-6b"/>
      </g>
     </g>
    </g>
    <g id="text_28">
     <!-- Number of Genes -->
     <g transform="translate(194.798542 313.14125)rotate(-90)scale(0.12 -0.12)">
      <use xlink:href="#DejaVuSans-4e"/>
      <use x="74.804688" xlink:href="#DejaVuSans-75"/>
      <use x="138.183594" xlink:href="#DejaVuSans-6d"/>
      <use x="235.595703" xlink:href="#DejaVuSans-62"/>
      <use x="299.072266" xlink:href="#DejaVuSans-65"/>
      <use x="360.595703" xlink:href="#DejaVuSans-72"/>
      <use x="401.708984" xlink:href="#DejaVuSans-20"/>
      <use x="433.496094" xlink:href="#DejaVuSans-6f"/>
      <use x="494.677734" xlink:href="#DejaVuSans-66"/>
      <use x="529.882812" xlink:href="#DejaVuSans-20"/>
      <use x="561.669922" xlink:href="#DejaVuSans-47"/>
      <use x="639.160156" xlink:href="#DejaVuSans-65"/>
      <use x="700.683594" xlink:href="#DejaVuSans-6e"/>
      <use x="764.0625" xlink:href="#DejaVuSans-65"/>
      <use x="825.585938" xlink:href="#DejaVuSans-73"/>
     </g>
    </g>
   </g>
   <g id="patch_192">
    <path d="M 234.326667 316.6 
L 234.326667 204.36 
" style="fill:none;stroke:#000000;stroke-linecap:square;stroke-linejoin:miter;stroke-width:0.8;"/>
   </g>
   <g id="patch_193">
    <path d="M 418.68 316.6 
L 418.68 204.36 
" style="fill:none;stroke:#000000;stroke-linecap:square;stroke-linejoin:miter;stroke-width:0.8;"/>
   </g>
   <g id="patch_194">
    <path d="M 234.326667 316.6 
L 418.68 316.6 
" style="fill:none;stroke:#000000;stroke-linecap:square;stroke-linejoin:miter;stroke-width:0.8;"/>
   </g>
   <g id="patch_195">
    <path d="M 234.326667 204.36 
L 418.68 204.36 
" style="fill:none;stroke:#000000;stroke-linecap:square;stroke-linejoin:miter;stroke-width:0.8;"/>
   </g>
   <g id="text_29">
    <!-- EMPTY -->
    <g style="fill:#ffffff;" transform="translate(299.949583 198.36)scale(0.16 -0.16)">
     <use xlink:href="#DejaVuSans-45"/>
     <use x="63.183594" xlink:href="#DejaVuSans-4d"/>
     <use x="149.462891" xlink:href="#DejaVuSans-50"/>
     <use x="209.765625" xlink:href="#DejaVuSans-54"/>
     <use x="270.849609" xlink:href="#DejaVuSans-59"/>
    </g>
   </g>
  </g>
  <g id="text_30">
   <!-- Read Distribution (sgRNAs) -->
   <defs>
    <path d="M 34.28125 27.484375 
Q 23.390625 27.484375 19.1875 25 
Q 14.984375 22.515625 14.984375 16.5 
Q 14.984375 11.71875 18.140625 8.90625 
Q 21.296875 6.109375 26.703125 6.109375 
Q 34.1875 6.109375 38.703125 11.40625 
Q 43.21875 16.703125 43.21875 25.484375 
L 43.21875 27.484375 
z
M 52.203125 31.203125 
L 52.203125 0 
L 43.21875 0 
L 43.21875 8.296875 
Q 40.140625 3.328125 35.546875 0.953125 
Q 30.953125 -1.421875 24.3125 -1.421875 
Q 15.921875 -1.421875 10.953125 3.296875 
Q 6 8.015625 6 15.921875 
Q 6 25.140625 12.171875 29.828125 
Q 18.359375 34.515625 30.609375 34.515625 
L 43.21875 34.515625 
L 43.21875 35.40625 
Q 43.21875 41.609375 39.140625 45 
Q 35.0625 48.390625 27.6875 48.390625 
Q 23 48.390625 18.546875 47.265625 
Q 14.109375 46.140625 10.015625 43.890625 
L 10.015625 52.203125 
Q 14.9375 54.109375 19.578125 55.046875 
Q 24.21875 56 28.609375 56 
Q 40.484375 56 46.34375 49.84375 
Q 52.203125 43.703125 52.203125 31.203125 
z
" id="DejaVuSans-61"/>
    <path d="M 45.40625 46.390625 
L 45.40625 75.984375 
L 54.390625 75.984375 
L 54.390625 0 
L 45.40625 0 
L 45.40625 8.203125 
Q 42.578125 3.328125 38.25 0.953125 
Q 33.9375 -1.421875 27.875 -1.421875 
Q 17.96875 -1.421875 11.734375 6.484375 
Q 5.515625 14.40625 5.515625 27.296875 
Q 5.515625 40.1875 11.734375 48.09375 
Q 17.96875 56 27.875 56 
Q 33.9375 56 38.25 53.625 
Q 42.578125 51.265625 45.40625 46.390625 
z
M 14.796875 27.296875 
Q 14.796875 17.390625 18.875 11.75 
Q 22.953125 6.109375 30.078125 6.109375 
Q 37.203125 6.109375 41.296875 11.75 
Q 45.40625 17.390625 45.40625 27.296875 
Q 45.40625 37.203125 41.296875 42.84375 
Q 37.203125 48.484375 30.078125 48.484375 
Q 22.953125 48.484375 18.875 42.84375 
Q 14.796875 37.203125 14.796875 27.296875 
z
" id="DejaVuSans-64"/>
    <path d="M 19.671875 64.796875 
L 19.671875 8.109375 
L 31.59375 8.109375 
Q 46.6875 8.109375 53.6875 14.9375 
Q 60.6875 21.78125 60.6875 36.53125 
Q 60.6875 51.171875 53.6875 57.984375 
Q 46.6875 64.796875 31.59375 64.796875 
z
M 9.8125 72.90625 
L 30.078125 72.90625 
Q 51.265625 72.90625 61.171875 64.09375 
Q 71.09375 55.28125 71.09375 36.53125 
Q 71.09375 17.671875 61.125 8.828125 
Q 51.171875 0 30.078125 0 
L 9.8125 0 
z
" id="DejaVuSans-44"/>
    <path d="M 9.421875 54.6875 
L 18.40625 54.6875 
L 18.40625 0 
L 9.421875 0 
z
M 9.421875 75.984375 
L 18.40625 75.984375 
L 18.40625 64.59375 
L 9.421875 64.59375 
z
" id="DejaVuSans-69"/>
    <path d="M 31 75.875 
Q 24.46875 64.65625 21.28125 53.65625 
Q 18.109375 42.671875 18.109375 31.390625 
Q 18.109375 20.125 21.3125 9.0625 
Q 24.515625 -2 31 -13.1875 
L 23.1875 -13.1875 
Q 15.875 -1.703125 12.234375 9.375 
Q 8.59375 20.453125 8.59375 31.390625 
Q 8.59375 42.28125 12.203125 53.3125 
Q 15.828125 64.359375 23.1875 75.875 
z
" id="DejaVuSans-28"/>
    <path d="M 8.015625 75.875 
L 15.828125 75.875 
Q 23.140625 64.359375 26.78125 53.3125 
Q 30.421875 42.28125 30.421875 31.390625 
Q 30.421875 20.453125 26.78125 9.375 
Q 23.140625 -1.703125 15.828125 -13.1875 
L 8.015625 -13.1875 
Q 14.5 -2 17.703125 9.0625 
Q 20.90625 20.125 20.90625 31.390625 
Q 20.90625 42.671875 17.703125 53.65625 
Q 14.5 64.65625 8.015625 75.875 
z
" id="DejaVuSans-29"/>
   </defs>
   <g transform="translate(129.6 18)scale(0.14 -0.14)">
    <use xlink:href="#DejaVuSans-52"/>
    <use x="69.419922" xlink:href="#DejaVuSans-65"/>
    <use x="130.943359" xlink:href="#DejaVuSans-61"/>
    <use x="192.222656" xlink:href="#DejaVuSans-64"/>
    <use x="255.699219" xlink:href="#DejaVuSans-20"/>
    <use x="287.486328" xlink:href="#DejaVuSans-44"/>
    <use x="364.488281" xlink:href="#DejaVuSans-69"/>
    <use x="392.271484" xlink:href="#DejaVuSans-73"/>
    <use x="444.371094" xlink:href="#DejaVuSans-74"/>
    <use x="483.580078" xlink:href="#DejaVuSans-72"/>
    <use x="524.693359" xlink:href="#DejaVuSans-69"/>
    <use x="552.476562" xlink:href="#DejaVuSans-62"/>
    <use x="615.953125" xlink:href="#DejaVuSans-75"/>
    <use x="679.332031" xlink:href="#DejaVuSans-74"/>
    <use x="718.541016" xlink:href="#DejaVuSans-69"/>
    <use x="746.324219" xlink:href="#DejaVuSans-6f"/>
    <use x="807.505859" xlink:href="#DejaVuSans-6e"/>
    <use x="870.884766" xlink:href="#DejaVuSans-20"/>
    <use x="902.671875" xlink:href="#DejaVuSans-28"/>
    <use x="941.685547" xlink:href="#DejaVuSans-73"/>
    <use x="993.785156" xlink:href="#DejaVuSans-67"/>
    <use x="1057.261719" xlink:href="#DejaVuSans-52"/>
    <use x="1126.744141" xlink:href="#DejaVuSans-4e"/>
    <use x="1201.548828" xlink:href="#DejaVuSans-41"/>
    <use x="1269.957031" xlink:href="#DejaVuSans-73"/>
    <use x="1322.056641" xlink:href="#DejaVuSans-29"/>
   </g>
  </g>
  <g id="text_31">
   <!-- Read Distribution (Genes) -->
   <g transform="translate(129.6 190.8)scale(0.14 -0.14)">
    <use xlink:href="#DejaVuSans-52"/>
    <use x="69.419922" xlink:href="#DejaVuSans-65"/>
    <use x="130.943359" xlink:href="#DejaVuSans-61"/>
    <use x="192.222656" xlink:href="#DejaVuSans-64"/>
    <use x="255.699219" xlink:href="#DejaVuSans-20"/>
    <use x="287.486328" xlink:href="#DejaVuSans-44"/>
    <use x="364.488281" xlink:href="#DejaVuSans-69"/>
    <use x="392.271484" xlink:href="#DejaVuSans-73"/>
    <use x="444.371094" xlink:href="#DejaVuSans-74"/>
    <use x="483.580078" xlink:href="#DejaVuSans-72"/>
    <use x="524.693359" xlink:href="#DejaVuSans-69"/>
    <use x="552.476562" xlink:href="#DejaVuSans-62"/>
    <use x="615.953125" xlink:href="#DejaVuSans-75"/>
    <use x="679.332031" xlink:href="#DejaVuSans-74"/>
    <use x="718.541016" xlink:href="#DejaVuSans-69"/>
    <use x="746.324219" xlink:href="#DejaVuSans-6f"/>
    <use x="807.505859" xlink:href="#DejaVuSans-6e"/>
    <use x="870.884766" xlink:href="#DejaVuSans-20"/>
    <use x="902.671875" xlink:href="#DejaVuSans-28"/>
    <use x="941.685547" xlink:href="#DejaVuSans-47"/>
    <use x="1019.175781" xlink:href="#DejaVuSans-65"/>
    <use x="1080.699219" xlink:href="#DejaVuSans-6e"/>
    <use x="1144.078125" xlink:href="#DejaVuSans-65"/>
    <use x="1205.601562" xlink:href="#DejaVuSans-73"/>
    <use x="1257.701172" xlink:href="#DejaVuSans-29"/>
   </g>
  </g>
 </g>
 <defs>
  <clipPath id="p9c2371dbff">
   <rect height="112.24" width="92.176667" x="77.06" y="29.76"/>
  </clipPath>
  <clipPath id="p672a47fc1f">
   <rect height="112.24" width="184.353333" x="234.326667" y="29.76"/>
  </clipPath>
  <clipPath id="p43eda9f79f">
   <rect height="112.24" width="92.176667" x="77.06" y="204.36"/>
  </clipPath>
  <clipPath id="pecb03ec549">
   <rect height="112.24" width="184.353333" x="234.326667" y="204.36"/>
  </clipPath>
 </defs>
</svg>
