<?xml version="1.0" encoding="utf-8" standalone="no"?>
<!DOCTYPE svg PUBLIC "-//W3C//DTD SVG 1.1//EN"
  "http://www.w3.org/Graphics/SVG/1.1/DTD/svg11.dtd">
<!-- Created with matplotlib (http://matplotlib.org/) -->
<svg height="360pt" version="1.1" viewBox="0 0 504 360" width="504pt" xmlns="http://www.w3.org/2000/svg" xmlns:xlink="http://www.w3.org/1999/xlink">
 <defs>
  <style type="text/css">
*{stroke-linecap:butt;stroke-linejoin:round;}
  </style>
 </defs>
 <g id="figure_1">
  <g id="patch_1">
   <path d="M 0 360 
L 504 360 
L 504 0 
L 0 0 
z
" style="fill:#ffffff;"/>
  </g>
  <g id="axes_1">
   <g id="patch_2">
    <path d="M 51.05 143.44 
L 175.476667 143.44 
L 175.476667 25.44 
L 51.05 25.44 
z
" style="fill:#ffffff;"/>
   </g>
   <g id="matplotlib.axis_1"/>
   <g id="matplotlib.axis_2">
    <g id="ytick_1">
     <g id="line2d_1">
      <defs>
       <path d="M 0 0 
L -3.5 0 
" id="me21cdd7085" style="stroke:#000000;stroke-width:0.8;"/>
      </defs>
      <g>
       <use style="stroke:#000000;stroke-width:0.8;" x="51.05" xlink:href="#me21cdd7085" y="138.076364"/>
      </g>
     </g>
     <g id="text_1">
      <!-- 0 -->
      <defs>
       <path d="M 31.78125 66.40625 
Q 24.171875 66.40625 20.328125 58.90625 
Q 16.5 51.421875 16.5 36.375 
Q 16.5 21.390625 20.328125 13.890625 
Q 24.171875 6.390625 31.78125 6.390625 
Q 39.453125 6.390625 43.28125 13.890625 
Q 47.125 21.390625 47.125 36.375 
Q 47.125 51.421875 43.28125 58.90625 
Q 39.453125 66.40625 31.78125 66.40625 
M 31.78125 74.21875 
Q 44.046875 74.21875 50.515625 64.515625 
Q 56.984375 54.828125 56.984375 36.375 
Q 56.984375 17.96875 50.515625 8.265625 
Q 44.046875 -1.421875 31.78125 -1.421875 
Q 19.53125 -1.421875 13.0625 8.265625 
Q 6.59375 17.96875 6.59375 36.375 
Q 6.59375 54.828125 13.0625 64.515625 
Q 19.53125 74.21875 31.78125 74.21875 
" id="DejaVuSans-30"/>
      </defs>
      <g transform="translate(37.6875 141.875582)scale(0.1 -0.1)">
       <use xlink:href="#DejaVuSans-30"/>
      </g>
     </g>
    </g>
    <g id="ytick_2">
     <g id="line2d_2">
      <g>
       <use style="stroke:#000000;stroke-width:0.8;" x="51.05" xlink:href="#me21cdd7085" y="111.258182"/>
      </g>
     </g>
     <g id="text_2">
      <!-- 5 -->
      <defs>
       <path d="M 10.796875 72.90625 
L 49.515625 72.90625 
L 49.515625 64.59375 
L 19.828125 64.59375 
L 19.828125 46.734375 
Q 21.96875 47.46875 24.109375 47.828125 
Q 26.265625 48.1875 28.421875 48.1875 
Q 40.625 48.1875 47.75 41.5 
Q 54.890625 34.8125 54.890625 23.390625 
Q 54.890625 11.625 47.5625 5.09375 
Q 40.234375 -1.421875 26.90625 -1.421875 
Q 22.3125 -1.421875 17.546875 -0.640625 
Q 12.796875 0.140625 7.71875 1.703125 
L 7.71875 11.625 
Q 12.109375 9.234375 16.796875 8.0625 
Q 21.484375 6.890625 26.703125 6.890625 
Q 35.15625 6.890625 40.078125 11.328125 
Q 45.015625 15.765625 45.015625 23.390625 
Q 45.015625 31 40.078125 35.4375 
Q 35.15625 39.890625 26.703125 39.890625 
Q 22.75 39.890625 18.8125 39.015625 
Q 14.890625 38.140625 10.796875 36.28125 
z
" id="DejaVuSans-35"/>
      </defs>
      <g transform="translate(37.6875 115.057401)scale(0.1 -0.1)">
       <use xlink:href="#DejaVuSans-35"/>
      </g>
     </g>
    </g>
    <g id="ytick_3">
     <g id="line2d_3">
      <g>
       <use style="stroke:#000000;stroke-width:0.8;" x="51.05" xlink:href="#me21cdd7085" y="84.44"/>
      </g>
     </g>
     <g id="text_3">
      <!-- 10 -->
      <defs>
       <path d="M 12.40625 8.296875 
L 28.515625 8.296875 
L 28.515625 63.921875 
L 10.984375 60.40625 
L 10.984375 69.390625 
L 28.421875 72.90625 
L 38.28125 72.90625 
L 38.28125 8.296875 
L 54.390625 8.296875 
L 54.390625 0 
L 12.40625 0 
z
" id="DejaVuSans-31"/>
      </defs>
      <g transform="translate(31.325 88.239219)scale(0.1 -0.1)">
       <use xlink:href="#DejaVuSans-31"/>
       <use x="63.623047" xlink:href="#DejaVuSans-30"/>
      </g>
     </g>
    </g>
    <g id="ytick_4">
     <g id="line2d_4">
      <g>
       <use style="stroke:#000000;stroke-width:0.8;" x="51.05" xlink:href="#me21cdd7085" y="57.621818"/>
      </g>
     </g>
     <g id="text_4">
      <!-- 15 -->
      <g transform="translate(31.325 61.421037)scale(0.1 -0.1)">
       <use xlink:href="#DejaVuSans-31"/>
       <use x="63.623047" xlink:href="#DejaVuSans-35"/>
      </g>
     </g>
    </g>
    <g id="ytick_5">
     <g id="line2d_5">
      <g>
       <use style="stroke:#000000;stroke-width:0.8;" x="51.05" xlink:href="#me21cdd7085" y="30.803636"/>
      </g>
     </g>
     <g id="text_5">
      <!-- 20 -->
      <defs>
       <path d="M 19.1875 8.296875 
L 53.609375 8.296875 
L 53.609375 0 
L 7.328125 0 
L 7.328125 8.296875 
Q 12.9375 14.109375 22.625 23.890625 
Q 32.328125 33.6875 34.8125 36.53125 
Q 39.546875 41.84375 41.421875 45.53125 
Q 43.3125 49.21875 43.3125 52.78125 
Q 43.3125 58.59375 39.234375 62.25 
Q 35.15625 65.921875 28.609375 65.921875 
Q 23.96875 65.921875 18.8125 64.3125 
Q 13.671875 62.703125 7.8125 59.421875 
L 7.8125 69.390625 
Q 13.765625 71.78125 18.9375 73 
Q 24.125 74.21875 28.421875 74.21875 
Q 39.75 74.21875 46.484375 68.546875 
Q 53.21875 62.890625 53.21875 53.421875 
Q 53.21875 48.921875 51.53125 44.890625 
Q 49.859375 40.875 45.40625 35.40625 
Q 44.1875 33.984375 37.640625 27.21875 
Q 31.109375 20.453125 19.1875 8.296875 
" id="DejaVuSans-32"/>
      </defs>
      <g transform="translate(31.325 34.602855)scale(0.1 -0.1)">
       <use xlink:href="#DejaVuSans-32"/>
       <use x="63.623047" xlink:href="#DejaVuSans-30"/>
      </g>
     </g>
    </g>
    <g id="text_6">
     <!-- counts [norm.] -->
     <defs>
      <path d="M 48.78125 52.59375 
L 48.78125 44.1875 
Q 44.96875 46.296875 41.140625 47.34375 
Q 37.3125 48.390625 33.40625 48.390625 
Q 24.65625 48.390625 19.8125 42.84375 
Q 14.984375 37.3125 14.984375 27.296875 
Q 14.984375 17.28125 19.8125 11.734375 
Q 24.65625 6.203125 33.40625 6.203125 
Q 37.3125 6.203125 41.140625 7.25 
Q 44.96875 8.296875 48.78125 10.40625 
L 48.78125 2.09375 
Q 45.015625 0.34375 40.984375 -0.53125 
Q 36.96875 -1.421875 32.421875 -1.421875 
Q 20.0625 -1.421875 12.78125 6.34375 
Q 5.515625 14.109375 5.515625 27.296875 
Q 5.515625 40.671875 12.859375 48.328125 
Q 20.21875 56 33.015625 56 
Q 37.15625 56 41.109375 55.140625 
Q 45.0625 54.296875 48.78125 52.59375 
" id="DejaVuSans-63"/>
      <path d="M 30.609375 48.390625 
Q 23.390625 48.390625 19.1875 42.75 
Q 14.984375 37.109375 14.984375 27.296875 
Q 14.984375 17.484375 19.15625 11.84375 
Q 23.34375 6.203125 30.609375 6.203125 
Q 37.796875 6.203125 41.984375 11.859375 
Q 46.1875 17.53125 46.1875 27.296875 
Q 46.1875 37.015625 41.984375 42.703125 
Q 37.796875 48.390625 30.609375 48.390625 
M 30.609375 56 
Q 42.328125 56 49.015625 48.375 
Q 55.71875 40.765625 55.71875 27.296875 
Q 55.71875 13.875 49.015625 6.21875 
Q 42.328125 -1.421875 30.609375 -1.421875 
Q 18.84375 -1.421875 12.171875 6.21875 
Q 5.515625 13.875 5.515625 27.296875 
Q 5.515625 40.765625 12.171875 48.375 
Q 18.84375 56 30.609375 56 
" id="DejaVuSans-6f"/>
      <path d="M 8.5 21.578125 
L 8.5 54.6875 
L 17.484375 54.6875 
L 17.484375 21.921875 
Q 17.484375 14.15625 20.5 10.265625 
Q 23.53125 6.390625 29.59375 6.390625 
Q 36.859375 6.390625 41.078125 11.03125 
Q 45.3125 15.671875 45.3125 23.6875 
L 45.3125 54.6875 
L 54.296875 54.6875 
L 54.296875 0 
L 45.3125 0 
L 45.3125 8.40625 
Q 42.046875 3.421875 37.71875 1 
Q 33.40625 -1.421875 27.6875 -1.421875 
Q 18.265625 -1.421875 13.375 4.4375 
Q 8.5 10.296875 8.5 21.578125 
M 31.109375 56 
z
" id="DejaVuSans-75"/>
      <path d="M 54.890625 33.015625 
L 54.890625 0 
L 45.90625 0 
L 45.90625 32.71875 
Q 45.90625 40.484375 42.875 44.328125 
Q 39.84375 48.1875 33.796875 48.1875 
Q 26.515625 48.1875 22.3125 43.546875 
Q 18.109375 38.921875 18.109375 30.90625 
L 18.109375 0 
L 9.078125 0 
L 9.078125 54.6875 
L 18.109375 54.6875 
L 18.109375 46.1875 
Q 21.34375 51.125 25.703125 53.5625 
Q 30.078125 56 35.796875 56 
Q 45.21875 56 50.046875 50.171875 
Q 54.890625 44.34375 54.890625 33.015625 
" id="DejaVuSans-6e"/>
      <path d="M 18.3125 70.21875 
L 18.3125 54.6875 
L 36.8125 54.6875 
L 36.8125 47.703125 
L 18.3125 47.703125 
L 18.3125 18.015625 
Q 18.3125 11.328125 20.140625 9.421875 
Q 21.96875 7.515625 27.59375 7.515625 
L 36.8125 7.515625 
L 36.8125 0 
L 27.59375 0 
Q 17.1875 0 13.234375 3.875 
Q 9.28125 7.765625 9.28125 18.015625 
L 9.28125 47.703125 
L 2.6875 47.703125 
L 2.6875 54.6875 
L 9.28125 54.6875 
L 9.28125 70.21875 
z
" id="DejaVuSans-74"/>
      <path d="M 44.28125 53.078125 
L 44.28125 44.578125 
Q 40.484375 46.53125 36.375 47.5 
Q 32.28125 48.484375 27.875 48.484375 
Q 21.1875 48.484375 17.84375 46.4375 
Q 14.5 44.390625 14.5 40.28125 
Q 14.5 37.15625 16.890625 35.375 
Q 19.28125 33.59375 26.515625 31.984375 
L 29.59375 31.296875 
Q 39.15625 29.25 43.1875 25.515625 
Q 47.21875 21.78125 47.21875 15.09375 
Q 47.21875 7.46875 41.1875 3.015625 
Q 35.15625 -1.421875 24.609375 -1.421875 
Q 20.21875 -1.421875 15.453125 -0.5625 
Q 10.6875 0.296875 5.421875 2 
L 5.421875 11.28125 
Q 10.40625 8.6875 15.234375 7.390625 
Q 20.0625 6.109375 24.8125 6.109375 
Q 31.15625 6.109375 34.5625 8.28125 
Q 37.984375 10.453125 37.984375 14.40625 
Q 37.984375 18.0625 35.515625 20.015625 
Q 33.0625 21.96875 24.703125 23.78125 
L 21.578125 24.515625 
Q 13.234375 26.265625 9.515625 29.90625 
Q 5.8125 33.546875 5.8125 39.890625 
Q 5.8125 47.609375 11.28125 51.796875 
Q 16.75 56 26.8125 56 
Q 31.78125 56 36.171875 55.265625 
Q 40.578125 54.546875 44.28125 53.078125 
" id="DejaVuSans-73"/>
      <path id="DejaVuSans-20"/>
      <path d="M 8.59375 75.984375 
L 29.296875 75.984375 
L 29.296875 69 
L 17.578125 69 
L 17.578125 -6.203125 
L 29.296875 -6.203125 
L 29.296875 -13.1875 
L 8.59375 -13.1875 
z
" id="DejaVuSans-5b"/>
      <path d="M 41.109375 46.296875 
Q 39.59375 47.171875 37.8125 47.578125 
Q 36.03125 48 33.890625 48 
Q 26.265625 48 22.1875 43.046875 
Q 18.109375 38.09375 18.109375 28.8125 
L 18.109375 0 
L 9.078125 0 
L 9.078125 54.6875 
L 18.109375 54.6875 
L 18.109375 46.1875 
Q 20.953125 51.171875 25.484375 53.578125 
Q 30.03125 56 36.53125 56 
Q 37.453125 56 38.578125 55.875 
Q 39.703125 55.765625 41.0625 55.515625 
z
" id="DejaVuSans-72"/>
      <path d="M 52 44.1875 
Q 55.375 50.25 60.0625 53.125 
Q 64.75 56 71.09375 56 
Q 79.640625 56 84.28125 50.015625 
Q 88.921875 44.046875 88.921875 33.015625 
L 88.921875 0 
L 79.890625 0 
L 79.890625 32.71875 
Q 79.890625 40.578125 77.09375 44.375 
Q 74.3125 48.1875 68.609375 48.1875 
Q 61.625 48.1875 57.5625 43.546875 
Q 53.515625 38.921875 53.515625 30.90625 
L 53.515625 0 
L 44.484375 0 
L 44.484375 32.71875 
Q 44.484375 40.625 41.703125 44.40625 
Q 38.921875 48.1875 33.109375 48.1875 
Q 26.21875 48.1875 22.15625 43.53125 
Q 18.109375 38.875 18.109375 30.90625 
L 18.109375 0 
L 9.078125 0 
L 9.078125 54.6875 
L 18.109375 54.6875 
L 18.109375 46.1875 
Q 21.1875 51.21875 25.484375 53.609375 
Q 29.78125 56 35.6875 56 
Q 41.65625 56 45.828125 52.96875 
Q 50 49.953125 52 44.1875 
" id="DejaVuSans-6d"/>
      <path d="M 10.6875 12.40625 
L 21 12.40625 
L 21 0 
L 10.6875 0 
z
" id="DejaVuSans-2e"/>
      <path d="M 30.421875 75.984375 
L 30.421875 -13.1875 
L 9.71875 -13.1875 
L 9.71875 -6.203125 
L 21.390625 -6.203125 
L 21.390625 69 
L 9.71875 69 
L 9.71875 75.984375 
z
" id="DejaVuSans-5d"/>
     </defs>
     <g transform="translate(25.245313 121.38375)rotate(-90)scale(0.1 -0.1)">
      <use xlink:href="#DejaVuSans-63"/>
      <use x="54.980469" xlink:href="#DejaVuSans-6f"/>
      <use x="116.162109" xlink:href="#DejaVuSans-75"/>
      <use x="179.541016" xlink:href="#DejaVuSans-6e"/>
      <use x="242.919922" xlink:href="#DejaVuSans-74"/>
      <use x="282.128906" xlink:href="#DejaVuSans-73"/>
      <use x="334.228516" xlink:href="#DejaVuSans-20"/>
      <use x="366.015625" xlink:href="#DejaVuSans-5b"/>
      <use x="405.029297" xlink:href="#DejaVuSans-6e"/>
      <use x="468.408203" xlink:href="#DejaVuSans-6f"/>
      <use x="529.589844" xlink:href="#DejaVuSans-72"/>
      <use x="570.6875" xlink:href="#DejaVuSans-6d"/>
      <use x="668.099609" xlink:href="#DejaVuSans-2e"/>
      <use x="699.886719" xlink:href="#DejaVuSans-5d"/>
     </g>
    </g>
   </g>
   <g id="line2d_6">
    <path clip-path="url(#p071f4cbd7f)" d="M 103.931333 138.076364 
L 122.595333 138.076364 
L 122.595333 89.803636 
L 103.931333 89.803636 
L 103.931333 138.076364 
" style="fill:none;stroke:#000000;stroke-linecap:square;"/>
   </g>
   <g id="line2d_7">
    <path clip-path="url(#p071f4cbd7f)" d="M 113.263333 138.076364 
L 113.263333 138.076364 
" style="fill:none;stroke:#000000;stroke-linecap:square;"/>
   </g>
   <g id="line2d_8">
    <path clip-path="url(#p071f4cbd7f)" d="M 113.263333 89.803636 
L 113.263333 30.803636 
" style="fill:none;stroke:#000000;stroke-linecap:square;"/>
   </g>
   <g id="line2d_9">
    <path clip-path="url(#p071f4cbd7f)" d="M 108.597333 138.076364 
L 117.929333 138.076364 
" style="fill:none;stroke:#000000;stroke-linecap:square;"/>
   </g>
   <g id="line2d_10">
    <path clip-path="url(#p071f4cbd7f)" d="M 108.597333 30.803636 
L 117.929333 30.803636 
" style="fill:none;stroke:#000000;stroke-linecap:square;"/>
   </g>
   <g id="line2d_11">
    <path clip-path="url(#p071f4cbd7f)" d="M 103.931333 127.349091 
L 122.595333 127.349091 
" style="fill:none;stroke:#ff7f0e;stroke-linecap:square;"/>
   </g>
   <g id="patch_3">
    <path d="M 51.05 143.44 
L 51.05 25.44 
" style="fill:none;stroke:#000000;stroke-linecap:square;stroke-linejoin:miter;stroke-width:0.8;"/>
   </g>
   <g id="patch_4">
    <path d="M 175.476667 143.44 
L 175.476667 25.44 
" style="fill:none;stroke:#000000;stroke-linecap:square;stroke-linejoin:miter;stroke-width:0.8;"/>
   </g>
   <g id="patch_5">
    <path d="M 51.05 143.44 
L 175.476667 143.44 
" style="fill:none;stroke:#000000;stroke-linecap:square;stroke-linejoin:miter;stroke-width:0.8;"/>
   </g>
   <g id="patch_6">
    <path d="M 51.05 25.44 
L 175.476667 25.44 
" style="fill:none;stroke:#000000;stroke-linecap:square;stroke-linejoin:miter;stroke-width:0.8;"/>
   </g>
   <g id="text_7">
    <!-- Reads per sgRNA -->
    <defs>
     <path d="M 44.390625 34.1875 
Q 47.5625 33.109375 50.5625 29.59375 
Q 53.5625 26.078125 56.59375 19.921875 
L 66.609375 0 
L 56 0 
L 46.6875 18.703125 
Q 43.0625 26.03125 39.671875 28.421875 
Q 36.28125 30.8125 30.421875 30.8125 
L 19.671875 30.8125 
L 19.671875 0 
L 9.8125 0 
L 9.8125 72.90625 
L 32.078125 72.90625 
Q 44.578125 72.90625 50.734375 67.671875 
Q 56.890625 62.453125 56.890625 51.90625 
Q 56.890625 45.015625 53.6875 40.46875 
Q 50.484375 35.9375 44.390625 34.1875 
M 19.671875 64.796875 
L 19.671875 38.921875 
L 32.078125 38.921875 
Q 39.203125 38.921875 42.84375 42.21875 
Q 46.484375 45.515625 46.484375 51.90625 
Q 46.484375 58.296875 42.84375 61.546875 
Q 39.203125 64.796875 32.078125 64.796875 
z
" id="DejaVuSans-52"/>
     <path d="M 56.203125 29.59375 
L 56.203125 25.203125 
L 14.890625 25.203125 
Q 15.484375 15.921875 20.484375 11.0625 
Q 25.484375 6.203125 34.421875 6.203125 
Q 39.59375 6.203125 44.453125 7.46875 
Q 49.3125 8.734375 54.109375 11.28125 
L 54.109375 2.78125 
Q 49.265625 0.734375 44.1875 -0.34375 
Q 39.109375 -1.421875 33.890625 -1.421875 
Q 20.796875 -1.421875 13.15625 6.1875 
Q 5.515625 13.8125 5.515625 26.8125 
Q 5.515625 40.234375 12.765625 48.109375 
Q 20.015625 56 32.328125 56 
Q 43.359375 56 49.78125 48.890625 
Q 56.203125 41.796875 56.203125 29.59375 
M 47.21875 32.234375 
Q 47.125 39.59375 43.09375 43.984375 
Q 39.0625 48.390625 32.421875 48.390625 
Q 24.90625 48.390625 20.390625 44.140625 
Q 15.875 39.890625 15.1875 32.171875 
z
" id="DejaVuSans-65"/>
     <path d="M 34.28125 27.484375 
Q 23.390625 27.484375 19.1875 25 
Q 14.984375 22.515625 14.984375 16.5 
Q 14.984375 11.71875 18.140625 8.90625 
Q 21.296875 6.109375 26.703125 6.109375 
Q 34.1875 6.109375 38.703125 11.40625 
Q 43.21875 16.703125 43.21875 25.484375 
L 43.21875 27.484375 
z
M 52.203125 31.203125 
L 52.203125 0 
L 43.21875 0 
L 43.21875 8.296875 
Q 40.140625 3.328125 35.546875 0.953125 
Q 30.953125 -1.421875 24.3125 -1.421875 
Q 15.921875 -1.421875 10.953125 3.296875 
Q 6 8.015625 6 15.921875 
Q 6 25.140625 12.171875 29.828125 
Q 18.359375 34.515625 30.609375 34.515625 
L 43.21875 34.515625 
L 43.21875 35.40625 
Q 43.21875 41.609375 39.140625 45 
Q 35.0625 48.390625 27.6875 48.390625 
Q 23 48.390625 18.546875 47.265625 
Q 14.109375 46.140625 10.015625 43.890625 
L 10.015625 52.203125 
Q 14.9375 54.109375 19.578125 55.046875 
Q 24.21875 56 28.609375 56 
Q 40.484375 56 46.34375 49.84375 
Q 52.203125 43.703125 52.203125 31.203125 
" id="DejaVuSans-61"/>
     <path d="M 45.40625 46.390625 
L 45.40625 75.984375 
L 54.390625 75.984375 
L 54.390625 0 
L 45.40625 0 
L 45.40625 8.203125 
Q 42.578125 3.328125 38.25 0.953125 
Q 33.9375 -1.421875 27.875 -1.421875 
Q 17.96875 -1.421875 11.734375 6.484375 
Q 5.515625 14.40625 5.515625 27.296875 
Q 5.515625 40.1875 11.734375 48.09375 
Q 17.96875 56 27.875 56 
Q 33.9375 56 38.25 53.625 
Q 42.578125 51.265625 45.40625 46.390625 
M 14.796875 27.296875 
Q 14.796875 17.390625 18.875 11.75 
Q 22.953125 6.109375 30.078125 6.109375 
Q 37.203125 6.109375 41.296875 11.75 
Q 45.40625 17.390625 45.40625 27.296875 
Q 45.40625 37.203125 41.296875 42.84375 
Q 37.203125 48.484375 30.078125 48.484375 
Q 22.953125 48.484375 18.875 42.84375 
Q 14.796875 37.203125 14.796875 27.296875 
" id="DejaVuSans-64"/>
     <path d="M 18.109375 8.203125 
L 18.109375 -20.796875 
L 9.078125 -20.796875 
L 9.078125 54.6875 
L 18.109375 54.6875 
L 18.109375 46.390625 
Q 20.953125 51.265625 25.265625 53.625 
Q 29.59375 56 35.59375 56 
Q 45.5625 56 51.78125 48.09375 
Q 58.015625 40.1875 58.015625 27.296875 
Q 58.015625 14.40625 51.78125 6.484375 
Q 45.5625 -1.421875 35.59375 -1.421875 
Q 29.59375 -1.421875 25.265625 0.953125 
Q 20.953125 3.328125 18.109375 8.203125 
M 48.6875 27.296875 
Q 48.6875 37.203125 44.609375 42.84375 
Q 40.53125 48.484375 33.40625 48.484375 
Q 26.265625 48.484375 22.1875 42.84375 
Q 18.109375 37.203125 18.109375 27.296875 
Q 18.109375 17.390625 22.1875 11.75 
Q 26.265625 6.109375 33.40625 6.109375 
Q 40.53125 6.109375 44.609375 11.75 
Q 48.6875 17.390625 48.6875 27.296875 
" id="DejaVuSans-70"/>
     <path d="M 45.40625 27.984375 
Q 45.40625 37.75 41.375 43.109375 
Q 37.359375 48.484375 30.078125 48.484375 
Q 22.859375 48.484375 18.828125 43.109375 
Q 14.796875 37.75 14.796875 27.984375 
Q 14.796875 18.265625 18.828125 12.890625 
Q 22.859375 7.515625 30.078125 7.515625 
Q 37.359375 7.515625 41.375 12.890625 
Q 45.40625 18.265625 45.40625 27.984375 
M 54.390625 6.78125 
Q 54.390625 -7.171875 48.1875 -13.984375 
Q 42 -20.796875 29.203125 -20.796875 
Q 24.46875 -20.796875 20.265625 -20.09375 
Q 16.0625 -19.390625 12.109375 -17.921875 
L 12.109375 -9.1875 
Q 16.0625 -11.328125 19.921875 -12.34375 
Q 23.78125 -13.375 27.78125 -13.375 
Q 36.625 -13.375 41.015625 -8.765625 
Q 45.40625 -4.15625 45.40625 5.171875 
L 45.40625 9.625 
Q 42.625 4.78125 38.28125 2.390625 
Q 33.9375 0 27.875 0 
Q 17.828125 0 11.671875 7.65625 
Q 5.515625 15.328125 5.515625 27.984375 
Q 5.515625 40.671875 11.671875 48.328125 
Q 17.828125 56 27.875 56 
Q 33.9375 56 38.28125 53.609375 
Q 42.625 51.21875 45.40625 46.390625 
L 45.40625 54.6875 
L 54.390625 54.6875 
z
" id="DejaVuSans-67"/>
     <path d="M 9.8125 72.90625 
L 23.09375 72.90625 
L 55.421875 11.921875 
L 55.421875 72.90625 
L 64.984375 72.90625 
L 64.984375 0 
L 51.703125 0 
L 19.390625 60.984375 
L 19.390625 0 
L 9.8125 0 
z
" id="DejaVuSans-4e"/>
     <path d="M 34.1875 63.1875 
L 20.796875 26.90625 
L 47.609375 26.90625 
z
M 28.609375 72.90625 
L 39.796875 72.90625 
L 67.578125 0 
L 57.328125 0 
L 50.6875 18.703125 
L 17.828125 18.703125 
L 11.1875 0 
L 0.78125 0 
z
" id="DejaVuSans-41"/>
    </defs>
    <g transform="translate(61.316458 19.44)scale(0.12 -0.12)">
     <use xlink:href="#DejaVuSans-52"/>
     <use x="69.419922" xlink:href="#DejaVuSans-65"/>
     <use x="130.943359" xlink:href="#DejaVuSans-61"/>
     <use x="192.222656" xlink:href="#DejaVuSans-64"/>
     <use x="255.699219" xlink:href="#DejaVuSans-73"/>
     <use x="307.798828" xlink:href="#DejaVuSans-20"/>
     <use x="339.585938" xlink:href="#DejaVuSans-70"/>
     <use x="403.0625" xlink:href="#DejaVuSans-65"/>
     <use x="464.585938" xlink:href="#DejaVuSans-72"/>
     <use x="505.699219" xlink:href="#DejaVuSans-20"/>
     <use x="537.486328" xlink:href="#DejaVuSans-73"/>
     <use x="589.585938" xlink:href="#DejaVuSans-67"/>
     <use x="653.0625" xlink:href="#DejaVuSans-52"/>
     <use x="722.544922" xlink:href="#DejaVuSans-4e"/>
     <use x="797.349609" xlink:href="#DejaVuSans-41"/>
    </g>
   </g>
  </g>
  <g id="axes_2">
   <g id="patch_7">
    <path d="M 241.826667 143.44 
L 490.68 143.44 
L 490.68 25.44 
L 241.826667 25.44 
z
" style="fill:#ffffff;"/>
   </g>
   <g id="patch_8">
    <path clip-path="url(#p4382094c6d)" d="M 253.138182 143.44 
L 259.252514 143.44 
L 259.252514 31.059048 
L 253.138182 31.059048 
z
" style="fill:#1f77b4;"/>
   </g>
   <g id="patch_9">
    <path clip-path="url(#p4382094c6d)" d="M 259.252514 143.44 
L 265.366847 143.44 
L 265.366847 143.44 
L 259.252514 143.44 
z
" style="fill:#1f77b4;"/>
   </g>
   <g id="patch_10">
    <path clip-path="url(#p4382094c6d)" d="M 265.366847 143.44 
L 271.481179 143.44 
L 271.481179 115.088629 
L 265.366847 115.088629 
z
" style="fill:#1f77b4;"/>
   </g>
   <g id="patch_11">
    <path clip-path="url(#p4382094c6d)" d="M 271.481179 143.44 
L 277.595512 143.44 
L 277.595512 143.44 
L 271.481179 143.44 
z
" style="fill:#1f77b4;"/>
   </g>
   <g id="patch_12">
    <path clip-path="url(#p4382094c6d)" d="M 277.595512 143.44 
L 283.709844 143.44 
L 283.709844 143.44 
L 277.595512 143.44 
z
" style="fill:#1f77b4;"/>
   </g>
   <g id="patch_13">
    <path clip-path="url(#p4382094c6d)" d="M 283.709844 143.44 
L 289.824177 143.44 
L 289.824177 124.457203 
L 283.709844 124.457203 
z
" style="fill:#1f77b4;"/>
   </g>
   <g id="patch_14">
    <path clip-path="url(#p4382094c6d)" d="M 289.824177 143.44 
L 295.938509 143.44 
L 295.938509 143.44 
L 289.824177 143.44 
z
" style="fill:#1f77b4;"/>
   </g>
   <g id="patch_15">
    <path clip-path="url(#p4382094c6d)" d="M 295.938509 143.44 
L 302.052842 143.44 
L 302.052842 128.970735 
L 295.938509 128.970735 
z
" style="fill:#1f77b4;"/>
   </g>
   <g id="patch_16">
    <path clip-path="url(#p4382094c6d)" d="M 302.052842 143.44 
L 308.167174 143.44 
L 308.167174 143.44 
L 302.052842 143.44 
z
" style="fill:#1f77b4;"/>
   </g>
   <g id="patch_17">
    <path clip-path="url(#p4382094c6d)" d="M 308.167174 143.44 
L 314.281507 143.44 
L 314.281507 131.980422 
L 308.167174 131.980422 
z
" style="fill:#1f77b4;"/>
   </g>
   <g id="patch_18">
    <path clip-path="url(#p4382094c6d)" d="M 314.281507 143.44 
L 320.395839 143.44 
L 320.395839 143.44 
L 314.281507 143.44 
z
" style="fill:#1f77b4;"/>
   </g>
   <g id="patch_19">
    <path clip-path="url(#p4382094c6d)" d="M 320.395839 143.44 
L 326.510172 143.44 
L 326.510172 134.398956 
L 320.395839 134.398956 
z
" style="fill:#1f77b4;"/>
   </g>
   <g id="patch_20">
    <path clip-path="url(#p4382094c6d)" d="M 326.510172 143.44 
L 332.624505 143.44 
L 332.624505 143.44 
L 326.510172 143.44 
z
" style="fill:#1f77b4;"/>
   </g>
   <g id="patch_21">
    <path clip-path="url(#p4382094c6d)" d="M 332.624505 143.44 
L 338.738837 143.44 
L 338.738837 143.44 
L 332.624505 143.44 
z
" style="fill:#1f77b4;"/>
   </g>
   <g id="patch_22">
    <path clip-path="url(#p4382094c6d)" d="M 338.738837 143.44 
L 344.85317 143.44 
L 344.85317 135.838893 
L 338.738837 135.838893 
z
" style="fill:#1f77b4;"/>
   </g>
   <g id="patch_23">
    <path clip-path="url(#p4382094c6d)" d="M 344.85317 143.44 
L 350.967502 143.44 
L 350.967502 143.44 
L 344.85317 143.44 
z
" style="fill:#1f77b4;"/>
   </g>
   <g id="patch_24">
    <path clip-path="url(#p4382094c6d)" d="M 350.967502 143.44 
L 357.081835 143.44 
L 357.081835 137.174978 
L 350.967502 137.174978 
z
" style="fill:#1f77b4;"/>
   </g>
   <g id="patch_25">
    <path clip-path="url(#p4382094c6d)" d="M 357.081835 143.44 
L 363.196167 143.44 
L 363.196167 143.44 
L 357.081835 143.44 
z
" style="fill:#1f77b4;"/>
   </g>
   <g id="patch_26">
    <path clip-path="url(#p4382094c6d)" d="M 363.196167 143.44 
L 369.3105 143.44 
L 369.3105 138.21349 
L 363.196167 138.21349 
z
" style="fill:#1f77b4;"/>
   </g>
   <g id="patch_27">
    <path clip-path="url(#p4382094c6d)" d="M 369.3105 143.44 
L 375.424832 143.44 
L 375.424832 143.44 
L 369.3105 143.44 
z
" style="fill:#1f77b4;"/>
   </g>
   <g id="patch_28">
    <path clip-path="url(#p4382094c6d)" d="M 375.424832 143.44 
L 381.539165 143.44 
L 381.539165 139.086239 
L 375.424832 139.086239 
z
" style="fill:#1f77b4;"/>
   </g>
   <g id="patch_29">
    <path clip-path="url(#p4382094c6d)" d="M 381.539165 143.44 
L 387.653497 143.44 
L 387.653497 143.44 
L 381.539165 143.44 
z
" style="fill:#1f77b4;"/>
   </g>
   <g id="patch_30">
    <path clip-path="url(#p4382094c6d)" d="M 387.653497 143.44 
L 393.76783 143.44 
L 393.76783 143.44 
L 387.653497 143.44 
z
" style="fill:#1f77b4;"/>
   </g>
   <g id="patch_31">
    <path clip-path="url(#p4382094c6d)" d="M 393.76783 143.44 
L 399.882162 143.44 
L 399.882162 139.837163 
L 393.76783 139.837163 
z
" style="fill:#1f77b4;"/>
   </g>
   <g id="patch_32">
    <path clip-path="url(#p4382094c6d)" d="M 399.882162 143.44 
L 405.996495 143.44 
L 405.996495 143.44 
L 399.882162 143.44 
z
" style="fill:#1f77b4;"/>
   </g>
   <g id="patch_33">
    <path clip-path="url(#p4382094c6d)" d="M 405.996495 143.44 
L 412.110827 143.44 
L 412.110827 140.252568 
L 405.996495 140.252568 
z
" style="fill:#1f77b4;"/>
   </g>
   <g id="patch_34">
    <path clip-path="url(#p4382094c6d)" d="M 412.110827 143.44 
L 418.22516 143.44 
L 418.22516 143.44 
L 412.110827 143.44 
z
" style="fill:#1f77b4;"/>
   </g>
   <g id="patch_35">
    <path clip-path="url(#p4382094c6d)" d="M 418.22516 143.44 
L 424.339492 143.44 
L 424.339492 140.751852 
L 418.22516 140.751852 
z
" style="fill:#1f77b4;"/>
   </g>
   <g id="patch_36">
    <path clip-path="url(#p4382094c6d)" d="M 424.339492 143.44 
L 430.453825 143.44 
L 430.453825 143.44 
L 424.339492 143.44 
z
" style="fill:#1f77b4;"/>
   </g>
   <g id="patch_37">
    <path clip-path="url(#p4382094c6d)" d="M 430.453825 143.44 
L 436.568157 143.44 
L 436.568157 141.149283 
L 430.453825 141.149283 
z
" style="fill:#1f77b4;"/>
   </g>
   <g id="patch_38">
    <path clip-path="url(#p4382094c6d)" d="M 436.568157 143.44 
L 442.68249 143.44 
L 442.68249 143.44 
L 436.568157 143.44 
z
" style="fill:#1f77b4;"/>
   </g>
   <g id="patch_39">
    <path clip-path="url(#p4382094c6d)" d="M 442.68249 143.44 
L 448.796822 143.44 
L 448.796822 143.44 
L 442.68249 143.44 
z
" style="fill:#1f77b4;"/>
   </g>
   <g id="patch_40">
    <path clip-path="url(#p4382094c6d)" d="M 448.796822 143.44 
L 454.911155 143.44 
L 454.911155 141.480808 
L 448.796822 141.480808 
z
" style="fill:#1f77b4;"/>
   </g>
   <g id="patch_41">
    <path clip-path="url(#p4382094c6d)" d="M 454.911155 143.44 
L 461.025487 143.44 
L 461.025487 143.44 
L 454.911155 143.44 
z
" style="fill:#1f77b4;"/>
   </g>
   <g id="patch_42">
    <path clip-path="url(#p4382094c6d)" d="M 461.025487 143.44 
L 467.13982 143.44 
L 467.13982 141.700493 
L 461.025487 141.700493 
z
" style="fill:#1f77b4;"/>
   </g>
   <g id="patch_43">
    <path clip-path="url(#p4382094c6d)" d="M 467.13982 143.44 
L 473.254152 143.44 
L 473.254152 143.44 
L 467.13982 143.44 
z
" style="fill:#1f77b4;"/>
   </g>
   <g id="patch_44">
    <path clip-path="url(#p4382094c6d)" d="M 473.254152 143.44 
L 479.368485 143.44 
L 479.368485 141.924172 
L 473.254152 141.924172 
z
" style="fill:#1f77b4;"/>
   </g>
   <g id="matplotlib.axis_3">
    <g id="xtick_1">
     <g id="line2d_12">
      <defs>
       <path d="M 0 0 
L 0 3.5 
" id="mf1ed474a2c" style="stroke:#000000;stroke-width:0.8;"/>
      </defs>
      <g>
       <use style="stroke:#000000;stroke-width:0.8;" x="256.195348" xlink:href="#mf1ed474a2c" y="143.44"/>
      </g>
     </g>
     <g id="text_8">
      <!-- 0 -->
      <g transform="translate(253.014098 158.038438)scale(0.1 -0.1)">
       <use xlink:href="#DejaVuSans-30"/>
      </g>
     </g>
    </g>
    <g id="xtick_2">
     <g id="line2d_13">
      <g>
       <use style="stroke:#000000;stroke-width:0.8;" x="317.338673" xlink:href="#mf1ed474a2c" y="143.44"/>
      </g>
     </g>
     <g id="text_9">
      <!-- 10 -->
      <g transform="translate(310.976173 158.038438)scale(0.1 -0.1)">
       <use xlink:href="#DejaVuSans-31"/>
       <use x="63.623047" xlink:href="#DejaVuSans-30"/>
      </g>
     </g>
    </g>
    <g id="xtick_3">
     <g id="line2d_14">
      <g>
       <use style="stroke:#000000;stroke-width:0.8;" x="378.481998" xlink:href="#mf1ed474a2c" y="143.44"/>
      </g>
     </g>
     <g id="text_10">
      <!-- 20 -->
      <g transform="translate(372.119498 158.038438)scale(0.1 -0.1)">
       <use xlink:href="#DejaVuSans-32"/>
       <use x="63.623047" xlink:href="#DejaVuSans-30"/>
      </g>
     </g>
    </g>
    <g id="xtick_4">
     <g id="line2d_15">
      <g>
       <use style="stroke:#000000;stroke-width:0.8;" x="439.625324" xlink:href="#mf1ed474a2c" y="143.44"/>
      </g>
     </g>
     <g id="text_11">
      <!-- 30 -->
      <defs>
       <path d="M 40.578125 39.3125 
Q 47.65625 37.796875 51.625 33 
Q 55.609375 28.21875 55.609375 21.1875 
Q 55.609375 10.40625 48.1875 4.484375 
Q 40.765625 -1.421875 27.09375 -1.421875 
Q 22.515625 -1.421875 17.65625 -0.515625 
Q 12.796875 0.390625 7.625 2.203125 
L 7.625 11.71875 
Q 11.71875 9.328125 16.59375 8.109375 
Q 21.484375 6.890625 26.8125 6.890625 
Q 36.078125 6.890625 40.9375 10.546875 
Q 45.796875 14.203125 45.796875 21.1875 
Q 45.796875 27.640625 41.28125 31.265625 
Q 36.765625 34.90625 28.71875 34.90625 
L 20.21875 34.90625 
L 20.21875 43.015625 
L 29.109375 43.015625 
Q 36.375 43.015625 40.234375 45.921875 
Q 44.09375 48.828125 44.09375 54.296875 
Q 44.09375 59.90625 40.109375 62.90625 
Q 36.140625 65.921875 28.71875 65.921875 
Q 24.65625 65.921875 20.015625 65.03125 
Q 15.375 64.15625 9.8125 62.3125 
L 9.8125 71.09375 
Q 15.4375 72.65625 20.34375 73.4375 
Q 25.25 74.21875 29.59375 74.21875 
Q 40.828125 74.21875 47.359375 69.109375 
Q 53.90625 64.015625 53.90625 55.328125 
Q 53.90625 49.265625 50.4375 45.09375 
Q 46.96875 40.921875 40.578125 39.3125 
" id="DejaVuSans-33"/>
      </defs>
      <g transform="translate(433.262824 158.038438)scale(0.1 -0.1)">
       <use xlink:href="#DejaVuSans-33"/>
       <use x="63.623047" xlink:href="#DejaVuSans-30"/>
      </g>
     </g>
    </g>
    <g id="text_12">
     <!-- counts [norm.] per sgRNA -->
     <g transform="translate(301.411146 171.716563)scale(0.1 -0.1)">
      <use xlink:href="#DejaVuSans-63"/>
      <use x="54.980469" xlink:href="#DejaVuSans-6f"/>
      <use x="116.162109" xlink:href="#DejaVuSans-75"/>
      <use x="179.541016" xlink:href="#DejaVuSans-6e"/>
      <use x="242.919922" xlink:href="#DejaVuSans-74"/>
      <use x="282.128906" xlink:href="#DejaVuSans-73"/>
      <use x="334.228516" xlink:href="#DejaVuSans-20"/>
      <use x="366.015625" xlink:href="#DejaVuSans-5b"/>
      <use x="405.029297" xlink:href="#DejaVuSans-6e"/>
      <use x="468.408203" xlink:href="#DejaVuSans-6f"/>
      <use x="529.589844" xlink:href="#DejaVuSans-72"/>
      <use x="570.6875" xlink:href="#DejaVuSans-6d"/>
      <use x="668.099609" xlink:href="#DejaVuSans-2e"/>
      <use x="699.886719" xlink:href="#DejaVuSans-5d"/>
      <use x="738.900391" xlink:href="#DejaVuSans-20"/>
      <use x="770.6875" xlink:href="#DejaVuSans-70"/>
      <use x="834.164062" xlink:href="#DejaVuSans-65"/>
      <use x="895.6875" xlink:href="#DejaVuSans-72"/>
      <use x="936.800781" xlink:href="#DejaVuSans-20"/>
      <use x="968.587891" xlink:href="#DejaVuSans-73"/>
      <use x="1020.6875" xlink:href="#DejaVuSans-67"/>
      <use x="1084.164062" xlink:href="#DejaVuSans-52"/>
      <use x="1153.646484" xlink:href="#DejaVuSans-4e"/>
      <use x="1228.451172" xlink:href="#DejaVuSans-41"/>
     </g>
    </g>
   </g>
   <g id="matplotlib.axis_4">
    <g id="ytick_6">
     <g id="line2d_16">
      <g>
       <use style="stroke:#000000;stroke-width:0.8;" x="241.826667" xlink:href="#me21cdd7085" y="143.44"/>
      </g>
     </g>
     <g id="text_13">
      <!-- 0 -->
      <g transform="translate(228.464167 147.239219)scale(0.1 -0.1)">
       <use xlink:href="#DejaVuSans-30"/>
      </g>
     </g>
    </g>
    <g id="ytick_7">
     <g id="line2d_17">
      <g>
       <use style="stroke:#000000;stroke-width:0.8;" x="241.826667" xlink:href="#me21cdd7085" y="103.49724"/>
      </g>
     </g>
     <g id="text_14">
      <!-- 20000 -->
      <g transform="translate(203.014167 107.296459)scale(0.1 -0.1)">
       <use xlink:href="#DejaVuSans-32"/>
       <use x="63.623047" xlink:href="#DejaVuSans-30"/>
       <use x="127.246094" xlink:href="#DejaVuSans-30"/>
       <use x="190.869141" xlink:href="#DejaVuSans-30"/>
       <use x="254.492188" xlink:href="#DejaVuSans-30"/>
      </g>
     </g>
    </g>
    <g id="ytick_8">
     <g id="line2d_18">
      <g>
       <use style="stroke:#000000;stroke-width:0.8;" x="241.826667" xlink:href="#me21cdd7085" y="63.55448"/>
      </g>
     </g>
     <g id="text_15">
      <!-- 40000 -->
      <defs>
       <path d="M 37.796875 64.3125 
L 12.890625 25.390625 
L 37.796875 25.390625 
z
M 35.203125 72.90625 
L 47.609375 72.90625 
L 47.609375 25.390625 
L 58.015625 25.390625 
L 58.015625 17.1875 
L 47.609375 17.1875 
L 47.609375 0 
L 37.796875 0 
L 37.796875 17.1875 
L 4.890625 17.1875 
L 4.890625 26.703125 
z
" id="DejaVuSans-34"/>
      </defs>
      <g transform="translate(203.014167 67.353699)scale(0.1 -0.1)">
       <use xlink:href="#DejaVuSans-34"/>
       <use x="63.623047" xlink:href="#DejaVuSans-30"/>
       <use x="127.246094" xlink:href="#DejaVuSans-30"/>
       <use x="190.869141" xlink:href="#DejaVuSans-30"/>
       <use x="254.492188" xlink:href="#DejaVuSans-30"/>
      </g>
     </g>
    </g>
    <g id="text_16">
     <!-- Number of sgRNAs -->
     <defs>
      <path d="M 48.6875 27.296875 
Q 48.6875 37.203125 44.609375 42.84375 
Q 40.53125 48.484375 33.40625 48.484375 
Q 26.265625 48.484375 22.1875 42.84375 
Q 18.109375 37.203125 18.109375 27.296875 
Q 18.109375 17.390625 22.1875 11.75 
Q 26.265625 6.109375 33.40625 6.109375 
Q 40.53125 6.109375 44.609375 11.75 
Q 48.6875 17.390625 48.6875 27.296875 
M 18.109375 46.390625 
Q 20.953125 51.265625 25.265625 53.625 
Q 29.59375 56 35.59375 56 
Q 45.5625 56 51.78125 48.09375 
Q 58.015625 40.1875 58.015625 27.296875 
Q 58.015625 14.40625 51.78125 6.484375 
Q 45.5625 -1.421875 35.59375 -1.421875 
Q 29.59375 -1.421875 25.265625 0.953125 
Q 20.953125 3.328125 18.109375 8.203125 
L 18.109375 0 
L 9.078125 0 
L 9.078125 75.984375 
L 18.109375 75.984375 
z
" id="DejaVuSans-62"/>
      <path d="M 37.109375 75.984375 
L 37.109375 68.5 
L 28.515625 68.5 
Q 23.6875 68.5 21.796875 66.546875 
Q 19.921875 64.59375 19.921875 59.515625 
L 19.921875 54.6875 
L 34.71875 54.6875 
L 34.71875 47.703125 
L 19.921875 47.703125 
L 19.921875 0 
L 10.890625 0 
L 10.890625 47.703125 
L 2.296875 47.703125 
L 2.296875 54.6875 
L 10.890625 54.6875 
L 10.890625 58.5 
Q 10.890625 67.625 15.140625 71.796875 
Q 19.390625 75.984375 28.609375 75.984375 
z
" id="DejaVuSans-66"/>
     </defs>
     <g transform="translate(196.934479 131.542344)rotate(-90)scale(0.1 -0.1)">
      <use xlink:href="#DejaVuSans-4e"/>
      <use x="74.804688" xlink:href="#DejaVuSans-75"/>
      <use x="138.183594" xlink:href="#DejaVuSans-6d"/>
      <use x="235.595703" xlink:href="#DejaVuSans-62"/>
      <use x="299.072266" xlink:href="#DejaVuSans-65"/>
      <use x="360.595703" xlink:href="#DejaVuSans-72"/>
      <use x="401.708984" xlink:href="#DejaVuSans-20"/>
      <use x="433.496094" xlink:href="#DejaVuSans-6f"/>
      <use x="494.677734" xlink:href="#DejaVuSans-66"/>
      <use x="529.882812" xlink:href="#DejaVuSans-20"/>
      <use x="561.669922" xlink:href="#DejaVuSans-73"/>
      <use x="613.769531" xlink:href="#DejaVuSans-67"/>
      <use x="677.246094" xlink:href="#DejaVuSans-52"/>
      <use x="746.728516" xlink:href="#DejaVuSans-4e"/>
      <use x="821.533203" xlink:href="#DejaVuSans-41"/>
      <use x="889.941406" xlink:href="#DejaVuSans-73"/>
     </g>
    </g>
   </g>
   <g id="patch_45">
    <path d="M 241.826667 143.44 
L 241.826667 25.44 
" style="fill:none;stroke:#000000;stroke-linecap:square;stroke-linejoin:miter;stroke-width:0.8;"/>
   </g>
   <g id="patch_46">
    <path d="M 490.68 143.44 
L 490.68 25.44 
" style="fill:none;stroke:#000000;stroke-linecap:square;stroke-linejoin:miter;stroke-width:0.8;"/>
   </g>
   <g id="patch_47">
    <path d="M 241.826667 143.44 
L 490.68 143.44 
" style="fill:none;stroke:#000000;stroke-linecap:square;stroke-linejoin:miter;stroke-width:0.8;"/>
   </g>
   <g id="patch_48">
    <path d="M 241.826667 25.44 
L 490.68 25.44 
" style="fill:none;stroke:#000000;stroke-linecap:square;stroke-linejoin:miter;stroke-width:0.8;"/>
   </g>
   <g id="text_17">
    <!-- Control_1 Read Distribution -->
    <defs>
     <path d="M 64.40625 67.28125 
L 64.40625 56.890625 
Q 59.421875 61.53125 53.78125 63.8125 
Q 48.140625 66.109375 41.796875 66.109375 
Q 29.296875 66.109375 22.65625 58.46875 
Q 16.015625 50.828125 16.015625 36.375 
Q 16.015625 21.96875 22.65625 14.328125 
Q 29.296875 6.6875 41.796875 6.6875 
Q 48.140625 6.6875 53.78125 8.984375 
Q 59.421875 11.28125 64.40625 15.921875 
L 64.40625 5.609375 
Q 59.234375 2.09375 53.4375 0.328125 
Q 47.65625 -1.421875 41.21875 -1.421875 
Q 24.65625 -1.421875 15.125 8.703125 
Q 5.609375 18.84375 5.609375 36.375 
Q 5.609375 53.953125 15.125 64.078125 
Q 24.65625 74.21875 41.21875 74.21875 
Q 47.75 74.21875 53.53125 72.484375 
Q 59.328125 70.75 64.40625 67.28125 
" id="DejaVuSans-43"/>
     <path d="M 9.421875 75.984375 
L 18.40625 75.984375 
L 18.40625 0 
L 9.421875 0 
z
" id="DejaVuSans-6c"/>
     <path d="M 50.984375 -16.609375 
L 50.984375 -23.578125 
L -0.984375 -23.578125 
L -0.984375 -16.609375 
z
" id="DejaVuSans-5f"/>
     <path d="M 19.671875 64.796875 
L 19.671875 8.109375 
L 31.59375 8.109375 
Q 46.6875 8.109375 53.6875 14.9375 
Q 60.6875 21.78125 60.6875 36.53125 
Q 60.6875 51.171875 53.6875 57.984375 
Q 46.6875 64.796875 31.59375 64.796875 
z
M 9.8125 72.90625 
L 30.078125 72.90625 
Q 51.265625 72.90625 61.171875 64.09375 
Q 71.09375 55.28125 71.09375 36.53125 
Q 71.09375 17.671875 61.125 8.828125 
Q 51.171875 0 30.078125 0 
L 9.8125 0 
z
" id="DejaVuSans-44"/>
     <path d="M 9.421875 54.6875 
L 18.40625 54.6875 
L 18.40625 0 
L 9.421875 0 
z
M 9.421875 75.984375 
L 18.40625 75.984375 
L 18.40625 64.59375 
L 9.421875 64.59375 
z
" id="DejaVuSans-69"/>
    </defs>
    <g transform="translate(283.458021 19.44)scale(0.12 -0.12)">
     <use xlink:href="#DejaVuSans-43"/>
     <use x="69.824219" xlink:href="#DejaVuSans-6f"/>
     <use x="131.005859" xlink:href="#DejaVuSans-6e"/>
     <use x="194.384766" xlink:href="#DejaVuSans-74"/>
     <use x="233.59375" xlink:href="#DejaVuSans-72"/>
     <use x="274.675781" xlink:href="#DejaVuSans-6f"/>
     <use x="335.857422" xlink:href="#DejaVuSans-6c"/>
     <use x="363.640625" xlink:href="#DejaVuSans-5f"/>
     <use x="413.640625" xlink:href="#DejaVuSans-31"/>
     <use x="477.263672" xlink:href="#DejaVuSans-20"/>
     <use x="509.050781" xlink:href="#DejaVuSans-52"/>
     <use x="578.470703" xlink:href="#DejaVuSans-65"/>
     <use x="639.994141" xlink:href="#DejaVuSans-61"/>
     <use x="701.273438" xlink:href="#DejaVuSans-64"/>
     <use x="764.75" xlink:href="#DejaVuSans-20"/>
     <use x="796.537109" xlink:href="#DejaVuSans-44"/>
     <use x="873.539062" xlink:href="#DejaVuSans-69"/>
     <use x="901.322266" xlink:href="#DejaVuSans-73"/>
     <use x="953.421875" xlink:href="#DejaVuSans-74"/>
     <use x="992.630859" xlink:href="#DejaVuSans-72"/>
     <use x="1033.744141" xlink:href="#DejaVuSans-69"/>
     <use x="1061.527344" xlink:href="#DejaVuSans-62"/>
     <use x="1125.003906" xlink:href="#DejaVuSans-75"/>
     <use x="1188.382812" xlink:href="#DejaVuSans-74"/>
     <use x="1227.591797" xlink:href="#DejaVuSans-69"/>
     <use x="1255.375" xlink:href="#DejaVuSans-6f"/>
     <use x="1316.556641" xlink:href="#DejaVuSans-6e"/>
    </g>
   </g>
  </g>
  <g id="axes_3">
   <g id="patch_49">
    <path d="M 51.05 318.04 
L 175.476667 318.04 
L 175.476667 200.04 
L 51.05 200.04 
z
" style="fill:#ffffff;"/>
   </g>
   <g id="matplotlib.axis_5"/>
   <g id="matplotlib.axis_6">
    <g id="ytick_9">
     <g id="line2d_19">
      <g>
       <use style="stroke:#000000;stroke-width:0.8;" x="51.05" xlink:href="#me21cdd7085" y="312.676364"/>
      </g>
     </g>
     <g id="text_18">
      <!-- 0 -->
      <g transform="translate(37.6875 316.475582)scale(0.1 -0.1)">
       <use xlink:href="#DejaVuSans-30"/>
      </g>
     </g>
    </g>
    <g id="ytick_10">
     <g id="line2d_20">
      <g>
       <use style="stroke:#000000;stroke-width:0.8;" x="51.05" xlink:href="#me21cdd7085" y="271.097787"/>
      </g>
     </g>
     <g id="text_19">
      <!-- 50 -->
      <g transform="translate(31.325 274.897006)scale(0.1 -0.1)">
       <use xlink:href="#DejaVuSans-35"/>
       <use x="63.623047" xlink:href="#DejaVuSans-30"/>
      </g>
     </g>
    </g>
    <g id="ytick_11">
     <g id="line2d_21">
      <g>
       <use style="stroke:#000000;stroke-width:0.8;" x="51.05" xlink:href="#me21cdd7085" y="229.519211"/>
      </g>
     </g>
     <g id="text_20">
      <!-- 100 -->
      <g transform="translate(24.9625 233.318429)scale(0.1 -0.1)">
       <use xlink:href="#DejaVuSans-31"/>
       <use x="63.623047" xlink:href="#DejaVuSans-30"/>
       <use x="127.246094" xlink:href="#DejaVuSans-30"/>
      </g>
     </g>
    </g>
    <g id="text_21">
     <!-- counts [norm.] -->
     <g transform="translate(18.882813 295.98375)rotate(-90)scale(0.1 -0.1)">
      <use xlink:href="#DejaVuSans-63"/>
      <use x="54.980469" xlink:href="#DejaVuSans-6f"/>
      <use x="116.162109" xlink:href="#DejaVuSans-75"/>
      <use x="179.541016" xlink:href="#DejaVuSans-6e"/>
      <use x="242.919922" xlink:href="#DejaVuSans-74"/>
      <use x="282.128906" xlink:href="#DejaVuSans-73"/>
      <use x="334.228516" xlink:href="#DejaVuSans-20"/>
      <use x="366.015625" xlink:href="#DejaVuSans-5b"/>
      <use x="405.029297" xlink:href="#DejaVuSans-6e"/>
      <use x="468.408203" xlink:href="#DejaVuSans-6f"/>
      <use x="529.589844" xlink:href="#DejaVuSans-72"/>
      <use x="570.6875" xlink:href="#DejaVuSans-6d"/>
      <use x="668.099609" xlink:href="#DejaVuSans-2e"/>
      <use x="699.886719" xlink:href="#DejaVuSans-5d"/>
     </g>
    </g>
   </g>
   <g id="line2d_22">
    <path clip-path="url(#pe6bbd7e3b1)" d="M 103.931333 297.708076 
L 122.595333 297.708076 
L 122.595333 260.287357 
L 103.931333 260.287357 
L 103.931333 297.708076 
" style="fill:none;stroke:#000000;stroke-linecap:square;"/>
   </g>
   <g id="line2d_23">
    <path clip-path="url(#pe6bbd7e3b1)" d="M 113.263333 297.708076 
L 113.263333 312.676364 
" style="fill:none;stroke:#000000;stroke-linecap:square;"/>
   </g>
   <g id="line2d_24">
    <path clip-path="url(#pe6bbd7e3b1)" d="M 113.263333 260.287357 
L 113.263333 205.403636 
" style="fill:none;stroke:#000000;stroke-linecap:square;"/>
   </g>
   <g id="line2d_25">
    <path clip-path="url(#pe6bbd7e3b1)" d="M 108.597333 312.676364 
L 117.929333 312.676364 
" style="fill:none;stroke:#000000;stroke-linecap:square;"/>
   </g>
   <g id="line2d_26">
    <path clip-path="url(#pe6bbd7e3b1)" d="M 108.597333 205.403636 
L 117.929333 205.403636 
" style="fill:none;stroke:#000000;stroke-linecap:square;"/>
   </g>
   <g id="line2d_27">
    <path clip-path="url(#pe6bbd7e3b1)" d="M 103.931333 281.076646 
L 122.595333 281.076646 
" style="fill:none;stroke:#ff7f0e;stroke-linecap:square;"/>
   </g>
   <g id="patch_50">
    <path d="M 51.05 318.04 
L 51.05 200.04 
" style="fill:none;stroke:#000000;stroke-linecap:square;stroke-linejoin:miter;stroke-width:0.8;"/>
   </g>
   <g id="patch_51">
    <path d="M 175.476667 318.04 
L 175.476667 200.04 
" style="fill:none;stroke:#000000;stroke-linecap:square;stroke-linejoin:miter;stroke-width:0.8;"/>
   </g>
   <g id="patch_52">
    <path d="M 51.05 318.04 
L 175.476667 318.04 
" style="fill:none;stroke:#000000;stroke-linecap:square;stroke-linejoin:miter;stroke-width:0.8;"/>
   </g>
   <g id="patch_53">
    <path d="M 51.05 200.04 
L 175.476667 200.04 
" style="fill:none;stroke:#000000;stroke-linecap:square;stroke-linejoin:miter;stroke-width:0.8;"/>
   </g>
   <g id="text_22">
    <!-- Reads per Gene -->
    <defs>
     <path d="M 59.515625 10.40625 
L 59.515625 29.984375 
L 43.40625 29.984375 
L 43.40625 38.09375 
L 69.28125 38.09375 
L 69.28125 6.78125 
Q 63.578125 2.734375 56.6875 0.65625 
Q 49.8125 -1.421875 42 -1.421875 
Q 24.90625 -1.421875 15.25 8.5625 
Q 5.609375 18.5625 5.609375 36.375 
Q 5.609375 54.25 15.25 64.234375 
Q 24.90625 74.21875 42 74.21875 
Q 49.125 74.21875 55.546875 72.453125 
Q 61.96875 70.703125 67.390625 67.28125 
L 67.390625 56.78125 
Q 61.921875 61.421875 55.765625 63.765625 
Q 49.609375 66.109375 42.828125 66.109375 
Q 29.4375 66.109375 22.71875 58.640625 
Q 16.015625 51.171875 16.015625 36.375 
Q 16.015625 21.625 22.71875 14.15625 
Q 29.4375 6.6875 42.828125 6.6875 
Q 48.046875 6.6875 52.140625 7.59375 
Q 56.25 8.5 59.515625 10.40625 
" id="DejaVuSans-47"/>
    </defs>
    <g transform="translate(65.178021 194.04)scale(0.12 -0.12)">
     <use xlink:href="#DejaVuSans-52"/>
     <use x="69.419922" xlink:href="#DejaVuSans-65"/>
     <use x="130.943359" xlink:href="#DejaVuSans-61"/>
     <use x="192.222656" xlink:href="#DejaVuSans-64"/>
     <use x="255.699219" xlink:href="#DejaVuSans-73"/>
     <use x="307.798828" xlink:href="#DejaVuSans-20"/>
     <use x="339.585938" xlink:href="#DejaVuSans-70"/>
     <use x="403.0625" xlink:href="#DejaVuSans-65"/>
     <use x="464.585938" xlink:href="#DejaVuSans-72"/>
     <use x="505.699219" xlink:href="#DejaVuSans-20"/>
     <use x="537.486328" xlink:href="#DejaVuSans-47"/>
     <use x="614.976562" xlink:href="#DejaVuSans-65"/>
     <use x="676.5" xlink:href="#DejaVuSans-6e"/>
     <use x="739.878906" xlink:href="#DejaVuSans-65"/>
    </g>
   </g>
  </g>
  <g id="axes_4">
   <g id="patch_54">
    <path d="M 241.826667 318.04 
L 490.68 318.04 
L 490.68 200.04 
L 241.826667 200.04 
z
" style="fill:#ffffff;"/>
   </g>
   <g id="patch_55">
    <path clip-path="url(#p73e1efc492)" d="M 253.138182 318.04 
L 255.007854 318.04 
L 255.007854 205.659048 
L 253.138182 205.659048 
z
" style="fill:#1f77b4;"/>
   </g>
   <g id="patch_56">
    <path clip-path="url(#p73e1efc492)" d="M 255.007854 318.04 
L 256.877526 318.04 
L 256.877526 318.04 
L 255.007854 318.04 
z
" style="fill:#1f77b4;"/>
   </g>
   <g id="patch_57">
    <path clip-path="url(#p73e1efc492)" d="M 256.877526 318.04 
L 258.747198 318.04 
L 258.747198 293.790746 
L 256.877526 293.790746 
z
" style="fill:#1f77b4;"/>
   </g>
   <g id="patch_58">
    <path clip-path="url(#p73e1efc492)" d="M 258.747198 318.04 
L 260.61687 318.04 
L 260.61687 318.04 
L 258.747198 318.04 
z
" style="fill:#1f77b4;"/>
   </g>
   <g id="patch_59">
    <path clip-path="url(#p73e1efc492)" d="M 260.61687 318.04 
L 262.486541 318.04 
L 262.486541 318.04 
L 260.61687 318.04 
z
" style="fill:#1f77b4;"/>
   </g>
   <g id="patch_60">
    <path clip-path="url(#p73e1efc492)" d="M 262.486541 318.04 
L 264.356213 318.04 
L 264.356213 291.313671 
L 262.486541 291.313671 
z
" style="fill:#1f77b4;"/>
   </g>
   <g id="patch_61">
    <path clip-path="url(#p73e1efc492)" d="M 264.356213 318.04 
L 266.225885 318.04 
L 266.225885 318.04 
L 264.356213 318.04 
z
" style="fill:#1f77b4;"/>
   </g>
   <g id="patch_62">
    <path clip-path="url(#p73e1efc492)" d="M 266.225885 318.04 
L 268.095557 318.04 
L 268.095557 288.119549 
L 266.225885 288.119549 
z
" style="fill:#1f77b4;"/>
   </g>
   <g id="patch_63">
    <path clip-path="url(#p73e1efc492)" d="M 268.095557 318.04 
L 269.965229 318.04 
L 269.965229 318.04 
L 268.095557 318.04 
z
" style="fill:#1f77b4;"/>
   </g>
   <g id="patch_64">
    <path clip-path="url(#p73e1efc492)" d="M 269.965229 318.04 
L 271.834901 318.04 
L 271.834901 284.599496 
L 269.965229 284.599496 
z
" style="fill:#1f77b4;"/>
   </g>
   <g id="patch_65">
    <path clip-path="url(#p73e1efc492)" d="M 271.834901 318.04 
L 273.704573 318.04 
L 273.704573 318.04 
L 271.834901 318.04 
z
" style="fill:#1f77b4;"/>
   </g>
   <g id="patch_66">
    <path clip-path="url(#p73e1efc492)" d="M 273.704573 318.04 
L 275.574245 318.04 
L 275.574245 281.535746 
L 273.704573 281.535746 
z
" style="fill:#1f77b4;"/>
   </g>
   <g id="patch_67">
    <path clip-path="url(#p73e1efc492)" d="M 275.574245 318.04 
L 277.443917 318.04 
L 277.443917 318.04 
L 275.574245 318.04 
z
" style="fill:#1f77b4;"/>
   </g>
   <g id="patch_68">
    <path clip-path="url(#p73e1efc492)" d="M 277.443917 318.04 
L 279.313589 318.04 
L 279.313589 318.04 
L 277.443917 318.04 
z
" style="fill:#1f77b4;"/>
   </g>
   <g id="patch_69">
    <path clip-path="url(#p73e1efc492)" d="M 279.313589 318.04 
L 281.183261 318.04 
L 281.183261 279.319417 
L 279.313589 279.319417 
z
" style="fill:#1f77b4;"/>
   </g>
   <g id="patch_70">
    <path clip-path="url(#p73e1efc492)" d="M 281.183261 318.04 
L 283.052933 318.04 
L 283.052933 318.04 
L 281.183261 318.04 
z
" style="fill:#1f77b4;"/>
   </g>
   <g id="patch_71">
    <path clip-path="url(#p73e1efc492)" d="M 283.052933 318.04 
L 284.922605 318.04 
L 284.922605 279.77572 
L 283.052933 279.77572 
z
" style="fill:#1f77b4;"/>
   </g>
   <g id="patch_72">
    <path clip-path="url(#p73e1efc492)" d="M 284.922605 318.04 
L 286.792276 318.04 
L 286.792276 318.04 
L 284.922605 318.04 
z
" style="fill:#1f77b4;"/>
   </g>
   <g id="patch_73">
    <path clip-path="url(#p73e1efc492)" d="M 286.792276 318.04 
L 288.661948 318.04 
L 288.661948 277.950507 
L 286.792276 277.950507 
z
" style="fill:#1f77b4;"/>
   </g>
   <g id="patch_74">
    <path clip-path="url(#p73e1efc492)" d="M 288.661948 318.04 
L 290.53162 318.04 
L 290.53162 318.04 
L 288.661948 318.04 
z
" style="fill:#1f77b4;"/>
   </g>
   <g id="patch_75">
    <path clip-path="url(#p73e1efc492)" d="M 290.53162 318.04 
L 292.401292 318.04 
L 292.401292 274.430454 
L 290.53162 274.430454 
z
" style="fill:#1f77b4;"/>
   </g>
   <g id="patch_76">
    <path clip-path="url(#p73e1efc492)" d="M 292.401292 318.04 
L 294.270964 318.04 
L 294.270964 318.04 
L 292.401292 318.04 
z
" style="fill:#1f77b4;"/>
   </g>
   <g id="patch_77">
    <path clip-path="url(#p73e1efc492)" d="M 294.270964 318.04 
L 296.140636 318.04 
L 296.140636 318.04 
L 294.270964 318.04 
z
" style="fill:#1f77b4;"/>
   </g>
   <g id="patch_78">
    <path clip-path="url(#p73e1efc492)" d="M 296.140636 318.04 
L 298.010308 318.04 
L 298.010308 272.605241 
L 296.140636 272.605241 
z
" style="fill:#1f77b4;"/>
   </g>
   <g id="patch_79">
    <path clip-path="url(#p73e1efc492)" d="M 298.010308 318.04 
L 299.87998 318.04 
L 299.87998 318.04 
L 298.010308 318.04 
z
" style="fill:#1f77b4;"/>
   </g>
   <g id="patch_80">
    <path clip-path="url(#p73e1efc492)" d="M 299.87998 318.04 
L 301.749652 318.04 
L 301.749652 278.732741 
L 299.87998 278.732741 
z
" style="fill:#1f77b4;"/>
   </g>
   <g id="patch_81">
    <path clip-path="url(#p73e1efc492)" d="M 301.749652 318.04 
L 303.619324 318.04 
L 303.619324 318.04 
L 301.749652 318.04 
z
" style="fill:#1f77b4;"/>
   </g>
   <g id="patch_82">
    <path clip-path="url(#p73e1efc492)" d="M 303.619324 318.04 
L 305.488996 318.04 
L 305.488996 277.298645 
L 303.619324 277.298645 
z
" style="fill:#1f77b4;"/>
   </g>
   <g id="patch_83">
    <path clip-path="url(#p73e1efc492)" d="M 305.488996 318.04 
L 307.358668 318.04 
L 307.358668 318.04 
L 305.488996 318.04 
z
" style="fill:#1f77b4;"/>
   </g>
   <g id="patch_84">
    <path clip-path="url(#p73e1efc492)" d="M 307.358668 318.04 
L 309.22834 318.04 
L 309.22834 278.9283 
L 307.358668 278.9283 
z
" style="fill:#1f77b4;"/>
   </g>
   <g id="patch_85">
    <path clip-path="url(#p73e1efc492)" d="M 309.22834 318.04 
L 311.098012 318.04 
L 311.098012 318.04 
L 309.22834 318.04 
z
" style="fill:#1f77b4;"/>
   </g>
   <g id="patch_86">
    <path clip-path="url(#p73e1efc492)" d="M 311.098012 318.04 
L 312.967683 318.04 
L 312.967683 318.04 
L 311.098012 318.04 
z
" style="fill:#1f77b4;"/>
   </g>
   <g id="patch_87">
    <path clip-path="url(#p73e1efc492)" d="M 312.967683 318.04 
L 314.837355 318.04 
L 314.837355 277.233459 
L 312.967683 277.233459 
z
" style="fill:#1f77b4;"/>
   </g>
   <g id="patch_88">
    <path clip-path="url(#p73e1efc492)" d="M 314.837355 318.04 
L 316.707027 318.04 
L 316.707027 318.04 
L 314.837355 318.04 
z
" style="fill:#1f77b4;"/>
   </g>
   <g id="patch_89">
    <path clip-path="url(#p73e1efc492)" d="M 316.707027 318.04 
L 318.576699 318.04 
L 318.576699 278.732741 
L 316.707027 278.732741 
z
" style="fill:#1f77b4;"/>
   </g>
   <g id="patch_90">
    <path clip-path="url(#p73e1efc492)" d="M 318.576699 318.04 
L 320.446371 318.04 
L 320.446371 318.04 
L 318.576699 318.04 
z
" style="fill:#1f77b4;"/>
   </g>
   <g id="patch_91">
    <path clip-path="url(#p73e1efc492)" d="M 320.446371 318.04 
L 322.316043 318.04 
L 322.316043 278.341624 
L 320.446371 278.341624 
z
" style="fill:#1f77b4;"/>
   </g>
   <g id="patch_92">
    <path clip-path="url(#p73e1efc492)" d="M 322.316043 318.04 
L 324.185715 318.04 
L 324.185715 318.04 
L 322.316043 318.04 
z
" style="fill:#1f77b4;"/>
   </g>
   <g id="patch_93">
    <path clip-path="url(#p73e1efc492)" d="M 324.185715 318.04 
L 326.055387 318.04 
L 326.055387 278.146066 
L 324.185715 278.146066 
z
" style="fill:#1f77b4;"/>
   </g>
   <g id="patch_94">
    <path clip-path="url(#p73e1efc492)" d="M 326.055387 318.04 
L 327.925059 318.04 
L 327.925059 318.04 
L 326.055387 318.04 
z
" style="fill:#1f77b4;"/>
   </g>
   <g id="patch_95">
    <path clip-path="url(#p73e1efc492)" d="M 327.925059 318.04 
L 329.794731 318.04 
L 329.794731 318.04 
L 327.925059 318.04 
z
" style="fill:#1f77b4;"/>
   </g>
   <g id="patch_96">
    <path clip-path="url(#p73e1efc492)" d="M 329.794731 318.04 
L 331.664403 318.04 
L 331.664403 281.340188 
L 329.794731 281.340188 
z
" style="fill:#1f77b4;"/>
   </g>
   <g id="patch_97">
    <path clip-path="url(#p73e1efc492)" d="M 331.664403 318.04 
L 333.534075 318.04 
L 333.534075 318.04 
L 331.664403 318.04 
z
" style="fill:#1f77b4;"/>
   </g>
   <g id="patch_98">
    <path clip-path="url(#p73e1efc492)" d="M 333.534075 318.04 
L 335.403747 318.04 
L 335.403747 282.578725 
L 333.534075 282.578725 
z
" style="fill:#1f77b4;"/>
   </g>
   <g id="patch_99">
    <path clip-path="url(#p73e1efc492)" d="M 335.403747 318.04 
L 337.273418 318.04 
L 337.273418 318.04 
L 335.403747 318.04 
z
" style="fill:#1f77b4;"/>
   </g>
   <g id="patch_100">
    <path clip-path="url(#p73e1efc492)" d="M 337.273418 318.04 
L 339.14309 318.04 
L 339.14309 283.817262 
L 337.273418 283.817262 
z
" style="fill:#1f77b4;"/>
   </g>
   <g id="patch_101">
    <path clip-path="url(#p73e1efc492)" d="M 339.14309 318.04 
L 341.012762 318.04 
L 341.012762 318.04 
L 339.14309 318.04 
z
" style="fill:#1f77b4;"/>
   </g>
   <g id="patch_102">
    <path clip-path="url(#p73e1efc492)" d="M 341.012762 318.04 
L 342.882434 318.04 
L 342.882434 318.04 
L 341.012762 318.04 
z
" style="fill:#1f77b4;"/>
   </g>
   <g id="patch_103">
    <path clip-path="url(#p73e1efc492)" d="M 342.882434 318.04 
L 344.752106 318.04 
L 344.752106 283.426145 
L 342.882434 283.426145 
z
" style="fill:#1f77b4;"/>
   </g>
   <g id="patch_104">
    <path clip-path="url(#p73e1efc492)" d="M 344.752106 318.04 
L 346.621778 318.04 
L 346.621778 318.04 
L 344.752106 318.04 
z
" style="fill:#1f77b4;"/>
   </g>
   <g id="patch_105">
    <path clip-path="url(#p73e1efc492)" d="M 346.621778 318.04 
L 348.49145 318.04 
L 348.49145 286.815826 
L 346.621778 286.815826 
z
" style="fill:#1f77b4;"/>
   </g>
   <g id="patch_106">
    <path clip-path="url(#p73e1efc492)" d="M 348.49145 318.04 
L 350.361122 318.04 
L 350.361122 318.04 
L 348.49145 318.04 
z
" style="fill:#1f77b4;"/>
   </g>
   <g id="patch_107">
    <path clip-path="url(#p73e1efc492)" d="M 350.361122 318.04 
L 352.230794 318.04 
L 352.230794 285.38173 
L 350.361122 285.38173 
z
" style="fill:#1f77b4;"/>
   </g>
   <g id="patch_108">
    <path clip-path="url(#p73e1efc492)" d="M 352.230794 318.04 
L 354.100466 318.04 
L 354.100466 318.04 
L 352.230794 318.04 
z
" style="fill:#1f77b4;"/>
   </g>
   <g id="patch_109">
    <path clip-path="url(#p73e1efc492)" d="M 354.100466 318.04 
L 355.970138 318.04 
L 355.970138 291.704788 
L 354.100466 291.704788 
z
" style="fill:#1f77b4;"/>
   </g>
   <g id="patch_110">
    <path clip-path="url(#p73e1efc492)" d="M 355.970138 318.04 
L 357.83981 318.04 
L 357.83981 318.04 
L 355.970138 318.04 
z
" style="fill:#1f77b4;"/>
   </g>
   <g id="patch_111">
    <path clip-path="url(#p73e1efc492)" d="M 357.83981 318.04 
L 359.709482 318.04 
L 359.709482 318.04 
L 357.83981 318.04 
z
" style="fill:#1f77b4;"/>
   </g>
   <g id="patch_112">
    <path clip-path="url(#p73e1efc492)" d="M 359.709482 318.04 
L 361.579154 318.04 
L 361.579154 289.227714 
L 359.709482 289.227714 
z
" style="fill:#1f77b4;"/>
   </g>
   <g id="patch_113">
    <path clip-path="url(#p73e1efc492)" d="M 361.579154 318.04 
L 363.448825 318.04 
L 363.448825 318.04 
L 361.579154 318.04 
z
" style="fill:#1f77b4;"/>
   </g>
   <g id="patch_114">
    <path clip-path="url(#p73e1efc492)" d="M 363.448825 318.04 
L 365.318497 318.04 
L 365.318497 289.358086 
L 363.448825 289.358086 
z
" style="fill:#1f77b4;"/>
   </g>
   <g id="patch_115">
    <path clip-path="url(#p73e1efc492)" d="M 365.318497 318.04 
L 367.188169 318.04 
L 367.188169 318.04 
L 365.318497 318.04 
z
" style="fill:#1f77b4;"/>
   </g>
   <g id="patch_116">
    <path clip-path="url(#p73e1efc492)" d="M 367.188169 318.04 
L 369.057841 318.04 
L 369.057841 292.35665 
L 367.188169 292.35665 
z
" style="fill:#1f77b4;"/>
   </g>
   <g id="patch_117">
    <path clip-path="url(#p73e1efc492)" d="M 369.057841 318.04 
L 370.927513 318.04 
L 370.927513 318.04 
L 369.057841 318.04 
z
" style="fill:#1f77b4;"/>
   </g>
   <g id="patch_118">
    <path clip-path="url(#p73e1efc492)" d="M 370.927513 318.04 
L 372.797185 318.04 
L 372.797185 296.072262 
L 370.927513 296.072262 
z
" style="fill:#1f77b4;"/>
   </g>
   <g id="patch_119">
    <path clip-path="url(#p73e1efc492)" d="M 372.797185 318.04 
L 374.666857 318.04 
L 374.666857 318.04 
L 372.797185 318.04 
z
" style="fill:#1f77b4;"/>
   </g>
   <g id="patch_120">
    <path clip-path="url(#p73e1efc492)" d="M 374.666857 318.04 
L 376.536529 318.04 
L 376.536529 318.04 
L 374.666857 318.04 
z
" style="fill:#1f77b4;"/>
   </g>
   <g id="patch_121">
    <path clip-path="url(#p73e1efc492)" d="M 376.536529 318.04 
L 378.406201 318.04 
L 378.406201 298.810081 
L 376.536529 298.810081 
z
" style="fill:#1f77b4;"/>
   </g>
   <g id="patch_122">
    <path clip-path="url(#p73e1efc492)" d="M 378.406201 318.04 
L 380.275873 318.04 
L 380.275873 318.04 
L 378.406201 318.04 
z
" style="fill:#1f77b4;"/>
   </g>
   <g id="patch_123">
    <path clip-path="url(#p73e1efc492)" d="M 380.275873 318.04 
L 382.145545 318.04 
L 382.145545 298.549336 
L 380.275873 298.549336 
z
" style="fill:#1f77b4;"/>
   </g>
   <g id="patch_124">
    <path clip-path="url(#p73e1efc492)" d="M 382.145545 318.04 
L 384.015217 318.04 
L 384.015217 318.04 
L 382.145545 318.04 
z
" style="fill:#1f77b4;"/>
   </g>
   <g id="patch_125">
    <path clip-path="url(#p73e1efc492)" d="M 384.015217 318.04 
L 385.884889 318.04 
L 385.884889 297.96266 
L 384.015217 297.96266 
z
" style="fill:#1f77b4;"/>
   </g>
   <g id="patch_126">
    <path clip-path="url(#p73e1efc492)" d="M 385.884889 318.04 
L 387.75456 318.04 
L 387.75456 318.04 
L 385.884889 318.04 
z
" style="fill:#1f77b4;"/>
   </g>
   <g id="patch_127">
    <path clip-path="url(#p73e1efc492)" d="M 387.75456 318.04 
L 389.624232 318.04 
L 389.624232 300.309363 
L 387.75456 300.309363 
z
" style="fill:#1f77b4;"/>
   </g>
   <g id="patch_128">
    <path clip-path="url(#p73e1efc492)" d="M 389.624232 318.04 
L 391.493904 318.04 
L 391.493904 318.04 
L 389.624232 318.04 
z
" style="fill:#1f77b4;"/>
   </g>
   <g id="patch_129">
    <path clip-path="url(#p73e1efc492)" d="M 391.493904 318.04 
L 393.363576 318.04 
L 393.363576 318.04 
L 391.493904 318.04 
z
" style="fill:#1f77b4;"/>
   </g>
   <g id="patch_130">
    <path clip-path="url(#p73e1efc492)" d="M 393.363576 318.04 
L 395.233248 318.04 
L 395.233248 301.091597 
L 393.363576 301.091597 
z
" style="fill:#1f77b4;"/>
   </g>
   <g id="patch_131">
    <path clip-path="url(#p73e1efc492)" d="M 395.233248 318.04 
L 397.10292 318.04 
L 397.10292 318.04 
L 395.233248 318.04 
z
" style="fill:#1f77b4;"/>
   </g>
   <g id="patch_132">
    <path clip-path="url(#p73e1efc492)" d="M 397.10292 318.04 
L 398.972592 318.04 
L 398.972592 301.613086 
L 397.10292 301.613086 
z
" style="fill:#1f77b4;"/>
   </g>
   <g id="patch_133">
    <path clip-path="url(#p73e1efc492)" d="M 398.972592 318.04 
L 400.842264 318.04 
L 400.842264 318.04 
L 398.972592 318.04 
z
" style="fill:#1f77b4;"/>
   </g>
   <g id="patch_134">
    <path clip-path="url(#p73e1efc492)" d="M 400.842264 318.04 
L 402.711936 318.04 
L 402.711936 303.764229 
L 400.842264 303.764229 
z
" style="fill:#1f77b4;"/>
   </g>
   <g id="patch_135">
    <path clip-path="url(#p73e1efc492)" d="M 402.711936 318.04 
L 404.581608 318.04 
L 404.581608 318.04 
L 402.711936 318.04 
z
" style="fill:#1f77b4;"/>
   </g>
   <g id="patch_136">
    <path clip-path="url(#p73e1efc492)" d="M 404.581608 318.04 
L 406.45128 318.04 
L 406.45128 302.916809 
L 404.581608 302.916809 
z
" style="fill:#1f77b4;"/>
   </g>
   <g id="patch_137">
    <path clip-path="url(#p73e1efc492)" d="M 406.45128 318.04 
L 408.320952 318.04 
L 408.320952 318.04 
L 406.45128 318.04 
z
" style="fill:#1f77b4;"/>
   </g>
   <g id="patch_138">
    <path clip-path="url(#p73e1efc492)" d="M 408.320952 318.04 
L 410.190624 318.04 
L 410.190624 318.04 
L 408.320952 318.04 
z
" style="fill:#1f77b4;"/>
   </g>
   <g id="patch_139">
    <path clip-path="url(#p73e1efc492)" d="M 410.190624 318.04 
L 412.060296 318.04 
L 412.060296 307.088724 
L 410.190624 307.088724 
z
" style="fill:#1f77b4;"/>
   </g>
   <g id="patch_140">
    <path clip-path="url(#p73e1efc492)" d="M 412.060296 318.04 
L 413.929967 318.04 
L 413.929967 318.04 
L 412.060296 318.04 
z
" style="fill:#1f77b4;"/>
   </g>
   <g id="patch_141">
    <path clip-path="url(#p73e1efc492)" d="M 413.929967 318.04 
L 415.799639 318.04 
L 415.799639 304.220533 
L 413.929967 304.220533 
z
" style="fill:#1f77b4;"/>
   </g>
   <g id="patch_142">
    <path clip-path="url(#p73e1efc492)" d="M 415.799639 318.04 
L 417.669311 318.04 
L 417.669311 318.04 
L 415.799639 318.04 
z
" style="fill:#1f77b4;"/>
   </g>
   <g id="patch_143">
    <path clip-path="url(#p73e1efc492)" d="M 417.669311 318.04 
L 419.538983 318.04 
L 419.538983 306.762793 
L 417.669311 306.762793 
z
" style="fill:#1f77b4;"/>
   </g>
   <g id="patch_144">
    <path clip-path="url(#p73e1efc492)" d="M 419.538983 318.04 
L 421.408655 318.04 
L 421.408655 318.04 
L 419.538983 318.04 
z
" style="fill:#1f77b4;"/>
   </g>
   <g id="patch_145">
    <path clip-path="url(#p73e1efc492)" d="M 421.408655 318.04 
L 423.278327 318.04 
L 423.278327 318.04 
L 421.408655 318.04 
z
" style="fill:#1f77b4;"/>
   </g>
   <g id="patch_146">
    <path clip-path="url(#p73e1efc492)" d="M 423.278327 318.04 
L 425.147999 318.04 
L 425.147999 307.675399 
L 423.278327 307.675399 
z
" style="fill:#1f77b4;"/>
   </g>
   <g id="patch_147">
    <path clip-path="url(#p73e1efc492)" d="M 425.147999 318.04 
L 427.017671 318.04 
L 427.017671 318.04 
L 425.147999 318.04 
z
" style="fill:#1f77b4;"/>
   </g>
   <g id="patch_148">
    <path clip-path="url(#p73e1efc492)" d="M 427.017671 318.04 
L 428.887343 318.04 
L 428.887343 308.262075 
L 427.017671 308.262075 
z
" style="fill:#1f77b4;"/>
   </g>
   <g id="patch_149">
    <path clip-path="url(#p73e1efc492)" d="M 428.887343 318.04 
L 430.757015 318.04 
L 430.757015 318.04 
L 428.887343 318.04 
z
" style="fill:#1f77b4;"/>
   </g>
   <g id="patch_150">
    <path clip-path="url(#p73e1efc492)" d="M 430.757015 318.04 
L 432.626687 318.04 
L 432.626687 307.414655 
L 430.757015 307.414655 
z
" style="fill:#1f77b4;"/>
   </g>
   <g id="patch_151">
    <path clip-path="url(#p73e1efc492)" d="M 432.626687 318.04 
L 434.496359 318.04 
L 434.496359 318.04 
L 432.626687 318.04 
z
" style="fill:#1f77b4;"/>
   </g>
   <g id="patch_152">
    <path clip-path="url(#p73e1efc492)" d="M 434.496359 318.04 
L 436.366031 318.04 
L 436.366031 308.262075 
L 434.496359 308.262075 
z
" style="fill:#1f77b4;"/>
   </g>
   <g id="patch_153">
    <path clip-path="url(#p73e1efc492)" d="M 436.366031 318.04 
L 438.235702 318.04 
L 438.235702 318.04 
L 436.366031 318.04 
z
" style="fill:#1f77b4;"/>
   </g>
   <g id="patch_154">
    <path clip-path="url(#p73e1efc492)" d="M 438.235702 318.04 
L 440.105374 318.04 
L 440.105374 318.04 
L 438.235702 318.04 
z
" style="fill:#1f77b4;"/>
   </g>
   <g id="patch_155">
    <path clip-path="url(#p73e1efc492)" d="M 440.105374 318.04 
L 441.975046 318.04 
L 441.975046 309.956915 
L 440.105374 309.956915 
z
" style="fill:#1f77b4;"/>
   </g>
   <g id="patch_156">
    <path clip-path="url(#p73e1efc492)" d="M 441.975046 318.04 
L 443.844718 318.04 
L 443.844718 318.04 
L 441.975046 318.04 
z
" style="fill:#1f77b4;"/>
   </g>
   <g id="patch_157">
    <path clip-path="url(#p73e1efc492)" d="M 443.844718 318.04 
L 445.71439 318.04 
L 445.71439 309.305054 
L 443.844718 309.305054 
z
" style="fill:#1f77b4;"/>
   </g>
   <g id="patch_158">
    <path clip-path="url(#p73e1efc492)" d="M 445.71439 318.04 
L 447.584062 318.04 
L 447.584062 318.04 
L 445.71439 318.04 
z
" style="fill:#1f77b4;"/>
   </g>
   <g id="patch_159">
    <path clip-path="url(#p73e1efc492)" d="M 447.584062 318.04 
L 449.453734 318.04 
L 449.453734 312.108059 
L 447.584062 312.108059 
z
" style="fill:#1f77b4;"/>
   </g>
   <g id="patch_160">
    <path clip-path="url(#p73e1efc492)" d="M 449.453734 318.04 
L 451.323406 318.04 
L 451.323406 318.04 
L 449.453734 318.04 
z
" style="fill:#1f77b4;"/>
   </g>
   <g id="patch_161">
    <path clip-path="url(#p73e1efc492)" d="M 451.323406 318.04 
L 453.193078 318.04 
L 453.193078 311.847314 
L 451.323406 311.847314 
z
" style="fill:#1f77b4;"/>
   </g>
   <g id="patch_162">
    <path clip-path="url(#p73e1efc492)" d="M 453.193078 318.04 
L 455.06275 318.04 
L 455.06275 318.04 
L 453.193078 318.04 
z
" style="fill:#1f77b4;"/>
   </g>
   <g id="patch_163">
    <path clip-path="url(#p73e1efc492)" d="M 455.06275 318.04 
L 456.932422 318.04 
L 456.932422 318.04 
L 455.06275 318.04 
z
" style="fill:#1f77b4;"/>
   </g>
   <g id="patch_164">
    <path clip-path="url(#p73e1efc492)" d="M 456.932422 318.04 
L 458.802094 318.04 
L 458.802094 311.391011 
L 456.932422 311.391011 
z
" style="fill:#1f77b4;"/>
   </g>
   <g id="patch_165">
    <path clip-path="url(#p73e1efc492)" d="M 458.802094 318.04 
L 460.671766 318.04 
L 460.671766 318.04 
L 458.802094 318.04 
z
" style="fill:#1f77b4;"/>
   </g>
   <g id="patch_166">
    <path clip-path="url(#p73e1efc492)" d="M 460.671766 318.04 
L 462.541438 318.04 
L 462.541438 312.43399 
L 460.671766 312.43399 
z
" style="fill:#1f77b4;"/>
   </g>
   <g id="patch_167">
    <path clip-path="url(#p73e1efc492)" d="M 462.541438 318.04 
L 464.411109 318.04 
L 464.411109 318.04 
L 462.541438 318.04 
z
" style="fill:#1f77b4;"/>
   </g>
   <g id="patch_168">
    <path clip-path="url(#p73e1efc492)" d="M 464.411109 318.04 
L 466.280781 318.04 
L 466.280781 313.085851 
L 464.411109 313.085851 
z
" style="fill:#1f77b4;"/>
   </g>
   <g id="patch_169">
    <path clip-path="url(#p73e1efc492)" d="M 466.280781 318.04 
L 468.150453 318.04 
L 468.150453 318.04 
L 466.280781 318.04 
z
" style="fill:#1f77b4;"/>
   </g>
   <g id="patch_170">
    <path clip-path="url(#p73e1efc492)" d="M 468.150453 318.04 
L 470.020125 318.04 
L 470.020125 313.476968 
L 468.150453 313.476968 
z
" style="fill:#1f77b4;"/>
   </g>
   <g id="patch_171">
    <path clip-path="url(#p73e1efc492)" d="M 470.020125 318.04 
L 471.889797 318.04 
L 471.889797 318.04 
L 470.020125 318.04 
z
" style="fill:#1f77b4;"/>
   </g>
   <g id="patch_172">
    <path clip-path="url(#p73e1efc492)" d="M 471.889797 318.04 
L 473.759469 318.04 
L 473.759469 318.04 
L 471.889797 318.04 
z
" style="fill:#1f77b4;"/>
   </g>
   <g id="patch_173">
    <path clip-path="url(#p73e1efc492)" d="M 473.759469 318.04 
L 475.629141 318.04 
L 475.629141 313.998458 
L 473.759469 313.998458 
z
" style="fill:#1f77b4;"/>
   </g>
   <g id="patch_174">
    <path clip-path="url(#p73e1efc492)" d="M 475.629141 318.04 
L 477.498813 318.04 
L 477.498813 318.04 
L 475.629141 318.04 
z
" style="fill:#1f77b4;"/>
   </g>
   <g id="patch_175">
    <path clip-path="url(#p73e1efc492)" d="M 477.498813 318.04 
L 479.368485 318.04 
L 479.368485 313.542154 
L 477.498813 313.542154 
z
" style="fill:#1f77b4;"/>
   </g>
   <g id="matplotlib.axis_7">
    <g id="xtick_5">
     <g id="line2d_28">
      <g>
       <use style="stroke:#000000;stroke-width:0.8;" x="254.073018" xlink:href="#mf1ed474a2c" y="318.04"/>
      </g>
     </g>
     <g id="text_23">
      <!-- 0 -->
      <g transform="translate(250.891768 332.638438)scale(0.1 -0.1)">
       <use xlink:href="#DejaVuSans-30"/>
      </g>
     </g>
    </g>
    <g id="xtick_6">
     <g id="line2d_29">
      <g>
       <use style="stroke:#000000;stroke-width:0.8;" x="291.466456" xlink:href="#mf1ed474a2c" y="318.04"/>
      </g>
     </g>
     <g id="text_24">
      <!-- 20 -->
      <g transform="translate(285.103956 332.638438)scale(0.1 -0.1)">
       <use xlink:href="#DejaVuSans-32"/>
       <use x="63.623047" xlink:href="#DejaVuSans-30"/>
      </g>
     </g>
    </g>
    <g id="xtick_7">
     <g id="line2d_30">
      <g>
       <use style="stroke:#000000;stroke-width:0.8;" x="328.859895" xlink:href="#mf1ed474a2c" y="318.04"/>
      </g>
     </g>
     <g id="text_25">
      <!-- 40 -->
      <g transform="translate(322.497395 332.638438)scale(0.1 -0.1)">
       <use xlink:href="#DejaVuSans-34"/>
       <use x="63.623047" xlink:href="#DejaVuSans-30"/>
      </g>
     </g>
    </g>
    <g id="xtick_8">
     <g id="line2d_31">
      <g>
       <use style="stroke:#000000;stroke-width:0.8;" x="366.253333" xlink:href="#mf1ed474a2c" y="318.04"/>
      </g>
     </g>
     <g id="text_26">
      <!-- 60 -->
      <defs>
       <path d="M 33.015625 40.375 
Q 26.375 40.375 22.484375 35.828125 
Q 18.609375 31.296875 18.609375 23.390625 
Q 18.609375 15.53125 22.484375 10.953125 
Q 26.375 6.390625 33.015625 6.390625 
Q 39.65625 6.390625 43.53125 10.953125 
Q 47.40625 15.53125 47.40625 23.390625 
Q 47.40625 31.296875 43.53125 35.828125 
Q 39.65625 40.375 33.015625 40.375 
M 52.59375 71.296875 
L 52.59375 62.3125 
Q 48.875 64.0625 45.09375 64.984375 
Q 41.3125 65.921875 37.59375 65.921875 
Q 27.828125 65.921875 22.671875 59.328125 
Q 17.53125 52.734375 16.796875 39.40625 
Q 19.671875 43.65625 24.015625 45.921875 
Q 28.375 48.1875 33.59375 48.1875 
Q 44.578125 48.1875 50.953125 41.515625 
Q 57.328125 34.859375 57.328125 23.390625 
Q 57.328125 12.15625 50.6875 5.359375 
Q 44.046875 -1.421875 33.015625 -1.421875 
Q 20.359375 -1.421875 13.671875 8.265625 
Q 6.984375 17.96875 6.984375 36.375 
Q 6.984375 53.65625 15.1875 63.9375 
Q 23.390625 74.21875 37.203125 74.21875 
Q 40.921875 74.21875 44.703125 73.484375 
Q 48.484375 72.75 52.59375 71.296875 
" id="DejaVuSans-36"/>
      </defs>
      <g transform="translate(359.890833 332.638438)scale(0.1 -0.1)">
       <use xlink:href="#DejaVuSans-36"/>
       <use x="63.623047" xlink:href="#DejaVuSans-30"/>
      </g>
     </g>
    </g>
    <g id="xtick_9">
     <g id="line2d_32">
      <g>
       <use style="stroke:#000000;stroke-width:0.8;" x="403.646772" xlink:href="#mf1ed474a2c" y="318.04"/>
      </g>
     </g>
     <g id="text_27">
      <!-- 80 -->
      <defs>
       <path d="M 31.78125 34.625 
Q 24.75 34.625 20.71875 30.859375 
Q 16.703125 27.09375 16.703125 20.515625 
Q 16.703125 13.921875 20.71875 10.15625 
Q 24.75 6.390625 31.78125 6.390625 
Q 38.8125 6.390625 42.859375 10.171875 
Q 46.921875 13.96875 46.921875 20.515625 
Q 46.921875 27.09375 42.890625 30.859375 
Q 38.875 34.625 31.78125 34.625 
M 21.921875 38.8125 
Q 15.578125 40.375 12.03125 44.71875 
Q 8.5 49.078125 8.5 55.328125 
Q 8.5 64.0625 14.71875 69.140625 
Q 20.953125 74.21875 31.78125 74.21875 
Q 42.671875 74.21875 48.875 69.140625 
Q 55.078125 64.0625 55.078125 55.328125 
Q 55.078125 49.078125 51.53125 44.71875 
Q 48 40.375 41.703125 38.8125 
Q 48.828125 37.15625 52.796875 32.3125 
Q 56.78125 27.484375 56.78125 20.515625 
Q 56.78125 9.90625 50.3125 4.234375 
Q 43.84375 -1.421875 31.78125 -1.421875 
Q 19.734375 -1.421875 13.25 4.234375 
Q 6.78125 9.90625 6.78125 20.515625 
Q 6.78125 27.484375 10.78125 32.3125 
Q 14.796875 37.15625 21.921875 38.8125 
M 18.3125 54.390625 
Q 18.3125 48.734375 21.84375 45.5625 
Q 25.390625 42.390625 31.78125 42.390625 
Q 38.140625 42.390625 41.71875 45.5625 
Q 45.3125 48.734375 45.3125 54.390625 
Q 45.3125 60.0625 41.71875 63.234375 
Q 38.140625 66.40625 31.78125 66.40625 
Q 25.390625 66.40625 21.84375 63.234375 
Q 18.3125 60.0625 18.3125 54.390625 
" id="DejaVuSans-38"/>
      </defs>
      <g transform="translate(397.284272 332.638438)scale(0.1 -0.1)">
       <use xlink:href="#DejaVuSans-38"/>
       <use x="63.623047" xlink:href="#DejaVuSans-30"/>
      </g>
     </g>
    </g>
    <g id="xtick_10">
     <g id="line2d_33">
      <g>
       <use style="stroke:#000000;stroke-width:0.8;" x="441.04021" xlink:href="#mf1ed474a2c" y="318.04"/>
      </g>
     </g>
     <g id="text_28">
      <!-- 100 -->
      <g transform="translate(431.49646 332.638438)scale(0.1 -0.1)">
       <use xlink:href="#DejaVuSans-31"/>
       <use x="63.623047" xlink:href="#DejaVuSans-30"/>
       <use x="127.246094" xlink:href="#DejaVuSans-30"/>
      </g>
     </g>
    </g>
    <g id="xtick_11">
     <g id="line2d_34">
      <g>
       <use style="stroke:#000000;stroke-width:0.8;" x="478.433649" xlink:href="#mf1ed474a2c" y="318.04"/>
      </g>
     </g>
     <g id="text_29">
      <!-- 120 -->
      <g transform="translate(468.889899 332.638438)scale(0.1 -0.1)">
       <use xlink:href="#DejaVuSans-31"/>
       <use x="63.623047" xlink:href="#DejaVuSans-32"/>
       <use x="127.246094" xlink:href="#DejaVuSans-30"/>
      </g>
     </g>
    </g>
    <g id="text_30">
     <!-- counts [norm.] per Gene -->
     <g transform="translate(304.629115 346.316563)scale(0.1 -0.1)">
      <use xlink:href="#DejaVuSans-63"/>
      <use x="54.980469" xlink:href="#DejaVuSans-6f"/>
      <use x="116.162109" xlink:href="#DejaVuSans-75"/>
      <use x="179.541016" xlink:href="#DejaVuSans-6e"/>
      <use x="242.919922" xlink:href="#DejaVuSans-74"/>
      <use x="282.128906" xlink:href="#DejaVuSans-73"/>
      <use x="334.228516" xlink:href="#DejaVuSans-20"/>
      <use x="366.015625" xlink:href="#DejaVuSans-5b"/>
      <use x="405.029297" xlink:href="#DejaVuSans-6e"/>
      <use x="468.408203" xlink:href="#DejaVuSans-6f"/>
      <use x="529.589844" xlink:href="#DejaVuSans-72"/>
      <use x="570.6875" xlink:href="#DejaVuSans-6d"/>
      <use x="668.099609" xlink:href="#DejaVuSans-2e"/>
      <use x="699.886719" xlink:href="#DejaVuSans-5d"/>
      <use x="738.900391" xlink:href="#DejaVuSans-20"/>
      <use x="770.6875" xlink:href="#DejaVuSans-70"/>
      <use x="834.164062" xlink:href="#DejaVuSans-65"/>
      <use x="895.6875" xlink:href="#DejaVuSans-72"/>
      <use x="936.800781" xlink:href="#DejaVuSans-20"/>
      <use x="968.587891" xlink:href="#DejaVuSans-47"/>
      <use x="1046.078125" xlink:href="#DejaVuSans-65"/>
      <use x="1107.601562" xlink:href="#DejaVuSans-6e"/>
      <use x="1170.980469" xlink:href="#DejaVuSans-65"/>
     </g>
    </g>
   </g>
   <g id="matplotlib.axis_8">
    <g id="ytick_12">
     <g id="line2d_35">
      <g>
       <use style="stroke:#000000;stroke-width:0.8;" x="241.826667" xlink:href="#me21cdd7085" y="318.04"/>
      </g>
     </g>
     <g id="text_31">
      <!-- 0 -->
      <g transform="translate(228.464167 321.839219)scale(0.1 -0.1)">
       <use xlink:href="#DejaVuSans-30"/>
      </g>
     </g>
    </g>
    <g id="ytick_13">
     <g id="line2d_36">
      <g>
       <use style="stroke:#000000;stroke-width:0.8;" x="241.826667" xlink:href="#me21cdd7085" y="285.446916"/>
      </g>
     </g>
     <g id="text_32">
      <!-- 500 -->
      <g transform="translate(215.739167 289.246135)scale(0.1 -0.1)">
       <use xlink:href="#DejaVuSans-35"/>
       <use x="63.623047" xlink:href="#DejaVuSans-30"/>
       <use x="127.246094" xlink:href="#DejaVuSans-30"/>
      </g>
     </g>
    </g>
    <g id="ytick_14">
     <g id="line2d_37">
      <g>
       <use style="stroke:#000000;stroke-width:0.8;" x="241.826667" xlink:href="#me21cdd7085" y="252.853833"/>
      </g>
     </g>
     <g id="text_33">
      <!-- 1000 -->
      <g transform="translate(209.376667 256.653051)scale(0.1 -0.1)">
       <use xlink:href="#DejaVuSans-31"/>
       <use x="63.623047" xlink:href="#DejaVuSans-30"/>
       <use x="127.246094" xlink:href="#DejaVuSans-30"/>
       <use x="190.869141" xlink:href="#DejaVuSans-30"/>
      </g>
     </g>
    </g>
    <g id="ytick_15">
     <g id="line2d_38">
      <g>
       <use style="stroke:#000000;stroke-width:0.8;" x="241.826667" xlink:href="#me21cdd7085" y="220.260749"/>
      </g>
     </g>
     <g id="text_34">
      <!-- 1500 -->
      <g transform="translate(209.376667 224.059968)scale(0.1 -0.1)">
       <use xlink:href="#DejaVuSans-31"/>
       <use x="63.623047" xlink:href="#DejaVuSans-35"/>
       <use x="127.246094" xlink:href="#DejaVuSans-30"/>
       <use x="190.869141" xlink:href="#DejaVuSans-30"/>
      </g>
     </g>
    </g>
    <g id="text_35">
     <!-- Number of Genes -->
     <g transform="translate(203.296979 302.924375)rotate(-90)scale(0.1 -0.1)">
      <use xlink:href="#DejaVuSans-4e"/>
      <use x="74.804688" xlink:href="#DejaVuSans-75"/>
      <use x="138.183594" xlink:href="#DejaVuSans-6d"/>
      <use x="235.595703" xlink:href="#DejaVuSans-62"/>
      <use x="299.072266" xlink:href="#DejaVuSans-65"/>
      <use x="360.595703" xlink:href="#DejaVuSans-72"/>
      <use x="401.708984" xlink:href="#DejaVuSans-20"/>
      <use x="433.496094" xlink:href="#DejaVuSans-6f"/>
      <use x="494.677734" xlink:href="#DejaVuSans-66"/>
      <use x="529.882812" xlink:href="#DejaVuSans-20"/>
      <use x="561.669922" xlink:href="#DejaVuSans-47"/>
      <use x="639.160156" xlink:href="#DejaVuSans-65"/>
      <use x="700.683594" xlink:href="#DejaVuSans-6e"/>
      <use x="764.0625" xlink:href="#DejaVuSans-65"/>
      <use x="825.585938" xlink:href="#DejaVuSans-73"/>
     </g>
    </g>
   </g>
   <g id="patch_176">
    <path d="M 241.826667 318.04 
L 241.826667 200.04 
" style="fill:none;stroke:#000000;stroke-linecap:square;stroke-linejoin:miter;stroke-width:0.8;"/>
   </g>
   <g id="patch_177">
    <path d="M 490.68 318.04 
L 490.68 200.04 
" style="fill:none;stroke:#000000;stroke-linecap:square;stroke-linejoin:miter;stroke-width:0.8;"/>
   </g>
   <g id="patch_178">
    <path d="M 241.826667 318.04 
L 490.68 318.04 
" style="fill:none;stroke:#000000;stroke-linecap:square;stroke-linejoin:miter;stroke-width:0.8;"/>
   </g>
   <g id="patch_179">
    <path d="M 241.826667 200.04 
L 490.68 200.04 
" style="fill:none;stroke:#000000;stroke-linecap:square;stroke-linejoin:miter;stroke-width:0.8;"/>
   </g>
   <g id="text_36">
    <!-- Control_1 Read Distribution -->
    <g transform="translate(283.458021 194.04)scale(0.12 -0.12)">
     <use xlink:href="#DejaVuSans-43"/>
     <use x="69.824219" xlink:href="#DejaVuSans-6f"/>
     <use x="131.005859" xlink:href="#DejaVuSans-6e"/>
     <use x="194.384766" xlink:href="#DejaVuSans-74"/>
     <use x="233.59375" xlink:href="#DejaVuSans-72"/>
     <use x="274.675781" xlink:href="#DejaVuSans-6f"/>
     <use x="335.857422" xlink:href="#DejaVuSans-6c"/>
     <use x="363.640625" xlink:href="#DejaVuSans-5f"/>
     <use x="413.640625" xlink:href="#DejaVuSans-31"/>
     <use x="477.263672" xlink:href="#DejaVuSans-20"/>
     <use x="509.050781" xlink:href="#DejaVuSans-52"/>
     <use x="578.470703" xlink:href="#DejaVuSans-65"/>
     <use x="639.994141" xlink:href="#DejaVuSans-61"/>
     <use x="701.273438" xlink:href="#DejaVuSans-64"/>
     <use x="764.75" xlink:href="#DejaVuSans-20"/>
     <use x="796.537109" xlink:href="#DejaVuSans-44"/>
     <use x="873.539062" xlink:href="#DejaVuSans-69"/>
     <use x="901.322266" xlink:href="#DejaVuSans-73"/>
     <use x="953.421875" xlink:href="#DejaVuSans-74"/>
     <use x="992.630859" xlink:href="#DejaVuSans-72"/>
     <use x="1033.744141" xlink:href="#DejaVuSans-69"/>
     <use x="1061.527344" xlink:href="#DejaVuSans-62"/>
     <use x="1125.003906" xlink:href="#DejaVuSans-75"/>
     <use x="1188.382812" xlink:href="#DejaVuSans-74"/>
     <use x="1227.591797" xlink:href="#DejaVuSans-69"/>
     <use x="1255.375" xlink:href="#DejaVuSans-6f"/>
     <use x="1316.556641" xlink:href="#DejaVuSans-6e"/>
    </g>
   </g>
  </g>
 </g>
 <defs>
  <clipPath id="p071f4cbd7f">
   <rect height="118" width="124.426667" x="51.05" y="25.44"/>
  </clipPath>
  <clipPath id="p4382094c6d">
   <rect height="118" width="248.853333" x="241.826667" y="25.44"/>
  </clipPath>
  <clipPath id="pe6bbd7e3b1">
   <rect height="118" width="124.426667" x="51.05" y="200.04"/>
  </clipPath>
  <clipPath id="p73e1efc492">
   <rect height="118" width="248.853333" x="241.826667" y="200.04"/>
  </clipPath>
 </defs>
</svg>
