<?xml version="1.0" encoding="utf-8" standalone="no"?>
<!DOCTYPE svg PUBLIC "-//W3C//DTD SVG 1.1//EN"
  "http://www.w3.org/Graphics/SVG/1.1/DTD/svg11.dtd">
<!-- Created with matplotlib (http://matplotlib.org/) -->
<svg height="360pt" version="1.1" viewBox="0 0 504 360" width="504pt" xmlns="http://www.w3.org/2000/svg" xmlns:xlink="http://www.w3.org/1999/xlink">
 <defs>
  <style type="text/css">
*{stroke-linecap:butt;stroke-linejoin:round;}
  </style>
 </defs>
 <g id="figure_1">
  <g id="patch_1">
   <path d="M 0 360 
L 504 360 
L 504 0 
L 0 0 
z
" style="fill:#ffffff;"/>
  </g>
  <g id="axes_1">
   <g id="patch_2">
    <path d="M 62.57 143.44 
L 183.156667 143.44 
L 183.156667 25.44 
L 62.57 25.44 
z
" style="fill:#ffffff;"/>
   </g>
   <g id="matplotlib.axis_1"/>
   <g id="matplotlib.axis_2">
    <g id="ytick_1">
     <g id="line2d_1">
      <defs>
       <path d="M 0 0 
L -3.5 0 
" id="me9bac78135" style="stroke:#000000;stroke-width:0.8;"/>
      </defs>
      <g>
       <use style="stroke:#000000;stroke-width:0.8;" x="62.57" xlink:href="#me9bac78135" y="138.076364"/>
      </g>
     </g>
     <g id="text_1">
      <!-- −0.050 -->
      <defs>
       <path d="M 10.59375 35.5 
L 73.1875 35.5 
L 73.1875 27.203125 
L 10.59375 27.203125 
z
" id="DejaVuSans-2212"/>
       <path d="M 31.78125 66.40625 
Q 24.171875 66.40625 20.328125 58.90625 
Q 16.5 51.421875 16.5 36.375 
Q 16.5 21.390625 20.328125 13.890625 
Q 24.171875 6.390625 31.78125 6.390625 
Q 39.453125 6.390625 43.28125 13.890625 
Q 47.125 21.390625 47.125 36.375 
Q 47.125 51.421875 43.28125 58.90625 
Q 39.453125 66.40625 31.78125 66.40625 
M 31.78125 74.21875 
Q 44.046875 74.21875 50.515625 64.515625 
Q 56.984375 54.828125 56.984375 36.375 
Q 56.984375 17.96875 50.515625 8.265625 
Q 44.046875 -1.421875 31.78125 -1.421875 
Q 19.53125 -1.421875 13.0625 8.265625 
Q 6.59375 17.96875 6.59375 36.375 
Q 6.59375 54.828125 13.0625 64.515625 
Q 19.53125 74.21875 31.78125 74.21875 
" id="DejaVuSans-30"/>
       <path d="M 10.6875 12.40625 
L 21 12.40625 
L 21 0 
L 10.6875 0 
z
" id="DejaVuSans-2e"/>
       <path d="M 10.796875 72.90625 
L 49.515625 72.90625 
L 49.515625 64.59375 
L 19.828125 64.59375 
L 19.828125 46.734375 
Q 21.96875 47.46875 24.109375 47.828125 
Q 26.265625 48.1875 28.421875 48.1875 
Q 40.625 48.1875 47.75 41.5 
Q 54.890625 34.8125 54.890625 23.390625 
Q 54.890625 11.625 47.5625 5.09375 
Q 40.234375 -1.421875 26.90625 -1.421875 
Q 22.3125 -1.421875 17.546875 -0.640625 
Q 12.796875 0.140625 7.71875 1.703125 
L 7.71875 11.625 
Q 12.109375 9.234375 16.796875 8.0625 
Q 21.484375 6.890625 26.703125 6.890625 
Q 35.15625 6.890625 40.078125 11.328125 
Q 45.015625 15.765625 45.015625 23.390625 
Q 45.015625 31 40.078125 35.4375 
Q 35.15625 39.890625 26.703125 39.890625 
Q 22.75 39.890625 18.8125 39.015625 
Q 14.890625 38.140625 10.796875 36.28125 
z
" id="DejaVuSans-35"/>
      </defs>
      <g transform="translate(18.562188 141.875582)scale(0.1 -0.1)">
       <use xlink:href="#DejaVuSans-2212"/>
       <use x="83.789062" xlink:href="#DejaVuSans-30"/>
       <use x="147.412109" xlink:href="#DejaVuSans-2e"/>
       <use x="179.199219" xlink:href="#DejaVuSans-30"/>
       <use x="242.822266" xlink:href="#DejaVuSans-35"/>
       <use x="306.445312" xlink:href="#DejaVuSans-30"/>
      </g>
     </g>
    </g>
    <g id="ytick_2">
     <g id="line2d_2">
      <g>
       <use style="stroke:#000000;stroke-width:0.8;" x="62.57" xlink:href="#me9bac78135" y="111.258182"/>
      </g>
     </g>
     <g id="text_2">
      <!-- −0.025 -->
      <defs>
       <path d="M 19.1875 8.296875 
L 53.609375 8.296875 
L 53.609375 0 
L 7.328125 0 
L 7.328125 8.296875 
Q 12.9375 14.109375 22.625 23.890625 
Q 32.328125 33.6875 34.8125 36.53125 
Q 39.546875 41.84375 41.421875 45.53125 
Q 43.3125 49.21875 43.3125 52.78125 
Q 43.3125 58.59375 39.234375 62.25 
Q 35.15625 65.921875 28.609375 65.921875 
Q 23.96875 65.921875 18.8125 64.3125 
Q 13.671875 62.703125 7.8125 59.421875 
L 7.8125 69.390625 
Q 13.765625 71.78125 18.9375 73 
Q 24.125 74.21875 28.421875 74.21875 
Q 39.75 74.21875 46.484375 68.546875 
Q 53.21875 62.890625 53.21875 53.421875 
Q 53.21875 48.921875 51.53125 44.890625 
Q 49.859375 40.875 45.40625 35.40625 
Q 44.1875 33.984375 37.640625 27.21875 
Q 31.109375 20.453125 19.1875 8.296875 
" id="DejaVuSans-32"/>
      </defs>
      <g transform="translate(18.562188 115.057401)scale(0.1 -0.1)">
       <use xlink:href="#DejaVuSans-2212"/>
       <use x="83.789062" xlink:href="#DejaVuSans-30"/>
       <use x="147.412109" xlink:href="#DejaVuSans-2e"/>
       <use x="179.199219" xlink:href="#DejaVuSans-30"/>
       <use x="242.822266" xlink:href="#DejaVuSans-32"/>
       <use x="306.445312" xlink:href="#DejaVuSans-35"/>
      </g>
     </g>
    </g>
    <g id="ytick_3">
     <g id="line2d_3">
      <g>
       <use style="stroke:#000000;stroke-width:0.8;" x="62.57" xlink:href="#me9bac78135" y="84.44"/>
      </g>
     </g>
     <g id="text_3">
      <!-- 0.000 -->
      <g transform="translate(26.941875 88.239219)scale(0.1 -0.1)">
       <use xlink:href="#DejaVuSans-30"/>
       <use x="63.623047" xlink:href="#DejaVuSans-2e"/>
       <use x="95.410156" xlink:href="#DejaVuSans-30"/>
       <use x="159.033203" xlink:href="#DejaVuSans-30"/>
       <use x="222.65625" xlink:href="#DejaVuSans-30"/>
      </g>
     </g>
    </g>
    <g id="ytick_4">
     <g id="line2d_4">
      <g>
       <use style="stroke:#000000;stroke-width:0.8;" x="62.57" xlink:href="#me9bac78135" y="57.621818"/>
      </g>
     </g>
     <g id="text_4">
      <!-- 0.025 -->
      <g transform="translate(26.941875 61.421037)scale(0.1 -0.1)">
       <use xlink:href="#DejaVuSans-30"/>
       <use x="63.623047" xlink:href="#DejaVuSans-2e"/>
       <use x="95.410156" xlink:href="#DejaVuSans-30"/>
       <use x="159.033203" xlink:href="#DejaVuSans-32"/>
       <use x="222.65625" xlink:href="#DejaVuSans-35"/>
      </g>
     </g>
    </g>
    <g id="ytick_5">
     <g id="line2d_5">
      <g>
       <use style="stroke:#000000;stroke-width:0.8;" x="62.57" xlink:href="#me9bac78135" y="30.803636"/>
      </g>
     </g>
     <g id="text_5">
      <!-- 0.050 -->
      <g transform="translate(26.941875 34.602855)scale(0.1 -0.1)">
       <use xlink:href="#DejaVuSans-30"/>
       <use x="63.623047" xlink:href="#DejaVuSans-2e"/>
       <use x="95.410156" xlink:href="#DejaVuSans-30"/>
       <use x="159.033203" xlink:href="#DejaVuSans-35"/>
       <use x="222.65625" xlink:href="#DejaVuSans-30"/>
      </g>
     </g>
    </g>
    <g id="text_6">
     <!-- counts [norm.] -->
     <defs>
      <path d="M 48.78125 52.59375 
L 48.78125 44.1875 
Q 44.96875 46.296875 41.140625 47.34375 
Q 37.3125 48.390625 33.40625 48.390625 
Q 24.65625 48.390625 19.8125 42.84375 
Q 14.984375 37.3125 14.984375 27.296875 
Q 14.984375 17.28125 19.8125 11.734375 
Q 24.65625 6.203125 33.40625 6.203125 
Q 37.3125 6.203125 41.140625 7.25 
Q 44.96875 8.296875 48.78125 10.40625 
L 48.78125 2.09375 
Q 45.015625 0.34375 40.984375 -0.53125 
Q 36.96875 -1.421875 32.421875 -1.421875 
Q 20.0625 -1.421875 12.78125 6.34375 
Q 5.515625 14.109375 5.515625 27.296875 
Q 5.515625 40.671875 12.859375 48.328125 
Q 20.21875 56 33.015625 56 
Q 37.15625 56 41.109375 55.140625 
Q 45.0625 54.296875 48.78125 52.59375 
" id="DejaVuSans-63"/>
      <path d="M 30.609375 48.390625 
Q 23.390625 48.390625 19.1875 42.75 
Q 14.984375 37.109375 14.984375 27.296875 
Q 14.984375 17.484375 19.15625 11.84375 
Q 23.34375 6.203125 30.609375 6.203125 
Q 37.796875 6.203125 41.984375 11.859375 
Q 46.1875 17.53125 46.1875 27.296875 
Q 46.1875 37.015625 41.984375 42.703125 
Q 37.796875 48.390625 30.609375 48.390625 
M 30.609375 56 
Q 42.328125 56 49.015625 48.375 
Q 55.71875 40.765625 55.71875 27.296875 
Q 55.71875 13.875 49.015625 6.21875 
Q 42.328125 -1.421875 30.609375 -1.421875 
Q 18.84375 -1.421875 12.171875 6.21875 
Q 5.515625 13.875 5.515625 27.296875 
Q 5.515625 40.765625 12.171875 48.375 
Q 18.84375 56 30.609375 56 
" id="DejaVuSans-6f"/>
      <path d="M 8.5 21.578125 
L 8.5 54.6875 
L 17.484375 54.6875 
L 17.484375 21.921875 
Q 17.484375 14.15625 20.5 10.265625 
Q 23.53125 6.390625 29.59375 6.390625 
Q 36.859375 6.390625 41.078125 11.03125 
Q 45.3125 15.671875 45.3125 23.6875 
L 45.3125 54.6875 
L 54.296875 54.6875 
L 54.296875 0 
L 45.3125 0 
L 45.3125 8.40625 
Q 42.046875 3.421875 37.71875 1 
Q 33.40625 -1.421875 27.6875 -1.421875 
Q 18.265625 -1.421875 13.375 4.4375 
Q 8.5 10.296875 8.5 21.578125 
M 31.109375 56 
z
" id="DejaVuSans-75"/>
      <path d="M 54.890625 33.015625 
L 54.890625 0 
L 45.90625 0 
L 45.90625 32.71875 
Q 45.90625 40.484375 42.875 44.328125 
Q 39.84375 48.1875 33.796875 48.1875 
Q 26.515625 48.1875 22.3125 43.546875 
Q 18.109375 38.921875 18.109375 30.90625 
L 18.109375 0 
L 9.078125 0 
L 9.078125 54.6875 
L 18.109375 54.6875 
L 18.109375 46.1875 
Q 21.34375 51.125 25.703125 53.5625 
Q 30.078125 56 35.796875 56 
Q 45.21875 56 50.046875 50.171875 
Q 54.890625 44.34375 54.890625 33.015625 
" id="DejaVuSans-6e"/>
      <path d="M 18.3125 70.21875 
L 18.3125 54.6875 
L 36.8125 54.6875 
L 36.8125 47.703125 
L 18.3125 47.703125 
L 18.3125 18.015625 
Q 18.3125 11.328125 20.140625 9.421875 
Q 21.96875 7.515625 27.59375 7.515625 
L 36.8125 7.515625 
L 36.8125 0 
L 27.59375 0 
Q 17.1875 0 13.234375 3.875 
Q 9.28125 7.765625 9.28125 18.015625 
L 9.28125 47.703125 
L 2.6875 47.703125 
L 2.6875 54.6875 
L 9.28125 54.6875 
L 9.28125 70.21875 
z
" id="DejaVuSans-74"/>
      <path d="M 44.28125 53.078125 
L 44.28125 44.578125 
Q 40.484375 46.53125 36.375 47.5 
Q 32.28125 48.484375 27.875 48.484375 
Q 21.1875 48.484375 17.84375 46.4375 
Q 14.5 44.390625 14.5 40.28125 
Q 14.5 37.15625 16.890625 35.375 
Q 19.28125 33.59375 26.515625 31.984375 
L 29.59375 31.296875 
Q 39.15625 29.25 43.1875 25.515625 
Q 47.21875 21.78125 47.21875 15.09375 
Q 47.21875 7.46875 41.1875 3.015625 
Q 35.15625 -1.421875 24.609375 -1.421875 
Q 20.21875 -1.421875 15.453125 -0.5625 
Q 10.6875 0.296875 5.421875 2 
L 5.421875 11.28125 
Q 10.40625 8.6875 15.234375 7.390625 
Q 20.0625 6.109375 24.8125 6.109375 
Q 31.15625 6.109375 34.5625 8.28125 
Q 37.984375 10.453125 37.984375 14.40625 
Q 37.984375 18.0625 35.515625 20.015625 
Q 33.0625 21.96875 24.703125 23.78125 
L 21.578125 24.515625 
Q 13.234375 26.265625 9.515625 29.90625 
Q 5.8125 33.546875 5.8125 39.890625 
Q 5.8125 47.609375 11.28125 51.796875 
Q 16.75 56 26.8125 56 
Q 31.78125 56 36.171875 55.265625 
Q 40.578125 54.546875 44.28125 53.078125 
" id="DejaVuSans-73"/>
      <path id="DejaVuSans-20"/>
      <path d="M 8.59375 75.984375 
L 29.296875 75.984375 
L 29.296875 69 
L 17.578125 69 
L 17.578125 -6.203125 
L 29.296875 -6.203125 
L 29.296875 -13.1875 
L 8.59375 -13.1875 
z
" id="DejaVuSans-5b"/>
      <path d="M 41.109375 46.296875 
Q 39.59375 47.171875 37.8125 47.578125 
Q 36.03125 48 33.890625 48 
Q 26.265625 48 22.1875 43.046875 
Q 18.109375 38.09375 18.109375 28.8125 
L 18.109375 0 
L 9.078125 0 
L 9.078125 54.6875 
L 18.109375 54.6875 
L 18.109375 46.1875 
Q 20.953125 51.171875 25.484375 53.578125 
Q 30.03125 56 36.53125 56 
Q 37.453125 56 38.578125 55.875 
Q 39.703125 55.765625 41.0625 55.515625 
z
" id="DejaVuSans-72"/>
      <path d="M 52 44.1875 
Q 55.375 50.25 60.0625 53.125 
Q 64.75 56 71.09375 56 
Q 79.640625 56 84.28125 50.015625 
Q 88.921875 44.046875 88.921875 33.015625 
L 88.921875 0 
L 79.890625 0 
L 79.890625 32.71875 
Q 79.890625 40.578125 77.09375 44.375 
Q 74.3125 48.1875 68.609375 48.1875 
Q 61.625 48.1875 57.5625 43.546875 
Q 53.515625 38.921875 53.515625 30.90625 
L 53.515625 0 
L 44.484375 0 
L 44.484375 32.71875 
Q 44.484375 40.625 41.703125 44.40625 
Q 38.921875 48.1875 33.109375 48.1875 
Q 26.21875 48.1875 22.15625 43.53125 
Q 18.109375 38.875 18.109375 30.90625 
L 18.109375 0 
L 9.078125 0 
L 9.078125 54.6875 
L 18.109375 54.6875 
L 18.109375 46.1875 
Q 21.1875 51.21875 25.484375 53.609375 
Q 29.78125 56 35.6875 56 
Q 41.65625 56 45.828125 52.96875 
Q 50 49.953125 52 44.1875 
" id="DejaVuSans-6d"/>
      <path d="M 30.421875 75.984375 
L 30.421875 -13.1875 
L 9.71875 -13.1875 
L 9.71875 -6.203125 
L 21.390625 -6.203125 
L 21.390625 69 
L 9.71875 69 
L 9.71875 75.984375 
z
" id="DejaVuSans-5d"/>
     </defs>
     <g transform="translate(12.4825 121.38375)rotate(-90)scale(0.1 -0.1)">
      <use xlink:href="#DejaVuSans-63"/>
      <use x="54.980469" xlink:href="#DejaVuSans-6f"/>
      <use x="116.162109" xlink:href="#DejaVuSans-75"/>
      <use x="179.541016" xlink:href="#DejaVuSans-6e"/>
      <use x="242.919922" xlink:href="#DejaVuSans-74"/>
      <use x="282.128906" xlink:href="#DejaVuSans-73"/>
      <use x="334.228516" xlink:href="#DejaVuSans-20"/>
      <use x="366.015625" xlink:href="#DejaVuSans-5b"/>
      <use x="405.029297" xlink:href="#DejaVuSans-6e"/>
      <use x="468.408203" xlink:href="#DejaVuSans-6f"/>
      <use x="529.589844" xlink:href="#DejaVuSans-72"/>
      <use x="570.6875" xlink:href="#DejaVuSans-6d"/>
      <use x="668.099609" xlink:href="#DejaVuSans-2e"/>
      <use x="699.886719" xlink:href="#DejaVuSans-5d"/>
     </g>
    </g>
   </g>
   <g id="line2d_6">
    <path clip-path="url(#p906fad4b37)" d="M 113.819333 84.44 
L 131.907333 84.44 
L 131.907333 84.44 
L 113.819333 84.44 
L 113.819333 84.44 
" style="fill:none;stroke:#000000;stroke-linecap:square;"/>
   </g>
   <g id="line2d_7">
    <path clip-path="url(#p906fad4b37)" d="M 122.863333 84.44 
L 122.863333 84.44 
" style="fill:none;stroke:#000000;stroke-linecap:square;"/>
   </g>
   <g id="line2d_8">
    <path clip-path="url(#p906fad4b37)" d="M 122.863333 84.44 
L 122.863333 84.44 
" style="fill:none;stroke:#000000;stroke-linecap:square;"/>
   </g>
   <g id="line2d_9">
    <path clip-path="url(#p906fad4b37)" d="M 118.341333 84.44 
L 127.385333 84.44 
" style="fill:none;stroke:#000000;stroke-linecap:square;"/>
   </g>
   <g id="line2d_10">
    <path clip-path="url(#p906fad4b37)" d="M 118.341333 84.44 
L 127.385333 84.44 
" style="fill:none;stroke:#000000;stroke-linecap:square;"/>
   </g>
   <g id="line2d_11">
    <path clip-path="url(#p906fad4b37)" d="M 113.819333 84.44 
L 131.907333 84.44 
" style="fill:none;stroke:#ff7f0e;stroke-linecap:square;"/>
   </g>
   <g id="patch_3">
    <path d="M 62.57 143.44 
L 62.57 25.44 
" style="fill:none;stroke:#000000;stroke-linecap:square;stroke-linejoin:miter;stroke-width:0.8;"/>
   </g>
   <g id="patch_4">
    <path d="M 183.156667 143.44 
L 183.156667 25.44 
" style="fill:none;stroke:#000000;stroke-linecap:square;stroke-linejoin:miter;stroke-width:0.8;"/>
   </g>
   <g id="patch_5">
    <path d="M 62.57 143.44 
L 183.156667 143.44 
" style="fill:none;stroke:#000000;stroke-linecap:square;stroke-linejoin:miter;stroke-width:0.8;"/>
   </g>
   <g id="patch_6">
    <path d="M 62.57 25.44 
L 183.156667 25.44 
" style="fill:none;stroke:#000000;stroke-linecap:square;stroke-linejoin:miter;stroke-width:0.8;"/>
   </g>
   <g id="text_7">
    <!-- Reads per sgRNA -->
    <defs>
     <path d="M 44.390625 34.1875 
Q 47.5625 33.109375 50.5625 29.59375 
Q 53.5625 26.078125 56.59375 19.921875 
L 66.609375 0 
L 56 0 
L 46.6875 18.703125 
Q 43.0625 26.03125 39.671875 28.421875 
Q 36.28125 30.8125 30.421875 30.8125 
L 19.671875 30.8125 
L 19.671875 0 
L 9.8125 0 
L 9.8125 72.90625 
L 32.078125 72.90625 
Q 44.578125 72.90625 50.734375 67.671875 
Q 56.890625 62.453125 56.890625 51.90625 
Q 56.890625 45.015625 53.6875 40.46875 
Q 50.484375 35.9375 44.390625 34.1875 
M 19.671875 64.796875 
L 19.671875 38.921875 
L 32.078125 38.921875 
Q 39.203125 38.921875 42.84375 42.21875 
Q 46.484375 45.515625 46.484375 51.90625 
Q 46.484375 58.296875 42.84375 61.546875 
Q 39.203125 64.796875 32.078125 64.796875 
z
" id="DejaVuSans-52"/>
     <path d="M 56.203125 29.59375 
L 56.203125 25.203125 
L 14.890625 25.203125 
Q 15.484375 15.921875 20.484375 11.0625 
Q 25.484375 6.203125 34.421875 6.203125 
Q 39.59375 6.203125 44.453125 7.46875 
Q 49.3125 8.734375 54.109375 11.28125 
L 54.109375 2.78125 
Q 49.265625 0.734375 44.1875 -0.34375 
Q 39.109375 -1.421875 33.890625 -1.421875 
Q 20.796875 -1.421875 13.15625 6.1875 
Q 5.515625 13.8125 5.515625 26.8125 
Q 5.515625 40.234375 12.765625 48.109375 
Q 20.015625 56 32.328125 56 
Q 43.359375 56 49.78125 48.890625 
Q 56.203125 41.796875 56.203125 29.59375 
M 47.21875 32.234375 
Q 47.125 39.59375 43.09375 43.984375 
Q 39.0625 48.390625 32.421875 48.390625 
Q 24.90625 48.390625 20.390625 44.140625 
Q 15.875 39.890625 15.1875 32.171875 
z
" id="DejaVuSans-65"/>
     <path d="M 34.28125 27.484375 
Q 23.390625 27.484375 19.1875 25 
Q 14.984375 22.515625 14.984375 16.5 
Q 14.984375 11.71875 18.140625 8.90625 
Q 21.296875 6.109375 26.703125 6.109375 
Q 34.1875 6.109375 38.703125 11.40625 
Q 43.21875 16.703125 43.21875 25.484375 
L 43.21875 27.484375 
z
M 52.203125 31.203125 
L 52.203125 0 
L 43.21875 0 
L 43.21875 8.296875 
Q 40.140625 3.328125 35.546875 0.953125 
Q 30.953125 -1.421875 24.3125 -1.421875 
Q 15.921875 -1.421875 10.953125 3.296875 
Q 6 8.015625 6 15.921875 
Q 6 25.140625 12.171875 29.828125 
Q 18.359375 34.515625 30.609375 34.515625 
L 43.21875 34.515625 
L 43.21875 35.40625 
Q 43.21875 41.609375 39.140625 45 
Q 35.0625 48.390625 27.6875 48.390625 
Q 23 48.390625 18.546875 47.265625 
Q 14.109375 46.140625 10.015625 43.890625 
L 10.015625 52.203125 
Q 14.9375 54.109375 19.578125 55.046875 
Q 24.21875 56 28.609375 56 
Q 40.484375 56 46.34375 49.84375 
Q 52.203125 43.703125 52.203125 31.203125 
" id="DejaVuSans-61"/>
     <path d="M 45.40625 46.390625 
L 45.40625 75.984375 
L 54.390625 75.984375 
L 54.390625 0 
L 45.40625 0 
L 45.40625 8.203125 
Q 42.578125 3.328125 38.25 0.953125 
Q 33.9375 -1.421875 27.875 -1.421875 
Q 17.96875 -1.421875 11.734375 6.484375 
Q 5.515625 14.40625 5.515625 27.296875 
Q 5.515625 40.1875 11.734375 48.09375 
Q 17.96875 56 27.875 56 
Q 33.9375 56 38.25 53.625 
Q 42.578125 51.265625 45.40625 46.390625 
M 14.796875 27.296875 
Q 14.796875 17.390625 18.875 11.75 
Q 22.953125 6.109375 30.078125 6.109375 
Q 37.203125 6.109375 41.296875 11.75 
Q 45.40625 17.390625 45.40625 27.296875 
Q 45.40625 37.203125 41.296875 42.84375 
Q 37.203125 48.484375 30.078125 48.484375 
Q 22.953125 48.484375 18.875 42.84375 
Q 14.796875 37.203125 14.796875 27.296875 
" id="DejaVuSans-64"/>
     <path d="M 18.109375 8.203125 
L 18.109375 -20.796875 
L 9.078125 -20.796875 
L 9.078125 54.6875 
L 18.109375 54.6875 
L 18.109375 46.390625 
Q 20.953125 51.265625 25.265625 53.625 
Q 29.59375 56 35.59375 56 
Q 45.5625 56 51.78125 48.09375 
Q 58.015625 40.1875 58.015625 27.296875 
Q 58.015625 14.40625 51.78125 6.484375 
Q 45.5625 -1.421875 35.59375 -1.421875 
Q 29.59375 -1.421875 25.265625 0.953125 
Q 20.953125 3.328125 18.109375 8.203125 
M 48.6875 27.296875 
Q 48.6875 37.203125 44.609375 42.84375 
Q 40.53125 48.484375 33.40625 48.484375 
Q 26.265625 48.484375 22.1875 42.84375 
Q 18.109375 37.203125 18.109375 27.296875 
Q 18.109375 17.390625 22.1875 11.75 
Q 26.265625 6.109375 33.40625 6.109375 
Q 40.53125 6.109375 44.609375 11.75 
Q 48.6875 17.390625 48.6875 27.296875 
" id="DejaVuSans-70"/>
     <path d="M 45.40625 27.984375 
Q 45.40625 37.75 41.375 43.109375 
Q 37.359375 48.484375 30.078125 48.484375 
Q 22.859375 48.484375 18.828125 43.109375 
Q 14.796875 37.75 14.796875 27.984375 
Q 14.796875 18.265625 18.828125 12.890625 
Q 22.859375 7.515625 30.078125 7.515625 
Q 37.359375 7.515625 41.375 12.890625 
Q 45.40625 18.265625 45.40625 27.984375 
M 54.390625 6.78125 
Q 54.390625 -7.171875 48.1875 -13.984375 
Q 42 -20.796875 29.203125 -20.796875 
Q 24.46875 -20.796875 20.265625 -20.09375 
Q 16.0625 -19.390625 12.109375 -17.921875 
L 12.109375 -9.1875 
Q 16.0625 -11.328125 19.921875 -12.34375 
Q 23.78125 -13.375 27.78125 -13.375 
Q 36.625 -13.375 41.015625 -8.765625 
Q 45.40625 -4.15625 45.40625 5.171875 
L 45.40625 9.625 
Q 42.625 4.78125 38.28125 2.390625 
Q 33.9375 0 27.875 0 
Q 17.828125 0 11.671875 7.65625 
Q 5.515625 15.328125 5.515625 27.984375 
Q 5.515625 40.671875 11.671875 48.328125 
Q 17.828125 56 27.875 56 
Q 33.9375 56 38.28125 53.609375 
Q 42.625 51.21875 45.40625 46.390625 
L 45.40625 54.6875 
L 54.390625 54.6875 
z
" id="DejaVuSans-67"/>
     <path d="M 9.8125 72.90625 
L 23.09375 72.90625 
L 55.421875 11.921875 
L 55.421875 72.90625 
L 64.984375 72.90625 
L 64.984375 0 
L 51.703125 0 
L 19.390625 60.984375 
L 19.390625 0 
L 9.8125 0 
z
" id="DejaVuSans-4e"/>
     <path d="M 34.1875 63.1875 
L 20.796875 26.90625 
L 47.609375 26.90625 
z
M 28.609375 72.90625 
L 39.796875 72.90625 
L 67.578125 0 
L 57.328125 0 
L 50.6875 18.703125 
L 17.828125 18.703125 
L 11.1875 0 
L 0.78125 0 
z
" id="DejaVuSans-41"/>
    </defs>
    <g transform="translate(70.916458 19.44)scale(0.12 -0.12)">
     <use xlink:href="#DejaVuSans-52"/>
     <use x="69.419922" xlink:href="#DejaVuSans-65"/>
     <use x="130.943359" xlink:href="#DejaVuSans-61"/>
     <use x="192.222656" xlink:href="#DejaVuSans-64"/>
     <use x="255.699219" xlink:href="#DejaVuSans-73"/>
     <use x="307.798828" xlink:href="#DejaVuSans-20"/>
     <use x="339.585938" xlink:href="#DejaVuSans-70"/>
     <use x="403.0625" xlink:href="#DejaVuSans-65"/>
     <use x="464.585938" xlink:href="#DejaVuSans-72"/>
     <use x="505.699219" xlink:href="#DejaVuSans-20"/>
     <use x="537.486328" xlink:href="#DejaVuSans-73"/>
     <use x="589.585938" xlink:href="#DejaVuSans-67"/>
     <use x="653.0625" xlink:href="#DejaVuSans-52"/>
     <use x="722.544922" xlink:href="#DejaVuSans-4e"/>
     <use x="797.349609" xlink:href="#DejaVuSans-41"/>
    </g>
   </g>
  </g>
  <g id="axes_2">
   <g id="patch_7">
    <path d="M 249.506667 143.44 
L 490.68 143.44 
L 490.68 25.44 
L 249.506667 25.44 
z
" style="fill:#ffffff;"/>
   </g>
   <g id="patch_8">
    <path clip-path="url(#peca218bc80)" d="M 260.469091 143.44 
L 265.950303 143.44 
L 265.950303 31.059048 
L 260.469091 31.059048 
z
" style="fill:#1f77b4;"/>
   </g>
   <g id="patch_9">
    <path clip-path="url(#peca218bc80)" d="M 265.950303 143.44 
L 271.431515 143.44 
L 271.431515 143.44 
L 265.950303 143.44 
z
" style="fill:#1f77b4;"/>
   </g>
   <g id="patch_10">
    <path clip-path="url(#peca218bc80)" d="M 271.431515 143.44 
L 276.912727 143.44 
L 276.912727 133.545933 
L 271.431515 133.545933 
z
" style="fill:#1f77b4;"/>
   </g>
   <g id="patch_11">
    <path clip-path="url(#peca218bc80)" d="M 276.912727 143.44 
L 282.393939 143.44 
L 282.393939 143.44 
L 276.912727 143.44 
z
" style="fill:#1f77b4;"/>
   </g>
   <g id="patch_12">
    <path clip-path="url(#peca218bc80)" d="M 282.393939 143.44 
L 287.875152 143.44 
L 287.875152 143.44 
L 282.393939 143.44 
z
" style="fill:#1f77b4;"/>
   </g>
   <g id="patch_13">
    <path clip-path="url(#peca218bc80)" d="M 287.875152 143.44 
L 293.356364 143.44 
L 293.356364 139.528613 
L 287.875152 139.528613 
z
" style="fill:#1f77b4;"/>
   </g>
   <g id="patch_14">
    <path clip-path="url(#peca218bc80)" d="M 293.356364 143.44 
L 298.837576 143.44 
L 298.837576 143.44 
L 293.356364 143.44 
z
" style="fill:#1f77b4;"/>
   </g>
   <g id="patch_15">
    <path clip-path="url(#peca218bc80)" d="M 298.837576 143.44 
L 304.318788 143.44 
L 304.318788 140.943067 
L 298.837576 140.943067 
z
" style="fill:#1f77b4;"/>
   </g>
   <g id="patch_16">
    <path clip-path="url(#peca218bc80)" d="M 304.318788 143.44 
L 309.8 143.44 
L 309.8 143.44 
L 304.318788 143.44 
z
" style="fill:#1f77b4;"/>
   </g>
   <g id="patch_17">
    <path clip-path="url(#peca218bc80)" d="M 309.8 143.44 
L 315.281212 143.44 
L 315.281212 141.642588 
L 309.8 141.642588 
z
" style="fill:#1f77b4;"/>
   </g>
   <g id="patch_18">
    <path clip-path="url(#peca218bc80)" d="M 315.281212 143.44 
L 320.762424 143.44 
L 320.762424 143.44 
L 315.281212 143.44 
z
" style="fill:#1f77b4;"/>
   </g>
   <g id="patch_19">
    <path clip-path="url(#peca218bc80)" d="M 320.762424 143.44 
L 326.243636 143.44 
L 326.243636 142.042144 
L 320.762424 142.042144 
z
" style="fill:#1f77b4;"/>
   </g>
   <g id="patch_20">
    <path clip-path="url(#peca218bc80)" d="M 326.243636 143.44 
L 331.724848 143.44 
L 331.724848 143.44 
L 326.243636 143.44 
z
" style="fill:#1f77b4;"/>
   </g>
   <g id="patch_21">
    <path clip-path="url(#peca218bc80)" d="M 331.724848 143.44 
L 337.206061 143.44 
L 337.206061 143.44 
L 331.724848 143.44 
z
" style="fill:#1f77b4;"/>
   </g>
   <g id="patch_22">
    <path clip-path="url(#peca218bc80)" d="M 337.206061 143.44 
L 342.687273 143.44 
L 342.687273 142.299426 
L 337.206061 142.299426 
z
" style="fill:#1f77b4;"/>
   </g>
   <g id="patch_23">
    <path clip-path="url(#peca218bc80)" d="M 342.687273 143.44 
L 348.168485 143.44 
L 348.168485 143.44 
L 342.687273 143.44 
z
" style="fill:#1f77b4;"/>
   </g>
   <g id="patch_24">
    <path clip-path="url(#peca218bc80)" d="M 348.168485 143.44 
L 353.649697 143.44 
L 353.649697 142.53418 
L 348.168485 142.53418 
z
" style="fill:#1f77b4;"/>
   </g>
   <g id="patch_25">
    <path clip-path="url(#peca218bc80)" d="M 353.649697 143.44 
L 359.130909 143.44 
L 359.130909 143.44 
L 353.649697 143.44 
z
" style="fill:#1f77b4;"/>
   </g>
   <g id="patch_26">
    <path clip-path="url(#peca218bc80)" d="M 359.130909 143.44 
L 364.612121 143.44 
L 364.612121 142.665785 
L 359.130909 142.665785 
z
" style="fill:#1f77b4;"/>
   </g>
   <g id="patch_27">
    <path clip-path="url(#peca218bc80)" d="M 364.612121 143.44 
L 370.093333 143.44 
L 370.093333 143.44 
L 364.612121 143.44 
z
" style="fill:#1f77b4;"/>
   </g>
   <g id="patch_28">
    <path clip-path="url(#peca218bc80)" d="M 370.093333 143.44 
L 375.574545 143.44 
L 375.574545 142.739294 
L 370.093333 142.739294 
z
" style="fill:#1f77b4;"/>
   </g>
   <g id="patch_29">
    <path clip-path="url(#peca218bc80)" d="M 375.574545 143.44 
L 381.055758 143.44 
L 381.055758 143.44 
L 375.574545 143.44 
z
" style="fill:#1f77b4;"/>
   </g>
   <g id="patch_30">
    <path clip-path="url(#peca218bc80)" d="M 381.055758 143.44 
L 386.53697 143.44 
L 386.53697 143.44 
L 381.055758 143.44 
z
" style="fill:#1f77b4;"/>
   </g>
   <g id="patch_31">
    <path clip-path="url(#peca218bc80)" d="M 386.53697 143.44 
L 392.018182 143.44 
L 392.018182 142.746408 
L 386.53697 142.746408 
z
" style="fill:#1f77b4;"/>
   </g>
   <g id="patch_32">
    <path clip-path="url(#peca218bc80)" d="M 392.018182 143.44 
L 397.499394 143.44 
L 397.499394 143.44 
L 392.018182 143.44 
z
" style="fill:#1f77b4;"/>
   </g>
   <g id="patch_33">
    <path clip-path="url(#peca218bc80)" d="M 397.499394 143.44 
L 402.980606 143.44 
L 402.980606 142.857857 
L 397.499394 142.857857 
z
" style="fill:#1f77b4;"/>
   </g>
   <g id="patch_34">
    <path clip-path="url(#peca218bc80)" d="M 402.980606 143.44 
L 408.461818 143.44 
L 408.461818 143.44 
L 402.980606 143.44 
z
" style="fill:#1f77b4;"/>
   </g>
   <g id="patch_35">
    <path clip-path="url(#peca218bc80)" d="M 408.461818 143.44 
L 413.94303 143.44 
L 413.94303 142.96812 
L 408.461818 142.96812 
z
" style="fill:#1f77b4;"/>
   </g>
   <g id="patch_36">
    <path clip-path="url(#peca218bc80)" d="M 413.94303 143.44 
L 419.424242 143.44 
L 419.424242 143.44 
L 413.94303 143.44 
z
" style="fill:#1f77b4;"/>
   </g>
   <g id="patch_37">
    <path clip-path="url(#peca218bc80)" d="M 419.424242 143.44 
L 424.905455 143.44 
L 424.905455 142.978791 
L 419.424242 142.978791 
z
" style="fill:#1f77b4;"/>
   </g>
   <g id="patch_38">
    <path clip-path="url(#peca218bc80)" d="M 424.905455 143.44 
L 430.386667 143.44 
L 430.386667 143.44 
L 424.905455 143.44 
z
" style="fill:#1f77b4;"/>
   </g>
   <g id="patch_39">
    <path clip-path="url(#peca218bc80)" d="M 430.386667 143.44 
L 435.867879 143.44 
L 435.867879 143.44 
L 430.386667 143.44 
z
" style="fill:#1f77b4;"/>
   </g>
   <g id="patch_40">
    <path clip-path="url(#peca218bc80)" d="M 435.867879 143.44 
L 441.349091 143.44 
L 441.349091 143.041629 
L 435.867879 143.041629 
z
" style="fill:#1f77b4;"/>
   </g>
   <g id="patch_41">
    <path clip-path="url(#peca218bc80)" d="M 441.349091 143.44 
L 446.830303 143.44 
L 446.830303 143.44 
L 441.349091 143.44 
z
" style="fill:#1f77b4;"/>
   </g>
   <g id="patch_42">
    <path clip-path="url(#peca218bc80)" d="M 446.830303 143.44 
L 452.311515 143.44 
L 452.311515 143.048743 
L 446.830303 143.048743 
z
" style="fill:#1f77b4;"/>
   </g>
   <g id="patch_43">
    <path clip-path="url(#peca218bc80)" d="M 452.311515 143.44 
L 457.792727 143.44 
L 457.792727 143.44 
L 452.311515 143.44 
z
" style="fill:#1f77b4;"/>
   </g>
   <g id="patch_44">
    <path clip-path="url(#peca218bc80)" d="M 457.792727 143.44 
L 463.273939 143.44 
L 463.273939 143.129365 
L 457.792727 143.129365 
z
" style="fill:#1f77b4;"/>
   </g>
   <g id="patch_45">
    <path clip-path="url(#peca218bc80)" d="M 463.273939 143.44 
L 468.755152 143.44 
L 468.755152 143.44 
L 463.273939 143.44 
z
" style="fill:#1f77b4;"/>
   </g>
   <g id="patch_46">
    <path clip-path="url(#peca218bc80)" d="M 468.755152 143.44 
L 474.236364 143.44 
L 474.236364 143.44 
L 468.755152 143.44 
z
" style="fill:#1f77b4;"/>
   </g>
   <g id="patch_47">
    <path clip-path="url(#peca218bc80)" d="M 474.236364 143.44 
L 479.717576 143.44 
L 479.717576 143.089054 
L 474.236364 143.089054 
z
" style="fill:#1f77b4;"/>
   </g>
   <g id="matplotlib.axis_3">
    <g id="xtick_1">
     <g id="line2d_12">
      <defs>
       <path d="M 0 0 
L 0 3.5 
" id="m1c51306585" style="stroke:#000000;stroke-width:0.8;"/>
      </defs>
      <g>
       <use style="stroke:#000000;stroke-width:0.8;" x="263.209697" xlink:href="#m1c51306585" y="143.44"/>
      </g>
     </g>
     <g id="text_8">
      <!-- 0 -->
      <g transform="translate(260.028447 158.038438)scale(0.1 -0.1)">
       <use xlink:href="#DejaVuSans-30"/>
      </g>
     </g>
    </g>
    <g id="xtick_2">
     <g id="line2d_13">
      <g>
       <use style="stroke:#000000;stroke-width:0.8;" x="318.021818" xlink:href="#m1c51306585" y="143.44"/>
      </g>
     </g>
     <g id="text_9">
      <!-- 10 -->
      <defs>
       <path d="M 12.40625 8.296875 
L 28.515625 8.296875 
L 28.515625 63.921875 
L 10.984375 60.40625 
L 10.984375 69.390625 
L 28.421875 72.90625 
L 38.28125 72.90625 
L 38.28125 8.296875 
L 54.390625 8.296875 
L 54.390625 0 
L 12.40625 0 
z
" id="DejaVuSans-31"/>
      </defs>
      <g transform="translate(311.659318 158.038438)scale(0.1 -0.1)">
       <use xlink:href="#DejaVuSans-31"/>
       <use x="63.623047" xlink:href="#DejaVuSans-30"/>
      </g>
     </g>
    </g>
    <g id="xtick_3">
     <g id="line2d_14">
      <g>
       <use style="stroke:#000000;stroke-width:0.8;" x="372.833939" xlink:href="#m1c51306585" y="143.44"/>
      </g>
     </g>
     <g id="text_10">
      <!-- 20 -->
      <g transform="translate(366.471439 158.038438)scale(0.1 -0.1)">
       <use xlink:href="#DejaVuSans-32"/>
       <use x="63.623047" xlink:href="#DejaVuSans-30"/>
      </g>
     </g>
    </g>
    <g id="xtick_4">
     <g id="line2d_15">
      <g>
       <use style="stroke:#000000;stroke-width:0.8;" x="427.646061" xlink:href="#m1c51306585" y="143.44"/>
      </g>
     </g>
     <g id="text_11">
      <!-- 30 -->
      <defs>
       <path d="M 40.578125 39.3125 
Q 47.65625 37.796875 51.625 33 
Q 55.609375 28.21875 55.609375 21.1875 
Q 55.609375 10.40625 48.1875 4.484375 
Q 40.765625 -1.421875 27.09375 -1.421875 
Q 22.515625 -1.421875 17.65625 -0.515625 
Q 12.796875 0.390625 7.625 2.203125 
L 7.625 11.71875 
Q 11.71875 9.328125 16.59375 8.109375 
Q 21.484375 6.890625 26.8125 6.890625 
Q 36.078125 6.890625 40.9375 10.546875 
Q 45.796875 14.203125 45.796875 21.1875 
Q 45.796875 27.640625 41.28125 31.265625 
Q 36.765625 34.90625 28.71875 34.90625 
L 20.21875 34.90625 
L 20.21875 43.015625 
L 29.109375 43.015625 
Q 36.375 43.015625 40.234375 45.921875 
Q 44.09375 48.828125 44.09375 54.296875 
Q 44.09375 59.90625 40.109375 62.90625 
Q 36.140625 65.921875 28.71875 65.921875 
Q 24.65625 65.921875 20.015625 65.03125 
Q 15.375 64.15625 9.8125 62.3125 
L 9.8125 71.09375 
Q 15.4375 72.65625 20.34375 73.4375 
Q 25.25 74.21875 29.59375 74.21875 
Q 40.828125 74.21875 47.359375 69.109375 
Q 53.90625 64.015625 53.90625 55.328125 
Q 53.90625 49.265625 50.4375 45.09375 
Q 46.96875 40.921875 40.578125 39.3125 
" id="DejaVuSans-33"/>
      </defs>
      <g transform="translate(421.283561 158.038438)scale(0.1 -0.1)">
       <use xlink:href="#DejaVuSans-33"/>
       <use x="63.623047" xlink:href="#DejaVuSans-30"/>
      </g>
     </g>
    </g>
    <g id="xtick_5">
     <g id="line2d_16">
      <g>
       <use style="stroke:#000000;stroke-width:0.8;" x="482.458182" xlink:href="#m1c51306585" y="143.44"/>
      </g>
     </g>
     <g id="text_12">
      <!-- 40 -->
      <defs>
       <path d="M 37.796875 64.3125 
L 12.890625 25.390625 
L 37.796875 25.390625 
z
M 35.203125 72.90625 
L 47.609375 72.90625 
L 47.609375 25.390625 
L 58.015625 25.390625 
L 58.015625 17.1875 
L 47.609375 17.1875 
L 47.609375 0 
L 37.796875 0 
L 37.796875 17.1875 
L 4.890625 17.1875 
L 4.890625 26.703125 
z
" id="DejaVuSans-34"/>
      </defs>
      <g transform="translate(476.095682 158.038438)scale(0.1 -0.1)">
       <use xlink:href="#DejaVuSans-34"/>
       <use x="63.623047" xlink:href="#DejaVuSans-30"/>
      </g>
     </g>
    </g>
    <g id="text_13">
     <!-- counts [norm.] per sgRNA -->
     <g transform="translate(305.251146 171.716563)scale(0.1 -0.1)">
      <use xlink:href="#DejaVuSans-63"/>
      <use x="54.980469" xlink:href="#DejaVuSans-6f"/>
      <use x="116.162109" xlink:href="#DejaVuSans-75"/>
      <use x="179.541016" xlink:href="#DejaVuSans-6e"/>
      <use x="242.919922" xlink:href="#DejaVuSans-74"/>
      <use x="282.128906" xlink:href="#DejaVuSans-73"/>
      <use x="334.228516" xlink:href="#DejaVuSans-20"/>
      <use x="366.015625" xlink:href="#DejaVuSans-5b"/>
      <use x="405.029297" xlink:href="#DejaVuSans-6e"/>
      <use x="468.408203" xlink:href="#DejaVuSans-6f"/>
      <use x="529.589844" xlink:href="#DejaVuSans-72"/>
      <use x="570.6875" xlink:href="#DejaVuSans-6d"/>
      <use x="668.099609" xlink:href="#DejaVuSans-2e"/>
      <use x="699.886719" xlink:href="#DejaVuSans-5d"/>
      <use x="738.900391" xlink:href="#DejaVuSans-20"/>
      <use x="770.6875" xlink:href="#DejaVuSans-70"/>
      <use x="834.164062" xlink:href="#DejaVuSans-65"/>
      <use x="895.6875" xlink:href="#DejaVuSans-72"/>
      <use x="936.800781" xlink:href="#DejaVuSans-20"/>
      <use x="968.587891" xlink:href="#DejaVuSans-73"/>
      <use x="1020.6875" xlink:href="#DejaVuSans-67"/>
      <use x="1084.164062" xlink:href="#DejaVuSans-52"/>
      <use x="1153.646484" xlink:href="#DejaVuSans-4e"/>
      <use x="1228.451172" xlink:href="#DejaVuSans-41"/>
     </g>
    </g>
   </g>
   <g id="matplotlib.axis_4">
    <g id="ytick_6">
     <g id="line2d_17">
      <g>
       <use style="stroke:#000000;stroke-width:0.8;" x="249.506667" xlink:href="#me9bac78135" y="143.44"/>
      </g>
     </g>
     <g id="text_14">
      <!-- 0 -->
      <g transform="translate(236.144167 147.239219)scale(0.1 -0.1)">
       <use xlink:href="#DejaVuSans-30"/>
      </g>
     </g>
    </g>
    <g id="ytick_7">
     <g id="line2d_18">
      <g>
       <use style="stroke:#000000;stroke-width:0.8;" x="249.506667" xlink:href="#me9bac78135" y="119.727436"/>
      </g>
     </g>
     <g id="text_15">
      <!-- 20000 -->
      <g transform="translate(210.694167 123.526655)scale(0.1 -0.1)">
       <use xlink:href="#DejaVuSans-32"/>
       <use x="63.623047" xlink:href="#DejaVuSans-30"/>
       <use x="127.246094" xlink:href="#DejaVuSans-30"/>
       <use x="190.869141" xlink:href="#DejaVuSans-30"/>
       <use x="254.492188" xlink:href="#DejaVuSans-30"/>
      </g>
     </g>
    </g>
    <g id="ytick_8">
     <g id="line2d_19">
      <g>
       <use style="stroke:#000000;stroke-width:0.8;" x="249.506667" xlink:href="#me9bac78135" y="96.014873"/>
      </g>
     </g>
     <g id="text_16">
      <!-- 40000 -->
      <g transform="translate(210.694167 99.814092)scale(0.1 -0.1)">
       <use xlink:href="#DejaVuSans-34"/>
       <use x="63.623047" xlink:href="#DejaVuSans-30"/>
       <use x="127.246094" xlink:href="#DejaVuSans-30"/>
       <use x="190.869141" xlink:href="#DejaVuSans-30"/>
       <use x="254.492188" xlink:href="#DejaVuSans-30"/>
      </g>
     </g>
    </g>
    <g id="ytick_9">
     <g id="line2d_20">
      <g>
       <use style="stroke:#000000;stroke-width:0.8;" x="249.506667" xlink:href="#me9bac78135" y="72.302309"/>
      </g>
     </g>
     <g id="text_17">
      <!-- 60000 -->
      <defs>
       <path d="M 33.015625 40.375 
Q 26.375 40.375 22.484375 35.828125 
Q 18.609375 31.296875 18.609375 23.390625 
Q 18.609375 15.53125 22.484375 10.953125 
Q 26.375 6.390625 33.015625 6.390625 
Q 39.65625 6.390625 43.53125 10.953125 
Q 47.40625 15.53125 47.40625 23.390625 
Q 47.40625 31.296875 43.53125 35.828125 
Q 39.65625 40.375 33.015625 40.375 
M 52.59375 71.296875 
L 52.59375 62.3125 
Q 48.875 64.0625 45.09375 64.984375 
Q 41.3125 65.921875 37.59375 65.921875 
Q 27.828125 65.921875 22.671875 59.328125 
Q 17.53125 52.734375 16.796875 39.40625 
Q 19.671875 43.65625 24.015625 45.921875 
Q 28.375 48.1875 33.59375 48.1875 
Q 44.578125 48.1875 50.953125 41.515625 
Q 57.328125 34.859375 57.328125 23.390625 
Q 57.328125 12.15625 50.6875 5.359375 
Q 44.046875 -1.421875 33.015625 -1.421875 
Q 20.359375 -1.421875 13.671875 8.265625 
Q 6.984375 17.96875 6.984375 36.375 
Q 6.984375 53.65625 15.1875 63.9375 
Q 23.390625 74.21875 37.203125 74.21875 
Q 40.921875 74.21875 44.703125 73.484375 
Q 48.484375 72.75 52.59375 71.296875 
" id="DejaVuSans-36"/>
      </defs>
      <g transform="translate(210.694167 76.101528)scale(0.1 -0.1)">
       <use xlink:href="#DejaVuSans-36"/>
       <use x="63.623047" xlink:href="#DejaVuSans-30"/>
       <use x="127.246094" xlink:href="#DejaVuSans-30"/>
       <use x="190.869141" xlink:href="#DejaVuSans-30"/>
       <use x="254.492188" xlink:href="#DejaVuSans-30"/>
      </g>
     </g>
    </g>
    <g id="ytick_10">
     <g id="line2d_21">
      <g>
       <use style="stroke:#000000;stroke-width:0.8;" x="249.506667" xlink:href="#me9bac78135" y="48.589746"/>
      </g>
     </g>
     <g id="text_18">
      <!-- 80000 -->
      <defs>
       <path d="M 31.78125 34.625 
Q 24.75 34.625 20.71875 30.859375 
Q 16.703125 27.09375 16.703125 20.515625 
Q 16.703125 13.921875 20.71875 10.15625 
Q 24.75 6.390625 31.78125 6.390625 
Q 38.8125 6.390625 42.859375 10.171875 
Q 46.921875 13.96875 46.921875 20.515625 
Q 46.921875 27.09375 42.890625 30.859375 
Q 38.875 34.625 31.78125 34.625 
M 21.921875 38.8125 
Q 15.578125 40.375 12.03125 44.71875 
Q 8.5 49.078125 8.5 55.328125 
Q 8.5 64.0625 14.71875 69.140625 
Q 20.953125 74.21875 31.78125 74.21875 
Q 42.671875 74.21875 48.875 69.140625 
Q 55.078125 64.0625 55.078125 55.328125 
Q 55.078125 49.078125 51.53125 44.71875 
Q 48 40.375 41.703125 38.8125 
Q 48.828125 37.15625 52.796875 32.3125 
Q 56.78125 27.484375 56.78125 20.515625 
Q 56.78125 9.90625 50.3125 4.234375 
Q 43.84375 -1.421875 31.78125 -1.421875 
Q 19.734375 -1.421875 13.25 4.234375 
Q 6.78125 9.90625 6.78125 20.515625 
Q 6.78125 27.484375 10.78125 32.3125 
Q 14.796875 37.15625 21.921875 38.8125 
M 18.3125 54.390625 
Q 18.3125 48.734375 21.84375 45.5625 
Q 25.390625 42.390625 31.78125 42.390625 
Q 38.140625 42.390625 41.71875 45.5625 
Q 45.3125 48.734375 45.3125 54.390625 
Q 45.3125 60.0625 41.71875 63.234375 
Q 38.140625 66.40625 31.78125 66.40625 
Q 25.390625 66.40625 21.84375 63.234375 
Q 18.3125 60.0625 18.3125 54.390625 
" id="DejaVuSans-38"/>
      </defs>
      <g transform="translate(210.694167 52.388965)scale(0.1 -0.1)">
       <use xlink:href="#DejaVuSans-38"/>
       <use x="63.623047" xlink:href="#DejaVuSans-30"/>
       <use x="127.246094" xlink:href="#DejaVuSans-30"/>
       <use x="190.869141" xlink:href="#DejaVuSans-30"/>
       <use x="254.492188" xlink:href="#DejaVuSans-30"/>
      </g>
     </g>
    </g>
    <g id="text_19">
     <!-- Number of sgRNAs -->
     <defs>
      <path d="M 48.6875 27.296875 
Q 48.6875 37.203125 44.609375 42.84375 
Q 40.53125 48.484375 33.40625 48.484375 
Q 26.265625 48.484375 22.1875 42.84375 
Q 18.109375 37.203125 18.109375 27.296875 
Q 18.109375 17.390625 22.1875 11.75 
Q 26.265625 6.109375 33.40625 6.109375 
Q 40.53125 6.109375 44.609375 11.75 
Q 48.6875 17.390625 48.6875 27.296875 
M 18.109375 46.390625 
Q 20.953125 51.265625 25.265625 53.625 
Q 29.59375 56 35.59375 56 
Q 45.5625 56 51.78125 48.09375 
Q 58.015625 40.1875 58.015625 27.296875 
Q 58.015625 14.40625 51.78125 6.484375 
Q 45.5625 -1.421875 35.59375 -1.421875 
Q 29.59375 -1.421875 25.265625 0.953125 
Q 20.953125 3.328125 18.109375 8.203125 
L 18.109375 0 
L 9.078125 0 
L 9.078125 75.984375 
L 18.109375 75.984375 
z
" id="DejaVuSans-62"/>
      <path d="M 37.109375 75.984375 
L 37.109375 68.5 
L 28.515625 68.5 
Q 23.6875 68.5 21.796875 66.546875 
Q 19.921875 64.59375 19.921875 59.515625 
L 19.921875 54.6875 
L 34.71875 54.6875 
L 34.71875 47.703125 
L 19.921875 47.703125 
L 19.921875 0 
L 10.890625 0 
L 10.890625 47.703125 
L 2.296875 47.703125 
L 2.296875 54.6875 
L 10.890625 54.6875 
L 10.890625 58.5 
Q 10.890625 67.625 15.140625 71.796875 
Q 19.390625 75.984375 28.609375 75.984375 
z
" id="DejaVuSans-66"/>
     </defs>
     <g transform="translate(204.614479 131.542344)rotate(-90)scale(0.1 -0.1)">
      <use xlink:href="#DejaVuSans-4e"/>
      <use x="74.804688" xlink:href="#DejaVuSans-75"/>
      <use x="138.183594" xlink:href="#DejaVuSans-6d"/>
      <use x="235.595703" xlink:href="#DejaVuSans-62"/>
      <use x="299.072266" xlink:href="#DejaVuSans-65"/>
      <use x="360.595703" xlink:href="#DejaVuSans-72"/>
      <use x="401.708984" xlink:href="#DejaVuSans-20"/>
      <use x="433.496094" xlink:href="#DejaVuSans-6f"/>
      <use x="494.677734" xlink:href="#DejaVuSans-66"/>
      <use x="529.882812" xlink:href="#DejaVuSans-20"/>
      <use x="561.669922" xlink:href="#DejaVuSans-73"/>
      <use x="613.769531" xlink:href="#DejaVuSans-67"/>
      <use x="677.246094" xlink:href="#DejaVuSans-52"/>
      <use x="746.728516" xlink:href="#DejaVuSans-4e"/>
      <use x="821.533203" xlink:href="#DejaVuSans-41"/>
      <use x="889.941406" xlink:href="#DejaVuSans-73"/>
     </g>
    </g>
   </g>
   <g id="patch_48">
    <path d="M 249.506667 143.44 
L 249.506667 25.44 
" style="fill:none;stroke:#000000;stroke-linecap:square;stroke-linejoin:miter;stroke-width:0.8;"/>
   </g>
   <g id="patch_49">
    <path d="M 490.68 143.44 
L 490.68 25.44 
" style="fill:none;stroke:#000000;stroke-linecap:square;stroke-linejoin:miter;stroke-width:0.8;"/>
   </g>
   <g id="patch_50">
    <path d="M 249.506667 143.44 
L 490.68 143.44 
" style="fill:none;stroke:#000000;stroke-linecap:square;stroke-linejoin:miter;stroke-width:0.8;"/>
   </g>
   <g id="patch_51">
    <path d="M 249.506667 25.44 
L 490.68 25.44 
" style="fill:none;stroke:#000000;stroke-linecap:square;stroke-linejoin:miter;stroke-width:0.8;"/>
   </g>
   <g id="text_20">
    <!-- ToxA_1 Read Distribution -->
    <defs>
     <path d="M -0.296875 72.90625 
L 61.375 72.90625 
L 61.375 64.59375 
L 35.5 64.59375 
L 35.5 0 
L 25.59375 0 
L 25.59375 64.59375 
L -0.296875 64.59375 
z
" id="DejaVuSans-54"/>
     <path d="M 54.890625 54.6875 
L 35.109375 28.078125 
L 55.90625 0 
L 45.3125 0 
L 29.390625 21.484375 
L 13.484375 0 
L 2.875 0 
L 24.125 28.609375 
L 4.6875 54.6875 
L 15.28125 54.6875 
L 29.78125 35.203125 
L 44.28125 54.6875 
z
" id="DejaVuSans-78"/>
     <path d="M 50.984375 -16.609375 
L 50.984375 -23.578125 
L -0.984375 -23.578125 
L -0.984375 -16.609375 
z
" id="DejaVuSans-5f"/>
     <path d="M 19.671875 64.796875 
L 19.671875 8.109375 
L 31.59375 8.109375 
Q 46.6875 8.109375 53.6875 14.9375 
Q 60.6875 21.78125 60.6875 36.53125 
Q 60.6875 51.171875 53.6875 57.984375 
Q 46.6875 64.796875 31.59375 64.796875 
z
M 9.8125 72.90625 
L 30.078125 72.90625 
Q 51.265625 72.90625 61.171875 64.09375 
Q 71.09375 55.28125 71.09375 36.53125 
Q 71.09375 17.671875 61.125 8.828125 
Q 51.171875 0 30.078125 0 
L 9.8125 0 
z
" id="DejaVuSans-44"/>
     <path d="M 9.421875 54.6875 
L 18.40625 54.6875 
L 18.40625 0 
L 9.421875 0 
z
M 9.421875 75.984375 
L 18.40625 75.984375 
L 18.40625 64.59375 
L 9.421875 64.59375 
z
" id="DejaVuSans-69"/>
    </defs>
    <g transform="translate(294.143646 19.44)scale(0.12 -0.12)">
     <use xlink:href="#DejaVuSans-54"/>
     <use x="60.818359" xlink:href="#DejaVuSans-6f"/>
     <use x="121.953125" xlink:href="#DejaVuSans-78"/>
     <use x="181.132812" xlink:href="#DejaVuSans-41"/>
     <use x="249.541016" xlink:href="#DejaVuSans-5f"/>
     <use x="299.541016" xlink:href="#DejaVuSans-31"/>
     <use x="363.164062" xlink:href="#DejaVuSans-20"/>
     <use x="394.951172" xlink:href="#DejaVuSans-52"/>
     <use x="464.371094" xlink:href="#DejaVuSans-65"/>
     <use x="525.894531" xlink:href="#DejaVuSans-61"/>
     <use x="587.173828" xlink:href="#DejaVuSans-64"/>
     <use x="650.650391" xlink:href="#DejaVuSans-20"/>
     <use x="682.4375" xlink:href="#DejaVuSans-44"/>
     <use x="759.439453" xlink:href="#DejaVuSans-69"/>
     <use x="787.222656" xlink:href="#DejaVuSans-73"/>
     <use x="839.322266" xlink:href="#DejaVuSans-74"/>
     <use x="878.53125" xlink:href="#DejaVuSans-72"/>
     <use x="919.644531" xlink:href="#DejaVuSans-69"/>
     <use x="947.427734" xlink:href="#DejaVuSans-62"/>
     <use x="1010.904297" xlink:href="#DejaVuSans-75"/>
     <use x="1074.283203" xlink:href="#DejaVuSans-74"/>
     <use x="1113.492188" xlink:href="#DejaVuSans-69"/>
     <use x="1141.275391" xlink:href="#DejaVuSans-6f"/>
     <use x="1202.457031" xlink:href="#DejaVuSans-6e"/>
    </g>
   </g>
  </g>
  <g id="axes_3">
   <g id="patch_52">
    <path d="M 62.57 318.04 
L 183.156667 318.04 
L 183.156667 200.04 
L 62.57 200.04 
z
" style="fill:#ffffff;"/>
   </g>
   <g id="matplotlib.axis_5"/>
   <g id="matplotlib.axis_6">
    <g id="ytick_11">
     <g id="line2d_22">
      <g>
       <use style="stroke:#000000;stroke-width:0.8;" x="62.57" xlink:href="#me9bac78135" y="312.676364"/>
      </g>
     </g>
     <g id="text_21">
      <!-- 0 -->
      <g transform="translate(49.2075 316.475582)scale(0.1 -0.1)">
       <use xlink:href="#DejaVuSans-30"/>
      </g>
     </g>
    </g>
    <g id="ytick_12">
     <g id="line2d_23">
      <g>
       <use style="stroke:#000000;stroke-width:0.8;" x="62.57" xlink:href="#me9bac78135" y="288.515839"/>
      </g>
     </g>
     <g id="text_22">
      <!-- 25 -->
      <g transform="translate(42.845 292.315058)scale(0.1 -0.1)">
       <use xlink:href="#DejaVuSans-32"/>
       <use x="63.623047" xlink:href="#DejaVuSans-35"/>
      </g>
     </g>
    </g>
    <g id="ytick_13">
     <g id="line2d_24">
      <g>
       <use style="stroke:#000000;stroke-width:0.8;" x="62.57" xlink:href="#me9bac78135" y="264.355315"/>
      </g>
     </g>
     <g id="text_23">
      <!-- 50 -->
      <g transform="translate(42.845 268.154534)scale(0.1 -0.1)">
       <use xlink:href="#DejaVuSans-35"/>
       <use x="63.623047" xlink:href="#DejaVuSans-30"/>
      </g>
     </g>
    </g>
    <g id="ytick_14">
     <g id="line2d_25">
      <g>
       <use style="stroke:#000000;stroke-width:0.8;" x="62.57" xlink:href="#me9bac78135" y="240.194791"/>
      </g>
     </g>
     <g id="text_24">
      <!-- 75 -->
      <defs>
       <path d="M 8.203125 72.90625 
L 55.078125 72.90625 
L 55.078125 68.703125 
L 28.609375 0 
L 18.3125 0 
L 43.21875 64.59375 
L 8.203125 64.59375 
z
" id="DejaVuSans-37"/>
      </defs>
      <g transform="translate(42.845 243.99401)scale(0.1 -0.1)">
       <use xlink:href="#DejaVuSans-37"/>
       <use x="63.623047" xlink:href="#DejaVuSans-35"/>
      </g>
     </g>
    </g>
    <g id="ytick_15">
     <g id="line2d_26">
      <g>
       <use style="stroke:#000000;stroke-width:0.8;" x="62.57" xlink:href="#me9bac78135" y="216.034267"/>
      </g>
     </g>
     <g id="text_25">
      <!-- 100 -->
      <g transform="translate(36.4825 219.833486)scale(0.1 -0.1)">
       <use xlink:href="#DejaVuSans-31"/>
       <use x="63.623047" xlink:href="#DejaVuSans-30"/>
       <use x="127.246094" xlink:href="#DejaVuSans-30"/>
      </g>
     </g>
    </g>
    <g id="text_26">
     <!-- counts [norm.] -->
     <g transform="translate(30.402813 295.98375)rotate(-90)scale(0.1 -0.1)">
      <use xlink:href="#DejaVuSans-63"/>
      <use x="54.980469" xlink:href="#DejaVuSans-6f"/>
      <use x="116.162109" xlink:href="#DejaVuSans-75"/>
      <use x="179.541016" xlink:href="#DejaVuSans-6e"/>
      <use x="242.919922" xlink:href="#DejaVuSans-74"/>
      <use x="282.128906" xlink:href="#DejaVuSans-73"/>
      <use x="334.228516" xlink:href="#DejaVuSans-20"/>
      <use x="366.015625" xlink:href="#DejaVuSans-5b"/>
      <use x="405.029297" xlink:href="#DejaVuSans-6e"/>
      <use x="468.408203" xlink:href="#DejaVuSans-6f"/>
      <use x="529.589844" xlink:href="#DejaVuSans-72"/>
      <use x="570.6875" xlink:href="#DejaVuSans-6d"/>
      <use x="668.099609" xlink:href="#DejaVuSans-2e"/>
      <use x="699.886719" xlink:href="#DejaVuSans-5d"/>
     </g>
    </g>
   </g>
   <g id="line2d_27">
    <path clip-path="url(#p6298a27342)" d="M 113.819333 312.676364 
L 131.907333 312.676364 
L 131.907333 269.18742 
L 113.819333 269.18742 
L 113.819333 312.676364 
" style="fill:none;stroke:#000000;stroke-linecap:square;"/>
   </g>
   <g id="line2d_28">
    <path clip-path="url(#p6298a27342)" d="M 122.863333 312.676364 
L 122.863333 312.676364 
" style="fill:none;stroke:#000000;stroke-linecap:square;"/>
   </g>
   <g id="line2d_29">
    <path clip-path="url(#p6298a27342)" d="M 122.863333 269.18742 
L 122.863333 205.403636 
" style="fill:none;stroke:#000000;stroke-linecap:square;"/>
   </g>
   <g id="line2d_30">
    <path clip-path="url(#p6298a27342)" d="M 118.341333 312.676364 
L 127.385333 312.676364 
" style="fill:none;stroke:#000000;stroke-linecap:square;"/>
   </g>
   <g id="line2d_31">
    <path clip-path="url(#p6298a27342)" d="M 118.341333 205.403636 
L 127.385333 205.403636 
" style="fill:none;stroke:#000000;stroke-linecap:square;"/>
   </g>
   <g id="line2d_32">
    <path clip-path="url(#p6298a27342)" d="M 113.819333 303.978575 
L 131.907333 303.978575 
" style="fill:none;stroke:#ff7f0e;stroke-linecap:square;"/>
   </g>
   <g id="patch_53">
    <path d="M 62.57 318.04 
L 62.57 200.04 
" style="fill:none;stroke:#000000;stroke-linecap:square;stroke-linejoin:miter;stroke-width:0.8;"/>
   </g>
   <g id="patch_54">
    <path d="M 183.156667 318.04 
L 183.156667 200.04 
" style="fill:none;stroke:#000000;stroke-linecap:square;stroke-linejoin:miter;stroke-width:0.8;"/>
   </g>
   <g id="patch_55">
    <path d="M 62.57 318.04 
L 183.156667 318.04 
" style="fill:none;stroke:#000000;stroke-linecap:square;stroke-linejoin:miter;stroke-width:0.8;"/>
   </g>
   <g id="patch_56">
    <path d="M 62.57 200.04 
L 183.156667 200.04 
" style="fill:none;stroke:#000000;stroke-linecap:square;stroke-linejoin:miter;stroke-width:0.8;"/>
   </g>
   <g id="text_27">
    <!-- Reads per Gene -->
    <defs>
     <path d="M 59.515625 10.40625 
L 59.515625 29.984375 
L 43.40625 29.984375 
L 43.40625 38.09375 
L 69.28125 38.09375 
L 69.28125 6.78125 
Q 63.578125 2.734375 56.6875 0.65625 
Q 49.8125 -1.421875 42 -1.421875 
Q 24.90625 -1.421875 15.25 8.5625 
Q 5.609375 18.5625 5.609375 36.375 
Q 5.609375 54.25 15.25 64.234375 
Q 24.90625 74.21875 42 74.21875 
Q 49.125 74.21875 55.546875 72.453125 
Q 61.96875 70.703125 67.390625 67.28125 
L 67.390625 56.78125 
Q 61.921875 61.421875 55.765625 63.765625 
Q 49.609375 66.109375 42.828125 66.109375 
Q 29.4375 66.109375 22.71875 58.640625 
Q 16.015625 51.171875 16.015625 36.375 
Q 16.015625 21.625 22.71875 14.15625 
Q 29.4375 6.6875 42.828125 6.6875 
Q 48.046875 6.6875 52.140625 7.59375 
Q 56.25 8.5 59.515625 10.40625 
" id="DejaVuSans-47"/>
    </defs>
    <g transform="translate(74.778021 194.04)scale(0.12 -0.12)">
     <use xlink:href="#DejaVuSans-52"/>
     <use x="69.419922" xlink:href="#DejaVuSans-65"/>
     <use x="130.943359" xlink:href="#DejaVuSans-61"/>
     <use x="192.222656" xlink:href="#DejaVuSans-64"/>
     <use x="255.699219" xlink:href="#DejaVuSans-73"/>
     <use x="307.798828" xlink:href="#DejaVuSans-20"/>
     <use x="339.585938" xlink:href="#DejaVuSans-70"/>
     <use x="403.0625" xlink:href="#DejaVuSans-65"/>
     <use x="464.585938" xlink:href="#DejaVuSans-72"/>
     <use x="505.699219" xlink:href="#DejaVuSans-20"/>
     <use x="537.486328" xlink:href="#DejaVuSans-47"/>
     <use x="614.976562" xlink:href="#DejaVuSans-65"/>
     <use x="676.5" xlink:href="#DejaVuSans-6e"/>
     <use x="739.878906" xlink:href="#DejaVuSans-65"/>
    </g>
   </g>
  </g>
  <g id="axes_4">
   <g id="patch_57">
    <path d="M 249.506667 318.04 
L 490.68 318.04 
L 490.68 200.04 
L 249.506667 200.04 
z
" style="fill:#ffffff;"/>
   </g>
   <g id="patch_58">
    <path clip-path="url(#pe5db412fd7)" d="M 260.469091 318.04 
L 261.576406 318.04 
L 261.576406 205.659048 
L 260.469091 205.659048 
z
" style="fill:#1f77b4;"/>
   </g>
   <g id="patch_59">
    <path clip-path="url(#pe5db412fd7)" d="M 261.576406 318.04 
L 262.683722 318.04 
L 262.683722 318.04 
L 261.576406 318.04 
z
" style="fill:#1f77b4;"/>
   </g>
   <g id="patch_60">
    <path clip-path="url(#pe5db412fd7)" d="M 262.683722 318.04 
L 263.791038 318.04 
L 263.791038 276.703371 
L 262.683722 276.703371 
z
" style="fill:#1f77b4;"/>
   </g>
   <g id="patch_61">
    <path clip-path="url(#pe5db412fd7)" d="M 263.791038 318.04 
L 264.898353 318.04 
L 264.898353 318.04 
L 263.791038 318.04 
z
" style="fill:#1f77b4;"/>
   </g>
   <g id="patch_62">
    <path clip-path="url(#pe5db412fd7)" d="M 264.898353 318.04 
L 266.005669 318.04 
L 266.005669 318.04 
L 264.898353 318.04 
z
" style="fill:#1f77b4;"/>
   </g>
   <g id="patch_63">
    <path clip-path="url(#pe5db412fd7)" d="M 266.005669 318.04 
L 267.112984 318.04 
L 267.112984 291.66311 
L 266.005669 291.66311 
z
" style="fill:#1f77b4;"/>
   </g>
   <g id="patch_64">
    <path clip-path="url(#pe5db412fd7)" d="M 267.112984 318.04 
L 268.2203 318.04 
L 268.2203 318.04 
L 267.112984 318.04 
z
" style="fill:#1f77b4;"/>
   </g>
   <g id="patch_65">
    <path clip-path="url(#pe5db412fd7)" d="M 268.2203 318.04 
L 269.327616 318.04 
L 269.327616 299.037088 
L 268.2203 299.037088 
z
" style="fill:#1f77b4;"/>
   </g>
   <g id="patch_66">
    <path clip-path="url(#pe5db412fd7)" d="M 269.327616 318.04 
L 270.434931 318.04 
L 270.434931 318.04 
L 269.327616 318.04 
z
" style="fill:#1f77b4;"/>
   </g>
   <g id="patch_67">
    <path clip-path="url(#pe5db412fd7)" d="M 270.434931 318.04 
L 271.542247 318.04 
L 271.542247 302.829969 
L 270.434931 302.829969 
z
" style="fill:#1f77b4;"/>
   </g>
   <g id="patch_68">
    <path clip-path="url(#pe5db412fd7)" d="M 271.542247 318.04 
L 272.649562 318.04 
L 272.649562 318.04 
L 271.542247 318.04 
z
" style="fill:#1f77b4;"/>
   </g>
   <g id="patch_69">
    <path clip-path="url(#pe5db412fd7)" d="M 272.649562 318.04 
L 273.756878 318.04 
L 273.756878 305.486911 
L 272.649562 305.486911 
z
" style="fill:#1f77b4;"/>
   </g>
   <g id="patch_70">
    <path clip-path="url(#pe5db412fd7)" d="M 273.756878 318.04 
L 274.864193 318.04 
L 274.864193 318.04 
L 273.756878 318.04 
z
" style="fill:#1f77b4;"/>
   </g>
   <g id="patch_71">
    <path clip-path="url(#pe5db412fd7)" d="M 274.864193 318.04 
L 275.971509 318.04 
L 275.971509 318.04 
L 274.864193 318.04 
z
" style="fill:#1f77b4;"/>
   </g>
   <g id="patch_72">
    <path clip-path="url(#pe5db412fd7)" d="M 275.971509 318.04 
L 277.078825 318.04 
L 277.078825 307.392978 
L 275.971509 307.392978 
z
" style="fill:#1f77b4;"/>
   </g>
   <g id="patch_73">
    <path clip-path="url(#pe5db412fd7)" d="M 277.078825 318.04 
L 278.18614 318.04 
L 278.18614 318.04 
L 277.078825 318.04 
z
" style="fill:#1f77b4;"/>
   </g>
   <g id="patch_74">
    <path clip-path="url(#pe5db412fd7)" d="M 278.18614 318.04 
L 279.293456 318.04 
L 279.293456 308.143853 
L 278.18614 308.143853 
z
" style="fill:#1f77b4;"/>
   </g>
   <g id="patch_75">
    <path clip-path="url(#pe5db412fd7)" d="M 279.293456 318.04 
L 280.400771 318.04 
L 280.400771 318.04 
L 279.293456 318.04 
z
" style="fill:#1f77b4;"/>
   </g>
   <g id="patch_76">
    <path clip-path="url(#pe5db412fd7)" d="M 280.400771 318.04 
L 281.508087 318.04 
L 281.508087 310.319465 
L 280.400771 310.319465 
z
" style="fill:#1f77b4;"/>
   </g>
   <g id="patch_77">
    <path clip-path="url(#pe5db412fd7)" d="M 281.508087 318.04 
L 282.615403 318.04 
L 282.615403 318.04 
L 281.508087 318.04 
z
" style="fill:#1f77b4;"/>
   </g>
   <g id="patch_78">
    <path clip-path="url(#pe5db412fd7)" d="M 282.615403 318.04 
L 283.722718 318.04 
L 283.722718 310.415731 
L 282.615403 310.415731 
z
" style="fill:#1f77b4;"/>
   </g>
   <g id="patch_79">
    <path clip-path="url(#pe5db412fd7)" d="M 283.722718 318.04 
L 284.830034 318.04 
L 284.830034 318.04 
L 283.722718 318.04 
z
" style="fill:#1f77b4;"/>
   </g>
   <g id="patch_80">
    <path clip-path="url(#pe5db412fd7)" d="M 284.830034 318.04 
L 285.937349 318.04 
L 285.937349 318.04 
L 284.830034 318.04 
z
" style="fill:#1f77b4;"/>
   </g>
   <g id="patch_81">
    <path clip-path="url(#pe5db412fd7)" d="M 285.937349 318.04 
L 287.044665 318.04 
L 287.044665 311.166606 
L 285.937349 311.166606 
z
" style="fill:#1f77b4;"/>
   </g>
   <g id="patch_82">
    <path clip-path="url(#pe5db412fd7)" d="M 287.044665 318.04 
L 288.15198 318.04 
L 288.15198 318.04 
L 287.044665 318.04 
z
" style="fill:#1f77b4;"/>
   </g>
   <g id="patch_83">
    <path clip-path="url(#pe5db412fd7)" d="M 288.15198 318.04 
L 289.259296 318.04 
L 289.259296 311.667189 
L 288.15198 311.667189 
z
" style="fill:#1f77b4;"/>
   </g>
   <g id="patch_84">
    <path clip-path="url(#pe5db412fd7)" d="M 289.259296 318.04 
L 290.366612 318.04 
L 290.366612 318.04 
L 289.259296 318.04 
z
" style="fill:#1f77b4;"/>
   </g>
   <g id="patch_85">
    <path clip-path="url(#pe5db412fd7)" d="M 290.366612 318.04 
L 291.473927 318.04 
L 291.473927 312.033 
L 290.366612 312.033 
z
" style="fill:#1f77b4;"/>
   </g>
   <g id="patch_86">
    <path clip-path="url(#pe5db412fd7)" d="M 291.473927 318.04 
L 292.581243 318.04 
L 292.581243 318.04 
L 291.473927 318.04 
z
" style="fill:#1f77b4;"/>
   </g>
   <g id="patch_87">
    <path clip-path="url(#pe5db412fd7)" d="M 292.581243 318.04 
L 293.688558 318.04 
L 293.688558 312.09076 
L 292.581243 312.09076 
z
" style="fill:#1f77b4;"/>
   </g>
   <g id="patch_88">
    <path clip-path="url(#pe5db412fd7)" d="M 293.688558 318.04 
L 294.795874 318.04 
L 294.795874 318.04 
L 293.688558 318.04 
z
" style="fill:#1f77b4;"/>
   </g>
   <g id="patch_89">
    <path clip-path="url(#pe5db412fd7)" d="M 294.795874 318.04 
L 295.903189 318.04 
L 295.903189 318.04 
L 294.795874 318.04 
z
" style="fill:#1f77b4;"/>
   </g>
   <g id="patch_90">
    <path clip-path="url(#pe5db412fd7)" d="M 295.903189 318.04 
L 297.010505 318.04 
L 297.010505 313.11118 
L 295.903189 313.11118 
z
" style="fill:#1f77b4;"/>
   </g>
   <g id="patch_91">
    <path clip-path="url(#pe5db412fd7)" d="M 297.010505 318.04 
L 298.117821 318.04 
L 298.117821 318.04 
L 297.010505 318.04 
z
" style="fill:#1f77b4;"/>
   </g>
   <g id="patch_92">
    <path clip-path="url(#pe5db412fd7)" d="M 298.117821 318.04 
L 299.225136 318.04 
L 299.225136 313.515497 
L 298.117821 313.515497 
z
" style="fill:#1f77b4;"/>
   </g>
   <g id="patch_93">
    <path clip-path="url(#pe5db412fd7)" d="M 299.225136 318.04 
L 300.332452 318.04 
L 300.332452 318.04 
L 299.225136 318.04 
z
" style="fill:#1f77b4;"/>
   </g>
   <g id="patch_94">
    <path clip-path="url(#pe5db412fd7)" d="M 300.332452 318.04 
L 301.439767 318.04 
L 301.439767 314.035334 
L 300.332452 314.035334 
z
" style="fill:#1f77b4;"/>
   </g>
   <g id="patch_95">
    <path clip-path="url(#pe5db412fd7)" d="M 301.439767 318.04 
L 302.547083 318.04 
L 302.547083 318.04 
L 301.439767 318.04 
z
" style="fill:#1f77b4;"/>
   </g>
   <g id="patch_96">
    <path clip-path="url(#pe5db412fd7)" d="M 302.547083 318.04 
L 303.654399 318.04 
L 303.654399 318.04 
L 302.547083 318.04 
z
" style="fill:#1f77b4;"/>
   </g>
   <g id="patch_97">
    <path clip-path="url(#pe5db412fd7)" d="M 303.654399 318.04 
L 304.761714 318.04 
L 304.761714 313.996827 
L 303.654399 313.996827 
z
" style="fill:#1f77b4;"/>
   </g>
   <g id="patch_98">
    <path clip-path="url(#pe5db412fd7)" d="M 304.761714 318.04 
L 305.86903 318.04 
L 305.86903 318.04 
L 304.761714 318.04 
z
" style="fill:#1f77b4;"/>
   </g>
   <g id="patch_99">
    <path clip-path="url(#pe5db412fd7)" d="M 305.86903 318.04 
L 306.976345 318.04 
L 306.976345 313.669523 
L 305.86903 313.669523 
z
" style="fill:#1f77b4;"/>
   </g>
   <g id="patch_100">
    <path clip-path="url(#pe5db412fd7)" d="M 306.976345 318.04 
L 308.083661 318.04 
L 308.083661 318.04 
L 306.976345 318.04 
z
" style="fill:#1f77b4;"/>
   </g>
   <g id="patch_101">
    <path clip-path="url(#pe5db412fd7)" d="M 308.083661 318.04 
L 309.190976 318.04 
L 309.190976 314.227866 
L 308.083661 314.227866 
z
" style="fill:#1f77b4;"/>
   </g>
   <g id="patch_102">
    <path clip-path="url(#pe5db412fd7)" d="M 309.190976 318.04 
L 310.298292 318.04 
L 310.298292 318.04 
L 309.190976 318.04 
z
" style="fill:#1f77b4;"/>
   </g>
   <g id="patch_103">
    <path clip-path="url(#pe5db412fd7)" d="M 310.298292 318.04 
L 311.405608 318.04 
L 311.405608 314.516664 
L 310.298292 314.516664 
z
" style="fill:#1f77b4;"/>
   </g>
   <g id="patch_104">
    <path clip-path="url(#pe5db412fd7)" d="M 311.405608 318.04 
L 312.512923 318.04 
L 312.512923 318.04 
L 311.405608 318.04 
z
" style="fill:#1f77b4;"/>
   </g>
   <g id="patch_105">
    <path clip-path="url(#pe5db412fd7)" d="M 312.512923 318.04 
L 313.620239 318.04 
L 313.620239 318.04 
L 312.512923 318.04 
z
" style="fill:#1f77b4;"/>
   </g>
   <g id="patch_106">
    <path clip-path="url(#pe5db412fd7)" d="M 313.620239 318.04 
L 314.727554 318.04 
L 314.727554 314.805462 
L 313.620239 314.805462 
z
" style="fill:#1f77b4;"/>
   </g>
   <g id="patch_107">
    <path clip-path="url(#pe5db412fd7)" d="M 314.727554 318.04 
L 315.83487 318.04 
L 315.83487 318.04 
L 314.727554 318.04 
z
" style="fill:#1f77b4;"/>
   </g>
   <g id="patch_108">
    <path clip-path="url(#pe5db412fd7)" d="M 315.83487 318.04 
L 316.942185 318.04 
L 316.942185 314.516664 
L 315.83487 314.516664 
z
" style="fill:#1f77b4;"/>
   </g>
   <g id="patch_109">
    <path clip-path="url(#pe5db412fd7)" d="M 316.942185 318.04 
L 318.049501 318.04 
L 318.049501 318.04 
L 316.942185 318.04 
z
" style="fill:#1f77b4;"/>
   </g>
   <g id="patch_110">
    <path clip-path="url(#pe5db412fd7)" d="M 318.049501 318.04 
L 319.156817 318.04 
L 319.156817 314.535917 
L 318.049501 314.535917 
z
" style="fill:#1f77b4;"/>
   </g>
   <g id="patch_111">
    <path clip-path="url(#pe5db412fd7)" d="M 319.156817 318.04 
L 320.264132 318.04 
L 320.264132 318.04 
L 319.156817 318.04 
z
" style="fill:#1f77b4;"/>
   </g>
   <g id="patch_112">
    <path clip-path="url(#pe5db412fd7)" d="M 320.264132 318.04 
L 321.371448 318.04 
L 321.371448 315.055753 
L 320.264132 315.055753 
z
" style="fill:#1f77b4;"/>
   </g>
   <g id="patch_113">
    <path clip-path="url(#pe5db412fd7)" d="M 321.371448 318.04 
L 322.478763 318.04 
L 322.478763 318.04 
L 321.371448 318.04 
z
" style="fill:#1f77b4;"/>
   </g>
   <g id="patch_114">
    <path clip-path="url(#pe5db412fd7)" d="M 322.478763 318.04 
L 323.586079 318.04 
L 323.586079 318.04 
L 322.478763 318.04 
z
" style="fill:#1f77b4;"/>
   </g>
   <g id="patch_115">
    <path clip-path="url(#pe5db412fd7)" d="M 323.586079 318.04 
L 324.693395 318.04 
L 324.693395 315.055753 
L 323.586079 315.055753 
z
" style="fill:#1f77b4;"/>
   </g>
   <g id="patch_116">
    <path clip-path="url(#pe5db412fd7)" d="M 324.693395 318.04 
L 325.80071 318.04 
L 325.80071 318.04 
L 324.693395 318.04 
z
" style="fill:#1f77b4;"/>
   </g>
   <g id="patch_117">
    <path clip-path="url(#pe5db412fd7)" d="M 325.80071 318.04 
L 326.908026 318.04 
L 326.908026 315.633349 
L 325.80071 315.633349 
z
" style="fill:#1f77b4;"/>
   </g>
   <g id="patch_118">
    <path clip-path="url(#pe5db412fd7)" d="M 326.908026 318.04 
L 328.015341 318.04 
L 328.015341 318.04 
L 326.908026 318.04 
z
" style="fill:#1f77b4;"/>
   </g>
   <g id="patch_119">
    <path clip-path="url(#pe5db412fd7)" d="M 328.015341 318.04 
L 329.122657 318.04 
L 329.122657 315.633349 
L 328.015341 315.633349 
z
" style="fill:#1f77b4;"/>
   </g>
   <g id="patch_120">
    <path clip-path="url(#pe5db412fd7)" d="M 329.122657 318.04 
L 330.229972 318.04 
L 330.229972 318.04 
L 329.122657 318.04 
z
" style="fill:#1f77b4;"/>
   </g>
   <g id="patch_121">
    <path clip-path="url(#pe5db412fd7)" d="M 330.229972 318.04 
L 331.337288 318.04 
L 331.337288 315.152019 
L 330.229972 315.152019 
z
" style="fill:#1f77b4;"/>
   </g>
   <g id="patch_122">
    <path clip-path="url(#pe5db412fd7)" d="M 331.337288 318.04 
L 332.444604 318.04 
L 332.444604 318.04 
L 331.337288 318.04 
z
" style="fill:#1f77b4;"/>
   </g>
   <g id="patch_123">
    <path clip-path="url(#pe5db412fd7)" d="M 332.444604 318.04 
L 333.551919 318.04 
L 333.551919 318.04 
L 332.444604 318.04 
z
" style="fill:#1f77b4;"/>
   </g>
   <g id="patch_124">
    <path clip-path="url(#pe5db412fd7)" d="M 333.551919 318.04 
L 334.659235 318.04 
L 334.659235 315.748869 
L 333.551919 315.748869 
z
" style="fill:#1f77b4;"/>
   </g>
   <g id="patch_125">
    <path clip-path="url(#pe5db412fd7)" d="M 334.659235 318.04 
L 335.76655 318.04 
L 335.76655 318.04 
L 334.659235 318.04 
z
" style="fill:#1f77b4;"/>
   </g>
   <g id="patch_126">
    <path clip-path="url(#pe5db412fd7)" d="M 335.76655 318.04 
L 336.873866 318.04 
L 336.873866 315.979907 
L 335.76655 315.979907 
z
" style="fill:#1f77b4;"/>
   </g>
   <g id="patch_127">
    <path clip-path="url(#pe5db412fd7)" d="M 336.873866 318.04 
L 337.981182 318.04 
L 337.981182 318.04 
L 336.873866 318.04 
z
" style="fill:#1f77b4;"/>
   </g>
   <g id="patch_128">
    <path clip-path="url(#pe5db412fd7)" d="M 337.981182 318.04 
L 339.088497 318.04 
L 339.088497 315.691109 
L 337.981182 315.691109 
z
" style="fill:#1f77b4;"/>
   </g>
   <g id="patch_129">
    <path clip-path="url(#pe5db412fd7)" d="M 339.088497 318.04 
L 340.195813 318.04 
L 340.195813 318.04 
L 339.088497 318.04 
z
" style="fill:#1f77b4;"/>
   </g>
   <g id="patch_130">
    <path clip-path="url(#pe5db412fd7)" d="M 340.195813 318.04 
L 341.303128 318.04 
L 341.303128 318.04 
L 340.195813 318.04 
z
" style="fill:#1f77b4;"/>
   </g>
   <g id="patch_131">
    <path clip-path="url(#pe5db412fd7)" d="M 341.303128 318.04 
L 342.410444 318.04 
L 342.410444 315.979907 
L 341.303128 315.979907 
z
" style="fill:#1f77b4;"/>
   </g>
   <g id="patch_132">
    <path clip-path="url(#pe5db412fd7)" d="M 342.410444 318.04 
L 343.517759 318.04 
L 343.517759 318.04 
L 342.410444 318.04 
z
" style="fill:#1f77b4;"/>
   </g>
   <g id="patch_133">
    <path clip-path="url(#pe5db412fd7)" d="M 343.517759 318.04 
L 344.625075 318.04 
L 344.625075 316.037667 
L 343.517759 316.037667 
z
" style="fill:#1f77b4;"/>
   </g>
   <g id="patch_134">
    <path clip-path="url(#pe5db412fd7)" d="M 344.625075 318.04 
L 345.732391 318.04 
L 345.732391 318.04 
L 344.625075 318.04 
z
" style="fill:#1f77b4;"/>
   </g>
   <g id="patch_135">
    <path clip-path="url(#pe5db412fd7)" d="M 345.732391 318.04 
L 346.839706 318.04 
L 346.839706 316.422731 
L 345.732391 316.422731 
z
" style="fill:#1f77b4;"/>
   </g>
   <g id="patch_136">
    <path clip-path="url(#pe5db412fd7)" d="M 346.839706 318.04 
L 347.947022 318.04 
L 347.947022 318.04 
L 346.839706 318.04 
z
" style="fill:#1f77b4;"/>
   </g>
   <g id="patch_137">
    <path clip-path="url(#pe5db412fd7)" d="M 347.947022 318.04 
L 349.054337 318.04 
L 349.054337 316.037667 
L 347.947022 316.037667 
z
" style="fill:#1f77b4;"/>
   </g>
   <g id="patch_138">
    <path clip-path="url(#pe5db412fd7)" d="M 349.054337 318.04 
L 350.161653 318.04 
L 350.161653 318.04 
L 349.054337 318.04 
z
" style="fill:#1f77b4;"/>
   </g>
   <g id="patch_139">
    <path clip-path="url(#pe5db412fd7)" d="M 350.161653 318.04 
L 351.268968 318.04 
L 351.268968 318.04 
L 350.161653 318.04 
z
" style="fill:#1f77b4;"/>
   </g>
   <g id="patch_140">
    <path clip-path="url(#pe5db412fd7)" d="M 351.268968 318.04 
L 352.376284 318.04 
L 352.376284 316.364971 
L 351.268968 316.364971 
z
" style="fill:#1f77b4;"/>
   </g>
   <g id="patch_141">
    <path clip-path="url(#pe5db412fd7)" d="M 352.376284 318.04 
L 353.4836 318.04 
L 353.4836 318.04 
L 352.376284 318.04 
z
" style="fill:#1f77b4;"/>
   </g>
   <g id="patch_142">
    <path clip-path="url(#pe5db412fd7)" d="M 353.4836 318.04 
L 354.590915 318.04 
L 354.590915 316.48049 
L 353.4836 316.48049 
z
" style="fill:#1f77b4;"/>
   </g>
   <g id="patch_143">
    <path clip-path="url(#pe5db412fd7)" d="M 354.590915 318.04 
L 355.698231 318.04 
L 355.698231 318.04 
L 354.590915 318.04 
z
" style="fill:#1f77b4;"/>
   </g>
   <g id="patch_144">
    <path clip-path="url(#pe5db412fd7)" d="M 355.698231 318.04 
L 356.805546 318.04 
L 356.805546 316.461237 
L 355.698231 316.461237 
z
" style="fill:#1f77b4;"/>
   </g>
   <g id="patch_145">
    <path clip-path="url(#pe5db412fd7)" d="M 356.805546 318.04 
L 357.912862 318.04 
L 357.912862 318.04 
L 356.805546 318.04 
z
" style="fill:#1f77b4;"/>
   </g>
   <g id="patch_146">
    <path clip-path="url(#pe5db412fd7)" d="M 357.912862 318.04 
L 359.020178 318.04 
L 359.020178 316.518997 
L 357.912862 316.518997 
z
" style="fill:#1f77b4;"/>
   </g>
   <g id="patch_147">
    <path clip-path="url(#pe5db412fd7)" d="M 359.020178 318.04 
L 360.127493 318.04 
L 360.127493 318.04 
L 359.020178 318.04 
z
" style="fill:#1f77b4;"/>
   </g>
   <g id="patch_148">
    <path clip-path="url(#pe5db412fd7)" d="M 360.127493 318.04 
L 361.234809 318.04 
L 361.234809 318.04 
L 360.127493 318.04 
z
" style="fill:#1f77b4;"/>
   </g>
   <g id="patch_149">
    <path clip-path="url(#pe5db412fd7)" d="M 361.234809 318.04 
L 362.342124 318.04 
L 362.342124 316.59601 
L 361.234809 316.59601 
z
" style="fill:#1f77b4;"/>
   </g>
   <g id="patch_150">
    <path clip-path="url(#pe5db412fd7)" d="M 362.342124 318.04 
L 363.44944 318.04 
L 363.44944 318.04 
L 362.342124 318.04 
z
" style="fill:#1f77b4;"/>
   </g>
   <g id="patch_151">
    <path clip-path="url(#pe5db412fd7)" d="M 363.44944 318.04 
L 364.556755 318.04 
L 364.556755 316.653769 
L 363.44944 316.653769 
z
" style="fill:#1f77b4;"/>
   </g>
   <g id="patch_152">
    <path clip-path="url(#pe5db412fd7)" d="M 364.556755 318.04 
L 365.664071 318.04 
L 365.664071 318.04 
L 364.556755 318.04 
z
" style="fill:#1f77b4;"/>
   </g>
   <g id="patch_153">
    <path clip-path="url(#pe5db412fd7)" d="M 365.664071 318.04 
L 366.771387 318.04 
L 366.771387 316.653769 
L 365.664071 316.653769 
z
" style="fill:#1f77b4;"/>
   </g>
   <g id="patch_154">
    <path clip-path="url(#pe5db412fd7)" d="M 366.771387 318.04 
L 367.878702 318.04 
L 367.878702 318.04 
L 366.771387 318.04 
z
" style="fill:#1f77b4;"/>
   </g>
   <g id="patch_155">
    <path clip-path="url(#pe5db412fd7)" d="M 367.878702 318.04 
L 368.986018 318.04 
L 368.986018 316.403478 
L 367.878702 316.403478 
z
" style="fill:#1f77b4;"/>
   </g>
   <g id="patch_156">
    <path clip-path="url(#pe5db412fd7)" d="M 368.986018 318.04 
L 370.093333 318.04 
L 370.093333 318.04 
L 368.986018 318.04 
z
" style="fill:#1f77b4;"/>
   </g>
   <g id="patch_157">
    <path clip-path="url(#pe5db412fd7)" d="M 370.093333 318.04 
L 371.200649 318.04 
L 371.200649 318.04 
L 370.093333 318.04 
z
" style="fill:#1f77b4;"/>
   </g>
   <g id="patch_158">
    <path clip-path="url(#pe5db412fd7)" d="M 371.200649 318.04 
L 372.307964 318.04 
L 372.307964 316.692276 
L 371.200649 316.692276 
z
" style="fill:#1f77b4;"/>
   </g>
   <g id="patch_159">
    <path clip-path="url(#pe5db412fd7)" d="M 372.307964 318.04 
L 373.41528 318.04 
L 373.41528 318.04 
L 372.307964 318.04 
z
" style="fill:#1f77b4;"/>
   </g>
   <g id="patch_160">
    <path clip-path="url(#pe5db412fd7)" d="M 373.41528 318.04 
L 374.522596 318.04 
L 374.522596 316.730782 
L 373.41528 316.730782 
z
" style="fill:#1f77b4;"/>
   </g>
   <g id="patch_161">
    <path clip-path="url(#pe5db412fd7)" d="M 374.522596 318.04 
L 375.629911 318.04 
L 375.629911 318.04 
L 374.522596 318.04 
z
" style="fill:#1f77b4;"/>
   </g>
   <g id="patch_162">
    <path clip-path="url(#pe5db412fd7)" d="M 375.629911 318.04 
L 376.737227 318.04 
L 376.737227 316.673023 
L 375.629911 316.673023 
z
" style="fill:#1f77b4;"/>
   </g>
   <g id="patch_163">
    <path clip-path="url(#pe5db412fd7)" d="M 376.737227 318.04 
L 377.844542 318.04 
L 377.844542 318.04 
L 376.737227 318.04 
z
" style="fill:#1f77b4;"/>
   </g>
   <g id="patch_164">
    <path clip-path="url(#pe5db412fd7)" d="M 377.844542 318.04 
L 378.951858 318.04 
L 378.951858 318.04 
L 377.844542 318.04 
z
" style="fill:#1f77b4;"/>
   </g>
   <g id="patch_165">
    <path clip-path="url(#pe5db412fd7)" d="M 378.951858 318.04 
L 380.059174 318.04 
L 380.059174 317.096593 
L 378.951858 317.096593 
z
" style="fill:#1f77b4;"/>
   </g>
   <g id="patch_166">
    <path clip-path="url(#pe5db412fd7)" d="M 380.059174 318.04 
L 381.166489 318.04 
L 381.166489 318.04 
L 380.059174 318.04 
z
" style="fill:#1f77b4;"/>
   </g>
   <g id="patch_167">
    <path clip-path="url(#pe5db412fd7)" d="M 381.166489 318.04 
L 382.273805 318.04 
L 382.273805 316.846301 
L 381.166489 316.846301 
z
" style="fill:#1f77b4;"/>
   </g>
   <g id="patch_168">
    <path clip-path="url(#pe5db412fd7)" d="M 382.273805 318.04 
L 383.38112 318.04 
L 383.38112 318.04 
L 382.273805 318.04 
z
" style="fill:#1f77b4;"/>
   </g>
   <g id="patch_169">
    <path clip-path="url(#pe5db412fd7)" d="M 383.38112 318.04 
L 384.488436 318.04 
L 384.488436 316.807795 
L 383.38112 316.807795 
z
" style="fill:#1f77b4;"/>
   </g>
   <g id="patch_170">
    <path clip-path="url(#pe5db412fd7)" d="M 384.488436 318.04 
L 385.595751 318.04 
L 385.595751 318.04 
L 384.488436 318.04 
z
" style="fill:#1f77b4;"/>
   </g>
   <g id="patch_171">
    <path clip-path="url(#pe5db412fd7)" d="M 385.595751 318.04 
L 386.703067 318.04 
L 386.703067 316.788542 
L 385.595751 316.788542 
z
" style="fill:#1f77b4;"/>
   </g>
   <g id="patch_172">
    <path clip-path="url(#pe5db412fd7)" d="M 386.703067 318.04 
L 387.810383 318.04 
L 387.810383 318.04 
L 386.703067 318.04 
z
" style="fill:#1f77b4;"/>
   </g>
   <g id="patch_173">
    <path clip-path="url(#pe5db412fd7)" d="M 387.810383 318.04 
L 388.917698 318.04 
L 388.917698 318.04 
L 387.810383 318.04 
z
" style="fill:#1f77b4;"/>
   </g>
   <g id="patch_174">
    <path clip-path="url(#pe5db412fd7)" d="M 388.917698 318.04 
L 390.025014 318.04 
L 390.025014 316.865555 
L 388.917698 316.865555 
z
" style="fill:#1f77b4;"/>
   </g>
   <g id="patch_175">
    <path clip-path="url(#pe5db412fd7)" d="M 390.025014 318.04 
L 391.132329 318.04 
L 391.132329 318.04 
L 390.025014 318.04 
z
" style="fill:#1f77b4;"/>
   </g>
   <g id="patch_176">
    <path clip-path="url(#pe5db412fd7)" d="M 391.132329 318.04 
L 392.239645 318.04 
L 392.239645 317.269872 
L 391.132329 317.269872 
z
" style="fill:#1f77b4;"/>
   </g>
   <g id="patch_177">
    <path clip-path="url(#pe5db412fd7)" d="M 392.239645 318.04 
L 393.346961 318.04 
L 393.346961 318.04 
L 392.239645 318.04 
z
" style="fill:#1f77b4;"/>
   </g>
   <g id="patch_178">
    <path clip-path="url(#pe5db412fd7)" d="M 393.346961 318.04 
L 394.454276 318.04 
L 394.454276 316.923314 
L 393.346961 316.923314 
z
" style="fill:#1f77b4;"/>
   </g>
   <g id="patch_179">
    <path clip-path="url(#pe5db412fd7)" d="M 394.454276 318.04 
L 395.561592 318.04 
L 395.561592 318.04 
L 394.454276 318.04 
z
" style="fill:#1f77b4;"/>
   </g>
   <g id="patch_180">
    <path clip-path="url(#pe5db412fd7)" d="M 395.561592 318.04 
L 396.668907 318.04 
L 396.668907 317.096593 
L 395.561592 317.096593 
z
" style="fill:#1f77b4;"/>
   </g>
   <g id="patch_181">
    <path clip-path="url(#pe5db412fd7)" d="M 396.668907 318.04 
L 397.776223 318.04 
L 397.776223 318.04 
L 396.668907 318.04 
z
" style="fill:#1f77b4;"/>
   </g>
   <g id="patch_182">
    <path clip-path="url(#pe5db412fd7)" d="M 397.776223 318.04 
L 398.883538 318.04 
L 398.883538 318.04 
L 397.776223 318.04 
z
" style="fill:#1f77b4;"/>
   </g>
   <g id="patch_183">
    <path clip-path="url(#pe5db412fd7)" d="M 398.883538 318.04 
L 399.990854 318.04 
L 399.990854 316.942567 
L 398.883538 316.942567 
z
" style="fill:#1f77b4;"/>
   </g>
   <g id="patch_184">
    <path clip-path="url(#pe5db412fd7)" d="M 399.990854 318.04 
L 401.09817 318.04 
L 401.09817 318.04 
L 399.990854 318.04 
z
" style="fill:#1f77b4;"/>
   </g>
   <g id="patch_185">
    <path clip-path="url(#pe5db412fd7)" d="M 401.09817 318.04 
L 402.205485 318.04 
L 402.205485 317.192859 
L 401.09817 317.192859 
z
" style="fill:#1f77b4;"/>
   </g>
   <g id="patch_186">
    <path clip-path="url(#pe5db412fd7)" d="M 402.205485 318.04 
L 403.312801 318.04 
L 403.312801 318.04 
L 402.205485 318.04 
z
" style="fill:#1f77b4;"/>
   </g>
   <g id="patch_187">
    <path clip-path="url(#pe5db412fd7)" d="M 403.312801 318.04 
L 404.420116 318.04 
L 404.420116 316.923314 
L 403.312801 316.923314 
z
" style="fill:#1f77b4;"/>
   </g>
   <g id="patch_188">
    <path clip-path="url(#pe5db412fd7)" d="M 404.420116 318.04 
L 405.527432 318.04 
L 405.527432 318.04 
L 404.420116 318.04 
z
" style="fill:#1f77b4;"/>
   </g>
   <g id="patch_189">
    <path clip-path="url(#pe5db412fd7)" d="M 405.527432 318.04 
L 406.634747 318.04 
L 406.634747 317.01958 
L 405.527432 317.01958 
z
" style="fill:#1f77b4;"/>
   </g>
   <g id="patch_190">
    <path clip-path="url(#pe5db412fd7)" d="M 406.634747 318.04 
L 407.742063 318.04 
L 407.742063 318.04 
L 406.634747 318.04 
z
" style="fill:#1f77b4;"/>
   </g>
   <g id="patch_191">
    <path clip-path="url(#pe5db412fd7)" d="M 407.742063 318.04 
L 408.849379 318.04 
L 408.849379 318.04 
L 407.742063 318.04 
z
" style="fill:#1f77b4;"/>
   </g>
   <g id="patch_192">
    <path clip-path="url(#pe5db412fd7)" d="M 408.849379 318.04 
L 409.956694 318.04 
L 409.956694 317.154353 
L 408.849379 317.154353 
z
" style="fill:#1f77b4;"/>
   </g>
   <g id="patch_193">
    <path clip-path="url(#pe5db412fd7)" d="M 409.956694 318.04 
L 411.06401 318.04 
L 411.06401 318.04 
L 409.956694 318.04 
z
" style="fill:#1f77b4;"/>
   </g>
   <g id="patch_194">
    <path clip-path="url(#pe5db412fd7)" d="M 411.06401 318.04 
L 412.171325 318.04 
L 412.171325 317.366138 
L 411.06401 317.366138 
z
" style="fill:#1f77b4;"/>
   </g>
   <g id="patch_195">
    <path clip-path="url(#pe5db412fd7)" d="M 412.171325 318.04 
L 413.278641 318.04 
L 413.278641 318.04 
L 412.171325 318.04 
z
" style="fill:#1f77b4;"/>
   </g>
   <g id="patch_196">
    <path clip-path="url(#pe5db412fd7)" d="M 413.278641 318.04 
L 414.385957 318.04 
L 414.385957 317.308378 
L 413.278641 317.308378 
z
" style="fill:#1f77b4;"/>
   </g>
   <g id="patch_197">
    <path clip-path="url(#pe5db412fd7)" d="M 414.385957 318.04 
L 415.493272 318.04 
L 415.493272 318.04 
L 414.385957 318.04 
z
" style="fill:#1f77b4;"/>
   </g>
   <g id="patch_198">
    <path clip-path="url(#pe5db412fd7)" d="M 415.493272 318.04 
L 416.600588 318.04 
L 416.600588 318.04 
L 415.493272 318.04 
z
" style="fill:#1f77b4;"/>
   </g>
   <g id="patch_199">
    <path clip-path="url(#pe5db412fd7)" d="M 416.600588 318.04 
L 417.707903 318.04 
L 417.707903 317.385391 
L 416.600588 317.385391 
z
" style="fill:#1f77b4;"/>
   </g>
   <g id="patch_200">
    <path clip-path="url(#pe5db412fd7)" d="M 417.707903 318.04 
L 418.815219 318.04 
L 418.815219 318.04 
L 417.707903 318.04 
z
" style="fill:#1f77b4;"/>
   </g>
   <g id="patch_201">
    <path clip-path="url(#pe5db412fd7)" d="M 418.815219 318.04 
L 419.922534 318.04 
L 419.922534 317.038833 
L 418.815219 317.038833 
z
" style="fill:#1f77b4;"/>
   </g>
   <g id="patch_202">
    <path clip-path="url(#pe5db412fd7)" d="M 419.922534 318.04 
L 421.02985 318.04 
L 421.02985 318.04 
L 419.922534 318.04 
z
" style="fill:#1f77b4;"/>
   </g>
   <g id="patch_203">
    <path clip-path="url(#pe5db412fd7)" d="M 421.02985 318.04 
L 422.137166 318.04 
L 422.137166 317.327631 
L 421.02985 317.327631 
z
" style="fill:#1f77b4;"/>
   </g>
   <g id="patch_204">
    <path clip-path="url(#pe5db412fd7)" d="M 422.137166 318.04 
L 423.244481 318.04 
L 423.244481 318.04 
L 422.137166 318.04 
z
" style="fill:#1f77b4;"/>
   </g>
   <g id="patch_205">
    <path clip-path="url(#pe5db412fd7)" d="M 423.244481 318.04 
L 424.351797 318.04 
L 424.351797 317.385391 
L 423.244481 317.385391 
z
" style="fill:#1f77b4;"/>
   </g>
   <g id="patch_206">
    <path clip-path="url(#pe5db412fd7)" d="M 424.351797 318.04 
L 425.459112 318.04 
L 425.459112 318.04 
L 424.351797 318.04 
z
" style="fill:#1f77b4;"/>
   </g>
   <g id="patch_207">
    <path clip-path="url(#pe5db412fd7)" d="M 425.459112 318.04 
L 426.566428 318.04 
L 426.566428 318.04 
L 425.459112 318.04 
z
" style="fill:#1f77b4;"/>
   </g>
   <g id="patch_208">
    <path clip-path="url(#pe5db412fd7)" d="M 426.566428 318.04 
L 427.673743 318.04 
L 427.673743 317.308378 
L 426.566428 317.308378 
z
" style="fill:#1f77b4;"/>
   </g>
   <g id="patch_209">
    <path clip-path="url(#pe5db412fd7)" d="M 427.673743 318.04 
L 428.781059 318.04 
L 428.781059 318.04 
L 427.673743 318.04 
z
" style="fill:#1f77b4;"/>
   </g>
   <g id="patch_210">
    <path clip-path="url(#pe5db412fd7)" d="M 428.781059 318.04 
L 429.888375 318.04 
L 429.888375 317.212112 
L 428.781059 317.212112 
z
" style="fill:#1f77b4;"/>
   </g>
   <g id="patch_211">
    <path clip-path="url(#pe5db412fd7)" d="M 429.888375 318.04 
L 430.99569 318.04 
L 430.99569 318.04 
L 429.888375 318.04 
z
" style="fill:#1f77b4;"/>
   </g>
   <g id="patch_212">
    <path clip-path="url(#pe5db412fd7)" d="M 430.99569 318.04 
L 432.103006 318.04 
L 432.103006 317.462404 
L 430.99569 317.462404 
z
" style="fill:#1f77b4;"/>
   </g>
   <g id="patch_213">
    <path clip-path="url(#pe5db412fd7)" d="M 432.103006 318.04 
L 433.210321 318.04 
L 433.210321 318.04 
L 432.103006 318.04 
z
" style="fill:#1f77b4;"/>
   </g>
   <g id="patch_214">
    <path clip-path="url(#pe5db412fd7)" d="M 433.210321 318.04 
L 434.317637 318.04 
L 434.317637 317.443151 
L 433.210321 317.443151 
z
" style="fill:#1f77b4;"/>
   </g>
   <g id="patch_215">
    <path clip-path="url(#pe5db412fd7)" d="M 434.317637 318.04 
L 435.424953 318.04 
L 435.424953 318.04 
L 434.317637 318.04 
z
" style="fill:#1f77b4;"/>
   </g>
   <g id="patch_216">
    <path clip-path="url(#pe5db412fd7)" d="M 435.424953 318.04 
L 436.532268 318.04 
L 436.532268 318.04 
L 435.424953 318.04 
z
" style="fill:#1f77b4;"/>
   </g>
   <g id="patch_217">
    <path clip-path="url(#pe5db412fd7)" d="M 436.532268 318.04 
L 437.639584 318.04 
L 437.639584 317.55867 
L 436.532268 317.55867 
z
" style="fill:#1f77b4;"/>
   </g>
   <g id="patch_218">
    <path clip-path="url(#pe5db412fd7)" d="M 437.639584 318.04 
L 438.746899 318.04 
L 438.746899 318.04 
L 437.639584 318.04 
z
" style="fill:#1f77b4;"/>
   </g>
   <g id="patch_219">
    <path clip-path="url(#pe5db412fd7)" d="M 438.746899 318.04 
L 439.854215 318.04 
L 439.854215 317.269872 
L 438.746899 317.269872 
z
" style="fill:#1f77b4;"/>
   </g>
   <g id="patch_220">
    <path clip-path="url(#pe5db412fd7)" d="M 439.854215 318.04 
L 440.96153 318.04 
L 440.96153 318.04 
L 439.854215 318.04 
z
" style="fill:#1f77b4;"/>
   </g>
   <g id="patch_221">
    <path clip-path="url(#pe5db412fd7)" d="M 440.96153 318.04 
L 442.068846 318.04 
L 442.068846 317.269872 
L 440.96153 317.269872 
z
" style="fill:#1f77b4;"/>
   </g>
   <g id="patch_222">
    <path clip-path="url(#pe5db412fd7)" d="M 442.068846 318.04 
L 443.176162 318.04 
L 443.176162 318.04 
L 442.068846 318.04 
z
" style="fill:#1f77b4;"/>
   </g>
   <g id="patch_223">
    <path clip-path="url(#pe5db412fd7)" d="M 443.176162 318.04 
L 444.283477 318.04 
L 444.283477 317.423897 
L 443.176162 317.423897 
z
" style="fill:#1f77b4;"/>
   </g>
   <g id="patch_224">
    <path clip-path="url(#pe5db412fd7)" d="M 444.283477 318.04 
L 445.390793 318.04 
L 445.390793 318.04 
L 444.283477 318.04 
z
" style="fill:#1f77b4;"/>
   </g>
   <g id="patch_225">
    <path clip-path="url(#pe5db412fd7)" d="M 445.390793 318.04 
L 446.498108 318.04 
L 446.498108 318.04 
L 445.390793 318.04 
z
" style="fill:#1f77b4;"/>
   </g>
   <g id="patch_226">
    <path clip-path="url(#pe5db412fd7)" d="M 446.498108 318.04 
L 447.605424 318.04 
L 447.605424 317.366138 
L 446.498108 317.366138 
z
" style="fill:#1f77b4;"/>
   </g>
   <g id="patch_227">
    <path clip-path="url(#pe5db412fd7)" d="M 447.605424 318.04 
L 448.71274 318.04 
L 448.71274 318.04 
L 447.605424 318.04 
z
" style="fill:#1f77b4;"/>
   </g>
   <g id="patch_228">
    <path clip-path="url(#pe5db412fd7)" d="M 448.71274 318.04 
L 449.820055 318.04 
L 449.820055 317.635683 
L 448.71274 317.635683 
z
" style="fill:#1f77b4;"/>
   </g>
   <g id="patch_229">
    <path clip-path="url(#pe5db412fd7)" d="M 449.820055 318.04 
L 450.927371 318.04 
L 450.927371 318.04 
L 449.820055 318.04 
z
" style="fill:#1f77b4;"/>
   </g>
   <g id="patch_230">
    <path clip-path="url(#pe5db412fd7)" d="M 450.927371 318.04 
L 452.034686 318.04 
L 452.034686 317.654936 
L 450.927371 317.654936 
z
" style="fill:#1f77b4;"/>
   </g>
   <g id="patch_231">
    <path clip-path="url(#pe5db412fd7)" d="M 452.034686 318.04 
L 453.142002 318.04 
L 453.142002 318.04 
L 452.034686 318.04 
z
" style="fill:#1f77b4;"/>
   </g>
   <g id="patch_232">
    <path clip-path="url(#pe5db412fd7)" d="M 453.142002 318.04 
L 454.249317 318.04 
L 454.249317 318.04 
L 453.142002 318.04 
z
" style="fill:#1f77b4;"/>
   </g>
   <g id="patch_233">
    <path clip-path="url(#pe5db412fd7)" d="M 454.249317 318.04 
L 455.356633 318.04 
L 455.356633 317.539417 
L 454.249317 317.539417 
z
" style="fill:#1f77b4;"/>
   </g>
   <g id="patch_234">
    <path clip-path="url(#pe5db412fd7)" d="M 455.356633 318.04 
L 456.463949 318.04 
L 456.463949 318.04 
L 455.356633 318.04 
z
" style="fill:#1f77b4;"/>
   </g>
   <g id="patch_235">
    <path clip-path="url(#pe5db412fd7)" d="M 456.463949 318.04 
L 457.571264 318.04 
L 457.571264 317.55867 
L 456.463949 317.55867 
z
" style="fill:#1f77b4;"/>
   </g>
   <g id="patch_236">
    <path clip-path="url(#pe5db412fd7)" d="M 457.571264 318.04 
L 458.67858 318.04 
L 458.67858 318.04 
L 457.571264 318.04 
z
" style="fill:#1f77b4;"/>
   </g>
   <g id="patch_237">
    <path clip-path="url(#pe5db412fd7)" d="M 458.67858 318.04 
L 459.785895 318.04 
L 459.785895 317.693442 
L 458.67858 317.693442 
z
" style="fill:#1f77b4;"/>
   </g>
   <g id="patch_238">
    <path clip-path="url(#pe5db412fd7)" d="M 459.785895 318.04 
L 460.893211 318.04 
L 460.893211 318.04 
L 459.785895 318.04 
z
" style="fill:#1f77b4;"/>
   </g>
   <g id="patch_239">
    <path clip-path="url(#pe5db412fd7)" d="M 460.893211 318.04 
L 462.000526 318.04 
L 462.000526 317.520163 
L 460.893211 317.520163 
z
" style="fill:#1f77b4;"/>
   </g>
   <g id="patch_240">
    <path clip-path="url(#pe5db412fd7)" d="M 462.000526 318.04 
L 463.107842 318.04 
L 463.107842 318.04 
L 462.000526 318.04 
z
" style="fill:#1f77b4;"/>
   </g>
   <g id="patch_241">
    <path clip-path="url(#pe5db412fd7)" d="M 463.107842 318.04 
L 464.215158 318.04 
L 464.215158 318.04 
L 463.107842 318.04 
z
" style="fill:#1f77b4;"/>
   </g>
   <g id="patch_242">
    <path clip-path="url(#pe5db412fd7)" d="M 464.215158 318.04 
L 465.322473 318.04 
L 465.322473 317.674189 
L 464.215158 317.674189 
z
" style="fill:#1f77b4;"/>
   </g>
   <g id="patch_243">
    <path clip-path="url(#pe5db412fd7)" d="M 465.322473 318.04 
L 466.429789 318.04 
L 466.429789 318.04 
L 465.322473 318.04 
z
" style="fill:#1f77b4;"/>
   </g>
   <g id="patch_244">
    <path clip-path="url(#pe5db412fd7)" d="M 466.429789 318.04 
L 467.537104 318.04 
L 467.537104 317.539417 
L 466.429789 317.539417 
z
" style="fill:#1f77b4;"/>
   </g>
   <g id="patch_245">
    <path clip-path="url(#pe5db412fd7)" d="M 467.537104 318.04 
L 468.64442 318.04 
L 468.64442 318.04 
L 467.537104 318.04 
z
" style="fill:#1f77b4;"/>
   </g>
   <g id="patch_246">
    <path clip-path="url(#pe5db412fd7)" d="M 468.64442 318.04 
L 469.751736 318.04 
L 469.751736 317.654936 
L 468.64442 317.654936 
z
" style="fill:#1f77b4;"/>
   </g>
   <g id="patch_247">
    <path clip-path="url(#pe5db412fd7)" d="M 469.751736 318.04 
L 470.859051 318.04 
L 470.859051 318.04 
L 469.751736 318.04 
z
" style="fill:#1f77b4;"/>
   </g>
   <g id="patch_248">
    <path clip-path="url(#pe5db412fd7)" d="M 470.859051 318.04 
L 471.966367 318.04 
L 471.966367 317.577923 
L 470.859051 317.577923 
z
" style="fill:#1f77b4;"/>
   </g>
   <g id="patch_249">
    <path clip-path="url(#pe5db412fd7)" d="M 471.966367 318.04 
L 473.073682 318.04 
L 473.073682 318.04 
L 471.966367 318.04 
z
" style="fill:#1f77b4;"/>
   </g>
   <g id="patch_250">
    <path clip-path="url(#pe5db412fd7)" d="M 473.073682 318.04 
L 474.180998 318.04 
L 474.180998 318.04 
L 473.073682 318.04 
z
" style="fill:#1f77b4;"/>
   </g>
   <g id="patch_251">
    <path clip-path="url(#pe5db412fd7)" d="M 474.180998 318.04 
L 475.288313 318.04 
L 475.288313 317.789708 
L 474.180998 317.789708 
z
" style="fill:#1f77b4;"/>
   </g>
   <g id="patch_252">
    <path clip-path="url(#pe5db412fd7)" d="M 475.288313 318.04 
L 476.395629 318.04 
L 476.395629 318.04 
L 475.288313 318.04 
z
" style="fill:#1f77b4;"/>
   </g>
   <g id="patch_253">
    <path clip-path="url(#pe5db412fd7)" d="M 476.395629 318.04 
L 477.502945 318.04 
L 477.502945 317.597176 
L 476.395629 317.597176 
z
" style="fill:#1f77b4;"/>
   </g>
   <g id="patch_254">
    <path clip-path="url(#pe5db412fd7)" d="M 477.502945 318.04 
L 478.61026 318.04 
L 478.61026 318.04 
L 477.502945 318.04 
z
" style="fill:#1f77b4;"/>
   </g>
   <g id="patch_255">
    <path clip-path="url(#pe5db412fd7)" d="M 478.61026 318.04 
L 479.717576 318.04 
L 479.717576 317.539417 
L 478.61026 317.539417 
z
" style="fill:#1f77b4;"/>
   </g>
   <g id="matplotlib.axis_7">
    <g id="xtick_6">
     <g id="line2d_33">
      <g>
       <use style="stroke:#000000;stroke-width:0.8;" x="261.022749" xlink:href="#m1c51306585" y="318.04"/>
      </g>
     </g>
     <g id="text_28">
      <!-- 0 -->
      <g transform="translate(257.841499 332.638438)scale(0.1 -0.1)">
       <use xlink:href="#DejaVuSans-30"/>
      </g>
     </g>
    </g>
    <g id="xtick_7">
     <g id="line2d_34">
      <g>
       <use style="stroke:#000000;stroke-width:0.8;" x="316.388528" xlink:href="#m1c51306585" y="318.04"/>
      </g>
     </g>
     <g id="text_29">
      <!-- 50 -->
      <g transform="translate(310.026028 332.638438)scale(0.1 -0.1)">
       <use xlink:href="#DejaVuSans-35"/>
       <use x="63.623047" xlink:href="#DejaVuSans-30"/>
      </g>
     </g>
    </g>
    <g id="xtick_8">
     <g id="line2d_35">
      <g>
       <use style="stroke:#000000;stroke-width:0.8;" x="371.754307" xlink:href="#m1c51306585" y="318.04"/>
      </g>
     </g>
     <g id="text_30">
      <!-- 100 -->
      <g transform="translate(362.210557 332.638438)scale(0.1 -0.1)">
       <use xlink:href="#DejaVuSans-31"/>
       <use x="63.623047" xlink:href="#DejaVuSans-30"/>
       <use x="127.246094" xlink:href="#DejaVuSans-30"/>
      </g>
     </g>
    </g>
    <g id="xtick_9">
     <g id="line2d_36">
      <g>
       <use style="stroke:#000000;stroke-width:0.8;" x="427.120086" xlink:href="#m1c51306585" y="318.04"/>
      </g>
     </g>
     <g id="text_31">
      <!-- 150 -->
      <g transform="translate(417.576336 332.638438)scale(0.1 -0.1)">
       <use xlink:href="#DejaVuSans-31"/>
       <use x="63.623047" xlink:href="#DejaVuSans-35"/>
       <use x="127.246094" xlink:href="#DejaVuSans-30"/>
      </g>
     </g>
    </g>
    <g id="xtick_10">
     <g id="line2d_37">
      <g>
       <use style="stroke:#000000;stroke-width:0.8;" x="482.485865" xlink:href="#m1c51306585" y="318.04"/>
      </g>
     </g>
     <g id="text_32">
      <!-- 200 -->
      <g transform="translate(472.942115 332.638438)scale(0.1 -0.1)">
       <use xlink:href="#DejaVuSans-32"/>
       <use x="63.623047" xlink:href="#DejaVuSans-30"/>
       <use x="127.246094" xlink:href="#DejaVuSans-30"/>
      </g>
     </g>
    </g>
    <g id="text_33">
     <!-- counts [norm.] per Gene -->
     <g transform="translate(308.469115 346.316563)scale(0.1 -0.1)">
      <use xlink:href="#DejaVuSans-63"/>
      <use x="54.980469" xlink:href="#DejaVuSans-6f"/>
      <use x="116.162109" xlink:href="#DejaVuSans-75"/>
      <use x="179.541016" xlink:href="#DejaVuSans-6e"/>
      <use x="242.919922" xlink:href="#DejaVuSans-74"/>
      <use x="282.128906" xlink:href="#DejaVuSans-73"/>
      <use x="334.228516" xlink:href="#DejaVuSans-20"/>
      <use x="366.015625" xlink:href="#DejaVuSans-5b"/>
      <use x="405.029297" xlink:href="#DejaVuSans-6e"/>
      <use x="468.408203" xlink:href="#DejaVuSans-6f"/>
      <use x="529.589844" xlink:href="#DejaVuSans-72"/>
      <use x="570.6875" xlink:href="#DejaVuSans-6d"/>
      <use x="668.099609" xlink:href="#DejaVuSans-2e"/>
      <use x="699.886719" xlink:href="#DejaVuSans-5d"/>
      <use x="738.900391" xlink:href="#DejaVuSans-20"/>
      <use x="770.6875" xlink:href="#DejaVuSans-70"/>
      <use x="834.164062" xlink:href="#DejaVuSans-65"/>
      <use x="895.6875" xlink:href="#DejaVuSans-72"/>
      <use x="936.800781" xlink:href="#DejaVuSans-20"/>
      <use x="968.587891" xlink:href="#DejaVuSans-47"/>
      <use x="1046.078125" xlink:href="#DejaVuSans-65"/>
      <use x="1107.601562" xlink:href="#DejaVuSans-6e"/>
      <use x="1170.980469" xlink:href="#DejaVuSans-65"/>
     </g>
    </g>
   </g>
   <g id="matplotlib.axis_8">
    <g id="ytick_16">
     <g id="line2d_38">
      <g>
       <use style="stroke:#000000;stroke-width:0.8;" x="249.506667" xlink:href="#me9bac78135" y="318.04"/>
      </g>
     </g>
     <g id="text_34">
      <!-- 0 -->
      <g transform="translate(236.144167 321.839219)scale(0.1 -0.1)">
       <use xlink:href="#DejaVuSans-30"/>
      </g>
     </g>
    </g>
    <g id="ytick_17">
     <g id="line2d_39">
      <g>
       <use style="stroke:#000000;stroke-width:0.8;" x="249.506667" xlink:href="#me9bac78135" y="279.533592"/>
      </g>
     </g>
     <g id="text_35">
      <!-- 2000 -->
      <g transform="translate(217.056667 283.332811)scale(0.1 -0.1)">
       <use xlink:href="#DejaVuSans-32"/>
       <use x="63.623047" xlink:href="#DejaVuSans-30"/>
       <use x="127.246094" xlink:href="#DejaVuSans-30"/>
       <use x="190.869141" xlink:href="#DejaVuSans-30"/>
      </g>
     </g>
    </g>
    <g id="ytick_18">
     <g id="line2d_40">
      <g>
       <use style="stroke:#000000;stroke-width:0.8;" x="249.506667" xlink:href="#me9bac78135" y="241.027184"/>
      </g>
     </g>
     <g id="text_36">
      <!-- 4000 -->
      <g transform="translate(217.056667 244.826402)scale(0.1 -0.1)">
       <use xlink:href="#DejaVuSans-34"/>
       <use x="63.623047" xlink:href="#DejaVuSans-30"/>
       <use x="127.246094" xlink:href="#DejaVuSans-30"/>
       <use x="190.869141" xlink:href="#DejaVuSans-30"/>
      </g>
     </g>
    </g>
    <g id="ytick_19">
     <g id="line2d_41">
      <g>
       <use style="stroke:#000000;stroke-width:0.8;" x="249.506667" xlink:href="#me9bac78135" y="202.520775"/>
      </g>
     </g>
     <g id="text_37">
      <!-- 6000 -->
      <g transform="translate(217.056667 206.319994)scale(0.1 -0.1)">
       <use xlink:href="#DejaVuSans-36"/>
       <use x="63.623047" xlink:href="#DejaVuSans-30"/>
       <use x="127.246094" xlink:href="#DejaVuSans-30"/>
       <use x="190.869141" xlink:href="#DejaVuSans-30"/>
      </g>
     </g>
    </g>
    <g id="text_38">
     <!-- Number of Genes -->
     <g transform="translate(210.976979 302.924375)rotate(-90)scale(0.1 -0.1)">
      <use xlink:href="#DejaVuSans-4e"/>
      <use x="74.804688" xlink:href="#DejaVuSans-75"/>
      <use x="138.183594" xlink:href="#DejaVuSans-6d"/>
      <use x="235.595703" xlink:href="#DejaVuSans-62"/>
      <use x="299.072266" xlink:href="#DejaVuSans-65"/>
      <use x="360.595703" xlink:href="#DejaVuSans-72"/>
      <use x="401.708984" xlink:href="#DejaVuSans-20"/>
      <use x="433.496094" xlink:href="#DejaVuSans-6f"/>
      <use x="494.677734" xlink:href="#DejaVuSans-66"/>
      <use x="529.882812" xlink:href="#DejaVuSans-20"/>
      <use x="561.669922" xlink:href="#DejaVuSans-47"/>
      <use x="639.160156" xlink:href="#DejaVuSans-65"/>
      <use x="700.683594" xlink:href="#DejaVuSans-6e"/>
      <use x="764.0625" xlink:href="#DejaVuSans-65"/>
      <use x="825.585938" xlink:href="#DejaVuSans-73"/>
     </g>
    </g>
   </g>
   <g id="patch_256">
    <path d="M 249.506667 318.04 
L 249.506667 200.04 
" style="fill:none;stroke:#000000;stroke-linecap:square;stroke-linejoin:miter;stroke-width:0.8;"/>
   </g>
   <g id="patch_257">
    <path d="M 490.68 318.04 
L 490.68 200.04 
" style="fill:none;stroke:#000000;stroke-linecap:square;stroke-linejoin:miter;stroke-width:0.8;"/>
   </g>
   <g id="patch_258">
    <path d="M 249.506667 318.04 
L 490.68 318.04 
" style="fill:none;stroke:#000000;stroke-linecap:square;stroke-linejoin:miter;stroke-width:0.8;"/>
   </g>
   <g id="patch_259">
    <path d="M 249.506667 200.04 
L 490.68 200.04 
" style="fill:none;stroke:#000000;stroke-linecap:square;stroke-linejoin:miter;stroke-width:0.8;"/>
   </g>
   <g id="text_39">
    <!-- ToxA_1 Read Distribution -->
    <g transform="translate(294.143646 194.04)scale(0.12 -0.12)">
     <use xlink:href="#DejaVuSans-54"/>
     <use x="60.818359" xlink:href="#DejaVuSans-6f"/>
     <use x="121.953125" xlink:href="#DejaVuSans-78"/>
     <use x="181.132812" xlink:href="#DejaVuSans-41"/>
     <use x="249.541016" xlink:href="#DejaVuSans-5f"/>
     <use x="299.541016" xlink:href="#DejaVuSans-31"/>
     <use x="363.164062" xlink:href="#DejaVuSans-20"/>
     <use x="394.951172" xlink:href="#DejaVuSans-52"/>
     <use x="464.371094" xlink:href="#DejaVuSans-65"/>
     <use x="525.894531" xlink:href="#DejaVuSans-61"/>
     <use x="587.173828" xlink:href="#DejaVuSans-64"/>
     <use x="650.650391" xlink:href="#DejaVuSans-20"/>
     <use x="682.4375" xlink:href="#DejaVuSans-44"/>
     <use x="759.439453" xlink:href="#DejaVuSans-69"/>
     <use x="787.222656" xlink:href="#DejaVuSans-73"/>
     <use x="839.322266" xlink:href="#DejaVuSans-74"/>
     <use x="878.53125" xlink:href="#DejaVuSans-72"/>
     <use x="919.644531" xlink:href="#DejaVuSans-69"/>
     <use x="947.427734" xlink:href="#DejaVuSans-62"/>
     <use x="1010.904297" xlink:href="#DejaVuSans-75"/>
     <use x="1074.283203" xlink:href="#DejaVuSans-74"/>
     <use x="1113.492188" xlink:href="#DejaVuSans-69"/>
     <use x="1141.275391" xlink:href="#DejaVuSans-6f"/>
     <use x="1202.457031" xlink:href="#DejaVuSans-6e"/>
    </g>
   </g>
  </g>
 </g>
 <defs>
  <clipPath id="p906fad4b37">
   <rect height="118" width="120.586667" x="62.57" y="25.44"/>
  </clipPath>
  <clipPath id="peca218bc80">
   <rect height="118" width="241.173333" x="249.506667" y="25.44"/>
  </clipPath>
  <clipPath id="p6298a27342">
   <rect height="118" width="120.586667" x="62.57" y="200.04"/>
  </clipPath>
  <clipPath id="pe5db412fd7">
   <rect height="118" width="241.173333" x="249.506667" y="200.04"/>
  </clipPath>
 </defs>
</svg>
